G04 #@! TF.GenerationSoftware,KiCad,Pcbnew,7.0.6-7.0.6~ubuntu22.04.1*
G04 #@! TF.CreationDate,2023-07-20T16:44:22-04:00*
G04 #@! TF.ProjectId,f1c_linux,6631635f-6c69-46e7-9578-2e6b69636164,1*
G04 #@! TF.SameCoordinates,Original*
G04 #@! TF.FileFunction,Copper,L2,Inr*
G04 #@! TF.FilePolarity,Positive*
%FSLAX46Y46*%
G04 Gerber Fmt 4.6, Leading zero omitted, Abs format (unit mm)*
G04 Created by KiCad (PCBNEW 7.0.6-7.0.6~ubuntu22.04.1) date 2023-07-20 16:44:22*
%MOMM*%
%LPD*%
G01*
G04 APERTURE LIST*
G04 #@! TA.AperFunction,ComponentPad*
%ADD10R,1.700000X1.700000*%
G04 #@! TD*
G04 #@! TA.AperFunction,ComponentPad*
%ADD11O,1.700000X1.700000*%
G04 #@! TD*
G04 #@! TA.AperFunction,ComponentPad*
%ADD12O,1.000000X2.100000*%
G04 #@! TD*
G04 #@! TA.AperFunction,ComponentPad*
%ADD13O,1.000000X1.800000*%
G04 #@! TD*
G04 #@! TA.AperFunction,ViaPad*
%ADD14C,0.450000*%
G04 #@! TD*
G04 #@! TA.AperFunction,ViaPad*
%ADD15C,0.685800*%
G04 #@! TD*
G04 #@! TA.AperFunction,ViaPad*
%ADD16C,0.350000*%
G04 #@! TD*
G04 APERTURE END LIST*
D10*
X118425000Y-45000000D03*
D11*
X118425000Y-47540000D03*
X115885000Y-45000000D03*
X115885000Y-47540000D03*
X113345000Y-45000000D03*
X113345000Y-47540000D03*
X110805000Y-45000000D03*
X110805000Y-47540000D03*
X108265000Y-45000000D03*
X108265000Y-47540000D03*
X105725000Y-45000000D03*
X105725000Y-47540000D03*
X103185000Y-45000000D03*
X103185000Y-47540000D03*
X100645000Y-45000000D03*
X100645000Y-47540000D03*
X98105000Y-45000000D03*
X98105000Y-47540000D03*
X95565000Y-45000000D03*
X95565000Y-47540000D03*
X93025000Y-45000000D03*
X93025000Y-47540000D03*
X90485000Y-45000000D03*
X90485000Y-47540000D03*
X87945000Y-45000000D03*
X87945000Y-47540000D03*
X85405000Y-45000000D03*
X85405000Y-47540000D03*
X82865000Y-45000000D03*
X82865000Y-47540000D03*
X80325000Y-45000000D03*
X80325000Y-47540000D03*
X77785000Y-45000000D03*
X77785000Y-47540000D03*
X75245000Y-45000000D03*
X75245000Y-47540000D03*
X72705000Y-45000000D03*
X72705000Y-47540000D03*
X70165000Y-45000000D03*
X70165000Y-47540000D03*
X67625000Y-45000000D03*
X67625000Y-47540000D03*
X65085000Y-45000000D03*
X65085000Y-47540000D03*
X62545000Y-45000000D03*
X62545000Y-47540000D03*
D10*
X115885000Y-50080000D03*
D11*
X118425000Y-50080000D03*
X115885000Y-52620000D03*
X118425000Y-52620000D03*
D12*
X108880000Y-61410000D03*
D13*
X108880000Y-65610000D03*
D12*
X117520000Y-61410000D03*
D13*
X117520000Y-65610000D03*
D14*
X93700000Y-63400000D03*
X90437500Y-62100000D03*
D15*
X102800000Y-54994100D03*
X111100000Y-59244300D03*
X103800000Y-54994100D03*
X104300000Y-59400000D03*
X98500000Y-61800000D03*
X115600000Y-59200000D03*
X103700000Y-60500000D03*
X107700000Y-54575000D03*
X116700000Y-58700000D03*
X99800000Y-61800000D03*
X111900000Y-59600000D03*
D14*
X89250000Y-56750000D03*
D15*
X109750000Y-53000000D03*
D14*
X84250000Y-55500000D03*
X89250000Y-60500000D03*
X84250000Y-59250000D03*
X86750000Y-55500000D03*
X89250000Y-59250000D03*
X72400000Y-63500000D03*
X115500000Y-55700000D03*
X84250000Y-56750000D03*
D15*
X104500000Y-50000000D03*
D14*
X75000000Y-60500000D03*
X88000000Y-55500000D03*
X99000000Y-52150000D03*
X88000000Y-58000000D03*
D15*
X89800000Y-49400000D03*
D14*
X107100000Y-52200000D03*
D15*
X115528611Y-57129851D03*
D14*
X85500000Y-56750000D03*
X89250000Y-55500000D03*
D15*
X87600000Y-49300000D03*
D14*
X85500000Y-59250000D03*
D15*
X106950000Y-52950000D03*
D14*
X80700000Y-65400000D03*
X86750000Y-60500000D03*
D15*
X94400000Y-52000000D03*
X110670459Y-55000500D03*
D14*
X79400000Y-53300000D03*
X86750000Y-59250000D03*
X66400000Y-52600000D03*
X88000000Y-60500000D03*
D15*
X104500000Y-53800000D03*
D14*
X89250000Y-58000000D03*
X85500000Y-58000000D03*
X88000000Y-56750000D03*
X84250000Y-60500000D03*
X86750000Y-58000000D03*
X85500000Y-60500000D03*
X88000000Y-59250000D03*
X73300000Y-51500000D03*
X84250000Y-58000000D03*
D15*
X104000000Y-63000000D03*
D14*
X86750000Y-56750000D03*
X78100000Y-61300000D03*
X85000000Y-65960000D03*
D15*
X97000000Y-55000000D03*
X101800000Y-53100000D03*
X93300000Y-52000000D03*
D14*
X85500000Y-55500000D03*
D15*
X118175000Y-57175000D03*
D14*
X69500000Y-63500000D03*
X71700000Y-52600000D03*
X92600000Y-60800000D03*
D15*
X119600000Y-54900000D03*
D14*
X82300000Y-63900000D03*
X85200000Y-63900000D03*
X80800000Y-55500000D03*
D15*
X118700000Y-54950000D03*
D14*
X67700000Y-52600000D03*
X92600000Y-54600000D03*
X79200000Y-51800000D03*
D15*
X117975000Y-56275000D03*
X112300500Y-51399500D03*
X112300000Y-54300000D03*
D14*
X88100000Y-52100000D03*
X97400000Y-61000000D03*
D15*
X111600000Y-52100000D03*
D14*
X85600000Y-54000000D03*
X86450000Y-52000000D03*
D15*
X109700000Y-52100000D03*
D14*
X88900000Y-64800000D03*
D15*
X103912500Y-52237900D03*
D14*
X84100000Y-63800000D03*
X101900000Y-52212500D03*
X86500000Y-54000000D03*
D15*
X104800000Y-52300000D03*
D14*
X92600000Y-53600000D03*
D16*
X114500000Y-51300000D03*
D14*
X93900000Y-60300000D03*
X94300000Y-59700000D03*
X95000000Y-59600000D03*
X93600000Y-59000000D03*
X90800000Y-58600000D03*
X95700000Y-57800000D03*
X90800000Y-57800000D03*
X92700000Y-57400000D03*
X90800000Y-57000000D03*
X94100000Y-57100000D03*
X90800000Y-56200000D03*
X92700000Y-55800000D03*
X93900000Y-55700000D03*
X90800000Y-55000000D03*
X90800000Y-54300000D03*
X84900000Y-54200000D03*
X84200000Y-54200000D03*
X82500000Y-55400000D03*
X83450000Y-62200000D03*
X87300000Y-65007798D03*
X106300000Y-58200000D03*
X80500000Y-63200000D03*
X80500000Y-62500000D03*
X82500000Y-60900000D03*
D16*
X115000000Y-53600000D03*
X117200000Y-51305000D03*
D14*
X80500000Y-61800000D03*
X82800000Y-59600000D03*
X80600000Y-57600000D03*
X80400000Y-58600000D03*
X82600000Y-58700000D03*
X82600000Y-58000000D03*
X82600000Y-57300000D03*
X78600000Y-51100000D03*
X83100000Y-53900000D03*
X92800000Y-63400000D03*
X87150000Y-52100000D03*
X84500000Y-49600000D03*
X68900000Y-52600000D03*
X79900000Y-60200000D03*
X71200000Y-54400000D03*
X92000000Y-63400000D03*
X79000000Y-60800000D03*
X79000000Y-63800000D03*
G04 #@! TA.AperFunction,Conductor*
G36*
X118614833Y-43302595D02*
G01*
X118622546Y-43303216D01*
X118763025Y-43323414D01*
X118852857Y-43336330D01*
X118870145Y-43340091D01*
X119069144Y-43398523D01*
X119127922Y-43436298D01*
X119156947Y-43499853D01*
X119147003Y-43569012D01*
X119101248Y-43621816D01*
X119034209Y-43641500D01*
X117526345Y-43641500D01*
X117465797Y-43648011D01*
X117465795Y-43648011D01*
X117328795Y-43699111D01*
X117211739Y-43786739D01*
X117124111Y-43903795D01*
X117078861Y-44025111D01*
X117036989Y-44081044D01*
X116971524Y-44105460D01*
X116903252Y-44090607D01*
X116871454Y-44065762D01*
X116808240Y-43997094D01*
X116630576Y-43858811D01*
X116630575Y-43858810D01*
X116630572Y-43858808D01*
X116432580Y-43751661D01*
X116432577Y-43751659D01*
X116432574Y-43751658D01*
X116432571Y-43751657D01*
X116432569Y-43751656D01*
X116219637Y-43678556D01*
X115997569Y-43641500D01*
X115772431Y-43641500D01*
X115550362Y-43678556D01*
X115337430Y-43751656D01*
X115337419Y-43751661D01*
X115139427Y-43858808D01*
X115139422Y-43858812D01*
X114961761Y-43997092D01*
X114961756Y-43997097D01*
X114809284Y-44162723D01*
X114809276Y-44162734D01*
X114718808Y-44301206D01*
X114665662Y-44346562D01*
X114596431Y-44355986D01*
X114533095Y-44326484D01*
X114511192Y-44301206D01*
X114435049Y-44184661D01*
X114420722Y-44162732D01*
X114420719Y-44162729D01*
X114420715Y-44162723D01*
X114268243Y-43997097D01*
X114268238Y-43997092D01*
X114090577Y-43858812D01*
X114090572Y-43858808D01*
X113892580Y-43751661D01*
X113892577Y-43751659D01*
X113892574Y-43751658D01*
X113892571Y-43751657D01*
X113892569Y-43751656D01*
X113679637Y-43678556D01*
X113457569Y-43641500D01*
X113232431Y-43641500D01*
X113010362Y-43678556D01*
X112797430Y-43751656D01*
X112797419Y-43751661D01*
X112599427Y-43858808D01*
X112599422Y-43858812D01*
X112421761Y-43997092D01*
X112421756Y-43997097D01*
X112269284Y-44162723D01*
X112269276Y-44162734D01*
X112178807Y-44301206D01*
X112125660Y-44346563D01*
X112056429Y-44355986D01*
X111993093Y-44326483D01*
X111971191Y-44301206D01*
X111880722Y-44162732D01*
X111880717Y-44162727D01*
X111880715Y-44162723D01*
X111728243Y-43997097D01*
X111728238Y-43997092D01*
X111550577Y-43858812D01*
X111550572Y-43858808D01*
X111352580Y-43751661D01*
X111352577Y-43751659D01*
X111352574Y-43751658D01*
X111352571Y-43751657D01*
X111352569Y-43751656D01*
X111139637Y-43678556D01*
X110917569Y-43641500D01*
X110692431Y-43641500D01*
X110470362Y-43678556D01*
X110257430Y-43751656D01*
X110257419Y-43751661D01*
X110059427Y-43858808D01*
X110059422Y-43858812D01*
X109881761Y-43997092D01*
X109881756Y-43997097D01*
X109729284Y-44162723D01*
X109729276Y-44162734D01*
X109638808Y-44301206D01*
X109585662Y-44346562D01*
X109516431Y-44355986D01*
X109453095Y-44326484D01*
X109431192Y-44301206D01*
X109355049Y-44184661D01*
X109340722Y-44162732D01*
X109340719Y-44162729D01*
X109340715Y-44162723D01*
X109188243Y-43997097D01*
X109188238Y-43997092D01*
X109010577Y-43858812D01*
X109010572Y-43858808D01*
X108812580Y-43751661D01*
X108812577Y-43751659D01*
X108812574Y-43751658D01*
X108812571Y-43751657D01*
X108812569Y-43751656D01*
X108599637Y-43678556D01*
X108377569Y-43641500D01*
X108152431Y-43641500D01*
X107930362Y-43678556D01*
X107717430Y-43751656D01*
X107717419Y-43751661D01*
X107519427Y-43858808D01*
X107519422Y-43858812D01*
X107341761Y-43997092D01*
X107341756Y-43997097D01*
X107189284Y-44162723D01*
X107189276Y-44162734D01*
X107098807Y-44301206D01*
X107045660Y-44346563D01*
X106976429Y-44355986D01*
X106913093Y-44326483D01*
X106891191Y-44301206D01*
X106800722Y-44162732D01*
X106800717Y-44162727D01*
X106800715Y-44162723D01*
X106648243Y-43997097D01*
X106648238Y-43997092D01*
X106470577Y-43858812D01*
X106470572Y-43858808D01*
X106272580Y-43751661D01*
X106272577Y-43751659D01*
X106272574Y-43751658D01*
X106272571Y-43751657D01*
X106272569Y-43751656D01*
X106059637Y-43678556D01*
X105837569Y-43641500D01*
X105612431Y-43641500D01*
X105390362Y-43678556D01*
X105177430Y-43751656D01*
X105177419Y-43751661D01*
X104979427Y-43858808D01*
X104979422Y-43858812D01*
X104801761Y-43997092D01*
X104801756Y-43997097D01*
X104649284Y-44162723D01*
X104649276Y-44162734D01*
X104558808Y-44301206D01*
X104505662Y-44346562D01*
X104436431Y-44355986D01*
X104373095Y-44326484D01*
X104351192Y-44301206D01*
X104275049Y-44184661D01*
X104260722Y-44162732D01*
X104260719Y-44162729D01*
X104260715Y-44162723D01*
X104108243Y-43997097D01*
X104108238Y-43997092D01*
X103930577Y-43858812D01*
X103930572Y-43858808D01*
X103732580Y-43751661D01*
X103732577Y-43751659D01*
X103732574Y-43751658D01*
X103732571Y-43751657D01*
X103732569Y-43751656D01*
X103519637Y-43678556D01*
X103297569Y-43641500D01*
X103072431Y-43641500D01*
X102850362Y-43678556D01*
X102637430Y-43751656D01*
X102637419Y-43751661D01*
X102439427Y-43858808D01*
X102439422Y-43858812D01*
X102261761Y-43997092D01*
X102261756Y-43997097D01*
X102109284Y-44162723D01*
X102109276Y-44162734D01*
X102018807Y-44301206D01*
X101965660Y-44346563D01*
X101896429Y-44355986D01*
X101833093Y-44326483D01*
X101811191Y-44301206D01*
X101720722Y-44162732D01*
X101720717Y-44162727D01*
X101720715Y-44162723D01*
X101568243Y-43997097D01*
X101568238Y-43997092D01*
X101390577Y-43858812D01*
X101390572Y-43858808D01*
X101192580Y-43751661D01*
X101192577Y-43751659D01*
X101192574Y-43751658D01*
X101192571Y-43751657D01*
X101192569Y-43751656D01*
X100979637Y-43678556D01*
X100757569Y-43641500D01*
X100532431Y-43641500D01*
X100310362Y-43678556D01*
X100097430Y-43751656D01*
X100097419Y-43751661D01*
X99899427Y-43858808D01*
X99899422Y-43858812D01*
X99721761Y-43997092D01*
X99721756Y-43997097D01*
X99569284Y-44162723D01*
X99569276Y-44162734D01*
X99478808Y-44301206D01*
X99425662Y-44346562D01*
X99356431Y-44355986D01*
X99293095Y-44326484D01*
X99271192Y-44301206D01*
X99195049Y-44184661D01*
X99180722Y-44162732D01*
X99180719Y-44162729D01*
X99180715Y-44162723D01*
X99028243Y-43997097D01*
X99028238Y-43997092D01*
X98850577Y-43858812D01*
X98850572Y-43858808D01*
X98652580Y-43751661D01*
X98652577Y-43751659D01*
X98652574Y-43751658D01*
X98652571Y-43751657D01*
X98652569Y-43751656D01*
X98439637Y-43678556D01*
X98217569Y-43641500D01*
X97992431Y-43641500D01*
X97770362Y-43678556D01*
X97557430Y-43751656D01*
X97557419Y-43751661D01*
X97359427Y-43858808D01*
X97359422Y-43858812D01*
X97181761Y-43997092D01*
X97181756Y-43997097D01*
X97029284Y-44162723D01*
X97029276Y-44162734D01*
X96938807Y-44301206D01*
X96885660Y-44346563D01*
X96816429Y-44355986D01*
X96753093Y-44326483D01*
X96731191Y-44301206D01*
X96640722Y-44162732D01*
X96640717Y-44162727D01*
X96640715Y-44162723D01*
X96488243Y-43997097D01*
X96488238Y-43997092D01*
X96310577Y-43858812D01*
X96310572Y-43858808D01*
X96112580Y-43751661D01*
X96112577Y-43751659D01*
X96112574Y-43751658D01*
X96112571Y-43751657D01*
X96112569Y-43751656D01*
X95899637Y-43678556D01*
X95677569Y-43641500D01*
X95452431Y-43641500D01*
X95230362Y-43678556D01*
X95017430Y-43751656D01*
X95017419Y-43751661D01*
X94819427Y-43858808D01*
X94819422Y-43858812D01*
X94641761Y-43997092D01*
X94641756Y-43997097D01*
X94489284Y-44162723D01*
X94489276Y-44162734D01*
X94398808Y-44301206D01*
X94345662Y-44346562D01*
X94276431Y-44355986D01*
X94213095Y-44326484D01*
X94191192Y-44301206D01*
X94115049Y-44184661D01*
X94100722Y-44162732D01*
X94100719Y-44162729D01*
X94100715Y-44162723D01*
X93948243Y-43997097D01*
X93948238Y-43997092D01*
X93770577Y-43858812D01*
X93770572Y-43858808D01*
X93572580Y-43751661D01*
X93572577Y-43751659D01*
X93572574Y-43751658D01*
X93572571Y-43751657D01*
X93572569Y-43751656D01*
X93359637Y-43678556D01*
X93137569Y-43641500D01*
X92912431Y-43641500D01*
X92690362Y-43678556D01*
X92477430Y-43751656D01*
X92477419Y-43751661D01*
X92279427Y-43858808D01*
X92279422Y-43858812D01*
X92101761Y-43997092D01*
X92101756Y-43997097D01*
X91949284Y-44162723D01*
X91949276Y-44162734D01*
X91858807Y-44301206D01*
X91805660Y-44346563D01*
X91736429Y-44355986D01*
X91673093Y-44326483D01*
X91651191Y-44301206D01*
X91560722Y-44162732D01*
X91560717Y-44162727D01*
X91560715Y-44162723D01*
X91408243Y-43997097D01*
X91408238Y-43997092D01*
X91230577Y-43858812D01*
X91230572Y-43858808D01*
X91032580Y-43751661D01*
X91032577Y-43751659D01*
X91032574Y-43751658D01*
X91032571Y-43751657D01*
X91032569Y-43751656D01*
X90819637Y-43678556D01*
X90597569Y-43641500D01*
X90372431Y-43641500D01*
X90150362Y-43678556D01*
X89937430Y-43751656D01*
X89937419Y-43751661D01*
X89739427Y-43858808D01*
X89739422Y-43858812D01*
X89561761Y-43997092D01*
X89561756Y-43997097D01*
X89409284Y-44162723D01*
X89409276Y-44162734D01*
X89318808Y-44301206D01*
X89265662Y-44346562D01*
X89196431Y-44355986D01*
X89133095Y-44326484D01*
X89111192Y-44301206D01*
X89035049Y-44184661D01*
X89020722Y-44162732D01*
X89020719Y-44162729D01*
X89020715Y-44162723D01*
X88868243Y-43997097D01*
X88868238Y-43997092D01*
X88690577Y-43858812D01*
X88690572Y-43858808D01*
X88492580Y-43751661D01*
X88492577Y-43751659D01*
X88492574Y-43751658D01*
X88492571Y-43751657D01*
X88492569Y-43751656D01*
X88279637Y-43678556D01*
X88057569Y-43641500D01*
X87832431Y-43641500D01*
X87610362Y-43678556D01*
X87397430Y-43751656D01*
X87397419Y-43751661D01*
X87199427Y-43858808D01*
X87199422Y-43858812D01*
X87021761Y-43997092D01*
X87021756Y-43997097D01*
X86869284Y-44162723D01*
X86869276Y-44162734D01*
X86778807Y-44301206D01*
X86725660Y-44346563D01*
X86656429Y-44355986D01*
X86593093Y-44326483D01*
X86571191Y-44301206D01*
X86480722Y-44162732D01*
X86480717Y-44162727D01*
X86480715Y-44162723D01*
X86328243Y-43997097D01*
X86328238Y-43997092D01*
X86150577Y-43858812D01*
X86150572Y-43858808D01*
X85952580Y-43751661D01*
X85952577Y-43751659D01*
X85952574Y-43751658D01*
X85952571Y-43751657D01*
X85952569Y-43751656D01*
X85739637Y-43678556D01*
X85517569Y-43641500D01*
X85292431Y-43641500D01*
X85070362Y-43678556D01*
X84857430Y-43751656D01*
X84857419Y-43751661D01*
X84659427Y-43858808D01*
X84659422Y-43858812D01*
X84481761Y-43997092D01*
X84481756Y-43997097D01*
X84329284Y-44162723D01*
X84329276Y-44162734D01*
X84238808Y-44301206D01*
X84185662Y-44346562D01*
X84116431Y-44355986D01*
X84053095Y-44326484D01*
X84031192Y-44301206D01*
X83955049Y-44184661D01*
X83940722Y-44162732D01*
X83940719Y-44162729D01*
X83940715Y-44162723D01*
X83788243Y-43997097D01*
X83788238Y-43997092D01*
X83610577Y-43858812D01*
X83610572Y-43858808D01*
X83412580Y-43751661D01*
X83412577Y-43751659D01*
X83412574Y-43751658D01*
X83412571Y-43751657D01*
X83412569Y-43751656D01*
X83199637Y-43678556D01*
X82977569Y-43641500D01*
X82752431Y-43641500D01*
X82530362Y-43678556D01*
X82317430Y-43751656D01*
X82317419Y-43751661D01*
X82119427Y-43858808D01*
X82119422Y-43858812D01*
X81941761Y-43997092D01*
X81941756Y-43997097D01*
X81789284Y-44162723D01*
X81789276Y-44162734D01*
X81698807Y-44301206D01*
X81645660Y-44346563D01*
X81576429Y-44355986D01*
X81513093Y-44326483D01*
X81491191Y-44301206D01*
X81400722Y-44162732D01*
X81400717Y-44162727D01*
X81400715Y-44162723D01*
X81248243Y-43997097D01*
X81248238Y-43997092D01*
X81070577Y-43858812D01*
X81070572Y-43858808D01*
X80872580Y-43751661D01*
X80872577Y-43751659D01*
X80872574Y-43751658D01*
X80872571Y-43751657D01*
X80872569Y-43751656D01*
X80659637Y-43678556D01*
X80437569Y-43641500D01*
X80212431Y-43641500D01*
X79990362Y-43678556D01*
X79777430Y-43751656D01*
X79777419Y-43751661D01*
X79579427Y-43858808D01*
X79579422Y-43858812D01*
X79401761Y-43997092D01*
X79401756Y-43997097D01*
X79249284Y-44162723D01*
X79249276Y-44162734D01*
X79158808Y-44301206D01*
X79105662Y-44346562D01*
X79036431Y-44355986D01*
X78973095Y-44326484D01*
X78951192Y-44301206D01*
X78875049Y-44184661D01*
X78860722Y-44162732D01*
X78860719Y-44162729D01*
X78860715Y-44162723D01*
X78708243Y-43997097D01*
X78708238Y-43997092D01*
X78530577Y-43858812D01*
X78530572Y-43858808D01*
X78332580Y-43751661D01*
X78332577Y-43751659D01*
X78332574Y-43751658D01*
X78332571Y-43751657D01*
X78332569Y-43751656D01*
X78119637Y-43678556D01*
X77897569Y-43641500D01*
X77672431Y-43641500D01*
X77450362Y-43678556D01*
X77237430Y-43751656D01*
X77237419Y-43751661D01*
X77039427Y-43858808D01*
X77039422Y-43858812D01*
X76861761Y-43997092D01*
X76861756Y-43997097D01*
X76709284Y-44162723D01*
X76709276Y-44162734D01*
X76618807Y-44301206D01*
X76565660Y-44346563D01*
X76496429Y-44355986D01*
X76433093Y-44326483D01*
X76411191Y-44301206D01*
X76320722Y-44162732D01*
X76320717Y-44162727D01*
X76320715Y-44162723D01*
X76168243Y-43997097D01*
X76168238Y-43997092D01*
X75990577Y-43858812D01*
X75990572Y-43858808D01*
X75792580Y-43751661D01*
X75792577Y-43751659D01*
X75792574Y-43751658D01*
X75792571Y-43751657D01*
X75792569Y-43751656D01*
X75579637Y-43678556D01*
X75357569Y-43641500D01*
X75132431Y-43641500D01*
X74910362Y-43678556D01*
X74697430Y-43751656D01*
X74697419Y-43751661D01*
X74499427Y-43858808D01*
X74499422Y-43858812D01*
X74321761Y-43997092D01*
X74321756Y-43997097D01*
X74169284Y-44162723D01*
X74169276Y-44162734D01*
X74078808Y-44301206D01*
X74025662Y-44346562D01*
X73956431Y-44355986D01*
X73893095Y-44326484D01*
X73871192Y-44301206D01*
X73795049Y-44184661D01*
X73780722Y-44162732D01*
X73780719Y-44162729D01*
X73780715Y-44162723D01*
X73628243Y-43997097D01*
X73628238Y-43997092D01*
X73450577Y-43858812D01*
X73450572Y-43858808D01*
X73252580Y-43751661D01*
X73252577Y-43751659D01*
X73252574Y-43751658D01*
X73252571Y-43751657D01*
X73252569Y-43751656D01*
X73039637Y-43678556D01*
X72817569Y-43641500D01*
X72592431Y-43641500D01*
X72370362Y-43678556D01*
X72157430Y-43751656D01*
X72157419Y-43751661D01*
X71959427Y-43858808D01*
X71959422Y-43858812D01*
X71781761Y-43997092D01*
X71781756Y-43997097D01*
X71629284Y-44162723D01*
X71629276Y-44162734D01*
X71538808Y-44301206D01*
X71485662Y-44346562D01*
X71416431Y-44355986D01*
X71353095Y-44326484D01*
X71331192Y-44301206D01*
X71255049Y-44184661D01*
X71240722Y-44162732D01*
X71240719Y-44162729D01*
X71240715Y-44162723D01*
X71088243Y-43997097D01*
X71088238Y-43997092D01*
X70910577Y-43858812D01*
X70910572Y-43858808D01*
X70712580Y-43751661D01*
X70712577Y-43751659D01*
X70712574Y-43751658D01*
X70712571Y-43751657D01*
X70712569Y-43751656D01*
X70499637Y-43678556D01*
X70277569Y-43641500D01*
X70052431Y-43641500D01*
X69830362Y-43678556D01*
X69617430Y-43751656D01*
X69617419Y-43751661D01*
X69419427Y-43858808D01*
X69419422Y-43858812D01*
X69241761Y-43997092D01*
X69241756Y-43997097D01*
X69089284Y-44162723D01*
X69089276Y-44162734D01*
X68998808Y-44301206D01*
X68945662Y-44346562D01*
X68876431Y-44355986D01*
X68813095Y-44326484D01*
X68791192Y-44301206D01*
X68715049Y-44184661D01*
X68700722Y-44162732D01*
X68700719Y-44162729D01*
X68700715Y-44162723D01*
X68548243Y-43997097D01*
X68548238Y-43997092D01*
X68370577Y-43858812D01*
X68370572Y-43858808D01*
X68172580Y-43751661D01*
X68172577Y-43751659D01*
X68172574Y-43751658D01*
X68172571Y-43751657D01*
X68172569Y-43751656D01*
X67959637Y-43678556D01*
X67737569Y-43641500D01*
X67512431Y-43641500D01*
X67290362Y-43678556D01*
X67077430Y-43751656D01*
X67077419Y-43751661D01*
X66879427Y-43858808D01*
X66879422Y-43858812D01*
X66701761Y-43997092D01*
X66701756Y-43997097D01*
X66549284Y-44162723D01*
X66549276Y-44162734D01*
X66458808Y-44301206D01*
X66405662Y-44346562D01*
X66336431Y-44355986D01*
X66273095Y-44326484D01*
X66251192Y-44301206D01*
X66175049Y-44184661D01*
X66160722Y-44162732D01*
X66160719Y-44162729D01*
X66160715Y-44162723D01*
X66008243Y-43997097D01*
X66008238Y-43997092D01*
X65830577Y-43858812D01*
X65830572Y-43858808D01*
X65632580Y-43751661D01*
X65632577Y-43751659D01*
X65632574Y-43751658D01*
X65632571Y-43751657D01*
X65632569Y-43751656D01*
X65419637Y-43678556D01*
X65197569Y-43641500D01*
X64972431Y-43641500D01*
X64750362Y-43678556D01*
X64537430Y-43751656D01*
X64537419Y-43751661D01*
X64339427Y-43858808D01*
X64339422Y-43858812D01*
X64161761Y-43997092D01*
X64161756Y-43997097D01*
X64009284Y-44162723D01*
X64009276Y-44162734D01*
X63915251Y-44306650D01*
X63862105Y-44352007D01*
X63792873Y-44361430D01*
X63729538Y-44331928D01*
X63709868Y-44309951D01*
X63583113Y-44128926D01*
X63583108Y-44128920D01*
X63416082Y-43961894D01*
X63222578Y-43826399D01*
X63008492Y-43726570D01*
X63008486Y-43726567D01*
X62795000Y-43669364D01*
X62795000Y-44564498D01*
X62687315Y-44515320D01*
X62580763Y-44500000D01*
X62509237Y-44500000D01*
X62402685Y-44515320D01*
X62295000Y-44564498D01*
X62295000Y-43669364D01*
X62294999Y-43669364D01*
X62081513Y-43726567D01*
X62081507Y-43726570D01*
X61867422Y-43826399D01*
X61867420Y-43826400D01*
X61673926Y-43961886D01*
X61673920Y-43961891D01*
X61506891Y-44128920D01*
X61506886Y-44128926D01*
X61371400Y-44322420D01*
X61371399Y-44322422D01*
X61271570Y-44536507D01*
X61271567Y-44536513D01*
X61214364Y-44749999D01*
X61214364Y-44750000D01*
X62111314Y-44750000D01*
X62085507Y-44790156D01*
X62045000Y-44928111D01*
X62045000Y-45071889D01*
X62085507Y-45209844D01*
X62111314Y-45250000D01*
X61214364Y-45250000D01*
X61271567Y-45463486D01*
X61271570Y-45463492D01*
X61371399Y-45677578D01*
X61506894Y-45871082D01*
X61673917Y-46038105D01*
X61854802Y-46164763D01*
X61898427Y-46219340D01*
X61905619Y-46288839D01*
X61874097Y-46351193D01*
X61842697Y-46375392D01*
X61799427Y-46398809D01*
X61799422Y-46398812D01*
X61621761Y-46537092D01*
X61621756Y-46537097D01*
X61469284Y-46702723D01*
X61469276Y-46702734D01*
X61346140Y-46891207D01*
X61255703Y-47097385D01*
X61200436Y-47315628D01*
X61200434Y-47315640D01*
X61181844Y-47539994D01*
X61181844Y-47540005D01*
X61200434Y-47764359D01*
X61200436Y-47764371D01*
X61255703Y-47982614D01*
X61346140Y-48188792D01*
X61469276Y-48377265D01*
X61469284Y-48377276D01*
X61614488Y-48535007D01*
X61621760Y-48542906D01*
X61799424Y-48681189D01*
X61799425Y-48681189D01*
X61799427Y-48681191D01*
X61873439Y-48721244D01*
X61997426Y-48788342D01*
X62210365Y-48861444D01*
X62432431Y-48898500D01*
X62657569Y-48898500D01*
X62879635Y-48861444D01*
X63092574Y-48788342D01*
X63290576Y-48681189D01*
X63468240Y-48542906D01*
X63620722Y-48377268D01*
X63711193Y-48238790D01*
X63764338Y-48193437D01*
X63833569Y-48184013D01*
X63896905Y-48213515D01*
X63918804Y-48238787D01*
X64009278Y-48377268D01*
X64009283Y-48377273D01*
X64009284Y-48377276D01*
X64154488Y-48535007D01*
X64161760Y-48542906D01*
X64339424Y-48681189D01*
X64339425Y-48681189D01*
X64339427Y-48681191D01*
X64413439Y-48721244D01*
X64537426Y-48788342D01*
X64750365Y-48861444D01*
X64972431Y-48898500D01*
X65197569Y-48898500D01*
X65419635Y-48861444D01*
X65632574Y-48788342D01*
X65830576Y-48681189D01*
X66008240Y-48542906D01*
X66160722Y-48377268D01*
X66251193Y-48238791D01*
X66304336Y-48193437D01*
X66373567Y-48184013D01*
X66436903Y-48213515D01*
X66458807Y-48238793D01*
X66549276Y-48377265D01*
X66549284Y-48377276D01*
X66694488Y-48535007D01*
X66701760Y-48542906D01*
X66879424Y-48681189D01*
X66879425Y-48681189D01*
X66879427Y-48681191D01*
X66953439Y-48721244D01*
X67077426Y-48788342D01*
X67290365Y-48861444D01*
X67512431Y-48898500D01*
X67737569Y-48898500D01*
X67959635Y-48861444D01*
X68172574Y-48788342D01*
X68370576Y-48681189D01*
X68548240Y-48542906D01*
X68700722Y-48377268D01*
X68791193Y-48238790D01*
X68844338Y-48193437D01*
X68913569Y-48184013D01*
X68976905Y-48213515D01*
X68998804Y-48238787D01*
X69089278Y-48377268D01*
X69089283Y-48377273D01*
X69089284Y-48377276D01*
X69234488Y-48535007D01*
X69241760Y-48542906D01*
X69419424Y-48681189D01*
X69419425Y-48681189D01*
X69419427Y-48681191D01*
X69493439Y-48721244D01*
X69617426Y-48788342D01*
X69830365Y-48861444D01*
X70052431Y-48898500D01*
X70277569Y-48898500D01*
X70499635Y-48861444D01*
X70712574Y-48788342D01*
X70910576Y-48681189D01*
X71088240Y-48542906D01*
X71240722Y-48377268D01*
X71331193Y-48238791D01*
X71384336Y-48193437D01*
X71453567Y-48184013D01*
X71516903Y-48213515D01*
X71538807Y-48238793D01*
X71629276Y-48377265D01*
X71629284Y-48377276D01*
X71774488Y-48535007D01*
X71781760Y-48542906D01*
X71959424Y-48681189D01*
X71959425Y-48681189D01*
X71959427Y-48681191D01*
X72033439Y-48721244D01*
X72157426Y-48788342D01*
X72370365Y-48861444D01*
X72592431Y-48898500D01*
X72817569Y-48898500D01*
X73039635Y-48861444D01*
X73252574Y-48788342D01*
X73450576Y-48681189D01*
X73628240Y-48542906D01*
X73780722Y-48377268D01*
X73871193Y-48238790D01*
X73924338Y-48193437D01*
X73993569Y-48184013D01*
X74056905Y-48213515D01*
X74078804Y-48238787D01*
X74169278Y-48377268D01*
X74169283Y-48377273D01*
X74169284Y-48377276D01*
X74314488Y-48535007D01*
X74321760Y-48542906D01*
X74499424Y-48681189D01*
X74499425Y-48681189D01*
X74499427Y-48681191D01*
X74573439Y-48721244D01*
X74697426Y-48788342D01*
X74910365Y-48861444D01*
X75132431Y-48898500D01*
X75357569Y-48898500D01*
X75579635Y-48861444D01*
X75792574Y-48788342D01*
X75990576Y-48681189D01*
X76168240Y-48542906D01*
X76320722Y-48377268D01*
X76411193Y-48238791D01*
X76464336Y-48193437D01*
X76533567Y-48184013D01*
X76596903Y-48213515D01*
X76618807Y-48238793D01*
X76709276Y-48377265D01*
X76709284Y-48377276D01*
X76854488Y-48535007D01*
X76861760Y-48542906D01*
X77039424Y-48681189D01*
X77039425Y-48681189D01*
X77039427Y-48681191D01*
X77113439Y-48721244D01*
X77237426Y-48788342D01*
X77450365Y-48861444D01*
X77672431Y-48898500D01*
X77897569Y-48898500D01*
X78119635Y-48861444D01*
X78332574Y-48788342D01*
X78530576Y-48681189D01*
X78708240Y-48542906D01*
X78860722Y-48377268D01*
X78951193Y-48238790D01*
X79004338Y-48193437D01*
X79073569Y-48184013D01*
X79136905Y-48213515D01*
X79158804Y-48238787D01*
X79249278Y-48377268D01*
X79249283Y-48377273D01*
X79249284Y-48377276D01*
X79394488Y-48535007D01*
X79401760Y-48542906D01*
X79579424Y-48681189D01*
X79579425Y-48681189D01*
X79579427Y-48681191D01*
X79653439Y-48721244D01*
X79777426Y-48788342D01*
X79990365Y-48861444D01*
X80212431Y-48898500D01*
X80437569Y-48898500D01*
X80659635Y-48861444D01*
X80872574Y-48788342D01*
X81070576Y-48681189D01*
X81248240Y-48542906D01*
X81400722Y-48377268D01*
X81491193Y-48238791D01*
X81544336Y-48193437D01*
X81613567Y-48184013D01*
X81676903Y-48213515D01*
X81698807Y-48238793D01*
X81789276Y-48377265D01*
X81789284Y-48377276D01*
X81934488Y-48535007D01*
X81941760Y-48542906D01*
X82119424Y-48681189D01*
X82119425Y-48681189D01*
X82119427Y-48681191D01*
X82193439Y-48721244D01*
X82317426Y-48788342D01*
X82530365Y-48861444D01*
X82752431Y-48898500D01*
X82977569Y-48898500D01*
X83199635Y-48861444D01*
X83412574Y-48788342D01*
X83610576Y-48681189D01*
X83788240Y-48542906D01*
X83940722Y-48377268D01*
X84031193Y-48238790D01*
X84084338Y-48193437D01*
X84153569Y-48184013D01*
X84216905Y-48213515D01*
X84238804Y-48238787D01*
X84329278Y-48377268D01*
X84329283Y-48377273D01*
X84329284Y-48377276D01*
X84481756Y-48542902D01*
X84481761Y-48542907D01*
X84610470Y-48643086D01*
X84651283Y-48699797D01*
X84654956Y-48769570D01*
X84620325Y-48830253D01*
X84558383Y-48862579D01*
X84520427Y-48864160D01*
X84500000Y-48861859D01*
X84499996Y-48861859D01*
X84335753Y-48880364D01*
X84179731Y-48934958D01*
X84039776Y-49022898D01*
X83922898Y-49139776D01*
X83834958Y-49279731D01*
X83780364Y-49435753D01*
X83761859Y-49599996D01*
X83761859Y-49600003D01*
X83780364Y-49764246D01*
X83834958Y-49920268D01*
X83922897Y-50060223D01*
X83922898Y-50060223D01*
X84039777Y-50177102D01*
X84179733Y-50265042D01*
X84335748Y-50319634D01*
X84335751Y-50319634D01*
X84335753Y-50319635D01*
X84499996Y-50338141D01*
X84500000Y-50338141D01*
X84500004Y-50338141D01*
X84664246Y-50319635D01*
X84664247Y-50319634D01*
X84664252Y-50319634D01*
X84820267Y-50265042D01*
X84960223Y-50177102D01*
X85077102Y-50060223D01*
X85165042Y-49920267D01*
X85219634Y-49764252D01*
X85238141Y-49600000D01*
X85219634Y-49435748D01*
X85165042Y-49279733D01*
X85077102Y-49139777D01*
X85018069Y-49080743D01*
X84984584Y-49019421D01*
X84989568Y-48949729D01*
X85031440Y-48893796D01*
X85096904Y-48869379D01*
X85126156Y-48870753D01*
X85292431Y-48898500D01*
X85292432Y-48898500D01*
X85517569Y-48898500D01*
X85739635Y-48861444D01*
X85952574Y-48788342D01*
X86150576Y-48681189D01*
X86328240Y-48542906D01*
X86480722Y-48377268D01*
X86571193Y-48238791D01*
X86624336Y-48193437D01*
X86693567Y-48184013D01*
X86756903Y-48213515D01*
X86778807Y-48238793D01*
X86869276Y-48377265D01*
X86869284Y-48377276D01*
X87014488Y-48535007D01*
X87021760Y-48542906D01*
X87199424Y-48681189D01*
X87199425Y-48681189D01*
X87199427Y-48681191D01*
X87273439Y-48721244D01*
X87397426Y-48788342D01*
X87610365Y-48861444D01*
X87832431Y-48898500D01*
X88057569Y-48898500D01*
X88279635Y-48861444D01*
X88492574Y-48788342D01*
X88690576Y-48681189D01*
X88868240Y-48542906D01*
X89020722Y-48377268D01*
X89111193Y-48238790D01*
X89164338Y-48193437D01*
X89233569Y-48184013D01*
X89296905Y-48213515D01*
X89318804Y-48238787D01*
X89409278Y-48377268D01*
X89409283Y-48377273D01*
X89409284Y-48377276D01*
X89554488Y-48535007D01*
X89561760Y-48542906D01*
X89739424Y-48681189D01*
X89739425Y-48681189D01*
X89739427Y-48681191D01*
X89813439Y-48721244D01*
X89937426Y-48788342D01*
X90150365Y-48861444D01*
X90372431Y-48898500D01*
X90597569Y-48898500D01*
X90819635Y-48861444D01*
X91032574Y-48788342D01*
X91230576Y-48681189D01*
X91408240Y-48542906D01*
X91560722Y-48377268D01*
X91651193Y-48238791D01*
X91704336Y-48193437D01*
X91773567Y-48184013D01*
X91836903Y-48213515D01*
X91858807Y-48238793D01*
X91949276Y-48377265D01*
X91949284Y-48377276D01*
X92094488Y-48535007D01*
X92101760Y-48542906D01*
X92279424Y-48681189D01*
X92279425Y-48681189D01*
X92279427Y-48681191D01*
X92353439Y-48721244D01*
X92477426Y-48788342D01*
X92690365Y-48861444D01*
X92912431Y-48898500D01*
X93137569Y-48898500D01*
X93359635Y-48861444D01*
X93572574Y-48788342D01*
X93770576Y-48681189D01*
X93948240Y-48542906D01*
X94100722Y-48377268D01*
X94191193Y-48238790D01*
X94244338Y-48193437D01*
X94313569Y-48184013D01*
X94376905Y-48213515D01*
X94398804Y-48238787D01*
X94489278Y-48377268D01*
X94489283Y-48377273D01*
X94489284Y-48377276D01*
X94634488Y-48535007D01*
X94641760Y-48542906D01*
X94819424Y-48681189D01*
X94819425Y-48681189D01*
X94819427Y-48681191D01*
X94893439Y-48721244D01*
X95017426Y-48788342D01*
X95230365Y-48861444D01*
X95452431Y-48898500D01*
X95677569Y-48898500D01*
X95899635Y-48861444D01*
X96112574Y-48788342D01*
X96310576Y-48681189D01*
X96488240Y-48542906D01*
X96640722Y-48377268D01*
X96731193Y-48238791D01*
X96784336Y-48193437D01*
X96853567Y-48184013D01*
X96916903Y-48213515D01*
X96938807Y-48238793D01*
X97029276Y-48377265D01*
X97029284Y-48377276D01*
X97174488Y-48535007D01*
X97181760Y-48542906D01*
X97359424Y-48681189D01*
X97359425Y-48681189D01*
X97359427Y-48681191D01*
X97433439Y-48721244D01*
X97557426Y-48788342D01*
X97770365Y-48861444D01*
X97992431Y-48898500D01*
X98217569Y-48898500D01*
X98439635Y-48861444D01*
X98652574Y-48788342D01*
X98850576Y-48681189D01*
X99028240Y-48542906D01*
X99180722Y-48377268D01*
X99271193Y-48238790D01*
X99324338Y-48193437D01*
X99393569Y-48184013D01*
X99456905Y-48213515D01*
X99478804Y-48238787D01*
X99569278Y-48377268D01*
X99569283Y-48377273D01*
X99569284Y-48377276D01*
X99714488Y-48535007D01*
X99721760Y-48542906D01*
X99899424Y-48681189D01*
X99899425Y-48681189D01*
X99899427Y-48681191D01*
X99973439Y-48721244D01*
X100097426Y-48788342D01*
X100310365Y-48861444D01*
X100532431Y-48898500D01*
X100757569Y-48898500D01*
X100979635Y-48861444D01*
X101192574Y-48788342D01*
X101390576Y-48681189D01*
X101568240Y-48542906D01*
X101720722Y-48377268D01*
X101811193Y-48238791D01*
X101864336Y-48193437D01*
X101933567Y-48184013D01*
X101996903Y-48213515D01*
X102018807Y-48238793D01*
X102109276Y-48377265D01*
X102109284Y-48377276D01*
X102254488Y-48535007D01*
X102261760Y-48542906D01*
X102439424Y-48681189D01*
X102439425Y-48681189D01*
X102439427Y-48681191D01*
X102513439Y-48721244D01*
X102637426Y-48788342D01*
X102850365Y-48861444D01*
X103072431Y-48898500D01*
X103297569Y-48898500D01*
X103519635Y-48861444D01*
X103732574Y-48788342D01*
X103930576Y-48681189D01*
X104108240Y-48542906D01*
X104260722Y-48377268D01*
X104351193Y-48238790D01*
X104404338Y-48193437D01*
X104473569Y-48184013D01*
X104536905Y-48213515D01*
X104558804Y-48238787D01*
X104649278Y-48377268D01*
X104649283Y-48377273D01*
X104649284Y-48377276D01*
X104794488Y-48535007D01*
X104801760Y-48542906D01*
X104979424Y-48681189D01*
X104979425Y-48681189D01*
X104979427Y-48681191D01*
X105053439Y-48721244D01*
X105177426Y-48788342D01*
X105390365Y-48861444D01*
X105612431Y-48898500D01*
X105837569Y-48898500D01*
X106059635Y-48861444D01*
X106272574Y-48788342D01*
X106470576Y-48681189D01*
X106648240Y-48542906D01*
X106800722Y-48377268D01*
X106891193Y-48238791D01*
X106944336Y-48193437D01*
X107013567Y-48184013D01*
X107076903Y-48213515D01*
X107098807Y-48238793D01*
X107189276Y-48377265D01*
X107189284Y-48377276D01*
X107334488Y-48535007D01*
X107341760Y-48542906D01*
X107519424Y-48681189D01*
X107519425Y-48681189D01*
X107519427Y-48681191D01*
X107593439Y-48721244D01*
X107717426Y-48788342D01*
X107930365Y-48861444D01*
X108152431Y-48898500D01*
X108377569Y-48898500D01*
X108599635Y-48861444D01*
X108812574Y-48788342D01*
X109010576Y-48681189D01*
X109188240Y-48542906D01*
X109340722Y-48377268D01*
X109431193Y-48238790D01*
X109484338Y-48193437D01*
X109553569Y-48184013D01*
X109616905Y-48213515D01*
X109638804Y-48238787D01*
X109729278Y-48377268D01*
X109729283Y-48377273D01*
X109729284Y-48377276D01*
X109874488Y-48535007D01*
X109881760Y-48542906D01*
X110059424Y-48681189D01*
X110059425Y-48681189D01*
X110059427Y-48681191D01*
X110133439Y-48721244D01*
X110257426Y-48788342D01*
X110470365Y-48861444D01*
X110692431Y-48898500D01*
X110917569Y-48898500D01*
X111139635Y-48861444D01*
X111352574Y-48788342D01*
X111550576Y-48681189D01*
X111728240Y-48542906D01*
X111880722Y-48377268D01*
X111971193Y-48238791D01*
X112024336Y-48193437D01*
X112093567Y-48184013D01*
X112156903Y-48213515D01*
X112178807Y-48238793D01*
X112269276Y-48377265D01*
X112269284Y-48377276D01*
X112414488Y-48535007D01*
X112421760Y-48542906D01*
X112599424Y-48681189D01*
X112599425Y-48681189D01*
X112599427Y-48681191D01*
X112673439Y-48721244D01*
X112797426Y-48788342D01*
X113010365Y-48861444D01*
X113232431Y-48898500D01*
X113457569Y-48898500D01*
X113679635Y-48861444D01*
X113892574Y-48788342D01*
X114090576Y-48681189D01*
X114268240Y-48542906D01*
X114420722Y-48377268D01*
X114511193Y-48238790D01*
X114564338Y-48193437D01*
X114633569Y-48184013D01*
X114696905Y-48213515D01*
X114718804Y-48238787D01*
X114809278Y-48377268D01*
X114809283Y-48377273D01*
X114809284Y-48377276D01*
X114954489Y-48535008D01*
X114985412Y-48597662D01*
X114977552Y-48667088D01*
X114933405Y-48721244D01*
X114906596Y-48735172D01*
X114788794Y-48779111D01*
X114671739Y-48866739D01*
X114584111Y-48983795D01*
X114533011Y-49120795D01*
X114533011Y-49120797D01*
X114526500Y-49181345D01*
X114526500Y-50493350D01*
X114506815Y-50560389D01*
X114454011Y-50606144D01*
X114424247Y-50614531D01*
X114424290Y-50614705D01*
X114419029Y-50616001D01*
X114417456Y-50616445D01*
X114417011Y-50616499D01*
X114255848Y-50656222D01*
X114108874Y-50733359D01*
X113984639Y-50843422D01*
X113984633Y-50843429D01*
X113890347Y-50980026D01*
X113831486Y-51135226D01*
X113811480Y-51299999D01*
X113811480Y-51300000D01*
X113831486Y-51464773D01*
X113867072Y-51558604D01*
X113890346Y-51619971D01*
X113984635Y-51756573D01*
X113984637Y-51756575D01*
X113984639Y-51756577D01*
X114108874Y-51866640D01*
X114108876Y-51866641D01*
X114255847Y-51943777D01*
X114303632Y-51955555D01*
X114417007Y-51983500D01*
X114490953Y-51983500D01*
X114557992Y-52003185D01*
X114603747Y-52055989D01*
X114613691Y-52125147D01*
X114604510Y-52157308D01*
X114595703Y-52177386D01*
X114540436Y-52395628D01*
X114540434Y-52395640D01*
X114521844Y-52619994D01*
X114521844Y-52620005D01*
X114540435Y-52844364D01*
X114573532Y-52975062D01*
X114570907Y-53044882D01*
X114535553Y-53098317D01*
X114484639Y-53143422D01*
X114484633Y-53143429D01*
X114390347Y-53280026D01*
X114331486Y-53435226D01*
X114311480Y-53599999D01*
X114311480Y-53600000D01*
X114331486Y-53764773D01*
X114370766Y-53868343D01*
X114382770Y-53899996D01*
X114390347Y-53919973D01*
X114412317Y-53951802D01*
X114484635Y-54056573D01*
X114484637Y-54056575D01*
X114484639Y-54056577D01*
X114608874Y-54166640D01*
X114608876Y-54166641D01*
X114755847Y-54243777D01*
X114820347Y-54259675D01*
X114917007Y-54283500D01*
X114917008Y-54283500D01*
X115082993Y-54283500D01*
X115162913Y-54263801D01*
X115244153Y-54243777D01*
X115391124Y-54166641D01*
X115515365Y-54056573D01*
X115545487Y-54012932D01*
X115599766Y-53968944D01*
X115667945Y-53961064D01*
X115772431Y-53978500D01*
X115772432Y-53978500D01*
X115997569Y-53978500D01*
X116219635Y-53941444D01*
X116432574Y-53868342D01*
X116630576Y-53761189D01*
X116808240Y-53622906D01*
X116939459Y-53480366D01*
X116960715Y-53457276D01*
X116960715Y-53457274D01*
X116960722Y-53457268D01*
X117051193Y-53318791D01*
X117104336Y-53273437D01*
X117173567Y-53264013D01*
X117236903Y-53293515D01*
X117258807Y-53318793D01*
X117349276Y-53457265D01*
X117349284Y-53457276D01*
X117480672Y-53599999D01*
X117501760Y-53622906D01*
X117679424Y-53761189D01*
X117679425Y-53761189D01*
X117679427Y-53761191D01*
X117745233Y-53796803D01*
X117877426Y-53868342D01*
X118090365Y-53941444D01*
X118252187Y-53968447D01*
X118315073Y-53998897D01*
X118351512Y-54058512D01*
X118349937Y-54128364D01*
X118310848Y-54186276D01*
X118282216Y-54204034D01*
X118271961Y-54208600D01*
X118271958Y-54208601D01*
X118127162Y-54313802D01*
X118007408Y-54446804D01*
X117917923Y-54601796D01*
X117917920Y-54601802D01*
X117862619Y-54772004D01*
X117862618Y-54772006D01*
X117843910Y-54949999D01*
X117843910Y-54950000D01*
X117847102Y-54980366D01*
X117862618Y-55127993D01*
X117862619Y-55127995D01*
X117911384Y-55278080D01*
X117913379Y-55347922D01*
X117877298Y-55407754D01*
X117819234Y-55437688D01*
X117710455Y-55460809D01*
X117710454Y-55460809D01*
X117546956Y-55533602D01*
X117402162Y-55638802D01*
X117282408Y-55771804D01*
X117192923Y-55926796D01*
X117192920Y-55926802D01*
X117137619Y-56097004D01*
X117137618Y-56097006D01*
X117118910Y-56274999D01*
X117137618Y-56452993D01*
X117137619Y-56452995D01*
X117192920Y-56623197D01*
X117192923Y-56623203D01*
X117282409Y-56778197D01*
X117402164Y-56911199D01*
X117496490Y-56979731D01*
X117546956Y-57016397D01*
X117637661Y-57056780D01*
X117710454Y-57089190D01*
X117885514Y-57126400D01*
X117885515Y-57126400D01*
X118064484Y-57126400D01*
X118064486Y-57126400D01*
X118239546Y-57089190D01*
X118403045Y-57016396D01*
X118547836Y-56911199D01*
X118667591Y-56778197D01*
X118757077Y-56623203D01*
X118812382Y-56452991D01*
X118831090Y-56275000D01*
X118812382Y-56097009D01*
X118763614Y-55946918D01*
X118761620Y-55877078D01*
X118797700Y-55817245D01*
X118855760Y-55787313D01*
X118964546Y-55764190D01*
X119128045Y-55691396D01*
X119129473Y-55690358D01*
X119130440Y-55690013D01*
X119133676Y-55688145D01*
X119134017Y-55688736D01*
X119195275Y-55666873D01*
X119252797Y-55677389D01*
X119335454Y-55714190D01*
X119510514Y-55751400D01*
X119510515Y-55751400D01*
X119689484Y-55751400D01*
X119689486Y-55751400D01*
X119864546Y-55714190D01*
X119979369Y-55663068D01*
X120025065Y-55642723D01*
X120094315Y-55633439D01*
X120157592Y-55663068D01*
X120194804Y-55722203D01*
X120199500Y-55756003D01*
X120199500Y-65997338D01*
X120197403Y-66114822D01*
X120196781Y-66122547D01*
X120163668Y-66352856D01*
X120159907Y-66370143D01*
X120096518Y-66586029D01*
X120090335Y-66602607D01*
X119996867Y-66807273D01*
X119988388Y-66822801D01*
X119866743Y-67012082D01*
X119856141Y-67026245D01*
X119708801Y-67196285D01*
X119696291Y-67208795D01*
X119526247Y-67356139D01*
X119512084Y-67366741D01*
X119322797Y-67488390D01*
X119307268Y-67496869D01*
X119102599Y-67590338D01*
X119086022Y-67596521D01*
X118870149Y-67659906D01*
X118852862Y-67663667D01*
X118622543Y-67696781D01*
X118614819Y-67697403D01*
X118497305Y-67699500D01*
X62502663Y-67699500D01*
X62385176Y-67697403D01*
X62377451Y-67696781D01*
X62147142Y-67663668D01*
X62129855Y-67659907D01*
X61913969Y-67596518D01*
X61897391Y-67590335D01*
X61692725Y-67496867D01*
X61677197Y-67488388D01*
X61487916Y-67366743D01*
X61473760Y-67356146D01*
X61303712Y-67208800D01*
X61291203Y-67196291D01*
X61143859Y-67026247D01*
X61133257Y-67012084D01*
X61111478Y-66978196D01*
X61011602Y-66822787D01*
X61003129Y-66807268D01*
X61002140Y-66805103D01*
X60909659Y-66602597D01*
X60903480Y-66586029D01*
X60840091Y-66370143D01*
X60836331Y-66352862D01*
X60836330Y-66352856D01*
X60803216Y-66122542D01*
X60802595Y-66114829D01*
X60801630Y-66060713D01*
X107880000Y-66060713D01*
X107895418Y-66212338D01*
X107956299Y-66406381D01*
X107956304Y-66406391D01*
X108055005Y-66584215D01*
X108055005Y-66584216D01*
X108187478Y-66738530D01*
X108187479Y-66738531D01*
X108348304Y-66863018D01*
X108530907Y-66952589D01*
X108630000Y-66978244D01*
X108630000Y-66176110D01*
X108654457Y-66215610D01*
X108743962Y-66283201D01*
X108851840Y-66313895D01*
X108963521Y-66303546D01*
X109063922Y-66253552D01*
X109130000Y-66181069D01*
X109130000Y-66983366D01*
X109131944Y-66983069D01*
X109131945Y-66983069D01*
X109322660Y-66912436D01*
X109322664Y-66912434D01*
X109495267Y-66804850D01*
X109642668Y-66664735D01*
X109642669Y-66664733D01*
X109758856Y-66497804D01*
X109839059Y-66310907D01*
X109880000Y-66111690D01*
X109880000Y-66060713D01*
X116520000Y-66060713D01*
X116535418Y-66212338D01*
X116596299Y-66406381D01*
X116596304Y-66406391D01*
X116695005Y-66584215D01*
X116695005Y-66584216D01*
X116827478Y-66738530D01*
X116827479Y-66738531D01*
X116988304Y-66863018D01*
X117170907Y-66952589D01*
X117270000Y-66978244D01*
X117270000Y-66176110D01*
X117294457Y-66215610D01*
X117383962Y-66283201D01*
X117491840Y-66313895D01*
X117603521Y-66303546D01*
X117703922Y-66253552D01*
X117770000Y-66181069D01*
X117770000Y-66983366D01*
X117771944Y-66983069D01*
X117771945Y-66983069D01*
X117962660Y-66912436D01*
X117962664Y-66912434D01*
X118135267Y-66804850D01*
X118282668Y-66664735D01*
X118282669Y-66664733D01*
X118398856Y-66497804D01*
X118479059Y-66310907D01*
X118520000Y-66111690D01*
X118520000Y-65860000D01*
X117820000Y-65860000D01*
X117820000Y-65360000D01*
X118520000Y-65360000D01*
X118520000Y-65159286D01*
X118504581Y-65007661D01*
X118443700Y-64813618D01*
X118443695Y-64813608D01*
X118344994Y-64635784D01*
X118344994Y-64635783D01*
X118212521Y-64481469D01*
X118212520Y-64481468D01*
X118051695Y-64356981D01*
X117869097Y-64267412D01*
X117769999Y-64241754D01*
X117769999Y-65043887D01*
X117745543Y-65004390D01*
X117656038Y-64936799D01*
X117548160Y-64906105D01*
X117436479Y-64916454D01*
X117336078Y-64966448D01*
X117269999Y-65038931D01*
X117269999Y-64236633D01*
X117269998Y-64236632D01*
X117268063Y-64236929D01*
X117268049Y-64236932D01*
X117077342Y-64307562D01*
X117077335Y-64307565D01*
X116904732Y-64415149D01*
X116757331Y-64555264D01*
X116757330Y-64555266D01*
X116641143Y-64722195D01*
X116560940Y-64909092D01*
X116520000Y-65108309D01*
X116520000Y-65360000D01*
X117220000Y-65360000D01*
X117220000Y-65860000D01*
X116520000Y-65860000D01*
X116520000Y-66060713D01*
X109880000Y-66060713D01*
X109880000Y-65860000D01*
X109180000Y-65860000D01*
X109180000Y-65360000D01*
X109880000Y-65360000D01*
X109880000Y-65159286D01*
X109864581Y-65007661D01*
X109803700Y-64813618D01*
X109803695Y-64813608D01*
X109704994Y-64635784D01*
X109704994Y-64635783D01*
X109572521Y-64481469D01*
X109572520Y-64481468D01*
X109411695Y-64356981D01*
X109229093Y-64267411D01*
X109130000Y-64241753D01*
X109130000Y-65043889D01*
X109105543Y-65004390D01*
X109016038Y-64936799D01*
X108908160Y-64906105D01*
X108796479Y-64916454D01*
X108696078Y-64966448D01*
X108629999Y-65038931D01*
X108629999Y-64236633D01*
X108629998Y-64236632D01*
X108628063Y-64236929D01*
X108628049Y-64236932D01*
X108437342Y-64307562D01*
X108437335Y-64307565D01*
X108264732Y-64415149D01*
X108117331Y-64555264D01*
X108117330Y-64555266D01*
X108001143Y-64722195D01*
X107920940Y-64909092D01*
X107880000Y-65108309D01*
X107880000Y-65360000D01*
X108580000Y-65360000D01*
X108580000Y-65860000D01*
X107880000Y-65860000D01*
X107880000Y-66060713D01*
X60801630Y-66060713D01*
X60800500Y-65997304D01*
X60800500Y-65007801D01*
X86561859Y-65007801D01*
X86580364Y-65172044D01*
X86634958Y-65328066D01*
X86655023Y-65359999D01*
X86722898Y-65468021D01*
X86839777Y-65584900D01*
X86979733Y-65672840D01*
X87135748Y-65727432D01*
X87135751Y-65727432D01*
X87135753Y-65727433D01*
X87299996Y-65745939D01*
X87300000Y-65745939D01*
X87300004Y-65745939D01*
X87464246Y-65727433D01*
X87464247Y-65727432D01*
X87464252Y-65727432D01*
X87620267Y-65672840D01*
X87760223Y-65584900D01*
X87877102Y-65468021D01*
X87965042Y-65328065D01*
X88019634Y-65172050D01*
X88019635Y-65172044D01*
X88021933Y-65165478D01*
X88023779Y-65166124D01*
X88053155Y-65113584D01*
X88114810Y-65080715D01*
X88184449Y-65086397D01*
X88239960Y-65128826D01*
X88244948Y-65136167D01*
X88322898Y-65260222D01*
X88322898Y-65260223D01*
X88439777Y-65377102D01*
X88579733Y-65465042D01*
X88735748Y-65519634D01*
X88735751Y-65519634D01*
X88735753Y-65519635D01*
X88899996Y-65538141D01*
X88900000Y-65538141D01*
X88900004Y-65538141D01*
X89064246Y-65519635D01*
X89064247Y-65519634D01*
X89064252Y-65519634D01*
X89220267Y-65465042D01*
X89360223Y-65377102D01*
X89477102Y-65260223D01*
X89565042Y-65120267D01*
X89619634Y-64964252D01*
X89619635Y-64964246D01*
X89638141Y-64800003D01*
X89638141Y-64799996D01*
X89619635Y-64635753D01*
X89619634Y-64635751D01*
X89619634Y-64635748D01*
X89565042Y-64479733D01*
X89555810Y-64465041D01*
X89514324Y-64399015D01*
X89477102Y-64339777D01*
X89360223Y-64222898D01*
X89268146Y-64165042D01*
X89220268Y-64134958D01*
X89064246Y-64080364D01*
X88900004Y-64061859D01*
X88899996Y-64061859D01*
X88735753Y-64080364D01*
X88579731Y-64134958D01*
X88439776Y-64222898D01*
X88322898Y-64339776D01*
X88234958Y-64479731D01*
X88208528Y-64555266D01*
X88180366Y-64635748D01*
X88180365Y-64635750D01*
X88178067Y-64642320D01*
X88176226Y-64641675D01*
X88146820Y-64694236D01*
X88085156Y-64727089D01*
X88015519Y-64721388D01*
X87960019Y-64678944D01*
X87955051Y-64671630D01*
X87888077Y-64565042D01*
X87877102Y-64547575D01*
X87760223Y-64430696D01*
X87679563Y-64380014D01*
X87620268Y-64342756D01*
X87464246Y-64288162D01*
X87300004Y-64269657D01*
X87299996Y-64269657D01*
X87135753Y-64288162D01*
X86979731Y-64342756D01*
X86839776Y-64430696D01*
X86722898Y-64547574D01*
X86634958Y-64687529D01*
X86580364Y-64843551D01*
X86561859Y-65007794D01*
X86561859Y-65007801D01*
X60800500Y-65007801D01*
X60800500Y-63500003D01*
X68761859Y-63500003D01*
X68780364Y-63664246D01*
X68834958Y-63820268D01*
X68860064Y-63860223D01*
X68922898Y-63960223D01*
X69039777Y-64077102D01*
X69179733Y-64165042D01*
X69335748Y-64219634D01*
X69335751Y-64219634D01*
X69335753Y-64219635D01*
X69499996Y-64238141D01*
X69500000Y-64238141D01*
X69500004Y-64238141D01*
X69664246Y-64219635D01*
X69664247Y-64219634D01*
X69664252Y-64219634D01*
X69820267Y-64165042D01*
X69960223Y-64077102D01*
X70077102Y-63960223D01*
X70165042Y-63820267D01*
X70172133Y-63800003D01*
X78261859Y-63800003D01*
X78280364Y-63964246D01*
X78334958Y-64120268D01*
X78411293Y-64241754D01*
X78422898Y-64260223D01*
X78539777Y-64377102D01*
X78622558Y-64429116D01*
X78679729Y-64465040D01*
X78679733Y-64465042D01*
X78835748Y-64519634D01*
X78835751Y-64519634D01*
X78835753Y-64519635D01*
X78999996Y-64538141D01*
X79000000Y-64538141D01*
X79000004Y-64538141D01*
X79164246Y-64519635D01*
X79164247Y-64519634D01*
X79164252Y-64519634D01*
X79320267Y-64465042D01*
X79460223Y-64377102D01*
X79577102Y-64260223D01*
X79665042Y-64120267D01*
X79719634Y-63964252D01*
X79738141Y-63800000D01*
X79736608Y-63786400D01*
X79748660Y-63717581D01*
X79796007Y-63666200D01*
X79863617Y-63648573D01*
X79930023Y-63670297D01*
X79947509Y-63684833D01*
X80039777Y-63777102D01*
X80122558Y-63829116D01*
X80172063Y-63860223D01*
X80179733Y-63865042D01*
X80335748Y-63919634D01*
X80335751Y-63919634D01*
X80335753Y-63919635D01*
X80499996Y-63938141D01*
X80500000Y-63938141D01*
X80500004Y-63938141D01*
X80664246Y-63919635D01*
X80664247Y-63919634D01*
X80664252Y-63919634D01*
X80720354Y-63900003D01*
X81561859Y-63900003D01*
X81580364Y-64064246D01*
X81580365Y-64064251D01*
X81580366Y-64064252D01*
X81584862Y-64077101D01*
X81634958Y-64220268D01*
X81677619Y-64288162D01*
X81722898Y-64360223D01*
X81839777Y-64477102D01*
X81907468Y-64519635D01*
X81964174Y-64555266D01*
X81979733Y-64565042D01*
X82135748Y-64619634D01*
X82135751Y-64619634D01*
X82135753Y-64619635D01*
X82299996Y-64638141D01*
X82300000Y-64638141D01*
X82300004Y-64638141D01*
X82464246Y-64619635D01*
X82464247Y-64619634D01*
X82464252Y-64619634D01*
X82620267Y-64565042D01*
X82760223Y-64477102D01*
X82877102Y-64360223D01*
X82965042Y-64220267D01*
X83019634Y-64064252D01*
X83029454Y-63977101D01*
X83038141Y-63900003D01*
X83038141Y-63899996D01*
X83026874Y-63800003D01*
X83361859Y-63800003D01*
X83380364Y-63964246D01*
X83434958Y-64120268D01*
X83511293Y-64241754D01*
X83522898Y-64260223D01*
X83639777Y-64377102D01*
X83722558Y-64429116D01*
X83779729Y-64465040D01*
X83779733Y-64465042D01*
X83935748Y-64519634D01*
X83935751Y-64519634D01*
X83935753Y-64519635D01*
X84099996Y-64538141D01*
X84100000Y-64538141D01*
X84100004Y-64538141D01*
X84264246Y-64519635D01*
X84264247Y-64519634D01*
X84264252Y-64519634D01*
X84420267Y-64465042D01*
X84525349Y-64399014D01*
X84592585Y-64380014D01*
X84659420Y-64400381D01*
X84679002Y-64416326D01*
X84739777Y-64477102D01*
X84807468Y-64519635D01*
X84864174Y-64555266D01*
X84879733Y-64565042D01*
X85035748Y-64619634D01*
X85035751Y-64619634D01*
X85035753Y-64619635D01*
X85199996Y-64638141D01*
X85200000Y-64638141D01*
X85200004Y-64638141D01*
X85364246Y-64619635D01*
X85364247Y-64619634D01*
X85364252Y-64619634D01*
X85520267Y-64565042D01*
X85660223Y-64477102D01*
X85777102Y-64360223D01*
X85865042Y-64220267D01*
X85919634Y-64064252D01*
X85929454Y-63977101D01*
X85938141Y-63900003D01*
X85938141Y-63899996D01*
X85919635Y-63735753D01*
X85919634Y-63735751D01*
X85919634Y-63735748D01*
X85865042Y-63579733D01*
X85777102Y-63439777D01*
X85737328Y-63400003D01*
X91261859Y-63400003D01*
X91280364Y-63564246D01*
X91334958Y-63720268D01*
X91422897Y-63860223D01*
X91422898Y-63860223D01*
X91539777Y-63977102D01*
X91585733Y-64005978D01*
X91678475Y-64064252D01*
X91679733Y-64065042D01*
X91835748Y-64119634D01*
X91835751Y-64119634D01*
X91835753Y-64119635D01*
X91999996Y-64138141D01*
X92000000Y-64138141D01*
X92000004Y-64138141D01*
X92164246Y-64119635D01*
X92164247Y-64119634D01*
X92164252Y-64119634D01*
X92320267Y-64065042D01*
X92334025Y-64056396D01*
X92401262Y-64037395D01*
X92465974Y-64056396D01*
X92479733Y-64065042D01*
X92635748Y-64119634D01*
X92635751Y-64119634D01*
X92635753Y-64119635D01*
X92799996Y-64138141D01*
X92800000Y-64138141D01*
X92800004Y-64138141D01*
X92964246Y-64119635D01*
X92964247Y-64119634D01*
X92964252Y-64119634D01*
X93120267Y-64065042D01*
X93184026Y-64024979D01*
X93251264Y-64005978D01*
X93315973Y-64024979D01*
X93378475Y-64064252D01*
X93379733Y-64065042D01*
X93535748Y-64119634D01*
X93535751Y-64119634D01*
X93535753Y-64119635D01*
X93699996Y-64138141D01*
X93700000Y-64138141D01*
X93700004Y-64138141D01*
X93864246Y-64119635D01*
X93864247Y-64119634D01*
X93864252Y-64119634D01*
X94020267Y-64065042D01*
X94160223Y-63977102D01*
X94277102Y-63860223D01*
X94365042Y-63720267D01*
X94419634Y-63564252D01*
X94424590Y-63520267D01*
X94438141Y-63400003D01*
X94438141Y-63399996D01*
X94419635Y-63235753D01*
X94419634Y-63235751D01*
X94419634Y-63235748D01*
X94365042Y-63079733D01*
X94337404Y-63035748D01*
X94277101Y-62939776D01*
X94160223Y-62822898D01*
X94020268Y-62734958D01*
X93864246Y-62680364D01*
X93700004Y-62661859D01*
X93699996Y-62661859D01*
X93535753Y-62680364D01*
X93379732Y-62734958D01*
X93315969Y-62775022D01*
X93248732Y-62794021D01*
X93184027Y-62775021D01*
X93120266Y-62734957D01*
X92964246Y-62680364D01*
X92800004Y-62661859D01*
X92799996Y-62661859D01*
X92635753Y-62680364D01*
X92479731Y-62734958D01*
X92465968Y-62743606D01*
X92398731Y-62762604D01*
X92334029Y-62743605D01*
X92320265Y-62734957D01*
X92164246Y-62680364D01*
X92000004Y-62661859D01*
X91999996Y-62661859D01*
X91835753Y-62680364D01*
X91679731Y-62734958D01*
X91539776Y-62822898D01*
X91422898Y-62939776D01*
X91334958Y-63079731D01*
X91280364Y-63235753D01*
X91261859Y-63399996D01*
X91261859Y-63400003D01*
X85737328Y-63400003D01*
X85660223Y-63322898D01*
X85625349Y-63300985D01*
X85520268Y-63234958D01*
X85364246Y-63180364D01*
X85200004Y-63161859D01*
X85199996Y-63161859D01*
X85035753Y-63180364D01*
X84879731Y-63234958D01*
X84879727Y-63234960D01*
X84774649Y-63300985D01*
X84707413Y-63319985D01*
X84640578Y-63299617D01*
X84620997Y-63283672D01*
X84560223Y-63222898D01*
X84420268Y-63134958D01*
X84264246Y-63080364D01*
X84100004Y-63061859D01*
X84099996Y-63061859D01*
X83935753Y-63080364D01*
X83779731Y-63134958D01*
X83639776Y-63222898D01*
X83522898Y-63339776D01*
X83434958Y-63479731D01*
X83380364Y-63635753D01*
X83361859Y-63799996D01*
X83361859Y-63800003D01*
X83026874Y-63800003D01*
X83019635Y-63735753D01*
X83019634Y-63735751D01*
X83019634Y-63735748D01*
X82965042Y-63579733D01*
X82877102Y-63439777D01*
X82760223Y-63322898D01*
X82725349Y-63300985D01*
X82620268Y-63234958D01*
X82464246Y-63180364D01*
X82300004Y-63161859D01*
X82299996Y-63161859D01*
X82135753Y-63180364D01*
X81979731Y-63234958D01*
X81839776Y-63322898D01*
X81722898Y-63439776D01*
X81634958Y-63579731D01*
X81580364Y-63735753D01*
X81561859Y-63899996D01*
X81561859Y-63900003D01*
X80720354Y-63900003D01*
X80820267Y-63865042D01*
X80960223Y-63777102D01*
X81077102Y-63660223D01*
X81165042Y-63520267D01*
X81219634Y-63364252D01*
X81223065Y-63333802D01*
X81238141Y-63200003D01*
X81238141Y-63199996D01*
X81219635Y-63035751D01*
X81186052Y-62939777D01*
X81168967Y-62890952D01*
X81165406Y-62821176D01*
X81168968Y-62809046D01*
X81219634Y-62664252D01*
X81219634Y-62664250D01*
X81219635Y-62664248D01*
X81238141Y-62500003D01*
X81238141Y-62499996D01*
X81219635Y-62335751D01*
X81194614Y-62264246D01*
X81168967Y-62190952D01*
X81165406Y-62121176D01*
X81168968Y-62109046D01*
X81219634Y-61964252D01*
X81219634Y-61964250D01*
X81219635Y-61964248D01*
X81238141Y-61800003D01*
X81238141Y-61799996D01*
X81219635Y-61635753D01*
X81219634Y-61635751D01*
X81219634Y-61635748D01*
X81165042Y-61479733D01*
X81155810Y-61465041D01*
X81095661Y-61369314D01*
X81077102Y-61339777D01*
X80960223Y-61222898D01*
X80908485Y-61190389D01*
X80820268Y-61134958D01*
X80664246Y-61080364D01*
X80500004Y-61061859D01*
X80499996Y-61061859D01*
X80335751Y-61080364D01*
X80328966Y-61081914D01*
X80328372Y-61079316D01*
X80270722Y-61082237D01*
X80218598Y-61052353D01*
X80215694Y-61084014D01*
X80172707Y-61139094D01*
X80166380Y-61143347D01*
X80039778Y-61222896D01*
X79922898Y-61339776D01*
X79834958Y-61479731D01*
X79780364Y-61635753D01*
X79761859Y-61799996D01*
X79761859Y-61800003D01*
X79780364Y-61964246D01*
X79780365Y-61964251D01*
X79780366Y-61964252D01*
X79785174Y-61977993D01*
X79831031Y-62109046D01*
X79834592Y-62178825D01*
X79831031Y-62190954D01*
X79780364Y-62335753D01*
X79761859Y-62499996D01*
X79761859Y-62500003D01*
X79780364Y-62664246D01*
X79831031Y-62809046D01*
X79834592Y-62878825D01*
X79831031Y-62890954D01*
X79780364Y-63035753D01*
X79761859Y-63199996D01*
X79761859Y-63200003D01*
X79763391Y-63213601D01*
X79751336Y-63282423D01*
X79703987Y-63333802D01*
X79636377Y-63351426D01*
X79569971Y-63329699D01*
X79552490Y-63315165D01*
X79460223Y-63222898D01*
X79320268Y-63134958D01*
X79164246Y-63080364D01*
X79000004Y-63061859D01*
X78999996Y-63061859D01*
X78835753Y-63080364D01*
X78679731Y-63134958D01*
X78539776Y-63222898D01*
X78422898Y-63339776D01*
X78334958Y-63479731D01*
X78280364Y-63635753D01*
X78261859Y-63799996D01*
X78261859Y-63800003D01*
X70172133Y-63800003D01*
X70219634Y-63664252D01*
X70229157Y-63579733D01*
X70238141Y-63500003D01*
X70238141Y-63499996D01*
X70219635Y-63335753D01*
X70219634Y-63335751D01*
X70219634Y-63335748D01*
X70165042Y-63179733D01*
X70077102Y-63039777D01*
X69960223Y-62922898D01*
X69955028Y-62919634D01*
X69820268Y-62834958D01*
X69664246Y-62780364D01*
X69500004Y-62761859D01*
X69499996Y-62761859D01*
X69335753Y-62780364D01*
X69179731Y-62834958D01*
X69039776Y-62922898D01*
X68922898Y-63039776D01*
X68834958Y-63179731D01*
X68780364Y-63335753D01*
X68761859Y-63499996D01*
X68761859Y-63500003D01*
X60800500Y-63500003D01*
X60800500Y-60800003D01*
X78261859Y-60800003D01*
X78280364Y-60964246D01*
X78280365Y-60964251D01*
X78280366Y-60964252D01*
X78292450Y-60998786D01*
X78334958Y-61120268D01*
X78397793Y-61220269D01*
X78422898Y-61260223D01*
X78539777Y-61377102D01*
X78595968Y-61412409D01*
X78672063Y-61460223D01*
X78679733Y-61465042D01*
X78835748Y-61519634D01*
X78835751Y-61519634D01*
X78835753Y-61519635D01*
X78999996Y-61538141D01*
X79000000Y-61538141D01*
X79000004Y-61538141D01*
X79164246Y-61519635D01*
X79164247Y-61519634D01*
X79164252Y-61519634D01*
X79320267Y-61465042D01*
X79460223Y-61377102D01*
X79577102Y-61260223D01*
X79665042Y-61120267D01*
X79702605Y-61012915D01*
X79743327Y-60956141D01*
X79808279Y-60930393D01*
X79833524Y-60930650D01*
X79891379Y-60937169D01*
X79899999Y-60938141D01*
X79900000Y-60938141D01*
X79900004Y-60938141D01*
X80064248Y-60919635D01*
X80071034Y-60918086D01*
X80071630Y-60920697D01*
X80129195Y-60917742D01*
X80181403Y-60947627D01*
X80184336Y-60915907D01*
X80196765Y-60900003D01*
X81761859Y-60900003D01*
X81780364Y-61064246D01*
X81834958Y-61220268D01*
X81910050Y-61339776D01*
X81922898Y-61360223D01*
X82039777Y-61477102D01*
X82179733Y-61565042D01*
X82335748Y-61619634D01*
X82335751Y-61619634D01*
X82335753Y-61619635D01*
X82499996Y-61638141D01*
X82500000Y-61638141D01*
X82500004Y-61638141D01*
X82664246Y-61619635D01*
X82664247Y-61619634D01*
X82664252Y-61619634D01*
X82693982Y-61609230D01*
X82763759Y-61605668D01*
X82824387Y-61640397D01*
X82856614Y-61702390D01*
X82850210Y-61771965D01*
X82839930Y-61792243D01*
X82784960Y-61879727D01*
X82784958Y-61879731D01*
X82730364Y-62035753D01*
X82711859Y-62199996D01*
X82711859Y-62200003D01*
X82730364Y-62364246D01*
X82784958Y-62520268D01*
X82844315Y-62614733D01*
X82872898Y-62660223D01*
X82989777Y-62777102D01*
X83057468Y-62819635D01*
X83125585Y-62862436D01*
X83129733Y-62865042D01*
X83285748Y-62919634D01*
X83285751Y-62919634D01*
X83285753Y-62919635D01*
X83449996Y-62938141D01*
X83450000Y-62938141D01*
X83450004Y-62938141D01*
X83614246Y-62919635D01*
X83614247Y-62919634D01*
X83614252Y-62919634D01*
X83770267Y-62865042D01*
X83910223Y-62777102D01*
X84027102Y-62660223D01*
X84115042Y-62520267D01*
X84169634Y-62364252D01*
X84169635Y-62364246D01*
X84188141Y-62200003D01*
X84188141Y-62199996D01*
X84176874Y-62100003D01*
X89699359Y-62100003D01*
X89717864Y-62264246D01*
X89772458Y-62420268D01*
X89844056Y-62534215D01*
X89860398Y-62560223D01*
X89977277Y-62677102D01*
X90117233Y-62765042D01*
X90273248Y-62819634D01*
X90273251Y-62819634D01*
X90273253Y-62819635D01*
X90437496Y-62838141D01*
X90437500Y-62838141D01*
X90437504Y-62838141D01*
X90601746Y-62819635D01*
X90601747Y-62819634D01*
X90601752Y-62819634D01*
X90757767Y-62765042D01*
X90897723Y-62677102D01*
X91014602Y-62560223D01*
X91102542Y-62420267D01*
X91157134Y-62264252D01*
X91157135Y-62264246D01*
X91175641Y-62100003D01*
X91175641Y-62099996D01*
X91157135Y-61935753D01*
X91157134Y-61935751D01*
X91157134Y-61935748D01*
X91102542Y-61779733D01*
X91014602Y-61639777D01*
X90897723Y-61522898D01*
X90892393Y-61519549D01*
X90757768Y-61434958D01*
X90601746Y-61380364D01*
X90437504Y-61361859D01*
X90437496Y-61361859D01*
X90273253Y-61380364D01*
X90117231Y-61434958D01*
X89977276Y-61522898D01*
X89860398Y-61639776D01*
X89772458Y-61779731D01*
X89717864Y-61935753D01*
X89699359Y-62099996D01*
X89699359Y-62100003D01*
X84176874Y-62100003D01*
X84169635Y-62035753D01*
X84169634Y-62035751D01*
X84169634Y-62035748D01*
X84115042Y-61879733D01*
X84027102Y-61739777D01*
X83910223Y-61622898D01*
X83837339Y-61577102D01*
X83770268Y-61534958D01*
X83614246Y-61480364D01*
X83450004Y-61461859D01*
X83449996Y-61461859D01*
X83285754Y-61480364D01*
X83256015Y-61490770D01*
X83186236Y-61494330D01*
X83125609Y-61459599D01*
X83093384Y-61397605D01*
X83099790Y-61328030D01*
X83110070Y-61307754D01*
X83115184Y-61299615D01*
X83165042Y-61220267D01*
X83219634Y-61064252D01*
X83219904Y-61061859D01*
X83238141Y-60900003D01*
X83238141Y-60899996D01*
X83226874Y-60800003D01*
X91861859Y-60800003D01*
X91880364Y-60964246D01*
X91880365Y-60964251D01*
X91880366Y-60964252D01*
X91892450Y-60998786D01*
X91934958Y-61120268D01*
X91997793Y-61220269D01*
X92022898Y-61260223D01*
X92139777Y-61377102D01*
X92195968Y-61412409D01*
X92272063Y-61460223D01*
X92279733Y-61465042D01*
X92435748Y-61519634D01*
X92435751Y-61519634D01*
X92435753Y-61519635D01*
X92599996Y-61538141D01*
X92600000Y-61538141D01*
X92600004Y-61538141D01*
X92764246Y-61519635D01*
X92764247Y-61519634D01*
X92764252Y-61519634D01*
X92920267Y-61465042D01*
X93060223Y-61377102D01*
X93177102Y-61260223D01*
X93265042Y-61120267D01*
X93314932Y-60977686D01*
X93355651Y-60920915D01*
X93420604Y-60895167D01*
X93489166Y-60908623D01*
X93497944Y-60913651D01*
X93507466Y-60919634D01*
X93579733Y-60965042D01*
X93735748Y-61019634D01*
X93735751Y-61019634D01*
X93735753Y-61019635D01*
X93899996Y-61038141D01*
X93900000Y-61038141D01*
X93900004Y-61038141D01*
X94064246Y-61019635D01*
X94064247Y-61019634D01*
X94064252Y-61019634D01*
X94120354Y-61000003D01*
X96661859Y-61000003D01*
X96680364Y-61164246D01*
X96734958Y-61320268D01*
X96793965Y-61414176D01*
X96822898Y-61460223D01*
X96939777Y-61577102D01*
X97011246Y-61622009D01*
X97071708Y-61660000D01*
X97079733Y-61665042D01*
X97235748Y-61719634D01*
X97235751Y-61719634D01*
X97235753Y-61719635D01*
X97399996Y-61738141D01*
X97400000Y-61738141D01*
X97400002Y-61738141D01*
X97449406Y-61732574D01*
X97510484Y-61725692D01*
X97579306Y-61737746D01*
X97630685Y-61785095D01*
X97647688Y-61835948D01*
X97657574Y-61929999D01*
X97662618Y-61977993D01*
X97662619Y-61977995D01*
X97717920Y-62148197D01*
X97717923Y-62148203D01*
X97807409Y-62303197D01*
X97872480Y-62375466D01*
X97924364Y-62433090D01*
X97927164Y-62436199D01*
X98002159Y-62490686D01*
X98071956Y-62541397D01*
X98114241Y-62560223D01*
X98235454Y-62614190D01*
X98410514Y-62651400D01*
X98410515Y-62651400D01*
X98589484Y-62651400D01*
X98589486Y-62651400D01*
X98764546Y-62614190D01*
X98928045Y-62541396D01*
X99072836Y-62436199D01*
X99072838Y-62436196D01*
X99077114Y-62433090D01*
X99142921Y-62409610D01*
X99210974Y-62425435D01*
X99222886Y-62433090D01*
X99227161Y-62436196D01*
X99227164Y-62436199D01*
X99335532Y-62514933D01*
X99371956Y-62541397D01*
X99414241Y-62560223D01*
X99535454Y-62614190D01*
X99710514Y-62651400D01*
X99710515Y-62651400D01*
X99889484Y-62651400D01*
X99889486Y-62651400D01*
X100064546Y-62614190D01*
X100228045Y-62541396D01*
X100372836Y-62436199D01*
X100492591Y-62303197D01*
X100582077Y-62148203D01*
X100626750Y-62010713D01*
X107880000Y-62010713D01*
X107895418Y-62162338D01*
X107956299Y-62356381D01*
X107956304Y-62356391D01*
X108055005Y-62534215D01*
X108055005Y-62534216D01*
X108187478Y-62688530D01*
X108187479Y-62688531D01*
X108348304Y-62813018D01*
X108530907Y-62902589D01*
X108630000Y-62928244D01*
X108630000Y-62126110D01*
X108654457Y-62165610D01*
X108743962Y-62233201D01*
X108851840Y-62263895D01*
X108963521Y-62253546D01*
X109063922Y-62203552D01*
X109130000Y-62131069D01*
X109130000Y-62933366D01*
X109131944Y-62933069D01*
X109131945Y-62933069D01*
X109322660Y-62862436D01*
X109322664Y-62862434D01*
X109495267Y-62754850D01*
X109642668Y-62614735D01*
X109642669Y-62614733D01*
X109758856Y-62447803D01*
X109765463Y-62432407D01*
X109809986Y-62378561D01*
X109876554Y-62357334D01*
X109944030Y-62375466D01*
X109954892Y-62382917D01*
X110019767Y-62432698D01*
X110159764Y-62490687D01*
X110272280Y-62505500D01*
X110272287Y-62505500D01*
X110347713Y-62505500D01*
X110347720Y-62505500D01*
X110460236Y-62490687D01*
X110600233Y-62432698D01*
X110720451Y-62340451D01*
X110812698Y-62220233D01*
X110870687Y-62080236D01*
X110890466Y-61930000D01*
X115509533Y-61930000D01*
X115529312Y-62080234D01*
X115529313Y-62080236D01*
X115578919Y-62199996D01*
X115587302Y-62220233D01*
X115679549Y-62340451D01*
X115799767Y-62432698D01*
X115939764Y-62490687D01*
X116052280Y-62505500D01*
X116052287Y-62505500D01*
X116127713Y-62505500D01*
X116127720Y-62505500D01*
X116240236Y-62490687D01*
X116380233Y-62432698D01*
X116447365Y-62381185D01*
X116512530Y-62355992D01*
X116580975Y-62370030D01*
X116630966Y-62418843D01*
X116631268Y-62419384D01*
X116695005Y-62534215D01*
X116695005Y-62534216D01*
X116827478Y-62688530D01*
X116827479Y-62688531D01*
X116988304Y-62813018D01*
X117170907Y-62902589D01*
X117270000Y-62928244D01*
X117269999Y-62126110D01*
X117294457Y-62165610D01*
X117383962Y-62233201D01*
X117491840Y-62263895D01*
X117603521Y-62253546D01*
X117703922Y-62203552D01*
X117770000Y-62131069D01*
X117770000Y-62933365D01*
X117771944Y-62933069D01*
X117771945Y-62933069D01*
X117962660Y-62862436D01*
X117962664Y-62862434D01*
X118135267Y-62754850D01*
X118282668Y-62614735D01*
X118282669Y-62614733D01*
X118398856Y-62447804D01*
X118479059Y-62260907D01*
X118520000Y-62061690D01*
X118520000Y-61660000D01*
X117820000Y-61660000D01*
X117820000Y-61160000D01*
X118520000Y-61160000D01*
X118520000Y-60809286D01*
X118504581Y-60657661D01*
X118443700Y-60463618D01*
X118443695Y-60463608D01*
X118344994Y-60285784D01*
X118344994Y-60285783D01*
X118212521Y-60131469D01*
X118212520Y-60131468D01*
X118051695Y-60006981D01*
X117869093Y-59917411D01*
X117769999Y-59891753D01*
X117769999Y-60693887D01*
X117745543Y-60654390D01*
X117656038Y-60586799D01*
X117548160Y-60556105D01*
X117436479Y-60566454D01*
X117336078Y-60616448D01*
X117269999Y-60688931D01*
X117269999Y-59886633D01*
X117268053Y-59886931D01*
X117268047Y-59886933D01*
X117077342Y-59957562D01*
X117077335Y-59957565D01*
X116904732Y-60065149D01*
X116757331Y-60205264D01*
X116757330Y-60205266D01*
X116641143Y-60372195D01*
X116560940Y-60559092D01*
X116520000Y-60758309D01*
X116520000Y-61299615D01*
X116500315Y-61366654D01*
X116447511Y-61412409D01*
X116378353Y-61422353D01*
X116348548Y-61414176D01*
X116240239Y-61369314D01*
X116240237Y-61369313D01*
X116240236Y-61369313D01*
X116220039Y-61366654D01*
X116127727Y-61354500D01*
X116127720Y-61354500D01*
X116052280Y-61354500D01*
X116052272Y-61354500D01*
X115939764Y-61369313D01*
X115939763Y-61369313D01*
X115799770Y-61427300D01*
X115799767Y-61427301D01*
X115799767Y-61427302D01*
X115679549Y-61519549D01*
X115600929Y-61622009D01*
X115587300Y-61639770D01*
X115529313Y-61779763D01*
X115529312Y-61779765D01*
X115509533Y-61929999D01*
X115509533Y-61930000D01*
X110890466Y-61930000D01*
X110870687Y-61779764D01*
X110812698Y-61639767D01*
X110720451Y-61519549D01*
X110600233Y-61427302D01*
X110600229Y-61427300D01*
X110536801Y-61401027D01*
X110460236Y-61369313D01*
X110440039Y-61366654D01*
X110347727Y-61354500D01*
X110347720Y-61354500D01*
X110272280Y-61354500D01*
X110272272Y-61354500D01*
X110159764Y-61369313D01*
X110159760Y-61369314D01*
X110051452Y-61414176D01*
X109981982Y-61421645D01*
X109919503Y-61390369D01*
X109883852Y-61330280D01*
X109880000Y-61299615D01*
X109880000Y-60809286D01*
X109864581Y-60657661D01*
X109803700Y-60463618D01*
X109803695Y-60463608D01*
X109704994Y-60285784D01*
X109704994Y-60285783D01*
X109572521Y-60131469D01*
X109572520Y-60131468D01*
X109411695Y-60006981D01*
X109229093Y-59917411D01*
X109130000Y-59891753D01*
X109130000Y-60693889D01*
X109105543Y-60654390D01*
X109016038Y-60586799D01*
X108908160Y-60556105D01*
X108796479Y-60566454D01*
X108696078Y-60616448D01*
X108629999Y-60688930D01*
X108630000Y-59886633D01*
X108628053Y-59886931D01*
X108628047Y-59886933D01*
X108437342Y-59957562D01*
X108437335Y-59957565D01*
X108264732Y-60065149D01*
X108117331Y-60205264D01*
X108117330Y-60205266D01*
X108001143Y-60372195D01*
X107920940Y-60559092D01*
X107880000Y-60758309D01*
X107880000Y-61160000D01*
X108580000Y-61160000D01*
X108580000Y-61660000D01*
X107880000Y-61660000D01*
X107880000Y-62010713D01*
X100626750Y-62010713D01*
X100637382Y-61977991D01*
X100656090Y-61800000D01*
X100637382Y-61622009D01*
X100604119Y-61519635D01*
X100582079Y-61451802D01*
X100582076Y-61451796D01*
X100572355Y-61434958D01*
X100492591Y-61296803D01*
X100382526Y-61174563D01*
X100372837Y-61163802D01*
X100344683Y-61143347D01*
X100260573Y-61082237D01*
X100228043Y-61058602D01*
X100064544Y-60985809D01*
X99924964Y-60956141D01*
X99889486Y-60948600D01*
X99710514Y-60948600D01*
X99675036Y-60956141D01*
X99535455Y-60985809D01*
X99535454Y-60985809D01*
X99371954Y-61058603D01*
X99371953Y-61058604D01*
X99222885Y-61166909D01*
X99157079Y-61190389D01*
X99089025Y-61174563D01*
X99077115Y-61166909D01*
X98928046Y-61058604D01*
X98928045Y-61058603D01*
X98764544Y-60985809D01*
X98624964Y-60956141D01*
X98589486Y-60948600D01*
X98410514Y-60948600D01*
X98410513Y-60948600D01*
X98272552Y-60977924D01*
X98202885Y-60972608D01*
X98147152Y-60930471D01*
X98123552Y-60870517D01*
X98119635Y-60835753D01*
X98119634Y-60835751D01*
X98119634Y-60835748D01*
X98065042Y-60679733D01*
X98063947Y-60677991D01*
X97989238Y-60559092D01*
X97977102Y-60539777D01*
X97937325Y-60500000D01*
X102843910Y-60500000D01*
X102862618Y-60677993D01*
X102862619Y-60677995D01*
X102917920Y-60848197D01*
X102917923Y-60848203D01*
X103007409Y-61003197D01*
X103062378Y-61064246D01*
X103126046Y-61134958D01*
X103127164Y-61136199D01*
X103201750Y-61190389D01*
X103271956Y-61241397D01*
X103314241Y-61260223D01*
X103435454Y-61314190D01*
X103610514Y-61351400D01*
X103610515Y-61351400D01*
X103789484Y-61351400D01*
X103789486Y-61351400D01*
X103964546Y-61314190D01*
X104128045Y-61241396D01*
X104272836Y-61136199D01*
X104392591Y-61003197D01*
X104482077Y-60848203D01*
X104537382Y-60677991D01*
X104556090Y-60500000D01*
X104537382Y-60322009D01*
X104537380Y-60322005D01*
X104537187Y-60320161D01*
X104549756Y-60251431D01*
X104597488Y-60200407D01*
X104610063Y-60193924D01*
X104728045Y-60141396D01*
X104872836Y-60036199D01*
X104992591Y-59903197D01*
X105082077Y-59748203D01*
X105137382Y-59577991D01*
X105156090Y-59400000D01*
X105139725Y-59244299D01*
X110243910Y-59244299D01*
X110262618Y-59422293D01*
X110262619Y-59422295D01*
X110317920Y-59592497D01*
X110317923Y-59592503D01*
X110407409Y-59747497D01*
X110527164Y-59880499D01*
X110610981Y-59941396D01*
X110671956Y-59985697D01*
X110719762Y-60006981D01*
X110835454Y-60058490D01*
X111010514Y-60095700D01*
X111010515Y-60095700D01*
X111145450Y-60095700D01*
X111212489Y-60115385D01*
X111237600Y-60136728D01*
X111327162Y-60236197D01*
X111327164Y-60236199D01*
X111414978Y-60300000D01*
X111471956Y-60341397D01*
X111541131Y-60372195D01*
X111635454Y-60414190D01*
X111810514Y-60451400D01*
X111810515Y-60451400D01*
X111989484Y-60451400D01*
X111989486Y-60451400D01*
X112164546Y-60414190D01*
X112328045Y-60341396D01*
X112472836Y-60236199D01*
X112592591Y-60103197D01*
X112682077Y-59948203D01*
X112737382Y-59777991D01*
X112756090Y-59600000D01*
X112737382Y-59422009D01*
X112707905Y-59331289D01*
X112682079Y-59251802D01*
X112682076Y-59251796D01*
X112652172Y-59200000D01*
X114743910Y-59200000D01*
X114762618Y-59377993D01*
X114762619Y-59377995D01*
X114817920Y-59548197D01*
X114817923Y-59548203D01*
X114907409Y-59703197D01*
X115027164Y-59836199D01*
X115119376Y-59903195D01*
X115171956Y-59941397D01*
X115208271Y-59957565D01*
X115335454Y-60014190D01*
X115510514Y-60051400D01*
X115510515Y-60051400D01*
X115689484Y-60051400D01*
X115689486Y-60051400D01*
X115864546Y-60014190D01*
X116028045Y-59941396D01*
X116172836Y-59836199D01*
X116292591Y-59703197D01*
X116360357Y-59585822D01*
X116410924Y-59537607D01*
X116479531Y-59524384D01*
X116493519Y-59526532D01*
X116610514Y-59551400D01*
X116610515Y-59551400D01*
X116789484Y-59551400D01*
X116789486Y-59551400D01*
X116964546Y-59514190D01*
X117128045Y-59441396D01*
X117272836Y-59336199D01*
X117392591Y-59203197D01*
X117482077Y-59048203D01*
X117537382Y-58877991D01*
X117556090Y-58700000D01*
X117537382Y-58522009D01*
X117494800Y-58390954D01*
X117482079Y-58351802D01*
X117482076Y-58351796D01*
X117481039Y-58350000D01*
X117392591Y-58196803D01*
X117273953Y-58065042D01*
X117272837Y-58063802D01*
X117260664Y-58054958D01*
X117185016Y-57999996D01*
X117128043Y-57958602D01*
X116964544Y-57885809D01*
X116836738Y-57858643D01*
X116789486Y-57848600D01*
X116610514Y-57848600D01*
X116573305Y-57856508D01*
X116435455Y-57885809D01*
X116435454Y-57885809D01*
X116271956Y-57958602D01*
X116127162Y-58063802D01*
X116007407Y-58196804D01*
X115939643Y-58314176D01*
X115889076Y-58362392D01*
X115820469Y-58375614D01*
X115806477Y-58373467D01*
X115689486Y-58348600D01*
X115510514Y-58348600D01*
X115495450Y-58351802D01*
X115335455Y-58385809D01*
X115335454Y-58385809D01*
X115171956Y-58458602D01*
X115027162Y-58563802D01*
X114907408Y-58696804D01*
X114817923Y-58851796D01*
X114817920Y-58851802D01*
X114762619Y-59022004D01*
X114762618Y-59022006D01*
X114743910Y-59200000D01*
X112652172Y-59200000D01*
X112592591Y-59096803D01*
X112472836Y-58963801D01*
X112412047Y-58919635D01*
X112328043Y-58858602D01*
X112164544Y-58785809D01*
X112036738Y-58758643D01*
X111989486Y-58748600D01*
X111854550Y-58748600D01*
X111787511Y-58728915D01*
X111762400Y-58707572D01*
X111672837Y-58608102D01*
X111528043Y-58502902D01*
X111364544Y-58430109D01*
X111233578Y-58402272D01*
X111189486Y-58392900D01*
X111010514Y-58392900D01*
X110973305Y-58400808D01*
X110835455Y-58430109D01*
X110835454Y-58430109D01*
X110671956Y-58502902D01*
X110527162Y-58608102D01*
X110407408Y-58741104D01*
X110317923Y-58896096D01*
X110317920Y-58896102D01*
X110262619Y-59066304D01*
X110262618Y-59066306D01*
X110243910Y-59244299D01*
X105139725Y-59244299D01*
X105137382Y-59222009D01*
X105096700Y-59096803D01*
X105082079Y-59051802D01*
X105082076Y-59051796D01*
X105080002Y-59048203D01*
X104992591Y-58896803D01*
X104872836Y-58763801D01*
X104785022Y-58700000D01*
X104728043Y-58658602D01*
X104564544Y-58585809D01*
X104436738Y-58558643D01*
X104389486Y-58548600D01*
X104210514Y-58548600D01*
X104173305Y-58556508D01*
X104035455Y-58585809D01*
X104035454Y-58585809D01*
X103871956Y-58658602D01*
X103727162Y-58763802D01*
X103607408Y-58896804D01*
X103517923Y-59051796D01*
X103517920Y-59051802D01*
X103462619Y-59222004D01*
X103462618Y-59222006D01*
X103443910Y-59400000D01*
X103462812Y-59579837D01*
X103450243Y-59648567D01*
X103402511Y-59699591D01*
X103389927Y-59706078D01*
X103271959Y-59758601D01*
X103271958Y-59758601D01*
X103127162Y-59863802D01*
X103007408Y-59996804D01*
X102917923Y-60151796D01*
X102917920Y-60151802D01*
X102862619Y-60322004D01*
X102862618Y-60322006D01*
X102843910Y-60500000D01*
X97937325Y-60500000D01*
X97860223Y-60422898D01*
X97846364Y-60414190D01*
X97720268Y-60334958D01*
X97564246Y-60280364D01*
X97400004Y-60261859D01*
X97399996Y-60261859D01*
X97235753Y-60280364D01*
X97079731Y-60334958D01*
X96939776Y-60422898D01*
X96822898Y-60539776D01*
X96734958Y-60679731D01*
X96680364Y-60835753D01*
X96661859Y-60999996D01*
X96661859Y-61000003D01*
X94120354Y-61000003D01*
X94220267Y-60965042D01*
X94360223Y-60877102D01*
X94477102Y-60760223D01*
X94565042Y-60620267D01*
X94619634Y-60464252D01*
X94624929Y-60417250D01*
X94651993Y-60352839D01*
X94682176Y-60326141D01*
X94693200Y-60319214D01*
X94760436Y-60300216D01*
X94800121Y-60307167D01*
X94835748Y-60319634D01*
X94835751Y-60319634D01*
X94835753Y-60319635D01*
X94999996Y-60338141D01*
X95000000Y-60338141D01*
X95000004Y-60338141D01*
X95164246Y-60319635D01*
X95164247Y-60319634D01*
X95164252Y-60319634D01*
X95320267Y-60265042D01*
X95460223Y-60177102D01*
X95577102Y-60060223D01*
X95665042Y-59920267D01*
X95719634Y-59764252D01*
X95719635Y-59764246D01*
X95738141Y-59600003D01*
X95738141Y-59599996D01*
X95719635Y-59435753D01*
X95719634Y-59435751D01*
X95719634Y-59435748D01*
X95665042Y-59279733D01*
X95655810Y-59265041D01*
X95616950Y-59203195D01*
X95577102Y-59139777D01*
X95460223Y-59022898D01*
X95412372Y-58992831D01*
X95320268Y-58934958D01*
X95164246Y-58880364D01*
X95000004Y-58861859D01*
X94999996Y-58861859D01*
X94835753Y-58880364D01*
X94679731Y-58934958D01*
X94606801Y-58980783D01*
X94539564Y-58999783D01*
X94499876Y-58992831D01*
X94464251Y-58980365D01*
X94464247Y-58980364D01*
X94432541Y-58976792D01*
X94368127Y-58949725D01*
X94328573Y-58892129D01*
X94323207Y-58867462D01*
X94319634Y-58835748D01*
X94319633Y-58835745D01*
X94319632Y-58835740D01*
X94265043Y-58679736D01*
X94265042Y-58679732D01*
X94177101Y-58539776D01*
X94060223Y-58422898D01*
X93920268Y-58334958D01*
X93764246Y-58280364D01*
X93600004Y-58261859D01*
X93599996Y-58261859D01*
X93435753Y-58280364D01*
X93279731Y-58334958D01*
X93139776Y-58422898D01*
X93022898Y-58539776D01*
X92934958Y-58679731D01*
X92880364Y-58835753D01*
X92861859Y-58999996D01*
X92861859Y-59000003D01*
X92880364Y-59164246D01*
X92934958Y-59320268D01*
X93009006Y-59438114D01*
X93022898Y-59460223D01*
X93139777Y-59577102D01*
X93176224Y-59600003D01*
X93284401Y-59667975D01*
X93330692Y-59720310D01*
X93341340Y-59789363D01*
X93323423Y-59838941D01*
X93234959Y-59979730D01*
X93234957Y-59979733D01*
X93234958Y-59979733D01*
X93187492Y-60115385D01*
X93185069Y-60122309D01*
X93144347Y-60179085D01*
X93079394Y-60204832D01*
X93010833Y-60191376D01*
X93002055Y-60186348D01*
X92920267Y-60134958D01*
X92920268Y-60134958D01*
X92764246Y-60080364D01*
X92600004Y-60061859D01*
X92599996Y-60061859D01*
X92435753Y-60080364D01*
X92279731Y-60134958D01*
X92139776Y-60222898D01*
X92022898Y-60339776D01*
X91934958Y-60479731D01*
X91880364Y-60635753D01*
X91861859Y-60799996D01*
X91861859Y-60800003D01*
X83226874Y-60800003D01*
X83219635Y-60735753D01*
X83219634Y-60735751D01*
X83219634Y-60735748D01*
X83165042Y-60579733D01*
X83152072Y-60559092D01*
X83127677Y-60520267D01*
X83077102Y-60439777D01*
X83077100Y-60439775D01*
X83076576Y-60438941D01*
X83057576Y-60371705D01*
X83077944Y-60304869D01*
X83115598Y-60267975D01*
X83120264Y-60265042D01*
X83120267Y-60265042D01*
X83260223Y-60177102D01*
X83377102Y-60060223D01*
X83465042Y-59920267D01*
X83519634Y-59764252D01*
X83519635Y-59764246D01*
X83538141Y-59600003D01*
X83538141Y-59599996D01*
X83519635Y-59435753D01*
X83519634Y-59435751D01*
X83519634Y-59435748D01*
X83465042Y-59279733D01*
X83455810Y-59265041D01*
X83416950Y-59203195D01*
X83377102Y-59139777D01*
X83318204Y-59080878D01*
X83284719Y-59019556D01*
X83288843Y-58952245D01*
X83319634Y-58864252D01*
X83319634Y-58864250D01*
X83319635Y-58864248D01*
X83338141Y-58700003D01*
X83338141Y-58699996D01*
X83326874Y-58600003D01*
X90061859Y-58600003D01*
X90080364Y-58764246D01*
X90080365Y-58764251D01*
X90080366Y-58764252D01*
X90092450Y-58798786D01*
X90134958Y-58920268D01*
X90199445Y-59022898D01*
X90222898Y-59060223D01*
X90339777Y-59177102D01*
X90411246Y-59222009D01*
X90458661Y-59251802D01*
X90479733Y-59265042D01*
X90635748Y-59319634D01*
X90635751Y-59319634D01*
X90635753Y-59319635D01*
X90799996Y-59338141D01*
X90800000Y-59338141D01*
X90800004Y-59338141D01*
X90964246Y-59319635D01*
X90964247Y-59319634D01*
X90964252Y-59319634D01*
X91120267Y-59265042D01*
X91260223Y-59177102D01*
X91377102Y-59060223D01*
X91465042Y-58920267D01*
X91519634Y-58764252D01*
X91521398Y-58748600D01*
X91538141Y-58600003D01*
X91538141Y-58599996D01*
X91519635Y-58435753D01*
X91519634Y-58435751D01*
X91519634Y-58435748D01*
X91465042Y-58279733D01*
X91456396Y-58265974D01*
X91437395Y-58198738D01*
X91456397Y-58134025D01*
X91465041Y-58120268D01*
X91465042Y-58120267D01*
X91519634Y-57964252D01*
X91519635Y-57964246D01*
X91538141Y-57800003D01*
X91538141Y-57799996D01*
X91519635Y-57635753D01*
X91519634Y-57635751D01*
X91519634Y-57635748D01*
X91465042Y-57479733D01*
X91456396Y-57465974D01*
X91437395Y-57398738D01*
X91456397Y-57334025D01*
X91465042Y-57320267D01*
X91519634Y-57164252D01*
X91523899Y-57126400D01*
X91538141Y-57000003D01*
X91538141Y-56999996D01*
X91519635Y-56835753D01*
X91519634Y-56835751D01*
X91519634Y-56835748D01*
X91465042Y-56679733D01*
X91456396Y-56665974D01*
X91437395Y-56598738D01*
X91456397Y-56534025D01*
X91462897Y-56523680D01*
X91465042Y-56520267D01*
X91519634Y-56364252D01*
X91519635Y-56364246D01*
X91538141Y-56200003D01*
X91538141Y-56199996D01*
X91519635Y-56035753D01*
X91519634Y-56035751D01*
X91519634Y-56035748D01*
X91465042Y-55879733D01*
X91377102Y-55739777D01*
X91325006Y-55687681D01*
X91291521Y-55626358D01*
X91296505Y-55556666D01*
X91325006Y-55512319D01*
X91350903Y-55486422D01*
X91377102Y-55460223D01*
X91465042Y-55320267D01*
X91519634Y-55164252D01*
X91519852Y-55162318D01*
X91538141Y-55000003D01*
X91538141Y-54999996D01*
X91519635Y-54835751D01*
X91508243Y-54803195D01*
X91468967Y-54690952D01*
X91465406Y-54621175D01*
X91468962Y-54609063D01*
X91472132Y-54600003D01*
X91861859Y-54600003D01*
X91880364Y-54764246D01*
X91934958Y-54920268D01*
X92022898Y-55060223D01*
X92124993Y-55162318D01*
X92158478Y-55223641D01*
X92153494Y-55293333D01*
X92127180Y-55334279D01*
X92127242Y-55334329D01*
X92126760Y-55334932D01*
X92124999Y-55337674D01*
X92122900Y-55339773D01*
X92034958Y-55479731D01*
X91980364Y-55635753D01*
X91961859Y-55799996D01*
X91961859Y-55800003D01*
X91980364Y-55964246D01*
X92034958Y-56120268D01*
X92122897Y-56260223D01*
X92122898Y-56260223D01*
X92239777Y-56377102D01*
X92379733Y-56465042D01*
X92430935Y-56482958D01*
X92487711Y-56523680D01*
X92513458Y-56588633D01*
X92500002Y-56657194D01*
X92451615Y-56707597D01*
X92430938Y-56717040D01*
X92414199Y-56722898D01*
X92379730Y-56734959D01*
X92239776Y-56822898D01*
X92122898Y-56939776D01*
X92034958Y-57079731D01*
X91980364Y-57235753D01*
X91961859Y-57399996D01*
X91961859Y-57400003D01*
X91980364Y-57564246D01*
X92034958Y-57720268D01*
X92109023Y-57838141D01*
X92122898Y-57860223D01*
X92239777Y-57977102D01*
X92276213Y-57999996D01*
X92377759Y-58063802D01*
X92379733Y-58065042D01*
X92535748Y-58119634D01*
X92535751Y-58119634D01*
X92535753Y-58119635D01*
X92699996Y-58138141D01*
X92700000Y-58138141D01*
X92700004Y-58138141D01*
X92864246Y-58119635D01*
X92864247Y-58119634D01*
X92864252Y-58119634D01*
X93020267Y-58065042D01*
X93160223Y-57977102D01*
X93277102Y-57860223D01*
X93365042Y-57720267D01*
X93382267Y-57671040D01*
X93422987Y-57614265D01*
X93487939Y-57588517D01*
X93556501Y-57601972D01*
X93586989Y-57624314D01*
X93639777Y-57677102D01*
X93722558Y-57729117D01*
X93778475Y-57764252D01*
X93779733Y-57765042D01*
X93935748Y-57819634D01*
X93935751Y-57819634D01*
X93935753Y-57819635D01*
X94099996Y-57838141D01*
X94100000Y-57838141D01*
X94100004Y-57838141D01*
X94264246Y-57819635D01*
X94264247Y-57819634D01*
X94264252Y-57819634D01*
X94320354Y-57800003D01*
X94961859Y-57800003D01*
X94980364Y-57964246D01*
X95034958Y-58120268D01*
X95087559Y-58203981D01*
X95122898Y-58260223D01*
X95239777Y-58377102D01*
X95279835Y-58402272D01*
X95369483Y-58458602D01*
X95379733Y-58465042D01*
X95535748Y-58519634D01*
X95535751Y-58519634D01*
X95535753Y-58519635D01*
X95699996Y-58538141D01*
X95700000Y-58538141D01*
X95700004Y-58538141D01*
X95864246Y-58519635D01*
X95864247Y-58519634D01*
X95864252Y-58519634D01*
X96020267Y-58465042D01*
X96160223Y-58377102D01*
X96277102Y-58260223D01*
X96314941Y-58200003D01*
X105561859Y-58200003D01*
X105580364Y-58364246D01*
X105580365Y-58364251D01*
X105580366Y-58364252D01*
X105589709Y-58390954D01*
X105634958Y-58520268D01*
X105690148Y-58608102D01*
X105722898Y-58660223D01*
X105839777Y-58777102D01*
X105853636Y-58785810D01*
X105978475Y-58864252D01*
X105979733Y-58865042D01*
X106135748Y-58919634D01*
X106135751Y-58919634D01*
X106135753Y-58919635D01*
X106299996Y-58938141D01*
X106300000Y-58938141D01*
X106300004Y-58938141D01*
X106464246Y-58919635D01*
X106464247Y-58919634D01*
X106464252Y-58919634D01*
X106620267Y-58865042D01*
X106760223Y-58777102D01*
X106877102Y-58660223D01*
X106965042Y-58520267D01*
X107019634Y-58364252D01*
X107021037Y-58351802D01*
X107038141Y-58200003D01*
X107038141Y-58199996D01*
X107019635Y-58035753D01*
X107019634Y-58035751D01*
X107019634Y-58035748D01*
X106965042Y-57879733D01*
X106937404Y-57835748D01*
X106914944Y-57800003D01*
X106877102Y-57739777D01*
X106760223Y-57622898D01*
X106738176Y-57609045D01*
X106620268Y-57534958D01*
X106464246Y-57480364D01*
X106300004Y-57461859D01*
X106299996Y-57461859D01*
X106135753Y-57480364D01*
X105979731Y-57534958D01*
X105839776Y-57622898D01*
X105722898Y-57739776D01*
X105634958Y-57879731D01*
X105580364Y-58035753D01*
X105561859Y-58199996D01*
X105561859Y-58200003D01*
X96314941Y-58200003D01*
X96365042Y-58120267D01*
X96419634Y-57964252D01*
X96419635Y-57964246D01*
X96438141Y-57800003D01*
X96438141Y-57799996D01*
X96419635Y-57635753D01*
X96419634Y-57635751D01*
X96419634Y-57635748D01*
X96365042Y-57479733D01*
X96337404Y-57435748D01*
X96314944Y-57400003D01*
X96277102Y-57339777D01*
X96160223Y-57222898D01*
X96160222Y-57222898D01*
X96020268Y-57134958D01*
X95898786Y-57092450D01*
X95864252Y-57080366D01*
X95864251Y-57080365D01*
X95864246Y-57080364D01*
X95700004Y-57061859D01*
X95699996Y-57061859D01*
X95535753Y-57080364D01*
X95379731Y-57134958D01*
X95239776Y-57222898D01*
X95122898Y-57339776D01*
X95034958Y-57479731D01*
X94980364Y-57635753D01*
X94961859Y-57799996D01*
X94961859Y-57800003D01*
X94320354Y-57800003D01*
X94420267Y-57765042D01*
X94560223Y-57677102D01*
X94677102Y-57560223D01*
X94765042Y-57420267D01*
X94819634Y-57264252D01*
X94824294Y-57222898D01*
X94838141Y-57100003D01*
X94838141Y-57099996D01*
X94819635Y-56935753D01*
X94819634Y-56935751D01*
X94819634Y-56935748D01*
X94765042Y-56779733D01*
X94677102Y-56639777D01*
X94560223Y-56522898D01*
X94420267Y-56434958D01*
X94420266Y-56434957D01*
X94418107Y-56433601D01*
X94371816Y-56381266D01*
X94361168Y-56312213D01*
X94389543Y-56248364D01*
X94396374Y-56240950D01*
X94477102Y-56160223D01*
X94565042Y-56020267D01*
X94619634Y-55864252D01*
X94624590Y-55820267D01*
X94638141Y-55700003D01*
X94638141Y-55699996D01*
X94619635Y-55535753D01*
X94619634Y-55535751D01*
X94619634Y-55535748D01*
X94565042Y-55379733D01*
X94541519Y-55342297D01*
X94477101Y-55239776D01*
X94360223Y-55122898D01*
X94220268Y-55034958D01*
X94103502Y-54994100D01*
X101943910Y-54994100D01*
X101962618Y-55172093D01*
X101962619Y-55172095D01*
X102017920Y-55342297D01*
X102017923Y-55342303D01*
X102107409Y-55497297D01*
X102199883Y-55600000D01*
X102223615Y-55626358D01*
X102227164Y-55630299D01*
X102309353Y-55690013D01*
X102371956Y-55735497D01*
X102462661Y-55775880D01*
X102535454Y-55808290D01*
X102710514Y-55845500D01*
X102710515Y-55845500D01*
X102889484Y-55845500D01*
X102889486Y-55845500D01*
X103064546Y-55808290D01*
X103228045Y-55735496D01*
X103228049Y-55735492D01*
X103233678Y-55732244D01*
X103234437Y-55733560D01*
X103292916Y-55712692D01*
X103360971Y-55728515D01*
X103370750Y-55734800D01*
X103371950Y-55735493D01*
X103371952Y-55735494D01*
X103371955Y-55735496D01*
X103535454Y-55808290D01*
X103710514Y-55845500D01*
X103710515Y-55845500D01*
X103889484Y-55845500D01*
X103889486Y-55845500D01*
X104064546Y-55808290D01*
X104228045Y-55735496D01*
X104372836Y-55630299D01*
X104492591Y-55497297D01*
X104582077Y-55342303D01*
X104637382Y-55172091D01*
X104656090Y-54994100D01*
X104637382Y-54816109D01*
X104588298Y-54665042D01*
X104582079Y-54645902D01*
X104582076Y-54645896D01*
X104541144Y-54575000D01*
X106843910Y-54575000D01*
X106862618Y-54752993D01*
X106862619Y-54752995D01*
X106917920Y-54923197D01*
X106917923Y-54923203D01*
X107007409Y-55078197D01*
X107127164Y-55211199D01*
X107219218Y-55278080D01*
X107271956Y-55316397D01*
X107362421Y-55356674D01*
X107435454Y-55389190D01*
X107610514Y-55426400D01*
X107610515Y-55426400D01*
X107789484Y-55426400D01*
X107789486Y-55426400D01*
X107964546Y-55389190D01*
X108128045Y-55316396D01*
X108272836Y-55211199D01*
X108392591Y-55078197D01*
X108482077Y-54923203D01*
X108537382Y-54752991D01*
X108556090Y-54575000D01*
X108537382Y-54397009D01*
X108505862Y-54299999D01*
X111443910Y-54299999D01*
X111462618Y-54477993D01*
X111462619Y-54477995D01*
X111517920Y-54648197D01*
X111517923Y-54648203D01*
X111607409Y-54803197D01*
X111727164Y-54936199D01*
X111762482Y-54961859D01*
X111871956Y-55041397D01*
X111925065Y-55065042D01*
X112035454Y-55114190D01*
X112210514Y-55151400D01*
X112210515Y-55151400D01*
X112389484Y-55151400D01*
X112389486Y-55151400D01*
X112564546Y-55114190D01*
X112728045Y-55041396D01*
X112872836Y-54936199D01*
X112992591Y-54803197D01*
X113082077Y-54648203D01*
X113137382Y-54477991D01*
X113156090Y-54300000D01*
X113137382Y-54122009D01*
X113091154Y-53979733D01*
X113082079Y-53951802D01*
X113082076Y-53951796D01*
X112992591Y-53796803D01*
X112872836Y-53663801D01*
X112816549Y-53622906D01*
X112728043Y-53558602D01*
X112564544Y-53485809D01*
X112436738Y-53458643D01*
X112389486Y-53448600D01*
X112210514Y-53448600D01*
X112173305Y-53456508D01*
X112035455Y-53485809D01*
X112035454Y-53485809D01*
X111871956Y-53558602D01*
X111727162Y-53663802D01*
X111607408Y-53796804D01*
X111517923Y-53951796D01*
X111517920Y-53951802D01*
X111462619Y-54122004D01*
X111462618Y-54122006D01*
X111443910Y-54299999D01*
X108505862Y-54299999D01*
X108491550Y-54255952D01*
X108482079Y-54226802D01*
X108482076Y-54226796D01*
X108478307Y-54220268D01*
X108392591Y-54071803D01*
X108272836Y-53938801D01*
X108175858Y-53868342D01*
X108128043Y-53833602D01*
X107964544Y-53760809D01*
X107836738Y-53733643D01*
X107789486Y-53723600D01*
X107610514Y-53723600D01*
X107573304Y-53731508D01*
X107435455Y-53760809D01*
X107435454Y-53760809D01*
X107271956Y-53833602D01*
X107127162Y-53938802D01*
X107007408Y-54071804D01*
X106917923Y-54226796D01*
X106917920Y-54226802D01*
X106862619Y-54397004D01*
X106862618Y-54397006D01*
X106843910Y-54575000D01*
X104541144Y-54575000D01*
X104492591Y-54490903D01*
X104372836Y-54357901D01*
X104312138Y-54313801D01*
X104228043Y-54252702D01*
X104064544Y-54179909D01*
X103936738Y-54152743D01*
X103889486Y-54142700D01*
X103710514Y-54142700D01*
X103673305Y-54150608D01*
X103535455Y-54179909D01*
X103535454Y-54179909D01*
X103371954Y-54252703D01*
X103366329Y-54255952D01*
X103365571Y-54254639D01*
X103307065Y-54275508D01*
X103239013Y-54259675D01*
X103229238Y-54253392D01*
X103228045Y-54252703D01*
X103064544Y-54179909D01*
X102936738Y-54152743D01*
X102889486Y-54142700D01*
X102710514Y-54142700D01*
X102673305Y-54150608D01*
X102535455Y-54179909D01*
X102535454Y-54179909D01*
X102371956Y-54252702D01*
X102227162Y-54357902D01*
X102107408Y-54490904D01*
X102017923Y-54645896D01*
X102017920Y-54645902D01*
X101962619Y-54816104D01*
X101962618Y-54816106D01*
X101943910Y-54994100D01*
X94103502Y-54994100D01*
X94064246Y-54980364D01*
X93900004Y-54961859D01*
X93899996Y-54961859D01*
X93735753Y-54980364D01*
X93579731Y-55034958D01*
X93439776Y-55122898D01*
X93405241Y-55157433D01*
X93343918Y-55190918D01*
X93274226Y-55185932D01*
X93218293Y-55144060D01*
X93193877Y-55078595D01*
X93208730Y-55010323D01*
X93212558Y-55003793D01*
X93265042Y-54920267D01*
X93319634Y-54764252D01*
X93319904Y-54761859D01*
X93338141Y-54600003D01*
X93338141Y-54599996D01*
X93319635Y-54435753D01*
X93319634Y-54435751D01*
X93319634Y-54435748D01*
X93265042Y-54279733D01*
X93250099Y-54255952D01*
X93206319Y-54186276D01*
X93193560Y-54165970D01*
X93174561Y-54098736D01*
X93193561Y-54034028D01*
X93214941Y-54000003D01*
X93265042Y-53920267D01*
X93319634Y-53764252D01*
X93319979Y-53761189D01*
X93338141Y-53600003D01*
X93338141Y-53599996D01*
X93319635Y-53435753D01*
X93319634Y-53435751D01*
X93319634Y-53435748D01*
X93265042Y-53279733D01*
X93258167Y-53268792D01*
X93184405Y-53151400D01*
X93177102Y-53139777D01*
X93060223Y-53022898D01*
X93014582Y-52994220D01*
X92920268Y-52934958D01*
X92764246Y-52880364D01*
X92600004Y-52861859D01*
X92599996Y-52861859D01*
X92435753Y-52880364D01*
X92279731Y-52934958D01*
X92139776Y-53022898D01*
X92022898Y-53139776D01*
X91934958Y-53279731D01*
X91880364Y-53435753D01*
X91861859Y-53599996D01*
X91861859Y-53600003D01*
X91880364Y-53764246D01*
X91934958Y-53920268D01*
X92006438Y-54034028D01*
X92025438Y-54101265D01*
X92006438Y-54165972D01*
X91934958Y-54279731D01*
X91880364Y-54435753D01*
X91861859Y-54599996D01*
X91861859Y-54600003D01*
X91472132Y-54600003D01*
X91519634Y-54464252D01*
X91519634Y-54464250D01*
X91519635Y-54464248D01*
X91538141Y-54300003D01*
X91538141Y-54299996D01*
X91519635Y-54135753D01*
X91519634Y-54135751D01*
X91519634Y-54135748D01*
X91465042Y-53979733D01*
X91464267Y-53978500D01*
X91414944Y-53900003D01*
X91377102Y-53839777D01*
X91260223Y-53722898D01*
X91192534Y-53680366D01*
X91120268Y-53634958D01*
X90964246Y-53580364D01*
X90800004Y-53561859D01*
X90799996Y-53561859D01*
X90635753Y-53580364D01*
X90479731Y-53634958D01*
X90339776Y-53722898D01*
X90222898Y-53839776D01*
X90134958Y-53979731D01*
X90080364Y-54135753D01*
X90061859Y-54299996D01*
X90061859Y-54300003D01*
X90080364Y-54464246D01*
X90080365Y-54464251D01*
X90080366Y-54464252D01*
X90085174Y-54477993D01*
X90131031Y-54609046D01*
X90134592Y-54678825D01*
X90131031Y-54690954D01*
X90080364Y-54835753D01*
X90061859Y-54999996D01*
X90061859Y-55000003D01*
X90080364Y-55164246D01*
X90134958Y-55320268D01*
X90208738Y-55437688D01*
X90222898Y-55460223D01*
X90274994Y-55512319D01*
X90308479Y-55573640D01*
X90303495Y-55643332D01*
X90274995Y-55687679D01*
X90222898Y-55739776D01*
X90134958Y-55879731D01*
X90080364Y-56035753D01*
X90061859Y-56199996D01*
X90061859Y-56200003D01*
X90080364Y-56364246D01*
X90080365Y-56364251D01*
X90080366Y-56364252D01*
X90093954Y-56403084D01*
X90134957Y-56520265D01*
X90143605Y-56534029D01*
X90162604Y-56601266D01*
X90143606Y-56665968D01*
X90134958Y-56679731D01*
X90080364Y-56835753D01*
X90061859Y-56999996D01*
X90061859Y-57000003D01*
X90080364Y-57164246D01*
X90134957Y-57320265D01*
X90143605Y-57334029D01*
X90162604Y-57401266D01*
X90143606Y-57465968D01*
X90134958Y-57479731D01*
X90080364Y-57635753D01*
X90061859Y-57799996D01*
X90061859Y-57800003D01*
X90080364Y-57964246D01*
X90134957Y-58120265D01*
X90143605Y-58134029D01*
X90162604Y-58201266D01*
X90143606Y-58265968D01*
X90134958Y-58279731D01*
X90080364Y-58435753D01*
X90061859Y-58599996D01*
X90061859Y-58600003D01*
X83326874Y-58600003D01*
X83319635Y-58535751D01*
X83319634Y-58535748D01*
X83268967Y-58390952D01*
X83265406Y-58321176D01*
X83268968Y-58309046D01*
X83319634Y-58164252D01*
X83319634Y-58164250D01*
X83319635Y-58164248D01*
X83338141Y-58000003D01*
X83338141Y-57999996D01*
X83319635Y-57835751D01*
X83294893Y-57765042D01*
X83268967Y-57690952D01*
X83265406Y-57621176D01*
X83268968Y-57609046D01*
X83319634Y-57464252D01*
X83319634Y-57464250D01*
X83319635Y-57464248D01*
X83338141Y-57300003D01*
X83338141Y-57299996D01*
X83319635Y-57135753D01*
X83319634Y-57135751D01*
X83319634Y-57135748D01*
X83265042Y-56979733D01*
X83237404Y-56935748D01*
X83221978Y-56911197D01*
X83177102Y-56839777D01*
X83060223Y-56722898D01*
X82992534Y-56680366D01*
X82920268Y-56634958D01*
X82764246Y-56580364D01*
X82600004Y-56561859D01*
X82599996Y-56561859D01*
X82435753Y-56580364D01*
X82279731Y-56634958D01*
X82139776Y-56722898D01*
X82022898Y-56839776D01*
X81934958Y-56979731D01*
X81880364Y-57135753D01*
X81861859Y-57299996D01*
X81861859Y-57300003D01*
X81880364Y-57464246D01*
X81880365Y-57464251D01*
X81880366Y-57464252D01*
X81880969Y-57465975D01*
X81931031Y-57609046D01*
X81934592Y-57678825D01*
X81931031Y-57690954D01*
X81880364Y-57835753D01*
X81861859Y-57999996D01*
X81861859Y-58000003D01*
X81880364Y-58164246D01*
X81931031Y-58309046D01*
X81934592Y-58378825D01*
X81931031Y-58390954D01*
X81880364Y-58535753D01*
X81861859Y-58699996D01*
X81861859Y-58700003D01*
X81880364Y-58864246D01*
X81880365Y-58864251D01*
X81880366Y-58864252D01*
X81885174Y-58877993D01*
X81934958Y-59020268D01*
X82022898Y-59160223D01*
X82081795Y-59219120D01*
X82115280Y-59280443D01*
X82111156Y-59347755D01*
X82080364Y-59435753D01*
X82061859Y-59599996D01*
X82061859Y-59600003D01*
X82080364Y-59764246D01*
X82080365Y-59764251D01*
X82080366Y-59764252D01*
X82085174Y-59777993D01*
X82134958Y-59920268D01*
X82183049Y-59996803D01*
X82207801Y-60036197D01*
X82223423Y-60061058D01*
X82242423Y-60128295D01*
X82222055Y-60195130D01*
X82184401Y-60232023D01*
X82039782Y-60322893D01*
X82039776Y-60322898D01*
X81922898Y-60439776D01*
X81834958Y-60579731D01*
X81780364Y-60735753D01*
X81761859Y-60899996D01*
X81761859Y-60900003D01*
X80196765Y-60900003D01*
X80227360Y-60860856D01*
X80233602Y-60856662D01*
X80360223Y-60777102D01*
X80477102Y-60660223D01*
X80565042Y-60520267D01*
X80619634Y-60364252D01*
X80619635Y-60364246D01*
X80638141Y-60200003D01*
X80638141Y-60199996D01*
X80619635Y-60035753D01*
X80619634Y-60035751D01*
X80619634Y-60035748D01*
X80565042Y-59879733D01*
X80477102Y-59739777D01*
X80360223Y-59622898D01*
X80323781Y-59600000D01*
X80259331Y-59559503D01*
X80213040Y-59507168D01*
X80202392Y-59438114D01*
X80230767Y-59374266D01*
X80289157Y-59335894D01*
X80339187Y-59331289D01*
X80399998Y-59338141D01*
X80400000Y-59338141D01*
X80400004Y-59338141D01*
X80564246Y-59319635D01*
X80564247Y-59319634D01*
X80564252Y-59319634D01*
X80720267Y-59265042D01*
X80860223Y-59177102D01*
X80977102Y-59060223D01*
X81065042Y-58920267D01*
X81119634Y-58764252D01*
X81121398Y-58748600D01*
X81138141Y-58600003D01*
X81138141Y-58599996D01*
X81119635Y-58435755D01*
X81119634Y-58435754D01*
X81119634Y-58435748D01*
X81065042Y-58279733D01*
X81065039Y-58279729D01*
X81062922Y-58273677D01*
X81059361Y-58203898D01*
X81092280Y-58145044D01*
X81177102Y-58060223D01*
X81265042Y-57920267D01*
X81319634Y-57764252D01*
X81329157Y-57679733D01*
X81338141Y-57600003D01*
X81338141Y-57599996D01*
X81319635Y-57435753D01*
X81319634Y-57435751D01*
X81319634Y-57435748D01*
X81265042Y-57279733D01*
X81237404Y-57235748D01*
X81229117Y-57222558D01*
X81177102Y-57139777D01*
X81060223Y-57022898D01*
X81023775Y-56999996D01*
X80920268Y-56934958D01*
X80764246Y-56880364D01*
X80600004Y-56861859D01*
X80599996Y-56861859D01*
X80435753Y-56880364D01*
X80279731Y-56934958D01*
X80139776Y-57022898D01*
X80022898Y-57139776D01*
X79934958Y-57279731D01*
X79880364Y-57435753D01*
X79861859Y-57599996D01*
X79861859Y-57600003D01*
X79880364Y-57764246D01*
X79880365Y-57764251D01*
X79880366Y-57764252D01*
X79892873Y-57799996D01*
X79937077Y-57926323D01*
X79940638Y-57996102D01*
X79907717Y-58054958D01*
X79822897Y-58139778D01*
X79734958Y-58279731D01*
X79680364Y-58435753D01*
X79661859Y-58599996D01*
X79661859Y-58600003D01*
X79680364Y-58764246D01*
X79680365Y-58764251D01*
X79680366Y-58764252D01*
X79692450Y-58798786D01*
X79734958Y-58920268D01*
X79799445Y-59022898D01*
X79822898Y-59060223D01*
X79939777Y-59177102D01*
X79976219Y-59200000D01*
X80040668Y-59240496D01*
X80086959Y-59292831D01*
X80097607Y-59361884D01*
X80069232Y-59425733D01*
X80010842Y-59464105D01*
X79960813Y-59468710D01*
X79900004Y-59461859D01*
X79899996Y-59461859D01*
X79735753Y-59480364D01*
X79579731Y-59534958D01*
X79439776Y-59622898D01*
X79322898Y-59739776D01*
X79234957Y-59879732D01*
X79234956Y-59879736D01*
X79197394Y-59987082D01*
X79156673Y-60043858D01*
X79091720Y-60069605D01*
X79066471Y-60069347D01*
X79000005Y-60061859D01*
X78999996Y-60061859D01*
X78835753Y-60080364D01*
X78679731Y-60134958D01*
X78539776Y-60222898D01*
X78422898Y-60339776D01*
X78334958Y-60479731D01*
X78280364Y-60635753D01*
X78261859Y-60799996D01*
X78261859Y-60800003D01*
X60800500Y-60800003D01*
X60800500Y-55500003D01*
X80061859Y-55500003D01*
X80080364Y-55664246D01*
X80134958Y-55820268D01*
X80172323Y-55879733D01*
X80222898Y-55960223D01*
X80339777Y-56077102D01*
X80422558Y-56129116D01*
X80472063Y-56160223D01*
X80479733Y-56165042D01*
X80635748Y-56219634D01*
X80635751Y-56219634D01*
X80635753Y-56219635D01*
X80799996Y-56238141D01*
X80800000Y-56238141D01*
X80800004Y-56238141D01*
X80964246Y-56219635D01*
X80964247Y-56219634D01*
X80964252Y-56219634D01*
X81120267Y-56165042D01*
X81260223Y-56077102D01*
X81377102Y-55960223D01*
X81465042Y-55820267D01*
X81519634Y-55664252D01*
X81519768Y-55663068D01*
X81532413Y-55550836D01*
X81559479Y-55486422D01*
X81608685Y-55452628D01*
X81599927Y-55447371D01*
X81691313Y-55447371D01*
X81746817Y-55480687D01*
X81777773Y-55543324D01*
X81778853Y-55550832D01*
X81780364Y-55564247D01*
X81834958Y-55720268D01*
X81913647Y-55845500D01*
X81922898Y-55860223D01*
X82039777Y-55977102D01*
X82179733Y-56065042D01*
X82335748Y-56119634D01*
X82335751Y-56119634D01*
X82335753Y-56119635D01*
X82499996Y-56138141D01*
X82500000Y-56138141D01*
X82500004Y-56138141D01*
X82664246Y-56119635D01*
X82664247Y-56119634D01*
X82664252Y-56119634D01*
X82820267Y-56065042D01*
X82960223Y-55977102D01*
X83077102Y-55860223D01*
X83165042Y-55720267D01*
X83219634Y-55564252D01*
X83222846Y-55535748D01*
X83238141Y-55400003D01*
X83238141Y-55399996D01*
X83219635Y-55235753D01*
X83219634Y-55235751D01*
X83219634Y-55235748D01*
X83165042Y-55079733D01*
X83155810Y-55065041D01*
X83114944Y-55000003D01*
X83077102Y-54939777D01*
X82984834Y-54847509D01*
X82951349Y-54786186D01*
X82956333Y-54716494D01*
X82998205Y-54660561D01*
X83063669Y-54636144D01*
X83086392Y-54636607D01*
X83100000Y-54638141D01*
X83239248Y-54622451D01*
X83264244Y-54619635D01*
X83264244Y-54619634D01*
X83264252Y-54619634D01*
X83420267Y-54565042D01*
X83420272Y-54565038D01*
X83420274Y-54565038D01*
X83426540Y-54562021D01*
X83427451Y-54563914D01*
X83484877Y-54547672D01*
X83551717Y-54568023D01*
X83588636Y-54605695D01*
X83622895Y-54660220D01*
X83622898Y-54660223D01*
X83739777Y-54777102D01*
X83812661Y-54822898D01*
X83872063Y-54860223D01*
X83879733Y-54865042D01*
X84035748Y-54919634D01*
X84035751Y-54919634D01*
X84035753Y-54919635D01*
X84199996Y-54938141D01*
X84200000Y-54938141D01*
X84200004Y-54938141D01*
X84364248Y-54919635D01*
X84364250Y-54919634D01*
X84364252Y-54919634D01*
X84509047Y-54868967D01*
X84578822Y-54865405D01*
X84590946Y-54868965D01*
X84735748Y-54919634D01*
X84735751Y-54919635D01*
X84899996Y-54938141D01*
X84900000Y-54938141D01*
X84900004Y-54938141D01*
X85064246Y-54919635D01*
X85064247Y-54919634D01*
X85064252Y-54919634D01*
X85220267Y-54865042D01*
X85360223Y-54777102D01*
X85377291Y-54760033D01*
X85438614Y-54726546D01*
X85478859Y-54724492D01*
X85599997Y-54738141D01*
X85600000Y-54738141D01*
X85600004Y-54738141D01*
X85764246Y-54719635D01*
X85764247Y-54719634D01*
X85764252Y-54719634D01*
X85920267Y-54665042D01*
X85984026Y-54624979D01*
X86051264Y-54605978D01*
X86115973Y-54624979D01*
X86172601Y-54660561D01*
X86179733Y-54665042D01*
X86335748Y-54719634D01*
X86335751Y-54719634D01*
X86335753Y-54719635D01*
X86499996Y-54738141D01*
X86500000Y-54738141D01*
X86500004Y-54738141D01*
X86664246Y-54719635D01*
X86664247Y-54719634D01*
X86664252Y-54719634D01*
X86820267Y-54665042D01*
X86960223Y-54577102D01*
X87077102Y-54460223D01*
X87165042Y-54320267D01*
X87219634Y-54164252D01*
X87219971Y-54161262D01*
X87238141Y-54000003D01*
X87238141Y-53999996D01*
X87219635Y-53835753D01*
X87219634Y-53835751D01*
X87219634Y-53835748D01*
X87165042Y-53679733D01*
X87077102Y-53539777D01*
X86960223Y-53422898D01*
X86949999Y-53416474D01*
X86820268Y-53334958D01*
X86664246Y-53280364D01*
X86500004Y-53261859D01*
X86499996Y-53261859D01*
X86335753Y-53280364D01*
X86179731Y-53334958D01*
X86115971Y-53375021D01*
X86048734Y-53394021D01*
X85984029Y-53375021D01*
X85920268Y-53334958D01*
X85764246Y-53280364D01*
X85600004Y-53261859D01*
X85599996Y-53261859D01*
X85435753Y-53280364D01*
X85279731Y-53334958D01*
X85139773Y-53422900D01*
X85139771Y-53422902D01*
X85122700Y-53439972D01*
X85061376Y-53473454D01*
X85021140Y-53475507D01*
X84900004Y-53461859D01*
X84899996Y-53461859D01*
X84735752Y-53480364D01*
X84590952Y-53531031D01*
X84521174Y-53534592D01*
X84509045Y-53531031D01*
X84379807Y-53485809D01*
X84364252Y-53480366D01*
X84364251Y-53480365D01*
X84364246Y-53480364D01*
X84200004Y-53461859D01*
X84199996Y-53461859D01*
X84035753Y-53480364D01*
X83879728Y-53534959D01*
X83873461Y-53537978D01*
X83872553Y-53536094D01*
X83815061Y-53552325D01*
X83748231Y-53531941D01*
X83711364Y-53494305D01*
X83677102Y-53439777D01*
X83560223Y-53322898D01*
X83492534Y-53280366D01*
X83420268Y-53234958D01*
X83264246Y-53180364D01*
X83100004Y-53161859D01*
X83099996Y-53161859D01*
X82935753Y-53180364D01*
X82779731Y-53234958D01*
X82639776Y-53322898D01*
X82522898Y-53439776D01*
X82434958Y-53579731D01*
X82380364Y-53735753D01*
X82361859Y-53899996D01*
X82361859Y-53900003D01*
X82380364Y-54064246D01*
X82380365Y-54064251D01*
X82380366Y-54064252D01*
X82387910Y-54085811D01*
X82434958Y-54220268D01*
X82522898Y-54360223D01*
X82615165Y-54452490D01*
X82648650Y-54513813D01*
X82643666Y-54583505D01*
X82601794Y-54639438D01*
X82536330Y-54663855D01*
X82513601Y-54663391D01*
X82500004Y-54661859D01*
X82499996Y-54661859D01*
X82335753Y-54680364D01*
X82179731Y-54734958D01*
X82039776Y-54822898D01*
X81922898Y-54939776D01*
X81834958Y-55079731D01*
X81780364Y-55235753D01*
X81767586Y-55349164D01*
X81740519Y-55413578D01*
X81691313Y-55447371D01*
X81599927Y-55447371D01*
X81553181Y-55419312D01*
X81522225Y-55356674D01*
X81521146Y-55349175D01*
X81519634Y-55335748D01*
X81465042Y-55179733D01*
X81460241Y-55172093D01*
X81401243Y-55078197D01*
X81377102Y-55039777D01*
X81260223Y-54922898D01*
X81174394Y-54868968D01*
X81120268Y-54834958D01*
X80998786Y-54792450D01*
X80964252Y-54780366D01*
X80964251Y-54780365D01*
X80964246Y-54780364D01*
X80800004Y-54761859D01*
X80799996Y-54761859D01*
X80635753Y-54780364D01*
X80479731Y-54834958D01*
X80339776Y-54922898D01*
X80222898Y-55039776D01*
X80134958Y-55179731D01*
X80080364Y-55335753D01*
X80061859Y-55499996D01*
X80061859Y-55500003D01*
X60800500Y-55500003D01*
X60800500Y-54400003D01*
X70461859Y-54400003D01*
X70480364Y-54564246D01*
X70480365Y-54564251D01*
X70480366Y-54564252D01*
X70481686Y-54568023D01*
X70534958Y-54720268D01*
X70614187Y-54846359D01*
X70622898Y-54860223D01*
X70739777Y-54977102D01*
X70776213Y-54999996D01*
X70872063Y-55060223D01*
X70879733Y-55065042D01*
X71035748Y-55119634D01*
X71035751Y-55119634D01*
X71035753Y-55119635D01*
X71199996Y-55138141D01*
X71200000Y-55138141D01*
X71200004Y-55138141D01*
X71364246Y-55119635D01*
X71364247Y-55119634D01*
X71364252Y-55119634D01*
X71520267Y-55065042D01*
X71660223Y-54977102D01*
X71777102Y-54860223D01*
X71865042Y-54720267D01*
X71919634Y-54564252D01*
X71919672Y-54563914D01*
X71938141Y-54400003D01*
X71938141Y-54399996D01*
X71919635Y-54235753D01*
X71919634Y-54235751D01*
X71919634Y-54235748D01*
X71865042Y-54079733D01*
X71777102Y-53939777D01*
X71660223Y-53822898D01*
X71618693Y-53796803D01*
X71520268Y-53734958D01*
X71364246Y-53680364D01*
X71200004Y-53661859D01*
X71199996Y-53661859D01*
X71035753Y-53680364D01*
X70879731Y-53734958D01*
X70739776Y-53822898D01*
X70622898Y-53939776D01*
X70534958Y-54079731D01*
X70480364Y-54235753D01*
X70461859Y-54399996D01*
X70461859Y-54400003D01*
X60800500Y-54400003D01*
X60800500Y-52600003D01*
X66961859Y-52600003D01*
X66980364Y-52764246D01*
X66980365Y-52764251D01*
X66980366Y-52764252D01*
X66989236Y-52789601D01*
X67034958Y-52920268D01*
X67117788Y-53052090D01*
X67122898Y-53060223D01*
X67239777Y-53177102D01*
X67379733Y-53265042D01*
X67535748Y-53319634D01*
X67535751Y-53319634D01*
X67535753Y-53319635D01*
X67699996Y-53338141D01*
X67700000Y-53338141D01*
X67700004Y-53338141D01*
X67864246Y-53319635D01*
X67864247Y-53319634D01*
X67864252Y-53319634D01*
X68020267Y-53265042D01*
X68160223Y-53177102D01*
X68212319Y-53125005D01*
X68273642Y-53091521D01*
X68343334Y-53096505D01*
X68387681Y-53125005D01*
X68439777Y-53177102D01*
X68579733Y-53265042D01*
X68735748Y-53319634D01*
X68735751Y-53319634D01*
X68735753Y-53319635D01*
X68899996Y-53338141D01*
X68900000Y-53338141D01*
X68900004Y-53338141D01*
X69064246Y-53319635D01*
X69064247Y-53319634D01*
X69064252Y-53319634D01*
X69220267Y-53265042D01*
X69360223Y-53177102D01*
X69477102Y-53060223D01*
X69565042Y-52920267D01*
X69619634Y-52764252D01*
X69622243Y-52741097D01*
X69638141Y-52600003D01*
X70961859Y-52600003D01*
X70980364Y-52764246D01*
X70980365Y-52764251D01*
X70980366Y-52764252D01*
X70989236Y-52789601D01*
X71034958Y-52920268D01*
X71117788Y-53052090D01*
X71122898Y-53060223D01*
X71239777Y-53177102D01*
X71379733Y-53265042D01*
X71535748Y-53319634D01*
X71535751Y-53319634D01*
X71535753Y-53319635D01*
X71699996Y-53338141D01*
X71700000Y-53338141D01*
X71700004Y-53338141D01*
X71864246Y-53319635D01*
X71864247Y-53319634D01*
X71864252Y-53319634D01*
X72020267Y-53265042D01*
X72160223Y-53177102D01*
X72277102Y-53060223D01*
X72365042Y-52920267D01*
X72419634Y-52764252D01*
X72422243Y-52741097D01*
X72438141Y-52600003D01*
X72438141Y-52599996D01*
X72419635Y-52435753D01*
X72419634Y-52435751D01*
X72419634Y-52435748D01*
X72365042Y-52279733D01*
X72363947Y-52277991D01*
X72328378Y-52221382D01*
X72277102Y-52139777D01*
X72160223Y-52022898D01*
X72105479Y-51988500D01*
X72020268Y-51934958D01*
X71864246Y-51880364D01*
X71700004Y-51861859D01*
X71699996Y-51861859D01*
X71535753Y-51880364D01*
X71379731Y-51934958D01*
X71239776Y-52022898D01*
X71122898Y-52139776D01*
X71034958Y-52279731D01*
X70980364Y-52435753D01*
X70961859Y-52599996D01*
X70961859Y-52600003D01*
X69638141Y-52600003D01*
X69638141Y-52599996D01*
X69619635Y-52435753D01*
X69619634Y-52435751D01*
X69619634Y-52435748D01*
X69565042Y-52279733D01*
X69563947Y-52277991D01*
X69528378Y-52221382D01*
X69477102Y-52139777D01*
X69360223Y-52022898D01*
X69305479Y-51988500D01*
X69220268Y-51934958D01*
X69064246Y-51880364D01*
X68900004Y-51861859D01*
X68899996Y-51861859D01*
X68735753Y-51880364D01*
X68579731Y-51934958D01*
X68439776Y-52022898D01*
X68387681Y-52074994D01*
X68326358Y-52108479D01*
X68256666Y-52103495D01*
X68212319Y-52074994D01*
X68160223Y-52022898D01*
X68020268Y-51934958D01*
X67864246Y-51880364D01*
X67700004Y-51861859D01*
X67699996Y-51861859D01*
X67535753Y-51880364D01*
X67379731Y-51934958D01*
X67239776Y-52022898D01*
X67122898Y-52139776D01*
X67034958Y-52279731D01*
X66980364Y-52435753D01*
X66961859Y-52599996D01*
X66961859Y-52600003D01*
X60800500Y-52600003D01*
X60800500Y-51100003D01*
X77861859Y-51100003D01*
X77880364Y-51264246D01*
X77880365Y-51264251D01*
X77880366Y-51264252D01*
X77892450Y-51298786D01*
X77934958Y-51420268D01*
X78008730Y-51537675D01*
X78022898Y-51560223D01*
X78139777Y-51677102D01*
X78222558Y-51729117D01*
X78266254Y-51756573D01*
X78279733Y-51765042D01*
X78391691Y-51804217D01*
X78448466Y-51844939D01*
X78473956Y-51907374D01*
X78480364Y-51964246D01*
X78534958Y-52120268D01*
X78610176Y-52239976D01*
X78622898Y-52260223D01*
X78739777Y-52377102D01*
X78822558Y-52429117D01*
X78872063Y-52460223D01*
X78879733Y-52465042D01*
X79035748Y-52519634D01*
X79035751Y-52519634D01*
X79035753Y-52519635D01*
X79199996Y-52538141D01*
X79200000Y-52538141D01*
X79200004Y-52538141D01*
X79364246Y-52519635D01*
X79364247Y-52519634D01*
X79364252Y-52519634D01*
X79520267Y-52465042D01*
X79660223Y-52377102D01*
X79777102Y-52260223D01*
X79865042Y-52120267D01*
X79907124Y-52000003D01*
X85711859Y-52000003D01*
X85730364Y-52164246D01*
X85784958Y-52320268D01*
X85865340Y-52448194D01*
X85872898Y-52460223D01*
X85989777Y-52577102D01*
X86129733Y-52665042D01*
X86285748Y-52719634D01*
X86285751Y-52719634D01*
X86285753Y-52719635D01*
X86449996Y-52738141D01*
X86450000Y-52738141D01*
X86450004Y-52738141D01*
X86614248Y-52719635D01*
X86614250Y-52719634D01*
X86614252Y-52719634D01*
X86649874Y-52707168D01*
X86719652Y-52703606D01*
X86756800Y-52719216D01*
X86829731Y-52765041D01*
X86829733Y-52765042D01*
X86985748Y-52819634D01*
X86985751Y-52819634D01*
X86985753Y-52819635D01*
X87149996Y-52838141D01*
X87150000Y-52838141D01*
X87150004Y-52838141D01*
X87314246Y-52819635D01*
X87314247Y-52819634D01*
X87314252Y-52819634D01*
X87470267Y-52765042D01*
X87559028Y-52709269D01*
X87626264Y-52690269D01*
X87690971Y-52709269D01*
X87779733Y-52765042D01*
X87935748Y-52819634D01*
X87935751Y-52819634D01*
X87935753Y-52819635D01*
X88099996Y-52838141D01*
X88100000Y-52838141D01*
X88100004Y-52838141D01*
X88264246Y-52819635D01*
X88264247Y-52819634D01*
X88264252Y-52819634D01*
X88420267Y-52765042D01*
X88560223Y-52677102D01*
X88677102Y-52560223D01*
X88765042Y-52420267D01*
X88819634Y-52264252D01*
X88821411Y-52248480D01*
X88825465Y-52212503D01*
X101161859Y-52212503D01*
X101180364Y-52376746D01*
X101180365Y-52376751D01*
X101180366Y-52376752D01*
X101186971Y-52395628D01*
X101234958Y-52532768D01*
X101318071Y-52665041D01*
X101322898Y-52672723D01*
X101439777Y-52789602D01*
X101517027Y-52838141D01*
X101554773Y-52861859D01*
X101579733Y-52877542D01*
X101735748Y-52932134D01*
X101735751Y-52932134D01*
X101735753Y-52932135D01*
X101899996Y-52950641D01*
X101900000Y-52950641D01*
X101900004Y-52950641D01*
X102064246Y-52932135D01*
X102064247Y-52932134D01*
X102064252Y-52932134D01*
X102220267Y-52877542D01*
X102360223Y-52789602D01*
X102477102Y-52672723D01*
X102565042Y-52532767D01*
X102619634Y-52376752D01*
X102619635Y-52376746D01*
X102635279Y-52237900D01*
X103056410Y-52237900D01*
X103075118Y-52415893D01*
X103075119Y-52415895D01*
X103130420Y-52586097D01*
X103130423Y-52586103D01*
X103219909Y-52741097D01*
X103339664Y-52874099D01*
X103425137Y-52936199D01*
X103484456Y-52979297D01*
X103562521Y-53014053D01*
X103647954Y-53052090D01*
X103823014Y-53089300D01*
X103823015Y-53089300D01*
X104001984Y-53089300D01*
X104001986Y-53089300D01*
X104177046Y-53052090D01*
X104241622Y-53023338D01*
X104310869Y-53014053D01*
X104364942Y-53036300D01*
X104371955Y-53041396D01*
X104535454Y-53114190D01*
X104710514Y-53151400D01*
X104710515Y-53151400D01*
X104889484Y-53151400D01*
X104889486Y-53151400D01*
X105064546Y-53114190D01*
X105228045Y-53041396D01*
X105372836Y-52936199D01*
X105492591Y-52803197D01*
X105582077Y-52648203D01*
X105637382Y-52477991D01*
X105656090Y-52300000D01*
X105637382Y-52122009D01*
X105630231Y-52099999D01*
X108843910Y-52099999D01*
X108862618Y-52277993D01*
X108862619Y-52277995D01*
X108917920Y-52448197D01*
X108917923Y-52448203D01*
X109007409Y-52603197D01*
X109070010Y-52672723D01*
X109111872Y-52719216D01*
X109127164Y-52736199D01*
X109200667Y-52789602D01*
X109271956Y-52841397D01*
X109353138Y-52877541D01*
X109435454Y-52914190D01*
X109610514Y-52951400D01*
X109610515Y-52951400D01*
X109789484Y-52951400D01*
X109789486Y-52951400D01*
X109964546Y-52914190D01*
X110128045Y-52841396D01*
X110272836Y-52736199D01*
X110392591Y-52603197D01*
X110482077Y-52448203D01*
X110532069Y-52294340D01*
X110571504Y-52236667D01*
X110635863Y-52209468D01*
X110704709Y-52221382D01*
X110756186Y-52268626D01*
X110767930Y-52294342D01*
X110817920Y-52448196D01*
X110817923Y-52448203D01*
X110907409Y-52603197D01*
X110970010Y-52672723D01*
X111011872Y-52719216D01*
X111027164Y-52736199D01*
X111100667Y-52789602D01*
X111171956Y-52841397D01*
X111253138Y-52877541D01*
X111335454Y-52914190D01*
X111510514Y-52951400D01*
X111510515Y-52951400D01*
X111689484Y-52951400D01*
X111689486Y-52951400D01*
X111864546Y-52914190D01*
X112028045Y-52841396D01*
X112172836Y-52736199D01*
X112292591Y-52603197D01*
X112382077Y-52448203D01*
X112428231Y-52306154D01*
X112467667Y-52248480D01*
X112520376Y-52223184D01*
X112565046Y-52213690D01*
X112728545Y-52140896D01*
X112873336Y-52035699D01*
X112993091Y-51902697D01*
X113082577Y-51747703D01*
X113137882Y-51577491D01*
X113156590Y-51399500D01*
X113137882Y-51221509D01*
X113109760Y-51134958D01*
X113082579Y-51051302D01*
X113082576Y-51051296D01*
X112993091Y-50896303D01*
X112873336Y-50763301D01*
X112825072Y-50728235D01*
X112728543Y-50658102D01*
X112565044Y-50585309D01*
X112437238Y-50558143D01*
X112389986Y-50548100D01*
X112211014Y-50548100D01*
X112173804Y-50556008D01*
X112035955Y-50585309D01*
X112035954Y-50585309D01*
X111872456Y-50658102D01*
X111727662Y-50763302D01*
X111607908Y-50896304D01*
X111518423Y-51051296D01*
X111518420Y-51051303D01*
X111472269Y-51193343D01*
X111432831Y-51251019D01*
X111380121Y-51276315D01*
X111335453Y-51285810D01*
X111171956Y-51358602D01*
X111027162Y-51463802D01*
X110907408Y-51596804D01*
X110817923Y-51751796D01*
X110817920Y-51751803D01*
X110767930Y-51905657D01*
X110728492Y-51963333D01*
X110664134Y-51990531D01*
X110595287Y-51978616D01*
X110543812Y-51931372D01*
X110532070Y-51905660D01*
X110492129Y-51782734D01*
X110482080Y-51751805D01*
X110482078Y-51751801D01*
X110482077Y-51751797D01*
X110392591Y-51596803D01*
X110272836Y-51463801D01*
X110198560Y-51409836D01*
X110128043Y-51358602D01*
X109964544Y-51285809D01*
X109836738Y-51258643D01*
X109789486Y-51248600D01*
X109610514Y-51248600D01*
X109573304Y-51256508D01*
X109435455Y-51285809D01*
X109435454Y-51285809D01*
X109271956Y-51358602D01*
X109127162Y-51463802D01*
X109007408Y-51596804D01*
X108917923Y-51751796D01*
X108917920Y-51751802D01*
X108862619Y-51922004D01*
X108862618Y-51922006D01*
X108843910Y-52099999D01*
X105630231Y-52099999D01*
X105597738Y-51999996D01*
X105582079Y-51951802D01*
X105582076Y-51951796D01*
X105492591Y-51796803D01*
X105372836Y-51663801D01*
X105308554Y-51617097D01*
X105228043Y-51558602D01*
X105064544Y-51485809D01*
X104936738Y-51458643D01*
X104889486Y-51448600D01*
X104710514Y-51448600D01*
X104673305Y-51456508D01*
X104535455Y-51485809D01*
X104535446Y-51485812D01*
X104470876Y-51514560D01*
X104401626Y-51523844D01*
X104347561Y-51501601D01*
X104340544Y-51496503D01*
X104177044Y-51423709D01*
X104031771Y-51392831D01*
X104001986Y-51386500D01*
X103823014Y-51386500D01*
X103793229Y-51392831D01*
X103647955Y-51423709D01*
X103647954Y-51423709D01*
X103484456Y-51496502D01*
X103339662Y-51601702D01*
X103219908Y-51734704D01*
X103130423Y-51889696D01*
X103130420Y-51889702D01*
X103075119Y-52059904D01*
X103075118Y-52059906D01*
X103056410Y-52237900D01*
X102635279Y-52237900D01*
X102638141Y-52212503D01*
X102638141Y-52212496D01*
X102619635Y-52048253D01*
X102619634Y-52048251D01*
X102619634Y-52048248D01*
X102565042Y-51892233D01*
X102557585Y-51880366D01*
X102496232Y-51782723D01*
X102477102Y-51752277D01*
X102360223Y-51635398D01*
X102306596Y-51601702D01*
X102220268Y-51547458D01*
X102064246Y-51492864D01*
X101900004Y-51474359D01*
X101899996Y-51474359D01*
X101735753Y-51492864D01*
X101579731Y-51547458D01*
X101439776Y-51635398D01*
X101322898Y-51752276D01*
X101234958Y-51892231D01*
X101180364Y-52048253D01*
X101161859Y-52212496D01*
X101161859Y-52212503D01*
X88825465Y-52212503D01*
X88838141Y-52100003D01*
X88838141Y-52099996D01*
X88819635Y-51935753D01*
X88819634Y-51935751D01*
X88819634Y-51935748D01*
X88765042Y-51779733D01*
X88755810Y-51765041D01*
X88677101Y-51639776D01*
X88560223Y-51522898D01*
X88420268Y-51434958D01*
X88281782Y-51386500D01*
X88264252Y-51380366D01*
X88264251Y-51380365D01*
X88264246Y-51380364D01*
X88100004Y-51361859D01*
X88099996Y-51361859D01*
X87935753Y-51380364D01*
X87779731Y-51434958D01*
X87690972Y-51490730D01*
X87623735Y-51509730D01*
X87559028Y-51490730D01*
X87470267Y-51434958D01*
X87470268Y-51434958D01*
X87331782Y-51386500D01*
X87314252Y-51380366D01*
X87314251Y-51380365D01*
X87314246Y-51380364D01*
X87150004Y-51361859D01*
X87149997Y-51361859D01*
X86985748Y-51380365D01*
X86950122Y-51392831D01*
X86880343Y-51396392D01*
X86843199Y-51380784D01*
X86800899Y-51354205D01*
X86770266Y-51334957D01*
X86614246Y-51280364D01*
X86450004Y-51261859D01*
X86449996Y-51261859D01*
X86285753Y-51280364D01*
X86129731Y-51334958D01*
X85989776Y-51422898D01*
X85872898Y-51539776D01*
X85784958Y-51679731D01*
X85730364Y-51835753D01*
X85711859Y-51999996D01*
X85711859Y-52000003D01*
X79907124Y-52000003D01*
X79919634Y-51964252D01*
X79921037Y-51951802D01*
X79938141Y-51800003D01*
X79938141Y-51799996D01*
X79919635Y-51635753D01*
X79919634Y-51635751D01*
X79919634Y-51635748D01*
X79865042Y-51479733D01*
X79864463Y-51478812D01*
X79797134Y-51371658D01*
X79777102Y-51339777D01*
X79660223Y-51222898D01*
X79657500Y-51221187D01*
X79520268Y-51134958D01*
X79408308Y-51095782D01*
X79351531Y-51055060D01*
X79326042Y-50992625D01*
X79319634Y-50935748D01*
X79319633Y-50935744D01*
X79319632Y-50935740D01*
X79265043Y-50779736D01*
X79265042Y-50779732D01*
X79209785Y-50691791D01*
X79177102Y-50639777D01*
X79060223Y-50522898D01*
X79013198Y-50493350D01*
X78920268Y-50434958D01*
X78764246Y-50380364D01*
X78600004Y-50361859D01*
X78599996Y-50361859D01*
X78435753Y-50380364D01*
X78279731Y-50434958D01*
X78139776Y-50522898D01*
X78022898Y-50639776D01*
X77934958Y-50779731D01*
X77880364Y-50935753D01*
X77861859Y-51099996D01*
X77861859Y-51100003D01*
X60800500Y-51100003D01*
X60800500Y-45002704D01*
X60802595Y-44885164D01*
X60803217Y-44877450D01*
X60808324Y-44841934D01*
X60836331Y-44647136D01*
X60840091Y-44629853D01*
X60867120Y-44537803D01*
X60903482Y-44413963D01*
X60909664Y-44397392D01*
X60926088Y-44361430D01*
X61003133Y-44192722D01*
X61011606Y-44177204D01*
X61133254Y-43987916D01*
X61143848Y-43973763D01*
X61291205Y-43803704D01*
X61303704Y-43791205D01*
X61473770Y-43643842D01*
X61487896Y-43633267D01*
X61677213Y-43511600D01*
X61692713Y-43503137D01*
X61897410Y-43409655D01*
X61913963Y-43403481D01*
X62129857Y-43340090D01*
X62147129Y-43336332D01*
X62377457Y-43303216D01*
X62385168Y-43302595D01*
X62499845Y-43300550D01*
X62502697Y-43300500D01*
X118497296Y-43300500D01*
X118614833Y-43302595D01*
G37*
G04 #@! TD.AperFunction*
M02*
