G04 #@! TF.GenerationSoftware,KiCad,Pcbnew,7.0.6-7.0.6~ubuntu22.04.1*
G04 #@! TF.CreationDate,2023-07-20T16:44:22-04:00*
G04 #@! TF.ProjectId,f1c_linux,6631635f-6c69-46e7-9578-2e6b69636164,1*
G04 #@! TF.SameCoordinates,Original*
G04 #@! TF.FileFunction,Copper,L4,Bot*
G04 #@! TF.FilePolarity,Positive*
%FSLAX46Y46*%
G04 Gerber Fmt 4.6, Leading zero omitted, Abs format (unit mm)*
G04 Created by KiCad (PCBNEW 7.0.6-7.0.6~ubuntu22.04.1) date 2023-07-20 16:44:22*
%MOMM*%
%LPD*%
G01*
G04 APERTURE LIST*
G04 #@! TA.AperFunction,SMDPad,CuDef*
%ADD10C,2.000000*%
G04 #@! TD*
G04 #@! TA.AperFunction,ComponentPad*
%ADD11R,1.700000X1.700000*%
G04 #@! TD*
G04 #@! TA.AperFunction,ComponentPad*
%ADD12O,1.700000X1.700000*%
G04 #@! TD*
G04 #@! TA.AperFunction,ComponentPad*
%ADD13O,1.000000X2.100000*%
G04 #@! TD*
G04 #@! TA.AperFunction,ComponentPad*
%ADD14O,1.000000X1.800000*%
G04 #@! TD*
G04 #@! TA.AperFunction,ViaPad*
%ADD15C,0.450000*%
G04 #@! TD*
G04 #@! TA.AperFunction,ViaPad*
%ADD16C,0.685800*%
G04 #@! TD*
G04 #@! TA.AperFunction,ViaPad*
%ADD17C,0.350000*%
G04 #@! TD*
G04 #@! TA.AperFunction,Conductor*
%ADD18C,0.127000*%
G04 #@! TD*
G04 #@! TA.AperFunction,Conductor*
%ADD19C,0.254000*%
G04 #@! TD*
G04 APERTURE END LIST*
D10*
X90900000Y-65400000D03*
X104200000Y-65200000D03*
X95200000Y-65400000D03*
X99500000Y-65300000D03*
D11*
X118425000Y-45000000D03*
D12*
X118425000Y-47540000D03*
X115885000Y-45000000D03*
X115885000Y-47540000D03*
X113345000Y-45000000D03*
X113345000Y-47540000D03*
X110805000Y-45000000D03*
X110805000Y-47540000D03*
X108265000Y-45000000D03*
X108265000Y-47540000D03*
X105725000Y-45000000D03*
X105725000Y-47540000D03*
X103185000Y-45000000D03*
X103185000Y-47540000D03*
X100645000Y-45000000D03*
X100645000Y-47540000D03*
X98105000Y-45000000D03*
X98105000Y-47540000D03*
X95565000Y-45000000D03*
X95565000Y-47540000D03*
X93025000Y-45000000D03*
X93025000Y-47540000D03*
X90485000Y-45000000D03*
X90485000Y-47540000D03*
X87945000Y-45000000D03*
X87945000Y-47540000D03*
X85405000Y-45000000D03*
X85405000Y-47540000D03*
X82865000Y-45000000D03*
X82865000Y-47540000D03*
X80325000Y-45000000D03*
X80325000Y-47540000D03*
X77785000Y-45000000D03*
X77785000Y-47540000D03*
X75245000Y-45000000D03*
X75245000Y-47540000D03*
X72705000Y-45000000D03*
X72705000Y-47540000D03*
X70165000Y-45000000D03*
X70165000Y-47540000D03*
X67625000Y-45000000D03*
X67625000Y-47540000D03*
X65085000Y-45000000D03*
X65085000Y-47540000D03*
X62545000Y-45000000D03*
X62545000Y-47540000D03*
D11*
X115885000Y-50080000D03*
D12*
X118425000Y-50080000D03*
X115885000Y-52620000D03*
X118425000Y-52620000D03*
D13*
X108880000Y-61410000D03*
D14*
X108880000Y-65610000D03*
D13*
X117520000Y-61410000D03*
D14*
X117520000Y-65610000D03*
D15*
X93700000Y-63400000D03*
X90437500Y-62100000D03*
D16*
X102800000Y-54994100D03*
X111100000Y-59244300D03*
X103800000Y-54994100D03*
X104300000Y-59400000D03*
X98500000Y-61800000D03*
X115600000Y-59200000D03*
X103700000Y-60500000D03*
X107700000Y-54575000D03*
X116700000Y-58700000D03*
X99800000Y-61800000D03*
X111900000Y-59600000D03*
D15*
X89250000Y-56750000D03*
D16*
X109750000Y-53000000D03*
D15*
X84250000Y-55500000D03*
X89250000Y-60500000D03*
X84250000Y-59250000D03*
X86750000Y-55500000D03*
X89250000Y-59250000D03*
X72400000Y-63500000D03*
X115500000Y-55700000D03*
X84250000Y-56750000D03*
D16*
X104500000Y-50000000D03*
D15*
X75000000Y-60500000D03*
X88000000Y-55500000D03*
X99000000Y-52150000D03*
X88000000Y-58000000D03*
D16*
X89800000Y-49400000D03*
D15*
X107100000Y-52200000D03*
D16*
X115528611Y-57129851D03*
D15*
X85500000Y-56750000D03*
X89250000Y-55500000D03*
D16*
X87600000Y-49300000D03*
D15*
X85500000Y-59250000D03*
D16*
X106950000Y-52950000D03*
D15*
X80700000Y-65400000D03*
X86750000Y-60500000D03*
D16*
X94400000Y-52000000D03*
X110670459Y-55000500D03*
D15*
X79400000Y-53300000D03*
X86750000Y-59250000D03*
X66400000Y-52600000D03*
X88000000Y-60500000D03*
D16*
X104500000Y-53800000D03*
D15*
X89250000Y-58000000D03*
X85500000Y-58000000D03*
X88000000Y-56750000D03*
X84250000Y-60500000D03*
X86750000Y-58000000D03*
X85500000Y-60500000D03*
X88000000Y-59250000D03*
X73300000Y-51500000D03*
X84250000Y-58000000D03*
D16*
X104000000Y-63000000D03*
D15*
X86750000Y-56750000D03*
X78100000Y-61300000D03*
X85000000Y-65960000D03*
D16*
X97000000Y-55000000D03*
X101800000Y-53100000D03*
X93300000Y-52000000D03*
D15*
X85500000Y-55500000D03*
D16*
X118175000Y-57175000D03*
D15*
X69500000Y-63500000D03*
X71700000Y-52600000D03*
X92600000Y-60800000D03*
D16*
X119600000Y-54900000D03*
D15*
X82300000Y-63900000D03*
X85200000Y-63900000D03*
X80800000Y-55500000D03*
D16*
X118700000Y-54950000D03*
D15*
X67700000Y-52600000D03*
X92600000Y-54600000D03*
X79200000Y-51800000D03*
D16*
X117975000Y-56275000D03*
X112300500Y-51399500D03*
X112300000Y-54300000D03*
D15*
X88100000Y-52100000D03*
X97400000Y-61000000D03*
D16*
X111600000Y-52100000D03*
D15*
X85600000Y-54000000D03*
X86450000Y-52000000D03*
D16*
X109700000Y-52100000D03*
D15*
X88900000Y-64800000D03*
D16*
X103912500Y-52237900D03*
D15*
X84100000Y-63800000D03*
X101900000Y-52212500D03*
X86500000Y-54000000D03*
D16*
X104800000Y-52300000D03*
D15*
X92600000Y-53600000D03*
D17*
X114500000Y-51300000D03*
D15*
X93900000Y-60300000D03*
X94300000Y-59700000D03*
X95000000Y-59600000D03*
X93600000Y-59000000D03*
X90800000Y-58600000D03*
X95700000Y-57800000D03*
X90800000Y-57800000D03*
X92700000Y-57400000D03*
X90800000Y-57000000D03*
X94100000Y-57100000D03*
X90800000Y-56200000D03*
X92700000Y-55800000D03*
X93900000Y-55700000D03*
X90800000Y-55000000D03*
X90800000Y-54300000D03*
X84900000Y-54200000D03*
X84200000Y-54200000D03*
X82500000Y-55400000D03*
X83450000Y-62200000D03*
X87300000Y-65007798D03*
X106300000Y-58200000D03*
X80500000Y-63200000D03*
X80500000Y-62500000D03*
X82500000Y-60900000D03*
D17*
X115000000Y-53600000D03*
X117200000Y-51305000D03*
D15*
X80500000Y-61800000D03*
X82800000Y-59600000D03*
X80600000Y-57600000D03*
X80400000Y-58600000D03*
X82600000Y-58700000D03*
X82600000Y-58000000D03*
X82600000Y-57300000D03*
X78600000Y-51100000D03*
X83100000Y-53900000D03*
X92800000Y-63400000D03*
X87150000Y-52100000D03*
X84500000Y-49600000D03*
X68900000Y-52600000D03*
X79900000Y-60200000D03*
X71200000Y-54400000D03*
X92000000Y-63400000D03*
X79000000Y-60800000D03*
X79000000Y-63800000D03*
D18*
X65500000Y-49900000D02*
X63800000Y-48200000D01*
X68900000Y-51061295D02*
X67738705Y-49900000D01*
X68900000Y-52600000D02*
X68900000Y-51061295D01*
X67738705Y-49900000D02*
X65500000Y-49900000D01*
X63800000Y-48200000D02*
X63800000Y-46285000D01*
X63800000Y-46285000D02*
X65085000Y-45000000D01*
X67625000Y-45000000D02*
X66500000Y-46125000D01*
X81000000Y-64500000D02*
X81500000Y-64000000D01*
X66500000Y-46125000D02*
X66500000Y-48302085D01*
X66500000Y-48302085D02*
X69841790Y-51643875D01*
X69841790Y-51643875D02*
X69841790Y-57241790D01*
X69841790Y-57241790D02*
X70500000Y-57900000D01*
X70500000Y-57900000D02*
X70500000Y-58000000D01*
X70500000Y-58000000D02*
X70600000Y-58000000D01*
X70600000Y-58000000D02*
X77100000Y-64500000D01*
X77100000Y-64500000D02*
X81000000Y-64500000D01*
X83075545Y-62200000D02*
X83450000Y-62200000D01*
X81500000Y-64000000D02*
X81500000Y-63775545D01*
X81500000Y-63775545D02*
X83075545Y-62200000D01*
D19*
X90437500Y-62100000D02*
X90710500Y-62373000D01*
X90710500Y-62373000D02*
X95839283Y-62373000D01*
X95839283Y-62373000D02*
X96866283Y-63400000D01*
X96866283Y-63400000D02*
X102400000Y-63400000D01*
X102400000Y-63400000D02*
X104200000Y-65200000D01*
X93700000Y-63400000D02*
X96200000Y-63400000D01*
X96200000Y-63400000D02*
X98100000Y-65300000D01*
X98100000Y-65300000D02*
X99500000Y-65300000D01*
D18*
X87300000Y-65007798D02*
X87300000Y-62700000D01*
X87300000Y-62700000D02*
X86800000Y-62200000D01*
X86800000Y-62200000D02*
X83450000Y-62200000D01*
X106300000Y-58200000D02*
X105986000Y-57886000D01*
X105986000Y-57886000D02*
X99507965Y-57886000D01*
X99507965Y-57886000D02*
X95338465Y-62055500D01*
X89963545Y-61562000D02*
X89770045Y-61755500D01*
X95338465Y-62055500D02*
X91177870Y-62055500D01*
X91177870Y-62055500D02*
X90684370Y-61562000D01*
X90684370Y-61562000D02*
X89963545Y-61562000D01*
X89770045Y-61755500D02*
X83703415Y-61755500D01*
X83703415Y-61755500D02*
X83609915Y-61662000D01*
X83609915Y-61662000D02*
X83254335Y-61662000D01*
X83254335Y-61662000D02*
X81716335Y-63200000D01*
X81716335Y-63200000D02*
X80500000Y-63200000D01*
X109500740Y-57632000D02*
X109507140Y-57638400D01*
X114938400Y-54511600D02*
X115885000Y-53565000D01*
X99402755Y-57632000D02*
X109500740Y-57632000D01*
X95233255Y-61801500D02*
X99402755Y-57632000D01*
X83808625Y-61501500D02*
X89664835Y-61501500D01*
X113635280Y-57638400D02*
X114938400Y-56335280D01*
X89858335Y-61308000D02*
X90789580Y-61308000D01*
X109507140Y-57638400D02*
X113635280Y-57638400D01*
X90789580Y-61308000D02*
X91283080Y-61801500D01*
X89664835Y-61501500D02*
X89858335Y-61308000D01*
X91283080Y-61801500D02*
X95233255Y-61801500D01*
X83715125Y-61408000D02*
X83808625Y-61501500D01*
X83149125Y-61408000D02*
X83715125Y-61408000D01*
X80500000Y-62500000D02*
X82057125Y-62500000D01*
X82057125Y-62500000D02*
X83149125Y-61408000D01*
X114938400Y-56335280D02*
X114938400Y-54511600D01*
X115885000Y-53565000D02*
X115885000Y-52620000D01*
X89559625Y-61247500D02*
X83913835Y-61247500D01*
X90894790Y-61054000D02*
X89753125Y-61054000D01*
X83913835Y-61247500D02*
X83820335Y-61154000D01*
X109612350Y-57384400D02*
X109605950Y-57378000D01*
X91388290Y-61547500D02*
X90894790Y-61054000D01*
X99297545Y-57378000D02*
X95128045Y-61547500D01*
X89753125Y-61054000D02*
X89559625Y-61247500D01*
X114684400Y-56230070D02*
X113530070Y-57384400D01*
X95128045Y-61547500D02*
X91388290Y-61547500D01*
X113530070Y-57384400D02*
X109612350Y-57384400D01*
X109605950Y-57378000D02*
X99297545Y-57378000D01*
X114684400Y-53915600D02*
X114684400Y-56230070D01*
X83043915Y-61154000D02*
X81951915Y-62246000D01*
X115000000Y-53600000D02*
X114684400Y-53915600D01*
X83820335Y-61154000D02*
X83043915Y-61154000D01*
X81951915Y-62246000D02*
X80946000Y-62246000D01*
X80946000Y-62246000D02*
X80500000Y-61800000D01*
X114430400Y-56124860D02*
X114430400Y-52269600D01*
X113424860Y-57130400D02*
X114430400Y-56124860D01*
X82500000Y-60900000D02*
X83925545Y-60900000D01*
X109711160Y-57124000D02*
X109717560Y-57130400D01*
X91000000Y-60800000D02*
X91493500Y-61293500D01*
X99192335Y-57124000D02*
X109711160Y-57124000D01*
X91493500Y-61293500D02*
X95022835Y-61293500D01*
X89647915Y-60800000D02*
X91000000Y-60800000D01*
X89454415Y-60993500D02*
X89647915Y-60800000D01*
X84019045Y-60993500D02*
X89454415Y-60993500D01*
X83925545Y-60900000D02*
X84019045Y-60993500D01*
X109717560Y-57130400D02*
X113424860Y-57130400D01*
X95022835Y-61293500D02*
X99192335Y-57124000D01*
X114430400Y-52269600D02*
X115885000Y-50815000D01*
D19*
X92800000Y-64300000D02*
X93900000Y-65400000D01*
X92800000Y-63400000D02*
X92800000Y-64300000D01*
X93900000Y-65400000D02*
X95200000Y-65400000D01*
X92000000Y-63400000D02*
X92000000Y-64300000D01*
X92000000Y-64300000D02*
X90900000Y-65400000D01*
X86462500Y-53037500D02*
X85600000Y-53900000D01*
X86462500Y-53037500D02*
X87162500Y-53037500D01*
X87162500Y-53037500D02*
X88100000Y-52100000D01*
X86462500Y-52000000D02*
X86462500Y-53037500D01*
D18*
X99087125Y-56870000D02*
X95609625Y-60347500D01*
X114500000Y-51300000D02*
X114176400Y-51623600D01*
X114176400Y-51623600D02*
X114176400Y-56019650D01*
X109816370Y-56870000D02*
X99087125Y-56870000D01*
X95609625Y-60347500D02*
X93900000Y-60347500D01*
X114176400Y-56019650D02*
X113319650Y-56876400D01*
X113319650Y-56876400D02*
X109822770Y-56876400D01*
X109822770Y-56876400D02*
X109816370Y-56870000D01*
X113922400Y-49696020D02*
X113922400Y-55914440D01*
X109921580Y-56616000D02*
X98981915Y-56616000D01*
X98981915Y-56616000D02*
X95504415Y-60093500D01*
X95504415Y-60093500D02*
X94693500Y-60093500D01*
X113214440Y-56622400D02*
X109927980Y-56622400D01*
X114710920Y-48907500D02*
X113922400Y-49696020D01*
X109927980Y-56622400D02*
X109921580Y-56616000D01*
X94693500Y-60093500D02*
X94300000Y-59700000D01*
X113922400Y-55914440D02*
X113214440Y-56622400D01*
X118425000Y-47540000D02*
X117057500Y-48907500D01*
X117057500Y-48907500D02*
X114710920Y-48907500D01*
X113668400Y-49590810D02*
X114605710Y-48653500D01*
X95638705Y-59600000D02*
X98876705Y-56362000D01*
X116998500Y-46698500D02*
X115885000Y-45585000D01*
X116346227Y-48653500D02*
X116998500Y-48001227D01*
X110026790Y-56362000D02*
X110033190Y-56368400D01*
X95000000Y-59600000D02*
X95638705Y-59600000D01*
X114605710Y-48653500D02*
X116346227Y-48653500D01*
X113109230Y-56368400D02*
X113668400Y-55809230D01*
X98876705Y-56362000D02*
X110026790Y-56362000D01*
X116998500Y-48001227D02*
X116998500Y-46698500D01*
X113668400Y-55809230D02*
X113668400Y-49590810D01*
X110033190Y-56368400D02*
X113109230Y-56368400D01*
X113414400Y-55704020D02*
X113414400Y-49485600D01*
X113004020Y-56114400D02*
X113414400Y-55704020D01*
X95879495Y-59000000D02*
X98771495Y-56108000D01*
X110138400Y-56114400D02*
X113004020Y-56114400D01*
X98771495Y-56108000D02*
X110132000Y-56108000D01*
X93600000Y-59000000D02*
X95879495Y-59000000D01*
X113414400Y-49485600D02*
X115360000Y-47540000D01*
X110132000Y-56108000D02*
X110138400Y-56114400D01*
X110237210Y-55854000D02*
X110243610Y-55860400D01*
X113160400Y-55598810D02*
X113160400Y-49299327D01*
X112898810Y-55860400D02*
X113160400Y-55598810D01*
X110243610Y-55860400D02*
X112898810Y-55860400D01*
X114500000Y-47959727D02*
X114500000Y-46155000D01*
X114500000Y-46155000D02*
X113345000Y-45000000D01*
X90893500Y-58506500D02*
X96013785Y-58506500D01*
X113160400Y-49299327D02*
X114500000Y-47959727D01*
X96013785Y-58506500D02*
X98666285Y-55854000D01*
X98666285Y-55854000D02*
X110237210Y-55854000D01*
X90800000Y-58600000D02*
X90893500Y-58506500D01*
X110348820Y-55606400D02*
X110342420Y-55600000D01*
X110342420Y-55600000D02*
X97900000Y-55600000D01*
X112793600Y-55606400D02*
X110348820Y-55606400D01*
X112906400Y-48191400D02*
X112906400Y-55493600D01*
X97900000Y-55600000D02*
X95700000Y-57800000D01*
X112800000Y-48085000D02*
X112906400Y-48191400D01*
X112906400Y-55493600D02*
X112793600Y-55606400D01*
X107186420Y-51632000D02*
X109718420Y-49100000D01*
X95670000Y-54744470D02*
X98782470Y-51632000D01*
X90800000Y-57800000D02*
X91106500Y-58106500D01*
X93048790Y-58108000D02*
X94508335Y-58108000D01*
X112100000Y-46295000D02*
X110805000Y-45000000D01*
X98782470Y-51632000D02*
X107186420Y-51632000D01*
X95670000Y-56946335D02*
X95670000Y-54744470D01*
X111300000Y-49100000D02*
X112100000Y-48300000D01*
X112100000Y-48300000D02*
X112100000Y-46295000D01*
X109718420Y-49100000D02*
X111300000Y-49100000D01*
X94508335Y-58108000D02*
X95670000Y-56946335D01*
X91106500Y-58106500D02*
X93047290Y-58106500D01*
X93047290Y-58106500D02*
X93048790Y-58108000D01*
X95416000Y-56841125D02*
X95416000Y-54639260D01*
X98677260Y-51378000D02*
X107081210Y-51378000D01*
X95416000Y-54639260D02*
X98677260Y-51378000D01*
X94403125Y-57854000D02*
X95416000Y-56841125D01*
X92700000Y-57400000D02*
X93154000Y-57854000D01*
X93154000Y-57854000D02*
X94403125Y-57854000D01*
X107081210Y-51378000D02*
X110805000Y-47654210D01*
X92906500Y-56906500D02*
X93600000Y-57600000D01*
X95162000Y-54534050D02*
X98572050Y-51124000D01*
X90800000Y-57000000D02*
X90893500Y-56906500D01*
X93600000Y-57600000D02*
X94297915Y-57600000D01*
X109500000Y-46235000D02*
X108265000Y-45000000D01*
X106976000Y-51124000D02*
X109500000Y-48600000D01*
X109500000Y-48600000D02*
X109500000Y-46235000D01*
X98572050Y-51124000D02*
X106976000Y-51124000D01*
X90893500Y-56906500D02*
X92906500Y-56906500D01*
X94297915Y-57600000D02*
X95162000Y-56735915D01*
X95162000Y-56735915D02*
X95162000Y-54534050D01*
X104935000Y-50870000D02*
X108265000Y-47540000D01*
X94908000Y-56292000D02*
X94908000Y-54428840D01*
X94908000Y-54428840D02*
X98466840Y-50870000D01*
X98466840Y-50870000D02*
X104935000Y-50870000D01*
X94100000Y-57100000D02*
X94908000Y-56292000D01*
X94050625Y-56606500D02*
X94654000Y-56003125D01*
X91206500Y-56606500D02*
X94050625Y-56606500D01*
X107000000Y-48400000D02*
X107000000Y-46275000D01*
X94654000Y-56003125D02*
X94654000Y-54323630D01*
X104784000Y-50616000D02*
X107000000Y-48400000D01*
X94654000Y-54323630D02*
X98361630Y-50616000D01*
X107000000Y-46275000D02*
X105725000Y-45000000D01*
X90800000Y-56200000D02*
X91206500Y-56606500D01*
X98361630Y-50616000D02*
X104784000Y-50616000D01*
X94400000Y-54218420D02*
X98256420Y-50362000D01*
X98256420Y-50362000D02*
X103197211Y-50362000D01*
X93093500Y-56193500D02*
X94104415Y-56193500D01*
X94400000Y-55897915D02*
X94400000Y-54218420D01*
X103197211Y-50362000D02*
X105725000Y-47834211D01*
X94104415Y-56193500D02*
X94400000Y-55897915D01*
X92700000Y-55800000D02*
X93093500Y-56193500D01*
X104400000Y-48800001D02*
X104400000Y-46215000D01*
X93900000Y-54359210D02*
X98151210Y-50108000D01*
X103092001Y-50108000D02*
X104400000Y-48800001D01*
X93900000Y-55700000D02*
X93900000Y-54359210D01*
X98151210Y-50108000D02*
X103092001Y-50108000D01*
X104400000Y-46215000D02*
X103185000Y-45000000D01*
X100871000Y-49854000D02*
X103185000Y-47540000D01*
X92600000Y-55300000D02*
X98046000Y-49854000D01*
X90800000Y-55000000D02*
X91100000Y-55300000D01*
X91100000Y-55300000D02*
X92600000Y-55300000D01*
X98046000Y-49854000D02*
X100871000Y-49854000D01*
X99300000Y-46345000D02*
X100645000Y-45000000D01*
X90800000Y-54300000D02*
X90993500Y-54106500D01*
X90993500Y-54106500D02*
X93434290Y-54106500D01*
X93434290Y-54106500D02*
X99300000Y-48240790D01*
X99300000Y-48240790D02*
X99300000Y-46345000D01*
X82106500Y-55006500D02*
X80306500Y-55006500D01*
X75245000Y-49945000D02*
X75245000Y-47540000D01*
X80306500Y-55006500D02*
X75245000Y-49945000D01*
X82500000Y-55400000D02*
X82106500Y-55006500D01*
X117200000Y-51305000D02*
X118425000Y-50080000D01*
X79602085Y-59600000D02*
X78606500Y-58604415D01*
X82800000Y-59600000D02*
X79602085Y-59600000D01*
X78606500Y-55461760D02*
X73006740Y-49862000D01*
X78606500Y-58604415D02*
X78606500Y-55461760D01*
X69947000Y-49862000D02*
X67625000Y-47540000D01*
X73006740Y-49862000D02*
X69947000Y-49862000D01*
X79947290Y-55741915D02*
X79947290Y-55365710D01*
X80600000Y-56394625D02*
X79947290Y-55741915D01*
X79947290Y-55365710D02*
X72705000Y-48123420D01*
X80600000Y-57600000D02*
X80600000Y-56394625D01*
X73217160Y-49354000D02*
X71979000Y-49354000D01*
X79439290Y-55952335D02*
X79439290Y-55576130D01*
X79852500Y-56365545D02*
X79439290Y-55952335D01*
X79852500Y-58052500D02*
X79852500Y-56365545D01*
X80400000Y-58600000D02*
X79852500Y-58052500D01*
X71979000Y-49354000D02*
X70165000Y-47540000D01*
X79439290Y-55576130D02*
X73217160Y-49354000D01*
X80193500Y-59093500D02*
X79593500Y-58493500D01*
X69051500Y-46113500D02*
X70165000Y-45000000D01*
X79593500Y-56465755D02*
X79185290Y-56057545D01*
X73111950Y-49608000D02*
X70658273Y-49608000D01*
X70658273Y-49608000D02*
X69051500Y-48001227D01*
X79185290Y-55681340D02*
X73111950Y-49608000D01*
X79185290Y-56057545D02*
X79185290Y-55681340D01*
X82206500Y-59093500D02*
X80193500Y-59093500D01*
X79593500Y-58493500D02*
X79593500Y-56465755D01*
X82600000Y-58700000D02*
X82206500Y-59093500D01*
X69051500Y-48001227D02*
X69051500Y-46113500D01*
X80106500Y-56260335D02*
X79693290Y-55847125D01*
X80106500Y-57804415D02*
X80106500Y-56260335D01*
X79693290Y-55470920D02*
X73322370Y-49100000D01*
X71400000Y-48300000D02*
X71400000Y-46305000D01*
X79693290Y-55847125D02*
X79693290Y-55470920D01*
X71400000Y-46305000D02*
X72705000Y-45000000D01*
X82600000Y-58000000D02*
X82506500Y-58093500D01*
X72200000Y-49100000D02*
X71400000Y-48300000D01*
X82506500Y-58093500D02*
X80395585Y-58093500D01*
X80395585Y-58093500D02*
X80106500Y-57804415D01*
X73322370Y-49100000D02*
X72200000Y-49100000D01*
X74000000Y-49059210D02*
X74000000Y-46245000D01*
X80201290Y-55260500D02*
X74000000Y-49059210D01*
X80201290Y-55636705D02*
X80201290Y-55260500D01*
X74000000Y-46245000D02*
X75245000Y-45000000D01*
X82600000Y-57300000D02*
X81864585Y-57300000D01*
X81864585Y-57300000D02*
X80201290Y-55636705D01*
X83100000Y-53900000D02*
X80300000Y-51100000D01*
X80300000Y-51100000D02*
X78600000Y-51100000D01*
X84760415Y-49600000D02*
X87162500Y-52002085D01*
X87162500Y-52002085D02*
X87162500Y-52100000D01*
X84500000Y-49600000D02*
X84760415Y-49600000D01*
X79698957Y-60200000D02*
X79592457Y-60306500D01*
X75000000Y-62000000D02*
X71200000Y-58200000D01*
X79592457Y-60306500D02*
X78395585Y-60306500D01*
X76702085Y-62000000D02*
X75000000Y-62000000D01*
X78395585Y-60306500D02*
X76702085Y-62000000D01*
X71200000Y-58200000D02*
X71200000Y-54400000D01*
X79900000Y-60200000D02*
X79698957Y-60200000D01*
X79000000Y-63800000D02*
X79000000Y-60800000D01*
G04 #@! TA.AperFunction,Conductor*
G36*
X118614833Y-43302595D02*
G01*
X118622546Y-43303216D01*
X118763025Y-43323414D01*
X118852857Y-43336330D01*
X118870145Y-43340091D01*
X119069144Y-43398523D01*
X119127922Y-43436298D01*
X119156947Y-43499853D01*
X119147003Y-43569012D01*
X119101248Y-43621816D01*
X119034209Y-43641500D01*
X117526345Y-43641500D01*
X117465797Y-43648011D01*
X117465795Y-43648011D01*
X117328795Y-43699111D01*
X117211739Y-43786739D01*
X117124111Y-43903795D01*
X117078861Y-44025111D01*
X117036989Y-44081044D01*
X116971524Y-44105460D01*
X116903252Y-44090607D01*
X116871454Y-44065762D01*
X116808240Y-43997094D01*
X116630576Y-43858811D01*
X116630575Y-43858810D01*
X116630572Y-43858808D01*
X116432580Y-43751661D01*
X116432577Y-43751659D01*
X116432574Y-43751658D01*
X116432571Y-43751657D01*
X116432569Y-43751656D01*
X116219637Y-43678556D01*
X115997569Y-43641500D01*
X115772431Y-43641500D01*
X115550362Y-43678556D01*
X115337430Y-43751656D01*
X115337419Y-43751661D01*
X115139427Y-43858808D01*
X115139422Y-43858812D01*
X114961761Y-43997092D01*
X114961756Y-43997097D01*
X114809284Y-44162723D01*
X114809276Y-44162734D01*
X114718808Y-44301206D01*
X114665662Y-44346562D01*
X114596431Y-44355986D01*
X114533095Y-44326484D01*
X114511192Y-44301206D01*
X114435049Y-44184661D01*
X114420722Y-44162732D01*
X114420719Y-44162729D01*
X114420715Y-44162723D01*
X114268243Y-43997097D01*
X114268238Y-43997092D01*
X114090577Y-43858812D01*
X114090572Y-43858808D01*
X113892580Y-43751661D01*
X113892577Y-43751659D01*
X113892574Y-43751658D01*
X113892571Y-43751657D01*
X113892569Y-43751656D01*
X113679637Y-43678556D01*
X113457569Y-43641500D01*
X113232431Y-43641500D01*
X113010362Y-43678556D01*
X112797430Y-43751656D01*
X112797419Y-43751661D01*
X112599427Y-43858808D01*
X112599422Y-43858812D01*
X112421761Y-43997092D01*
X112421756Y-43997097D01*
X112269284Y-44162723D01*
X112269276Y-44162734D01*
X112178807Y-44301206D01*
X112125660Y-44346563D01*
X112056429Y-44355986D01*
X111993093Y-44326483D01*
X111971191Y-44301206D01*
X111880722Y-44162732D01*
X111880717Y-44162727D01*
X111880715Y-44162723D01*
X111728243Y-43997097D01*
X111728238Y-43997092D01*
X111550577Y-43858812D01*
X111550572Y-43858808D01*
X111352580Y-43751661D01*
X111352577Y-43751659D01*
X111352574Y-43751658D01*
X111352571Y-43751657D01*
X111352569Y-43751656D01*
X111139637Y-43678556D01*
X110917569Y-43641500D01*
X110692431Y-43641500D01*
X110470362Y-43678556D01*
X110257430Y-43751656D01*
X110257419Y-43751661D01*
X110059427Y-43858808D01*
X110059422Y-43858812D01*
X109881761Y-43997092D01*
X109881756Y-43997097D01*
X109729284Y-44162723D01*
X109729276Y-44162734D01*
X109638808Y-44301206D01*
X109585662Y-44346562D01*
X109516431Y-44355986D01*
X109453095Y-44326484D01*
X109431192Y-44301206D01*
X109355049Y-44184661D01*
X109340722Y-44162732D01*
X109340719Y-44162729D01*
X109340715Y-44162723D01*
X109188243Y-43997097D01*
X109188238Y-43997092D01*
X109010577Y-43858812D01*
X109010572Y-43858808D01*
X108812580Y-43751661D01*
X108812577Y-43751659D01*
X108812574Y-43751658D01*
X108812571Y-43751657D01*
X108812569Y-43751656D01*
X108599637Y-43678556D01*
X108377569Y-43641500D01*
X108152431Y-43641500D01*
X107930362Y-43678556D01*
X107717430Y-43751656D01*
X107717419Y-43751661D01*
X107519427Y-43858808D01*
X107519422Y-43858812D01*
X107341761Y-43997092D01*
X107341756Y-43997097D01*
X107189284Y-44162723D01*
X107189276Y-44162734D01*
X107098807Y-44301206D01*
X107045660Y-44346563D01*
X106976429Y-44355986D01*
X106913093Y-44326483D01*
X106891191Y-44301206D01*
X106800722Y-44162732D01*
X106800717Y-44162727D01*
X106800715Y-44162723D01*
X106648243Y-43997097D01*
X106648238Y-43997092D01*
X106470577Y-43858812D01*
X106470572Y-43858808D01*
X106272580Y-43751661D01*
X106272577Y-43751659D01*
X106272574Y-43751658D01*
X106272571Y-43751657D01*
X106272569Y-43751656D01*
X106059637Y-43678556D01*
X105837569Y-43641500D01*
X105612431Y-43641500D01*
X105390362Y-43678556D01*
X105177430Y-43751656D01*
X105177419Y-43751661D01*
X104979427Y-43858808D01*
X104979422Y-43858812D01*
X104801761Y-43997092D01*
X104801756Y-43997097D01*
X104649284Y-44162723D01*
X104649276Y-44162734D01*
X104558808Y-44301206D01*
X104505662Y-44346562D01*
X104436431Y-44355986D01*
X104373095Y-44326484D01*
X104351192Y-44301206D01*
X104275049Y-44184661D01*
X104260722Y-44162732D01*
X104260719Y-44162729D01*
X104260715Y-44162723D01*
X104108243Y-43997097D01*
X104108238Y-43997092D01*
X103930577Y-43858812D01*
X103930572Y-43858808D01*
X103732580Y-43751661D01*
X103732577Y-43751659D01*
X103732574Y-43751658D01*
X103732571Y-43751657D01*
X103732569Y-43751656D01*
X103519637Y-43678556D01*
X103297569Y-43641500D01*
X103072431Y-43641500D01*
X102850362Y-43678556D01*
X102637430Y-43751656D01*
X102637419Y-43751661D01*
X102439427Y-43858808D01*
X102439422Y-43858812D01*
X102261761Y-43997092D01*
X102261756Y-43997097D01*
X102109284Y-44162723D01*
X102109276Y-44162734D01*
X102018807Y-44301206D01*
X101965660Y-44346563D01*
X101896429Y-44355986D01*
X101833093Y-44326483D01*
X101811191Y-44301206D01*
X101720722Y-44162732D01*
X101720717Y-44162727D01*
X101720715Y-44162723D01*
X101568243Y-43997097D01*
X101568238Y-43997092D01*
X101390577Y-43858812D01*
X101390572Y-43858808D01*
X101192580Y-43751661D01*
X101192577Y-43751659D01*
X101192574Y-43751658D01*
X101192571Y-43751657D01*
X101192569Y-43751656D01*
X100979637Y-43678556D01*
X100757569Y-43641500D01*
X100532431Y-43641500D01*
X100310362Y-43678556D01*
X100097430Y-43751656D01*
X100097419Y-43751661D01*
X99899427Y-43858808D01*
X99899422Y-43858812D01*
X99721761Y-43997092D01*
X99721756Y-43997097D01*
X99569284Y-44162723D01*
X99569276Y-44162734D01*
X99478808Y-44301206D01*
X99425662Y-44346562D01*
X99356431Y-44355986D01*
X99293095Y-44326484D01*
X99271192Y-44301206D01*
X99195049Y-44184661D01*
X99180722Y-44162732D01*
X99180719Y-44162729D01*
X99180715Y-44162723D01*
X99028243Y-43997097D01*
X99028238Y-43997092D01*
X98850577Y-43858812D01*
X98850572Y-43858808D01*
X98652580Y-43751661D01*
X98652577Y-43751659D01*
X98652574Y-43751658D01*
X98652571Y-43751657D01*
X98652569Y-43751656D01*
X98439637Y-43678556D01*
X98217569Y-43641500D01*
X97992431Y-43641500D01*
X97770362Y-43678556D01*
X97557430Y-43751656D01*
X97557419Y-43751661D01*
X97359427Y-43858808D01*
X97359422Y-43858812D01*
X97181761Y-43997092D01*
X97181756Y-43997097D01*
X97029284Y-44162723D01*
X97029276Y-44162734D01*
X96938807Y-44301206D01*
X96885660Y-44346563D01*
X96816429Y-44355986D01*
X96753093Y-44326483D01*
X96731191Y-44301206D01*
X96640722Y-44162732D01*
X96640717Y-44162727D01*
X96640715Y-44162723D01*
X96488243Y-43997097D01*
X96488238Y-43997092D01*
X96310577Y-43858812D01*
X96310572Y-43858808D01*
X96112580Y-43751661D01*
X96112577Y-43751659D01*
X96112574Y-43751658D01*
X96112571Y-43751657D01*
X96112569Y-43751656D01*
X95899637Y-43678556D01*
X95677569Y-43641500D01*
X95452431Y-43641500D01*
X95230362Y-43678556D01*
X95017430Y-43751656D01*
X95017419Y-43751661D01*
X94819427Y-43858808D01*
X94819422Y-43858812D01*
X94641761Y-43997092D01*
X94641756Y-43997097D01*
X94489284Y-44162723D01*
X94489276Y-44162734D01*
X94398808Y-44301206D01*
X94345662Y-44346562D01*
X94276431Y-44355986D01*
X94213095Y-44326484D01*
X94191192Y-44301206D01*
X94115049Y-44184661D01*
X94100722Y-44162732D01*
X94100719Y-44162729D01*
X94100715Y-44162723D01*
X93948243Y-43997097D01*
X93948238Y-43997092D01*
X93770577Y-43858812D01*
X93770572Y-43858808D01*
X93572580Y-43751661D01*
X93572577Y-43751659D01*
X93572574Y-43751658D01*
X93572571Y-43751657D01*
X93572569Y-43751656D01*
X93359637Y-43678556D01*
X93137569Y-43641500D01*
X92912431Y-43641500D01*
X92690362Y-43678556D01*
X92477430Y-43751656D01*
X92477419Y-43751661D01*
X92279427Y-43858808D01*
X92279422Y-43858812D01*
X92101761Y-43997092D01*
X92101756Y-43997097D01*
X91949284Y-44162723D01*
X91949276Y-44162734D01*
X91858807Y-44301206D01*
X91805660Y-44346563D01*
X91736429Y-44355986D01*
X91673093Y-44326483D01*
X91651191Y-44301206D01*
X91560722Y-44162732D01*
X91560717Y-44162727D01*
X91560715Y-44162723D01*
X91408243Y-43997097D01*
X91408238Y-43997092D01*
X91230577Y-43858812D01*
X91230572Y-43858808D01*
X91032580Y-43751661D01*
X91032577Y-43751659D01*
X91032574Y-43751658D01*
X91032571Y-43751657D01*
X91032569Y-43751656D01*
X90819637Y-43678556D01*
X90597569Y-43641500D01*
X90372431Y-43641500D01*
X90150362Y-43678556D01*
X89937430Y-43751656D01*
X89937419Y-43751661D01*
X89739427Y-43858808D01*
X89739422Y-43858812D01*
X89561761Y-43997092D01*
X89561756Y-43997097D01*
X89409284Y-44162723D01*
X89409276Y-44162734D01*
X89318808Y-44301206D01*
X89265662Y-44346562D01*
X89196431Y-44355986D01*
X89133095Y-44326484D01*
X89111192Y-44301206D01*
X89035049Y-44184661D01*
X89020722Y-44162732D01*
X89020719Y-44162729D01*
X89020715Y-44162723D01*
X88868243Y-43997097D01*
X88868238Y-43997092D01*
X88690577Y-43858812D01*
X88690572Y-43858808D01*
X88492580Y-43751661D01*
X88492577Y-43751659D01*
X88492574Y-43751658D01*
X88492571Y-43751657D01*
X88492569Y-43751656D01*
X88279637Y-43678556D01*
X88057569Y-43641500D01*
X87832431Y-43641500D01*
X87610362Y-43678556D01*
X87397430Y-43751656D01*
X87397419Y-43751661D01*
X87199427Y-43858808D01*
X87199422Y-43858812D01*
X87021761Y-43997092D01*
X87021756Y-43997097D01*
X86869284Y-44162723D01*
X86869276Y-44162734D01*
X86778807Y-44301206D01*
X86725660Y-44346563D01*
X86656429Y-44355986D01*
X86593093Y-44326483D01*
X86571191Y-44301206D01*
X86480722Y-44162732D01*
X86480717Y-44162727D01*
X86480715Y-44162723D01*
X86328243Y-43997097D01*
X86328238Y-43997092D01*
X86150577Y-43858812D01*
X86150572Y-43858808D01*
X85952580Y-43751661D01*
X85952577Y-43751659D01*
X85952574Y-43751658D01*
X85952571Y-43751657D01*
X85952569Y-43751656D01*
X85739637Y-43678556D01*
X85517569Y-43641500D01*
X85292431Y-43641500D01*
X85070362Y-43678556D01*
X84857430Y-43751656D01*
X84857419Y-43751661D01*
X84659427Y-43858808D01*
X84659422Y-43858812D01*
X84481761Y-43997092D01*
X84481756Y-43997097D01*
X84329284Y-44162723D01*
X84329276Y-44162734D01*
X84238808Y-44301206D01*
X84185662Y-44346562D01*
X84116431Y-44355986D01*
X84053095Y-44326484D01*
X84031192Y-44301206D01*
X83955049Y-44184661D01*
X83940722Y-44162732D01*
X83940719Y-44162729D01*
X83940715Y-44162723D01*
X83788243Y-43997097D01*
X83788238Y-43997092D01*
X83610577Y-43858812D01*
X83610572Y-43858808D01*
X83412580Y-43751661D01*
X83412577Y-43751659D01*
X83412574Y-43751658D01*
X83412571Y-43751657D01*
X83412569Y-43751656D01*
X83199637Y-43678556D01*
X82977569Y-43641500D01*
X82752431Y-43641500D01*
X82530362Y-43678556D01*
X82317430Y-43751656D01*
X82317419Y-43751661D01*
X82119427Y-43858808D01*
X82119422Y-43858812D01*
X81941761Y-43997092D01*
X81941756Y-43997097D01*
X81789284Y-44162723D01*
X81789276Y-44162734D01*
X81698807Y-44301206D01*
X81645660Y-44346563D01*
X81576429Y-44355986D01*
X81513093Y-44326483D01*
X81491191Y-44301206D01*
X81400722Y-44162732D01*
X81400717Y-44162727D01*
X81400715Y-44162723D01*
X81248243Y-43997097D01*
X81248238Y-43997092D01*
X81070577Y-43858812D01*
X81070572Y-43858808D01*
X80872580Y-43751661D01*
X80872577Y-43751659D01*
X80872574Y-43751658D01*
X80872571Y-43751657D01*
X80872569Y-43751656D01*
X80659637Y-43678556D01*
X80437569Y-43641500D01*
X80212431Y-43641500D01*
X79990362Y-43678556D01*
X79777430Y-43751656D01*
X79777419Y-43751661D01*
X79579427Y-43858808D01*
X79579422Y-43858812D01*
X79401761Y-43997092D01*
X79401756Y-43997097D01*
X79249284Y-44162723D01*
X79249276Y-44162734D01*
X79158808Y-44301206D01*
X79105662Y-44346562D01*
X79036431Y-44355986D01*
X78973095Y-44326484D01*
X78951192Y-44301206D01*
X78875049Y-44184661D01*
X78860722Y-44162732D01*
X78860719Y-44162729D01*
X78860715Y-44162723D01*
X78708243Y-43997097D01*
X78708238Y-43997092D01*
X78530577Y-43858812D01*
X78530572Y-43858808D01*
X78332580Y-43751661D01*
X78332577Y-43751659D01*
X78332574Y-43751658D01*
X78332571Y-43751657D01*
X78332569Y-43751656D01*
X78119637Y-43678556D01*
X77897569Y-43641500D01*
X77672431Y-43641500D01*
X77450362Y-43678556D01*
X77237430Y-43751656D01*
X77237419Y-43751661D01*
X77039427Y-43858808D01*
X77039422Y-43858812D01*
X76861761Y-43997092D01*
X76861756Y-43997097D01*
X76709284Y-44162723D01*
X76709276Y-44162734D01*
X76618807Y-44301206D01*
X76565660Y-44346563D01*
X76496429Y-44355986D01*
X76433093Y-44326483D01*
X76411191Y-44301206D01*
X76320722Y-44162732D01*
X76320717Y-44162727D01*
X76320715Y-44162723D01*
X76168243Y-43997097D01*
X76168238Y-43997092D01*
X75990577Y-43858812D01*
X75990572Y-43858808D01*
X75792580Y-43751661D01*
X75792577Y-43751659D01*
X75792574Y-43751658D01*
X75792571Y-43751657D01*
X75792569Y-43751656D01*
X75579637Y-43678556D01*
X75357569Y-43641500D01*
X75132431Y-43641500D01*
X74910362Y-43678556D01*
X74697430Y-43751656D01*
X74697419Y-43751661D01*
X74499427Y-43858808D01*
X74499422Y-43858812D01*
X74321761Y-43997092D01*
X74321756Y-43997097D01*
X74169284Y-44162723D01*
X74169276Y-44162734D01*
X74078808Y-44301206D01*
X74025662Y-44346562D01*
X73956431Y-44355986D01*
X73893095Y-44326484D01*
X73871192Y-44301206D01*
X73795049Y-44184661D01*
X73780722Y-44162732D01*
X73780719Y-44162729D01*
X73780715Y-44162723D01*
X73628243Y-43997097D01*
X73628238Y-43997092D01*
X73450577Y-43858812D01*
X73450572Y-43858808D01*
X73252580Y-43751661D01*
X73252577Y-43751659D01*
X73252574Y-43751658D01*
X73252571Y-43751657D01*
X73252569Y-43751656D01*
X73039637Y-43678556D01*
X72817569Y-43641500D01*
X72592431Y-43641500D01*
X72370362Y-43678556D01*
X72157430Y-43751656D01*
X72157419Y-43751661D01*
X71959427Y-43858808D01*
X71959422Y-43858812D01*
X71781761Y-43997092D01*
X71781756Y-43997097D01*
X71629284Y-44162723D01*
X71629276Y-44162734D01*
X71538808Y-44301206D01*
X71485662Y-44346562D01*
X71416431Y-44355986D01*
X71353095Y-44326484D01*
X71331192Y-44301206D01*
X71255049Y-44184661D01*
X71240722Y-44162732D01*
X71240719Y-44162729D01*
X71240715Y-44162723D01*
X71088243Y-43997097D01*
X71088238Y-43997092D01*
X70910577Y-43858812D01*
X70910572Y-43858808D01*
X70712580Y-43751661D01*
X70712577Y-43751659D01*
X70712574Y-43751658D01*
X70712571Y-43751657D01*
X70712569Y-43751656D01*
X70499637Y-43678556D01*
X70277569Y-43641500D01*
X70052431Y-43641500D01*
X69830362Y-43678556D01*
X69617430Y-43751656D01*
X69617419Y-43751661D01*
X69419427Y-43858808D01*
X69419422Y-43858812D01*
X69241761Y-43997092D01*
X69241756Y-43997097D01*
X69089284Y-44162723D01*
X69089276Y-44162734D01*
X68998808Y-44301206D01*
X68945662Y-44346562D01*
X68876431Y-44355986D01*
X68813095Y-44326484D01*
X68791192Y-44301206D01*
X68715049Y-44184661D01*
X68700722Y-44162732D01*
X68700719Y-44162729D01*
X68700715Y-44162723D01*
X68548243Y-43997097D01*
X68548238Y-43997092D01*
X68370577Y-43858812D01*
X68370572Y-43858808D01*
X68172580Y-43751661D01*
X68172577Y-43751659D01*
X68172574Y-43751658D01*
X68172571Y-43751657D01*
X68172569Y-43751656D01*
X67959637Y-43678556D01*
X67737569Y-43641500D01*
X67512431Y-43641500D01*
X67290362Y-43678556D01*
X67077430Y-43751656D01*
X67077419Y-43751661D01*
X66879427Y-43858808D01*
X66879422Y-43858812D01*
X66701761Y-43997092D01*
X66701756Y-43997097D01*
X66549284Y-44162723D01*
X66549276Y-44162734D01*
X66458808Y-44301206D01*
X66405662Y-44346562D01*
X66336431Y-44355986D01*
X66273095Y-44326484D01*
X66251192Y-44301206D01*
X66175049Y-44184661D01*
X66160722Y-44162732D01*
X66160719Y-44162729D01*
X66160715Y-44162723D01*
X66008243Y-43997097D01*
X66008238Y-43997092D01*
X65830577Y-43858812D01*
X65830572Y-43858808D01*
X65632580Y-43751661D01*
X65632577Y-43751659D01*
X65632574Y-43751658D01*
X65632571Y-43751657D01*
X65632569Y-43751656D01*
X65419637Y-43678556D01*
X65197569Y-43641500D01*
X64972431Y-43641500D01*
X64750362Y-43678556D01*
X64537430Y-43751656D01*
X64537419Y-43751661D01*
X64339427Y-43858808D01*
X64339422Y-43858812D01*
X64161761Y-43997092D01*
X64161756Y-43997097D01*
X64009284Y-44162723D01*
X64009276Y-44162734D01*
X63915251Y-44306650D01*
X63862105Y-44352007D01*
X63792873Y-44361430D01*
X63729538Y-44331928D01*
X63709868Y-44309951D01*
X63583113Y-44128926D01*
X63583108Y-44128920D01*
X63416082Y-43961894D01*
X63222578Y-43826399D01*
X63008492Y-43726570D01*
X63008486Y-43726567D01*
X62795000Y-43669364D01*
X62795000Y-44564498D01*
X62687315Y-44515320D01*
X62580763Y-44500000D01*
X62509237Y-44500000D01*
X62402685Y-44515320D01*
X62295000Y-44564498D01*
X62295000Y-43669364D01*
X62294999Y-43669364D01*
X62081513Y-43726567D01*
X62081507Y-43726570D01*
X61867422Y-43826399D01*
X61867420Y-43826400D01*
X61673926Y-43961886D01*
X61673920Y-43961891D01*
X61506891Y-44128920D01*
X61506886Y-44128926D01*
X61371400Y-44322420D01*
X61371399Y-44322422D01*
X61271570Y-44536507D01*
X61271567Y-44536513D01*
X61214364Y-44749999D01*
X61214364Y-44750000D01*
X62111314Y-44750000D01*
X62085507Y-44790156D01*
X62045000Y-44928111D01*
X62045000Y-45071889D01*
X62085507Y-45209844D01*
X62111314Y-45250000D01*
X61214364Y-45250000D01*
X61271567Y-45463486D01*
X61271570Y-45463492D01*
X61371399Y-45677578D01*
X61506894Y-45871082D01*
X61673917Y-46038105D01*
X61854802Y-46164763D01*
X61898427Y-46219340D01*
X61905619Y-46288839D01*
X61874097Y-46351193D01*
X61842697Y-46375392D01*
X61799427Y-46398809D01*
X61799422Y-46398812D01*
X61621761Y-46537092D01*
X61621756Y-46537097D01*
X61469284Y-46702723D01*
X61469276Y-46702734D01*
X61346140Y-46891207D01*
X61255703Y-47097385D01*
X61200436Y-47315628D01*
X61200434Y-47315640D01*
X61181844Y-47539994D01*
X61181844Y-47540005D01*
X61200434Y-47764359D01*
X61200436Y-47764371D01*
X61255703Y-47982614D01*
X61346140Y-48188792D01*
X61469276Y-48377265D01*
X61469284Y-48377276D01*
X61621756Y-48542902D01*
X61621760Y-48542906D01*
X61799424Y-48681189D01*
X61799425Y-48681189D01*
X61799427Y-48681191D01*
X61900588Y-48735936D01*
X61997426Y-48788342D01*
X62210365Y-48861444D01*
X62432431Y-48898500D01*
X62657569Y-48898500D01*
X62879635Y-48861444D01*
X63092574Y-48788342D01*
X63290576Y-48681189D01*
X63306326Y-48668929D01*
X63371319Y-48643286D01*
X63439860Y-48656851D01*
X63470171Y-48679101D01*
X65066154Y-50275084D01*
X65071495Y-50281174D01*
X65080551Y-50292976D01*
X65089292Y-50304368D01*
X65092045Y-50307955D01*
X65120756Y-50329985D01*
X65120772Y-50329999D01*
X65162009Y-50361641D01*
X65170905Y-50368467D01*
X65211532Y-50399641D01*
X65350678Y-50457277D01*
X65462508Y-50472000D01*
X65462509Y-50472000D01*
X65464552Y-50472269D01*
X65464570Y-50472271D01*
X65499998Y-50476935D01*
X65500000Y-50476935D01*
X65500001Y-50476935D01*
X65513108Y-50475209D01*
X65533454Y-50472530D01*
X65541553Y-50472000D01*
X67450413Y-50472000D01*
X67517452Y-50491685D01*
X67538094Y-50508319D01*
X68291681Y-51261906D01*
X68325166Y-51323229D01*
X68328000Y-51349587D01*
X68328000Y-51903958D01*
X68308315Y-51970997D01*
X68255511Y-52016752D01*
X68186353Y-52026696D01*
X68138028Y-52008952D01*
X68020267Y-51934958D01*
X68020268Y-51934958D01*
X67864246Y-51880364D01*
X67700004Y-51861859D01*
X67699996Y-51861859D01*
X67535753Y-51880364D01*
X67379731Y-51934958D01*
X67239776Y-52022898D01*
X67122898Y-52139776D01*
X67034958Y-52279731D01*
X66980364Y-52435753D01*
X66961859Y-52599996D01*
X66961859Y-52600003D01*
X66980364Y-52764246D01*
X66980365Y-52764251D01*
X66980366Y-52764252D01*
X66983870Y-52774266D01*
X67034958Y-52920268D01*
X67099445Y-53022898D01*
X67122898Y-53060223D01*
X67239777Y-53177102D01*
X67244972Y-53180366D01*
X67376430Y-53262967D01*
X67379733Y-53265042D01*
X67535748Y-53319634D01*
X67535751Y-53319634D01*
X67535753Y-53319635D01*
X67699996Y-53338141D01*
X67700000Y-53338141D01*
X67700004Y-53338141D01*
X67864246Y-53319635D01*
X67864247Y-53319634D01*
X67864252Y-53319634D01*
X68020267Y-53265042D01*
X68160223Y-53177102D01*
X68212319Y-53125005D01*
X68273642Y-53091521D01*
X68343334Y-53096505D01*
X68387681Y-53125005D01*
X68439777Y-53177102D01*
X68444972Y-53180366D01*
X68576430Y-53262967D01*
X68579733Y-53265042D01*
X68735748Y-53319634D01*
X68735751Y-53319634D01*
X68735753Y-53319635D01*
X68899996Y-53338141D01*
X68900000Y-53338141D01*
X68900004Y-53338141D01*
X69064248Y-53319635D01*
X69064250Y-53319634D01*
X69064252Y-53319634D01*
X69104836Y-53305432D01*
X69174613Y-53301870D01*
X69235241Y-53336599D01*
X69267468Y-53398592D01*
X69269790Y-53422474D01*
X69269790Y-57200237D01*
X69269259Y-57208339D01*
X69264855Y-57241788D01*
X69269311Y-57275645D01*
X69269313Y-57275659D01*
X69281209Y-57366014D01*
X69284512Y-57391108D01*
X69284514Y-57391115D01*
X69342148Y-57530257D01*
X69342149Y-57530258D01*
X69406215Y-57613751D01*
X69433835Y-57649745D01*
X69460614Y-57670293D01*
X69466711Y-57675641D01*
X69926929Y-58135859D01*
X69953809Y-58176087D01*
X69992028Y-58268357D01*
X70000359Y-58288468D01*
X70092045Y-58407955D01*
X70211532Y-58499641D01*
X70211533Y-58499641D01*
X70211534Y-58499642D01*
X70323910Y-58546189D01*
X70364139Y-58573069D01*
X76666143Y-64875073D01*
X76671496Y-64881176D01*
X76671500Y-64881181D01*
X76692045Y-64907955D01*
X76722044Y-64930974D01*
X76722046Y-64930976D01*
X76755669Y-64956776D01*
X76811532Y-64999641D01*
X76950678Y-65057277D01*
X77062508Y-65072000D01*
X77062509Y-65072000D01*
X77064552Y-65072269D01*
X77064570Y-65072271D01*
X77099998Y-65076935D01*
X77100000Y-65076935D01*
X77100001Y-65076935D01*
X77113108Y-65075209D01*
X77133454Y-65072530D01*
X77141553Y-65072000D01*
X80958447Y-65072000D01*
X80966545Y-65072530D01*
X80986891Y-65075209D01*
X80999999Y-65076935D01*
X81000000Y-65076935D01*
X81035560Y-65072253D01*
X81035583Y-65072251D01*
X81037489Y-65072000D01*
X81037492Y-65072000D01*
X81149322Y-65057277D01*
X81288468Y-64999641D01*
X81344331Y-64956776D01*
X81351238Y-64951476D01*
X81389135Y-64922397D01*
X81389140Y-64922392D01*
X81407953Y-64907957D01*
X81407955Y-64907955D01*
X81428503Y-64881174D01*
X81433845Y-64875083D01*
X81764973Y-64543955D01*
X81826294Y-64510472D01*
X81895986Y-64515456D01*
X81918622Y-64526643D01*
X81936920Y-64538141D01*
X81979730Y-64565041D01*
X81979733Y-64565042D01*
X82135748Y-64619634D01*
X82135751Y-64619634D01*
X82135753Y-64619635D01*
X82299996Y-64638141D01*
X82300000Y-64638141D01*
X82300004Y-64638141D01*
X82464246Y-64619635D01*
X82464247Y-64619634D01*
X82464252Y-64619634D01*
X82620267Y-64565042D01*
X82760223Y-64477102D01*
X82877102Y-64360223D01*
X82965042Y-64220267D01*
X83019634Y-64064252D01*
X83020656Y-64055185D01*
X83038141Y-63900003D01*
X83038141Y-63899996D01*
X83026874Y-63800003D01*
X83361859Y-63800003D01*
X83380364Y-63964246D01*
X83434958Y-64120268D01*
X83511293Y-64241754D01*
X83522898Y-64260223D01*
X83639777Y-64377102D01*
X83722558Y-64429116D01*
X83779729Y-64465040D01*
X83779733Y-64465042D01*
X83935748Y-64519634D01*
X83935751Y-64519634D01*
X83935753Y-64519635D01*
X84099996Y-64538141D01*
X84100000Y-64538141D01*
X84100004Y-64538141D01*
X84264246Y-64519635D01*
X84264247Y-64519634D01*
X84264252Y-64519634D01*
X84420267Y-64465042D01*
X84525349Y-64399014D01*
X84592585Y-64380014D01*
X84659420Y-64400381D01*
X84679002Y-64416326D01*
X84739777Y-64477102D01*
X84807468Y-64519635D01*
X84864174Y-64555266D01*
X84879733Y-64565042D01*
X85035748Y-64619634D01*
X85035751Y-64619634D01*
X85035753Y-64619635D01*
X85199996Y-64638141D01*
X85200000Y-64638141D01*
X85200004Y-64638141D01*
X85364246Y-64619635D01*
X85364247Y-64619634D01*
X85364252Y-64619634D01*
X85520267Y-64565042D01*
X85660223Y-64477102D01*
X85777102Y-64360223D01*
X85865042Y-64220267D01*
X85919634Y-64064252D01*
X85920656Y-64055185D01*
X85938141Y-63900003D01*
X85938141Y-63899996D01*
X85919635Y-63735753D01*
X85919634Y-63735751D01*
X85919634Y-63735748D01*
X85865042Y-63579733D01*
X85777102Y-63439777D01*
X85660223Y-63322898D01*
X85625349Y-63300985D01*
X85520268Y-63234958D01*
X85364246Y-63180364D01*
X85200004Y-63161859D01*
X85199996Y-63161859D01*
X85035753Y-63180364D01*
X84879731Y-63234958D01*
X84879727Y-63234960D01*
X84774649Y-63300985D01*
X84707413Y-63319985D01*
X84640578Y-63299617D01*
X84620997Y-63283672D01*
X84560223Y-63222898D01*
X84420268Y-63134958D01*
X84264246Y-63080364D01*
X84100004Y-63061859D01*
X84099996Y-63061859D01*
X83935753Y-63080364D01*
X83779731Y-63134958D01*
X83639776Y-63222898D01*
X83522898Y-63339776D01*
X83434958Y-63479731D01*
X83380364Y-63635753D01*
X83361859Y-63799996D01*
X83361859Y-63800003D01*
X83026874Y-63800003D01*
X83019635Y-63735753D01*
X83019634Y-63735751D01*
X83019634Y-63735748D01*
X82965042Y-63579733D01*
X82877102Y-63439777D01*
X82848580Y-63411255D01*
X82815095Y-63349932D01*
X82820079Y-63280240D01*
X82848576Y-63235898D01*
X83141089Y-62943384D01*
X83202410Y-62909901D01*
X83269720Y-62914025D01*
X83285748Y-62919634D01*
X83285754Y-62919634D01*
X83285755Y-62919635D01*
X83449996Y-62938141D01*
X83450000Y-62938141D01*
X83450004Y-62938141D01*
X83614246Y-62919635D01*
X83614247Y-62919634D01*
X83614252Y-62919634D01*
X83770267Y-62865042D01*
X83888094Y-62791006D01*
X83954067Y-62772000D01*
X86511708Y-62772000D01*
X86578747Y-62791685D01*
X86599389Y-62808319D01*
X86691681Y-62900611D01*
X86725166Y-62961934D01*
X86728000Y-62988292D01*
X86728000Y-64503731D01*
X86708994Y-64569703D01*
X86634958Y-64687529D01*
X86580364Y-64843551D01*
X86561859Y-65007794D01*
X86561859Y-65007801D01*
X86580364Y-65172044D01*
X86634958Y-65328066D01*
X86721026Y-65465041D01*
X86722898Y-65468021D01*
X86839777Y-65584900D01*
X86922234Y-65636711D01*
X86971388Y-65667597D01*
X86979733Y-65672840D01*
X87135748Y-65727432D01*
X87135751Y-65727432D01*
X87135753Y-65727433D01*
X87299996Y-65745939D01*
X87300000Y-65745939D01*
X87300004Y-65745939D01*
X87464246Y-65727433D01*
X87464247Y-65727432D01*
X87464252Y-65727432D01*
X87620267Y-65672840D01*
X87760223Y-65584900D01*
X87877102Y-65468021D01*
X87965042Y-65328065D01*
X88019634Y-65172050D01*
X88019635Y-65172044D01*
X88021933Y-65165478D01*
X88023779Y-65166124D01*
X88053155Y-65113584D01*
X88114810Y-65080715D01*
X88184449Y-65086397D01*
X88239960Y-65128826D01*
X88244948Y-65136167D01*
X88285057Y-65199999D01*
X88322898Y-65260223D01*
X88439777Y-65377102D01*
X88476219Y-65400000D01*
X88576072Y-65462742D01*
X88579733Y-65465042D01*
X88735748Y-65519634D01*
X88735751Y-65519634D01*
X88735753Y-65519635D01*
X88899996Y-65538141D01*
X88900000Y-65538141D01*
X88900004Y-65538141D01*
X89064246Y-65519635D01*
X89064247Y-65519634D01*
X89064252Y-65519634D01*
X89220267Y-65465042D01*
X89220276Y-65465036D01*
X89222468Y-65463981D01*
X89224038Y-65463722D01*
X89226840Y-65462742D01*
X89227011Y-65463232D01*
X89291409Y-65452623D01*
X89355546Y-65480341D01*
X89394516Y-65538333D01*
X89399897Y-65565966D01*
X89405465Y-65636711D01*
X89421210Y-65702292D01*
X89460895Y-65867595D01*
X89460895Y-65867597D01*
X89551757Y-66086959D01*
X89551759Y-66086962D01*
X89675820Y-66289410D01*
X89675821Y-66289413D01*
X89675824Y-66289416D01*
X89830031Y-66469969D01*
X89921677Y-66548242D01*
X90010586Y-66624178D01*
X90010589Y-66624179D01*
X90213037Y-66748240D01*
X90213040Y-66748242D01*
X90432403Y-66839104D01*
X90432404Y-66839104D01*
X90432406Y-66839105D01*
X90663289Y-66894535D01*
X90900000Y-66913165D01*
X91136711Y-66894535D01*
X91367594Y-66839105D01*
X91367596Y-66839104D01*
X91367597Y-66839104D01*
X91586959Y-66748242D01*
X91586960Y-66748241D01*
X91586963Y-66748240D01*
X91789416Y-66624176D01*
X91969969Y-66469969D01*
X92124176Y-66289416D01*
X92248240Y-66086963D01*
X92249820Y-66083150D01*
X92339104Y-65867597D01*
X92339104Y-65867596D01*
X92339105Y-65867594D01*
X92394535Y-65636711D01*
X92413165Y-65400000D01*
X92394535Y-65163289D01*
X92380274Y-65103887D01*
X92383765Y-65034107D01*
X92424428Y-64977289D01*
X92489355Y-64951476D01*
X92557930Y-64964862D01*
X92588528Y-64987260D01*
X93001266Y-65399999D01*
X93391342Y-65790075D01*
X93401267Y-65802463D01*
X93401474Y-65802292D01*
X93406445Y-65808301D01*
X93457692Y-65856426D01*
X93478907Y-65877640D01*
X93484501Y-65881979D01*
X93488949Y-65885777D01*
X93523487Y-65918211D01*
X93523490Y-65918213D01*
X93523494Y-65918217D01*
X93523497Y-65918219D01*
X93523499Y-65918220D01*
X93541462Y-65928095D01*
X93557724Y-65938776D01*
X93559604Y-65940235D01*
X93573933Y-65951350D01*
X93617422Y-65970169D01*
X93622665Y-65972736D01*
X93664197Y-65995569D01*
X93664201Y-65995570D01*
X93684054Y-66000667D01*
X93702469Y-66006972D01*
X93721286Y-66015115D01*
X93721288Y-66015115D01*
X93721292Y-66015117D01*
X93760988Y-66021403D01*
X93824123Y-66051332D01*
X93848656Y-66083150D01*
X93849214Y-66082809D01*
X93975820Y-66289410D01*
X93975821Y-66289413D01*
X93975824Y-66289416D01*
X94130031Y-66469969D01*
X94221677Y-66548242D01*
X94310586Y-66624178D01*
X94310589Y-66624179D01*
X94513037Y-66748240D01*
X94513040Y-66748242D01*
X94732403Y-66839104D01*
X94732404Y-66839104D01*
X94732406Y-66839105D01*
X94963289Y-66894535D01*
X95200000Y-66913165D01*
X95436711Y-66894535D01*
X95667594Y-66839105D01*
X95667596Y-66839104D01*
X95667597Y-66839104D01*
X95886959Y-66748242D01*
X95886960Y-66748241D01*
X95886963Y-66748240D01*
X96089416Y-66624176D01*
X96269969Y-66469969D01*
X96424176Y-66289416D01*
X96548240Y-66086963D01*
X96549820Y-66083150D01*
X96639104Y-65867597D01*
X96639104Y-65867596D01*
X96639105Y-65867594D01*
X96694535Y-65636711D01*
X96713165Y-65400000D01*
X96694535Y-65163289D01*
X96680274Y-65103887D01*
X96683765Y-65034107D01*
X96724428Y-64977289D01*
X96789355Y-64951476D01*
X96857930Y-64964862D01*
X96888527Y-64987259D01*
X97247527Y-65346260D01*
X97591342Y-65690075D01*
X97601267Y-65702463D01*
X97601474Y-65702292D01*
X97606445Y-65708301D01*
X97657692Y-65756426D01*
X97678907Y-65777640D01*
X97684501Y-65781979D01*
X97688949Y-65785777D01*
X97723487Y-65818211D01*
X97723490Y-65818213D01*
X97723494Y-65818217D01*
X97723497Y-65818219D01*
X97723499Y-65818220D01*
X97741462Y-65828095D01*
X97757726Y-65838778D01*
X97773933Y-65851350D01*
X97817422Y-65870169D01*
X97822665Y-65872736D01*
X97864197Y-65895569D01*
X97864201Y-65895570D01*
X97884054Y-65900667D01*
X97902469Y-65906972D01*
X97921286Y-65915115D01*
X97921288Y-65915115D01*
X97921292Y-65915117D01*
X97954358Y-65920353D01*
X97968098Y-65922530D01*
X97973817Y-65923714D01*
X98019718Y-65935500D01*
X98040226Y-65935500D01*
X98059615Y-65937025D01*
X98071312Y-65938878D01*
X98134445Y-65968806D01*
X98157641Y-65996561D01*
X98275820Y-66189410D01*
X98275821Y-66189413D01*
X98275824Y-66189416D01*
X98430031Y-66369969D01*
X98531272Y-66456437D01*
X98610586Y-66524178D01*
X98610589Y-66524179D01*
X98813037Y-66648240D01*
X98813040Y-66648242D01*
X99032403Y-66739104D01*
X99032404Y-66739104D01*
X99032406Y-66739105D01*
X99263289Y-66794535D01*
X99500000Y-66813165D01*
X99736711Y-66794535D01*
X99967594Y-66739105D01*
X99967596Y-66739104D01*
X99967597Y-66739104D01*
X100186959Y-66648242D01*
X100186960Y-66648241D01*
X100186963Y-66648240D01*
X100389416Y-66524176D01*
X100569969Y-66369969D01*
X100724176Y-66189416D01*
X100848240Y-65986963D01*
X100854132Y-65972740D01*
X100939104Y-65767597D01*
X100939104Y-65767596D01*
X100939105Y-65767594D01*
X100994535Y-65536711D01*
X101013165Y-65300000D01*
X100994535Y-65063289D01*
X100939105Y-64832406D01*
X100939104Y-64832403D01*
X100939104Y-64832402D01*
X100848242Y-64613040D01*
X100848240Y-64613037D01*
X100808125Y-64547575D01*
X100724178Y-64410588D01*
X100724178Y-64410586D01*
X100663700Y-64339776D01*
X100578509Y-64240030D01*
X100549939Y-64176270D01*
X100560376Y-64107185D01*
X100606507Y-64054709D01*
X100672800Y-64035500D01*
X102085406Y-64035500D01*
X102152445Y-64055185D01*
X102173087Y-64071819D01*
X102725880Y-64624612D01*
X102759365Y-64685935D01*
X102758773Y-64741239D01*
X102707028Y-64956777D01*
X102705465Y-64963289D01*
X102693636Y-65113584D01*
X102686835Y-65199999D01*
X102705465Y-65436714D01*
X102760895Y-65667595D01*
X102760895Y-65667597D01*
X102851757Y-65886959D01*
X102851759Y-65886962D01*
X102975820Y-66089410D01*
X102975821Y-66089413D01*
X103010507Y-66130025D01*
X103130031Y-66269969D01*
X103247115Y-66369968D01*
X103310586Y-66424178D01*
X103310588Y-66424178D01*
X103427790Y-66496000D01*
X103513037Y-66548240D01*
X103513040Y-66548242D01*
X103732403Y-66639104D01*
X103732404Y-66639104D01*
X103732406Y-66639105D01*
X103963289Y-66694535D01*
X104200000Y-66713165D01*
X104436711Y-66694535D01*
X104667594Y-66639105D01*
X104667596Y-66639104D01*
X104667597Y-66639104D01*
X104886959Y-66548242D01*
X104886960Y-66548241D01*
X104886963Y-66548240D01*
X105089416Y-66424176D01*
X105269969Y-66269969D01*
X105424176Y-66089416D01*
X105441765Y-66060713D01*
X107880000Y-66060713D01*
X107895418Y-66212338D01*
X107956299Y-66406381D01*
X107956304Y-66406391D01*
X108055005Y-66584215D01*
X108055005Y-66584216D01*
X108187478Y-66738530D01*
X108187479Y-66738531D01*
X108348304Y-66863018D01*
X108530907Y-66952589D01*
X108630000Y-66978244D01*
X108630000Y-66176110D01*
X108654457Y-66215610D01*
X108743962Y-66283201D01*
X108851840Y-66313895D01*
X108963521Y-66303546D01*
X109063922Y-66253552D01*
X109130000Y-66181069D01*
X109130000Y-66983366D01*
X109131944Y-66983069D01*
X109131945Y-66983069D01*
X109322660Y-66912436D01*
X109322664Y-66912434D01*
X109495267Y-66804850D01*
X109642668Y-66664735D01*
X109642669Y-66664733D01*
X109758856Y-66497804D01*
X109839059Y-66310907D01*
X109880000Y-66111690D01*
X109880000Y-66060713D01*
X116520000Y-66060713D01*
X116535418Y-66212338D01*
X116596299Y-66406381D01*
X116596304Y-66406391D01*
X116695005Y-66584215D01*
X116695005Y-66584216D01*
X116827478Y-66738530D01*
X116827479Y-66738531D01*
X116988304Y-66863018D01*
X117170907Y-66952589D01*
X117270000Y-66978244D01*
X117270000Y-66176110D01*
X117294457Y-66215610D01*
X117383962Y-66283201D01*
X117491840Y-66313895D01*
X117603521Y-66303546D01*
X117703922Y-66253552D01*
X117770000Y-66181069D01*
X117770000Y-66983366D01*
X117771944Y-66983069D01*
X117771945Y-66983069D01*
X117962660Y-66912436D01*
X117962664Y-66912434D01*
X118135267Y-66804850D01*
X118282668Y-66664735D01*
X118282669Y-66664733D01*
X118398856Y-66497804D01*
X118479059Y-66310907D01*
X118520000Y-66111690D01*
X118520000Y-65860000D01*
X117820000Y-65860000D01*
X117820000Y-65360000D01*
X118520000Y-65360000D01*
X118520000Y-65159286D01*
X118504581Y-65007661D01*
X118443700Y-64813618D01*
X118443695Y-64813608D01*
X118344994Y-64635784D01*
X118344994Y-64635783D01*
X118212521Y-64481469D01*
X118212520Y-64481468D01*
X118051695Y-64356981D01*
X117869097Y-64267412D01*
X117769999Y-64241754D01*
X117769999Y-65043887D01*
X117745543Y-65004390D01*
X117656038Y-64936799D01*
X117548160Y-64906105D01*
X117436479Y-64916454D01*
X117336078Y-64966448D01*
X117269999Y-65038931D01*
X117269999Y-64236633D01*
X117269998Y-64236632D01*
X117268063Y-64236929D01*
X117268049Y-64236932D01*
X117077342Y-64307562D01*
X117077335Y-64307565D01*
X116904732Y-64415149D01*
X116757331Y-64555264D01*
X116757330Y-64555266D01*
X116641143Y-64722195D01*
X116560940Y-64909092D01*
X116520000Y-65108309D01*
X116520000Y-65360000D01*
X117220000Y-65360000D01*
X117220000Y-65860000D01*
X116520000Y-65860000D01*
X116520000Y-66060713D01*
X109880000Y-66060713D01*
X109880000Y-65860000D01*
X109180000Y-65860000D01*
X109180000Y-65360000D01*
X109880000Y-65360000D01*
X109880000Y-65159286D01*
X109864581Y-65007661D01*
X109803700Y-64813618D01*
X109803695Y-64813608D01*
X109704994Y-64635784D01*
X109704994Y-64635783D01*
X109572521Y-64481469D01*
X109572520Y-64481468D01*
X109411695Y-64356981D01*
X109229093Y-64267411D01*
X109130000Y-64241753D01*
X109130000Y-65043889D01*
X109105543Y-65004390D01*
X109016038Y-64936799D01*
X108908160Y-64906105D01*
X108796479Y-64916454D01*
X108696078Y-64966448D01*
X108629999Y-65038931D01*
X108629999Y-64236633D01*
X108629998Y-64236632D01*
X108628063Y-64236929D01*
X108628049Y-64236932D01*
X108437342Y-64307562D01*
X108437335Y-64307565D01*
X108264732Y-64415149D01*
X108117331Y-64555264D01*
X108117330Y-64555266D01*
X108001143Y-64722195D01*
X107920940Y-64909092D01*
X107880000Y-65108309D01*
X107880000Y-65360000D01*
X108580000Y-65360000D01*
X108580000Y-65860000D01*
X107880000Y-65860000D01*
X107880000Y-66060713D01*
X105441765Y-66060713D01*
X105548240Y-65886963D01*
X105548732Y-65885777D01*
X105639104Y-65667597D01*
X105639104Y-65667596D01*
X105639105Y-65667594D01*
X105694535Y-65436711D01*
X105713165Y-65200000D01*
X105694535Y-64963289D01*
X105639105Y-64732406D01*
X105639104Y-64732403D01*
X105639104Y-64732402D01*
X105548242Y-64513040D01*
X105548240Y-64513037D01*
X105424179Y-64310589D01*
X105424178Y-64310586D01*
X105370025Y-64247181D01*
X105269969Y-64130031D01*
X105150596Y-64028076D01*
X105089413Y-63975821D01*
X105089410Y-63975820D01*
X104886962Y-63851759D01*
X104886959Y-63851757D01*
X104667596Y-63760895D01*
X104436714Y-63705465D01*
X104200000Y-63686835D01*
X103963285Y-63705465D01*
X103741241Y-63758773D01*
X103671458Y-63755282D01*
X103624613Y-63725880D01*
X102908658Y-63009925D01*
X102898732Y-62997535D01*
X102898525Y-62997707D01*
X102893552Y-62991696D01*
X102842306Y-62943573D01*
X102821097Y-62922363D01*
X102815492Y-62918015D01*
X102811046Y-62914218D01*
X102776509Y-62881785D01*
X102776501Y-62881780D01*
X102758540Y-62871906D01*
X102742274Y-62861222D01*
X102728629Y-62850638D01*
X102726067Y-62848650D01*
X102726066Y-62848649D01*
X102726064Y-62848648D01*
X102682571Y-62829827D01*
X102677323Y-62827256D01*
X102635805Y-62804432D01*
X102635804Y-62804431D01*
X102635803Y-62804431D01*
X102615937Y-62799330D01*
X102597538Y-62793030D01*
X102578709Y-62784883D01*
X102578708Y-62784882D01*
X102531902Y-62777469D01*
X102526181Y-62776284D01*
X102480283Y-62764500D01*
X102480282Y-62764500D01*
X102459774Y-62764500D01*
X102440376Y-62762973D01*
X102429674Y-62761278D01*
X102420122Y-62759765D01*
X102420121Y-62759764D01*
X102372939Y-62764225D01*
X102367101Y-62764500D01*
X100302602Y-62764500D01*
X100235563Y-62744815D01*
X100189808Y-62692011D01*
X100179864Y-62622853D01*
X100208889Y-62559297D01*
X100229716Y-62540182D01*
X100237929Y-62534215D01*
X100372836Y-62436199D01*
X100492591Y-62303197D01*
X100582077Y-62148203D01*
X100626750Y-62010713D01*
X107880000Y-62010713D01*
X107895418Y-62162338D01*
X107956299Y-62356381D01*
X107956304Y-62356391D01*
X108055005Y-62534215D01*
X108055005Y-62534216D01*
X108187478Y-62688530D01*
X108187479Y-62688531D01*
X108348304Y-62813018D01*
X108530907Y-62902589D01*
X108630000Y-62928244D01*
X108630000Y-62126110D01*
X108654457Y-62165610D01*
X108743962Y-62233201D01*
X108851840Y-62263895D01*
X108963521Y-62253546D01*
X109063922Y-62203552D01*
X109130000Y-62131069D01*
X109130000Y-62933365D01*
X109131944Y-62933069D01*
X109131945Y-62933069D01*
X109322660Y-62862436D01*
X109322664Y-62862434D01*
X109495267Y-62754850D01*
X109642668Y-62614735D01*
X109642669Y-62614733D01*
X109758856Y-62447803D01*
X109765463Y-62432407D01*
X109809986Y-62378561D01*
X109876554Y-62357334D01*
X109944030Y-62375466D01*
X109954892Y-62382917D01*
X110019767Y-62432698D01*
X110159764Y-62490687D01*
X110272280Y-62505500D01*
X110272287Y-62505500D01*
X110347713Y-62505500D01*
X110347720Y-62505500D01*
X110460236Y-62490687D01*
X110600233Y-62432698D01*
X110720451Y-62340451D01*
X110812698Y-62220233D01*
X110870687Y-62080236D01*
X110890466Y-61930000D01*
X115509533Y-61930000D01*
X115529312Y-62080234D01*
X115529313Y-62080236D01*
X115557463Y-62148197D01*
X115587302Y-62220233D01*
X115679549Y-62340451D01*
X115799767Y-62432698D01*
X115939764Y-62490687D01*
X116052280Y-62505500D01*
X116052287Y-62505500D01*
X116127713Y-62505500D01*
X116127720Y-62505500D01*
X116240236Y-62490687D01*
X116380233Y-62432698D01*
X116447365Y-62381185D01*
X116512530Y-62355992D01*
X116580975Y-62370030D01*
X116630966Y-62418843D01*
X116631268Y-62419384D01*
X116695005Y-62534215D01*
X116695005Y-62534216D01*
X116827478Y-62688530D01*
X116827479Y-62688531D01*
X116988304Y-62813018D01*
X117170907Y-62902589D01*
X117270000Y-62928244D01*
X117269999Y-62126110D01*
X117294457Y-62165610D01*
X117383962Y-62233201D01*
X117491840Y-62263895D01*
X117603521Y-62253546D01*
X117703922Y-62203552D01*
X117770000Y-62131069D01*
X117770000Y-62933366D01*
X117771944Y-62933069D01*
X117771945Y-62933069D01*
X117962660Y-62862436D01*
X117962664Y-62862434D01*
X118135267Y-62754850D01*
X118282668Y-62614735D01*
X118282669Y-62614733D01*
X118398856Y-62447804D01*
X118479059Y-62260907D01*
X118520000Y-62061690D01*
X118520000Y-61660000D01*
X117820000Y-61660000D01*
X117820000Y-61160000D01*
X118520000Y-61160000D01*
X118520000Y-60809286D01*
X118504581Y-60657661D01*
X118443700Y-60463618D01*
X118443695Y-60463608D01*
X118344994Y-60285784D01*
X118344994Y-60285783D01*
X118212521Y-60131469D01*
X118212520Y-60131468D01*
X118051695Y-60006981D01*
X117869093Y-59917411D01*
X117769999Y-59891753D01*
X117769999Y-60693887D01*
X117745543Y-60654390D01*
X117656038Y-60586799D01*
X117548160Y-60556105D01*
X117436479Y-60566454D01*
X117336078Y-60616448D01*
X117269999Y-60688931D01*
X117269999Y-59886633D01*
X117268053Y-59886931D01*
X117268047Y-59886933D01*
X117077342Y-59957562D01*
X117077335Y-59957565D01*
X116904732Y-60065149D01*
X116757331Y-60205264D01*
X116757330Y-60205266D01*
X116641143Y-60372195D01*
X116560940Y-60559092D01*
X116520000Y-60758309D01*
X116520000Y-61299615D01*
X116500315Y-61366654D01*
X116447511Y-61412409D01*
X116378353Y-61422353D01*
X116348548Y-61414176D01*
X116240239Y-61369314D01*
X116240237Y-61369313D01*
X116240236Y-61369313D01*
X116220039Y-61366654D01*
X116127727Y-61354500D01*
X116127720Y-61354500D01*
X116052280Y-61354500D01*
X116052272Y-61354500D01*
X115939764Y-61369313D01*
X115939763Y-61369313D01*
X115799770Y-61427300D01*
X115799767Y-61427301D01*
X115799767Y-61427302D01*
X115679549Y-61519549D01*
X115600929Y-61622009D01*
X115587300Y-61639770D01*
X115529313Y-61779763D01*
X115529312Y-61779765D01*
X115509533Y-61929999D01*
X115509533Y-61930000D01*
X110890466Y-61930000D01*
X110870687Y-61779764D01*
X110812698Y-61639767D01*
X110720451Y-61519549D01*
X110600233Y-61427302D01*
X110600229Y-61427300D01*
X110511069Y-61390369D01*
X110460236Y-61369313D01*
X110440039Y-61366654D01*
X110347727Y-61354500D01*
X110347720Y-61354500D01*
X110272280Y-61354500D01*
X110272272Y-61354500D01*
X110159764Y-61369313D01*
X110159760Y-61369314D01*
X110051452Y-61414176D01*
X109981982Y-61421645D01*
X109919503Y-61390369D01*
X109883852Y-61330280D01*
X109880000Y-61299615D01*
X109880000Y-60809286D01*
X109864581Y-60657661D01*
X109803700Y-60463618D01*
X109803695Y-60463608D01*
X109704994Y-60285784D01*
X109704994Y-60285783D01*
X109572521Y-60131469D01*
X109572520Y-60131468D01*
X109411695Y-60006981D01*
X109229093Y-59917411D01*
X109130000Y-59891753D01*
X109130000Y-60693889D01*
X109105543Y-60654390D01*
X109016038Y-60586799D01*
X108908160Y-60556105D01*
X108796479Y-60566454D01*
X108696078Y-60616448D01*
X108629999Y-60688930D01*
X108630000Y-59886633D01*
X108628053Y-59886931D01*
X108628047Y-59886933D01*
X108437342Y-59957562D01*
X108437335Y-59957565D01*
X108264732Y-60065149D01*
X108117331Y-60205264D01*
X108117330Y-60205266D01*
X108001143Y-60372195D01*
X107920940Y-60559092D01*
X107880000Y-60758309D01*
X107880000Y-61160000D01*
X108580000Y-61160000D01*
X108580000Y-61660000D01*
X107880000Y-61660000D01*
X107880000Y-62010713D01*
X100626750Y-62010713D01*
X100637382Y-61977991D01*
X100656090Y-61800000D01*
X100637382Y-61622009D01*
X100591154Y-61479733D01*
X100582079Y-61451802D01*
X100582076Y-61451796D01*
X100492591Y-61296803D01*
X100382526Y-61174563D01*
X100372837Y-61163802D01*
X100344683Y-61143347D01*
X100260573Y-61082237D01*
X100228043Y-61058602D01*
X100064544Y-60985809D01*
X99924964Y-60956141D01*
X99889486Y-60948600D01*
X99710514Y-60948600D01*
X99675036Y-60956141D01*
X99535455Y-60985809D01*
X99535454Y-60985809D01*
X99371954Y-61058603D01*
X99371953Y-61058604D01*
X99222885Y-61166909D01*
X99157079Y-61190389D01*
X99089025Y-61174563D01*
X99077115Y-61166909D01*
X98928046Y-61058604D01*
X98928045Y-61058603D01*
X98764544Y-60985809D01*
X98624964Y-60956141D01*
X98589486Y-60948600D01*
X98410514Y-60948600D01*
X98410513Y-60948600D01*
X98272552Y-60977924D01*
X98202885Y-60972608D01*
X98147152Y-60930471D01*
X98123552Y-60870517D01*
X98119635Y-60835753D01*
X98119634Y-60835751D01*
X98119634Y-60835748D01*
X98065042Y-60679733D01*
X98063947Y-60677991D01*
X97989238Y-60559092D01*
X97977102Y-60539777D01*
X97907790Y-60470465D01*
X97874305Y-60409142D01*
X97879289Y-60339450D01*
X97907788Y-60295106D01*
X99708576Y-58494319D01*
X99769900Y-58460834D01*
X99796258Y-58458000D01*
X103766430Y-58458000D01*
X103833469Y-58477685D01*
X103879224Y-58530489D01*
X103889168Y-58599647D01*
X103860143Y-58663203D01*
X103839317Y-58682316D01*
X103793581Y-58715546D01*
X103727162Y-58763802D01*
X103607408Y-58896804D01*
X103517923Y-59051796D01*
X103517920Y-59051802D01*
X103462619Y-59222004D01*
X103462618Y-59222006D01*
X103443910Y-59400000D01*
X103462812Y-59579837D01*
X103450243Y-59648567D01*
X103402511Y-59699591D01*
X103389927Y-59706078D01*
X103271959Y-59758601D01*
X103271958Y-59758601D01*
X103127162Y-59863802D01*
X103007408Y-59996804D01*
X102917923Y-60151796D01*
X102917920Y-60151802D01*
X102862619Y-60322004D01*
X102862618Y-60322006D01*
X102843910Y-60500000D01*
X102862618Y-60677993D01*
X102862619Y-60677995D01*
X102917920Y-60848197D01*
X102917923Y-60848203D01*
X103007409Y-61003197D01*
X103062378Y-61064246D01*
X103126046Y-61134958D01*
X103127164Y-61136199D01*
X103201750Y-61190389D01*
X103271956Y-61241397D01*
X103362661Y-61281780D01*
X103435454Y-61314190D01*
X103610514Y-61351400D01*
X103610515Y-61351400D01*
X103789484Y-61351400D01*
X103789486Y-61351400D01*
X103964546Y-61314190D01*
X104128045Y-61241396D01*
X104272836Y-61136199D01*
X104392591Y-61003197D01*
X104482077Y-60848203D01*
X104537382Y-60677991D01*
X104556090Y-60500000D01*
X104537382Y-60322009D01*
X104537380Y-60322005D01*
X104537187Y-60320161D01*
X104549756Y-60251431D01*
X104597488Y-60200407D01*
X104610063Y-60193924D01*
X104728045Y-60141396D01*
X104872836Y-60036199D01*
X104992591Y-59903197D01*
X105082077Y-59748203D01*
X105137382Y-59577991D01*
X105156090Y-59400000D01*
X105137382Y-59222009D01*
X105091674Y-59081334D01*
X105082079Y-59051802D01*
X105082076Y-59051796D01*
X105080002Y-59048203D01*
X104992591Y-58896803D01*
X104872836Y-58763801D01*
X104760683Y-58682317D01*
X104718019Y-58626988D01*
X104712040Y-58557375D01*
X104744646Y-58495580D01*
X104805485Y-58461222D01*
X104833570Y-58458000D01*
X105527300Y-58458000D01*
X105594339Y-58477685D01*
X105632294Y-58516028D01*
X105711389Y-58641907D01*
X105722898Y-58660223D01*
X105839777Y-58777102D01*
X105853636Y-58785810D01*
X105978475Y-58864252D01*
X105979733Y-58865042D01*
X106135748Y-58919634D01*
X106135751Y-58919634D01*
X106135753Y-58919635D01*
X106299996Y-58938141D01*
X106300000Y-58938141D01*
X106300004Y-58938141D01*
X106464246Y-58919635D01*
X106464247Y-58919634D01*
X106464252Y-58919634D01*
X106620267Y-58865042D01*
X106760223Y-58777102D01*
X106877102Y-58660223D01*
X106965042Y-58520267D01*
X107019634Y-58364252D01*
X107021037Y-58351797D01*
X107025283Y-58314118D01*
X107052349Y-58249703D01*
X107109943Y-58210148D01*
X107148503Y-58204000D01*
X109416968Y-58204000D01*
X109425068Y-58204530D01*
X109459517Y-58209066D01*
X109507139Y-58215336D01*
X109507140Y-58215336D01*
X109507141Y-58215336D01*
X109526551Y-58212780D01*
X109540599Y-58210930D01*
X109548699Y-58210400D01*
X110745556Y-58210400D01*
X110812595Y-58230085D01*
X110858350Y-58282889D01*
X110868294Y-58352047D01*
X110839269Y-58415603D01*
X110795991Y-58447680D01*
X110671956Y-58502902D01*
X110527162Y-58608102D01*
X110407408Y-58741104D01*
X110317923Y-58896096D01*
X110317920Y-58896102D01*
X110262619Y-59066304D01*
X110262618Y-59066306D01*
X110243910Y-59244299D01*
X110262618Y-59422293D01*
X110262619Y-59422295D01*
X110317920Y-59592497D01*
X110317923Y-59592503D01*
X110407409Y-59747497D01*
X110527164Y-59880499D01*
X110588852Y-59925318D01*
X110671956Y-59985697D01*
X110719762Y-60006981D01*
X110835454Y-60058490D01*
X111010514Y-60095700D01*
X111010515Y-60095700D01*
X111145450Y-60095700D01*
X111212489Y-60115385D01*
X111237600Y-60136728D01*
X111327162Y-60236197D01*
X111327164Y-60236199D01*
X111395412Y-60285784D01*
X111471956Y-60341397D01*
X111532778Y-60368476D01*
X111635454Y-60414190D01*
X111810514Y-60451400D01*
X111810515Y-60451400D01*
X111989484Y-60451400D01*
X111989486Y-60451400D01*
X112164546Y-60414190D01*
X112320986Y-60344539D01*
X112328043Y-60341397D01*
X112328043Y-60341396D01*
X112328045Y-60341396D01*
X112472836Y-60236199D01*
X112592591Y-60103197D01*
X112682077Y-59948203D01*
X112737382Y-59777991D01*
X112756090Y-59600000D01*
X112737382Y-59422009D01*
X112709500Y-59336197D01*
X112682079Y-59251802D01*
X112682076Y-59251796D01*
X112652172Y-59200000D01*
X114743910Y-59200000D01*
X114762618Y-59377993D01*
X114762619Y-59377995D01*
X114817920Y-59548197D01*
X114817923Y-59548203D01*
X114907409Y-59703197D01*
X115027164Y-59836199D01*
X115112973Y-59898543D01*
X115171956Y-59941397D01*
X115208271Y-59957565D01*
X115335454Y-60014190D01*
X115510514Y-60051400D01*
X115510515Y-60051400D01*
X115689484Y-60051400D01*
X115689486Y-60051400D01*
X115864546Y-60014190D01*
X116028045Y-59941396D01*
X116172836Y-59836199D01*
X116292591Y-59703197D01*
X116360357Y-59585822D01*
X116410924Y-59537607D01*
X116479531Y-59524384D01*
X116493519Y-59526532D01*
X116610514Y-59551400D01*
X116610515Y-59551400D01*
X116789484Y-59551400D01*
X116789486Y-59551400D01*
X116964546Y-59514190D01*
X117128045Y-59441396D01*
X117272836Y-59336199D01*
X117392591Y-59203197D01*
X117482077Y-59048203D01*
X117537382Y-58877991D01*
X117556090Y-58700000D01*
X117537382Y-58522009D01*
X117500324Y-58407955D01*
X117482079Y-58351802D01*
X117482076Y-58351796D01*
X117480231Y-58348600D01*
X117392591Y-58196803D01*
X117272836Y-58063801D01*
X117224572Y-58028735D01*
X117128043Y-57958602D01*
X116964544Y-57885809D01*
X116836738Y-57858643D01*
X116789486Y-57848600D01*
X116610514Y-57848600D01*
X116573305Y-57856508D01*
X116435455Y-57885809D01*
X116435454Y-57885809D01*
X116271956Y-57958602D01*
X116127162Y-58063802D01*
X116007407Y-58196804D01*
X115939643Y-58314176D01*
X115889076Y-58362392D01*
X115820469Y-58375614D01*
X115806477Y-58373467D01*
X115689486Y-58348600D01*
X115510514Y-58348600D01*
X115473305Y-58356508D01*
X115335455Y-58385809D01*
X115335454Y-58385809D01*
X115171956Y-58458602D01*
X115027162Y-58563802D01*
X114907408Y-58696804D01*
X114817923Y-58851796D01*
X114817920Y-58851802D01*
X114762619Y-59022004D01*
X114762618Y-59022006D01*
X114743910Y-59200000D01*
X112652172Y-59200000D01*
X112592591Y-59096803D01*
X112472836Y-58963801D01*
X112412047Y-58919635D01*
X112328043Y-58858602D01*
X112164544Y-58785809D01*
X112036738Y-58758643D01*
X111989486Y-58748600D01*
X111854550Y-58748600D01*
X111787511Y-58728915D01*
X111762400Y-58707572D01*
X111672837Y-58608102D01*
X111667762Y-58604415D01*
X111573251Y-58535748D01*
X111528043Y-58502902D01*
X111404009Y-58447680D01*
X111350772Y-58402430D01*
X111330450Y-58335581D01*
X111349495Y-58268357D01*
X111401861Y-58222101D01*
X111454444Y-58210400D01*
X113593727Y-58210400D01*
X113601825Y-58210930D01*
X113622171Y-58213609D01*
X113635279Y-58215335D01*
X113635280Y-58215335D01*
X113670840Y-58210653D01*
X113670863Y-58210651D01*
X113672769Y-58210400D01*
X113672772Y-58210400D01*
X113784602Y-58195677D01*
X113923748Y-58138041D01*
X113943483Y-58122898D01*
X113946914Y-58120265D01*
X114024415Y-58060797D01*
X114024420Y-58060792D01*
X114043233Y-58046357D01*
X114043235Y-58046355D01*
X114063783Y-58019574D01*
X114069125Y-58013483D01*
X115313484Y-56769124D01*
X115319574Y-56763783D01*
X115346355Y-56743235D01*
X115378153Y-56701796D01*
X115438041Y-56623748D01*
X115495677Y-56484602D01*
X115515336Y-56335280D01*
X115510928Y-56301804D01*
X115510399Y-56293735D01*
X115510399Y-54799890D01*
X115530084Y-54732852D01*
X115546718Y-54712210D01*
X115861924Y-54397004D01*
X116260091Y-53998837D01*
X116266174Y-53993503D01*
X116292955Y-53972955D01*
X116294694Y-53970689D01*
X116317134Y-53941447D01*
X116324148Y-53932303D01*
X116329245Y-53925661D01*
X116385669Y-53884456D01*
X116387232Y-53883907D01*
X116432574Y-53868342D01*
X116630576Y-53761189D01*
X116808240Y-53622906D01*
X116917295Y-53504442D01*
X116960715Y-53457276D01*
X116960715Y-53457274D01*
X116960722Y-53457268D01*
X117051193Y-53318791D01*
X117104336Y-53273437D01*
X117173567Y-53264013D01*
X117236903Y-53293515D01*
X117258807Y-53318793D01*
X117349276Y-53457265D01*
X117349284Y-53457276D01*
X117489843Y-53609961D01*
X117501760Y-53622906D01*
X117679424Y-53761189D01*
X117679425Y-53761189D01*
X117679427Y-53761191D01*
X117745233Y-53796803D01*
X117877426Y-53868342D01*
X118090365Y-53941444D01*
X118252187Y-53968447D01*
X118315073Y-53998897D01*
X118351512Y-54058512D01*
X118349937Y-54128364D01*
X118310848Y-54186276D01*
X118282216Y-54204034D01*
X118271961Y-54208600D01*
X118271958Y-54208601D01*
X118127162Y-54313802D01*
X118007408Y-54446804D01*
X117917923Y-54601796D01*
X117917920Y-54601802D01*
X117862619Y-54772004D01*
X117862618Y-54772006D01*
X117844427Y-54945080D01*
X117843910Y-54950000D01*
X117847210Y-54981400D01*
X117862618Y-55127993D01*
X117862619Y-55127995D01*
X117911384Y-55278080D01*
X117913379Y-55347922D01*
X117877298Y-55407754D01*
X117819234Y-55437688D01*
X117710455Y-55460809D01*
X117710454Y-55460809D01*
X117546956Y-55533602D01*
X117402162Y-55638802D01*
X117282408Y-55771804D01*
X117192923Y-55926796D01*
X117192920Y-55926802D01*
X117137619Y-56097004D01*
X117137618Y-56097006D01*
X117118910Y-56274999D01*
X117137618Y-56452993D01*
X117137619Y-56452995D01*
X117192920Y-56623197D01*
X117192923Y-56623203D01*
X117282409Y-56778197D01*
X117402164Y-56911199D01*
X117496490Y-56979731D01*
X117546956Y-57016397D01*
X117637661Y-57056780D01*
X117710454Y-57089190D01*
X117885514Y-57126400D01*
X117885515Y-57126400D01*
X118064484Y-57126400D01*
X118064486Y-57126400D01*
X118239546Y-57089190D01*
X118403045Y-57016396D01*
X118547836Y-56911199D01*
X118667591Y-56778197D01*
X118757077Y-56623203D01*
X118812382Y-56452991D01*
X118831090Y-56275000D01*
X118812382Y-56097009D01*
X118763614Y-55946918D01*
X118761620Y-55877078D01*
X118797700Y-55817245D01*
X118855760Y-55787313D01*
X118964546Y-55764190D01*
X119128045Y-55691396D01*
X119129473Y-55690358D01*
X119130440Y-55690013D01*
X119133676Y-55688145D01*
X119134017Y-55688736D01*
X119195275Y-55666873D01*
X119252797Y-55677389D01*
X119335454Y-55714190D01*
X119510514Y-55751400D01*
X119510515Y-55751400D01*
X119689484Y-55751400D01*
X119689486Y-55751400D01*
X119864546Y-55714190D01*
X120006499Y-55650989D01*
X120025065Y-55642723D01*
X120094315Y-55633439D01*
X120157592Y-55663068D01*
X120194804Y-55722203D01*
X120199500Y-55756003D01*
X120199500Y-65997338D01*
X120197403Y-66114822D01*
X120196781Y-66122547D01*
X120163668Y-66352856D01*
X120159907Y-66370143D01*
X120096518Y-66586029D01*
X120090335Y-66602607D01*
X119996867Y-66807273D01*
X119988388Y-66822801D01*
X119866743Y-67012082D01*
X119856141Y-67026245D01*
X119708801Y-67196285D01*
X119696291Y-67208795D01*
X119526247Y-67356139D01*
X119512084Y-67366741D01*
X119322797Y-67488390D01*
X119307268Y-67496869D01*
X119102599Y-67590338D01*
X119086022Y-67596521D01*
X118870149Y-67659906D01*
X118852862Y-67663667D01*
X118622543Y-67696781D01*
X118614819Y-67697403D01*
X118497305Y-67699500D01*
X62502663Y-67699500D01*
X62385176Y-67697403D01*
X62377451Y-67696781D01*
X62147142Y-67663668D01*
X62129855Y-67659907D01*
X61913969Y-67596518D01*
X61897391Y-67590335D01*
X61692725Y-67496867D01*
X61677197Y-67488388D01*
X61487916Y-67366743D01*
X61473760Y-67356146D01*
X61303712Y-67208800D01*
X61291203Y-67196291D01*
X61143859Y-67026247D01*
X61133257Y-67012084D01*
X61111478Y-66978196D01*
X61011602Y-66822787D01*
X61003129Y-66807268D01*
X61002140Y-66805103D01*
X60909659Y-66602597D01*
X60903480Y-66586029D01*
X60840091Y-66370143D01*
X60836331Y-66352862D01*
X60836330Y-66352856D01*
X60803216Y-66122542D01*
X60802595Y-66114829D01*
X60800500Y-65997304D01*
X60800500Y-63500003D01*
X68761859Y-63500003D01*
X68780364Y-63664246D01*
X68834958Y-63820268D01*
X68863092Y-63865042D01*
X68922898Y-63960223D01*
X69039777Y-64077102D01*
X69117327Y-64125830D01*
X69165848Y-64156318D01*
X69179733Y-64165042D01*
X69335748Y-64219634D01*
X69335751Y-64219634D01*
X69335753Y-64219635D01*
X69499996Y-64238141D01*
X69500000Y-64238141D01*
X69500004Y-64238141D01*
X69664246Y-64219635D01*
X69664247Y-64219634D01*
X69664252Y-64219634D01*
X69820267Y-64165042D01*
X69960223Y-64077102D01*
X70077102Y-63960223D01*
X70165042Y-63820267D01*
X70219634Y-63664252D01*
X70229157Y-63579733D01*
X70238141Y-63500003D01*
X70238141Y-63499996D01*
X70219635Y-63335753D01*
X70219634Y-63335751D01*
X70219634Y-63335748D01*
X70165042Y-63179733D01*
X70077102Y-63039777D01*
X69960223Y-62922898D01*
X69946103Y-62914026D01*
X69820268Y-62834958D01*
X69664246Y-62780364D01*
X69500004Y-62761859D01*
X69499996Y-62761859D01*
X69335753Y-62780364D01*
X69179731Y-62834958D01*
X69039776Y-62922898D01*
X68922898Y-63039776D01*
X68834958Y-63179731D01*
X68780364Y-63335753D01*
X68761859Y-63499996D01*
X68761859Y-63500003D01*
X60800500Y-63500003D01*
X60800500Y-45002704D01*
X60802595Y-44885164D01*
X60803217Y-44877450D01*
X60808324Y-44841934D01*
X60836331Y-44647136D01*
X60840091Y-44629853D01*
X60867120Y-44537803D01*
X60903482Y-44413963D01*
X60909664Y-44397392D01*
X60926088Y-44361430D01*
X61003133Y-44192722D01*
X61011606Y-44177204D01*
X61133254Y-43987916D01*
X61143848Y-43973763D01*
X61291205Y-43803704D01*
X61303704Y-43791205D01*
X61473770Y-43643842D01*
X61487896Y-43633267D01*
X61677213Y-43511600D01*
X61692713Y-43503137D01*
X61897410Y-43409655D01*
X61913963Y-43403481D01*
X62129857Y-43340090D01*
X62147129Y-43336332D01*
X62377457Y-43303216D01*
X62385168Y-43302595D01*
X62499845Y-43300550D01*
X62502697Y-43300500D01*
X118497296Y-43300500D01*
X118614833Y-43302595D01*
G37*
G04 #@! TD.AperFunction*
G04 #@! TA.AperFunction,Conductor*
G36*
X78347334Y-61266194D02*
G01*
X78403267Y-61308066D01*
X78427684Y-61373530D01*
X78428000Y-61382376D01*
X78428000Y-63295932D01*
X78408994Y-63361904D01*
X78334958Y-63479731D01*
X78280364Y-63635753D01*
X78261859Y-63799996D01*
X78261859Y-63804000D01*
X78261127Y-63806492D01*
X78261079Y-63806919D01*
X78261004Y-63806910D01*
X78242174Y-63871039D01*
X78189370Y-63916794D01*
X78137859Y-63928000D01*
X77388292Y-63928000D01*
X77321253Y-63908315D01*
X77300611Y-63891681D01*
X76192611Y-62783681D01*
X76159126Y-62722358D01*
X76164110Y-62652666D01*
X76205982Y-62596733D01*
X76271446Y-62572316D01*
X76280292Y-62572000D01*
X76660532Y-62572000D01*
X76668630Y-62572530D01*
X76688976Y-62575209D01*
X76702084Y-62576935D01*
X76702085Y-62576935D01*
X76737645Y-62572253D01*
X76737668Y-62572251D01*
X76739574Y-62572000D01*
X76739577Y-62572000D01*
X76851407Y-62557277D01*
X76990553Y-62499641D01*
X77028075Y-62484099D01*
X77051727Y-62452699D01*
X77080039Y-62430976D01*
X77080039Y-62430975D01*
X77091215Y-62422400D01*
X77091217Y-62422397D01*
X77110040Y-62407955D01*
X77130588Y-62381174D01*
X77135930Y-62375083D01*
X78216319Y-61294694D01*
X78277642Y-61261210D01*
X78347334Y-61266194D01*
G37*
G04 #@! TD.AperFunction*
G04 #@! TA.AperFunction,Conductor*
G36*
X69739325Y-50395106D02*
G01*
X69797678Y-50419277D01*
X69886227Y-50430935D01*
X69946999Y-50438936D01*
X69947000Y-50438936D01*
X69947001Y-50438936D01*
X69977215Y-50434958D01*
X69980459Y-50434530D01*
X69988559Y-50434000D01*
X72718448Y-50434000D01*
X72785487Y-50453685D01*
X72806129Y-50470319D01*
X77998182Y-55662372D01*
X78031666Y-55723693D01*
X78034500Y-55750051D01*
X78034500Y-58562862D01*
X78033969Y-58570959D01*
X78029565Y-58604415D01*
X78030507Y-58611571D01*
X78034021Y-58638270D01*
X78034023Y-58638285D01*
X78042148Y-58699996D01*
X78044195Y-58715546D01*
X78048885Y-58751173D01*
X78049223Y-58753735D01*
X78049224Y-58753740D01*
X78106858Y-58892882D01*
X78127386Y-58919634D01*
X78161276Y-58963801D01*
X78198545Y-59012370D01*
X78207910Y-59019556D01*
X78225318Y-59032914D01*
X78231413Y-59038258D01*
X78512789Y-59319634D01*
X78715974Y-59522819D01*
X78749459Y-59584142D01*
X78744475Y-59653834D01*
X78702603Y-59709767D01*
X78637139Y-59734184D01*
X78628293Y-59734500D01*
X78437144Y-59734500D01*
X78429044Y-59733969D01*
X78414996Y-59732119D01*
X78395586Y-59729564D01*
X78395584Y-59729564D01*
X78246263Y-59749223D01*
X78246259Y-59749224D01*
X78107118Y-59806857D01*
X78107116Y-59806859D01*
X78020138Y-59873600D01*
X77987630Y-59898543D01*
X77967085Y-59925318D01*
X77961733Y-59931420D01*
X76501474Y-61391681D01*
X76440151Y-61425166D01*
X76413793Y-61428000D01*
X75288292Y-61428000D01*
X75221253Y-61408315D01*
X75200611Y-61391681D01*
X71808319Y-57999388D01*
X71774834Y-57938065D01*
X71772000Y-57911707D01*
X71772000Y-54904066D01*
X71791005Y-54838095D01*
X71865042Y-54720267D01*
X71919634Y-54564252D01*
X71919672Y-54563914D01*
X71938141Y-54400003D01*
X71938141Y-54399996D01*
X71919635Y-54235753D01*
X71919634Y-54235751D01*
X71919634Y-54235748D01*
X71865042Y-54079733D01*
X71777102Y-53939777D01*
X71660223Y-53822898D01*
X71562017Y-53761191D01*
X71520268Y-53734958D01*
X71364246Y-53680364D01*
X71200004Y-53661859D01*
X71199996Y-53661859D01*
X71035753Y-53680364D01*
X70879731Y-53734958D01*
X70739776Y-53822898D01*
X70625471Y-53937204D01*
X70564148Y-53970689D01*
X70494456Y-53965705D01*
X70438523Y-53923833D01*
X70414106Y-53858369D01*
X70413790Y-53849523D01*
X70413790Y-52600003D01*
X70961859Y-52600003D01*
X70980364Y-52764246D01*
X70980365Y-52764251D01*
X70980366Y-52764252D01*
X70983870Y-52774266D01*
X71034958Y-52920268D01*
X71099445Y-53022898D01*
X71122898Y-53060223D01*
X71239777Y-53177102D01*
X71244972Y-53180366D01*
X71376430Y-53262967D01*
X71379733Y-53265042D01*
X71535748Y-53319634D01*
X71535751Y-53319634D01*
X71535753Y-53319635D01*
X71699996Y-53338141D01*
X71700000Y-53338141D01*
X71700004Y-53338141D01*
X71864246Y-53319635D01*
X71864247Y-53319634D01*
X71864252Y-53319634D01*
X72020267Y-53265042D01*
X72160223Y-53177102D01*
X72277102Y-53060223D01*
X72365042Y-52920267D01*
X72419634Y-52764252D01*
X72419635Y-52764246D01*
X72438141Y-52600003D01*
X72438141Y-52599996D01*
X72419635Y-52435753D01*
X72419634Y-52435751D01*
X72419634Y-52435748D01*
X72365042Y-52279733D01*
X72363947Y-52277991D01*
X72318995Y-52206450D01*
X72277102Y-52139777D01*
X72160223Y-52022898D01*
X72094235Y-51981435D01*
X72020268Y-51934958D01*
X71864246Y-51880364D01*
X71700004Y-51861859D01*
X71699996Y-51861859D01*
X71535753Y-51880364D01*
X71379731Y-51934958D01*
X71239776Y-52022898D01*
X71122898Y-52139776D01*
X71034958Y-52279731D01*
X70980364Y-52435753D01*
X70961859Y-52599996D01*
X70961859Y-52600003D01*
X70413790Y-52600003D01*
X70413790Y-51685433D01*
X70414321Y-51677332D01*
X70414352Y-51677101D01*
X70418726Y-51643875D01*
X70399067Y-51494553D01*
X70341431Y-51355407D01*
X70297192Y-51297754D01*
X70271789Y-51264647D01*
X70271775Y-51264631D01*
X70249745Y-51235920D01*
X70249743Y-51235919D01*
X70249743Y-51235918D01*
X70222966Y-51215371D01*
X70216863Y-51210018D01*
X69604194Y-50597349D01*
X69570709Y-50536026D01*
X69575693Y-50466334D01*
X69617565Y-50410401D01*
X69683029Y-50385984D01*
X69739325Y-50395106D01*
G37*
G04 #@! TD.AperFunction*
G04 #@! TA.AperFunction,Conductor*
G36*
X96916903Y-48213515D02*
G01*
X96938807Y-48238793D01*
X97029276Y-48377265D01*
X97029284Y-48377276D01*
X97181756Y-48542902D01*
X97181760Y-48542906D01*
X97359424Y-48681189D01*
X97359425Y-48681189D01*
X97359427Y-48681191D01*
X97460588Y-48735936D01*
X97557426Y-48788342D01*
X97596101Y-48801619D01*
X97656964Y-48822514D01*
X97713980Y-48862900D01*
X97740110Y-48927699D01*
X97727058Y-48996339D01*
X97704382Y-49027476D01*
X93447182Y-53284676D01*
X93385859Y-53318161D01*
X93316167Y-53313177D01*
X93260234Y-53271305D01*
X93254507Y-53262967D01*
X93236258Y-53233924D01*
X93177102Y-53139777D01*
X93060223Y-53022898D01*
X93014582Y-52994220D01*
X92920268Y-52934958D01*
X92764246Y-52880364D01*
X92600004Y-52861859D01*
X92599996Y-52861859D01*
X92435753Y-52880364D01*
X92279731Y-52934958D01*
X92139776Y-53022898D01*
X92022898Y-53139776D01*
X91934958Y-53279731D01*
X91905092Y-53365084D01*
X91884863Y-53422898D01*
X91880364Y-53435755D01*
X91879830Y-53438095D01*
X91879069Y-53439453D01*
X91878067Y-53442320D01*
X91877564Y-53442144D01*
X91845720Y-53499073D01*
X91784058Y-53531929D01*
X91758940Y-53534500D01*
X91035053Y-53534500D01*
X91026954Y-53533969D01*
X91004636Y-53531031D01*
X90993501Y-53529565D01*
X90993500Y-53529565D01*
X90989220Y-53530128D01*
X90960147Y-53533955D01*
X90960134Y-53533957D01*
X90956009Y-53534500D01*
X90956008Y-53534500D01*
X90899659Y-53541918D01*
X90757127Y-53560683D01*
X90727085Y-53570074D01*
X90635753Y-53580364D01*
X90479731Y-53634958D01*
X90339776Y-53722898D01*
X90222898Y-53839776D01*
X90134958Y-53979731D01*
X90080364Y-54135753D01*
X90061859Y-54299996D01*
X90061859Y-54300003D01*
X90080364Y-54464246D01*
X90080365Y-54464251D01*
X90080366Y-54464252D01*
X90085174Y-54477993D01*
X90131031Y-54609046D01*
X90134592Y-54678825D01*
X90131031Y-54690954D01*
X90080364Y-54835753D01*
X90061859Y-54999996D01*
X90061859Y-55000003D01*
X90080364Y-55164246D01*
X90134958Y-55320268D01*
X90199886Y-55423600D01*
X90222898Y-55460223D01*
X90274994Y-55512319D01*
X90308479Y-55573640D01*
X90303495Y-55643332D01*
X90274995Y-55687679D01*
X90222898Y-55739776D01*
X90134958Y-55879731D01*
X90080364Y-56035753D01*
X90061859Y-56199996D01*
X90061859Y-56200003D01*
X90080364Y-56364246D01*
X90134957Y-56520265D01*
X90143605Y-56534029D01*
X90162604Y-56601266D01*
X90143606Y-56665968D01*
X90134958Y-56679731D01*
X90080364Y-56835753D01*
X90061859Y-56999996D01*
X90061859Y-57000003D01*
X90080364Y-57164246D01*
X90134957Y-57320265D01*
X90143605Y-57334029D01*
X90162604Y-57401266D01*
X90143606Y-57465968D01*
X90134958Y-57479731D01*
X90080364Y-57635753D01*
X90061859Y-57799996D01*
X90061859Y-57800003D01*
X90080364Y-57964246D01*
X90134957Y-58120265D01*
X90143605Y-58134029D01*
X90162604Y-58201266D01*
X90143606Y-58265968D01*
X90134958Y-58279731D01*
X90080364Y-58435753D01*
X90061859Y-58599996D01*
X90061859Y-58600003D01*
X90080364Y-58764246D01*
X90080365Y-58764251D01*
X90080366Y-58764252D01*
X90092450Y-58798786D01*
X90134958Y-58920268D01*
X90215342Y-59048197D01*
X90222898Y-59060223D01*
X90339777Y-59177102D01*
X90411246Y-59222009D01*
X90458661Y-59251802D01*
X90479733Y-59265042D01*
X90635748Y-59319634D01*
X90635751Y-59319634D01*
X90635753Y-59319635D01*
X90799996Y-59338141D01*
X90800000Y-59338141D01*
X90800004Y-59338141D01*
X90964246Y-59319635D01*
X90964247Y-59319634D01*
X90964252Y-59319634D01*
X91120267Y-59265042D01*
X91260223Y-59177102D01*
X91322506Y-59114818D01*
X91383829Y-59081334D01*
X91410187Y-59078500D01*
X92762378Y-59078500D01*
X92829417Y-59098185D01*
X92875172Y-59150989D01*
X92879420Y-59161546D01*
X92880365Y-59164248D01*
X92880366Y-59164252D01*
X92900575Y-59222006D01*
X92934958Y-59320268D01*
X93011068Y-59441396D01*
X93022898Y-59460223D01*
X93139777Y-59577102D01*
X93176224Y-59600003D01*
X93284401Y-59667975D01*
X93330692Y-59720310D01*
X93341340Y-59789363D01*
X93323423Y-59838941D01*
X93234959Y-59979730D01*
X93234957Y-59979733D01*
X93234958Y-59979733D01*
X93187165Y-60116319D01*
X93185069Y-60122309D01*
X93144347Y-60179085D01*
X93079394Y-60204832D01*
X93010833Y-60191376D01*
X93002055Y-60186348D01*
X92920267Y-60134958D01*
X92920268Y-60134958D01*
X92764246Y-60080364D01*
X92600004Y-60061859D01*
X92599996Y-60061859D01*
X92435753Y-60080364D01*
X92279731Y-60134958D01*
X92139776Y-60222898D01*
X92022898Y-60339776D01*
X91934959Y-60479730D01*
X91934957Y-60479733D01*
X91934958Y-60479733D01*
X91887120Y-60616448D01*
X91884452Y-60624072D01*
X91843730Y-60680848D01*
X91778777Y-60706595D01*
X91710216Y-60693139D01*
X91679729Y-60670798D01*
X91625379Y-60616448D01*
X91433842Y-60424912D01*
X91428503Y-60418824D01*
X91407955Y-60392045D01*
X91377239Y-60368476D01*
X91288468Y-60300359D01*
X91288463Y-60300356D01*
X91149325Y-60242724D01*
X91149323Y-60242723D01*
X91149322Y-60242723D01*
X91149321Y-60242723D01*
X91149317Y-60242722D01*
X91147321Y-60242325D01*
X91145288Y-60242192D01*
X91090342Y-60234958D01*
X91033870Y-60227523D01*
X91033855Y-60227521D01*
X91007156Y-60224007D01*
X91000000Y-60223065D01*
X90999999Y-60223065D01*
X90999998Y-60223065D01*
X90981163Y-60225544D01*
X90966545Y-60227469D01*
X90958447Y-60228000D01*
X89689468Y-60228000D01*
X89681369Y-60227469D01*
X89661023Y-60224790D01*
X89647916Y-60223065D01*
X89647914Y-60223065D01*
X89612797Y-60227688D01*
X89612768Y-60227690D01*
X89484785Y-60244539D01*
X89471879Y-60253787D01*
X89359449Y-60300357D01*
X89359445Y-60300359D01*
X89270676Y-60368476D01*
X89234964Y-60395877D01*
X89169795Y-60421070D01*
X89159480Y-60421500D01*
X84283657Y-60421500D01*
X84221692Y-60403305D01*
X84221048Y-60404421D01*
X84214010Y-60400357D01*
X84101580Y-60353787D01*
X84088674Y-60344539D01*
X83960856Y-60327712D01*
X83960830Y-60327710D01*
X83925546Y-60323065D01*
X83925544Y-60323065D01*
X83912436Y-60324790D01*
X83892090Y-60327469D01*
X83883992Y-60328000D01*
X83408687Y-60328000D01*
X83341648Y-60308315D01*
X83295893Y-60255511D01*
X83285949Y-60186353D01*
X83314974Y-60122797D01*
X83321006Y-60116319D01*
X83344199Y-60093126D01*
X83377102Y-60060223D01*
X83465042Y-59920267D01*
X83519634Y-59764252D01*
X83519635Y-59764246D01*
X83538141Y-59600003D01*
X83538141Y-59599996D01*
X83519635Y-59435753D01*
X83519634Y-59435751D01*
X83519634Y-59435748D01*
X83465042Y-59279733D01*
X83455810Y-59265041D01*
X83416950Y-59203195D01*
X83377102Y-59139777D01*
X83318204Y-59080878D01*
X83284719Y-59019556D01*
X83288843Y-58952245D01*
X83319634Y-58864252D01*
X83319634Y-58864250D01*
X83319635Y-58864248D01*
X83338141Y-58700003D01*
X83338141Y-58699996D01*
X83319635Y-58535751D01*
X83317794Y-58530489D01*
X83268967Y-58390952D01*
X83265406Y-58321176D01*
X83268964Y-58309058D01*
X83319634Y-58164252D01*
X83319634Y-58164250D01*
X83319635Y-58164248D01*
X83338141Y-58000003D01*
X83338141Y-57999996D01*
X83319635Y-57835751D01*
X83307124Y-57799996D01*
X83268967Y-57690952D01*
X83265406Y-57621176D01*
X83268964Y-57609058D01*
X83319634Y-57464252D01*
X83319634Y-57464250D01*
X83319635Y-57464248D01*
X83338141Y-57300003D01*
X83338141Y-57299996D01*
X83319635Y-57135753D01*
X83319634Y-57135751D01*
X83319634Y-57135748D01*
X83265042Y-56979733D01*
X83177102Y-56839777D01*
X83060223Y-56722898D01*
X83033362Y-56706020D01*
X82920268Y-56634958D01*
X82764246Y-56580364D01*
X82600004Y-56561859D01*
X82599996Y-56561859D01*
X82435753Y-56580364D01*
X82279731Y-56634958D01*
X82279727Y-56634960D01*
X82196874Y-56687020D01*
X82129637Y-56706020D01*
X82062802Y-56685652D01*
X82043222Y-56669707D01*
X81430292Y-56056777D01*
X81396807Y-55995454D01*
X81401791Y-55925762D01*
X81412980Y-55903123D01*
X81439936Y-55860223D01*
X81465042Y-55820267D01*
X81519634Y-55664252D01*
X81519634Y-55664248D01*
X81520580Y-55661546D01*
X81561302Y-55604770D01*
X81626254Y-55579022D01*
X81637622Y-55578500D01*
X81697369Y-55578500D01*
X81764408Y-55598185D01*
X81810163Y-55650989D01*
X81814409Y-55661542D01*
X81815358Y-55664252D01*
X81834958Y-55720268D01*
X81885937Y-55801400D01*
X81922898Y-55860223D01*
X82039777Y-55977102D01*
X82179733Y-56065042D01*
X82335748Y-56119634D01*
X82335751Y-56119634D01*
X82335753Y-56119635D01*
X82499996Y-56138141D01*
X82500000Y-56138141D01*
X82500004Y-56138141D01*
X82664246Y-56119635D01*
X82664247Y-56119634D01*
X82664252Y-56119634D01*
X82820267Y-56065042D01*
X82960223Y-55977102D01*
X83077102Y-55860223D01*
X83165042Y-55720267D01*
X83219634Y-55564252D01*
X83222795Y-55536199D01*
X83238141Y-55400003D01*
X83238141Y-55399996D01*
X83219635Y-55235753D01*
X83219634Y-55235751D01*
X83219634Y-55235748D01*
X83165042Y-55079733D01*
X83136557Y-55034400D01*
X83114944Y-55000003D01*
X83077102Y-54939777D01*
X82984834Y-54847509D01*
X82951349Y-54786186D01*
X82956333Y-54716494D01*
X82998205Y-54660561D01*
X83063669Y-54636144D01*
X83086392Y-54636607D01*
X83100000Y-54638141D01*
X83239248Y-54622451D01*
X83264244Y-54619635D01*
X83264244Y-54619634D01*
X83264252Y-54619634D01*
X83420267Y-54565042D01*
X83420272Y-54565038D01*
X83420274Y-54565038D01*
X83426540Y-54562021D01*
X83427451Y-54563914D01*
X83484877Y-54547672D01*
X83551717Y-54568023D01*
X83588636Y-54605695D01*
X83622895Y-54660220D01*
X83622898Y-54660223D01*
X83739777Y-54777102D01*
X83812661Y-54822898D01*
X83872063Y-54860223D01*
X83879733Y-54865042D01*
X84035748Y-54919634D01*
X84035751Y-54919634D01*
X84035753Y-54919635D01*
X84199996Y-54938141D01*
X84200000Y-54938141D01*
X84200004Y-54938141D01*
X84364248Y-54919635D01*
X84364250Y-54919634D01*
X84364252Y-54919634D01*
X84509047Y-54868967D01*
X84578822Y-54865405D01*
X84590946Y-54868965D01*
X84728112Y-54916962D01*
X84735751Y-54919635D01*
X84899996Y-54938141D01*
X84900000Y-54938141D01*
X84900004Y-54938141D01*
X85064246Y-54919635D01*
X85064247Y-54919634D01*
X85064252Y-54919634D01*
X85220267Y-54865042D01*
X85360223Y-54777102D01*
X85377291Y-54760033D01*
X85438614Y-54726546D01*
X85478859Y-54724492D01*
X85599997Y-54738141D01*
X85600000Y-54738141D01*
X85600004Y-54738141D01*
X85764246Y-54719635D01*
X85764247Y-54719634D01*
X85764252Y-54719634D01*
X85920267Y-54665042D01*
X85984026Y-54624979D01*
X86051264Y-54605978D01*
X86115973Y-54624979D01*
X86172601Y-54660561D01*
X86179733Y-54665042D01*
X86335748Y-54719634D01*
X86335751Y-54719634D01*
X86335753Y-54719635D01*
X86499996Y-54738141D01*
X86500000Y-54738141D01*
X86500004Y-54738141D01*
X86664246Y-54719635D01*
X86664247Y-54719634D01*
X86664252Y-54719634D01*
X86820267Y-54665042D01*
X86960223Y-54577102D01*
X87077102Y-54460223D01*
X87165042Y-54320267D01*
X87219634Y-54164252D01*
X87219971Y-54161262D01*
X87238141Y-54000003D01*
X87238141Y-53999996D01*
X87219635Y-53835753D01*
X87219634Y-53835751D01*
X87219634Y-53835748D01*
X87215021Y-53822567D01*
X87211461Y-53752790D01*
X87246190Y-53692163D01*
X87308184Y-53659936D01*
X87316503Y-53658595D01*
X87321799Y-53657927D01*
X87365893Y-53640468D01*
X87371356Y-53638598D01*
X87416893Y-53625369D01*
X87434554Y-53614923D01*
X87452012Y-53606371D01*
X87471088Y-53598819D01*
X87509428Y-53570962D01*
X87514300Y-53567761D01*
X87555098Y-53543634D01*
X87569594Y-53529137D01*
X87584392Y-53516498D01*
X87600987Y-53504442D01*
X87631207Y-53467910D01*
X87635121Y-53463609D01*
X88267077Y-52831653D01*
X88313800Y-52802295D01*
X88420267Y-52765042D01*
X88560223Y-52677102D01*
X88677102Y-52560223D01*
X88765042Y-52420267D01*
X88819634Y-52264252D01*
X88821192Y-52250423D01*
X88838141Y-52100003D01*
X88838141Y-52099996D01*
X88819635Y-51935753D01*
X88819634Y-51935751D01*
X88819634Y-51935748D01*
X88765042Y-51779733D01*
X88755810Y-51765041D01*
X88729046Y-51722446D01*
X88677102Y-51639777D01*
X88560223Y-51522898D01*
X88509028Y-51490730D01*
X88420268Y-51434958D01*
X88264246Y-51380364D01*
X88100004Y-51361859D01*
X88099996Y-51361859D01*
X87935753Y-51380364D01*
X87779731Y-51434958D01*
X87690972Y-51490730D01*
X87623735Y-51509730D01*
X87559028Y-51490730D01*
X87470266Y-51434957D01*
X87421072Y-51417744D01*
X87395509Y-51408799D01*
X87348784Y-51379439D01*
X86273704Y-50304359D01*
X85194258Y-49224913D01*
X85188914Y-49218818D01*
X85168368Y-49192043D01*
X85100253Y-49139777D01*
X85042436Y-49095412D01*
X85043669Y-49093803D01*
X85002975Y-49051123D01*
X84989754Y-48982515D01*
X85015723Y-48917651D01*
X85072638Y-48877124D01*
X85133600Y-48871996D01*
X85292431Y-48898500D01*
X85292432Y-48898500D01*
X85517569Y-48898500D01*
X85739635Y-48861444D01*
X85952574Y-48788342D01*
X86150576Y-48681189D01*
X86328240Y-48542906D01*
X86480722Y-48377268D01*
X86571193Y-48238791D01*
X86624336Y-48193437D01*
X86693567Y-48184013D01*
X86756903Y-48213515D01*
X86778807Y-48238793D01*
X86869276Y-48377265D01*
X86869284Y-48377276D01*
X87021756Y-48542902D01*
X87021760Y-48542906D01*
X87199424Y-48681189D01*
X87199425Y-48681189D01*
X87199427Y-48681191D01*
X87300588Y-48735936D01*
X87397426Y-48788342D01*
X87610365Y-48861444D01*
X87832431Y-48898500D01*
X88057569Y-48898500D01*
X88279635Y-48861444D01*
X88492574Y-48788342D01*
X88690576Y-48681189D01*
X88868240Y-48542906D01*
X89020722Y-48377268D01*
X89111193Y-48238790D01*
X89164338Y-48193437D01*
X89233569Y-48184013D01*
X89296905Y-48213515D01*
X89318804Y-48238787D01*
X89409278Y-48377268D01*
X89409283Y-48377273D01*
X89409284Y-48377276D01*
X89561756Y-48542902D01*
X89561760Y-48542906D01*
X89739424Y-48681189D01*
X89739425Y-48681189D01*
X89739427Y-48681191D01*
X89840588Y-48735936D01*
X89937426Y-48788342D01*
X90150365Y-48861444D01*
X90372431Y-48898500D01*
X90597569Y-48898500D01*
X90819635Y-48861444D01*
X91032574Y-48788342D01*
X91230576Y-48681189D01*
X91408240Y-48542906D01*
X91560722Y-48377268D01*
X91651193Y-48238791D01*
X91704336Y-48193437D01*
X91773567Y-48184013D01*
X91836903Y-48213515D01*
X91858807Y-48238793D01*
X91949276Y-48377265D01*
X91949284Y-48377276D01*
X92101756Y-48542902D01*
X92101760Y-48542906D01*
X92279424Y-48681189D01*
X92279425Y-48681189D01*
X92279427Y-48681191D01*
X92380588Y-48735936D01*
X92477426Y-48788342D01*
X92690365Y-48861444D01*
X92912431Y-48898500D01*
X93137569Y-48898500D01*
X93359635Y-48861444D01*
X93572574Y-48788342D01*
X93770576Y-48681189D01*
X93948240Y-48542906D01*
X94100722Y-48377268D01*
X94191193Y-48238790D01*
X94244338Y-48193437D01*
X94313569Y-48184013D01*
X94376905Y-48213515D01*
X94398804Y-48238787D01*
X94489278Y-48377268D01*
X94489283Y-48377273D01*
X94489284Y-48377276D01*
X94641756Y-48542902D01*
X94641760Y-48542906D01*
X94819424Y-48681189D01*
X94819425Y-48681189D01*
X94819427Y-48681191D01*
X94920588Y-48735936D01*
X95017426Y-48788342D01*
X95230365Y-48861444D01*
X95452431Y-48898500D01*
X95677569Y-48898500D01*
X95899635Y-48861444D01*
X96112574Y-48788342D01*
X96310576Y-48681189D01*
X96488240Y-48542906D01*
X96640722Y-48377268D01*
X96731193Y-48238791D01*
X96784336Y-48193437D01*
X96853567Y-48184013D01*
X96916903Y-48213515D01*
G37*
G04 #@! TD.AperFunction*
G04 #@! TA.AperFunction,Conductor*
G36*
X112253733Y-49057710D02*
G01*
X112309666Y-49099582D01*
X112334083Y-49165046D01*
X112334399Y-49173892D01*
X112334400Y-50424100D01*
X112314715Y-50491139D01*
X112261912Y-50536894D01*
X112217393Y-50546578D01*
X112217482Y-50547420D01*
X112211015Y-50548099D01*
X112035955Y-50585309D01*
X112035954Y-50585309D01*
X111872456Y-50658102D01*
X111727662Y-50763302D01*
X111607908Y-50896304D01*
X111518423Y-51051296D01*
X111518420Y-51051303D01*
X111472269Y-51193343D01*
X111432831Y-51251019D01*
X111380121Y-51276315D01*
X111335453Y-51285810D01*
X111171956Y-51358602D01*
X111027162Y-51463802D01*
X110907408Y-51596804D01*
X110817923Y-51751796D01*
X110817920Y-51751803D01*
X110767930Y-51905657D01*
X110728492Y-51963333D01*
X110664134Y-51990531D01*
X110595287Y-51978616D01*
X110543812Y-51931372D01*
X110532070Y-51905660D01*
X110492129Y-51782734D01*
X110482080Y-51751805D01*
X110482078Y-51751801D01*
X110482077Y-51751797D01*
X110392591Y-51596803D01*
X110272836Y-51463801D01*
X110197134Y-51408800D01*
X110128043Y-51358602D01*
X109964544Y-51285809D01*
X109836738Y-51258643D01*
X109789486Y-51248600D01*
X109610514Y-51248600D01*
X109573304Y-51256508D01*
X109435455Y-51285809D01*
X109435454Y-51285809D01*
X109271956Y-51358602D01*
X109127162Y-51463802D01*
X109007408Y-51596804D01*
X108917923Y-51751796D01*
X108917920Y-51751802D01*
X108862619Y-51922004D01*
X108862618Y-51922006D01*
X108854420Y-52000003D01*
X108843910Y-52100000D01*
X108847236Y-52131641D01*
X108862618Y-52277993D01*
X108862619Y-52277995D01*
X108917920Y-52448197D01*
X108917923Y-52448203D01*
X109007409Y-52603197D01*
X109127164Y-52736199D01*
X109200667Y-52789602D01*
X109271956Y-52841397D01*
X109353138Y-52877541D01*
X109435454Y-52914190D01*
X109610514Y-52951400D01*
X109610515Y-52951400D01*
X109789484Y-52951400D01*
X109789486Y-52951400D01*
X109964546Y-52914190D01*
X110128045Y-52841396D01*
X110272836Y-52736199D01*
X110392591Y-52603197D01*
X110482077Y-52448203D01*
X110532069Y-52294340D01*
X110571504Y-52236667D01*
X110635863Y-52209468D01*
X110704709Y-52221382D01*
X110756186Y-52268626D01*
X110767930Y-52294342D01*
X110817920Y-52448196D01*
X110817923Y-52448203D01*
X110907409Y-52603197D01*
X111027164Y-52736199D01*
X111100667Y-52789602D01*
X111171956Y-52841397D01*
X111253138Y-52877541D01*
X111335454Y-52914190D01*
X111510514Y-52951400D01*
X111510515Y-52951400D01*
X111689484Y-52951400D01*
X111689486Y-52951400D01*
X111864546Y-52914190D01*
X112028045Y-52841396D01*
X112137516Y-52761860D01*
X112203320Y-52738381D01*
X112271374Y-52754206D01*
X112320069Y-52804312D01*
X112334400Y-52862179D01*
X112334400Y-53324600D01*
X112314715Y-53391639D01*
X112261911Y-53437394D01*
X112216904Y-53447184D01*
X112216982Y-53447920D01*
X112210515Y-53448599D01*
X112035455Y-53485809D01*
X112035454Y-53485809D01*
X111871956Y-53558602D01*
X111727162Y-53663802D01*
X111607408Y-53796804D01*
X111517923Y-53951796D01*
X111517920Y-53951802D01*
X111462619Y-54122004D01*
X111462618Y-54122006D01*
X111443910Y-54299999D01*
X111462618Y-54477993D01*
X111462619Y-54477995D01*
X111517920Y-54648197D01*
X111517923Y-54648203D01*
X111589402Y-54772009D01*
X111607409Y-54803197D01*
X111629228Y-54827430D01*
X111659457Y-54890419D01*
X111650832Y-54959754D01*
X111606091Y-55013420D01*
X111539438Y-55034378D01*
X111537077Y-55034400D01*
X110432592Y-55034400D01*
X110424491Y-55033869D01*
X110405508Y-55031369D01*
X110376290Y-55027523D01*
X110376275Y-55027521D01*
X110349576Y-55024007D01*
X110342420Y-55023065D01*
X110342419Y-55023065D01*
X110342418Y-55023065D01*
X110323583Y-55025544D01*
X110308965Y-55027469D01*
X110300867Y-55028000D01*
X108618698Y-55028000D01*
X108551659Y-55008315D01*
X108505904Y-54955511D01*
X108495960Y-54886353D01*
X108500767Y-54865682D01*
X108526596Y-54786186D01*
X108537382Y-54752991D01*
X108556090Y-54575000D01*
X108537382Y-54397009D01*
X108491550Y-54255952D01*
X108482079Y-54226802D01*
X108482076Y-54226796D01*
X108478307Y-54220268D01*
X108392591Y-54071803D01*
X108282106Y-53949096D01*
X108272837Y-53938802D01*
X108128043Y-53833602D01*
X107964544Y-53760809D01*
X107836738Y-53733643D01*
X107789486Y-53723600D01*
X107610514Y-53723600D01*
X107573304Y-53731508D01*
X107435455Y-53760809D01*
X107435454Y-53760809D01*
X107271956Y-53833602D01*
X107127162Y-53938802D01*
X107007408Y-54071804D01*
X106917923Y-54226796D01*
X106917920Y-54226802D01*
X106862619Y-54397004D01*
X106862618Y-54397006D01*
X106843910Y-54575000D01*
X106862618Y-54752993D01*
X106862619Y-54752995D01*
X106899233Y-54865682D01*
X106901228Y-54935524D01*
X106865147Y-54995356D01*
X106802446Y-55026184D01*
X106781302Y-55028000D01*
X104771303Y-55028000D01*
X104704264Y-55008315D01*
X104658509Y-54955511D01*
X104647982Y-54916962D01*
X104637382Y-54816109D01*
X104592776Y-54678825D01*
X104582079Y-54645902D01*
X104582076Y-54645896D01*
X104567279Y-54620267D01*
X104492591Y-54490903D01*
X104372836Y-54357901D01*
X104312138Y-54313801D01*
X104228043Y-54252702D01*
X104064544Y-54179909D01*
X103936738Y-54152743D01*
X103889486Y-54142700D01*
X103710514Y-54142700D01*
X103673305Y-54150608D01*
X103535455Y-54179909D01*
X103535454Y-54179909D01*
X103371954Y-54252703D01*
X103366329Y-54255952D01*
X103365571Y-54254639D01*
X103307065Y-54275508D01*
X103239013Y-54259675D01*
X103229238Y-54253392D01*
X103228045Y-54252703D01*
X103064544Y-54179909D01*
X102936738Y-54152743D01*
X102889486Y-54142700D01*
X102710514Y-54142700D01*
X102673305Y-54150608D01*
X102535455Y-54179909D01*
X102535454Y-54179909D01*
X102371956Y-54252702D01*
X102227162Y-54357902D01*
X102107408Y-54490904D01*
X102017923Y-54645896D01*
X102017920Y-54645902D01*
X101962619Y-54816104D01*
X101962618Y-54816107D01*
X101952018Y-54916962D01*
X101925433Y-54981577D01*
X101868135Y-55021561D01*
X101828697Y-55028000D01*
X97941559Y-55028000D01*
X97933459Y-55027469D01*
X97919411Y-55025619D01*
X97900001Y-55023064D01*
X97899999Y-55023064D01*
X97866541Y-55027469D01*
X97862508Y-55028000D01*
X97817033Y-55033987D01*
X97750678Y-55042723D01*
X97750677Y-55042723D01*
X97750674Y-55042724D01*
X97611536Y-55100356D01*
X97611530Y-55100359D01*
X97522761Y-55168476D01*
X97492045Y-55192044D01*
X97471500Y-55218818D01*
X97466148Y-55224920D01*
X96453681Y-56237388D01*
X96392358Y-56270873D01*
X96322666Y-56265889D01*
X96266733Y-56224017D01*
X96242316Y-56158553D01*
X96242000Y-56149707D01*
X96242000Y-55032761D01*
X96261685Y-54965722D01*
X96278314Y-54945085D01*
X98983080Y-52240319D01*
X99044404Y-52206834D01*
X99070762Y-52204000D01*
X101050088Y-52204000D01*
X101117127Y-52223685D01*
X101162882Y-52276489D01*
X101173308Y-52314117D01*
X101180364Y-52376746D01*
X101180365Y-52376751D01*
X101180366Y-52376752D01*
X101184014Y-52387176D01*
X101234958Y-52532768D01*
X101279212Y-52603197D01*
X101322898Y-52672723D01*
X101439777Y-52789602D01*
X101463188Y-52804312D01*
X101554773Y-52861859D01*
X101579733Y-52877542D01*
X101735748Y-52932134D01*
X101735751Y-52932134D01*
X101735753Y-52932135D01*
X101899996Y-52950641D01*
X101900000Y-52950641D01*
X101900004Y-52950641D01*
X102064246Y-52932135D01*
X102064247Y-52932134D01*
X102064252Y-52932134D01*
X102220267Y-52877542D01*
X102360223Y-52789602D01*
X102477102Y-52672723D01*
X102565042Y-52532767D01*
X102619634Y-52376752D01*
X102621868Y-52356927D01*
X102626692Y-52314117D01*
X102653758Y-52249703D01*
X102711353Y-52210147D01*
X102749912Y-52204000D01*
X102941197Y-52204000D01*
X103008236Y-52223685D01*
X103053991Y-52276489D01*
X103064517Y-52315036D01*
X103068921Y-52356927D01*
X103075118Y-52415892D01*
X103075119Y-52415895D01*
X103130420Y-52586097D01*
X103130423Y-52586103D01*
X103219909Y-52741097D01*
X103339664Y-52874099D01*
X103425137Y-52936199D01*
X103484456Y-52979297D01*
X103562521Y-53014053D01*
X103647954Y-53052090D01*
X103823014Y-53089300D01*
X103823015Y-53089300D01*
X104001984Y-53089300D01*
X104001986Y-53089300D01*
X104177046Y-53052090D01*
X104241622Y-53023338D01*
X104310869Y-53014053D01*
X104364942Y-53036300D01*
X104371955Y-53041396D01*
X104535454Y-53114190D01*
X104710514Y-53151400D01*
X104710515Y-53151400D01*
X104889484Y-53151400D01*
X104889486Y-53151400D01*
X105064546Y-53114190D01*
X105228045Y-53041396D01*
X105372836Y-52936199D01*
X105492591Y-52803197D01*
X105582077Y-52648203D01*
X105637382Y-52477991D01*
X105654509Y-52315036D01*
X105681094Y-52250423D01*
X105738391Y-52210439D01*
X105777830Y-52204000D01*
X107144867Y-52204000D01*
X107152965Y-52204530D01*
X107170461Y-52206834D01*
X107186419Y-52208935D01*
X107186420Y-52208935D01*
X107221980Y-52204253D01*
X107222003Y-52204251D01*
X107223909Y-52204000D01*
X107223912Y-52204000D01*
X107335742Y-52189277D01*
X107474888Y-52131641D01*
X107489591Y-52120359D01*
X107564374Y-52062976D01*
X107564374Y-52062974D01*
X107575552Y-52054398D01*
X107575552Y-52054397D01*
X107594375Y-52039955D01*
X107614926Y-52013172D01*
X107620256Y-52007093D01*
X109919031Y-49708318D01*
X109980354Y-49674834D01*
X110006712Y-49672000D01*
X111258447Y-49672000D01*
X111266545Y-49672530D01*
X111284041Y-49674834D01*
X111299999Y-49676935D01*
X111300000Y-49676935D01*
X111335560Y-49672253D01*
X111335583Y-49672251D01*
X111337489Y-49672000D01*
X111337492Y-49672000D01*
X111449322Y-49657277D01*
X111588468Y-49599641D01*
X111632920Y-49565532D01*
X111677954Y-49530976D01*
X111677954Y-49530974D01*
X111689132Y-49522398D01*
X111689132Y-49522397D01*
X111707955Y-49507955D01*
X111728506Y-49481172D01*
X111733836Y-49475093D01*
X112122718Y-49086210D01*
X112184041Y-49052726D01*
X112253733Y-49057710D01*
G37*
G04 #@! TD.AperFunction*
G04 #@! TA.AperFunction,Conductor*
G36*
X80145825Y-51754755D02*
G01*
X82340166Y-53949096D01*
X82373651Y-54010419D01*
X82375705Y-54022891D01*
X82380365Y-54064248D01*
X82380365Y-54064250D01*
X82380366Y-54064252D01*
X82387910Y-54085811D01*
X82434958Y-54220268D01*
X82485479Y-54300671D01*
X82504479Y-54367908D01*
X82484111Y-54434743D01*
X82430843Y-54479957D01*
X82361587Y-54489194D01*
X82333033Y-54481204D01*
X82255825Y-54449224D01*
X82255823Y-54449223D01*
X82255822Y-54449223D01*
X82255821Y-54449223D01*
X82255817Y-54449222D01*
X82253821Y-54448825D01*
X82251788Y-54448692D01*
X82205005Y-54442532D01*
X82140370Y-54434023D01*
X82140355Y-54434021D01*
X82113656Y-54430507D01*
X82106500Y-54429565D01*
X82106499Y-54429565D01*
X82106498Y-54429565D01*
X82087663Y-54432044D01*
X82073045Y-54433969D01*
X82064947Y-54434500D01*
X80594792Y-54434500D01*
X80527753Y-54414815D01*
X80507111Y-54398181D01*
X78793549Y-52684619D01*
X78760064Y-52623296D01*
X78765048Y-52553604D01*
X78806920Y-52497671D01*
X78872384Y-52473254D01*
X78922182Y-52479895D01*
X79035748Y-52519634D01*
X79035752Y-52519634D01*
X79035754Y-52519635D01*
X79199996Y-52538141D01*
X79200000Y-52538141D01*
X79200004Y-52538141D01*
X79364246Y-52519635D01*
X79364247Y-52519634D01*
X79364252Y-52519634D01*
X79520267Y-52465042D01*
X79660223Y-52377102D01*
X79777102Y-52260223D01*
X79865042Y-52120267D01*
X79919634Y-51964252D01*
X79924395Y-51922004D01*
X79934924Y-51828553D01*
X79961990Y-51764139D01*
X80019585Y-51724584D01*
X80089422Y-51722446D01*
X80145825Y-51754755D01*
G37*
G04 #@! TD.AperFunction*
M02*
