%TF.GenerationSoftware,KiCad,Pcbnew,7.0.6-7.0.6~ubuntu22.04.1*%
%TF.CreationDate,2023-07-20T16:44:24-04:00*%
%TF.ProjectId,f1c_linux,6631635f-6c69-46e7-9578-2e6b69636164,1*%
%TF.SameCoordinates,Original*%
%TF.FileFunction,Drillmap*%
%TF.FilePolarity,Positive*%
%FSLAX45Y45*%
G04 Gerber Fmt 4.5, Leading zero omitted, Abs format (unit mm)*
G04 Created by KiCad (PCBNEW 7.0.6-7.0.6~ubuntu22.04.1) date 2023-07-20 16:44:24*
%MOMM*%
%LPD*%
G01*
G04 APERTURE LIST*
%ADD10C,0.038100*%
%ADD11C,0.200000*%
%ADD12C,0.020000*%
%ADD13C,0.033020*%
%ADD14C,0.060000*%
%ADD15C,0.100000*%
G04 APERTURE END LIST*
D10*
X11850000Y-4300000D02*
X11850000Y-4300000D01*
G75*
G02*
X12050000Y-4500000I0J-200000D01*
G01*
X12050000Y-6600000D01*
G75*
G02*
X11850000Y-6800000I-200000J0D01*
G01*
X6250000Y-6800000D01*
G75*
G02*
X6050000Y-6600000I0J200000D01*
G01*
X6050000Y-4500000D01*
G75*
G02*
X6250000Y-4300000I200000J0D01*
G01*
X11850000Y-4300000D01*
D11*
D12*
X6630000Y-5250000D02*
X6650000Y-5270000D01*
X6650000Y-5250000D02*
X6630000Y-5270000D01*
X6760000Y-5250000D02*
X6780000Y-5270000D01*
X6780000Y-5250000D02*
X6760000Y-5270000D01*
X6880000Y-5250000D02*
X6900000Y-5270000D01*
X6900000Y-5250000D02*
X6880000Y-5270000D01*
X6940000Y-6340000D02*
X6960000Y-6360000D01*
X6960000Y-6340000D02*
X6940000Y-6360000D01*
X7110000Y-5430000D02*
X7130000Y-5450000D01*
X7130000Y-5430000D02*
X7110000Y-5450000D01*
X7160000Y-5250000D02*
X7180000Y-5270000D01*
X7180000Y-5250000D02*
X7160000Y-5270000D01*
X7230000Y-6340000D02*
X7250000Y-6360000D01*
X7250000Y-6340000D02*
X7230000Y-6360000D01*
X7320000Y-5140000D02*
X7340000Y-5160000D01*
X7340000Y-5140000D02*
X7320000Y-5160000D01*
X7490000Y-6040000D02*
X7510000Y-6060000D01*
X7510000Y-6040000D02*
X7490000Y-6060000D01*
X7800000Y-6120000D02*
X7820000Y-6140000D01*
X7820000Y-6120000D02*
X7800000Y-6140000D01*
X7850000Y-5100000D02*
X7870000Y-5120000D01*
X7870000Y-5100000D02*
X7850000Y-5120000D01*
X7890000Y-6070000D02*
X7910000Y-6090000D01*
X7910000Y-6070000D02*
X7890000Y-6090000D01*
X7890000Y-6370000D02*
X7910000Y-6390000D01*
X7910000Y-6370000D02*
X7890000Y-6390000D01*
X7910000Y-5170000D02*
X7930000Y-5190000D01*
X7930000Y-5170000D02*
X7910000Y-5190000D01*
X7930000Y-5320000D02*
X7950000Y-5340000D01*
X7950000Y-5320000D02*
X7930000Y-5340000D01*
X7980000Y-6010000D02*
X8000000Y-6030000D01*
X8000000Y-6010000D02*
X7980000Y-6030000D01*
X8030000Y-5850000D02*
X8050000Y-5870000D01*
X8050000Y-5850000D02*
X8030000Y-5870000D01*
X8040000Y-6170000D02*
X8060000Y-6190000D01*
X8060000Y-6170000D02*
X8040000Y-6190000D01*
X8040000Y-6240000D02*
X8060000Y-6260000D01*
X8060000Y-6240000D02*
X8040000Y-6260000D01*
X8040000Y-6310000D02*
X8060000Y-6330000D01*
X8060000Y-6310000D02*
X8040000Y-6330000D01*
X8050000Y-5750000D02*
X8070000Y-5770000D01*
X8070000Y-5750000D02*
X8050000Y-5770000D01*
X8060000Y-6530000D02*
X8080000Y-6550000D01*
X8080000Y-6530000D02*
X8060000Y-6550000D01*
X8070000Y-5540000D02*
X8090000Y-5560000D01*
X8090000Y-5540000D02*
X8070000Y-5560000D01*
X8220000Y-6380000D02*
X8240000Y-6400000D01*
X8240000Y-6380000D02*
X8220000Y-6400000D01*
X8240000Y-5530000D02*
X8260000Y-5550000D01*
X8260000Y-5530000D02*
X8240000Y-5550000D01*
X8240000Y-6080000D02*
X8260000Y-6100000D01*
X8260000Y-6080000D02*
X8240000Y-6100000D01*
X8250000Y-5720000D02*
X8270000Y-5740000D01*
X8270000Y-5720000D02*
X8250000Y-5740000D01*
X8250000Y-5790000D02*
X8270000Y-5810000D01*
X8270000Y-5790000D02*
X8250000Y-5810000D01*
X8250000Y-5860000D02*
X8270000Y-5880000D01*
X8270000Y-5860000D02*
X8250000Y-5880000D01*
X8270000Y-5950000D02*
X8290000Y-5970000D01*
X8290000Y-5950000D02*
X8270000Y-5970000D01*
X8300000Y-5380000D02*
X8320000Y-5400000D01*
X8320000Y-5380000D02*
X8300000Y-5400000D01*
X8335000Y-6210000D02*
X8355000Y-6230000D01*
X8355000Y-6210000D02*
X8335000Y-6230000D01*
X8400000Y-6370000D02*
X8420000Y-6390000D01*
X8420000Y-6370000D02*
X8400000Y-6390000D01*
X8410000Y-5410000D02*
X8430000Y-5430000D01*
X8430000Y-5410000D02*
X8410000Y-5430000D01*
X8415000Y-5540000D02*
X8435000Y-5560000D01*
X8435000Y-5540000D02*
X8415000Y-5560000D01*
X8415000Y-5665000D02*
X8435000Y-5685000D01*
X8435000Y-5665000D02*
X8415000Y-5685000D01*
X8415000Y-5790000D02*
X8435000Y-5810000D01*
X8435000Y-5790000D02*
X8415000Y-5810000D01*
X8415000Y-5915000D02*
X8435000Y-5935000D01*
X8435000Y-5915000D02*
X8415000Y-5935000D01*
X8415000Y-6040000D02*
X8435000Y-6060000D01*
X8435000Y-6040000D02*
X8415000Y-6060000D01*
X8440000Y-4950000D02*
X8460000Y-4970000D01*
X8460000Y-4950000D02*
X8440000Y-4970000D01*
X8480000Y-5410000D02*
X8500000Y-5430000D01*
X8500000Y-5410000D02*
X8480000Y-5430000D01*
X8490000Y-6586000D02*
X8510000Y-6606000D01*
X8510000Y-6586000D02*
X8490000Y-6606000D01*
X8510000Y-6380000D02*
X8530000Y-6400000D01*
X8530000Y-6380000D02*
X8510000Y-6400000D01*
X8540000Y-5540000D02*
X8560000Y-5560000D01*
X8560000Y-5540000D02*
X8540000Y-5560000D01*
X8540000Y-5665000D02*
X8560000Y-5685000D01*
X8560000Y-5665000D02*
X8540000Y-5685000D01*
X8540000Y-5790000D02*
X8560000Y-5810000D01*
X8560000Y-5790000D02*
X8540000Y-5810000D01*
X8540000Y-5915000D02*
X8560000Y-5935000D01*
X8560000Y-5915000D02*
X8540000Y-5935000D01*
X8540000Y-6040000D02*
X8560000Y-6060000D01*
X8560000Y-6040000D02*
X8540000Y-6060000D01*
X8550000Y-5390000D02*
X8570000Y-5410000D01*
X8570000Y-5390000D02*
X8550000Y-5410000D01*
X8635000Y-5190000D02*
X8655000Y-5210000D01*
X8655000Y-5190000D02*
X8635000Y-5210000D01*
X8640000Y-5390000D02*
X8660000Y-5410000D01*
X8660000Y-5390000D02*
X8640000Y-5410000D01*
X8665000Y-5540000D02*
X8685000Y-5560000D01*
X8685000Y-5540000D02*
X8665000Y-5560000D01*
X8665000Y-5665000D02*
X8685000Y-5685000D01*
X8685000Y-5665000D02*
X8665000Y-5685000D01*
X8665000Y-5790000D02*
X8685000Y-5810000D01*
X8685000Y-5790000D02*
X8665000Y-5810000D01*
X8665000Y-5915000D02*
X8685000Y-5935000D01*
X8685000Y-5915000D02*
X8665000Y-5935000D01*
X8665000Y-6040000D02*
X8685000Y-6060000D01*
X8685000Y-6040000D02*
X8665000Y-6060000D01*
X8705000Y-5200000D02*
X8725000Y-5220000D01*
X8725000Y-5200000D02*
X8705000Y-5220000D01*
X8720000Y-6490780D02*
X8740000Y-6510780D01*
X8740000Y-6490780D02*
X8720000Y-6510780D01*
X8790000Y-5540000D02*
X8810000Y-5560000D01*
X8810000Y-5540000D02*
X8790000Y-5560000D01*
X8790000Y-5665000D02*
X8810000Y-5685000D01*
X8810000Y-5665000D02*
X8790000Y-5685000D01*
X8790000Y-5790000D02*
X8810000Y-5810000D01*
X8810000Y-5790000D02*
X8790000Y-5810000D01*
X8790000Y-5915000D02*
X8810000Y-5935000D01*
X8810000Y-5915000D02*
X8790000Y-5935000D01*
X8790000Y-6040000D02*
X8810000Y-6060000D01*
X8810000Y-6040000D02*
X8790000Y-6060000D01*
X8800000Y-5200000D02*
X8820000Y-5220000D01*
X8820000Y-5200000D02*
X8800000Y-5220000D01*
X8880000Y-6470000D02*
X8900000Y-6490000D01*
X8900000Y-6470000D02*
X8880000Y-6490000D01*
X8915000Y-5540000D02*
X8935000Y-5560000D01*
X8935000Y-5540000D02*
X8915000Y-5560000D01*
X8915000Y-5665000D02*
X8935000Y-5685000D01*
X8935000Y-5665000D02*
X8915000Y-5685000D01*
X8915000Y-5790000D02*
X8935000Y-5810000D01*
X8935000Y-5790000D02*
X8915000Y-5810000D01*
X8915000Y-5915000D02*
X8935000Y-5935000D01*
X8935000Y-5915000D02*
X8915000Y-5935000D01*
X8915000Y-6040000D02*
X8935000Y-6060000D01*
X8935000Y-6040000D02*
X8915000Y-6060000D01*
X9033750Y-6200000D02*
X9053750Y-6220000D01*
X9053750Y-6200000D02*
X9033750Y-6220000D01*
X9070000Y-5420000D02*
X9090000Y-5440000D01*
X9090000Y-5420000D02*
X9070000Y-5440000D01*
X9070000Y-5490000D02*
X9090000Y-5510000D01*
X9090000Y-5490000D02*
X9070000Y-5510000D01*
X9070000Y-5610000D02*
X9090000Y-5630000D01*
X9090000Y-5610000D02*
X9070000Y-5630000D01*
X9070000Y-5690000D02*
X9090000Y-5710000D01*
X9090000Y-5690000D02*
X9070000Y-5710000D01*
X9070000Y-5770000D02*
X9090000Y-5790000D01*
X9090000Y-5770000D02*
X9070000Y-5790000D01*
X9070000Y-5850000D02*
X9090000Y-5870000D01*
X9090000Y-5850000D02*
X9070000Y-5870000D01*
X9190000Y-6330000D02*
X9210000Y-6350000D01*
X9210000Y-6330000D02*
X9190000Y-6350000D01*
X9250000Y-5350000D02*
X9270000Y-5370000D01*
X9270000Y-5350000D02*
X9250000Y-5370000D01*
X9250000Y-5450000D02*
X9270000Y-5470000D01*
X9270000Y-5450000D02*
X9250000Y-5470000D01*
X9250000Y-6070000D02*
X9270000Y-6090000D01*
X9270000Y-6070000D02*
X9250000Y-6090000D01*
X9260000Y-5570000D02*
X9280000Y-5590000D01*
X9280000Y-5570000D02*
X9260000Y-5590000D01*
X9260000Y-5730000D02*
X9280000Y-5750000D01*
X9280000Y-5730000D02*
X9260000Y-5750000D01*
X9270000Y-6330000D02*
X9290000Y-6350000D01*
X9290000Y-6330000D02*
X9270000Y-6350000D01*
X9350000Y-5890000D02*
X9370000Y-5910000D01*
X9370000Y-5890000D02*
X9350000Y-5910000D01*
X9360000Y-6330000D02*
X9380000Y-6350000D01*
X9380000Y-6330000D02*
X9360000Y-6350000D01*
X9380000Y-5560000D02*
X9400000Y-5580000D01*
X9400000Y-5560000D02*
X9380000Y-5580000D01*
X9380000Y-6020000D02*
X9400000Y-6040000D01*
X9400000Y-6020000D02*
X9380000Y-6040000D01*
X9400000Y-5700000D02*
X9420000Y-5720000D01*
X9420000Y-5700000D02*
X9400000Y-5720000D01*
X9420000Y-5960000D02*
X9440000Y-5980000D01*
X9440000Y-5960000D02*
X9420000Y-5980000D01*
X9490000Y-5950000D02*
X9510000Y-5970000D01*
X9510000Y-5950000D02*
X9490000Y-5970000D01*
X9560000Y-5770000D02*
X9580000Y-5790000D01*
X9580000Y-5770000D02*
X9560000Y-5790000D01*
X9730000Y-6090000D02*
X9750000Y-6110000D01*
X9750000Y-6090000D02*
X9730000Y-6110000D01*
X9890000Y-5205000D02*
X9910000Y-5225000D01*
X9910000Y-5205000D02*
X9890000Y-5225000D01*
X10180000Y-5211250D02*
X10200000Y-5231250D01*
X10200000Y-5211250D02*
X10180000Y-5231250D01*
X10620000Y-5810000D02*
X10640000Y-5830000D01*
X10640000Y-5810000D02*
X10620000Y-5830000D01*
X10700000Y-5210000D02*
X10720000Y-5230000D01*
X10720000Y-5210000D02*
X10700000Y-5230000D01*
X11440000Y-5120000D02*
X11460000Y-5140000D01*
X11460000Y-5120000D02*
X11440000Y-5140000D01*
X11490000Y-5350000D02*
X11510000Y-5370000D01*
X11510000Y-5350000D02*
X11490000Y-5370000D01*
X11540000Y-5560000D02*
X11560000Y-5580000D01*
X11560000Y-5560000D02*
X11540000Y-5580000D01*
X11710000Y-5120500D02*
X11730000Y-5140500D01*
X11730000Y-5120500D02*
X11710000Y-5140500D01*
D13*
X8776510Y-4930000D02*
G75*
G03*
X8776510Y-4930000I-16510J0D01*
G01*
X8996510Y-4940000D02*
G75*
G03*
X8996510Y-4940000I-16510J0D01*
G01*
X9346510Y-5200000D02*
G75*
G03*
X9346510Y-5200000I-16510J0D01*
G01*
X9456510Y-5200000D02*
G75*
G03*
X9456510Y-5200000I-16510J0D01*
G01*
X9716510Y-5500000D02*
G75*
G03*
X9716510Y-5500000I-16510J0D01*
G01*
X9866510Y-6180000D02*
G75*
G03*
X9866510Y-6180000I-16510J0D01*
G01*
X9996510Y-6180000D02*
G75*
G03*
X9996510Y-6180000I-16510J0D01*
G01*
X10196510Y-5310000D02*
G75*
G03*
X10196510Y-5310000I-16510J0D01*
G01*
X10296510Y-5499410D02*
G75*
G03*
X10296510Y-5499410I-16510J0D01*
G01*
X10386510Y-6050000D02*
G75*
G03*
X10386510Y-6050000I-16510J0D01*
G01*
X10396510Y-5499410D02*
G75*
G03*
X10396510Y-5499410I-16510J0D01*
G01*
X10407760Y-5223790D02*
G75*
G03*
X10407760Y-5223790I-16510J0D01*
G01*
X10416510Y-6300000D02*
G75*
G03*
X10416510Y-6300000I-16510J0D01*
G01*
X10446510Y-5940000D02*
G75*
G03*
X10446510Y-5940000I-16510J0D01*
G01*
X10466510Y-5000000D02*
G75*
G03*
X10466510Y-5000000I-16510J0D01*
G01*
X10466510Y-5380000D02*
G75*
G03*
X10466510Y-5380000I-16510J0D01*
G01*
X10496510Y-5230000D02*
G75*
G03*
X10496510Y-5230000I-16510J0D01*
G01*
X10711510Y-5295000D02*
G75*
G03*
X10711510Y-5295000I-16510J0D01*
G01*
X10786510Y-5457500D02*
G75*
G03*
X10786510Y-5457500I-16510J0D01*
G01*
X10986510Y-5210000D02*
G75*
G03*
X10986510Y-5210000I-16510J0D01*
G01*
X10991510Y-5300000D02*
G75*
G03*
X10991510Y-5300000I-16510J0D01*
G01*
X11083556Y-5500050D02*
G75*
G03*
X11083556Y-5500050I-16510J0D01*
G01*
X11126510Y-5924430D02*
G75*
G03*
X11126510Y-5924430I-16510J0D01*
G01*
X11176510Y-5210000D02*
G75*
G03*
X11176510Y-5210000I-16510J0D01*
G01*
X11206510Y-5960000D02*
G75*
G03*
X11206510Y-5960000I-16510J0D01*
G01*
X11246510Y-5430000D02*
G75*
G03*
X11246510Y-5430000I-16510J0D01*
G01*
X11246560Y-5139950D02*
G75*
G03*
X11246560Y-5139950I-16510J0D01*
G01*
X11569371Y-5712985D02*
G75*
G03*
X11569371Y-5712985I-16510J0D01*
G01*
X11576510Y-5920000D02*
G75*
G03*
X11576510Y-5920000I-16510J0D01*
G01*
X11686510Y-5870000D02*
G75*
G03*
X11686510Y-5870000I-16510J0D01*
G01*
X11814010Y-5627500D02*
G75*
G03*
X11814010Y-5627500I-16510J0D01*
G01*
X11834010Y-5717500D02*
G75*
G03*
X11834010Y-5717500I-16510J0D01*
G01*
X11886510Y-5495000D02*
G75*
G03*
X11886510Y-5495000I-16510J0D01*
G01*
X11976510Y-5490000D02*
G75*
G03*
X11976510Y-5490000I-16510J0D01*
G01*
D14*
X10888000Y-6111000D02*
X10888000Y-6171000D01*
X10858000Y-6141000D02*
X10918000Y-6141000D01*
D11*
X10858000Y-6086000D02*
X10858000Y-6196000D01*
X10858000Y-6196000D02*
G75*
G03*
X10918000Y-6196000I30000J0D01*
G01*
X10918000Y-6196000D02*
X10918000Y-6086000D01*
X10918000Y-6086000D02*
G75*
G03*
X10858000Y-6086000I-30000J0D01*
G01*
D14*
X10888000Y-6531000D02*
X10888000Y-6591000D01*
X10858000Y-6561000D02*
X10918000Y-6561000D01*
D11*
X10858000Y-6521000D02*
X10858000Y-6601000D01*
X10858000Y-6601000D02*
G75*
G03*
X10918000Y-6601000I30000J0D01*
G01*
X10918000Y-6601000D02*
X10918000Y-6521000D01*
X10918000Y-6521000D02*
G75*
G03*
X10858000Y-6521000I-30000J0D01*
G01*
D14*
X11752000Y-6111000D02*
X11752000Y-6171000D01*
X11722000Y-6141000D02*
X11782000Y-6141000D01*
D11*
X11722000Y-6086000D02*
X11722000Y-6196000D01*
X11722000Y-6196000D02*
G75*
G03*
X11782000Y-6196000I30000J0D01*
G01*
X11782000Y-6196000D02*
X11782000Y-6086000D01*
X11782000Y-6086000D02*
G75*
G03*
X11722000Y-6086000I-30000J0D01*
G01*
D14*
X11752000Y-6531000D02*
X11752000Y-6591000D01*
X11722000Y-6561000D02*
X11782000Y-6561000D01*
D11*
X11722000Y-6521000D02*
X11722000Y-6601000D01*
X11722000Y-6601000D02*
G75*
G03*
X11782000Y-6601000I30000J0D01*
G01*
X11782000Y-6601000D02*
X11782000Y-6521000D01*
X11782000Y-6521000D02*
G75*
G03*
X11722000Y-6521000I-30000J0D01*
G01*
D15*
X6289856Y-4535356D02*
X6289856Y-4464644D01*
X6219144Y-4464644D01*
X6219144Y-4535356D01*
X6289856Y-4535356D01*
X6289856Y-4789356D02*
X6289856Y-4718644D01*
X6219144Y-4718644D01*
X6219144Y-4789356D01*
X6289856Y-4789356D01*
X6543856Y-4535356D02*
X6543856Y-4464644D01*
X6473144Y-4464644D01*
X6473144Y-4535356D01*
X6543856Y-4535356D01*
X6543856Y-4789356D02*
X6543856Y-4718644D01*
X6473144Y-4718644D01*
X6473144Y-4789356D01*
X6543856Y-4789356D01*
X6797856Y-4535356D02*
X6797856Y-4464644D01*
X6727144Y-4464644D01*
X6727144Y-4535356D01*
X6797856Y-4535356D01*
X6797856Y-4789356D02*
X6797856Y-4718644D01*
X6727144Y-4718644D01*
X6727144Y-4789356D01*
X6797856Y-4789356D01*
X7051856Y-4535356D02*
X7051856Y-4464644D01*
X6981144Y-4464644D01*
X6981144Y-4535356D01*
X7051856Y-4535356D01*
X7051856Y-4789356D02*
X7051856Y-4718644D01*
X6981144Y-4718644D01*
X6981144Y-4789356D01*
X7051856Y-4789356D01*
X7305856Y-4535356D02*
X7305856Y-4464644D01*
X7235144Y-4464644D01*
X7235144Y-4535356D01*
X7305856Y-4535356D01*
X7305856Y-4789356D02*
X7305856Y-4718644D01*
X7235144Y-4718644D01*
X7235144Y-4789356D01*
X7305856Y-4789356D01*
X7559856Y-4535356D02*
X7559856Y-4464644D01*
X7489144Y-4464644D01*
X7489144Y-4535356D01*
X7559856Y-4535356D01*
X7559856Y-4789356D02*
X7559856Y-4718644D01*
X7489144Y-4718644D01*
X7489144Y-4789356D01*
X7559856Y-4789356D01*
X7813856Y-4535356D02*
X7813856Y-4464644D01*
X7743144Y-4464644D01*
X7743144Y-4535356D01*
X7813856Y-4535356D01*
X7813856Y-4789356D02*
X7813856Y-4718644D01*
X7743144Y-4718644D01*
X7743144Y-4789356D01*
X7813856Y-4789356D01*
X8067856Y-4535356D02*
X8067856Y-4464644D01*
X7997144Y-4464644D01*
X7997144Y-4535356D01*
X8067856Y-4535356D01*
X8067856Y-4789356D02*
X8067856Y-4718644D01*
X7997144Y-4718644D01*
X7997144Y-4789356D01*
X8067856Y-4789356D01*
X8321856Y-4535356D02*
X8321856Y-4464644D01*
X8251144Y-4464644D01*
X8251144Y-4535356D01*
X8321856Y-4535356D01*
X8321856Y-4789356D02*
X8321856Y-4718644D01*
X8251144Y-4718644D01*
X8251144Y-4789356D01*
X8321856Y-4789356D01*
X8575856Y-4535356D02*
X8575856Y-4464644D01*
X8505144Y-4464644D01*
X8505144Y-4535356D01*
X8575856Y-4535356D01*
X8575856Y-4789356D02*
X8575856Y-4718644D01*
X8505144Y-4718644D01*
X8505144Y-4789356D01*
X8575856Y-4789356D01*
X8829856Y-4535356D02*
X8829856Y-4464644D01*
X8759144Y-4464644D01*
X8759144Y-4535356D01*
X8829856Y-4535356D01*
X8829856Y-4789356D02*
X8829856Y-4718644D01*
X8759144Y-4718644D01*
X8759144Y-4789356D01*
X8829856Y-4789356D01*
X9083856Y-4535356D02*
X9083856Y-4464644D01*
X9013144Y-4464644D01*
X9013144Y-4535356D01*
X9083856Y-4535356D01*
X9083856Y-4789356D02*
X9083856Y-4718644D01*
X9013144Y-4718644D01*
X9013144Y-4789356D01*
X9083856Y-4789356D01*
X9337856Y-4535356D02*
X9337856Y-4464644D01*
X9267144Y-4464644D01*
X9267144Y-4535356D01*
X9337856Y-4535356D01*
X9337856Y-4789356D02*
X9337856Y-4718644D01*
X9267144Y-4718644D01*
X9267144Y-4789356D01*
X9337856Y-4789356D01*
X9591856Y-4535356D02*
X9591856Y-4464644D01*
X9521144Y-4464644D01*
X9521144Y-4535356D01*
X9591856Y-4535356D01*
X9591856Y-4789356D02*
X9591856Y-4718644D01*
X9521144Y-4718644D01*
X9521144Y-4789356D01*
X9591856Y-4789356D01*
X9845856Y-4535356D02*
X9845856Y-4464644D01*
X9775144Y-4464644D01*
X9775144Y-4535356D01*
X9845856Y-4535356D01*
X9845856Y-4789356D02*
X9845856Y-4718644D01*
X9775144Y-4718644D01*
X9775144Y-4789356D01*
X9845856Y-4789356D01*
X10099856Y-4535356D02*
X10099856Y-4464644D01*
X10029144Y-4464644D01*
X10029144Y-4535356D01*
X10099856Y-4535356D01*
X10099856Y-4789356D02*
X10099856Y-4718644D01*
X10029144Y-4718644D01*
X10029144Y-4789356D01*
X10099856Y-4789356D01*
X10353856Y-4535356D02*
X10353856Y-4464644D01*
X10283144Y-4464644D01*
X10283144Y-4535356D01*
X10353856Y-4535356D01*
X10353856Y-4789356D02*
X10353856Y-4718644D01*
X10283144Y-4718644D01*
X10283144Y-4789356D01*
X10353856Y-4789356D01*
X10607856Y-4535356D02*
X10607856Y-4464644D01*
X10537144Y-4464644D01*
X10537144Y-4535356D01*
X10607856Y-4535356D01*
X10607856Y-4789356D02*
X10607856Y-4718644D01*
X10537144Y-4718644D01*
X10537144Y-4789356D01*
X10607856Y-4789356D01*
X10861856Y-4535356D02*
X10861856Y-4464644D01*
X10791144Y-4464644D01*
X10791144Y-4535356D01*
X10861856Y-4535356D01*
X10861856Y-4789356D02*
X10861856Y-4718644D01*
X10791144Y-4718644D01*
X10791144Y-4789356D01*
X10861856Y-4789356D01*
X11115856Y-4535356D02*
X11115856Y-4464644D01*
X11045144Y-4464644D01*
X11045144Y-4535356D01*
X11115856Y-4535356D01*
X11115856Y-4789356D02*
X11115856Y-4718644D01*
X11045144Y-4718644D01*
X11045144Y-4789356D01*
X11115856Y-4789356D01*
X11369856Y-4535356D02*
X11369856Y-4464644D01*
X11299144Y-4464644D01*
X11299144Y-4535356D01*
X11369856Y-4535356D01*
X11369856Y-4789356D02*
X11369856Y-4718644D01*
X11299144Y-4718644D01*
X11299144Y-4789356D01*
X11369856Y-4789356D01*
X11623856Y-4535356D02*
X11623856Y-4464644D01*
X11553144Y-4464644D01*
X11553144Y-4535356D01*
X11623856Y-4535356D01*
X11623856Y-4789356D02*
X11623856Y-4718644D01*
X11553144Y-4718644D01*
X11553144Y-4789356D01*
X11623856Y-4789356D01*
X11623856Y-5043356D02*
X11623856Y-4972644D01*
X11553144Y-4972644D01*
X11553144Y-5043356D01*
X11623856Y-5043356D01*
X11623856Y-5297356D02*
X11623856Y-5226644D01*
X11553144Y-5226644D01*
X11553144Y-5297356D01*
X11623856Y-5297356D01*
X11877856Y-4535356D02*
X11877856Y-4464644D01*
X11807144Y-4464644D01*
X11807144Y-4535356D01*
X11877856Y-4535356D01*
X11877856Y-4789356D02*
X11877856Y-4718644D01*
X11807144Y-4718644D01*
X11807144Y-4789356D01*
X11877856Y-4789356D01*
X11877856Y-5043356D02*
X11877856Y-4972644D01*
X11807144Y-4972644D01*
X11807144Y-5043356D01*
X11877856Y-5043356D01*
X11877856Y-5297356D02*
X11877856Y-5226644D01*
X11807144Y-5226644D01*
X11807144Y-5297356D01*
X11877856Y-5297356D01*
D11*
X6308872Y-7113389D02*
X6308872Y-6913389D01*
X6308872Y-6913389D02*
X6356491Y-6913389D01*
X6356491Y-6913389D02*
X6385062Y-6922913D01*
X6385062Y-6922913D02*
X6404110Y-6941960D01*
X6404110Y-6941960D02*
X6413634Y-6961008D01*
X6413634Y-6961008D02*
X6423157Y-6999103D01*
X6423157Y-6999103D02*
X6423157Y-7027674D01*
X6423157Y-7027674D02*
X6413634Y-7065770D01*
X6413634Y-7065770D02*
X6404110Y-7084817D01*
X6404110Y-7084817D02*
X6385062Y-7103865D01*
X6385062Y-7103865D02*
X6356491Y-7113389D01*
X6356491Y-7113389D02*
X6308872Y-7113389D01*
X6508872Y-7113389D02*
X6508872Y-6980055D01*
X6508872Y-7018151D02*
X6518396Y-6999103D01*
X6518396Y-6999103D02*
X6527919Y-6989579D01*
X6527919Y-6989579D02*
X6546967Y-6980055D01*
X6546967Y-6980055D02*
X6566015Y-6980055D01*
X6632681Y-7113389D02*
X6632681Y-6980055D01*
X6632681Y-6913389D02*
X6623157Y-6922913D01*
X6623157Y-6922913D02*
X6632681Y-6932436D01*
X6632681Y-6932436D02*
X6642205Y-6922913D01*
X6642205Y-6922913D02*
X6632681Y-6913389D01*
X6632681Y-6913389D02*
X6632681Y-6932436D01*
X6756491Y-7113389D02*
X6737443Y-7103865D01*
X6737443Y-7103865D02*
X6727919Y-7084817D01*
X6727919Y-7084817D02*
X6727919Y-6913389D01*
X6861253Y-7113389D02*
X6842205Y-7103865D01*
X6842205Y-7103865D02*
X6832681Y-7084817D01*
X6832681Y-7084817D02*
X6832681Y-6913389D01*
X7089824Y-7113389D02*
X7089824Y-6913389D01*
X7089824Y-6913389D02*
X7156491Y-7056246D01*
X7156491Y-7056246D02*
X7223157Y-6913389D01*
X7223157Y-6913389D02*
X7223157Y-7113389D01*
X7404110Y-7113389D02*
X7404110Y-7008627D01*
X7404110Y-7008627D02*
X7394586Y-6989579D01*
X7394586Y-6989579D02*
X7375538Y-6980055D01*
X7375538Y-6980055D02*
X7337443Y-6980055D01*
X7337443Y-6980055D02*
X7318396Y-6989579D01*
X7404110Y-7103865D02*
X7385062Y-7113389D01*
X7385062Y-7113389D02*
X7337443Y-7113389D01*
X7337443Y-7113389D02*
X7318396Y-7103865D01*
X7318396Y-7103865D02*
X7308872Y-7084817D01*
X7308872Y-7084817D02*
X7308872Y-7065770D01*
X7308872Y-7065770D02*
X7318396Y-7046722D01*
X7318396Y-7046722D02*
X7337443Y-7037198D01*
X7337443Y-7037198D02*
X7385062Y-7037198D01*
X7385062Y-7037198D02*
X7404110Y-7027674D01*
X7499348Y-6980055D02*
X7499348Y-7180055D01*
X7499348Y-6989579D02*
X7518396Y-6980055D01*
X7518396Y-6980055D02*
X7556491Y-6980055D01*
X7556491Y-6980055D02*
X7575538Y-6989579D01*
X7575538Y-6989579D02*
X7585062Y-6999103D01*
X7585062Y-6999103D02*
X7594586Y-7018151D01*
X7594586Y-7018151D02*
X7594586Y-7075293D01*
X7594586Y-7075293D02*
X7585062Y-7094341D01*
X7585062Y-7094341D02*
X7575538Y-7103865D01*
X7575538Y-7103865D02*
X7556491Y-7113389D01*
X7556491Y-7113389D02*
X7518396Y-7113389D01*
X7518396Y-7113389D02*
X7499348Y-7103865D01*
X7680300Y-7094341D02*
X7689824Y-7103865D01*
X7689824Y-7103865D02*
X7680300Y-7113389D01*
X7680300Y-7113389D02*
X7670777Y-7103865D01*
X7670777Y-7103865D02*
X7680300Y-7094341D01*
X7680300Y-7094341D02*
X7680300Y-7113389D01*
X7680300Y-6989579D02*
X7689824Y-6999103D01*
X7689824Y-6999103D02*
X7680300Y-7008627D01*
X7680300Y-7008627D02*
X7670777Y-6999103D01*
X7670777Y-6999103D02*
X7680300Y-6989579D01*
X7680300Y-6989579D02*
X7680300Y-7008627D01*
D12*
X6028095Y-7431905D02*
X6048095Y-7451905D01*
X6048095Y-7431905D02*
X6028095Y-7451905D01*
D11*
X6346967Y-7333389D02*
X6366015Y-7333389D01*
X6366015Y-7333389D02*
X6385062Y-7342913D01*
X6385062Y-7342913D02*
X6394586Y-7352436D01*
X6394586Y-7352436D02*
X6404110Y-7371484D01*
X6404110Y-7371484D02*
X6413634Y-7409579D01*
X6413634Y-7409579D02*
X6413634Y-7457198D01*
X6413634Y-7457198D02*
X6404110Y-7495293D01*
X6404110Y-7495293D02*
X6394586Y-7514341D01*
X6394586Y-7514341D02*
X6385062Y-7523865D01*
X6385062Y-7523865D02*
X6366015Y-7533389D01*
X6366015Y-7533389D02*
X6346967Y-7533389D01*
X6346967Y-7533389D02*
X6327919Y-7523865D01*
X6327919Y-7523865D02*
X6318396Y-7514341D01*
X6318396Y-7514341D02*
X6308872Y-7495293D01*
X6308872Y-7495293D02*
X6299348Y-7457198D01*
X6299348Y-7457198D02*
X6299348Y-7409579D01*
X6299348Y-7409579D02*
X6308872Y-7371484D01*
X6308872Y-7371484D02*
X6318396Y-7352436D01*
X6318396Y-7352436D02*
X6327919Y-7342913D01*
X6327919Y-7342913D02*
X6346967Y-7333389D01*
X6499348Y-7514341D02*
X6508872Y-7523865D01*
X6508872Y-7523865D02*
X6499348Y-7533389D01*
X6499348Y-7533389D02*
X6489824Y-7523865D01*
X6489824Y-7523865D02*
X6499348Y-7514341D01*
X6499348Y-7514341D02*
X6499348Y-7533389D01*
X6585062Y-7352436D02*
X6594586Y-7342913D01*
X6594586Y-7342913D02*
X6613634Y-7333389D01*
X6613634Y-7333389D02*
X6661253Y-7333389D01*
X6661253Y-7333389D02*
X6680300Y-7342913D01*
X6680300Y-7342913D02*
X6689824Y-7352436D01*
X6689824Y-7352436D02*
X6699348Y-7371484D01*
X6699348Y-7371484D02*
X6699348Y-7390532D01*
X6699348Y-7390532D02*
X6689824Y-7419103D01*
X6689824Y-7419103D02*
X6575538Y-7533389D01*
X6575538Y-7533389D02*
X6699348Y-7533389D01*
X6823157Y-7333389D02*
X6842205Y-7333389D01*
X6842205Y-7333389D02*
X6861253Y-7342913D01*
X6861253Y-7342913D02*
X6870777Y-7352436D01*
X6870777Y-7352436D02*
X6880300Y-7371484D01*
X6880300Y-7371484D02*
X6889824Y-7409579D01*
X6889824Y-7409579D02*
X6889824Y-7457198D01*
X6889824Y-7457198D02*
X6880300Y-7495293D01*
X6880300Y-7495293D02*
X6870777Y-7514341D01*
X6870777Y-7514341D02*
X6861253Y-7523865D01*
X6861253Y-7523865D02*
X6842205Y-7533389D01*
X6842205Y-7533389D02*
X6823157Y-7533389D01*
X6823157Y-7533389D02*
X6804110Y-7523865D01*
X6804110Y-7523865D02*
X6794586Y-7514341D01*
X6794586Y-7514341D02*
X6785062Y-7495293D01*
X6785062Y-7495293D02*
X6775538Y-7457198D01*
X6775538Y-7457198D02*
X6775538Y-7409579D01*
X6775538Y-7409579D02*
X6785062Y-7371484D01*
X6785062Y-7371484D02*
X6794586Y-7352436D01*
X6794586Y-7352436D02*
X6804110Y-7342913D01*
X6804110Y-7342913D02*
X6823157Y-7333389D01*
X7013634Y-7333389D02*
X7032681Y-7333389D01*
X7032681Y-7333389D02*
X7051729Y-7342913D01*
X7051729Y-7342913D02*
X7061253Y-7352436D01*
X7061253Y-7352436D02*
X7070777Y-7371484D01*
X7070777Y-7371484D02*
X7080300Y-7409579D01*
X7080300Y-7409579D02*
X7080300Y-7457198D01*
X7080300Y-7457198D02*
X7070777Y-7495293D01*
X7070777Y-7495293D02*
X7061253Y-7514341D01*
X7061253Y-7514341D02*
X7051729Y-7523865D01*
X7051729Y-7523865D02*
X7032681Y-7533389D01*
X7032681Y-7533389D02*
X7013634Y-7533389D01*
X7013634Y-7533389D02*
X6994586Y-7523865D01*
X6994586Y-7523865D02*
X6985062Y-7514341D01*
X6985062Y-7514341D02*
X6975538Y-7495293D01*
X6975538Y-7495293D02*
X6966015Y-7457198D01*
X6966015Y-7457198D02*
X6966015Y-7409579D01*
X6966015Y-7409579D02*
X6975538Y-7371484D01*
X6975538Y-7371484D02*
X6985062Y-7352436D01*
X6985062Y-7352436D02*
X6994586Y-7342913D01*
X6994586Y-7342913D02*
X7013634Y-7333389D01*
X7166015Y-7533389D02*
X7166015Y-7400055D01*
X7166015Y-7419103D02*
X7175538Y-7409579D01*
X7175538Y-7409579D02*
X7194586Y-7400055D01*
X7194586Y-7400055D02*
X7223158Y-7400055D01*
X7223158Y-7400055D02*
X7242205Y-7409579D01*
X7242205Y-7409579D02*
X7251729Y-7428627D01*
X7251729Y-7428627D02*
X7251729Y-7533389D01*
X7251729Y-7428627D02*
X7261253Y-7409579D01*
X7261253Y-7409579D02*
X7280300Y-7400055D01*
X7280300Y-7400055D02*
X7308872Y-7400055D01*
X7308872Y-7400055D02*
X7327919Y-7409579D01*
X7327919Y-7409579D02*
X7337443Y-7428627D01*
X7337443Y-7428627D02*
X7337443Y-7533389D01*
X7432681Y-7533389D02*
X7432681Y-7400055D01*
X7432681Y-7419103D02*
X7442205Y-7409579D01*
X7442205Y-7409579D02*
X7461253Y-7400055D01*
X7461253Y-7400055D02*
X7489824Y-7400055D01*
X7489824Y-7400055D02*
X7508872Y-7409579D01*
X7508872Y-7409579D02*
X7518396Y-7428627D01*
X7518396Y-7428627D02*
X7518396Y-7533389D01*
X7518396Y-7428627D02*
X7527919Y-7409579D01*
X7527919Y-7409579D02*
X7546967Y-7400055D01*
X7546967Y-7400055D02*
X7575538Y-7400055D01*
X7575538Y-7400055D02*
X7594586Y-7409579D01*
X7594586Y-7409579D02*
X7604110Y-7428627D01*
X7604110Y-7428627D02*
X7604110Y-7533389D01*
X7994586Y-7323865D02*
X7823158Y-7581008D01*
X8251729Y-7333389D02*
X8270777Y-7333389D01*
X8270777Y-7333389D02*
X8289824Y-7342913D01*
X8289824Y-7342913D02*
X8299348Y-7352436D01*
X8299348Y-7352436D02*
X8308872Y-7371484D01*
X8308872Y-7371484D02*
X8318396Y-7409579D01*
X8318396Y-7409579D02*
X8318396Y-7457198D01*
X8318396Y-7457198D02*
X8308872Y-7495293D01*
X8308872Y-7495293D02*
X8299348Y-7514341D01*
X8299348Y-7514341D02*
X8289824Y-7523865D01*
X8289824Y-7523865D02*
X8270777Y-7533389D01*
X8270777Y-7533389D02*
X8251729Y-7533389D01*
X8251729Y-7533389D02*
X8232681Y-7523865D01*
X8232681Y-7523865D02*
X8223158Y-7514341D01*
X8223158Y-7514341D02*
X8213634Y-7495293D01*
X8213634Y-7495293D02*
X8204110Y-7457198D01*
X8204110Y-7457198D02*
X8204110Y-7409579D01*
X8204110Y-7409579D02*
X8213634Y-7371484D01*
X8213634Y-7371484D02*
X8223158Y-7352436D01*
X8223158Y-7352436D02*
X8232681Y-7342913D01*
X8232681Y-7342913D02*
X8251729Y-7333389D01*
X8404110Y-7514341D02*
X8413634Y-7523865D01*
X8413634Y-7523865D02*
X8404110Y-7533389D01*
X8404110Y-7533389D02*
X8394586Y-7523865D01*
X8394586Y-7523865D02*
X8404110Y-7514341D01*
X8404110Y-7514341D02*
X8404110Y-7533389D01*
X8537443Y-7333389D02*
X8556491Y-7333389D01*
X8556491Y-7333389D02*
X8575539Y-7342913D01*
X8575539Y-7342913D02*
X8585063Y-7352436D01*
X8585063Y-7352436D02*
X8594586Y-7371484D01*
X8594586Y-7371484D02*
X8604110Y-7409579D01*
X8604110Y-7409579D02*
X8604110Y-7457198D01*
X8604110Y-7457198D02*
X8594586Y-7495293D01*
X8594586Y-7495293D02*
X8585063Y-7514341D01*
X8585063Y-7514341D02*
X8575539Y-7523865D01*
X8575539Y-7523865D02*
X8556491Y-7533389D01*
X8556491Y-7533389D02*
X8537443Y-7533389D01*
X8537443Y-7533389D02*
X8518396Y-7523865D01*
X8518396Y-7523865D02*
X8508872Y-7514341D01*
X8508872Y-7514341D02*
X8499348Y-7495293D01*
X8499348Y-7495293D02*
X8489824Y-7457198D01*
X8489824Y-7457198D02*
X8489824Y-7409579D01*
X8489824Y-7409579D02*
X8499348Y-7371484D01*
X8499348Y-7371484D02*
X8508872Y-7352436D01*
X8508872Y-7352436D02*
X8518396Y-7342913D01*
X8518396Y-7342913D02*
X8537443Y-7333389D01*
X8727920Y-7333389D02*
X8746967Y-7333389D01*
X8746967Y-7333389D02*
X8766015Y-7342913D01*
X8766015Y-7342913D02*
X8775539Y-7352436D01*
X8775539Y-7352436D02*
X8785063Y-7371484D01*
X8785063Y-7371484D02*
X8794586Y-7409579D01*
X8794586Y-7409579D02*
X8794586Y-7457198D01*
X8794586Y-7457198D02*
X8785063Y-7495293D01*
X8785063Y-7495293D02*
X8775539Y-7514341D01*
X8775539Y-7514341D02*
X8766015Y-7523865D01*
X8766015Y-7523865D02*
X8746967Y-7533389D01*
X8746967Y-7533389D02*
X8727920Y-7533389D01*
X8727920Y-7533389D02*
X8708872Y-7523865D01*
X8708872Y-7523865D02*
X8699348Y-7514341D01*
X8699348Y-7514341D02*
X8689824Y-7495293D01*
X8689824Y-7495293D02*
X8680301Y-7457198D01*
X8680301Y-7457198D02*
X8680301Y-7409579D01*
X8680301Y-7409579D02*
X8689824Y-7371484D01*
X8689824Y-7371484D02*
X8699348Y-7352436D01*
X8699348Y-7352436D02*
X8708872Y-7342913D01*
X8708872Y-7342913D02*
X8727920Y-7333389D01*
X8861253Y-7333389D02*
X8994586Y-7333389D01*
X8994586Y-7333389D02*
X8908872Y-7533389D01*
X9080301Y-7533389D02*
X9118396Y-7533389D01*
X9118396Y-7533389D02*
X9137444Y-7523865D01*
X9137444Y-7523865D02*
X9146967Y-7514341D01*
X9146967Y-7514341D02*
X9166015Y-7485770D01*
X9166015Y-7485770D02*
X9175539Y-7447674D01*
X9175539Y-7447674D02*
X9175539Y-7371484D01*
X9175539Y-7371484D02*
X9166015Y-7352436D01*
X9166015Y-7352436D02*
X9156491Y-7342913D01*
X9156491Y-7342913D02*
X9137444Y-7333389D01*
X9137444Y-7333389D02*
X9099348Y-7333389D01*
X9099348Y-7333389D02*
X9080301Y-7342913D01*
X9080301Y-7342913D02*
X9070777Y-7352436D01*
X9070777Y-7352436D02*
X9061253Y-7371484D01*
X9061253Y-7371484D02*
X9061253Y-7419103D01*
X9061253Y-7419103D02*
X9070777Y-7438151D01*
X9070777Y-7438151D02*
X9080301Y-7447674D01*
X9080301Y-7447674D02*
X9099348Y-7457198D01*
X9099348Y-7457198D02*
X9137444Y-7457198D01*
X9137444Y-7457198D02*
X9156491Y-7447674D01*
X9156491Y-7447674D02*
X9166015Y-7438151D01*
X9166015Y-7438151D02*
X9175539Y-7419103D01*
X9251729Y-7333389D02*
X9251729Y-7371484D01*
X9327920Y-7333389D02*
X9327920Y-7371484D01*
X9623158Y-7609579D02*
X9613634Y-7600055D01*
X9613634Y-7600055D02*
X9594586Y-7571484D01*
X9594586Y-7571484D02*
X9585063Y-7552436D01*
X9585063Y-7552436D02*
X9575539Y-7523865D01*
X9575539Y-7523865D02*
X9566015Y-7476246D01*
X9566015Y-7476246D02*
X9566015Y-7438151D01*
X9566015Y-7438151D02*
X9575539Y-7390532D01*
X9575539Y-7390532D02*
X9585063Y-7361960D01*
X9585063Y-7361960D02*
X9594586Y-7342913D01*
X9594586Y-7342913D02*
X9613634Y-7314341D01*
X9613634Y-7314341D02*
X9623158Y-7304817D01*
X9804110Y-7533389D02*
X9689825Y-7533389D01*
X9746967Y-7533389D02*
X9746967Y-7333389D01*
X9746967Y-7333389D02*
X9727920Y-7361960D01*
X9727920Y-7361960D02*
X9708872Y-7381008D01*
X9708872Y-7381008D02*
X9689825Y-7390532D01*
X9927920Y-7333389D02*
X9946967Y-7333389D01*
X9946967Y-7333389D02*
X9966015Y-7342913D01*
X9966015Y-7342913D02*
X9975539Y-7352436D01*
X9975539Y-7352436D02*
X9985063Y-7371484D01*
X9985063Y-7371484D02*
X9994586Y-7409579D01*
X9994586Y-7409579D02*
X9994586Y-7457198D01*
X9994586Y-7457198D02*
X9985063Y-7495293D01*
X9985063Y-7495293D02*
X9975539Y-7514341D01*
X9975539Y-7514341D02*
X9966015Y-7523865D01*
X9966015Y-7523865D02*
X9946967Y-7533389D01*
X9946967Y-7533389D02*
X9927920Y-7533389D01*
X9927920Y-7533389D02*
X9908872Y-7523865D01*
X9908872Y-7523865D02*
X9899348Y-7514341D01*
X9899348Y-7514341D02*
X9889825Y-7495293D01*
X9889825Y-7495293D02*
X9880301Y-7457198D01*
X9880301Y-7457198D02*
X9880301Y-7409579D01*
X9880301Y-7409579D02*
X9889825Y-7371484D01*
X9889825Y-7371484D02*
X9899348Y-7352436D01*
X9899348Y-7352436D02*
X9908872Y-7342913D01*
X9908872Y-7342913D02*
X9927920Y-7333389D01*
X10185063Y-7533389D02*
X10070777Y-7533389D01*
X10127920Y-7533389D02*
X10127920Y-7333389D01*
X10127920Y-7333389D02*
X10108872Y-7361960D01*
X10108872Y-7361960D02*
X10089825Y-7381008D01*
X10089825Y-7381008D02*
X10070777Y-7390532D01*
X10423158Y-7533389D02*
X10423158Y-7333389D01*
X10508872Y-7533389D02*
X10508872Y-7428627D01*
X10508872Y-7428627D02*
X10499348Y-7409579D01*
X10499348Y-7409579D02*
X10480301Y-7400055D01*
X10480301Y-7400055D02*
X10451729Y-7400055D01*
X10451729Y-7400055D02*
X10432682Y-7409579D01*
X10432682Y-7409579D02*
X10423158Y-7419103D01*
X10632682Y-7533389D02*
X10613634Y-7523865D01*
X10613634Y-7523865D02*
X10604110Y-7514341D01*
X10604110Y-7514341D02*
X10594587Y-7495293D01*
X10594587Y-7495293D02*
X10594587Y-7438151D01*
X10594587Y-7438151D02*
X10604110Y-7419103D01*
X10604110Y-7419103D02*
X10613634Y-7409579D01*
X10613634Y-7409579D02*
X10632682Y-7400055D01*
X10632682Y-7400055D02*
X10661253Y-7400055D01*
X10661253Y-7400055D02*
X10680301Y-7409579D01*
X10680301Y-7409579D02*
X10689825Y-7419103D01*
X10689825Y-7419103D02*
X10699348Y-7438151D01*
X10699348Y-7438151D02*
X10699348Y-7495293D01*
X10699348Y-7495293D02*
X10689825Y-7514341D01*
X10689825Y-7514341D02*
X10680301Y-7523865D01*
X10680301Y-7523865D02*
X10661253Y-7533389D01*
X10661253Y-7533389D02*
X10632682Y-7533389D01*
X10813634Y-7533389D02*
X10794587Y-7523865D01*
X10794587Y-7523865D02*
X10785063Y-7504817D01*
X10785063Y-7504817D02*
X10785063Y-7333389D01*
X10966015Y-7523865D02*
X10946968Y-7533389D01*
X10946968Y-7533389D02*
X10908872Y-7533389D01*
X10908872Y-7533389D02*
X10889825Y-7523865D01*
X10889825Y-7523865D02*
X10880301Y-7504817D01*
X10880301Y-7504817D02*
X10880301Y-7428627D01*
X10880301Y-7428627D02*
X10889825Y-7409579D01*
X10889825Y-7409579D02*
X10908872Y-7400055D01*
X10908872Y-7400055D02*
X10946968Y-7400055D01*
X10946968Y-7400055D02*
X10966015Y-7409579D01*
X10966015Y-7409579D02*
X10975539Y-7428627D01*
X10975539Y-7428627D02*
X10975539Y-7447674D01*
X10975539Y-7447674D02*
X10880301Y-7466722D01*
X11051729Y-7523865D02*
X11070777Y-7533389D01*
X11070777Y-7533389D02*
X11108872Y-7533389D01*
X11108872Y-7533389D02*
X11127920Y-7523865D01*
X11127920Y-7523865D02*
X11137444Y-7504817D01*
X11137444Y-7504817D02*
X11137444Y-7495293D01*
X11137444Y-7495293D02*
X11127920Y-7476246D01*
X11127920Y-7476246D02*
X11108872Y-7466722D01*
X11108872Y-7466722D02*
X11080301Y-7466722D01*
X11080301Y-7466722D02*
X11061253Y-7457198D01*
X11061253Y-7457198D02*
X11051729Y-7438151D01*
X11051729Y-7438151D02*
X11051729Y-7428627D01*
X11051729Y-7428627D02*
X11061253Y-7409579D01*
X11061253Y-7409579D02*
X11080301Y-7400055D01*
X11080301Y-7400055D02*
X11108872Y-7400055D01*
X11108872Y-7400055D02*
X11127920Y-7409579D01*
X11204110Y-7609579D02*
X11213634Y-7600055D01*
X11213634Y-7600055D02*
X11232682Y-7571484D01*
X11232682Y-7571484D02*
X11242206Y-7552436D01*
X11242206Y-7552436D02*
X11251729Y-7523865D01*
X11251729Y-7523865D02*
X11261253Y-7476246D01*
X11261253Y-7476246D02*
X11261253Y-7438151D01*
X11261253Y-7438151D02*
X11251729Y-7390532D01*
X11251729Y-7390532D02*
X11242206Y-7361960D01*
X11242206Y-7361960D02*
X11232682Y-7342913D01*
X11232682Y-7342913D02*
X11213634Y-7314341D01*
X11213634Y-7314341D02*
X11204110Y-7304817D01*
D13*
X6048095Y-7705905D02*
G75*
G03*
X6048095Y-7705905I-16510J0D01*
G01*
D11*
X6346967Y-7597389D02*
X6366015Y-7597389D01*
X6366015Y-7597389D02*
X6385062Y-7606913D01*
X6385062Y-7606913D02*
X6394586Y-7616436D01*
X6394586Y-7616436D02*
X6404110Y-7635484D01*
X6404110Y-7635484D02*
X6413634Y-7673579D01*
X6413634Y-7673579D02*
X6413634Y-7721198D01*
X6413634Y-7721198D02*
X6404110Y-7759293D01*
X6404110Y-7759293D02*
X6394586Y-7778341D01*
X6394586Y-7778341D02*
X6385062Y-7787865D01*
X6385062Y-7787865D02*
X6366015Y-7797389D01*
X6366015Y-7797389D02*
X6346967Y-7797389D01*
X6346967Y-7797389D02*
X6327919Y-7787865D01*
X6327919Y-7787865D02*
X6318396Y-7778341D01*
X6318396Y-7778341D02*
X6308872Y-7759293D01*
X6308872Y-7759293D02*
X6299348Y-7721198D01*
X6299348Y-7721198D02*
X6299348Y-7673579D01*
X6299348Y-7673579D02*
X6308872Y-7635484D01*
X6308872Y-7635484D02*
X6318396Y-7616436D01*
X6318396Y-7616436D02*
X6327919Y-7606913D01*
X6327919Y-7606913D02*
X6346967Y-7597389D01*
X6499348Y-7778341D02*
X6508872Y-7787865D01*
X6508872Y-7787865D02*
X6499348Y-7797389D01*
X6499348Y-7797389D02*
X6489824Y-7787865D01*
X6489824Y-7787865D02*
X6499348Y-7778341D01*
X6499348Y-7778341D02*
X6499348Y-7797389D01*
X6575538Y-7597389D02*
X6699348Y-7597389D01*
X6699348Y-7597389D02*
X6632681Y-7673579D01*
X6632681Y-7673579D02*
X6661253Y-7673579D01*
X6661253Y-7673579D02*
X6680300Y-7683103D01*
X6680300Y-7683103D02*
X6689824Y-7692627D01*
X6689824Y-7692627D02*
X6699348Y-7711674D01*
X6699348Y-7711674D02*
X6699348Y-7759293D01*
X6699348Y-7759293D02*
X6689824Y-7778341D01*
X6689824Y-7778341D02*
X6680300Y-7787865D01*
X6680300Y-7787865D02*
X6661253Y-7797389D01*
X6661253Y-7797389D02*
X6604110Y-7797389D01*
X6604110Y-7797389D02*
X6585062Y-7787865D01*
X6585062Y-7787865D02*
X6575538Y-7778341D01*
X6766015Y-7597389D02*
X6889824Y-7597389D01*
X6889824Y-7597389D02*
X6823157Y-7673579D01*
X6823157Y-7673579D02*
X6851729Y-7673579D01*
X6851729Y-7673579D02*
X6870777Y-7683103D01*
X6870777Y-7683103D02*
X6880300Y-7692627D01*
X6880300Y-7692627D02*
X6889824Y-7711674D01*
X6889824Y-7711674D02*
X6889824Y-7759293D01*
X6889824Y-7759293D02*
X6880300Y-7778341D01*
X6880300Y-7778341D02*
X6870777Y-7787865D01*
X6870777Y-7787865D02*
X6851729Y-7797389D01*
X6851729Y-7797389D02*
X6794586Y-7797389D01*
X6794586Y-7797389D02*
X6775538Y-7787865D01*
X6775538Y-7787865D02*
X6766015Y-7778341D01*
X7013634Y-7597389D02*
X7032681Y-7597389D01*
X7032681Y-7597389D02*
X7051729Y-7606913D01*
X7051729Y-7606913D02*
X7061253Y-7616436D01*
X7061253Y-7616436D02*
X7070777Y-7635484D01*
X7070777Y-7635484D02*
X7080300Y-7673579D01*
X7080300Y-7673579D02*
X7080300Y-7721198D01*
X7080300Y-7721198D02*
X7070777Y-7759293D01*
X7070777Y-7759293D02*
X7061253Y-7778341D01*
X7061253Y-7778341D02*
X7051729Y-7787865D01*
X7051729Y-7787865D02*
X7032681Y-7797389D01*
X7032681Y-7797389D02*
X7013634Y-7797389D01*
X7013634Y-7797389D02*
X6994586Y-7787865D01*
X6994586Y-7787865D02*
X6985062Y-7778341D01*
X6985062Y-7778341D02*
X6975538Y-7759293D01*
X6975538Y-7759293D02*
X6966015Y-7721198D01*
X6966015Y-7721198D02*
X6966015Y-7673579D01*
X6966015Y-7673579D02*
X6975538Y-7635484D01*
X6975538Y-7635484D02*
X6985062Y-7616436D01*
X6985062Y-7616436D02*
X6994586Y-7606913D01*
X6994586Y-7606913D02*
X7013634Y-7597389D01*
X7166015Y-7797389D02*
X7166015Y-7664055D01*
X7166015Y-7683103D02*
X7175538Y-7673579D01*
X7175538Y-7673579D02*
X7194586Y-7664055D01*
X7194586Y-7664055D02*
X7223158Y-7664055D01*
X7223158Y-7664055D02*
X7242205Y-7673579D01*
X7242205Y-7673579D02*
X7251729Y-7692627D01*
X7251729Y-7692627D02*
X7251729Y-7797389D01*
X7251729Y-7692627D02*
X7261253Y-7673579D01*
X7261253Y-7673579D02*
X7280300Y-7664055D01*
X7280300Y-7664055D02*
X7308872Y-7664055D01*
X7308872Y-7664055D02*
X7327919Y-7673579D01*
X7327919Y-7673579D02*
X7337443Y-7692627D01*
X7337443Y-7692627D02*
X7337443Y-7797389D01*
X7432681Y-7797389D02*
X7432681Y-7664055D01*
X7432681Y-7683103D02*
X7442205Y-7673579D01*
X7442205Y-7673579D02*
X7461253Y-7664055D01*
X7461253Y-7664055D02*
X7489824Y-7664055D01*
X7489824Y-7664055D02*
X7508872Y-7673579D01*
X7508872Y-7673579D02*
X7518396Y-7692627D01*
X7518396Y-7692627D02*
X7518396Y-7797389D01*
X7518396Y-7692627D02*
X7527919Y-7673579D01*
X7527919Y-7673579D02*
X7546967Y-7664055D01*
X7546967Y-7664055D02*
X7575538Y-7664055D01*
X7575538Y-7664055D02*
X7594586Y-7673579D01*
X7594586Y-7673579D02*
X7604110Y-7692627D01*
X7604110Y-7692627D02*
X7604110Y-7797389D01*
X7994586Y-7587865D02*
X7823158Y-7845008D01*
X8251729Y-7597389D02*
X8270777Y-7597389D01*
X8270777Y-7597389D02*
X8289824Y-7606913D01*
X8289824Y-7606913D02*
X8299348Y-7616436D01*
X8299348Y-7616436D02*
X8308872Y-7635484D01*
X8308872Y-7635484D02*
X8318396Y-7673579D01*
X8318396Y-7673579D02*
X8318396Y-7721198D01*
X8318396Y-7721198D02*
X8308872Y-7759293D01*
X8308872Y-7759293D02*
X8299348Y-7778341D01*
X8299348Y-7778341D02*
X8289824Y-7787865D01*
X8289824Y-7787865D02*
X8270777Y-7797389D01*
X8270777Y-7797389D02*
X8251729Y-7797389D01*
X8251729Y-7797389D02*
X8232681Y-7787865D01*
X8232681Y-7787865D02*
X8223158Y-7778341D01*
X8223158Y-7778341D02*
X8213634Y-7759293D01*
X8213634Y-7759293D02*
X8204110Y-7721198D01*
X8204110Y-7721198D02*
X8204110Y-7673579D01*
X8204110Y-7673579D02*
X8213634Y-7635484D01*
X8213634Y-7635484D02*
X8223158Y-7616436D01*
X8223158Y-7616436D02*
X8232681Y-7606913D01*
X8232681Y-7606913D02*
X8251729Y-7597389D01*
X8404110Y-7778341D02*
X8413634Y-7787865D01*
X8413634Y-7787865D02*
X8404110Y-7797389D01*
X8404110Y-7797389D02*
X8394586Y-7787865D01*
X8394586Y-7787865D02*
X8404110Y-7778341D01*
X8404110Y-7778341D02*
X8404110Y-7797389D01*
X8537443Y-7597389D02*
X8556491Y-7597389D01*
X8556491Y-7597389D02*
X8575539Y-7606913D01*
X8575539Y-7606913D02*
X8585063Y-7616436D01*
X8585063Y-7616436D02*
X8594586Y-7635484D01*
X8594586Y-7635484D02*
X8604110Y-7673579D01*
X8604110Y-7673579D02*
X8604110Y-7721198D01*
X8604110Y-7721198D02*
X8594586Y-7759293D01*
X8594586Y-7759293D02*
X8585063Y-7778341D01*
X8585063Y-7778341D02*
X8575539Y-7787865D01*
X8575539Y-7787865D02*
X8556491Y-7797389D01*
X8556491Y-7797389D02*
X8537443Y-7797389D01*
X8537443Y-7797389D02*
X8518396Y-7787865D01*
X8518396Y-7787865D02*
X8508872Y-7778341D01*
X8508872Y-7778341D02*
X8499348Y-7759293D01*
X8499348Y-7759293D02*
X8489824Y-7721198D01*
X8489824Y-7721198D02*
X8489824Y-7673579D01*
X8489824Y-7673579D02*
X8499348Y-7635484D01*
X8499348Y-7635484D02*
X8508872Y-7616436D01*
X8508872Y-7616436D02*
X8518396Y-7606913D01*
X8518396Y-7606913D02*
X8537443Y-7597389D01*
X8794586Y-7797389D02*
X8680301Y-7797389D01*
X8737443Y-7797389D02*
X8737443Y-7597389D01*
X8737443Y-7597389D02*
X8718396Y-7625960D01*
X8718396Y-7625960D02*
X8699348Y-7645008D01*
X8699348Y-7645008D02*
X8680301Y-7654532D01*
X8861253Y-7597389D02*
X8985063Y-7597389D01*
X8985063Y-7597389D02*
X8918396Y-7673579D01*
X8918396Y-7673579D02*
X8946967Y-7673579D01*
X8946967Y-7673579D02*
X8966015Y-7683103D01*
X8966015Y-7683103D02*
X8975539Y-7692627D01*
X8975539Y-7692627D02*
X8985063Y-7711674D01*
X8985063Y-7711674D02*
X8985063Y-7759293D01*
X8985063Y-7759293D02*
X8975539Y-7778341D01*
X8975539Y-7778341D02*
X8966015Y-7787865D01*
X8966015Y-7787865D02*
X8946967Y-7797389D01*
X8946967Y-7797389D02*
X8889824Y-7797389D01*
X8889824Y-7797389D02*
X8870777Y-7787865D01*
X8870777Y-7787865D02*
X8861253Y-7778341D01*
X9108872Y-7597389D02*
X9127920Y-7597389D01*
X9127920Y-7597389D02*
X9146967Y-7606913D01*
X9146967Y-7606913D02*
X9156491Y-7616436D01*
X9156491Y-7616436D02*
X9166015Y-7635484D01*
X9166015Y-7635484D02*
X9175539Y-7673579D01*
X9175539Y-7673579D02*
X9175539Y-7721198D01*
X9175539Y-7721198D02*
X9166015Y-7759293D01*
X9166015Y-7759293D02*
X9156491Y-7778341D01*
X9156491Y-7778341D02*
X9146967Y-7787865D01*
X9146967Y-7787865D02*
X9127920Y-7797389D01*
X9127920Y-7797389D02*
X9108872Y-7797389D01*
X9108872Y-7797389D02*
X9089824Y-7787865D01*
X9089824Y-7787865D02*
X9080301Y-7778341D01*
X9080301Y-7778341D02*
X9070777Y-7759293D01*
X9070777Y-7759293D02*
X9061253Y-7721198D01*
X9061253Y-7721198D02*
X9061253Y-7673579D01*
X9061253Y-7673579D02*
X9070777Y-7635484D01*
X9070777Y-7635484D02*
X9080301Y-7616436D01*
X9080301Y-7616436D02*
X9089824Y-7606913D01*
X9089824Y-7606913D02*
X9108872Y-7597389D01*
X9251729Y-7597389D02*
X9251729Y-7635484D01*
X9327920Y-7597389D02*
X9327920Y-7635484D01*
X9623158Y-7873579D02*
X9613634Y-7864055D01*
X9613634Y-7864055D02*
X9594586Y-7835484D01*
X9594586Y-7835484D02*
X9585063Y-7816436D01*
X9585063Y-7816436D02*
X9575539Y-7787865D01*
X9575539Y-7787865D02*
X9566015Y-7740246D01*
X9566015Y-7740246D02*
X9566015Y-7702151D01*
X9566015Y-7702151D02*
X9575539Y-7654532D01*
X9575539Y-7654532D02*
X9585063Y-7625960D01*
X9585063Y-7625960D02*
X9594586Y-7606913D01*
X9594586Y-7606913D02*
X9613634Y-7578341D01*
X9613634Y-7578341D02*
X9623158Y-7568817D01*
X9680301Y-7597389D02*
X9804110Y-7597389D01*
X9804110Y-7597389D02*
X9737444Y-7673579D01*
X9737444Y-7673579D02*
X9766015Y-7673579D01*
X9766015Y-7673579D02*
X9785063Y-7683103D01*
X9785063Y-7683103D02*
X9794586Y-7692627D01*
X9794586Y-7692627D02*
X9804110Y-7711674D01*
X9804110Y-7711674D02*
X9804110Y-7759293D01*
X9804110Y-7759293D02*
X9794586Y-7778341D01*
X9794586Y-7778341D02*
X9785063Y-7787865D01*
X9785063Y-7787865D02*
X9766015Y-7797389D01*
X9766015Y-7797389D02*
X9708872Y-7797389D01*
X9708872Y-7797389D02*
X9689825Y-7787865D01*
X9689825Y-7787865D02*
X9680301Y-7778341D01*
X9975539Y-7664055D02*
X9975539Y-7797389D01*
X9927920Y-7587865D02*
X9880301Y-7730722D01*
X9880301Y-7730722D02*
X10004110Y-7730722D01*
X10232682Y-7797389D02*
X10232682Y-7597389D01*
X10318396Y-7797389D02*
X10318396Y-7692627D01*
X10318396Y-7692627D02*
X10308872Y-7673579D01*
X10308872Y-7673579D02*
X10289825Y-7664055D01*
X10289825Y-7664055D02*
X10261253Y-7664055D01*
X10261253Y-7664055D02*
X10242206Y-7673579D01*
X10242206Y-7673579D02*
X10232682Y-7683103D01*
X10442206Y-7797389D02*
X10423158Y-7787865D01*
X10423158Y-7787865D02*
X10413634Y-7778341D01*
X10413634Y-7778341D02*
X10404110Y-7759293D01*
X10404110Y-7759293D02*
X10404110Y-7702151D01*
X10404110Y-7702151D02*
X10413634Y-7683103D01*
X10413634Y-7683103D02*
X10423158Y-7673579D01*
X10423158Y-7673579D02*
X10442206Y-7664055D01*
X10442206Y-7664055D02*
X10470777Y-7664055D01*
X10470777Y-7664055D02*
X10489825Y-7673579D01*
X10489825Y-7673579D02*
X10499348Y-7683103D01*
X10499348Y-7683103D02*
X10508872Y-7702151D01*
X10508872Y-7702151D02*
X10508872Y-7759293D01*
X10508872Y-7759293D02*
X10499348Y-7778341D01*
X10499348Y-7778341D02*
X10489825Y-7787865D01*
X10489825Y-7787865D02*
X10470777Y-7797389D01*
X10470777Y-7797389D02*
X10442206Y-7797389D01*
X10623158Y-7797389D02*
X10604110Y-7787865D01*
X10604110Y-7787865D02*
X10594587Y-7768817D01*
X10594587Y-7768817D02*
X10594587Y-7597389D01*
X10775539Y-7787865D02*
X10756491Y-7797389D01*
X10756491Y-7797389D02*
X10718396Y-7797389D01*
X10718396Y-7797389D02*
X10699348Y-7787865D01*
X10699348Y-7787865D02*
X10689825Y-7768817D01*
X10689825Y-7768817D02*
X10689825Y-7692627D01*
X10689825Y-7692627D02*
X10699348Y-7673579D01*
X10699348Y-7673579D02*
X10718396Y-7664055D01*
X10718396Y-7664055D02*
X10756491Y-7664055D01*
X10756491Y-7664055D02*
X10775539Y-7673579D01*
X10775539Y-7673579D02*
X10785063Y-7692627D01*
X10785063Y-7692627D02*
X10785063Y-7711674D01*
X10785063Y-7711674D02*
X10689825Y-7730722D01*
X10861253Y-7787865D02*
X10880301Y-7797389D01*
X10880301Y-7797389D02*
X10918396Y-7797389D01*
X10918396Y-7797389D02*
X10937444Y-7787865D01*
X10937444Y-7787865D02*
X10946968Y-7768817D01*
X10946968Y-7768817D02*
X10946968Y-7759293D01*
X10946968Y-7759293D02*
X10937444Y-7740246D01*
X10937444Y-7740246D02*
X10918396Y-7730722D01*
X10918396Y-7730722D02*
X10889825Y-7730722D01*
X10889825Y-7730722D02*
X10870777Y-7721198D01*
X10870777Y-7721198D02*
X10861253Y-7702151D01*
X10861253Y-7702151D02*
X10861253Y-7692627D01*
X10861253Y-7692627D02*
X10870777Y-7673579D01*
X10870777Y-7673579D02*
X10889825Y-7664055D01*
X10889825Y-7664055D02*
X10918396Y-7664055D01*
X10918396Y-7664055D02*
X10937444Y-7673579D01*
X11013634Y-7873579D02*
X11023158Y-7864055D01*
X11023158Y-7864055D02*
X11042206Y-7835484D01*
X11042206Y-7835484D02*
X11051729Y-7816436D01*
X11051729Y-7816436D02*
X11061253Y-7787865D01*
X11061253Y-7787865D02*
X11070777Y-7740246D01*
X11070777Y-7740246D02*
X11070777Y-7702151D01*
X11070777Y-7702151D02*
X11061253Y-7654532D01*
X11061253Y-7654532D02*
X11051729Y-7625960D01*
X11051729Y-7625960D02*
X11042206Y-7606913D01*
X11042206Y-7606913D02*
X11023158Y-7578341D01*
X11023158Y-7578341D02*
X11013634Y-7568817D01*
D14*
X6018095Y-7939905D02*
X6018095Y-7999905D01*
X5988095Y-7969905D02*
X6048095Y-7969905D01*
D11*
X6346967Y-7861389D02*
X6366015Y-7861389D01*
X6366015Y-7861389D02*
X6385062Y-7870913D01*
X6385062Y-7870913D02*
X6394586Y-7880436D01*
X6394586Y-7880436D02*
X6404110Y-7899484D01*
X6404110Y-7899484D02*
X6413634Y-7937579D01*
X6413634Y-7937579D02*
X6413634Y-7985198D01*
X6413634Y-7985198D02*
X6404110Y-8023293D01*
X6404110Y-8023293D02*
X6394586Y-8042341D01*
X6394586Y-8042341D02*
X6385062Y-8051865D01*
X6385062Y-8051865D02*
X6366015Y-8061389D01*
X6366015Y-8061389D02*
X6346967Y-8061389D01*
X6346967Y-8061389D02*
X6327919Y-8051865D01*
X6327919Y-8051865D02*
X6318396Y-8042341D01*
X6318396Y-8042341D02*
X6308872Y-8023293D01*
X6308872Y-8023293D02*
X6299348Y-7985198D01*
X6299348Y-7985198D02*
X6299348Y-7937579D01*
X6299348Y-7937579D02*
X6308872Y-7899484D01*
X6308872Y-7899484D02*
X6318396Y-7880436D01*
X6318396Y-7880436D02*
X6327919Y-7870913D01*
X6327919Y-7870913D02*
X6346967Y-7861389D01*
X6499348Y-8042341D02*
X6508872Y-8051865D01*
X6508872Y-8051865D02*
X6499348Y-8061389D01*
X6499348Y-8061389D02*
X6489824Y-8051865D01*
X6489824Y-8051865D02*
X6499348Y-8042341D01*
X6499348Y-8042341D02*
X6499348Y-8061389D01*
X6680300Y-7861389D02*
X6642205Y-7861389D01*
X6642205Y-7861389D02*
X6623157Y-7870913D01*
X6623157Y-7870913D02*
X6613634Y-7880436D01*
X6613634Y-7880436D02*
X6594586Y-7909008D01*
X6594586Y-7909008D02*
X6585062Y-7947103D01*
X6585062Y-7947103D02*
X6585062Y-8023293D01*
X6585062Y-8023293D02*
X6594586Y-8042341D01*
X6594586Y-8042341D02*
X6604110Y-8051865D01*
X6604110Y-8051865D02*
X6623157Y-8061389D01*
X6623157Y-8061389D02*
X6661253Y-8061389D01*
X6661253Y-8061389D02*
X6680300Y-8051865D01*
X6680300Y-8051865D02*
X6689824Y-8042341D01*
X6689824Y-8042341D02*
X6699348Y-8023293D01*
X6699348Y-8023293D02*
X6699348Y-7975674D01*
X6699348Y-7975674D02*
X6689824Y-7956627D01*
X6689824Y-7956627D02*
X6680300Y-7947103D01*
X6680300Y-7947103D02*
X6661253Y-7937579D01*
X6661253Y-7937579D02*
X6623157Y-7937579D01*
X6623157Y-7937579D02*
X6604110Y-7947103D01*
X6604110Y-7947103D02*
X6594586Y-7956627D01*
X6594586Y-7956627D02*
X6585062Y-7975674D01*
X6823157Y-7861389D02*
X6842205Y-7861389D01*
X6842205Y-7861389D02*
X6861253Y-7870913D01*
X6861253Y-7870913D02*
X6870777Y-7880436D01*
X6870777Y-7880436D02*
X6880300Y-7899484D01*
X6880300Y-7899484D02*
X6889824Y-7937579D01*
X6889824Y-7937579D02*
X6889824Y-7985198D01*
X6889824Y-7985198D02*
X6880300Y-8023293D01*
X6880300Y-8023293D02*
X6870777Y-8042341D01*
X6870777Y-8042341D02*
X6861253Y-8051865D01*
X6861253Y-8051865D02*
X6842205Y-8061389D01*
X6842205Y-8061389D02*
X6823157Y-8061389D01*
X6823157Y-8061389D02*
X6804110Y-8051865D01*
X6804110Y-8051865D02*
X6794586Y-8042341D01*
X6794586Y-8042341D02*
X6785062Y-8023293D01*
X6785062Y-8023293D02*
X6775538Y-7985198D01*
X6775538Y-7985198D02*
X6775538Y-7937579D01*
X6775538Y-7937579D02*
X6785062Y-7899484D01*
X6785062Y-7899484D02*
X6794586Y-7880436D01*
X6794586Y-7880436D02*
X6804110Y-7870913D01*
X6804110Y-7870913D02*
X6823157Y-7861389D01*
X7013634Y-7861389D02*
X7032681Y-7861389D01*
X7032681Y-7861389D02*
X7051729Y-7870913D01*
X7051729Y-7870913D02*
X7061253Y-7880436D01*
X7061253Y-7880436D02*
X7070777Y-7899484D01*
X7070777Y-7899484D02*
X7080300Y-7937579D01*
X7080300Y-7937579D02*
X7080300Y-7985198D01*
X7080300Y-7985198D02*
X7070777Y-8023293D01*
X7070777Y-8023293D02*
X7061253Y-8042341D01*
X7061253Y-8042341D02*
X7051729Y-8051865D01*
X7051729Y-8051865D02*
X7032681Y-8061389D01*
X7032681Y-8061389D02*
X7013634Y-8061389D01*
X7013634Y-8061389D02*
X6994586Y-8051865D01*
X6994586Y-8051865D02*
X6985062Y-8042341D01*
X6985062Y-8042341D02*
X6975538Y-8023293D01*
X6975538Y-8023293D02*
X6966015Y-7985198D01*
X6966015Y-7985198D02*
X6966015Y-7937579D01*
X6966015Y-7937579D02*
X6975538Y-7899484D01*
X6975538Y-7899484D02*
X6985062Y-7880436D01*
X6985062Y-7880436D02*
X6994586Y-7870913D01*
X6994586Y-7870913D02*
X7013634Y-7861389D01*
X7166015Y-8061389D02*
X7166015Y-7928055D01*
X7166015Y-7947103D02*
X7175538Y-7937579D01*
X7175538Y-7937579D02*
X7194586Y-7928055D01*
X7194586Y-7928055D02*
X7223158Y-7928055D01*
X7223158Y-7928055D02*
X7242205Y-7937579D01*
X7242205Y-7937579D02*
X7251729Y-7956627D01*
X7251729Y-7956627D02*
X7251729Y-8061389D01*
X7251729Y-7956627D02*
X7261253Y-7937579D01*
X7261253Y-7937579D02*
X7280300Y-7928055D01*
X7280300Y-7928055D02*
X7308872Y-7928055D01*
X7308872Y-7928055D02*
X7327919Y-7937579D01*
X7327919Y-7937579D02*
X7337443Y-7956627D01*
X7337443Y-7956627D02*
X7337443Y-8061389D01*
X7432681Y-8061389D02*
X7432681Y-7928055D01*
X7432681Y-7947103D02*
X7442205Y-7937579D01*
X7442205Y-7937579D02*
X7461253Y-7928055D01*
X7461253Y-7928055D02*
X7489824Y-7928055D01*
X7489824Y-7928055D02*
X7508872Y-7937579D01*
X7508872Y-7937579D02*
X7518396Y-7956627D01*
X7518396Y-7956627D02*
X7518396Y-8061389D01*
X7518396Y-7956627D02*
X7527919Y-7937579D01*
X7527919Y-7937579D02*
X7546967Y-7928055D01*
X7546967Y-7928055D02*
X7575538Y-7928055D01*
X7575538Y-7928055D02*
X7594586Y-7937579D01*
X7594586Y-7937579D02*
X7604110Y-7956627D01*
X7604110Y-7956627D02*
X7604110Y-8061389D01*
X7994586Y-7851865D02*
X7823158Y-8109008D01*
X8251729Y-7861389D02*
X8270777Y-7861389D01*
X8270777Y-7861389D02*
X8289824Y-7870913D01*
X8289824Y-7870913D02*
X8299348Y-7880436D01*
X8299348Y-7880436D02*
X8308872Y-7899484D01*
X8308872Y-7899484D02*
X8318396Y-7937579D01*
X8318396Y-7937579D02*
X8318396Y-7985198D01*
X8318396Y-7985198D02*
X8308872Y-8023293D01*
X8308872Y-8023293D02*
X8299348Y-8042341D01*
X8299348Y-8042341D02*
X8289824Y-8051865D01*
X8289824Y-8051865D02*
X8270777Y-8061389D01*
X8270777Y-8061389D02*
X8251729Y-8061389D01*
X8251729Y-8061389D02*
X8232681Y-8051865D01*
X8232681Y-8051865D02*
X8223158Y-8042341D01*
X8223158Y-8042341D02*
X8213634Y-8023293D01*
X8213634Y-8023293D02*
X8204110Y-7985198D01*
X8204110Y-7985198D02*
X8204110Y-7937579D01*
X8204110Y-7937579D02*
X8213634Y-7899484D01*
X8213634Y-7899484D02*
X8223158Y-7880436D01*
X8223158Y-7880436D02*
X8232681Y-7870913D01*
X8232681Y-7870913D02*
X8251729Y-7861389D01*
X8404110Y-8042341D02*
X8413634Y-8051865D01*
X8413634Y-8051865D02*
X8404110Y-8061389D01*
X8404110Y-8061389D02*
X8394586Y-8051865D01*
X8394586Y-8051865D02*
X8404110Y-8042341D01*
X8404110Y-8042341D02*
X8404110Y-8061389D01*
X8537443Y-7861389D02*
X8556491Y-7861389D01*
X8556491Y-7861389D02*
X8575539Y-7870913D01*
X8575539Y-7870913D02*
X8585063Y-7880436D01*
X8585063Y-7880436D02*
X8594586Y-7899484D01*
X8594586Y-7899484D02*
X8604110Y-7937579D01*
X8604110Y-7937579D02*
X8604110Y-7985198D01*
X8604110Y-7985198D02*
X8594586Y-8023293D01*
X8594586Y-8023293D02*
X8585063Y-8042341D01*
X8585063Y-8042341D02*
X8575539Y-8051865D01*
X8575539Y-8051865D02*
X8556491Y-8061389D01*
X8556491Y-8061389D02*
X8537443Y-8061389D01*
X8537443Y-8061389D02*
X8518396Y-8051865D01*
X8518396Y-8051865D02*
X8508872Y-8042341D01*
X8508872Y-8042341D02*
X8499348Y-8023293D01*
X8499348Y-8023293D02*
X8489824Y-7985198D01*
X8489824Y-7985198D02*
X8489824Y-7937579D01*
X8489824Y-7937579D02*
X8499348Y-7899484D01*
X8499348Y-7899484D02*
X8508872Y-7880436D01*
X8508872Y-7880436D02*
X8518396Y-7870913D01*
X8518396Y-7870913D02*
X8537443Y-7861389D01*
X8680301Y-7880436D02*
X8689824Y-7870913D01*
X8689824Y-7870913D02*
X8708872Y-7861389D01*
X8708872Y-7861389D02*
X8756491Y-7861389D01*
X8756491Y-7861389D02*
X8775539Y-7870913D01*
X8775539Y-7870913D02*
X8785063Y-7880436D01*
X8785063Y-7880436D02*
X8794586Y-7899484D01*
X8794586Y-7899484D02*
X8794586Y-7918532D01*
X8794586Y-7918532D02*
X8785063Y-7947103D01*
X8785063Y-7947103D02*
X8670777Y-8061389D01*
X8670777Y-8061389D02*
X8794586Y-8061389D01*
X8861253Y-7861389D02*
X8985063Y-7861389D01*
X8985063Y-7861389D02*
X8918396Y-7937579D01*
X8918396Y-7937579D02*
X8946967Y-7937579D01*
X8946967Y-7937579D02*
X8966015Y-7947103D01*
X8966015Y-7947103D02*
X8975539Y-7956627D01*
X8975539Y-7956627D02*
X8985063Y-7975674D01*
X8985063Y-7975674D02*
X8985063Y-8023293D01*
X8985063Y-8023293D02*
X8975539Y-8042341D01*
X8975539Y-8042341D02*
X8966015Y-8051865D01*
X8966015Y-8051865D02*
X8946967Y-8061389D01*
X8946967Y-8061389D02*
X8889824Y-8061389D01*
X8889824Y-8061389D02*
X8870777Y-8051865D01*
X8870777Y-8051865D02*
X8861253Y-8042341D01*
X9156491Y-7861389D02*
X9118396Y-7861389D01*
X9118396Y-7861389D02*
X9099348Y-7870913D01*
X9099348Y-7870913D02*
X9089824Y-7880436D01*
X9089824Y-7880436D02*
X9070777Y-7909008D01*
X9070777Y-7909008D02*
X9061253Y-7947103D01*
X9061253Y-7947103D02*
X9061253Y-8023293D01*
X9061253Y-8023293D02*
X9070777Y-8042341D01*
X9070777Y-8042341D02*
X9080301Y-8051865D01*
X9080301Y-8051865D02*
X9099348Y-8061389D01*
X9099348Y-8061389D02*
X9137444Y-8061389D01*
X9137444Y-8061389D02*
X9156491Y-8051865D01*
X9156491Y-8051865D02*
X9166015Y-8042341D01*
X9166015Y-8042341D02*
X9175539Y-8023293D01*
X9175539Y-8023293D02*
X9175539Y-7975674D01*
X9175539Y-7975674D02*
X9166015Y-7956627D01*
X9166015Y-7956627D02*
X9156491Y-7947103D01*
X9156491Y-7947103D02*
X9137444Y-7937579D01*
X9137444Y-7937579D02*
X9099348Y-7937579D01*
X9099348Y-7937579D02*
X9080301Y-7947103D01*
X9080301Y-7947103D02*
X9070777Y-7956627D01*
X9070777Y-7956627D02*
X9061253Y-7975674D01*
X9251729Y-7861389D02*
X9251729Y-7899484D01*
X9327920Y-7861389D02*
X9327920Y-7899484D01*
X9623158Y-8137579D02*
X9613634Y-8128055D01*
X9613634Y-8128055D02*
X9594586Y-8099484D01*
X9594586Y-8099484D02*
X9585063Y-8080436D01*
X9585063Y-8080436D02*
X9575539Y-8051865D01*
X9575539Y-8051865D02*
X9566015Y-8004246D01*
X9566015Y-8004246D02*
X9566015Y-7966151D01*
X9566015Y-7966151D02*
X9575539Y-7918532D01*
X9575539Y-7918532D02*
X9585063Y-7889960D01*
X9585063Y-7889960D02*
X9594586Y-7870913D01*
X9594586Y-7870913D02*
X9613634Y-7842341D01*
X9613634Y-7842341D02*
X9623158Y-7832817D01*
X9737444Y-7861389D02*
X9756491Y-7861389D01*
X9756491Y-7861389D02*
X9775539Y-7870913D01*
X9775539Y-7870913D02*
X9785063Y-7880436D01*
X9785063Y-7880436D02*
X9794586Y-7899484D01*
X9794586Y-7899484D02*
X9804110Y-7937579D01*
X9804110Y-7937579D02*
X9804110Y-7985198D01*
X9804110Y-7985198D02*
X9794586Y-8023293D01*
X9794586Y-8023293D02*
X9785063Y-8042341D01*
X9785063Y-8042341D02*
X9775539Y-8051865D01*
X9775539Y-8051865D02*
X9756491Y-8061389D01*
X9756491Y-8061389D02*
X9737444Y-8061389D01*
X9737444Y-8061389D02*
X9718396Y-8051865D01*
X9718396Y-8051865D02*
X9708872Y-8042341D01*
X9708872Y-8042341D02*
X9699348Y-8023293D01*
X9699348Y-8023293D02*
X9689825Y-7985198D01*
X9689825Y-7985198D02*
X9689825Y-7937579D01*
X9689825Y-7937579D02*
X9699348Y-7899484D01*
X9699348Y-7899484D02*
X9708872Y-7880436D01*
X9708872Y-7880436D02*
X9718396Y-7870913D01*
X9718396Y-7870913D02*
X9737444Y-7861389D01*
X10042206Y-8061389D02*
X10042206Y-7861389D01*
X10127920Y-8061389D02*
X10127920Y-7956627D01*
X10127920Y-7956627D02*
X10118396Y-7937579D01*
X10118396Y-7937579D02*
X10099348Y-7928055D01*
X10099348Y-7928055D02*
X10070777Y-7928055D01*
X10070777Y-7928055D02*
X10051729Y-7937579D01*
X10051729Y-7937579D02*
X10042206Y-7947103D01*
X10251729Y-8061389D02*
X10232682Y-8051865D01*
X10232682Y-8051865D02*
X10223158Y-8042341D01*
X10223158Y-8042341D02*
X10213634Y-8023293D01*
X10213634Y-8023293D02*
X10213634Y-7966151D01*
X10213634Y-7966151D02*
X10223158Y-7947103D01*
X10223158Y-7947103D02*
X10232682Y-7937579D01*
X10232682Y-7937579D02*
X10251729Y-7928055D01*
X10251729Y-7928055D02*
X10280301Y-7928055D01*
X10280301Y-7928055D02*
X10299348Y-7937579D01*
X10299348Y-7937579D02*
X10308872Y-7947103D01*
X10308872Y-7947103D02*
X10318396Y-7966151D01*
X10318396Y-7966151D02*
X10318396Y-8023293D01*
X10318396Y-8023293D02*
X10308872Y-8042341D01*
X10308872Y-8042341D02*
X10299348Y-8051865D01*
X10299348Y-8051865D02*
X10280301Y-8061389D01*
X10280301Y-8061389D02*
X10251729Y-8061389D01*
X10432682Y-8061389D02*
X10413634Y-8051865D01*
X10413634Y-8051865D02*
X10404110Y-8032817D01*
X10404110Y-8032817D02*
X10404110Y-7861389D01*
X10585063Y-8051865D02*
X10566015Y-8061389D01*
X10566015Y-8061389D02*
X10527920Y-8061389D01*
X10527920Y-8061389D02*
X10508872Y-8051865D01*
X10508872Y-8051865D02*
X10499348Y-8032817D01*
X10499348Y-8032817D02*
X10499348Y-7956627D01*
X10499348Y-7956627D02*
X10508872Y-7937579D01*
X10508872Y-7937579D02*
X10527920Y-7928055D01*
X10527920Y-7928055D02*
X10566015Y-7928055D01*
X10566015Y-7928055D02*
X10585063Y-7937579D01*
X10585063Y-7937579D02*
X10594587Y-7956627D01*
X10594587Y-7956627D02*
X10594587Y-7975674D01*
X10594587Y-7975674D02*
X10499348Y-7994722D01*
X10670777Y-8051865D02*
X10689825Y-8061389D01*
X10689825Y-8061389D02*
X10727920Y-8061389D01*
X10727920Y-8061389D02*
X10746968Y-8051865D01*
X10746968Y-8051865D02*
X10756491Y-8032817D01*
X10756491Y-8032817D02*
X10756491Y-8023293D01*
X10756491Y-8023293D02*
X10746968Y-8004246D01*
X10746968Y-8004246D02*
X10727920Y-7994722D01*
X10727920Y-7994722D02*
X10699348Y-7994722D01*
X10699348Y-7994722D02*
X10680301Y-7985198D01*
X10680301Y-7985198D02*
X10670777Y-7966151D01*
X10670777Y-7966151D02*
X10670777Y-7956627D01*
X10670777Y-7956627D02*
X10680301Y-7937579D01*
X10680301Y-7937579D02*
X10699348Y-7928055D01*
X10699348Y-7928055D02*
X10727920Y-7928055D01*
X10727920Y-7928055D02*
X10746968Y-7937579D01*
X10994587Y-7985198D02*
X11146968Y-7985198D01*
X11070777Y-8061389D02*
X11070777Y-7909008D01*
X11480301Y-7928055D02*
X11480301Y-8061389D01*
X11432682Y-7851865D02*
X11385063Y-7994722D01*
X11385063Y-7994722D02*
X11508872Y-7994722D01*
X11727920Y-8051865D02*
X11746968Y-8061389D01*
X11746968Y-8061389D02*
X11785063Y-8061389D01*
X11785063Y-8061389D02*
X11804110Y-8051865D01*
X11804110Y-8051865D02*
X11813634Y-8032817D01*
X11813634Y-8032817D02*
X11813634Y-8023293D01*
X11813634Y-8023293D02*
X11804110Y-8004246D01*
X11804110Y-8004246D02*
X11785063Y-7994722D01*
X11785063Y-7994722D02*
X11756491Y-7994722D01*
X11756491Y-7994722D02*
X11737444Y-7985198D01*
X11737444Y-7985198D02*
X11727920Y-7966151D01*
X11727920Y-7966151D02*
X11727920Y-7956627D01*
X11727920Y-7956627D02*
X11737444Y-7937579D01*
X11737444Y-7937579D02*
X11756491Y-7928055D01*
X11756491Y-7928055D02*
X11785063Y-7928055D01*
X11785063Y-7928055D02*
X11804110Y-7937579D01*
X11927920Y-8061389D02*
X11908872Y-8051865D01*
X11908872Y-8051865D02*
X11899349Y-8032817D01*
X11899349Y-8032817D02*
X11899349Y-7861389D01*
X12032682Y-8061389D02*
X12013634Y-8051865D01*
X12013634Y-8051865D02*
X12004110Y-8042341D01*
X12004110Y-8042341D02*
X11994587Y-8023293D01*
X11994587Y-8023293D02*
X11994587Y-7966151D01*
X11994587Y-7966151D02*
X12004110Y-7947103D01*
X12004110Y-7947103D02*
X12013634Y-7937579D01*
X12013634Y-7937579D02*
X12032682Y-7928055D01*
X12032682Y-7928055D02*
X12061253Y-7928055D01*
X12061253Y-7928055D02*
X12080301Y-7937579D01*
X12080301Y-7937579D02*
X12089825Y-7947103D01*
X12089825Y-7947103D02*
X12099349Y-7966151D01*
X12099349Y-7966151D02*
X12099349Y-8023293D01*
X12099349Y-8023293D02*
X12089825Y-8042341D01*
X12089825Y-8042341D02*
X12080301Y-8051865D01*
X12080301Y-8051865D02*
X12061253Y-8061389D01*
X12061253Y-8061389D02*
X12032682Y-8061389D01*
X12156491Y-7928055D02*
X12232682Y-7928055D01*
X12185063Y-7861389D02*
X12185063Y-8032817D01*
X12185063Y-8032817D02*
X12194587Y-8051865D01*
X12194587Y-8051865D02*
X12213634Y-8061389D01*
X12213634Y-8061389D02*
X12232682Y-8061389D01*
X12289825Y-8051865D02*
X12308872Y-8061389D01*
X12308872Y-8061389D02*
X12346968Y-8061389D01*
X12346968Y-8061389D02*
X12366015Y-8051865D01*
X12366015Y-8051865D02*
X12375539Y-8032817D01*
X12375539Y-8032817D02*
X12375539Y-8023293D01*
X12375539Y-8023293D02*
X12366015Y-8004246D01*
X12366015Y-8004246D02*
X12346968Y-7994722D01*
X12346968Y-7994722D02*
X12318396Y-7994722D01*
X12318396Y-7994722D02*
X12299349Y-7985198D01*
X12299349Y-7985198D02*
X12289825Y-7966151D01*
X12289825Y-7966151D02*
X12289825Y-7956627D01*
X12289825Y-7956627D02*
X12299349Y-7937579D01*
X12299349Y-7937579D02*
X12318396Y-7928055D01*
X12318396Y-7928055D02*
X12346968Y-7928055D01*
X12346968Y-7928055D02*
X12366015Y-7937579D01*
X12442206Y-8137579D02*
X12451730Y-8128055D01*
X12451730Y-8128055D02*
X12470777Y-8099484D01*
X12470777Y-8099484D02*
X12480301Y-8080436D01*
X12480301Y-8080436D02*
X12489825Y-8051865D01*
X12489825Y-8051865D02*
X12499349Y-8004246D01*
X12499349Y-8004246D02*
X12499349Y-7966151D01*
X12499349Y-7966151D02*
X12489825Y-7918532D01*
X12489825Y-7918532D02*
X12480301Y-7889960D01*
X12480301Y-7889960D02*
X12470777Y-7870913D01*
X12470777Y-7870913D02*
X12451730Y-7842341D01*
X12451730Y-7842341D02*
X12442206Y-7832817D01*
D15*
X6033451Y-8269261D02*
X6033451Y-8198549D01*
X5962739Y-8198549D01*
X5962739Y-8269261D01*
X6033451Y-8269261D01*
D11*
X6413634Y-8325389D02*
X6299348Y-8325389D01*
X6356491Y-8325389D02*
X6356491Y-8125389D01*
X6356491Y-8125389D02*
X6337443Y-8153960D01*
X6337443Y-8153960D02*
X6318396Y-8173008D01*
X6318396Y-8173008D02*
X6299348Y-8182532D01*
X6499348Y-8306341D02*
X6508872Y-8315865D01*
X6508872Y-8315865D02*
X6499348Y-8325389D01*
X6499348Y-8325389D02*
X6489824Y-8315865D01*
X6489824Y-8315865D02*
X6499348Y-8306341D01*
X6499348Y-8306341D02*
X6499348Y-8325389D01*
X6632681Y-8125389D02*
X6651729Y-8125389D01*
X6651729Y-8125389D02*
X6670777Y-8134913D01*
X6670777Y-8134913D02*
X6680300Y-8144436D01*
X6680300Y-8144436D02*
X6689824Y-8163484D01*
X6689824Y-8163484D02*
X6699348Y-8201579D01*
X6699348Y-8201579D02*
X6699348Y-8249198D01*
X6699348Y-8249198D02*
X6689824Y-8287293D01*
X6689824Y-8287293D02*
X6680300Y-8306341D01*
X6680300Y-8306341D02*
X6670777Y-8315865D01*
X6670777Y-8315865D02*
X6651729Y-8325389D01*
X6651729Y-8325389D02*
X6632681Y-8325389D01*
X6632681Y-8325389D02*
X6613634Y-8315865D01*
X6613634Y-8315865D02*
X6604110Y-8306341D01*
X6604110Y-8306341D02*
X6594586Y-8287293D01*
X6594586Y-8287293D02*
X6585062Y-8249198D01*
X6585062Y-8249198D02*
X6585062Y-8201579D01*
X6585062Y-8201579D02*
X6594586Y-8163484D01*
X6594586Y-8163484D02*
X6604110Y-8144436D01*
X6604110Y-8144436D02*
X6613634Y-8134913D01*
X6613634Y-8134913D02*
X6632681Y-8125389D01*
X6823157Y-8125389D02*
X6842205Y-8125389D01*
X6842205Y-8125389D02*
X6861253Y-8134913D01*
X6861253Y-8134913D02*
X6870777Y-8144436D01*
X6870777Y-8144436D02*
X6880300Y-8163484D01*
X6880300Y-8163484D02*
X6889824Y-8201579D01*
X6889824Y-8201579D02*
X6889824Y-8249198D01*
X6889824Y-8249198D02*
X6880300Y-8287293D01*
X6880300Y-8287293D02*
X6870777Y-8306341D01*
X6870777Y-8306341D02*
X6861253Y-8315865D01*
X6861253Y-8315865D02*
X6842205Y-8325389D01*
X6842205Y-8325389D02*
X6823157Y-8325389D01*
X6823157Y-8325389D02*
X6804110Y-8315865D01*
X6804110Y-8315865D02*
X6794586Y-8306341D01*
X6794586Y-8306341D02*
X6785062Y-8287293D01*
X6785062Y-8287293D02*
X6775538Y-8249198D01*
X6775538Y-8249198D02*
X6775538Y-8201579D01*
X6775538Y-8201579D02*
X6785062Y-8163484D01*
X6785062Y-8163484D02*
X6794586Y-8144436D01*
X6794586Y-8144436D02*
X6804110Y-8134913D01*
X6804110Y-8134913D02*
X6823157Y-8125389D01*
X7013634Y-8125389D02*
X7032681Y-8125389D01*
X7032681Y-8125389D02*
X7051729Y-8134913D01*
X7051729Y-8134913D02*
X7061253Y-8144436D01*
X7061253Y-8144436D02*
X7070777Y-8163484D01*
X7070777Y-8163484D02*
X7080300Y-8201579D01*
X7080300Y-8201579D02*
X7080300Y-8249198D01*
X7080300Y-8249198D02*
X7070777Y-8287293D01*
X7070777Y-8287293D02*
X7061253Y-8306341D01*
X7061253Y-8306341D02*
X7051729Y-8315865D01*
X7051729Y-8315865D02*
X7032681Y-8325389D01*
X7032681Y-8325389D02*
X7013634Y-8325389D01*
X7013634Y-8325389D02*
X6994586Y-8315865D01*
X6994586Y-8315865D02*
X6985062Y-8306341D01*
X6985062Y-8306341D02*
X6975538Y-8287293D01*
X6975538Y-8287293D02*
X6966015Y-8249198D01*
X6966015Y-8249198D02*
X6966015Y-8201579D01*
X6966015Y-8201579D02*
X6975538Y-8163484D01*
X6975538Y-8163484D02*
X6985062Y-8144436D01*
X6985062Y-8144436D02*
X6994586Y-8134913D01*
X6994586Y-8134913D02*
X7013634Y-8125389D01*
X7166015Y-8325389D02*
X7166015Y-8192055D01*
X7166015Y-8211103D02*
X7175538Y-8201579D01*
X7175538Y-8201579D02*
X7194586Y-8192055D01*
X7194586Y-8192055D02*
X7223158Y-8192055D01*
X7223158Y-8192055D02*
X7242205Y-8201579D01*
X7242205Y-8201579D02*
X7251729Y-8220627D01*
X7251729Y-8220627D02*
X7251729Y-8325389D01*
X7251729Y-8220627D02*
X7261253Y-8201579D01*
X7261253Y-8201579D02*
X7280300Y-8192055D01*
X7280300Y-8192055D02*
X7308872Y-8192055D01*
X7308872Y-8192055D02*
X7327919Y-8201579D01*
X7327919Y-8201579D02*
X7337443Y-8220627D01*
X7337443Y-8220627D02*
X7337443Y-8325389D01*
X7432681Y-8325389D02*
X7432681Y-8192055D01*
X7432681Y-8211103D02*
X7442205Y-8201579D01*
X7442205Y-8201579D02*
X7461253Y-8192055D01*
X7461253Y-8192055D02*
X7489824Y-8192055D01*
X7489824Y-8192055D02*
X7508872Y-8201579D01*
X7508872Y-8201579D02*
X7518396Y-8220627D01*
X7518396Y-8220627D02*
X7518396Y-8325389D01*
X7518396Y-8220627D02*
X7527919Y-8201579D01*
X7527919Y-8201579D02*
X7546967Y-8192055D01*
X7546967Y-8192055D02*
X7575538Y-8192055D01*
X7575538Y-8192055D02*
X7594586Y-8201579D01*
X7594586Y-8201579D02*
X7604110Y-8220627D01*
X7604110Y-8220627D02*
X7604110Y-8325389D01*
X7994586Y-8115865D02*
X7823158Y-8373008D01*
X8251729Y-8125389D02*
X8270777Y-8125389D01*
X8270777Y-8125389D02*
X8289824Y-8134913D01*
X8289824Y-8134913D02*
X8299348Y-8144436D01*
X8299348Y-8144436D02*
X8308872Y-8163484D01*
X8308872Y-8163484D02*
X8318396Y-8201579D01*
X8318396Y-8201579D02*
X8318396Y-8249198D01*
X8318396Y-8249198D02*
X8308872Y-8287293D01*
X8308872Y-8287293D02*
X8299348Y-8306341D01*
X8299348Y-8306341D02*
X8289824Y-8315865D01*
X8289824Y-8315865D02*
X8270777Y-8325389D01*
X8270777Y-8325389D02*
X8251729Y-8325389D01*
X8251729Y-8325389D02*
X8232681Y-8315865D01*
X8232681Y-8315865D02*
X8223158Y-8306341D01*
X8223158Y-8306341D02*
X8213634Y-8287293D01*
X8213634Y-8287293D02*
X8204110Y-8249198D01*
X8204110Y-8249198D02*
X8204110Y-8201579D01*
X8204110Y-8201579D02*
X8213634Y-8163484D01*
X8213634Y-8163484D02*
X8223158Y-8144436D01*
X8223158Y-8144436D02*
X8232681Y-8134913D01*
X8232681Y-8134913D02*
X8251729Y-8125389D01*
X8404110Y-8306341D02*
X8413634Y-8315865D01*
X8413634Y-8315865D02*
X8404110Y-8325389D01*
X8404110Y-8325389D02*
X8394586Y-8315865D01*
X8394586Y-8315865D02*
X8404110Y-8306341D01*
X8404110Y-8306341D02*
X8404110Y-8325389D01*
X8537443Y-8125389D02*
X8556491Y-8125389D01*
X8556491Y-8125389D02*
X8575539Y-8134913D01*
X8575539Y-8134913D02*
X8585063Y-8144436D01*
X8585063Y-8144436D02*
X8594586Y-8163484D01*
X8594586Y-8163484D02*
X8604110Y-8201579D01*
X8604110Y-8201579D02*
X8604110Y-8249198D01*
X8604110Y-8249198D02*
X8594586Y-8287293D01*
X8594586Y-8287293D02*
X8585063Y-8306341D01*
X8585063Y-8306341D02*
X8575539Y-8315865D01*
X8575539Y-8315865D02*
X8556491Y-8325389D01*
X8556491Y-8325389D02*
X8537443Y-8325389D01*
X8537443Y-8325389D02*
X8518396Y-8315865D01*
X8518396Y-8315865D02*
X8508872Y-8306341D01*
X8508872Y-8306341D02*
X8499348Y-8287293D01*
X8499348Y-8287293D02*
X8489824Y-8249198D01*
X8489824Y-8249198D02*
X8489824Y-8201579D01*
X8489824Y-8201579D02*
X8499348Y-8163484D01*
X8499348Y-8163484D02*
X8508872Y-8144436D01*
X8508872Y-8144436D02*
X8518396Y-8134913D01*
X8518396Y-8134913D02*
X8537443Y-8125389D01*
X8670777Y-8125389D02*
X8794586Y-8125389D01*
X8794586Y-8125389D02*
X8727920Y-8201579D01*
X8727920Y-8201579D02*
X8756491Y-8201579D01*
X8756491Y-8201579D02*
X8775539Y-8211103D01*
X8775539Y-8211103D02*
X8785063Y-8220627D01*
X8785063Y-8220627D02*
X8794586Y-8239674D01*
X8794586Y-8239674D02*
X8794586Y-8287293D01*
X8794586Y-8287293D02*
X8785063Y-8306341D01*
X8785063Y-8306341D02*
X8775539Y-8315865D01*
X8775539Y-8315865D02*
X8756491Y-8325389D01*
X8756491Y-8325389D02*
X8699348Y-8325389D01*
X8699348Y-8325389D02*
X8680301Y-8315865D01*
X8680301Y-8315865D02*
X8670777Y-8306341D01*
X8889824Y-8325389D02*
X8927920Y-8325389D01*
X8927920Y-8325389D02*
X8946967Y-8315865D01*
X8946967Y-8315865D02*
X8956491Y-8306341D01*
X8956491Y-8306341D02*
X8975539Y-8277770D01*
X8975539Y-8277770D02*
X8985063Y-8239674D01*
X8985063Y-8239674D02*
X8985063Y-8163484D01*
X8985063Y-8163484D02*
X8975539Y-8144436D01*
X8975539Y-8144436D02*
X8966015Y-8134913D01*
X8966015Y-8134913D02*
X8946967Y-8125389D01*
X8946967Y-8125389D02*
X8908872Y-8125389D01*
X8908872Y-8125389D02*
X8889824Y-8134913D01*
X8889824Y-8134913D02*
X8880301Y-8144436D01*
X8880301Y-8144436D02*
X8870777Y-8163484D01*
X8870777Y-8163484D02*
X8870777Y-8211103D01*
X8870777Y-8211103D02*
X8880301Y-8230151D01*
X8880301Y-8230151D02*
X8889824Y-8239674D01*
X8889824Y-8239674D02*
X8908872Y-8249198D01*
X8908872Y-8249198D02*
X8946967Y-8249198D01*
X8946967Y-8249198D02*
X8966015Y-8239674D01*
X8966015Y-8239674D02*
X8975539Y-8230151D01*
X8975539Y-8230151D02*
X8985063Y-8211103D01*
X9156491Y-8192055D02*
X9156491Y-8325389D01*
X9108872Y-8115865D02*
X9061253Y-8258722D01*
X9061253Y-8258722D02*
X9185063Y-8258722D01*
X9251729Y-8125389D02*
X9251729Y-8163484D01*
X9327920Y-8125389D02*
X9327920Y-8163484D01*
X9623158Y-8401579D02*
X9613634Y-8392055D01*
X9613634Y-8392055D02*
X9594586Y-8363484D01*
X9594586Y-8363484D02*
X9585063Y-8344436D01*
X9585063Y-8344436D02*
X9575539Y-8315865D01*
X9575539Y-8315865D02*
X9566015Y-8268246D01*
X9566015Y-8268246D02*
X9566015Y-8230151D01*
X9566015Y-8230151D02*
X9575539Y-8182532D01*
X9575539Y-8182532D02*
X9585063Y-8153960D01*
X9585063Y-8153960D02*
X9594586Y-8134913D01*
X9594586Y-8134913D02*
X9613634Y-8106341D01*
X9613634Y-8106341D02*
X9623158Y-8096817D01*
X9794586Y-8125389D02*
X9699348Y-8125389D01*
X9699348Y-8125389D02*
X9689825Y-8220627D01*
X9689825Y-8220627D02*
X9699348Y-8211103D01*
X9699348Y-8211103D02*
X9718396Y-8201579D01*
X9718396Y-8201579D02*
X9766015Y-8201579D01*
X9766015Y-8201579D02*
X9785063Y-8211103D01*
X9785063Y-8211103D02*
X9794586Y-8220627D01*
X9794586Y-8220627D02*
X9804110Y-8239674D01*
X9804110Y-8239674D02*
X9804110Y-8287293D01*
X9804110Y-8287293D02*
X9794586Y-8306341D01*
X9794586Y-8306341D02*
X9785063Y-8315865D01*
X9785063Y-8315865D02*
X9766015Y-8325389D01*
X9766015Y-8325389D02*
X9718396Y-8325389D01*
X9718396Y-8325389D02*
X9699348Y-8315865D01*
X9699348Y-8315865D02*
X9689825Y-8306341D01*
X9927920Y-8125389D02*
X9946967Y-8125389D01*
X9946967Y-8125389D02*
X9966015Y-8134913D01*
X9966015Y-8134913D02*
X9975539Y-8144436D01*
X9975539Y-8144436D02*
X9985063Y-8163484D01*
X9985063Y-8163484D02*
X9994586Y-8201579D01*
X9994586Y-8201579D02*
X9994586Y-8249198D01*
X9994586Y-8249198D02*
X9985063Y-8287293D01*
X9985063Y-8287293D02*
X9975539Y-8306341D01*
X9975539Y-8306341D02*
X9966015Y-8315865D01*
X9966015Y-8315865D02*
X9946967Y-8325389D01*
X9946967Y-8325389D02*
X9927920Y-8325389D01*
X9927920Y-8325389D02*
X9908872Y-8315865D01*
X9908872Y-8315865D02*
X9899348Y-8306341D01*
X9899348Y-8306341D02*
X9889825Y-8287293D01*
X9889825Y-8287293D02*
X9880301Y-8249198D01*
X9880301Y-8249198D02*
X9880301Y-8201579D01*
X9880301Y-8201579D02*
X9889825Y-8163484D01*
X9889825Y-8163484D02*
X9899348Y-8144436D01*
X9899348Y-8144436D02*
X9908872Y-8134913D01*
X9908872Y-8134913D02*
X9927920Y-8125389D01*
X10232682Y-8325389D02*
X10232682Y-8125389D01*
X10318396Y-8325389D02*
X10318396Y-8220627D01*
X10318396Y-8220627D02*
X10308872Y-8201579D01*
X10308872Y-8201579D02*
X10289825Y-8192055D01*
X10289825Y-8192055D02*
X10261253Y-8192055D01*
X10261253Y-8192055D02*
X10242206Y-8201579D01*
X10242206Y-8201579D02*
X10232682Y-8211103D01*
X10442206Y-8325389D02*
X10423158Y-8315865D01*
X10423158Y-8315865D02*
X10413634Y-8306341D01*
X10413634Y-8306341D02*
X10404110Y-8287293D01*
X10404110Y-8287293D02*
X10404110Y-8230151D01*
X10404110Y-8230151D02*
X10413634Y-8211103D01*
X10413634Y-8211103D02*
X10423158Y-8201579D01*
X10423158Y-8201579D02*
X10442206Y-8192055D01*
X10442206Y-8192055D02*
X10470777Y-8192055D01*
X10470777Y-8192055D02*
X10489825Y-8201579D01*
X10489825Y-8201579D02*
X10499348Y-8211103D01*
X10499348Y-8211103D02*
X10508872Y-8230151D01*
X10508872Y-8230151D02*
X10508872Y-8287293D01*
X10508872Y-8287293D02*
X10499348Y-8306341D01*
X10499348Y-8306341D02*
X10489825Y-8315865D01*
X10489825Y-8315865D02*
X10470777Y-8325389D01*
X10470777Y-8325389D02*
X10442206Y-8325389D01*
X10623158Y-8325389D02*
X10604110Y-8315865D01*
X10604110Y-8315865D02*
X10594587Y-8296817D01*
X10594587Y-8296817D02*
X10594587Y-8125389D01*
X10775539Y-8315865D02*
X10756491Y-8325389D01*
X10756491Y-8325389D02*
X10718396Y-8325389D01*
X10718396Y-8325389D02*
X10699348Y-8315865D01*
X10699348Y-8315865D02*
X10689825Y-8296817D01*
X10689825Y-8296817D02*
X10689825Y-8220627D01*
X10689825Y-8220627D02*
X10699348Y-8201579D01*
X10699348Y-8201579D02*
X10718396Y-8192055D01*
X10718396Y-8192055D02*
X10756491Y-8192055D01*
X10756491Y-8192055D02*
X10775539Y-8201579D01*
X10775539Y-8201579D02*
X10785063Y-8220627D01*
X10785063Y-8220627D02*
X10785063Y-8239674D01*
X10785063Y-8239674D02*
X10689825Y-8258722D01*
X10861253Y-8315865D02*
X10880301Y-8325389D01*
X10880301Y-8325389D02*
X10918396Y-8325389D01*
X10918396Y-8325389D02*
X10937444Y-8315865D01*
X10937444Y-8315865D02*
X10946968Y-8296817D01*
X10946968Y-8296817D02*
X10946968Y-8287293D01*
X10946968Y-8287293D02*
X10937444Y-8268246D01*
X10937444Y-8268246D02*
X10918396Y-8258722D01*
X10918396Y-8258722D02*
X10889825Y-8258722D01*
X10889825Y-8258722D02*
X10870777Y-8249198D01*
X10870777Y-8249198D02*
X10861253Y-8230151D01*
X10861253Y-8230151D02*
X10861253Y-8220627D01*
X10861253Y-8220627D02*
X10870777Y-8201579D01*
X10870777Y-8201579D02*
X10889825Y-8192055D01*
X10889825Y-8192055D02*
X10918396Y-8192055D01*
X10918396Y-8192055D02*
X10937444Y-8201579D01*
X11013634Y-8401579D02*
X11023158Y-8392055D01*
X11023158Y-8392055D02*
X11042206Y-8363484D01*
X11042206Y-8363484D02*
X11051729Y-8344436D01*
X11051729Y-8344436D02*
X11061253Y-8315865D01*
X11061253Y-8315865D02*
X11070777Y-8268246D01*
X11070777Y-8268246D02*
X11070777Y-8230151D01*
X11070777Y-8230151D02*
X11061253Y-8182532D01*
X11061253Y-8182532D02*
X11051729Y-8153960D01*
X11051729Y-8153960D02*
X11042206Y-8134913D01*
X11042206Y-8134913D02*
X11023158Y-8106341D01*
X11023158Y-8106341D02*
X11013634Y-8096817D01*
M02*
