G04 #@! TF.GenerationSoftware,KiCad,Pcbnew,7.0.6-7.0.6~ubuntu22.04.1*
G04 #@! TF.CreationDate,2023-07-20T16:44:22-04:00*
G04 #@! TF.ProjectId,f1c_linux,6631635f-6c69-46e7-9578-2e6b69636164,1*
G04 #@! TF.SameCoordinates,Original*
G04 #@! TF.FileFunction,Copper,L1,Top*
G04 #@! TF.FilePolarity,Positive*
%FSLAX46Y46*%
G04 Gerber Fmt 4.6, Leading zero omitted, Abs format (unit mm)*
G04 Created by KiCad (PCBNEW 7.0.6-7.0.6~ubuntu22.04.1) date 2023-07-20 16:44:22*
%MOMM*%
%LPD*%
G01*
G04 APERTURE LIST*
G04 Aperture macros list*
%AMRoundRect*
0 Rectangle with rounded corners*
0 $1 Rounding radius*
0 $2 $3 $4 $5 $6 $7 $8 $9 X,Y pos of 4 corners*
0 Add a 4 corners polygon primitive as box body*
4,1,4,$2,$3,$4,$5,$6,$7,$8,$9,$2,$3,0*
0 Add four circle primitives for the rounded corners*
1,1,$1+$1,$2,$3*
1,1,$1+$1,$4,$5*
1,1,$1+$1,$6,$7*
1,1,$1+$1,$8,$9*
0 Add four rect primitives between the rounded corners*
20,1,$1+$1,$2,$3,$4,$5,0*
20,1,$1+$1,$4,$5,$6,$7,0*
20,1,$1+$1,$6,$7,$8,$9,0*
20,1,$1+$1,$8,$9,$2,$3,0*%
G04 Aperture macros list end*
G04 #@! TA.AperFunction,SMDPad,CuDef*
%ADD10R,0.800000X0.200000*%
G04 #@! TD*
G04 #@! TA.AperFunction,SMDPad,CuDef*
%ADD11R,0.200000X0.800000*%
G04 #@! TD*
G04 #@! TA.AperFunction,SMDPad,CuDef*
%ADD12R,6.750000X6.750000*%
G04 #@! TD*
G04 #@! TA.AperFunction,SMDPad,CuDef*
%ADD13RoundRect,0.135000X0.135000X0.185000X-0.135000X0.185000X-0.135000X-0.185000X0.135000X-0.185000X0*%
G04 #@! TD*
G04 #@! TA.AperFunction,SMDPad,CuDef*
%ADD14RoundRect,0.135000X-0.185000X0.135000X-0.185000X-0.135000X0.185000X-0.135000X0.185000X0.135000X0*%
G04 #@! TD*
G04 #@! TA.AperFunction,SMDPad,CuDef*
%ADD15RoundRect,0.140000X0.140000X0.170000X-0.140000X0.170000X-0.140000X-0.170000X0.140000X-0.170000X0*%
G04 #@! TD*
G04 #@! TA.AperFunction,SMDPad,CuDef*
%ADD16RoundRect,0.140000X-0.170000X0.140000X-0.170000X-0.140000X0.170000X-0.140000X0.170000X0.140000X0*%
G04 #@! TD*
G04 #@! TA.AperFunction,SMDPad,CuDef*
%ADD17RoundRect,0.225000X0.250000X-0.225000X0.250000X0.225000X-0.250000X0.225000X-0.250000X-0.225000X0*%
G04 #@! TD*
G04 #@! TA.AperFunction,SMDPad,CuDef*
%ADD18R,1.200000X1.400000*%
G04 #@! TD*
G04 #@! TA.AperFunction,SMDPad,CuDef*
%ADD19RoundRect,0.225000X0.225000X0.250000X-0.225000X0.250000X-0.225000X-0.250000X0.225000X-0.250000X0*%
G04 #@! TD*
G04 #@! TA.AperFunction,SMDPad,CuDef*
%ADD20RoundRect,0.093750X-0.106250X0.093750X-0.106250X-0.093750X0.106250X-0.093750X0.106250X0.093750X0*%
G04 #@! TD*
G04 #@! TA.AperFunction,SMDPad,CuDef*
%ADD21R,1.600000X1.000000*%
G04 #@! TD*
G04 #@! TA.AperFunction,SMDPad,CuDef*
%ADD22RoundRect,0.225000X-0.250000X0.225000X-0.250000X-0.225000X0.250000X-0.225000X0.250000X0.225000X0*%
G04 #@! TD*
G04 #@! TA.AperFunction,SMDPad,CuDef*
%ADD23RoundRect,0.218750X-0.218750X-0.256250X0.218750X-0.256250X0.218750X0.256250X-0.218750X0.256250X0*%
G04 #@! TD*
G04 #@! TA.AperFunction,SMDPad,CuDef*
%ADD24RoundRect,0.150000X-0.150000X0.650000X-0.150000X-0.650000X0.150000X-0.650000X0.150000X0.650000X0*%
G04 #@! TD*
G04 #@! TA.AperFunction,ComponentPad*
%ADD25R,1.700000X1.700000*%
G04 #@! TD*
G04 #@! TA.AperFunction,ComponentPad*
%ADD26O,1.700000X1.700000*%
G04 #@! TD*
G04 #@! TA.AperFunction,SMDPad,CuDef*
%ADD27RoundRect,0.135000X0.185000X-0.135000X0.185000X0.135000X-0.185000X0.135000X-0.185000X-0.135000X0*%
G04 #@! TD*
G04 #@! TA.AperFunction,SMDPad,CuDef*
%ADD28RoundRect,0.200000X0.200000X0.275000X-0.200000X0.275000X-0.200000X-0.275000X0.200000X-0.275000X0*%
G04 #@! TD*
G04 #@! TA.AperFunction,SMDPad,CuDef*
%ADD29RoundRect,0.140000X-0.140000X-0.170000X0.140000X-0.170000X0.140000X0.170000X-0.140000X0.170000X0*%
G04 #@! TD*
G04 #@! TA.AperFunction,SMDPad,CuDef*
%ADD30RoundRect,0.140000X0.170000X-0.140000X0.170000X0.140000X-0.170000X0.140000X-0.170000X-0.140000X0*%
G04 #@! TD*
G04 #@! TA.AperFunction,SMDPad,CuDef*
%ADD31R,0.600000X1.240000*%
G04 #@! TD*
G04 #@! TA.AperFunction,SMDPad,CuDef*
%ADD32R,0.300000X1.240000*%
G04 #@! TD*
G04 #@! TA.AperFunction,ComponentPad*
%ADD33O,1.000000X2.100000*%
G04 #@! TD*
G04 #@! TA.AperFunction,ComponentPad*
%ADD34O,1.000000X1.800000*%
G04 #@! TD*
G04 #@! TA.AperFunction,SMDPad,CuDef*
%ADD35RoundRect,0.135000X-0.135000X-0.185000X0.135000X-0.185000X0.135000X0.185000X-0.135000X0.185000X0*%
G04 #@! TD*
G04 #@! TA.AperFunction,ViaPad*
%ADD36C,0.450000*%
G04 #@! TD*
G04 #@! TA.AperFunction,ViaPad*
%ADD37C,0.685800*%
G04 #@! TD*
G04 #@! TA.AperFunction,ViaPad*
%ADD38C,0.350000*%
G04 #@! TD*
G04 #@! TA.AperFunction,Conductor*
%ADD39C,0.762000*%
G04 #@! TD*
G04 #@! TA.AperFunction,Conductor*
%ADD40C,0.254000*%
G04 #@! TD*
G04 #@! TA.AperFunction,Conductor*
%ADD41C,0.508000*%
G04 #@! TD*
G04 #@! TA.AperFunction,Conductor*
%ADD42C,0.127000*%
G04 #@! TD*
G04 #@! TA.AperFunction,Conductor*
%ADD43C,0.400000*%
G04 #@! TD*
G04 #@! TA.AperFunction,Conductor*
%ADD44C,0.190500*%
G04 #@! TD*
G04 #@! TA.AperFunction,Conductor*
%ADD45C,0.288500*%
G04 #@! TD*
G04 APERTURE END LIST*
D10*
X91637500Y-62200000D03*
X91637500Y-61800000D03*
X91637500Y-61400000D03*
X91637500Y-61000000D03*
X91637500Y-60600000D03*
X91637500Y-60200000D03*
X91637500Y-59800000D03*
X91637500Y-59400000D03*
X91637500Y-59000000D03*
X91637500Y-58600000D03*
X91637500Y-58200000D03*
X91637500Y-57800000D03*
X91637500Y-57400000D03*
X91637500Y-57000000D03*
X91637500Y-56600000D03*
X91637500Y-56200000D03*
X91637500Y-55800000D03*
X91637500Y-55400000D03*
X91637500Y-55000000D03*
X91637500Y-54600000D03*
X91637500Y-54200000D03*
X91637500Y-53800000D03*
D11*
X90837500Y-53000000D03*
X90437500Y-53000000D03*
X90037500Y-53000000D03*
X89637500Y-53000000D03*
X89237500Y-53000000D03*
X88837500Y-53000000D03*
X88437500Y-53000000D03*
X88037500Y-53000000D03*
X87637500Y-53000000D03*
X87237500Y-53000000D03*
X86837500Y-53000000D03*
X86437500Y-53000000D03*
X86037500Y-53000000D03*
X85637500Y-53000000D03*
X85237500Y-53000000D03*
X84837500Y-53000000D03*
X84437500Y-53000000D03*
X84037500Y-53000000D03*
X83637500Y-53000000D03*
X83237500Y-53000000D03*
X82837500Y-53000000D03*
X82437500Y-53000000D03*
D10*
X81637500Y-53800000D03*
X81637500Y-54200000D03*
X81637500Y-54600000D03*
X81637500Y-55000000D03*
X81637500Y-55400000D03*
X81637500Y-55800000D03*
X81637500Y-56200000D03*
X81637500Y-56600000D03*
X81637500Y-57000000D03*
X81637500Y-57400000D03*
X81637500Y-57800000D03*
X81637500Y-58200000D03*
X81637500Y-58600000D03*
X81637500Y-59000000D03*
X81637500Y-59400000D03*
X81637500Y-59800000D03*
X81637500Y-60200000D03*
X81637500Y-60600000D03*
X81637500Y-61000000D03*
X81637500Y-61400000D03*
X81637500Y-61800000D03*
X81637500Y-62200000D03*
D11*
X82437500Y-63000000D03*
X82837500Y-63000000D03*
X83237500Y-63000000D03*
X83637500Y-63000000D03*
X84037500Y-63000000D03*
X84437500Y-63000000D03*
X84837500Y-63000000D03*
X85237500Y-63000000D03*
X85637500Y-63000000D03*
X86037500Y-63000000D03*
X86437500Y-63000000D03*
X86837500Y-63000000D03*
X87237500Y-63000000D03*
X87637500Y-63000000D03*
X88037500Y-63000000D03*
X88437500Y-63000000D03*
X88837500Y-63000000D03*
X89237500Y-63000000D03*
X89637500Y-63000000D03*
X90037500Y-63000000D03*
X90437500Y-63000000D03*
X90837500Y-63000000D03*
D12*
X86637500Y-58000000D03*
D13*
X95620000Y-64000000D03*
X94600000Y-64000000D03*
D14*
X91000000Y-64490000D03*
X91000000Y-65510000D03*
X93200000Y-64490000D03*
X93200000Y-65510000D03*
D15*
X95580000Y-62800000D03*
X94620000Y-62800000D03*
D16*
X89900000Y-64520000D03*
X89900000Y-65480000D03*
X92100000Y-64500000D03*
X92100000Y-65460000D03*
X81800000Y-64500000D03*
X81800000Y-65460000D03*
D17*
X98100000Y-53762500D03*
X98100000Y-52212500D03*
D13*
X100210000Y-50787500D03*
X99190000Y-50787500D03*
D18*
X75662500Y-56650000D03*
X75662500Y-58850000D03*
X77362500Y-58850000D03*
X77362500Y-56650000D03*
D19*
X95062500Y-61300000D03*
X93512500Y-61300000D03*
D20*
X109050000Y-52100000D03*
X108400000Y-52100000D03*
X107750000Y-52100000D03*
X107750000Y-53875000D03*
X108400000Y-53875000D03*
X109050000Y-53875000D03*
D21*
X108400000Y-52987500D03*
D13*
X117810000Y-54950000D03*
X116790000Y-54950000D03*
D22*
X119100000Y-56125000D03*
X119100000Y-57675000D03*
D23*
X74825000Y-50600000D03*
X76400000Y-50600000D03*
D20*
X117375000Y-56212500D03*
X116725000Y-56212500D03*
X116075000Y-56212500D03*
X116075000Y-57987500D03*
X116725000Y-57987500D03*
X117375000Y-57987500D03*
D21*
X116725000Y-57100000D03*
D17*
X106100000Y-53787500D03*
X106100000Y-52237500D03*
D13*
X107710000Y-50600000D03*
X106690000Y-50600000D03*
D24*
X70205000Y-54400000D03*
X68935000Y-54400000D03*
X67665000Y-54400000D03*
X66395000Y-54400000D03*
X66395000Y-61600000D03*
X67665000Y-61600000D03*
X68935000Y-61600000D03*
X70205000Y-61600000D03*
D25*
X118425000Y-45000000D03*
D26*
X118425000Y-47540000D03*
X115885000Y-45000000D03*
X115885000Y-47540000D03*
X113345000Y-45000000D03*
X113345000Y-47540000D03*
X110805000Y-45000000D03*
X110805000Y-47540000D03*
X108265000Y-45000000D03*
X108265000Y-47540000D03*
X105725000Y-45000000D03*
X105725000Y-47540000D03*
X103185000Y-45000000D03*
X103185000Y-47540000D03*
X100645000Y-45000000D03*
X100645000Y-47540000D03*
X98105000Y-45000000D03*
X98105000Y-47540000D03*
X95565000Y-45000000D03*
X95565000Y-47540000D03*
X93025000Y-45000000D03*
X93025000Y-47540000D03*
X90485000Y-45000000D03*
X90485000Y-47540000D03*
X87945000Y-45000000D03*
X87945000Y-47540000D03*
X85405000Y-45000000D03*
X85405000Y-47540000D03*
X82865000Y-45000000D03*
X82865000Y-47540000D03*
X80325000Y-45000000D03*
X80325000Y-47540000D03*
X77785000Y-45000000D03*
X77785000Y-47540000D03*
X75245000Y-45000000D03*
X75245000Y-47540000D03*
X72705000Y-45000000D03*
X72705000Y-47540000D03*
X70165000Y-45000000D03*
X70165000Y-47540000D03*
X67625000Y-45000000D03*
X67625000Y-47540000D03*
X65085000Y-45000000D03*
X65085000Y-47540000D03*
X62545000Y-45000000D03*
X62545000Y-47540000D03*
D15*
X71280000Y-63500000D03*
X70320000Y-63500000D03*
D27*
X84300000Y-51400000D03*
X84300000Y-50380000D03*
D15*
X94242500Y-53500000D03*
X93282500Y-53500000D03*
D14*
X119100000Y-62490000D03*
X119100000Y-63510000D03*
D27*
X77700000Y-51010000D03*
X77700000Y-49990000D03*
D14*
X87700000Y-50380000D03*
X87700000Y-51400000D03*
D28*
X110825000Y-50600000D03*
X109175000Y-50600000D03*
D29*
X79202500Y-55500000D03*
X80162500Y-55500000D03*
D25*
X115885000Y-50080000D03*
D26*
X118425000Y-50080000D03*
X115885000Y-52620000D03*
X118425000Y-52620000D03*
D30*
X85400000Y-51370000D03*
X85400000Y-50410000D03*
D29*
X76032500Y-54900000D03*
X76992500Y-54900000D03*
D30*
X86562500Y-51370000D03*
X86562500Y-50410000D03*
D14*
X86512500Y-64470000D03*
X86512500Y-65490000D03*
D20*
X101100000Y-52100000D03*
X100450000Y-52100000D03*
X99800000Y-52100000D03*
X99800000Y-53875000D03*
X100450000Y-53875000D03*
X101100000Y-53875000D03*
D21*
X100450000Y-52987500D03*
D16*
X85400000Y-64500000D03*
X85400000Y-65460000D03*
D13*
X102410000Y-50800000D03*
X101390000Y-50800000D03*
D22*
X102800000Y-52212500D03*
X102800000Y-53762500D03*
D31*
X110000000Y-60810000D03*
X110800000Y-60810000D03*
D32*
X111950000Y-60810000D03*
X112950000Y-60810000D03*
X113450000Y-60810000D03*
X114450000Y-60810000D03*
D31*
X115600000Y-60810000D03*
X116400000Y-60810000D03*
X116400000Y-60810000D03*
X115600000Y-60810000D03*
D32*
X114950000Y-60810000D03*
X113950000Y-60810000D03*
X112450000Y-60810000D03*
X111450000Y-60810000D03*
D31*
X110800000Y-60810000D03*
X110000000Y-60810000D03*
D33*
X108880000Y-61410000D03*
D34*
X108880000Y-65610000D03*
D33*
X117520000Y-61410000D03*
D34*
X117520000Y-65610000D03*
D17*
X114300000Y-57775000D03*
X114300000Y-56225000D03*
D15*
X76992500Y-60600000D03*
X76032500Y-60600000D03*
D27*
X77700000Y-53110000D03*
X77700000Y-52090000D03*
D22*
X110700000Y-52212500D03*
X110700000Y-53762500D03*
D27*
X119100000Y-66200000D03*
X119100000Y-65180000D03*
D35*
X69745000Y-52600000D03*
X70765000Y-52600000D03*
D16*
X88100000Y-64500000D03*
X88100000Y-65460000D03*
D30*
X88800000Y-50980000D03*
X88800000Y-50020000D03*
D13*
X115610000Y-54950000D03*
X114590000Y-54950000D03*
D15*
X94242500Y-54600000D03*
X93282500Y-54600000D03*
D16*
X84300000Y-64500000D03*
X84300000Y-65460000D03*
D23*
X74812500Y-52600000D03*
X76387500Y-52600000D03*
D36*
X93700000Y-63400000D03*
X90437500Y-62100000D03*
D37*
X102800000Y-54994100D03*
X111100000Y-59244300D03*
X103800000Y-54994100D03*
X104300000Y-59400000D03*
X98500000Y-61800000D03*
X115600000Y-59200000D03*
X103700000Y-60500000D03*
X107700000Y-54575000D03*
X116700000Y-58700000D03*
X99800000Y-61800000D03*
X111900000Y-59600000D03*
D36*
X89250000Y-56750000D03*
D37*
X109750000Y-53000000D03*
D36*
X84250000Y-55500000D03*
X89250000Y-60500000D03*
X84250000Y-59250000D03*
X86750000Y-55500000D03*
X89250000Y-59250000D03*
X72400000Y-63500000D03*
X115500000Y-55700000D03*
X84250000Y-56750000D03*
D37*
X104500000Y-50000000D03*
D36*
X75000000Y-60500000D03*
X88000000Y-55500000D03*
X99000000Y-52150000D03*
X88000000Y-58000000D03*
D37*
X89800000Y-49400000D03*
D36*
X107100000Y-52200000D03*
D37*
X115528611Y-57129851D03*
D36*
X85500000Y-56750000D03*
X89250000Y-55500000D03*
D37*
X87600000Y-49300000D03*
D36*
X85500000Y-59250000D03*
D37*
X106950000Y-52950000D03*
D36*
X80700000Y-65400000D03*
X86750000Y-60500000D03*
D37*
X94400000Y-52000000D03*
X110670459Y-55000500D03*
D36*
X79400000Y-53300000D03*
X86750000Y-59250000D03*
X66400000Y-52600000D03*
X88000000Y-60500000D03*
D37*
X104500000Y-53800000D03*
D36*
X89250000Y-58000000D03*
X85500000Y-58000000D03*
X88000000Y-56750000D03*
X84250000Y-60500000D03*
X86750000Y-58000000D03*
X85500000Y-60500000D03*
X88000000Y-59250000D03*
X73300000Y-51500000D03*
X84250000Y-58000000D03*
D37*
X104000000Y-63000000D03*
D36*
X86750000Y-56750000D03*
X78100000Y-61300000D03*
X85000000Y-65960000D03*
D37*
X97000000Y-55000000D03*
X101800000Y-53100000D03*
X93300000Y-52000000D03*
D36*
X85500000Y-55500000D03*
D37*
X118175000Y-57175000D03*
D36*
X69500000Y-63500000D03*
X71700000Y-52600000D03*
X92600000Y-60800000D03*
D37*
X119600000Y-54900000D03*
D36*
X82300000Y-63900000D03*
X85200000Y-63900000D03*
X80800000Y-55500000D03*
D37*
X118700000Y-54950000D03*
D36*
X67700000Y-52600000D03*
X92600000Y-54600000D03*
X79200000Y-51800000D03*
D37*
X117975000Y-56275000D03*
X112300500Y-51399500D03*
X112300000Y-54300000D03*
D36*
X88100000Y-52100000D03*
X97400000Y-61000000D03*
D37*
X111600000Y-52100000D03*
D36*
X85600000Y-54000000D03*
X86450000Y-52000000D03*
D37*
X109700000Y-52100000D03*
D36*
X88900000Y-64800000D03*
D37*
X103912500Y-52237900D03*
D36*
X84100000Y-63800000D03*
X101900000Y-52212500D03*
X86500000Y-54000000D03*
D37*
X104800000Y-52300000D03*
D36*
X92600000Y-53600000D03*
D38*
X114500000Y-51300000D03*
D36*
X93900000Y-60300000D03*
X94300000Y-59700000D03*
X95000000Y-59600000D03*
X93600000Y-59000000D03*
X90800000Y-58600000D03*
X95700000Y-57800000D03*
X90800000Y-57800000D03*
X92700000Y-57400000D03*
X90800000Y-57000000D03*
X94100000Y-57100000D03*
X90800000Y-56200000D03*
X92700000Y-55800000D03*
X93900000Y-55700000D03*
X90800000Y-55000000D03*
X90800000Y-54300000D03*
X84900000Y-54200000D03*
X84200000Y-54200000D03*
X82500000Y-55400000D03*
X83450000Y-62200000D03*
X87300000Y-65007798D03*
X106300000Y-58200000D03*
X80500000Y-63200000D03*
X80500000Y-62500000D03*
X82500000Y-60900000D03*
D38*
X115000000Y-53600000D03*
X117200000Y-51305000D03*
D36*
X80500000Y-61800000D03*
X82800000Y-59600000D03*
X80600000Y-57600000D03*
X80400000Y-58600000D03*
X82600000Y-58700000D03*
X82600000Y-58000000D03*
X82600000Y-57300000D03*
X78600000Y-51100000D03*
X83100000Y-53900000D03*
X92800000Y-63400000D03*
X87150000Y-52100000D03*
X84500000Y-49600000D03*
X68900000Y-52600000D03*
X79900000Y-60200000D03*
X71200000Y-54400000D03*
X92000000Y-63400000D03*
X79000000Y-60800000D03*
X79000000Y-63800000D03*
D39*
X104300000Y-59400000D02*
X104300000Y-59900000D01*
X104300000Y-59900000D02*
X103700000Y-60500000D01*
X99800000Y-61800000D02*
X102400000Y-61800000D01*
X102400000Y-61800000D02*
X103700000Y-60500000D01*
D40*
X112300000Y-55200000D02*
X112300000Y-54300000D01*
X110900000Y-56600000D02*
X112300000Y-55200000D01*
X101600000Y-61000000D02*
X106000000Y-56600000D01*
X106000000Y-56600000D02*
X110900000Y-56600000D01*
X97400000Y-61000000D02*
X101600000Y-61000000D01*
X108400000Y-52100000D02*
X108400000Y-51202500D01*
X109002500Y-50600000D02*
X108400000Y-51202500D01*
D41*
X115600000Y-59200000D02*
X114812500Y-58412500D01*
X116100000Y-58700000D02*
X115600000Y-59200000D01*
X116700000Y-58700000D02*
X116100000Y-58700000D01*
X116883898Y-58700000D02*
X117375000Y-58208898D01*
X117375000Y-58208898D02*
X117375000Y-57987500D01*
X114812500Y-57987500D02*
X116075000Y-57987500D01*
X114812500Y-58412500D02*
X114812500Y-57987500D01*
X114812500Y-57987500D02*
X114600000Y-57775000D01*
X116700000Y-58700000D02*
X116883898Y-58700000D01*
D40*
X77362500Y-56650000D02*
X77362500Y-55270000D01*
X77362500Y-55270000D02*
X76992500Y-54900000D01*
X100450000Y-52100000D02*
X100450000Y-51027500D01*
X100450000Y-51027500D02*
X100210000Y-50787500D01*
X114590000Y-54950000D02*
X114590000Y-55535000D01*
X114590000Y-55535000D02*
X114790000Y-55735000D01*
X75662500Y-56650000D02*
X75662500Y-55270000D01*
X75662500Y-55270000D02*
X76032500Y-54900000D01*
X77362500Y-58850000D02*
X77362500Y-60230000D01*
X77362500Y-60230000D02*
X76992500Y-60600000D01*
X77700000Y-51010000D02*
X78510000Y-51010000D01*
X78510000Y-51010000D02*
X78600000Y-51100000D01*
X77700000Y-49990000D02*
X77010000Y-49990000D01*
X77010000Y-49990000D02*
X76400000Y-50600000D01*
D42*
X68900000Y-52600000D02*
X69745000Y-52600000D01*
X69900000Y-52600000D02*
X70205000Y-52905000D01*
X70205000Y-52905000D02*
X70205000Y-54400000D01*
X69745000Y-52600000D02*
X69900000Y-52600000D01*
D40*
X69500000Y-63500000D02*
X70320000Y-63500000D01*
X71700000Y-52600000D02*
X70865000Y-52600000D01*
X70865000Y-52600000D02*
X70765000Y-52700000D01*
D41*
X119600000Y-54900000D02*
X118750000Y-54900000D01*
X118750000Y-54900000D02*
X118700000Y-54950000D01*
X119600000Y-54900000D02*
X119600000Y-55625000D01*
X119600000Y-55625000D02*
X119100000Y-56125000D01*
D40*
X118700000Y-54950000D02*
X117810000Y-54950000D01*
D39*
X99800000Y-61800000D02*
X98500000Y-61800000D01*
D40*
X88900000Y-64800000D02*
X88400000Y-64800000D01*
X88400000Y-64800000D02*
X88100000Y-64500000D01*
D43*
X89900000Y-65480000D02*
X88120000Y-65480000D01*
D40*
X89561000Y-64181000D02*
X89900000Y-64520000D01*
X88931000Y-64181000D02*
X89561000Y-64181000D01*
X88550000Y-63800000D02*
X88931000Y-64181000D01*
X88229500Y-63800000D02*
X88550000Y-63800000D01*
X88037500Y-63608000D02*
X88229500Y-63800000D01*
X88037500Y-63000000D02*
X88037500Y-63608000D01*
X88837500Y-63000000D02*
X88837500Y-63498684D01*
X88837500Y-63498684D02*
X89138816Y-63800000D01*
X89138816Y-63800000D02*
X91400000Y-63800000D01*
X91400000Y-63800000D02*
X92100000Y-64500000D01*
D42*
X86994702Y-65007798D02*
X86512500Y-65490000D01*
X87300000Y-65007798D02*
X86994702Y-65007798D01*
D40*
X87637500Y-64037500D02*
X88100000Y-64500000D01*
X87637500Y-64037500D02*
X87637500Y-63000000D01*
X95580000Y-62800000D02*
X95580000Y-63960000D01*
X94620000Y-62800000D02*
X93860092Y-62800000D01*
X93860092Y-62800000D02*
X93700000Y-62639908D01*
X93700000Y-63400000D02*
X93700000Y-62639908D01*
X93700000Y-62639908D02*
X92860092Y-61800000D01*
X92860092Y-61800000D02*
X91637500Y-61800000D01*
X92100000Y-64500000D02*
X93190000Y-64500000D01*
X91637500Y-61400000D02*
X91637500Y-61800000D01*
X90437500Y-62100000D02*
X90437500Y-63000000D01*
X89900000Y-64520000D02*
X90970000Y-64520000D01*
X92800000Y-63400000D02*
X92800000Y-62900000D01*
X92800000Y-62900000D02*
X92100000Y-62200000D01*
X92100000Y-62200000D02*
X91637500Y-62200000D01*
X90837500Y-63000000D02*
X91600000Y-63000000D01*
X91600000Y-63000000D02*
X92000000Y-63400000D01*
D41*
X111544300Y-59244300D02*
X111900000Y-59600000D01*
X111100000Y-59244300D02*
X111544300Y-59244300D01*
X107700000Y-54575000D02*
X107000000Y-53875000D01*
X114600000Y-57775000D02*
X114300000Y-57775000D01*
X107000000Y-53875000D02*
X106187500Y-53875000D01*
X107750000Y-53875000D02*
X107000000Y-53875000D01*
X99020000Y-54060000D02*
X99020000Y-53875000D01*
X109050000Y-54096398D02*
X109050000Y-53875000D01*
X115600000Y-59200000D02*
X115600000Y-60810000D01*
X101050000Y-54550000D02*
X99510000Y-54550000D01*
X103800000Y-54994100D02*
X102800000Y-54994100D01*
X101100000Y-54550000D02*
X101100000Y-53875000D01*
X101494100Y-54994100D02*
X101050000Y-54550000D01*
X99510000Y-54550000D02*
X99020000Y-54060000D01*
X108571398Y-54575000D02*
X109050000Y-54096398D01*
X111100000Y-59244300D02*
X110800000Y-59544300D01*
X110800000Y-59544300D02*
X110800000Y-60810000D01*
X99800000Y-53875000D02*
X99020000Y-53875000D01*
X99020000Y-53875000D02*
X98212500Y-53875000D01*
X107700000Y-54575000D02*
X108571398Y-54575000D01*
X102800000Y-54994100D02*
X101494100Y-54994100D01*
X106950000Y-52950000D02*
X106237500Y-52237500D01*
X116075000Y-56450000D02*
X116075000Y-56212500D01*
X118100000Y-57100000D02*
X118175000Y-57175000D01*
X114790000Y-55735000D02*
X114300000Y-56225000D01*
X108400000Y-52987500D02*
X109737500Y-52987500D01*
D40*
X84820000Y-65780000D02*
X84500000Y-65460000D01*
D41*
X117250000Y-57100000D02*
X118100000Y-57100000D01*
D40*
X85180000Y-65780000D02*
X85400000Y-65560000D01*
D41*
X110000000Y-60810000D02*
X109480000Y-60810000D01*
D40*
X85237500Y-63000000D02*
X85237500Y-59400000D01*
D41*
X115750000Y-57100000D02*
X116200000Y-57100000D01*
X102600000Y-53762500D02*
X102462500Y-53762500D01*
X116400000Y-60810000D02*
X116920000Y-60810000D01*
X102462500Y-53762500D02*
X101800000Y-53100000D01*
X116920000Y-60810000D02*
X117520000Y-61410000D01*
D40*
X90037500Y-63000000D02*
X89637500Y-63000000D01*
D41*
X109737500Y-52987500D02*
X109750000Y-53000000D01*
X118600000Y-57175000D02*
X119100000Y-57675000D01*
X109750000Y-53000000D02*
X109762500Y-52987500D01*
D40*
X88437500Y-63000000D02*
X88437500Y-59800000D01*
X89637500Y-63000000D02*
X89637500Y-61000000D01*
D41*
X116012500Y-56212500D02*
X116075000Y-56212500D01*
X100450000Y-52971398D02*
X99800000Y-52321398D01*
D40*
X85000000Y-65960000D02*
X84820000Y-65780000D01*
D41*
X118175000Y-57175000D02*
X118600000Y-57175000D01*
X108400000Y-52987500D02*
X107000000Y-52987500D01*
X109480000Y-60810000D02*
X108880000Y-61410000D01*
X115500000Y-55700000D02*
X114825000Y-55700000D01*
X108400000Y-52987500D02*
X107750000Y-52337500D01*
D40*
X89637500Y-63000000D02*
X89237500Y-63000000D01*
D41*
X101800000Y-53100000D02*
X100562500Y-53100000D01*
X107750000Y-52337500D02*
X107750000Y-52100000D01*
D40*
X85180000Y-65780000D02*
X84820000Y-65780000D01*
D41*
X99800000Y-52321398D02*
X99800000Y-52100000D01*
D40*
X84500000Y-65460000D02*
X84300000Y-65460000D01*
D41*
X115500000Y-55700000D02*
X116012500Y-56212500D01*
X114825000Y-55700000D02*
X114790000Y-55735000D01*
X109925000Y-52987500D02*
X110700000Y-53762500D01*
X107000000Y-52987500D02*
X106962500Y-52950000D01*
X106962500Y-52950000D02*
X106950000Y-52950000D01*
X116725000Y-57100000D02*
X116075000Y-56450000D01*
X109762500Y-52987500D02*
X109925000Y-52987500D01*
X115700000Y-57100000D02*
X115725000Y-57075000D01*
D40*
X85000000Y-65960000D02*
X85180000Y-65780000D01*
D41*
X115725000Y-57075000D02*
X115750000Y-57100000D01*
D42*
X79200000Y-52300000D02*
X78390000Y-53110000D01*
D40*
X84837500Y-63527200D02*
X85200000Y-63889700D01*
X85200000Y-63900000D02*
X85210300Y-63900000D01*
X118125000Y-56125000D02*
X117975000Y-56275000D01*
X84837500Y-63000000D02*
X84837500Y-63527200D01*
X81800000Y-64400000D02*
X82300000Y-63900000D01*
D41*
X117975000Y-56275000D02*
X117912500Y-56212500D01*
D40*
X92362500Y-61000000D02*
X92562500Y-60800000D01*
X85210300Y-63900000D02*
X85362500Y-63900000D01*
X91637500Y-61000000D02*
X92362500Y-61000000D01*
X82437500Y-63762500D02*
X82300000Y-63900000D01*
X80800000Y-55537500D02*
X80800000Y-55500000D01*
D42*
X78390000Y-53110000D02*
X77700000Y-53110000D01*
X79200000Y-51800000D02*
X79200000Y-52300000D01*
D40*
X85362500Y-63900000D02*
X85362500Y-64462500D01*
X85200000Y-63889700D02*
X85200000Y-63900000D01*
X80162500Y-55500000D02*
X80800000Y-55500000D01*
D41*
X119100000Y-56125000D02*
X118125000Y-56125000D01*
D40*
X92600000Y-54600000D02*
X92562500Y-54600000D01*
X91637500Y-54600000D02*
X92562500Y-54600000D01*
X92362500Y-60600000D02*
X92562500Y-60800000D01*
X70205000Y-61600000D02*
X70205000Y-63385000D01*
X92562500Y-60800000D02*
X92600000Y-60800000D01*
X82437500Y-63000000D02*
X82437500Y-63762500D01*
X85942500Y-63900000D02*
X86512500Y-64470000D01*
X81062500Y-55800000D02*
X80800000Y-55537500D01*
X85362500Y-63900000D02*
X85942500Y-63900000D01*
D41*
X117912500Y-56212500D02*
X117375000Y-56212500D01*
D40*
X67700000Y-52600000D02*
X67700000Y-54365000D01*
X92600000Y-60800000D02*
X93012500Y-60800000D01*
X91637500Y-60600000D02*
X92362500Y-60600000D01*
X81637500Y-55800000D02*
X81062500Y-55800000D01*
X70205000Y-61600000D02*
X68935000Y-61600000D01*
X93012500Y-60800000D02*
X93512500Y-61300000D01*
X93282500Y-54600000D02*
X92600000Y-54600000D01*
X86462500Y-52000000D02*
X86437500Y-51975000D01*
X86437500Y-52025000D02*
X86437500Y-53000000D01*
X112300500Y-51399500D02*
X111601000Y-50700000D01*
D41*
X112300500Y-51399500D02*
X111600000Y-52100000D01*
D40*
X85637500Y-52529500D02*
X85108000Y-52000000D01*
X85637500Y-53000000D02*
X85637500Y-52529500D01*
X85500000Y-54000000D02*
X85637500Y-53862500D01*
X85108000Y-52000000D02*
X84862500Y-52000000D01*
X88037500Y-52162500D02*
X88037500Y-53000000D01*
X87637500Y-53000000D02*
X87237500Y-53000000D01*
X85637500Y-53862500D02*
X85637500Y-53000000D01*
X88800000Y-51400000D02*
X88800000Y-50980000D01*
X88037500Y-53000000D02*
X87637500Y-53000000D01*
X88100000Y-52100000D02*
X88800000Y-51400000D01*
X86450000Y-52000000D02*
X86450000Y-52012500D01*
X88100000Y-52100000D02*
X88037500Y-52162500D01*
X86450000Y-52000000D02*
X86462500Y-52000000D01*
X85600000Y-54000000D02*
X85500000Y-54000000D01*
X86437500Y-51975000D02*
X86437500Y-51495000D01*
D41*
X110700000Y-52212500D02*
X111487500Y-52212500D01*
D40*
X109700000Y-52100000D02*
X110587500Y-52100000D01*
X109050000Y-52100000D02*
X109700000Y-52100000D01*
X85600000Y-53900000D02*
X85600000Y-54000000D01*
D41*
X111487500Y-52212500D02*
X111600000Y-52100000D01*
D40*
X111601000Y-50700000D02*
X110925000Y-50700000D01*
X84862500Y-52000000D02*
X84300000Y-51437500D01*
X86450000Y-52012500D02*
X86437500Y-52025000D01*
X92700000Y-53500000D02*
X93282500Y-53500000D01*
X84300000Y-64000000D02*
X84300000Y-64500000D01*
D44*
X85400000Y-51380000D02*
X85400000Y-51692816D01*
D41*
X101787500Y-52100000D02*
X101100000Y-52100000D01*
D44*
X86037500Y-52330316D02*
X86037500Y-53000000D01*
D41*
X103887100Y-52212500D02*
X102800000Y-52212500D01*
X104800000Y-52300000D02*
X103974600Y-52300000D01*
X103974600Y-52300000D02*
X103912500Y-52237900D01*
D40*
X84062500Y-63800000D02*
X84100000Y-63800000D01*
X84100000Y-63800000D02*
X84300000Y-64000000D01*
X84037500Y-63775000D02*
X84037500Y-63000000D01*
D41*
X102600000Y-52212500D02*
X102600000Y-50990000D01*
D40*
X84037500Y-63775000D02*
X84062500Y-63800000D01*
D41*
X101900000Y-52212500D02*
X102600000Y-52212500D01*
D44*
X86493000Y-54000000D02*
X86037500Y-53544500D01*
D40*
X92562500Y-53600000D02*
X92600000Y-53600000D01*
D41*
X103912500Y-52237900D02*
X103887100Y-52212500D01*
X101900000Y-52212500D02*
X101787500Y-52100000D01*
X102600000Y-50990000D02*
X102410000Y-50800000D01*
D44*
X85400000Y-51692816D02*
X86037500Y-52330316D01*
D40*
X92562500Y-53600000D02*
X92362500Y-53800000D01*
X92600000Y-53600000D02*
X92700000Y-53500000D01*
D44*
X86037500Y-53544500D02*
X86037500Y-53000000D01*
D40*
X92362500Y-53800000D02*
X91637500Y-53800000D01*
D42*
X79662500Y-56600000D02*
X77412500Y-58850000D01*
X81637500Y-56600000D02*
X79662500Y-56600000D01*
X77993500Y-57700000D02*
X76712500Y-57700000D01*
X76712500Y-57700000D02*
X75662500Y-56650000D01*
X79493500Y-56200000D02*
X77993500Y-57700000D01*
X81637500Y-56200000D02*
X79493500Y-56200000D01*
X77700000Y-52090000D02*
X76807500Y-52090000D01*
X76807500Y-52090000D02*
X76387500Y-52510000D01*
X93852500Y-60300000D02*
X93752500Y-60200000D01*
X93900000Y-60300000D02*
X93852500Y-60300000D01*
X93752500Y-60200000D02*
X91637500Y-60200000D01*
X94300000Y-59700000D02*
X94252500Y-59747500D01*
X91690000Y-59747500D02*
X91637500Y-59800000D01*
X94252500Y-59747500D02*
X91690000Y-59747500D01*
X95000000Y-59600000D02*
X94606500Y-59206500D01*
X93806500Y-59493500D02*
X91731000Y-59493500D01*
X91731000Y-59493500D02*
X91637500Y-59400000D01*
X94606500Y-59206500D02*
X94093500Y-59206500D01*
X94093500Y-59206500D02*
X93806500Y-59493500D01*
X93360500Y-59239500D02*
X93600000Y-59000000D01*
X91637500Y-59000000D02*
X92118500Y-59000000D01*
X92118500Y-59000000D02*
X92358000Y-59239500D01*
X92358000Y-59239500D02*
X93360500Y-59239500D01*
X91637500Y-58600000D02*
X90800000Y-58600000D01*
X95300000Y-58200000D02*
X91637500Y-58200000D01*
X95700000Y-57800000D02*
X95300000Y-58200000D01*
X91637500Y-57800000D02*
X90800000Y-57800000D01*
X91637500Y-57400000D02*
X92700000Y-57400000D01*
X91637500Y-57000000D02*
X90800000Y-57000000D01*
X93600000Y-56600000D02*
X91637500Y-56600000D01*
X94100000Y-57100000D02*
X93600000Y-56600000D01*
X91637500Y-56200000D02*
X90800000Y-56200000D01*
X91637500Y-55800000D02*
X92700000Y-55800000D01*
X93506500Y-55306500D02*
X92495585Y-55306500D01*
X92495585Y-55306500D02*
X92401042Y-55401043D01*
X92399999Y-55400000D02*
X91637500Y-55400000D01*
X92401042Y-55401043D02*
X92399999Y-55400000D01*
X93900000Y-55700000D02*
X93506500Y-55306500D01*
X91637500Y-55000000D02*
X90800000Y-55000000D01*
X90800000Y-54300000D02*
X90900000Y-54200000D01*
X90900000Y-54200000D02*
X91637500Y-54200000D01*
X90837500Y-52432210D02*
X93315710Y-49954000D01*
X93315710Y-49954000D02*
X98505210Y-49954000D01*
X98505210Y-49954000D02*
X100645000Y-47814210D01*
X90837500Y-53000000D02*
X90837500Y-52432210D01*
X99300000Y-46195000D02*
X98105000Y-45000000D01*
X99300000Y-48800000D02*
X99300000Y-46195000D01*
X90437500Y-52473000D02*
X93210500Y-49700000D01*
X98400000Y-49700000D02*
X99300000Y-48800000D01*
X93210500Y-49700000D02*
X98400000Y-49700000D01*
X90437500Y-53000000D02*
X90437500Y-52473000D01*
X96199000Y-49446000D02*
X98105000Y-47540000D01*
X93064500Y-49446000D02*
X96199000Y-49446000D01*
X90037500Y-53000000D02*
X90037500Y-52473000D01*
X90037500Y-52473000D02*
X93064500Y-49446000D01*
X92918500Y-49192000D02*
X96093790Y-49192000D01*
X89637500Y-52473000D02*
X92918500Y-49192000D01*
X96093790Y-49192000D02*
X96800000Y-48485790D01*
X96800000Y-48485790D02*
X96800000Y-46235000D01*
X89637500Y-53000000D02*
X89637500Y-52473000D01*
X96800000Y-46235000D02*
X95565000Y-45000000D01*
X92772500Y-48938000D02*
X94762000Y-48938000D01*
X94762000Y-48938000D02*
X95565000Y-48135000D01*
X89237500Y-53000000D02*
X89237500Y-52473000D01*
X89237500Y-52473000D02*
X92772500Y-48938000D01*
X93646500Y-48653500D02*
X94300000Y-48000000D01*
X88837500Y-53000000D02*
X88837500Y-52513790D01*
X94300000Y-46275000D02*
X93025000Y-45000000D01*
X94300000Y-48000000D02*
X94300000Y-46275000D01*
X88837500Y-52513790D02*
X92697790Y-48653500D01*
X92697790Y-48653500D02*
X93646500Y-48653500D01*
X91102085Y-49797915D02*
X93025000Y-47875000D01*
X91100000Y-49797915D02*
X91102085Y-49797915D01*
X88437500Y-53000000D02*
X88437500Y-52460415D01*
X88437500Y-52460415D02*
X91100000Y-49797915D01*
X84900000Y-53902085D02*
X84900000Y-54200000D01*
X85237500Y-53000000D02*
X85237500Y-53564585D01*
X85237500Y-53564585D02*
X84900000Y-53902085D01*
X84837500Y-53000000D02*
X84837500Y-53564585D01*
X84202085Y-54200000D02*
X84200000Y-54200000D01*
X84837500Y-53564585D02*
X84202085Y-54200000D01*
X83570000Y-51692290D02*
X83570000Y-49748420D01*
X83570000Y-49748420D02*
X84264420Y-49054000D01*
X84264420Y-49054000D02*
X86431000Y-49054000D01*
X84437500Y-52559790D02*
X83570000Y-51692290D01*
X86431000Y-49054000D02*
X87945000Y-47540000D01*
X84437500Y-53000000D02*
X84437500Y-52559790D01*
X83316000Y-51797500D02*
X83316000Y-49643210D01*
X83316000Y-49643210D02*
X84159210Y-48800000D01*
X84159210Y-48800000D02*
X86200000Y-48800000D01*
X86200000Y-48800000D02*
X86600000Y-48400000D01*
X84037500Y-53000000D02*
X84037500Y-52519000D01*
X86600000Y-48400000D02*
X86600000Y-46345000D01*
X84037500Y-52519000D02*
X83316000Y-51797500D01*
X86600000Y-46345000D02*
X87945000Y-45000000D01*
X83637500Y-52596290D02*
X83062000Y-52020790D01*
X83637500Y-53000000D02*
X83637500Y-52596290D01*
X83062000Y-52020790D02*
X83062000Y-49538000D01*
X83062000Y-49538000D02*
X85060000Y-47540000D01*
X84100000Y-48140790D02*
X84100000Y-46305000D01*
X84100000Y-46305000D02*
X85405000Y-45000000D01*
X83237500Y-53000000D02*
X83237500Y-52555500D01*
X82808000Y-52126000D02*
X82808000Y-49432790D01*
X82808000Y-49432790D02*
X84100000Y-48140790D01*
X83237500Y-52555500D02*
X82808000Y-52126000D01*
X82437500Y-52555500D02*
X82300000Y-52418000D01*
X82437500Y-53000000D02*
X82437500Y-52555500D01*
X82300000Y-48900000D02*
X81600000Y-48200000D01*
X81600000Y-48200000D02*
X81600000Y-46265000D01*
X81600000Y-46265000D02*
X82865000Y-45000000D01*
X82300000Y-52418000D02*
X82300000Y-48900000D01*
X81054000Y-53216500D02*
X81054000Y-49484517D01*
X81637500Y-53800000D02*
X81054000Y-53216500D01*
X81054000Y-49484517D02*
X80100000Y-48530517D01*
X80100000Y-48530517D02*
X80100000Y-47765000D01*
X79100000Y-47889727D02*
X79100000Y-46225000D01*
X79100000Y-46225000D02*
X80325000Y-45000000D01*
X81110500Y-54200000D02*
X80800000Y-53889500D01*
X80800000Y-53889500D02*
X80800000Y-49589727D01*
X80800000Y-49589727D02*
X79100000Y-47889727D01*
X81637500Y-54200000D02*
X81110500Y-54200000D01*
X80546000Y-49694937D02*
X78391063Y-47540000D01*
X81151290Y-54600000D02*
X80546000Y-53994710D01*
X81637500Y-54600000D02*
X81151290Y-54600000D01*
X80546000Y-53994710D02*
X80546000Y-49694937D01*
X81637500Y-55000000D02*
X81192080Y-55000000D01*
X80292000Y-54099920D02*
X80292000Y-49800147D01*
X81192080Y-55000000D02*
X80292000Y-54099920D01*
X79291853Y-48800000D02*
X77100000Y-48800000D01*
X76600000Y-48300000D02*
X76600000Y-46185000D01*
X76600000Y-46185000D02*
X77785000Y-45000000D01*
X80292000Y-49800147D02*
X79291853Y-48800000D01*
X77100000Y-48800000D02*
X76600000Y-48300000D01*
X81637500Y-55400000D02*
X82500000Y-55400000D01*
X83637500Y-63000000D02*
X83637500Y-62387500D01*
X83637500Y-62387500D02*
X83450000Y-62200000D01*
X116945000Y-54100000D02*
X118425000Y-52620000D01*
X114300000Y-54100000D02*
X116945000Y-54100000D01*
X80500000Y-63200000D02*
X81500000Y-62200000D01*
X106300000Y-58200000D02*
X107582500Y-56917500D01*
X107582500Y-56917500D02*
X111482500Y-56917500D01*
X111482500Y-56917500D02*
X114300000Y-54100000D01*
X81200000Y-61800000D02*
X81637500Y-61800000D01*
X80500000Y-62500000D02*
X81200000Y-61800000D01*
X81637500Y-61000000D02*
X82400000Y-61000000D01*
X82400000Y-61000000D02*
X82500000Y-60900000D01*
X80500000Y-61800000D02*
X80900000Y-61400000D01*
X80900000Y-61400000D02*
X81637500Y-61400000D01*
X82200000Y-59000000D02*
X82800000Y-59600000D01*
X81637500Y-59000000D02*
X82200000Y-59000000D01*
X81637500Y-57400000D02*
X80800000Y-57400000D01*
X80800000Y-57400000D02*
X80600000Y-57600000D01*
X80400000Y-58600000D02*
X80800000Y-58200000D01*
X80800000Y-58200000D02*
X81637500Y-58200000D01*
X82500000Y-58600000D02*
X82600000Y-58700000D01*
X81637500Y-58600000D02*
X82500000Y-58600000D01*
X81637500Y-57800000D02*
X82400000Y-57800000D01*
X82400000Y-57800000D02*
X82600000Y-58000000D01*
X82300000Y-57000000D02*
X82600000Y-57300000D01*
X81637500Y-57000000D02*
X82300000Y-57000000D01*
X82837500Y-52596290D02*
X82554000Y-52312790D01*
X82554000Y-52312790D02*
X82554000Y-47851000D01*
X82837500Y-53000000D02*
X82837500Y-52596290D01*
X82837500Y-53000000D02*
X82837500Y-53637500D01*
X82837500Y-53637500D02*
X83100000Y-53900000D01*
X111950000Y-61750000D02*
X111950000Y-60810000D01*
X116656158Y-63764000D02*
X115392158Y-62500000D01*
X112700000Y-62500000D02*
X111950000Y-61750000D01*
X115392158Y-62500000D02*
X112700000Y-62500000D01*
X119100000Y-65180000D02*
X117684000Y-63764000D01*
X117684000Y-63764000D02*
X116656158Y-63764000D01*
D45*
X113200000Y-61850000D02*
X112950000Y-61600000D01*
X113700000Y-61850000D02*
X113200000Y-61850000D01*
X113907750Y-59363946D02*
X113907750Y-59837749D01*
X113950000Y-59879999D02*
X113950000Y-60810000D01*
X83300000Y-65100000D02*
X83300000Y-66206196D01*
X108463946Y-57642250D02*
X112186054Y-57642250D01*
X102663946Y-66592250D02*
X106492250Y-62763946D01*
X113950000Y-60810000D02*
X113950000Y-61600000D01*
X106492250Y-59613946D02*
X108463946Y-57642250D01*
X106492250Y-62763946D02*
X106492250Y-59613946D01*
X112186054Y-57642250D02*
X113907750Y-59363946D01*
D44*
X83237500Y-65037500D02*
X83300000Y-65100000D01*
D45*
X83686054Y-66592250D02*
X102663946Y-66592250D01*
X113950000Y-61600000D02*
X113700000Y-61850000D01*
X113907750Y-59837749D02*
X113950000Y-59879999D01*
X112950000Y-61600000D02*
X112950000Y-60810000D01*
X83300000Y-66206196D02*
X83686054Y-66592250D01*
D44*
X83237500Y-63000000D02*
X83237500Y-65037500D01*
D45*
X102836054Y-67007750D02*
X106907750Y-62936054D01*
D44*
X82837500Y-63000000D02*
X82837500Y-65037500D01*
D45*
X112013946Y-58057750D02*
X113492250Y-59536054D01*
X113492250Y-59536054D02*
X113492250Y-59837749D01*
X83513946Y-67007750D02*
X102836054Y-67007750D01*
X106907750Y-62936054D02*
X106907750Y-59786054D01*
X113492250Y-59837749D02*
X113450000Y-59879999D01*
X113450000Y-60050000D02*
X113450000Y-60810000D01*
D44*
X82837500Y-65037500D02*
X82800000Y-65075000D01*
D45*
X113200000Y-59800000D02*
X113450000Y-60050000D01*
X82800000Y-66293804D02*
X83513946Y-67007750D01*
X112450000Y-60050000D02*
X112700000Y-59800000D01*
X106907750Y-59786054D02*
X108636054Y-58057750D01*
X113450000Y-59879999D02*
X113450000Y-60810000D01*
X108636054Y-58057750D02*
X112013946Y-58057750D01*
X112700000Y-59800000D02*
X113200000Y-59800000D01*
X112450000Y-60810000D02*
X112450000Y-60050000D01*
X82800000Y-65075000D02*
X82800000Y-66293804D01*
D42*
X114950000Y-61698632D02*
X114950000Y-60810000D01*
X119100000Y-63510000D02*
X116761368Y-63510000D01*
X116761368Y-63510000D02*
X114950000Y-61698632D01*
D40*
X116725000Y-56212500D02*
X116725000Y-55015000D01*
X116790000Y-54950000D02*
X115810000Y-54950000D01*
X109175000Y-50600000D02*
X107710000Y-50600000D01*
X100210000Y-50787500D02*
X101377500Y-50787500D01*
D42*
X87150000Y-52112500D02*
X86837500Y-52425000D01*
D44*
X84500000Y-50180000D02*
X84500000Y-49600000D01*
D42*
X87150000Y-52100000D02*
X87700000Y-51550000D01*
X87150000Y-52100000D02*
X87150000Y-52112500D01*
X86837500Y-52425000D02*
X86837500Y-53000000D01*
D44*
X84300000Y-50380000D02*
X84500000Y-50180000D01*
D42*
X79900000Y-60200000D02*
X80300000Y-59800000D01*
X70205000Y-54400000D02*
X71200000Y-54400000D01*
X80300000Y-59800000D02*
X81637500Y-59800000D01*
X80002085Y-59400000D02*
X81637500Y-59400000D01*
X68600000Y-64900000D02*
X67665000Y-63965000D01*
X67665000Y-63965000D02*
X67665000Y-61600000D01*
X79000000Y-63800000D02*
X77900000Y-64900000D01*
X79000000Y-60800000D02*
X79000000Y-60402085D01*
X77900000Y-64900000D02*
X68600000Y-64900000D01*
X79000000Y-60402085D02*
X80002085Y-59400000D01*
X68935000Y-56935000D02*
X68935000Y-54400000D01*
X80600000Y-60200000D02*
X78700000Y-62100000D01*
X78700000Y-62100000D02*
X74100000Y-62100000D01*
X74100000Y-62100000D02*
X68935000Y-56935000D01*
X81637500Y-60200000D02*
X80600000Y-60200000D01*
X67100000Y-60000000D02*
X66395000Y-60705000D01*
X71100000Y-60000000D02*
X67100000Y-60000000D01*
X78900000Y-62700000D02*
X73800000Y-62700000D01*
X81637500Y-60600000D02*
X81000000Y-60600000D01*
X73800000Y-62700000D02*
X71100000Y-60000000D01*
X66395000Y-60705000D02*
X66395000Y-61600000D01*
X81000000Y-60600000D02*
X78900000Y-62700000D01*
G04 #@! TA.AperFunction,Conductor*
G36*
X118614833Y-43302595D02*
G01*
X118622546Y-43303216D01*
X118763025Y-43323414D01*
X118852857Y-43336330D01*
X118870145Y-43340091D01*
X119069144Y-43398523D01*
X119127922Y-43436298D01*
X119156947Y-43499853D01*
X119147003Y-43569012D01*
X119101248Y-43621816D01*
X119034209Y-43641500D01*
X117526345Y-43641500D01*
X117465797Y-43648011D01*
X117465795Y-43648011D01*
X117328795Y-43699111D01*
X117211739Y-43786739D01*
X117124111Y-43903795D01*
X117078861Y-44025111D01*
X117036989Y-44081044D01*
X116971524Y-44105460D01*
X116903252Y-44090607D01*
X116871454Y-44065762D01*
X116808240Y-43997094D01*
X116630576Y-43858811D01*
X116630575Y-43858810D01*
X116630572Y-43858808D01*
X116432580Y-43751661D01*
X116432577Y-43751659D01*
X116432574Y-43751658D01*
X116432571Y-43751657D01*
X116432569Y-43751656D01*
X116219637Y-43678556D01*
X115997569Y-43641500D01*
X115772431Y-43641500D01*
X115550362Y-43678556D01*
X115337430Y-43751656D01*
X115337419Y-43751661D01*
X115139427Y-43858808D01*
X115139422Y-43858812D01*
X114961761Y-43997092D01*
X114961756Y-43997097D01*
X114809284Y-44162723D01*
X114809276Y-44162734D01*
X114718808Y-44301206D01*
X114665662Y-44346562D01*
X114596431Y-44355986D01*
X114533095Y-44326484D01*
X114511192Y-44301206D01*
X114435049Y-44184661D01*
X114420722Y-44162732D01*
X114420719Y-44162729D01*
X114420715Y-44162723D01*
X114268243Y-43997097D01*
X114268238Y-43997092D01*
X114090577Y-43858812D01*
X114090572Y-43858808D01*
X113892580Y-43751661D01*
X113892577Y-43751659D01*
X113892574Y-43751658D01*
X113892571Y-43751657D01*
X113892569Y-43751656D01*
X113679637Y-43678556D01*
X113457569Y-43641500D01*
X113232431Y-43641500D01*
X113010362Y-43678556D01*
X112797430Y-43751656D01*
X112797419Y-43751661D01*
X112599427Y-43858808D01*
X112599422Y-43858812D01*
X112421761Y-43997092D01*
X112421756Y-43997097D01*
X112269284Y-44162723D01*
X112269276Y-44162734D01*
X112178807Y-44301206D01*
X112125660Y-44346563D01*
X112056429Y-44355986D01*
X111993093Y-44326483D01*
X111971191Y-44301206D01*
X111880722Y-44162732D01*
X111880717Y-44162727D01*
X111880715Y-44162723D01*
X111728243Y-43997097D01*
X111728238Y-43997092D01*
X111550577Y-43858812D01*
X111550572Y-43858808D01*
X111352580Y-43751661D01*
X111352577Y-43751659D01*
X111352574Y-43751658D01*
X111352571Y-43751657D01*
X111352569Y-43751656D01*
X111139637Y-43678556D01*
X110917569Y-43641500D01*
X110692431Y-43641500D01*
X110470362Y-43678556D01*
X110257430Y-43751656D01*
X110257419Y-43751661D01*
X110059427Y-43858808D01*
X110059422Y-43858812D01*
X109881761Y-43997092D01*
X109881756Y-43997097D01*
X109729284Y-44162723D01*
X109729276Y-44162734D01*
X109638808Y-44301206D01*
X109585662Y-44346562D01*
X109516431Y-44355986D01*
X109453095Y-44326484D01*
X109431192Y-44301206D01*
X109355049Y-44184661D01*
X109340722Y-44162732D01*
X109340719Y-44162729D01*
X109340715Y-44162723D01*
X109188243Y-43997097D01*
X109188238Y-43997092D01*
X109010577Y-43858812D01*
X109010572Y-43858808D01*
X108812580Y-43751661D01*
X108812577Y-43751659D01*
X108812574Y-43751658D01*
X108812571Y-43751657D01*
X108812569Y-43751656D01*
X108599637Y-43678556D01*
X108377569Y-43641500D01*
X108152431Y-43641500D01*
X107930362Y-43678556D01*
X107717430Y-43751656D01*
X107717419Y-43751661D01*
X107519427Y-43858808D01*
X107519422Y-43858812D01*
X107341761Y-43997092D01*
X107341756Y-43997097D01*
X107189284Y-44162723D01*
X107189276Y-44162734D01*
X107098807Y-44301206D01*
X107045660Y-44346563D01*
X106976429Y-44355986D01*
X106913093Y-44326483D01*
X106891191Y-44301206D01*
X106800722Y-44162732D01*
X106800717Y-44162727D01*
X106800715Y-44162723D01*
X106648243Y-43997097D01*
X106648238Y-43997092D01*
X106470577Y-43858812D01*
X106470572Y-43858808D01*
X106272580Y-43751661D01*
X106272577Y-43751659D01*
X106272574Y-43751658D01*
X106272571Y-43751657D01*
X106272569Y-43751656D01*
X106059637Y-43678556D01*
X105837569Y-43641500D01*
X105612431Y-43641500D01*
X105390362Y-43678556D01*
X105177430Y-43751656D01*
X105177419Y-43751661D01*
X104979427Y-43858808D01*
X104979422Y-43858812D01*
X104801761Y-43997092D01*
X104801756Y-43997097D01*
X104649284Y-44162723D01*
X104649276Y-44162734D01*
X104558808Y-44301206D01*
X104505662Y-44346562D01*
X104436431Y-44355986D01*
X104373095Y-44326484D01*
X104351192Y-44301206D01*
X104275049Y-44184661D01*
X104260722Y-44162732D01*
X104260719Y-44162729D01*
X104260715Y-44162723D01*
X104108243Y-43997097D01*
X104108238Y-43997092D01*
X103930577Y-43858812D01*
X103930572Y-43858808D01*
X103732580Y-43751661D01*
X103732577Y-43751659D01*
X103732574Y-43751658D01*
X103732571Y-43751657D01*
X103732569Y-43751656D01*
X103519637Y-43678556D01*
X103297569Y-43641500D01*
X103072431Y-43641500D01*
X102850362Y-43678556D01*
X102637430Y-43751656D01*
X102637419Y-43751661D01*
X102439427Y-43858808D01*
X102439422Y-43858812D01*
X102261761Y-43997092D01*
X102261756Y-43997097D01*
X102109284Y-44162723D01*
X102109276Y-44162734D01*
X102018807Y-44301206D01*
X101965660Y-44346563D01*
X101896429Y-44355986D01*
X101833093Y-44326483D01*
X101811191Y-44301206D01*
X101720722Y-44162732D01*
X101720717Y-44162727D01*
X101720715Y-44162723D01*
X101568243Y-43997097D01*
X101568238Y-43997092D01*
X101390577Y-43858812D01*
X101390572Y-43858808D01*
X101192580Y-43751661D01*
X101192577Y-43751659D01*
X101192574Y-43751658D01*
X101192571Y-43751657D01*
X101192569Y-43751656D01*
X100979637Y-43678556D01*
X100757569Y-43641500D01*
X100532431Y-43641500D01*
X100310362Y-43678556D01*
X100097430Y-43751656D01*
X100097419Y-43751661D01*
X99899427Y-43858808D01*
X99899422Y-43858812D01*
X99721761Y-43997092D01*
X99721756Y-43997097D01*
X99569284Y-44162723D01*
X99569276Y-44162734D01*
X99478808Y-44301206D01*
X99425662Y-44346562D01*
X99356431Y-44355986D01*
X99293095Y-44326484D01*
X99271192Y-44301206D01*
X99195049Y-44184661D01*
X99180722Y-44162732D01*
X99180719Y-44162729D01*
X99180715Y-44162723D01*
X99028243Y-43997097D01*
X99028238Y-43997092D01*
X98850577Y-43858812D01*
X98850572Y-43858808D01*
X98652580Y-43751661D01*
X98652577Y-43751659D01*
X98652574Y-43751658D01*
X98652571Y-43751657D01*
X98652569Y-43751656D01*
X98439637Y-43678556D01*
X98217569Y-43641500D01*
X97992431Y-43641500D01*
X97770362Y-43678556D01*
X97557430Y-43751656D01*
X97557419Y-43751661D01*
X97359427Y-43858808D01*
X97359422Y-43858812D01*
X97181761Y-43997092D01*
X97181756Y-43997097D01*
X97029284Y-44162723D01*
X97029276Y-44162734D01*
X96938807Y-44301206D01*
X96885660Y-44346563D01*
X96816429Y-44355986D01*
X96753093Y-44326483D01*
X96731191Y-44301206D01*
X96640722Y-44162732D01*
X96640717Y-44162727D01*
X96640715Y-44162723D01*
X96488243Y-43997097D01*
X96488238Y-43997092D01*
X96310577Y-43858812D01*
X96310572Y-43858808D01*
X96112580Y-43751661D01*
X96112577Y-43751659D01*
X96112574Y-43751658D01*
X96112571Y-43751657D01*
X96112569Y-43751656D01*
X95899637Y-43678556D01*
X95677569Y-43641500D01*
X95452431Y-43641500D01*
X95230362Y-43678556D01*
X95017430Y-43751656D01*
X95017419Y-43751661D01*
X94819427Y-43858808D01*
X94819422Y-43858812D01*
X94641761Y-43997092D01*
X94641756Y-43997097D01*
X94489284Y-44162723D01*
X94489276Y-44162734D01*
X94398808Y-44301206D01*
X94345662Y-44346562D01*
X94276431Y-44355986D01*
X94213095Y-44326484D01*
X94191192Y-44301206D01*
X94115049Y-44184661D01*
X94100722Y-44162732D01*
X94100719Y-44162729D01*
X94100715Y-44162723D01*
X93948243Y-43997097D01*
X93948238Y-43997092D01*
X93770577Y-43858812D01*
X93770572Y-43858808D01*
X93572580Y-43751661D01*
X93572577Y-43751659D01*
X93572574Y-43751658D01*
X93572571Y-43751657D01*
X93572569Y-43751656D01*
X93359637Y-43678556D01*
X93137569Y-43641500D01*
X92912431Y-43641500D01*
X92690362Y-43678556D01*
X92477430Y-43751656D01*
X92477419Y-43751661D01*
X92279427Y-43858808D01*
X92279422Y-43858812D01*
X92101761Y-43997092D01*
X92101756Y-43997097D01*
X91949284Y-44162723D01*
X91949276Y-44162734D01*
X91858807Y-44301206D01*
X91805660Y-44346563D01*
X91736429Y-44355986D01*
X91673093Y-44326483D01*
X91651191Y-44301206D01*
X91560722Y-44162732D01*
X91560717Y-44162727D01*
X91560715Y-44162723D01*
X91408243Y-43997097D01*
X91408238Y-43997092D01*
X91230577Y-43858812D01*
X91230572Y-43858808D01*
X91032580Y-43751661D01*
X91032577Y-43751659D01*
X91032574Y-43751658D01*
X91032571Y-43751657D01*
X91032569Y-43751656D01*
X90819637Y-43678556D01*
X90597569Y-43641500D01*
X90372431Y-43641500D01*
X90150362Y-43678556D01*
X89937430Y-43751656D01*
X89937419Y-43751661D01*
X89739427Y-43858808D01*
X89739422Y-43858812D01*
X89561761Y-43997092D01*
X89561756Y-43997097D01*
X89409284Y-44162723D01*
X89409276Y-44162734D01*
X89318808Y-44301206D01*
X89265662Y-44346562D01*
X89196431Y-44355986D01*
X89133095Y-44326484D01*
X89111192Y-44301206D01*
X89035049Y-44184661D01*
X89020722Y-44162732D01*
X89020719Y-44162729D01*
X89020715Y-44162723D01*
X88868243Y-43997097D01*
X88868238Y-43997092D01*
X88690577Y-43858812D01*
X88690572Y-43858808D01*
X88492580Y-43751661D01*
X88492577Y-43751659D01*
X88492574Y-43751658D01*
X88492571Y-43751657D01*
X88492569Y-43751656D01*
X88279637Y-43678556D01*
X88057569Y-43641500D01*
X87832431Y-43641500D01*
X87610362Y-43678556D01*
X87397430Y-43751656D01*
X87397419Y-43751661D01*
X87199427Y-43858808D01*
X87199422Y-43858812D01*
X87021761Y-43997092D01*
X87021756Y-43997097D01*
X86869284Y-44162723D01*
X86869276Y-44162734D01*
X86778807Y-44301206D01*
X86725660Y-44346563D01*
X86656429Y-44355986D01*
X86593093Y-44326483D01*
X86571191Y-44301206D01*
X86480722Y-44162732D01*
X86480717Y-44162727D01*
X86480715Y-44162723D01*
X86328243Y-43997097D01*
X86328238Y-43997092D01*
X86150577Y-43858812D01*
X86150572Y-43858808D01*
X85952580Y-43751661D01*
X85952577Y-43751659D01*
X85952574Y-43751658D01*
X85952571Y-43751657D01*
X85952569Y-43751656D01*
X85739637Y-43678556D01*
X85517569Y-43641500D01*
X85292431Y-43641500D01*
X85070362Y-43678556D01*
X84857430Y-43751656D01*
X84857419Y-43751661D01*
X84659427Y-43858808D01*
X84659422Y-43858812D01*
X84481761Y-43997092D01*
X84481756Y-43997097D01*
X84329284Y-44162723D01*
X84329276Y-44162734D01*
X84238808Y-44301206D01*
X84185662Y-44346562D01*
X84116431Y-44355986D01*
X84053095Y-44326484D01*
X84031192Y-44301206D01*
X83955049Y-44184661D01*
X83940722Y-44162732D01*
X83940719Y-44162729D01*
X83940715Y-44162723D01*
X83788243Y-43997097D01*
X83788238Y-43997092D01*
X83610577Y-43858812D01*
X83610572Y-43858808D01*
X83412580Y-43751661D01*
X83412577Y-43751659D01*
X83412574Y-43751658D01*
X83412571Y-43751657D01*
X83412569Y-43751656D01*
X83199637Y-43678556D01*
X82977569Y-43641500D01*
X82752431Y-43641500D01*
X82530362Y-43678556D01*
X82317430Y-43751656D01*
X82317419Y-43751661D01*
X82119427Y-43858808D01*
X82119422Y-43858812D01*
X81941761Y-43997092D01*
X81941756Y-43997097D01*
X81789284Y-44162723D01*
X81789276Y-44162734D01*
X81698807Y-44301206D01*
X81645660Y-44346563D01*
X81576429Y-44355986D01*
X81513093Y-44326483D01*
X81491191Y-44301206D01*
X81400722Y-44162732D01*
X81400717Y-44162727D01*
X81400715Y-44162723D01*
X81248243Y-43997097D01*
X81248238Y-43997092D01*
X81070577Y-43858812D01*
X81070572Y-43858808D01*
X80872580Y-43751661D01*
X80872577Y-43751659D01*
X80872574Y-43751658D01*
X80872571Y-43751657D01*
X80872569Y-43751656D01*
X80659637Y-43678556D01*
X80437569Y-43641500D01*
X80212431Y-43641500D01*
X79990362Y-43678556D01*
X79777430Y-43751656D01*
X79777419Y-43751661D01*
X79579427Y-43858808D01*
X79579422Y-43858812D01*
X79401761Y-43997092D01*
X79401756Y-43997097D01*
X79249284Y-44162723D01*
X79249276Y-44162734D01*
X79158808Y-44301206D01*
X79105662Y-44346562D01*
X79036431Y-44355986D01*
X78973095Y-44326484D01*
X78951192Y-44301206D01*
X78875049Y-44184661D01*
X78860722Y-44162732D01*
X78860719Y-44162729D01*
X78860715Y-44162723D01*
X78708243Y-43997097D01*
X78708238Y-43997092D01*
X78530577Y-43858812D01*
X78530572Y-43858808D01*
X78332580Y-43751661D01*
X78332577Y-43751659D01*
X78332574Y-43751658D01*
X78332571Y-43751657D01*
X78332569Y-43751656D01*
X78119637Y-43678556D01*
X77897569Y-43641500D01*
X77672431Y-43641500D01*
X77450362Y-43678556D01*
X77237430Y-43751656D01*
X77237419Y-43751661D01*
X77039427Y-43858808D01*
X77039422Y-43858812D01*
X76861761Y-43997092D01*
X76861756Y-43997097D01*
X76709284Y-44162723D01*
X76709276Y-44162734D01*
X76618807Y-44301206D01*
X76565660Y-44346563D01*
X76496429Y-44355986D01*
X76433093Y-44326483D01*
X76411191Y-44301206D01*
X76320722Y-44162732D01*
X76320717Y-44162727D01*
X76320715Y-44162723D01*
X76168243Y-43997097D01*
X76168238Y-43997092D01*
X75990577Y-43858812D01*
X75990572Y-43858808D01*
X75792580Y-43751661D01*
X75792577Y-43751659D01*
X75792574Y-43751658D01*
X75792571Y-43751657D01*
X75792569Y-43751656D01*
X75579637Y-43678556D01*
X75357569Y-43641500D01*
X75132431Y-43641500D01*
X74910362Y-43678556D01*
X74697430Y-43751656D01*
X74697419Y-43751661D01*
X74499427Y-43858808D01*
X74499422Y-43858812D01*
X74321761Y-43997092D01*
X74321756Y-43997097D01*
X74169284Y-44162723D01*
X74169276Y-44162734D01*
X74078808Y-44301206D01*
X74025662Y-44346562D01*
X73956431Y-44355986D01*
X73893095Y-44326484D01*
X73871192Y-44301206D01*
X73795049Y-44184661D01*
X73780722Y-44162732D01*
X73780719Y-44162729D01*
X73780715Y-44162723D01*
X73628243Y-43997097D01*
X73628238Y-43997092D01*
X73450577Y-43858812D01*
X73450572Y-43858808D01*
X73252580Y-43751661D01*
X73252577Y-43751659D01*
X73252574Y-43751658D01*
X73252571Y-43751657D01*
X73252569Y-43751656D01*
X73039637Y-43678556D01*
X72817569Y-43641500D01*
X72592431Y-43641500D01*
X72370362Y-43678556D01*
X72157430Y-43751656D01*
X72157419Y-43751661D01*
X71959427Y-43858808D01*
X71959422Y-43858812D01*
X71781761Y-43997092D01*
X71781756Y-43997097D01*
X71629284Y-44162723D01*
X71629276Y-44162734D01*
X71538808Y-44301206D01*
X71485662Y-44346562D01*
X71416431Y-44355986D01*
X71353095Y-44326484D01*
X71331192Y-44301206D01*
X71255049Y-44184661D01*
X71240722Y-44162732D01*
X71240719Y-44162729D01*
X71240715Y-44162723D01*
X71088243Y-43997097D01*
X71088238Y-43997092D01*
X70910577Y-43858812D01*
X70910572Y-43858808D01*
X70712580Y-43751661D01*
X70712577Y-43751659D01*
X70712574Y-43751658D01*
X70712571Y-43751657D01*
X70712569Y-43751656D01*
X70499637Y-43678556D01*
X70277569Y-43641500D01*
X70052431Y-43641500D01*
X69830362Y-43678556D01*
X69617430Y-43751656D01*
X69617419Y-43751661D01*
X69419427Y-43858808D01*
X69419422Y-43858812D01*
X69241761Y-43997092D01*
X69241756Y-43997097D01*
X69089284Y-44162723D01*
X69089276Y-44162734D01*
X68998808Y-44301206D01*
X68945662Y-44346562D01*
X68876431Y-44355986D01*
X68813095Y-44326484D01*
X68791192Y-44301206D01*
X68715049Y-44184661D01*
X68700722Y-44162732D01*
X68700719Y-44162729D01*
X68700715Y-44162723D01*
X68548243Y-43997097D01*
X68548238Y-43997092D01*
X68370577Y-43858812D01*
X68370572Y-43858808D01*
X68172580Y-43751661D01*
X68172577Y-43751659D01*
X68172574Y-43751658D01*
X68172571Y-43751657D01*
X68172569Y-43751656D01*
X67959637Y-43678556D01*
X67737569Y-43641500D01*
X67512431Y-43641500D01*
X67290362Y-43678556D01*
X67077430Y-43751656D01*
X67077419Y-43751661D01*
X66879427Y-43858808D01*
X66879422Y-43858812D01*
X66701761Y-43997092D01*
X66701756Y-43997097D01*
X66549284Y-44162723D01*
X66549276Y-44162734D01*
X66458808Y-44301206D01*
X66405662Y-44346562D01*
X66336431Y-44355986D01*
X66273095Y-44326484D01*
X66251192Y-44301206D01*
X66175049Y-44184661D01*
X66160722Y-44162732D01*
X66160719Y-44162729D01*
X66160715Y-44162723D01*
X66008243Y-43997097D01*
X66008238Y-43997092D01*
X65830577Y-43858812D01*
X65830572Y-43858808D01*
X65632580Y-43751661D01*
X65632577Y-43751659D01*
X65632574Y-43751658D01*
X65632571Y-43751657D01*
X65632569Y-43751656D01*
X65419637Y-43678556D01*
X65197569Y-43641500D01*
X64972431Y-43641500D01*
X64750362Y-43678556D01*
X64537430Y-43751656D01*
X64537419Y-43751661D01*
X64339427Y-43858808D01*
X64339422Y-43858812D01*
X64161761Y-43997092D01*
X64161756Y-43997097D01*
X64009284Y-44162723D01*
X64009276Y-44162734D01*
X63915251Y-44306650D01*
X63862105Y-44352007D01*
X63792873Y-44361430D01*
X63729538Y-44331928D01*
X63709868Y-44309951D01*
X63583113Y-44128926D01*
X63583108Y-44128920D01*
X63416082Y-43961894D01*
X63222578Y-43826399D01*
X63008492Y-43726570D01*
X63008486Y-43726567D01*
X62795000Y-43669364D01*
X62795000Y-44564498D01*
X62687315Y-44515320D01*
X62580763Y-44500000D01*
X62509237Y-44500000D01*
X62402685Y-44515320D01*
X62295000Y-44564498D01*
X62295000Y-43669364D01*
X62294999Y-43669364D01*
X62081513Y-43726567D01*
X62081507Y-43726570D01*
X61867422Y-43826399D01*
X61867420Y-43826400D01*
X61673926Y-43961886D01*
X61673920Y-43961891D01*
X61506891Y-44128920D01*
X61506886Y-44128926D01*
X61371400Y-44322420D01*
X61371399Y-44322422D01*
X61271570Y-44536507D01*
X61271567Y-44536513D01*
X61214364Y-44749999D01*
X61214364Y-44750000D01*
X62111314Y-44750000D01*
X62085507Y-44790156D01*
X62045000Y-44928111D01*
X62045000Y-45071889D01*
X62085507Y-45209844D01*
X62111314Y-45250000D01*
X61214364Y-45250000D01*
X61271567Y-45463486D01*
X61271570Y-45463492D01*
X61371399Y-45677578D01*
X61506894Y-45871082D01*
X61673917Y-46038105D01*
X61854802Y-46164763D01*
X61898427Y-46219340D01*
X61905619Y-46288839D01*
X61874097Y-46351193D01*
X61842697Y-46375392D01*
X61799427Y-46398809D01*
X61799422Y-46398812D01*
X61621761Y-46537092D01*
X61621756Y-46537097D01*
X61469284Y-46702723D01*
X61469276Y-46702734D01*
X61346140Y-46891207D01*
X61255703Y-47097385D01*
X61200436Y-47315628D01*
X61200434Y-47315640D01*
X61181844Y-47539994D01*
X61181844Y-47540005D01*
X61200434Y-47764359D01*
X61200436Y-47764371D01*
X61255703Y-47982614D01*
X61346140Y-48188792D01*
X61469276Y-48377265D01*
X61469284Y-48377276D01*
X61614488Y-48535007D01*
X61621760Y-48542906D01*
X61799424Y-48681189D01*
X61799425Y-48681189D01*
X61799427Y-48681191D01*
X61848874Y-48707950D01*
X61997426Y-48788342D01*
X62210365Y-48861444D01*
X62432431Y-48898500D01*
X62657569Y-48898500D01*
X62879635Y-48861444D01*
X63092574Y-48788342D01*
X63290576Y-48681189D01*
X63468240Y-48542906D01*
X63620722Y-48377268D01*
X63711193Y-48238790D01*
X63764338Y-48193437D01*
X63833569Y-48184013D01*
X63896905Y-48213515D01*
X63918804Y-48238787D01*
X64009278Y-48377268D01*
X64009283Y-48377273D01*
X64009284Y-48377276D01*
X64154488Y-48535007D01*
X64161760Y-48542906D01*
X64339424Y-48681189D01*
X64339425Y-48681189D01*
X64339427Y-48681191D01*
X64388874Y-48707950D01*
X64537426Y-48788342D01*
X64750365Y-48861444D01*
X64972431Y-48898500D01*
X65197569Y-48898500D01*
X65419635Y-48861444D01*
X65632574Y-48788342D01*
X65830576Y-48681189D01*
X66008240Y-48542906D01*
X66160722Y-48377268D01*
X66251193Y-48238791D01*
X66304336Y-48193437D01*
X66373567Y-48184013D01*
X66436903Y-48213515D01*
X66458807Y-48238793D01*
X66549276Y-48377265D01*
X66549284Y-48377276D01*
X66694488Y-48535007D01*
X66701760Y-48542906D01*
X66879424Y-48681189D01*
X66879425Y-48681189D01*
X66879427Y-48681191D01*
X66928874Y-48707950D01*
X67077426Y-48788342D01*
X67290365Y-48861444D01*
X67512431Y-48898500D01*
X67737569Y-48898500D01*
X67959635Y-48861444D01*
X68172574Y-48788342D01*
X68370576Y-48681189D01*
X68548240Y-48542906D01*
X68700722Y-48377268D01*
X68791193Y-48238790D01*
X68844338Y-48193437D01*
X68913569Y-48184013D01*
X68976905Y-48213515D01*
X68998804Y-48238787D01*
X69089278Y-48377268D01*
X69089283Y-48377273D01*
X69089284Y-48377276D01*
X69234488Y-48535007D01*
X69241760Y-48542906D01*
X69419424Y-48681189D01*
X69419425Y-48681189D01*
X69419427Y-48681191D01*
X69468874Y-48707950D01*
X69617426Y-48788342D01*
X69830365Y-48861444D01*
X70052431Y-48898500D01*
X70277569Y-48898500D01*
X70499635Y-48861444D01*
X70712574Y-48788342D01*
X70910576Y-48681189D01*
X71088240Y-48542906D01*
X71240722Y-48377268D01*
X71331193Y-48238791D01*
X71384336Y-48193437D01*
X71453567Y-48184013D01*
X71516903Y-48213515D01*
X71538807Y-48238793D01*
X71629276Y-48377265D01*
X71629284Y-48377276D01*
X71774488Y-48535007D01*
X71781760Y-48542906D01*
X71959424Y-48681189D01*
X71959425Y-48681189D01*
X71959427Y-48681191D01*
X72008874Y-48707950D01*
X72157426Y-48788342D01*
X72370365Y-48861444D01*
X72592431Y-48898500D01*
X72817569Y-48898500D01*
X73039635Y-48861444D01*
X73252574Y-48788342D01*
X73450576Y-48681189D01*
X73628240Y-48542906D01*
X73780722Y-48377268D01*
X73871193Y-48238790D01*
X73924338Y-48193437D01*
X73993569Y-48184013D01*
X74056905Y-48213515D01*
X74078804Y-48238787D01*
X74169278Y-48377268D01*
X74169283Y-48377273D01*
X74169284Y-48377276D01*
X74314488Y-48535007D01*
X74321760Y-48542906D01*
X74499424Y-48681189D01*
X74499425Y-48681189D01*
X74499427Y-48681191D01*
X74548874Y-48707950D01*
X74697426Y-48788342D01*
X74910365Y-48861444D01*
X75132431Y-48898500D01*
X75357569Y-48898500D01*
X75579635Y-48861444D01*
X75792574Y-48788342D01*
X75990576Y-48681189D01*
X76005320Y-48669712D01*
X76070313Y-48644068D01*
X76138854Y-48657633D01*
X76179859Y-48692076D01*
X76192040Y-48707950D01*
X76192042Y-48707952D01*
X76192045Y-48707955D01*
X76209364Y-48721244D01*
X76218818Y-48728499D01*
X76224913Y-48733843D01*
X76666154Y-49175084D01*
X76671495Y-49181174D01*
X76671937Y-49181750D01*
X76692042Y-49207952D01*
X76692043Y-49207953D01*
X76692045Y-49207955D01*
X76712921Y-49223974D01*
X76754124Y-49280400D01*
X76758279Y-49350146D01*
X76724068Y-49411067D01*
X76707292Y-49423509D01*
X76707720Y-49424098D01*
X76663072Y-49456534D01*
X76658192Y-49459740D01*
X76617400Y-49483865D01*
X76602898Y-49498368D01*
X76588108Y-49511000D01*
X76571515Y-49523055D01*
X76571512Y-49523058D01*
X76541301Y-49559576D01*
X76537369Y-49563897D01*
X76521084Y-49580181D01*
X76459761Y-49613666D01*
X76433403Y-49616500D01*
X76132797Y-49616500D01*
X76132780Y-49616501D01*
X76033184Y-49626676D01*
X75871810Y-49680150D01*
X75871805Y-49680152D01*
X75727111Y-49769401D01*
X75694169Y-49802343D01*
X75632846Y-49835828D01*
X75563154Y-49830842D01*
X75518808Y-49802342D01*
X75492580Y-49776114D01*
X75349577Y-49687908D01*
X75349572Y-49687906D01*
X75190083Y-49635057D01*
X75091650Y-49625000D01*
X75075000Y-49625000D01*
X75075000Y-51561138D01*
X75062500Y-51603707D01*
X75062500Y-53574999D01*
X75079136Y-53574999D01*
X75079152Y-53574998D01*
X75177583Y-53564943D01*
X75337072Y-53512093D01*
X75337077Y-53512091D01*
X75480082Y-53423884D01*
X75506305Y-53397660D01*
X75567627Y-53364173D01*
X75637319Y-53369155D01*
X75681670Y-53397657D01*
X75714613Y-53430600D01*
X75859308Y-53519849D01*
X76020686Y-53573324D01*
X76120289Y-53583500D01*
X76654710Y-53583499D01*
X76754314Y-53573324D01*
X76832738Y-53547336D01*
X76902563Y-53544935D01*
X76962606Y-53580666D01*
X76978472Y-53601922D01*
X77002492Y-53642538D01*
X77002498Y-53642546D01*
X77117453Y-53757501D01*
X77117456Y-53757503D01*
X77117459Y-53757506D01*
X77257404Y-53840269D01*
X77309447Y-53855389D01*
X77413526Y-53885627D01*
X77413528Y-53885627D01*
X77413534Y-53885629D01*
X77436332Y-53887423D01*
X77450008Y-53888500D01*
X77450010Y-53888499D01*
X77450011Y-53888500D01*
X77824512Y-53888499D01*
X77949989Y-53888499D01*
X77952649Y-53888289D01*
X77986466Y-53885629D01*
X78142596Y-53840269D01*
X78282541Y-53757506D01*
X78317755Y-53722291D01*
X78379076Y-53688806D01*
X78389253Y-53687033D01*
X78389998Y-53686934D01*
X78390000Y-53686935D01*
X78413016Y-53683904D01*
X78425558Y-53682254D01*
X78425578Y-53682252D01*
X78427492Y-53682000D01*
X78539322Y-53667277D01*
X78678468Y-53609641D01*
X78689687Y-53601032D01*
X78767954Y-53540976D01*
X78767955Y-53540974D01*
X78797955Y-53517955D01*
X78818503Y-53491174D01*
X78823845Y-53485083D01*
X79508319Y-52800610D01*
X79569642Y-52767125D01*
X79639334Y-52772109D01*
X79695267Y-52813981D01*
X79719684Y-52879445D01*
X79720000Y-52888291D01*
X79720000Y-54058367D01*
X79719469Y-54066469D01*
X79715065Y-54099918D01*
X79719521Y-54133775D01*
X79719523Y-54133790D01*
X79733375Y-54239008D01*
X79734722Y-54249241D01*
X79775647Y-54348042D01*
X79792359Y-54388388D01*
X79860303Y-54476935D01*
X79872838Y-54493270D01*
X79888993Y-54514324D01*
X79886921Y-54515913D01*
X79914198Y-54565867D01*
X79909214Y-54635559D01*
X79867342Y-54691492D01*
X79827628Y-54711301D01*
X79762902Y-54730106D01*
X79762901Y-54730106D01*
X79737271Y-54745264D01*
X79669547Y-54762446D01*
X79611028Y-54745262D01*
X79598694Y-54737967D01*
X79598690Y-54737966D01*
X79452501Y-54695493D01*
X79452500Y-54695494D01*
X79452500Y-54985931D01*
X79435233Y-55049050D01*
X79422608Y-55070397D01*
X79422604Y-55070407D01*
X79376894Y-55227741D01*
X79376893Y-55227747D01*
X79374000Y-55264513D01*
X79374000Y-55547516D01*
X79354315Y-55614555D01*
X79301511Y-55660310D01*
X79297453Y-55662077D01*
X79205031Y-55700359D01*
X79173732Y-55724376D01*
X79108563Y-55749570D01*
X79098246Y-55750000D01*
X78496308Y-55750000D01*
X78429269Y-55730315D01*
X78395888Y-55691792D01*
X78394541Y-55692801D01*
X78319690Y-55592813D01*
X78319685Y-55592808D01*
X78204593Y-55506649D01*
X78204586Y-55506645D01*
X78069879Y-55456403D01*
X78069872Y-55456401D01*
X78010344Y-55450000D01*
X77853716Y-55450000D01*
X77786677Y-55430315D01*
X77740922Y-55377511D01*
X77730978Y-55308353D01*
X77734639Y-55291405D01*
X77746668Y-55249999D01*
X78423709Y-55249999D01*
X78423710Y-55250000D01*
X78952500Y-55250000D01*
X78952500Y-54695494D01*
X78952498Y-54695493D01*
X78806309Y-54737965D01*
X78806306Y-54737967D01*
X78667125Y-54820278D01*
X78667116Y-54820285D01*
X78552785Y-54934616D01*
X78552778Y-54934625D01*
X78470468Y-55073804D01*
X78470466Y-55073809D01*
X78425355Y-55229081D01*
X78425354Y-55229087D01*
X78423709Y-55249999D01*
X77746668Y-55249999D01*
X77769645Y-55170910D01*
X77771290Y-55150000D01*
X76945000Y-55150000D01*
X76877961Y-55130315D01*
X76832206Y-55077511D01*
X76821000Y-55026000D01*
X76821000Y-54664513D01*
X76819858Y-54650000D01*
X77242500Y-54650000D01*
X77771290Y-54650000D01*
X77769645Y-54629089D01*
X77724531Y-54473804D01*
X77642221Y-54334625D01*
X77642214Y-54334616D01*
X77527883Y-54220285D01*
X77527874Y-54220278D01*
X77388693Y-54137967D01*
X77388690Y-54137965D01*
X77242501Y-54095493D01*
X77242500Y-54095494D01*
X77242500Y-54650000D01*
X76819858Y-54650000D01*
X76818106Y-54627747D01*
X76818105Y-54627741D01*
X76778350Y-54490903D01*
X76772394Y-54470403D01*
X76772392Y-54470399D01*
X76772391Y-54470397D01*
X76759767Y-54449050D01*
X76742500Y-54385931D01*
X76742500Y-54095494D01*
X76742498Y-54095493D01*
X76596309Y-54137965D01*
X76596306Y-54137967D01*
X76583966Y-54145265D01*
X76516242Y-54162445D01*
X76457729Y-54145264D01*
X76432099Y-54130107D01*
X76432092Y-54130104D01*
X76274758Y-54084394D01*
X76274752Y-54084393D01*
X76237987Y-54081500D01*
X76237984Y-54081500D01*
X75827016Y-54081500D01*
X75827013Y-54081500D01*
X75790247Y-54084393D01*
X75790241Y-54084394D01*
X75632907Y-54130104D01*
X75632902Y-54130106D01*
X75491873Y-54213510D01*
X75491865Y-54213516D01*
X75376016Y-54329365D01*
X75376010Y-54329373D01*
X75292606Y-54470402D01*
X75292604Y-54470407D01*
X75246894Y-54627741D01*
X75246893Y-54627747D01*
X75244000Y-54664513D01*
X75244000Y-54738209D01*
X75224315Y-54805248D01*
X75210394Y-54823090D01*
X75206074Y-54827692D01*
X75184866Y-54848900D01*
X75184863Y-54848902D01*
X75180508Y-54854516D01*
X75176718Y-54858953D01*
X75144282Y-54893494D01*
X75144281Y-54893496D01*
X75134400Y-54911468D01*
X75123725Y-54927719D01*
X75111152Y-54943929D01*
X75111149Y-54943933D01*
X75092327Y-54987428D01*
X75089757Y-54992674D01*
X75066930Y-55034197D01*
X75061829Y-55054064D01*
X75055530Y-55072462D01*
X75047384Y-55091287D01*
X75047381Y-55091296D01*
X75039969Y-55138098D01*
X75038784Y-55143820D01*
X75027000Y-55189711D01*
X75027000Y-55210225D01*
X75025472Y-55229624D01*
X75022265Y-55249879D01*
X75024777Y-55276453D01*
X75026725Y-55297059D01*
X75027000Y-55302897D01*
X75027000Y-55334426D01*
X75007315Y-55401465D01*
X74954511Y-55447220D01*
X74946335Y-55450607D01*
X74816295Y-55499111D01*
X74699239Y-55586739D01*
X74611611Y-55703795D01*
X74560511Y-55840795D01*
X74560511Y-55840797D01*
X74554000Y-55901345D01*
X74554000Y-57398654D01*
X74560511Y-57459202D01*
X74560511Y-57459204D01*
X74611612Y-57596206D01*
X74676421Y-57682781D01*
X74700838Y-57748245D01*
X74685986Y-57816518D01*
X74676421Y-57831401D01*
X74619149Y-57907907D01*
X74619145Y-57907913D01*
X74568903Y-58042620D01*
X74568901Y-58042627D01*
X74562500Y-58102155D01*
X74562500Y-58600000D01*
X75788500Y-58600000D01*
X75855539Y-58619685D01*
X75901294Y-58672489D01*
X75912500Y-58724000D01*
X75912500Y-58976000D01*
X75892815Y-59043039D01*
X75840011Y-59088794D01*
X75788500Y-59100000D01*
X74562500Y-59100000D01*
X74562500Y-59597844D01*
X74568901Y-59657372D01*
X74568903Y-59657379D01*
X74619145Y-59792086D01*
X74619149Y-59792093D01*
X74705309Y-59907187D01*
X74705312Y-59907190D01*
X74820406Y-59993350D01*
X74820413Y-59993354D01*
X74955120Y-60043596D01*
X74955127Y-60043598D01*
X75014655Y-60049999D01*
X75014672Y-60050000D01*
X75171284Y-60050000D01*
X75238323Y-60069685D01*
X75284078Y-60122489D01*
X75294022Y-60191647D01*
X75290361Y-60208595D01*
X75255354Y-60329089D01*
X75253709Y-60349999D01*
X75253710Y-60350000D01*
X76080000Y-60350000D01*
X76147039Y-60369685D01*
X76192794Y-60422489D01*
X76204000Y-60474000D01*
X76204000Y-60726000D01*
X76184315Y-60793039D01*
X76131511Y-60838794D01*
X76080000Y-60850000D01*
X75253710Y-60850000D01*
X75255354Y-60870910D01*
X75300468Y-61026195D01*
X75382778Y-61165374D01*
X75382785Y-61165383D01*
X75497116Y-61279714D01*
X75497122Y-61279718D01*
X75526796Y-61297268D01*
X75574479Y-61348338D01*
X75586982Y-61417079D01*
X75560336Y-61481669D01*
X75503001Y-61521599D01*
X75463674Y-61528000D01*
X74388292Y-61528000D01*
X74321253Y-61508315D01*
X74300611Y-61491681D01*
X69543319Y-56734388D01*
X69509834Y-56673065D01*
X69507000Y-56646707D01*
X69507000Y-55708346D01*
X69526685Y-55641307D01*
X69579489Y-55595552D01*
X69648647Y-55585608D01*
X69694116Y-55601611D01*
X69791399Y-55659145D01*
X69791401Y-55659145D01*
X69791402Y-55659146D01*
X69951164Y-55705561D01*
X69951167Y-55705561D01*
X69951169Y-55705562D01*
X69960501Y-55706296D01*
X69988495Y-55708500D01*
X69988498Y-55708500D01*
X70421505Y-55708500D01*
X70443899Y-55706737D01*
X70458831Y-55705562D01*
X70458833Y-55705561D01*
X70458835Y-55705561D01*
X70506228Y-55691792D01*
X70618601Y-55659145D01*
X70761807Y-55574453D01*
X70879453Y-55456807D01*
X70964145Y-55313601D01*
X70991835Y-55218289D01*
X71029439Y-55159407D01*
X71092911Y-55130200D01*
X71124792Y-55129667D01*
X71176419Y-55135484D01*
X71199999Y-55138141D01*
X71200000Y-55138141D01*
X71200004Y-55138141D01*
X71364246Y-55119635D01*
X71364247Y-55119634D01*
X71364252Y-55119634D01*
X71520267Y-55065042D01*
X71660223Y-54977102D01*
X71777102Y-54860223D01*
X71865042Y-54720267D01*
X71919634Y-54564252D01*
X71925260Y-54514324D01*
X71938141Y-54400003D01*
X71938141Y-54399996D01*
X71919635Y-54235753D01*
X71919634Y-54235751D01*
X71919634Y-54235748D01*
X71865042Y-54079733D01*
X71853509Y-54061379D01*
X71822797Y-54012500D01*
X71777102Y-53939777D01*
X71660223Y-53822898D01*
X71618693Y-53796803D01*
X71520268Y-53734958D01*
X71370759Y-53682643D01*
X71364252Y-53680366D01*
X71364251Y-53680365D01*
X71364246Y-53680364D01*
X71200004Y-53661859D01*
X71199996Y-53661859D01*
X71124793Y-53670332D01*
X71055971Y-53658277D01*
X71004592Y-53610928D01*
X70991834Y-53581707D01*
X70989885Y-53574998D01*
X70985363Y-53559432D01*
X70985562Y-53489565D01*
X71023504Y-53430895D01*
X71069840Y-53405764D01*
X71157596Y-53380269D01*
X71297541Y-53297506D01*
X71297548Y-53297498D01*
X71298629Y-53296661D01*
X71299644Y-53296262D01*
X71304256Y-53293535D01*
X71304695Y-53294278D01*
X71363663Y-53271119D01*
X71415592Y-53277589D01*
X71535748Y-53319634D01*
X71535752Y-53319634D01*
X71535754Y-53319635D01*
X71699996Y-53338141D01*
X71700000Y-53338141D01*
X71700004Y-53338141D01*
X71864246Y-53319635D01*
X71864247Y-53319634D01*
X71864252Y-53319634D01*
X72020267Y-53265042D01*
X72160223Y-53177102D01*
X72277102Y-53060223D01*
X72365042Y-52920267D01*
X72389629Y-52850000D01*
X73875001Y-52850000D01*
X73875001Y-52904152D01*
X73885056Y-53002583D01*
X73937906Y-53162072D01*
X73937908Y-53162077D01*
X74026114Y-53305080D01*
X74144919Y-53423885D01*
X74287922Y-53512091D01*
X74287927Y-53512093D01*
X74447416Y-53564942D01*
X74545856Y-53574999D01*
X74562500Y-53574998D01*
X74562500Y-52850000D01*
X73875001Y-52850000D01*
X72389629Y-52850000D01*
X72419634Y-52764252D01*
X72421585Y-52746939D01*
X72438141Y-52600003D01*
X72438141Y-52599996D01*
X72419635Y-52435753D01*
X72419634Y-52435751D01*
X72419634Y-52435748D01*
X72389629Y-52350000D01*
X73875000Y-52350000D01*
X74562500Y-52350000D01*
X74562500Y-51638859D01*
X74575000Y-51596289D01*
X74575000Y-50850000D01*
X73887501Y-50850000D01*
X73887501Y-50904152D01*
X73897556Y-51002583D01*
X73950406Y-51162072D01*
X73950408Y-51162077D01*
X74038614Y-51305080D01*
X74157419Y-51423885D01*
X74265589Y-51490605D01*
X74312313Y-51542553D01*
X74323536Y-51611516D01*
X74295692Y-51675598D01*
X74265590Y-51701682D01*
X74144921Y-51776112D01*
X74026114Y-51894919D01*
X73937908Y-52037922D01*
X73937906Y-52037927D01*
X73885057Y-52197416D01*
X73875000Y-52295849D01*
X73875000Y-52350000D01*
X72389629Y-52350000D01*
X72365042Y-52279733D01*
X72277102Y-52139777D01*
X72160223Y-52022898D01*
X72105479Y-51988500D01*
X72020268Y-51934958D01*
X71864246Y-51880364D01*
X71700004Y-51861859D01*
X71699996Y-51861859D01*
X71535753Y-51880364D01*
X71415595Y-51922409D01*
X71345816Y-51925970D01*
X71304451Y-51906134D01*
X71304256Y-51906465D01*
X71300462Y-51904221D01*
X71298645Y-51903350D01*
X71297541Y-51902493D01*
X71157594Y-51819730D01*
X71157591Y-51819729D01*
X71001473Y-51774372D01*
X71001460Y-51774370D01*
X70964992Y-51771500D01*
X70964989Y-51771500D01*
X70664960Y-51771500D01*
X70565011Y-51771501D01*
X70565012Y-51771501D01*
X70528533Y-51774371D01*
X70372408Y-51819729D01*
X70372405Y-51819730D01*
X70318120Y-51851834D01*
X70250396Y-51869015D01*
X70191880Y-51851834D01*
X70137594Y-51819730D01*
X70137591Y-51819729D01*
X69981472Y-51774372D01*
X69981460Y-51774370D01*
X69944992Y-51771500D01*
X69944989Y-51771500D01*
X69645056Y-51771500D01*
X69545011Y-51771501D01*
X69545012Y-51771501D01*
X69508533Y-51774371D01*
X69508532Y-51774371D01*
X69352408Y-51819729D01*
X69352405Y-51819730D01*
X69230515Y-51891816D01*
X69162791Y-51908999D01*
X69126440Y-51902126D01*
X69064249Y-51880365D01*
X68900003Y-51861859D01*
X68899996Y-51861859D01*
X68735753Y-51880364D01*
X68579731Y-51934958D01*
X68439776Y-52022898D01*
X68387681Y-52074994D01*
X68326358Y-52108479D01*
X68256666Y-52103495D01*
X68212319Y-52074994D01*
X68160223Y-52022898D01*
X68020268Y-51934958D01*
X67864246Y-51880364D01*
X67700004Y-51861859D01*
X67699996Y-51861859D01*
X67535753Y-51880364D01*
X67379731Y-51934958D01*
X67239776Y-52022898D01*
X67122898Y-52139776D01*
X67034958Y-52279731D01*
X66980364Y-52435753D01*
X66961859Y-52599996D01*
X66961859Y-52600003D01*
X66980364Y-52764244D01*
X66980365Y-52764246D01*
X66980366Y-52764252D01*
X67034958Y-52920267D01*
X67045494Y-52937034D01*
X67064500Y-53003007D01*
X67064499Y-53084675D01*
X67044814Y-53151714D01*
X66992009Y-53197468D01*
X66922850Y-53207411D01*
X66877378Y-53191405D01*
X66805196Y-53148717D01*
X66805193Y-53148716D01*
X66647494Y-53102900D01*
X66647497Y-53102900D01*
X66645000Y-53102703D01*
X66645000Y-55697294D01*
X66645001Y-55697295D01*
X66647486Y-55697100D01*
X66805198Y-55651281D01*
X66946553Y-55567684D01*
X66947382Y-55567042D01*
X66948150Y-55566740D01*
X66953271Y-55563712D01*
X66953759Y-55564537D01*
X67012416Y-55541501D01*
X67080934Y-55555174D01*
X67101526Y-55570314D01*
X67102027Y-55569670D01*
X67108196Y-55574455D01*
X67154120Y-55601614D01*
X67251399Y-55659145D01*
X67293530Y-55671385D01*
X67411164Y-55705561D01*
X67411167Y-55705561D01*
X67411169Y-55705562D01*
X67420501Y-55706296D01*
X67448495Y-55708500D01*
X67448498Y-55708500D01*
X67881505Y-55708500D01*
X67903899Y-55706737D01*
X67918831Y-55705562D01*
X67918833Y-55705561D01*
X67918835Y-55705561D01*
X67966228Y-55691792D01*
X68078601Y-55659145D01*
X68175882Y-55601612D01*
X68243602Y-55584431D01*
X68309865Y-55606591D01*
X68353628Y-55661056D01*
X68363000Y-55708346D01*
X68363000Y-56893447D01*
X68362469Y-56901544D01*
X68362313Y-56902732D01*
X68358211Y-56933894D01*
X68358065Y-56935000D01*
X68358164Y-56935753D01*
X68362521Y-56968855D01*
X68362523Y-56968870D01*
X68363000Y-56972492D01*
X68376619Y-57075935D01*
X68377374Y-57081671D01*
X68377723Y-57084323D01*
X68435359Y-57223469D01*
X68486186Y-57289709D01*
X68527044Y-57342954D01*
X68553818Y-57363499D01*
X68559913Y-57368843D01*
X69489091Y-58298021D01*
X70407389Y-59216319D01*
X70440874Y-59277642D01*
X70435890Y-59347334D01*
X70394018Y-59403267D01*
X70328554Y-59427684D01*
X70319708Y-59428000D01*
X67141561Y-59428000D01*
X67133462Y-59427469D01*
X67113338Y-59424820D01*
X67100001Y-59423064D01*
X67099999Y-59423064D01*
X66950678Y-59442722D01*
X66852388Y-59483436D01*
X66811530Y-59500359D01*
X66763219Y-59537430D01*
X66755896Y-59543050D01*
X66743176Y-59552811D01*
X66722417Y-59568740D01*
X66692044Y-59592045D01*
X66671500Y-59618818D01*
X66666148Y-59624920D01*
X66019920Y-60271149D01*
X66013817Y-60276500D01*
X65996520Y-60289774D01*
X65987045Y-60297045D01*
X65964025Y-60327044D01*
X65964024Y-60327046D01*
X65957953Y-60334958D01*
X65944795Y-60352105D01*
X65909542Y-60383350D01*
X65838190Y-60425548D01*
X65720551Y-60543187D01*
X65720544Y-60543196D01*
X65635855Y-60686398D01*
X65635853Y-60686403D01*
X65589438Y-60846164D01*
X65589437Y-60846170D01*
X65586500Y-60883495D01*
X65586500Y-62316505D01*
X65589437Y-62353829D01*
X65589438Y-62353835D01*
X65635853Y-62513596D01*
X65635855Y-62513601D01*
X65720544Y-62656803D01*
X65720551Y-62656812D01*
X65838187Y-62774448D01*
X65838196Y-62774455D01*
X65857055Y-62785608D01*
X65981399Y-62859145D01*
X66023530Y-62871385D01*
X66141164Y-62905561D01*
X66141167Y-62905561D01*
X66141169Y-62905562D01*
X66150501Y-62906296D01*
X66178495Y-62908500D01*
X66178498Y-62908500D01*
X66611505Y-62908500D01*
X66633899Y-62906737D01*
X66648831Y-62905562D01*
X66648833Y-62905561D01*
X66648835Y-62905561D01*
X66732755Y-62881180D01*
X66808601Y-62859145D01*
X66905879Y-62801614D01*
X66973602Y-62784432D01*
X67039864Y-62806592D01*
X67083628Y-62861058D01*
X67092999Y-62908347D01*
X67092999Y-63923447D01*
X67092468Y-63931546D01*
X67088065Y-63964999D01*
X67092521Y-63998855D01*
X67092523Y-63998870D01*
X67106042Y-64101552D01*
X67107723Y-64114321D01*
X67107724Y-64114325D01*
X67165358Y-64253467D01*
X67168642Y-64257747D01*
X67233359Y-64342088D01*
X67257045Y-64372955D01*
X67283824Y-64393503D01*
X67289921Y-64398851D01*
X68166143Y-65275073D01*
X68171496Y-65281176D01*
X68192043Y-65307953D01*
X68192045Y-65307955D01*
X68220756Y-65329985D01*
X68220772Y-65329999D01*
X68253879Y-65355402D01*
X68311532Y-65399641D01*
X68450678Y-65457277D01*
X68582627Y-65474648D01*
X68599999Y-65476936D01*
X68600000Y-65476936D01*
X68600001Y-65476936D01*
X68619411Y-65474380D01*
X68633459Y-65472530D01*
X68641559Y-65472000D01*
X77858447Y-65472000D01*
X77866545Y-65472530D01*
X77886891Y-65475209D01*
X77899999Y-65476935D01*
X77900000Y-65476935D01*
X77935560Y-65472253D01*
X77935583Y-65472251D01*
X77937489Y-65472000D01*
X77937492Y-65472000D01*
X78049322Y-65457277D01*
X78188468Y-65399641D01*
X78197334Y-65392838D01*
X78277954Y-65330976D01*
X78277953Y-65330976D01*
X78289135Y-65322397D01*
X78289140Y-65322392D01*
X78307953Y-65307957D01*
X78307955Y-65307955D01*
X78328503Y-65281174D01*
X78333845Y-65275083D01*
X79049097Y-64559831D01*
X79110418Y-64526348D01*
X79122876Y-64524295D01*
X79164252Y-64519634D01*
X79164254Y-64519633D01*
X79164259Y-64519632D01*
X79273324Y-64481468D01*
X79320267Y-64465042D01*
X79460223Y-64377102D01*
X79577102Y-64260223D01*
X79665042Y-64120267D01*
X79719634Y-63964252D01*
X79720535Y-63956260D01*
X79730812Y-63865042D01*
X79738141Y-63800000D01*
X79736608Y-63786400D01*
X79748660Y-63717581D01*
X79796007Y-63666200D01*
X79863617Y-63648573D01*
X79930023Y-63670297D01*
X79947509Y-63684833D01*
X80039777Y-63777102D01*
X80112010Y-63822489D01*
X80179726Y-63865038D01*
X80179733Y-63865042D01*
X80335748Y-63919634D01*
X80335751Y-63919634D01*
X80335753Y-63919635D01*
X80499996Y-63938141D01*
X80500000Y-63938141D01*
X80500004Y-63938141D01*
X80664246Y-63919635D01*
X80664247Y-63919634D01*
X80664252Y-63919634D01*
X80820267Y-63865042D01*
X80820270Y-63865039D01*
X80820274Y-63865038D01*
X80942647Y-63788146D01*
X81009883Y-63769145D01*
X81076718Y-63789512D01*
X81092862Y-63808531D01*
X81066253Y-63775414D01*
X81058884Y-63705934D01*
X81075888Y-63662154D01*
X81077100Y-63660224D01*
X81077102Y-63660223D01*
X81165042Y-63520267D01*
X81192077Y-63443006D01*
X81219632Y-63364259D01*
X81219633Y-63364255D01*
X81219633Y-63364254D01*
X81219634Y-63364252D01*
X81224294Y-63322891D01*
X81251359Y-63258480D01*
X81259823Y-63249105D01*
X81590320Y-62918609D01*
X81651642Y-62885125D01*
X81721334Y-62890109D01*
X81777267Y-62931981D01*
X81801684Y-62997445D01*
X81802000Y-63006291D01*
X81802000Y-63309312D01*
X81782315Y-63376351D01*
X81765682Y-63396992D01*
X81722898Y-63439776D01*
X81634957Y-63579732D01*
X81634956Y-63579736D01*
X81615737Y-63634661D01*
X81575016Y-63691437D01*
X81533291Y-63712782D01*
X81370408Y-63760104D01*
X81370401Y-63760106D01*
X81244003Y-63834858D01*
X81176279Y-63852041D01*
X81111367Y-63830333D01*
X81121933Y-63842780D01*
X81131171Y-63912036D01*
X81115351Y-63956260D01*
X81030106Y-64100401D01*
X81030104Y-64100407D01*
X80984394Y-64257741D01*
X80984393Y-64257747D01*
X80981500Y-64294513D01*
X80981500Y-64705487D01*
X80984393Y-64742252D01*
X80984394Y-64742258D01*
X81030104Y-64899592D01*
X81030107Y-64899599D01*
X81045264Y-64925229D01*
X81062445Y-64992953D01*
X81045265Y-65051466D01*
X81037968Y-65063804D01*
X80995496Y-65210000D01*
X81285933Y-65210000D01*
X81349053Y-65227267D01*
X81370403Y-65239894D01*
X81395785Y-65247268D01*
X81527741Y-65285605D01*
X81527744Y-65285605D01*
X81527746Y-65285606D01*
X81536938Y-65286329D01*
X81564513Y-65288500D01*
X81926000Y-65288500D01*
X81993039Y-65308185D01*
X82038794Y-65360989D01*
X82050000Y-65412500D01*
X82050000Y-66238790D01*
X82063990Y-66251723D01*
X82083756Y-66255876D01*
X82133512Y-66304928D01*
X82149046Y-66361231D01*
X82150162Y-66396723D01*
X82150163Y-66396731D01*
X82156112Y-66417209D01*
X82160055Y-66436250D01*
X82162730Y-66457418D01*
X82162733Y-66457432D01*
X82180683Y-66502765D01*
X82182576Y-66508295D01*
X82196175Y-66555103D01*
X82196175Y-66555104D01*
X82207030Y-66573457D01*
X82215590Y-66590930D01*
X82217018Y-66594534D01*
X82223444Y-66610767D01*
X82252096Y-66650203D01*
X82255304Y-66655087D01*
X82280123Y-66697053D01*
X82280131Y-66697064D01*
X82295209Y-66712142D01*
X82307844Y-66726935D01*
X82320382Y-66744191D01*
X82320384Y-66744194D01*
X82357949Y-66775270D01*
X82362260Y-66779192D01*
X82681829Y-67098761D01*
X82991745Y-67408677D01*
X83001839Y-67421275D01*
X83002023Y-67421124D01*
X83006994Y-67427133D01*
X83059624Y-67476557D01*
X83070886Y-67487819D01*
X83104371Y-67549142D01*
X83099387Y-67618834D01*
X83057515Y-67674767D01*
X82992051Y-67699184D01*
X82983205Y-67699500D01*
X62502663Y-67699500D01*
X62385176Y-67697403D01*
X62377451Y-67696781D01*
X62147142Y-67663668D01*
X62129855Y-67659907D01*
X61913969Y-67596518D01*
X61897391Y-67590335D01*
X61692725Y-67496867D01*
X61677197Y-67488388D01*
X61487916Y-67366743D01*
X61473760Y-67356146D01*
X61303712Y-67208800D01*
X61291203Y-67196291D01*
X61143859Y-67026247D01*
X61133257Y-67012084D01*
X61103034Y-66965056D01*
X61011602Y-66822787D01*
X61003129Y-66807268D01*
X61002140Y-66805103D01*
X60909659Y-66602597D01*
X60903480Y-66586030D01*
X60840091Y-66370143D01*
X60836331Y-66352862D01*
X60836330Y-66352856D01*
X60803216Y-66122542D01*
X60802595Y-66114829D01*
X60800500Y-65997304D01*
X60800500Y-65710000D01*
X80995496Y-65710000D01*
X81037968Y-65856195D01*
X81120278Y-65995374D01*
X81120285Y-65995383D01*
X81234616Y-66109714D01*
X81234625Y-66109721D01*
X81373804Y-66192031D01*
X81529089Y-66237145D01*
X81550000Y-66238789D01*
X81550000Y-65710000D01*
X80995496Y-65710000D01*
X60800500Y-65710000D01*
X60800500Y-54650000D01*
X65595000Y-54650000D01*
X65595000Y-55115644D01*
X65597899Y-55152489D01*
X65597900Y-55152495D01*
X65643716Y-55310193D01*
X65643717Y-55310196D01*
X65727314Y-55451552D01*
X65727321Y-55451561D01*
X65843438Y-55567678D01*
X65843447Y-55567685D01*
X65984801Y-55651281D01*
X66142514Y-55697100D01*
X66142511Y-55697100D01*
X66144998Y-55697295D01*
X66145000Y-55697295D01*
X66145000Y-54650000D01*
X65595000Y-54650000D01*
X60800500Y-54650000D01*
X60800500Y-54149999D01*
X65594999Y-54149999D01*
X65595000Y-54150000D01*
X66145000Y-54150000D01*
X66144999Y-53102703D01*
X66142503Y-53102900D01*
X65984806Y-53148716D01*
X65984803Y-53148717D01*
X65843447Y-53232314D01*
X65843438Y-53232321D01*
X65727321Y-53348438D01*
X65727314Y-53348447D01*
X65643717Y-53489803D01*
X65643716Y-53489806D01*
X65597900Y-53647504D01*
X65597899Y-53647510D01*
X65595000Y-53684356D01*
X65594999Y-54149999D01*
X60800500Y-54149999D01*
X60800500Y-50350000D01*
X73887500Y-50350000D01*
X74575000Y-50350000D01*
X74575000Y-49624999D01*
X74558356Y-49625000D01*
X74459915Y-49635057D01*
X74300427Y-49687906D01*
X74300422Y-49687908D01*
X74157419Y-49776114D01*
X74038614Y-49894919D01*
X73950408Y-50037922D01*
X73950406Y-50037927D01*
X73897557Y-50197416D01*
X73887500Y-50295849D01*
X73887500Y-50350000D01*
X60800500Y-50350000D01*
X60800500Y-45002704D01*
X60802595Y-44885164D01*
X60803217Y-44877450D01*
X60808324Y-44841934D01*
X60836331Y-44647136D01*
X60840091Y-44629853D01*
X60867120Y-44537803D01*
X60903482Y-44413963D01*
X60909664Y-44397392D01*
X60926088Y-44361430D01*
X61003133Y-44192722D01*
X61011606Y-44177204D01*
X61133254Y-43987916D01*
X61143848Y-43973763D01*
X61291205Y-43803704D01*
X61303704Y-43791205D01*
X61473770Y-43643842D01*
X61487896Y-43633267D01*
X61677213Y-43511600D01*
X61692713Y-43503137D01*
X61897410Y-43409655D01*
X61913963Y-43403481D01*
X62129857Y-43340090D01*
X62147129Y-43336332D01*
X62377457Y-43303216D01*
X62385168Y-43302595D01*
X62499845Y-43300550D01*
X62502697Y-43300500D01*
X118497296Y-43300500D01*
X118614833Y-43302595D01*
G37*
G04 #@! TD.AperFunction*
G04 #@! TA.AperFunction,Conductor*
G36*
X119293039Y-57444685D02*
G01*
X119338794Y-57497489D01*
X119350000Y-57549000D01*
X119350000Y-58624999D01*
X119398308Y-58624999D01*
X119398322Y-58624998D01*
X119497607Y-58614855D01*
X119658481Y-58561547D01*
X119658492Y-58561542D01*
X119802728Y-58472575D01*
X119802732Y-58472572D01*
X119922573Y-58352731D01*
X119969960Y-58275904D01*
X120021907Y-58229179D01*
X120090870Y-58217956D01*
X120154952Y-58245799D01*
X120193809Y-58303867D01*
X120199499Y-58341000D01*
X120199500Y-65997337D01*
X120197403Y-66114822D01*
X120196781Y-66122547D01*
X120163668Y-66352856D01*
X120159907Y-66370143D01*
X120143261Y-66426836D01*
X120105488Y-66485614D01*
X120041932Y-66514640D01*
X119972774Y-66504697D01*
X119925123Y-66466354D01*
X119912844Y-66450000D01*
X119350000Y-66450000D01*
X119350000Y-66969930D01*
X119385122Y-66967167D01*
X119385128Y-66967166D01*
X119539188Y-66922407D01*
X119539191Y-66922406D01*
X119677285Y-66840738D01*
X119677289Y-66840735D01*
X119700073Y-66817951D01*
X119761396Y-66784465D01*
X119831088Y-66789448D01*
X119887022Y-66831319D01*
X119911440Y-66896783D01*
X119896589Y-66965056D01*
X119892071Y-66972671D01*
X119866743Y-67012082D01*
X119856141Y-67026245D01*
X119708801Y-67196285D01*
X119696291Y-67208795D01*
X119526247Y-67356139D01*
X119512084Y-67366741D01*
X119322797Y-67488390D01*
X119307268Y-67496869D01*
X119102599Y-67590338D01*
X119086022Y-67596521D01*
X118870149Y-67659906D01*
X118852862Y-67663667D01*
X118622543Y-67696781D01*
X118614819Y-67697403D01*
X118497305Y-67699500D01*
X103373732Y-67699500D01*
X103306693Y-67679815D01*
X103260938Y-67627011D01*
X103250994Y-67557853D01*
X103280019Y-67494297D01*
X103284987Y-67489125D01*
X103286439Y-67487369D01*
X103286444Y-67487366D01*
X103317530Y-67449787D01*
X103321444Y-67445486D01*
X104706217Y-66060713D01*
X107880000Y-66060713D01*
X107895418Y-66212338D01*
X107956299Y-66406381D01*
X107956304Y-66406391D01*
X108055005Y-66584215D01*
X108055005Y-66584216D01*
X108187478Y-66738530D01*
X108187479Y-66738531D01*
X108348304Y-66863018D01*
X108530907Y-66952589D01*
X108630000Y-66978244D01*
X108630000Y-66176110D01*
X108654457Y-66215610D01*
X108743962Y-66283201D01*
X108851840Y-66313895D01*
X108963521Y-66303546D01*
X109063922Y-66253552D01*
X109130000Y-66181069D01*
X109130000Y-66983366D01*
X109131944Y-66983069D01*
X109131945Y-66983069D01*
X109322660Y-66912436D01*
X109322664Y-66912434D01*
X109495267Y-66804850D01*
X109642668Y-66664735D01*
X109642669Y-66664733D01*
X109758856Y-66497804D01*
X109839059Y-66310907D01*
X109880000Y-66111690D01*
X109880000Y-65860000D01*
X109180000Y-65860000D01*
X109180000Y-65360000D01*
X109880000Y-65360000D01*
X109880000Y-65159286D01*
X109864581Y-65007661D01*
X109803700Y-64813618D01*
X109803695Y-64813608D01*
X109704994Y-64635784D01*
X109704994Y-64635783D01*
X109572521Y-64481469D01*
X109572520Y-64481468D01*
X109411695Y-64356981D01*
X109229093Y-64267411D01*
X109130000Y-64241753D01*
X109130000Y-65043889D01*
X109105543Y-65004390D01*
X109016038Y-64936799D01*
X108908160Y-64906105D01*
X108796479Y-64916454D01*
X108696078Y-64966448D01*
X108629999Y-65038931D01*
X108629999Y-64236633D01*
X108629998Y-64236632D01*
X108628063Y-64236929D01*
X108628049Y-64236932D01*
X108437342Y-64307562D01*
X108437335Y-64307565D01*
X108264732Y-64415149D01*
X108117331Y-64555264D01*
X108117330Y-64555266D01*
X108001143Y-64722195D01*
X107920940Y-64909092D01*
X107880000Y-65108309D01*
X107880000Y-65360000D01*
X108580000Y-65360000D01*
X108580000Y-65860000D01*
X107880000Y-65860000D01*
X107880000Y-66060713D01*
X104706217Y-66060713D01*
X107308678Y-63458252D01*
X107321277Y-63448160D01*
X107321125Y-63447976D01*
X107327132Y-63443006D01*
X107327132Y-63443005D01*
X107327135Y-63443004D01*
X107376556Y-63390375D01*
X107398354Y-63368578D01*
X107402866Y-63362759D01*
X107406651Y-63358327D01*
X107440033Y-63322780D01*
X107450309Y-63304086D01*
X107460993Y-63287824D01*
X107469439Y-63276936D01*
X107474066Y-63270971D01*
X107493443Y-63226191D01*
X107495986Y-63220998D01*
X107519485Y-63178257D01*
X107524787Y-63157600D01*
X107531089Y-63139194D01*
X107539564Y-63119612D01*
X107547191Y-63071453D01*
X107548373Y-63065744D01*
X107560500Y-63018515D01*
X107560500Y-62997187D01*
X107562027Y-62977786D01*
X107562079Y-62977459D01*
X107565364Y-62956720D01*
X107560772Y-62908152D01*
X107560499Y-62902357D01*
X107560499Y-60107792D01*
X107580184Y-60040754D01*
X107596818Y-60020112D01*
X108870112Y-58746819D01*
X108931435Y-58713334D01*
X108957793Y-58710500D01*
X110210304Y-58710500D01*
X110277343Y-58730185D01*
X110323098Y-58782989D01*
X110333042Y-58852147D01*
X110319972Y-58889903D01*
X110320564Y-58890167D01*
X110317920Y-58896104D01*
X110305413Y-58934594D01*
X110276919Y-58979618D01*
X110277818Y-58980372D01*
X110239027Y-59026600D01*
X110235379Y-59030581D01*
X110229425Y-59036536D01*
X110219090Y-59049606D01*
X110208754Y-59062679D01*
X110171569Y-59106996D01*
X110158603Y-59122448D01*
X110154637Y-59128478D01*
X110154603Y-59128456D01*
X110150361Y-59135115D01*
X110150395Y-59135136D01*
X110146607Y-59141277D01*
X110146605Y-59141280D01*
X110113625Y-59212005D01*
X110105987Y-59227214D01*
X110078605Y-59281734D01*
X110076135Y-59288521D01*
X110076097Y-59288507D01*
X110073506Y-59295961D01*
X110073546Y-59295974D01*
X110071274Y-59302828D01*
X110055498Y-59379234D01*
X110037499Y-59455180D01*
X110036661Y-59462352D01*
X110036619Y-59462347D01*
X110035818Y-59470193D01*
X110035860Y-59470197D01*
X110035230Y-59477386D01*
X110037500Y-59555375D01*
X110037500Y-59952551D01*
X110029682Y-59995884D01*
X109998011Y-60080796D01*
X109998011Y-60080797D01*
X109997289Y-60087513D01*
X109970551Y-60152064D01*
X109913158Y-60191912D01*
X109843333Y-60194405D01*
X109783244Y-60158752D01*
X109751970Y-60096272D01*
X109750000Y-60074257D01*
X109750000Y-59690000D01*
X109652155Y-59690000D01*
X109592627Y-59696401D01*
X109592620Y-59696403D01*
X109457913Y-59746645D01*
X109457906Y-59746649D01*
X109342814Y-59832808D01*
X109342807Y-59832814D01*
X109321136Y-59861764D01*
X109265202Y-59903634D01*
X109195510Y-59908618D01*
X109190788Y-59907493D01*
X109130000Y-59891753D01*
X109130000Y-60693889D01*
X109105543Y-60654390D01*
X109016038Y-60586799D01*
X108908160Y-60556105D01*
X108796479Y-60566454D01*
X108696078Y-60616448D01*
X108629999Y-60688930D01*
X108630000Y-59886633D01*
X108628053Y-59886931D01*
X108628047Y-59886933D01*
X108437342Y-59957562D01*
X108437335Y-59957565D01*
X108264732Y-60065149D01*
X108117331Y-60205264D01*
X108117330Y-60205266D01*
X108001143Y-60372195D01*
X107920940Y-60559092D01*
X107880000Y-60758309D01*
X107880000Y-61160000D01*
X108580000Y-61160000D01*
X108580000Y-61660000D01*
X107880000Y-61660000D01*
X107880000Y-62010713D01*
X107895418Y-62162338D01*
X107956299Y-62356381D01*
X107956304Y-62356391D01*
X108055005Y-62534215D01*
X108055005Y-62534216D01*
X108187478Y-62688530D01*
X108187479Y-62688531D01*
X108348304Y-62813018D01*
X108530907Y-62902589D01*
X108630000Y-62928244D01*
X108630000Y-62126110D01*
X108654457Y-62165610D01*
X108743962Y-62233201D01*
X108851840Y-62263895D01*
X108963521Y-62253546D01*
X109063922Y-62203552D01*
X109130000Y-62131069D01*
X109130000Y-62933365D01*
X109131944Y-62933069D01*
X109131945Y-62933069D01*
X109322660Y-62862436D01*
X109322664Y-62862434D01*
X109495267Y-62754850D01*
X109642668Y-62614735D01*
X109642669Y-62614733D01*
X109758856Y-62447803D01*
X109765463Y-62432407D01*
X109809986Y-62378561D01*
X109876554Y-62357334D01*
X109944030Y-62375466D01*
X109954892Y-62382917D01*
X110019767Y-62432698D01*
X110159764Y-62490687D01*
X110272280Y-62505500D01*
X110272287Y-62505500D01*
X110347713Y-62505500D01*
X110347720Y-62505500D01*
X110460236Y-62490687D01*
X110600233Y-62432698D01*
X110720451Y-62340451D01*
X110812698Y-62220233D01*
X110870687Y-62080236D01*
X110875152Y-62046314D01*
X110903420Y-61982417D01*
X110961745Y-61943947D01*
X110998092Y-61938500D01*
X111148638Y-61938500D01*
X111151120Y-61938233D01*
X111186745Y-61934404D01*
X111213255Y-61934404D01*
X111251343Y-61938498D01*
X111251362Y-61938500D01*
X111326097Y-61938500D01*
X111393136Y-61958185D01*
X111438891Y-62010989D01*
X111440658Y-62015048D01*
X111450358Y-62038468D01*
X111508399Y-62114109D01*
X111542044Y-62157954D01*
X111568818Y-62178499D01*
X111574913Y-62183843D01*
X112266154Y-62875084D01*
X112271495Y-62881174D01*
X112274527Y-62885125D01*
X112290208Y-62905562D01*
X112292045Y-62907955D01*
X112320756Y-62929985D01*
X112320772Y-62929999D01*
X112353413Y-62955045D01*
X112396971Y-62988468D01*
X112411532Y-62999641D01*
X112550678Y-63057277D01*
X112662508Y-63072000D01*
X112662509Y-63072000D01*
X112664552Y-63072269D01*
X112664570Y-63072271D01*
X112699998Y-63076935D01*
X112700000Y-63076935D01*
X112700001Y-63076935D01*
X112714144Y-63075073D01*
X112733454Y-63072530D01*
X112741553Y-63072000D01*
X115103866Y-63072000D01*
X115170905Y-63091685D01*
X115191547Y-63108318D01*
X116222312Y-64139084D01*
X116227653Y-64145174D01*
X116248203Y-64171955D01*
X116276914Y-64193985D01*
X116276930Y-64193999D01*
X116310037Y-64219402D01*
X116367690Y-64263641D01*
X116506836Y-64321277D01*
X116656158Y-64340936D01*
X116657491Y-64340760D01*
X116658618Y-64340936D01*
X116664286Y-64340936D01*
X116664286Y-64341819D01*
X116726524Y-64351523D01*
X116778782Y-64397901D01*
X116797670Y-64465170D01*
X116777192Y-64531971D01*
X116759114Y-64553571D01*
X116757329Y-64555267D01*
X116641143Y-64722195D01*
X116560940Y-64909092D01*
X116520000Y-65108309D01*
X116520000Y-65360000D01*
X117220000Y-65360000D01*
X117220000Y-65860000D01*
X116520000Y-65860000D01*
X116520000Y-66060713D01*
X116535418Y-66212338D01*
X116596299Y-66406381D01*
X116596304Y-66406391D01*
X116695005Y-66584215D01*
X116695005Y-66584216D01*
X116827478Y-66738530D01*
X116827479Y-66738531D01*
X116988304Y-66863018D01*
X117170907Y-66952589D01*
X117270000Y-66978244D01*
X117270000Y-66176110D01*
X117294457Y-66215610D01*
X117383962Y-66283201D01*
X117491840Y-66313895D01*
X117603521Y-66303546D01*
X117703922Y-66253552D01*
X117770000Y-66181069D01*
X117770000Y-66983365D01*
X117771944Y-66983069D01*
X117771945Y-66983069D01*
X117962660Y-66912436D01*
X117962664Y-66912434D01*
X118135263Y-66804852D01*
X118228229Y-66716481D01*
X118290381Y-66684560D01*
X118359924Y-66691308D01*
X118402254Y-66723265D01*
X118403747Y-66721773D01*
X118522705Y-66840731D01*
X118522714Y-66840738D01*
X118660808Y-66922406D01*
X118660811Y-66922407D01*
X118814871Y-66967166D01*
X118814877Y-66967167D01*
X118850000Y-66969931D01*
X118850000Y-66082499D01*
X118869685Y-66015460D01*
X118922489Y-65969705D01*
X118973996Y-65958499D01*
X119349988Y-65958499D01*
X119349989Y-65958499D01*
X119352649Y-65958289D01*
X119386466Y-65955629D01*
X119388892Y-65954924D01*
X119423488Y-65950000D01*
X119912844Y-65950000D01*
X119872404Y-65810805D01*
X119843228Y-65761470D01*
X119826045Y-65693746D01*
X119843229Y-65635227D01*
X119880267Y-65572599D01*
X119880269Y-65572596D01*
X119925629Y-65416466D01*
X119928500Y-65379989D01*
X119928499Y-64980012D01*
X119925629Y-64943534D01*
X119880269Y-64787404D01*
X119797506Y-64647459D01*
X119797504Y-64647457D01*
X119797501Y-64647453D01*
X119682546Y-64532498D01*
X119682538Y-64532492D01*
X119568487Y-64465043D01*
X119545978Y-64451731D01*
X119498296Y-64400663D01*
X119485792Y-64331922D01*
X119512437Y-64267332D01*
X119545977Y-64238268D01*
X119682541Y-64157506D01*
X119797506Y-64042541D01*
X119880269Y-63902596D01*
X119925629Y-63746466D01*
X119927695Y-63720222D01*
X119928500Y-63709992D01*
X119928499Y-63310011D01*
X119928499Y-63310012D01*
X119925629Y-63273534D01*
X119880269Y-63117404D01*
X119843227Y-63054770D01*
X119826045Y-62987047D01*
X119843229Y-62928527D01*
X119872405Y-62879193D01*
X119912844Y-62740000D01*
X119423489Y-62740000D01*
X119388894Y-62735076D01*
X119386472Y-62734372D01*
X119386460Y-62734370D01*
X119349992Y-62731500D01*
X118974000Y-62731500D01*
X118906961Y-62711815D01*
X118861206Y-62659011D01*
X118850000Y-62607500D01*
X118850000Y-62239999D01*
X119349999Y-62239999D01*
X119350000Y-62240000D01*
X119912844Y-62240000D01*
X119872404Y-62100805D01*
X119790738Y-61962714D01*
X119790731Y-61962705D01*
X119677294Y-61849268D01*
X119677285Y-61849261D01*
X119539191Y-61767593D01*
X119539188Y-61767592D01*
X119385130Y-61722834D01*
X119350000Y-61720068D01*
X119349999Y-62239999D01*
X118850000Y-62239999D01*
X118849999Y-61720068D01*
X118814872Y-61722833D01*
X118678594Y-61762426D01*
X118608725Y-61762226D01*
X118550055Y-61724283D01*
X118521682Y-61661682D01*
X118520000Y-61660000D01*
X117820000Y-61660000D01*
X117820000Y-61160000D01*
X118520000Y-61160000D01*
X118520000Y-60809286D01*
X118504581Y-60657661D01*
X118443700Y-60463618D01*
X118443695Y-60463608D01*
X118344994Y-60285784D01*
X118344994Y-60285783D01*
X118212521Y-60131469D01*
X118212520Y-60131468D01*
X118051695Y-60006981D01*
X117869093Y-59917411D01*
X117769999Y-59891753D01*
X117769999Y-60693887D01*
X117745543Y-60654390D01*
X117656038Y-60586799D01*
X117548160Y-60556105D01*
X117436479Y-60566454D01*
X117336078Y-60616448D01*
X117270000Y-60688930D01*
X117270000Y-59886633D01*
X117268053Y-59886932D01*
X117221514Y-59904167D01*
X117151811Y-59908988D01*
X117090566Y-59875360D01*
X117079185Y-59862195D01*
X117057187Y-59832810D01*
X117057186Y-59832809D01*
X116942086Y-59746645D01*
X116935876Y-59743254D01*
X116886471Y-59693849D01*
X116871619Y-59625576D01*
X116896036Y-59560111D01*
X116951970Y-59518240D01*
X116958421Y-59516363D01*
X116958368Y-59516197D01*
X116964540Y-59514191D01*
X116964546Y-59514190D01*
X117128045Y-59441396D01*
X117160595Y-59417746D01*
X117194478Y-59400357D01*
X117208338Y-59395765D01*
X117208347Y-59395758D01*
X117214882Y-59392713D01*
X117214900Y-59392752D01*
X117222000Y-59389315D01*
X117221981Y-59389276D01*
X117228433Y-59386035D01*
X117228437Y-59386034D01*
X117293636Y-59343151D01*
X117360047Y-59302188D01*
X117360052Y-59302182D01*
X117365711Y-59297709D01*
X117365738Y-59297743D01*
X117371852Y-59292763D01*
X117371825Y-59292730D01*
X117377360Y-59288085D01*
X117430918Y-59231317D01*
X117651293Y-59010940D01*
X117868504Y-58793730D01*
X117882133Y-58781953D01*
X117901822Y-58767296D01*
X117935966Y-58726604D01*
X117939626Y-58722609D01*
X117945573Y-58716663D01*
X117945580Y-58716653D01*
X117945583Y-58716651D01*
X117966244Y-58690519D01*
X117981373Y-58672489D01*
X118016396Y-58630751D01*
X118016399Y-58630744D01*
X118020364Y-58624717D01*
X118020400Y-58624741D01*
X118024637Y-58618090D01*
X118024601Y-58618068D01*
X118028390Y-58611924D01*
X118028395Y-58611918D01*
X118061377Y-58541186D01*
X118096394Y-58471464D01*
X118096396Y-58471451D01*
X118098863Y-58464678D01*
X118098903Y-58464692D01*
X118101493Y-58457242D01*
X118101453Y-58457229D01*
X118105998Y-58443514D01*
X118107260Y-58443932D01*
X118136481Y-58389028D01*
X118197442Y-58354887D01*
X118267183Y-58359124D01*
X118312778Y-58388083D01*
X118397267Y-58472572D01*
X118397271Y-58472575D01*
X118541507Y-58561542D01*
X118541518Y-58561547D01*
X118702393Y-58614855D01*
X118801683Y-58624999D01*
X118849999Y-58624998D01*
X118850000Y-58624998D01*
X118850000Y-57549000D01*
X118869685Y-57481961D01*
X118922489Y-57436206D01*
X118974000Y-57425000D01*
X119226000Y-57425000D01*
X119293039Y-57444685D01*
G37*
G04 #@! TD.AperFunction*
G04 #@! TA.AperFunction,Conductor*
G36*
X98394364Y-50537500D02*
G01*
X99307500Y-50537500D01*
X99374539Y-50557185D01*
X99420294Y-50609989D01*
X99431500Y-50661500D01*
X99431501Y-50913500D01*
X99411817Y-50980539D01*
X99359013Y-51026294D01*
X99307501Y-51037500D01*
X98420069Y-51037500D01*
X98422832Y-51072622D01*
X98422833Y-51072625D01*
X98431921Y-51103907D01*
X98431720Y-51173776D01*
X98393778Y-51232446D01*
X98368678Y-51243821D01*
X98350000Y-51262499D01*
X98350000Y-51962500D01*
X99060000Y-51962500D01*
X99073681Y-51948819D01*
X99135004Y-51915334D01*
X99161362Y-51912500D01*
X99617500Y-51912500D01*
X99684539Y-51932185D01*
X99730294Y-51984989D01*
X99741500Y-52036500D01*
X99741500Y-52163500D01*
X99721815Y-52230539D01*
X99669011Y-52276294D01*
X99617500Y-52287500D01*
X99115000Y-52287500D01*
X99115000Y-52338500D01*
X99095315Y-52405539D01*
X99042511Y-52451294D01*
X98991000Y-52462500D01*
X97125001Y-52462500D01*
X97125001Y-52485822D01*
X97135144Y-52585107D01*
X97188452Y-52745981D01*
X97188457Y-52745992D01*
X97277424Y-52890228D01*
X97277427Y-52890232D01*
X97281004Y-52893809D01*
X97314489Y-52955132D01*
X97309505Y-53024824D01*
X97281004Y-53069171D01*
X97270715Y-53079459D01*
X97270712Y-53079463D01*
X97180702Y-53225390D01*
X97180697Y-53225401D01*
X97126764Y-53388163D01*
X97116500Y-53488620D01*
X97116500Y-54036379D01*
X97126764Y-54136836D01*
X97180697Y-54299598D01*
X97180702Y-54299609D01*
X97270712Y-54445536D01*
X97270715Y-54445540D01*
X97391959Y-54566784D01*
X97391963Y-54566787D01*
X97537890Y-54656797D01*
X97537893Y-54656798D01*
X97537899Y-54656802D01*
X97700664Y-54710736D01*
X97801128Y-54721000D01*
X97801133Y-54721000D01*
X98398867Y-54721000D01*
X98398872Y-54721000D01*
X98499336Y-54710736D01*
X98499346Y-54710732D01*
X98505951Y-54709319D01*
X98506374Y-54711297D01*
X98566452Y-54709227D01*
X98623318Y-54741656D01*
X98925162Y-55043500D01*
X98936938Y-55057125D01*
X98951602Y-55076822D01*
X98951604Y-55076823D01*
X98951605Y-55076825D01*
X98992297Y-55110969D01*
X98996287Y-55114625D01*
X99002235Y-55120573D01*
X99028379Y-55141245D01*
X99088147Y-55191396D01*
X99088153Y-55191399D01*
X99094184Y-55195366D01*
X99094160Y-55195401D01*
X99100807Y-55199636D01*
X99100829Y-55199601D01*
X99106977Y-55203393D01*
X99106980Y-55203395D01*
X99177705Y-55236374D01*
X99247434Y-55271394D01*
X99247439Y-55271395D01*
X99254227Y-55273866D01*
X99254212Y-55273906D01*
X99261656Y-55276493D01*
X99261670Y-55276453D01*
X99268521Y-55278723D01*
X99268524Y-55278723D01*
X99268527Y-55278725D01*
X99344931Y-55294500D01*
X99420877Y-55312500D01*
X99420880Y-55312500D01*
X99420884Y-55312501D01*
X99428051Y-55313339D01*
X99428046Y-55313379D01*
X99435894Y-55314181D01*
X99435898Y-55314140D01*
X99443088Y-55314769D01*
X99443091Y-55314768D01*
X99443092Y-55314769D01*
X99521092Y-55312500D01*
X100682800Y-55312500D01*
X100749839Y-55332185D01*
X100770481Y-55348819D01*
X100909262Y-55487600D01*
X100921038Y-55501225D01*
X100935702Y-55520922D01*
X100935704Y-55520923D01*
X100935705Y-55520925D01*
X100976397Y-55555069D01*
X100980387Y-55558725D01*
X100986335Y-55564673D01*
X101012479Y-55585345D01*
X101072247Y-55635496D01*
X101072253Y-55635499D01*
X101078284Y-55639466D01*
X101078260Y-55639501D01*
X101084907Y-55643736D01*
X101084929Y-55643701D01*
X101091080Y-55647495D01*
X101161811Y-55680477D01*
X101231534Y-55715494D01*
X101231536Y-55715494D01*
X101238323Y-55717965D01*
X101238308Y-55718004D01*
X101245756Y-55720593D01*
X101245770Y-55720553D01*
X101252623Y-55722823D01*
X101252626Y-55722825D01*
X101252628Y-55722825D01*
X101252630Y-55722826D01*
X101288679Y-55730269D01*
X101329038Y-55738602D01*
X101404977Y-55756600D01*
X101404980Y-55756600D01*
X101404984Y-55756601D01*
X101412151Y-55757439D01*
X101412146Y-55757479D01*
X101419993Y-55758281D01*
X101419997Y-55758240D01*
X101427186Y-55758869D01*
X101427190Y-55758868D01*
X101427191Y-55758869D01*
X101505176Y-55756600D01*
X102392999Y-55756600D01*
X102443433Y-55767319D01*
X102535454Y-55808290D01*
X102710514Y-55845500D01*
X102710515Y-55845500D01*
X102889484Y-55845500D01*
X102889486Y-55845500D01*
X103064546Y-55808290D01*
X103156566Y-55767319D01*
X103207001Y-55756600D01*
X103392999Y-55756600D01*
X103443433Y-55767319D01*
X103535454Y-55808290D01*
X103710514Y-55845500D01*
X103710515Y-55845500D01*
X103889484Y-55845500D01*
X103889486Y-55845500D01*
X104064546Y-55808290D01*
X104228045Y-55735496D01*
X104372836Y-55630299D01*
X104492591Y-55497297D01*
X104582077Y-55342303D01*
X104637382Y-55172091D01*
X104656090Y-54994100D01*
X104637382Y-54816109D01*
X104595413Y-54686940D01*
X104582079Y-54645902D01*
X104582076Y-54645896D01*
X104576108Y-54635559D01*
X104492591Y-54490903D01*
X104372836Y-54357901D01*
X104292589Y-54299598D01*
X104228043Y-54252702D01*
X104064544Y-54179909D01*
X103889484Y-54142699D01*
X103886033Y-54142337D01*
X103884169Y-54141570D01*
X103883129Y-54141349D01*
X103883169Y-54141158D01*
X103821420Y-54115750D01*
X103781437Y-54058451D01*
X103775000Y-54019017D01*
X103775000Y-54012500D01*
X102674000Y-54012500D01*
X102606961Y-53992815D01*
X102561206Y-53940011D01*
X102550000Y-53888500D01*
X102550000Y-53636500D01*
X102569685Y-53569461D01*
X102622489Y-53523706D01*
X102674000Y-53512500D01*
X103774999Y-53512500D01*
X103774999Y-53489192D01*
X103774998Y-53489177D01*
X103764855Y-53389892D01*
X103719263Y-53252304D01*
X103716861Y-53182476D01*
X103752593Y-53122434D01*
X103815113Y-53091241D01*
X103836969Y-53089300D01*
X104001984Y-53089300D01*
X104001986Y-53089300D01*
X104115321Y-53065209D01*
X104141102Y-53062500D01*
X104392999Y-53062500D01*
X104443433Y-53073219D01*
X104535454Y-53114190D01*
X104710514Y-53151400D01*
X104710515Y-53151400D01*
X104889484Y-53151400D01*
X104889486Y-53151400D01*
X105026555Y-53122265D01*
X105096221Y-53127581D01*
X105151955Y-53169718D01*
X105176060Y-53235298D01*
X105170041Y-53282558D01*
X105126764Y-53413160D01*
X105126764Y-53413161D01*
X105116500Y-53513620D01*
X105116500Y-54061379D01*
X105126764Y-54161836D01*
X105180697Y-54324598D01*
X105180702Y-54324609D01*
X105270712Y-54470536D01*
X105270715Y-54470540D01*
X105391959Y-54591784D01*
X105391963Y-54591787D01*
X105537890Y-54681797D01*
X105537893Y-54681798D01*
X105537899Y-54681802D01*
X105700664Y-54735736D01*
X105801128Y-54746000D01*
X105801133Y-54746000D01*
X106398867Y-54746000D01*
X106398872Y-54746000D01*
X106499336Y-54735736D01*
X106639346Y-54689341D01*
X106709172Y-54686940D01*
X106766027Y-54719365D01*
X106871873Y-54825210D01*
X106902122Y-54874572D01*
X106917923Y-54923203D01*
X107007409Y-55078197D01*
X107103307Y-55184703D01*
X107107822Y-55189718D01*
X107127164Y-55211199D01*
X107209151Y-55270766D01*
X107271956Y-55316397D01*
X107346113Y-55349413D01*
X107435454Y-55389190D01*
X107610514Y-55426400D01*
X107610515Y-55426400D01*
X107789484Y-55426400D01*
X107789486Y-55426400D01*
X107964546Y-55389190D01*
X108056566Y-55348219D01*
X108107001Y-55337500D01*
X108506816Y-55337500D01*
X108524786Y-55338809D01*
X108527478Y-55339203D01*
X108549070Y-55342366D01*
X108601994Y-55337735D01*
X108607395Y-55337500D01*
X108615804Y-55337500D01*
X108615810Y-55337500D01*
X108646781Y-55333879D01*
X108648910Y-55333631D01*
X108665438Y-55332185D01*
X108726638Y-55326831D01*
X108726646Y-55326828D01*
X108733707Y-55325371D01*
X108733715Y-55325414D01*
X108741414Y-55323707D01*
X108741405Y-55323666D01*
X108748435Y-55321999D01*
X108748436Y-55321998D01*
X108748440Y-55321998D01*
X108821767Y-55295309D01*
X108895838Y-55270765D01*
X108895846Y-55270759D01*
X108902386Y-55267711D01*
X108902404Y-55267750D01*
X108909500Y-55264315D01*
X108909481Y-55264276D01*
X108915933Y-55261035D01*
X108915937Y-55261034D01*
X108981136Y-55218151D01*
X109047547Y-55177188D01*
X109047552Y-55177182D01*
X109053211Y-55172709D01*
X109053238Y-55172743D01*
X109059352Y-55167763D01*
X109059325Y-55167730D01*
X109064860Y-55163085D01*
X109118418Y-55106317D01*
X109332543Y-54892190D01*
X109543504Y-54681230D01*
X109557133Y-54669453D01*
X109560372Y-54667042D01*
X109576822Y-54654796D01*
X109599523Y-54627741D01*
X109610966Y-54614104D01*
X109614626Y-54610109D01*
X109620573Y-54604163D01*
X109620580Y-54604153D01*
X109620583Y-54604151D01*
X109641244Y-54578019D01*
X109641245Y-54578018D01*
X109691396Y-54518251D01*
X109691399Y-54518244D01*
X109695364Y-54512217D01*
X109695400Y-54512241D01*
X109699637Y-54505590D01*
X109699601Y-54505568D01*
X109707187Y-54493270D01*
X109708627Y-54494158D01*
X109748881Y-54448432D01*
X109816073Y-54429273D01*
X109882956Y-54449482D01*
X109902783Y-54465588D01*
X109997267Y-54560072D01*
X109997271Y-54560075D01*
X110141507Y-54649042D01*
X110141518Y-54649047D01*
X110302393Y-54702355D01*
X110401683Y-54712499D01*
X110449998Y-54712498D01*
X110449999Y-54712498D01*
X110450000Y-53636500D01*
X110469685Y-53569460D01*
X110522489Y-53523706D01*
X110574000Y-53512500D01*
X110826000Y-53512500D01*
X110893039Y-53532185D01*
X110938794Y-53584989D01*
X110950000Y-53636500D01*
X110950000Y-54712499D01*
X110998308Y-54712499D01*
X110998322Y-54712498D01*
X111097607Y-54702355D01*
X111258481Y-54649047D01*
X111258487Y-54649044D01*
X111341622Y-54597765D01*
X111409014Y-54579324D01*
X111475678Y-54600245D01*
X111512435Y-54643867D01*
X111514674Y-54642575D01*
X111517922Y-54648201D01*
X111517923Y-54648203D01*
X111607409Y-54803197D01*
X111609256Y-54805248D01*
X111619006Y-54816077D01*
X111649235Y-54879069D01*
X111640609Y-54948404D01*
X111614536Y-54986729D01*
X110673086Y-55928181D01*
X110611763Y-55961666D01*
X110585405Y-55964500D01*
X106083852Y-55964500D01*
X106068069Y-55962757D01*
X106068044Y-55963025D01*
X106060282Y-55962291D01*
X106060281Y-55962291D01*
X105989997Y-55964500D01*
X105960017Y-55964500D01*
X105960014Y-55964500D01*
X105959999Y-55964501D01*
X105952981Y-55965387D01*
X105947164Y-55965845D01*
X105899800Y-55967334D01*
X105899794Y-55967335D01*
X105880093Y-55973058D01*
X105861054Y-55977000D01*
X105840711Y-55979571D01*
X105840705Y-55979572D01*
X105840701Y-55979573D01*
X105828714Y-55984318D01*
X105796646Y-55997014D01*
X105791121Y-55998906D01*
X105745606Y-56012131D01*
X105745604Y-56012132D01*
X105727952Y-56022571D01*
X105710491Y-56031125D01*
X105691417Y-56038678D01*
X105691414Y-56038679D01*
X105653073Y-56066534D01*
X105648191Y-56069741D01*
X105607401Y-56093864D01*
X105592898Y-56108368D01*
X105578108Y-56121000D01*
X105561515Y-56133055D01*
X105561512Y-56133058D01*
X105531301Y-56169576D01*
X105527368Y-56173897D01*
X103441044Y-58260223D01*
X101373086Y-60328181D01*
X101311763Y-60361666D01*
X101285405Y-60364500D01*
X97803007Y-60364500D01*
X97737034Y-60345493D01*
X97720269Y-60334959D01*
X97720268Y-60334958D01*
X97598786Y-60292450D01*
X97564252Y-60280366D01*
X97564251Y-60280365D01*
X97564246Y-60280364D01*
X97400004Y-60261859D01*
X97399996Y-60261859D01*
X97235753Y-60280364D01*
X97079731Y-60334958D01*
X96939776Y-60422898D01*
X96822898Y-60539776D01*
X96734958Y-60679731D01*
X96680364Y-60835753D01*
X96661859Y-60999996D01*
X96661859Y-61000003D01*
X96680364Y-61164246D01*
X96734958Y-61320268D01*
X96776482Y-61386353D01*
X96822898Y-61460223D01*
X96939777Y-61577102D01*
X97012661Y-61622898D01*
X97074385Y-61661682D01*
X97079733Y-61665042D01*
X97235748Y-61719634D01*
X97235751Y-61719634D01*
X97235753Y-61719635D01*
X97399996Y-61738141D01*
X97400000Y-61738141D01*
X97400002Y-61738141D01*
X97472616Y-61729959D01*
X97541438Y-61742013D01*
X97592817Y-61789362D01*
X97610500Y-61853179D01*
X97610500Y-61893489D01*
X97649374Y-62076384D01*
X97649376Y-62076390D01*
X97694839Y-62178499D01*
X97722221Y-62240000D01*
X97725427Y-62247199D01*
X97725429Y-62247204D01*
X97835330Y-62398469D01*
X97974286Y-62523586D01*
X98132162Y-62614735D01*
X98136215Y-62617075D01*
X98314044Y-62674855D01*
X98453380Y-62689500D01*
X99753380Y-62689500D01*
X102320236Y-62689500D01*
X102339633Y-62691026D01*
X102353190Y-62693174D01*
X102421678Y-62689584D01*
X102424922Y-62689500D01*
X102446615Y-62689500D01*
X102446620Y-62689500D01*
X102468240Y-62687226D01*
X102471392Y-62686978D01*
X102539915Y-62683389D01*
X102553182Y-62679833D01*
X102572304Y-62676289D01*
X102585956Y-62674855D01*
X102651174Y-62653663D01*
X102654259Y-62652749D01*
X102720524Y-62634994D01*
X102732754Y-62628761D01*
X102750729Y-62621316D01*
X102763785Y-62617075D01*
X102823185Y-62582779D01*
X102825989Y-62581255D01*
X102887125Y-62550107D01*
X102897787Y-62541471D01*
X102913821Y-62530450D01*
X102925715Y-62523585D01*
X102976716Y-62477662D01*
X102979118Y-62475611D01*
X102996006Y-62461937D01*
X103011371Y-62446570D01*
X103013692Y-62444368D01*
X103064669Y-62398470D01*
X103072742Y-62387357D01*
X103085371Y-62372570D01*
X104361937Y-61096006D01*
X104420496Y-61037447D01*
X104420509Y-61037432D01*
X104872570Y-60585371D01*
X104887357Y-60572742D01*
X104898470Y-60564669D01*
X104944368Y-60513692D01*
X104946570Y-60511371D01*
X104961937Y-60496006D01*
X104975611Y-60479118D01*
X104977662Y-60476716D01*
X105023585Y-60425715D01*
X105030451Y-60413821D01*
X105041465Y-60397795D01*
X105050107Y-60387125D01*
X105081258Y-60325985D01*
X105082783Y-60323179D01*
X105090229Y-60310282D01*
X105117075Y-60263785D01*
X105121315Y-60250734D01*
X105128766Y-60232747D01*
X105134993Y-60220527D01*
X105134995Y-60220520D01*
X105141299Y-60196995D01*
X105152741Y-60154289D01*
X105153661Y-60151182D01*
X105162984Y-60122489D01*
X105174855Y-60085956D01*
X105176290Y-60072297D01*
X105179836Y-60053170D01*
X105179941Y-60052779D01*
X105183388Y-60039915D01*
X105186976Y-59971428D01*
X105187229Y-59968219D01*
X105189500Y-59946620D01*
X105189500Y-59924908D01*
X105189585Y-59921662D01*
X105190249Y-59908988D01*
X105193174Y-59853190D01*
X105191027Y-59839634D01*
X105189500Y-59820235D01*
X105189500Y-59353384D01*
X105189500Y-59353380D01*
X105174855Y-59214044D01*
X105117075Y-59036215D01*
X105109386Y-59022898D01*
X105097317Y-59001994D01*
X105023585Y-58874285D01*
X104936080Y-58777101D01*
X104913212Y-58751703D01*
X104882982Y-58688711D01*
X104891607Y-58619376D01*
X104917678Y-58581053D01*
X105353144Y-58145587D01*
X105414465Y-58112104D01*
X105484157Y-58117088D01*
X105540090Y-58158960D01*
X105564043Y-58219387D01*
X105580364Y-58364246D01*
X105580365Y-58364251D01*
X105580366Y-58364252D01*
X105592450Y-58398786D01*
X105634958Y-58520268D01*
X105704381Y-58630754D01*
X105722898Y-58660223D01*
X105839777Y-58777102D01*
X105876052Y-58799895D01*
X105979732Y-58865042D01*
X106006148Y-58874285D01*
X106043868Y-58887483D01*
X106100644Y-58928204D01*
X106126392Y-58993157D01*
X106112936Y-59061718D01*
X106077498Y-59100356D01*
X106078877Y-59102022D01*
X106072865Y-59106995D01*
X106023427Y-59159641D01*
X106001647Y-59181421D01*
X105997139Y-59187233D01*
X105993348Y-59191671D01*
X105959971Y-59227214D01*
X105959965Y-59227222D01*
X105949687Y-59245916D01*
X105939013Y-59262165D01*
X105925936Y-59279025D01*
X105906573Y-59323770D01*
X105904003Y-59329016D01*
X105880513Y-59371745D01*
X105875208Y-59392408D01*
X105868908Y-59410810D01*
X105860437Y-59430385D01*
X105860436Y-59430389D01*
X105852810Y-59478533D01*
X105851625Y-59484254D01*
X105839500Y-59531480D01*
X105839500Y-59552811D01*
X105837973Y-59572211D01*
X105834635Y-59593277D01*
X105834635Y-59593278D01*
X105839224Y-59641822D01*
X105839499Y-59647659D01*
X105839499Y-62442206D01*
X105819814Y-62509245D01*
X105803180Y-62529887D01*
X104956717Y-63376351D01*
X103261599Y-65071470D01*
X102429888Y-65903181D01*
X102368565Y-65936666D01*
X102342207Y-65939500D01*
X94125848Y-65939500D01*
X94058809Y-65919815D01*
X94013054Y-65867011D01*
X94003110Y-65797853D01*
X94006771Y-65780906D01*
X94012844Y-65760000D01*
X92441362Y-65760000D01*
X92374323Y-65740315D01*
X92353681Y-65723681D01*
X92340000Y-65710000D01*
X91860000Y-65710000D01*
X91846319Y-65723681D01*
X91784996Y-65757166D01*
X91758638Y-65760000D01*
X90221362Y-65760000D01*
X90154323Y-65740315D01*
X90141523Y-65730000D01*
X89774000Y-65730000D01*
X89706961Y-65710315D01*
X89661206Y-65657511D01*
X89650000Y-65606000D01*
X89650000Y-65432500D01*
X89669685Y-65365461D01*
X89722489Y-65319706D01*
X89774000Y-65308500D01*
X90135487Y-65308500D01*
X90157546Y-65306763D01*
X90172254Y-65305606D01*
X90172256Y-65305605D01*
X90172258Y-65305605D01*
X90225933Y-65290011D01*
X90329597Y-65259894D01*
X90350946Y-65247267D01*
X90414067Y-65230000D01*
X90573251Y-65230000D01*
X90607846Y-65234924D01*
X90693794Y-65259894D01*
X90713534Y-65265629D01*
X90736332Y-65267423D01*
X90750008Y-65268500D01*
X90750010Y-65268499D01*
X90750011Y-65268500D01*
X91124736Y-65268499D01*
X91249989Y-65268499D01*
X91252649Y-65268289D01*
X91286466Y-65265629D01*
X91442596Y-65220269D01*
X91442604Y-65220263D01*
X91442752Y-65220201D01*
X91443031Y-65220143D01*
X91450088Y-65218093D01*
X91450249Y-65218648D01*
X91492005Y-65210000D01*
X91585933Y-65210000D01*
X91649053Y-65227267D01*
X91670403Y-65239894D01*
X91695785Y-65247268D01*
X91827741Y-65285605D01*
X91827744Y-65285605D01*
X91827746Y-65285606D01*
X91836938Y-65286329D01*
X91864513Y-65288500D01*
X91864516Y-65288500D01*
X92335487Y-65288500D01*
X92357546Y-65286763D01*
X92372254Y-65285606D01*
X92372256Y-65285605D01*
X92372258Y-65285605D01*
X92413746Y-65273551D01*
X92529597Y-65239894D01*
X92550946Y-65227267D01*
X92614067Y-65210000D01*
X92707995Y-65210000D01*
X92749750Y-65218648D01*
X92749912Y-65218093D01*
X92756968Y-65220143D01*
X92757248Y-65220201D01*
X92757397Y-65220265D01*
X92757404Y-65220269D01*
X92757411Y-65220271D01*
X92913526Y-65265627D01*
X92913528Y-65265627D01*
X92913534Y-65265629D01*
X92936332Y-65267423D01*
X92950008Y-65268500D01*
X92950010Y-65268499D01*
X92950011Y-65268500D01*
X93324800Y-65268499D01*
X93449989Y-65268499D01*
X93452649Y-65268289D01*
X93486466Y-65265629D01*
X93488892Y-65264924D01*
X93523488Y-65260000D01*
X94012844Y-65260000D01*
X93972404Y-65120805D01*
X93943228Y-65071470D01*
X93926045Y-65003746D01*
X93943229Y-64945227D01*
X93944232Y-64943532D01*
X93980269Y-64882596D01*
X93996791Y-64825724D01*
X94034395Y-64766841D01*
X94097867Y-64737633D01*
X94167054Y-64747378D01*
X94178988Y-64753588D01*
X94210805Y-64772404D01*
X94350000Y-64812844D01*
X94350000Y-63874000D01*
X94369685Y-63806961D01*
X94422489Y-63761206D01*
X94474000Y-63750000D01*
X94717500Y-63750000D01*
X94784539Y-63769685D01*
X94830294Y-63822489D01*
X94841500Y-63874000D01*
X94841501Y-64249989D01*
X94844370Y-64286464D01*
X94845075Y-64288888D01*
X94850000Y-64323487D01*
X94850000Y-64812844D01*
X94989193Y-64772405D01*
X95038527Y-64743229D01*
X95106251Y-64726045D01*
X95164770Y-64743227D01*
X95227404Y-64780269D01*
X95251977Y-64787408D01*
X95383526Y-64825627D01*
X95383528Y-64825627D01*
X95383534Y-64825629D01*
X95406332Y-64827423D01*
X95420008Y-64828500D01*
X95420010Y-64828499D01*
X95420011Y-64828500D01*
X95719936Y-64828499D01*
X95819988Y-64828499D01*
X95856466Y-64825629D01*
X96012596Y-64780269D01*
X96152541Y-64697506D01*
X96267506Y-64582541D01*
X96350269Y-64442596D01*
X96395629Y-64286466D01*
X96397889Y-64257747D01*
X96398500Y-64249992D01*
X96398499Y-63750011D01*
X96396949Y-63730315D01*
X96395629Y-63713534D01*
X96350269Y-63557404D01*
X96304333Y-63479730D01*
X96275479Y-63430940D01*
X96258296Y-63363216D01*
X96275479Y-63304698D01*
X96283175Y-63291685D01*
X96319894Y-63229597D01*
X96365606Y-63072254D01*
X96368500Y-63035484D01*
X96368500Y-62564516D01*
X96365606Y-62527746D01*
X96364397Y-62523586D01*
X96323532Y-62382925D01*
X96319894Y-62370403D01*
X96236488Y-62229371D01*
X96236486Y-62229369D01*
X96236483Y-62229365D01*
X96120634Y-62113516D01*
X96120626Y-62113510D01*
X95988386Y-62035304D01*
X95940703Y-61984235D01*
X95928199Y-61915493D01*
X95945971Y-61863471D01*
X95949045Y-61858486D01*
X96002355Y-61697606D01*
X96012499Y-61598322D01*
X96012500Y-61598309D01*
X96012500Y-61550000D01*
X94936500Y-61550000D01*
X94869461Y-61530315D01*
X94823706Y-61477511D01*
X94812500Y-61426000D01*
X94812500Y-61174000D01*
X94832185Y-61106961D01*
X94884989Y-61061206D01*
X94936500Y-61050000D01*
X96012499Y-61050000D01*
X96012499Y-61001692D01*
X96012498Y-61001677D01*
X96002355Y-60902392D01*
X95949047Y-60741518D01*
X95949042Y-60741507D01*
X95860075Y-60597271D01*
X95860072Y-60597267D01*
X95740232Y-60477427D01*
X95740228Y-60477424D01*
X95595992Y-60388457D01*
X95595981Y-60388452D01*
X95526094Y-60365294D01*
X95468649Y-60325521D01*
X95441826Y-60261005D01*
X95454141Y-60192230D01*
X95477411Y-60159913D01*
X95577102Y-60060223D01*
X95665042Y-59920267D01*
X95719634Y-59764252D01*
X95719635Y-59764246D01*
X95738141Y-59600003D01*
X95738141Y-59599996D01*
X95719635Y-59435753D01*
X95719634Y-59435751D01*
X95719634Y-59435748D01*
X95665042Y-59279733D01*
X95643793Y-59245916D01*
X95608373Y-59189545D01*
X95577102Y-59139777D01*
X95460223Y-59022898D01*
X95460217Y-59022893D01*
X95400119Y-58985131D01*
X95353828Y-58932797D01*
X95343180Y-58863743D01*
X95371555Y-58799895D01*
X95429945Y-58761523D01*
X95448347Y-58757537D01*
X95449313Y-58757278D01*
X95449322Y-58757277D01*
X95588468Y-58699641D01*
X95602712Y-58688711D01*
X95609504Y-58683500D01*
X95650827Y-58651791D01*
X95677954Y-58630976D01*
X95677955Y-58630974D01*
X95707955Y-58607955D01*
X95728504Y-58581173D01*
X95733836Y-58575092D01*
X95749098Y-58559831D01*
X95810418Y-58526348D01*
X95822878Y-58524295D01*
X95864252Y-58519634D01*
X96020267Y-58465042D01*
X96160223Y-58377102D01*
X96277102Y-58260223D01*
X96365042Y-58120267D01*
X96419634Y-57964252D01*
X96431550Y-57858500D01*
X96438141Y-57800003D01*
X96438141Y-57799996D01*
X96419635Y-57635753D01*
X96419634Y-57635751D01*
X96419634Y-57635748D01*
X96365042Y-57479733D01*
X96338836Y-57438027D01*
X96295370Y-57368851D01*
X96277102Y-57339777D01*
X96160223Y-57222898D01*
X96081492Y-57173428D01*
X96020268Y-57134958D01*
X95897383Y-57091959D01*
X95864252Y-57080366D01*
X95864251Y-57080365D01*
X95864246Y-57080364D01*
X95700004Y-57061859D01*
X95699996Y-57061859D01*
X95535753Y-57080364D01*
X95379731Y-57134958D01*
X95239776Y-57222898D01*
X95122898Y-57339776D01*
X95034957Y-57479733D01*
X95012136Y-57544954D01*
X94971414Y-57601730D01*
X94906461Y-57627478D01*
X94895094Y-57628000D01*
X94858876Y-57628000D01*
X94791837Y-57608315D01*
X94746082Y-57555511D01*
X94736138Y-57486353D01*
X94753883Y-57438027D01*
X94765041Y-57420269D01*
X94765041Y-57420268D01*
X94765042Y-57420267D01*
X94819634Y-57264252D01*
X94822603Y-57237901D01*
X94838141Y-57100003D01*
X94838141Y-57099996D01*
X94819635Y-56935753D01*
X94819634Y-56935751D01*
X94819634Y-56935748D01*
X94765042Y-56779733D01*
X94758963Y-56770059D01*
X94677101Y-56639776D01*
X94560223Y-56522898D01*
X94496356Y-56482768D01*
X94420267Y-56434958D01*
X94420266Y-56434957D01*
X94418107Y-56433601D01*
X94371816Y-56381266D01*
X94361168Y-56312213D01*
X94389543Y-56248364D01*
X94396374Y-56240950D01*
X94477102Y-56160223D01*
X94565042Y-56020267D01*
X94619634Y-55864252D01*
X94624390Y-55822044D01*
X94638141Y-55700003D01*
X94638141Y-55699996D01*
X94619635Y-55535752D01*
X94618511Y-55532541D01*
X94606814Y-55499111D01*
X94606110Y-55497098D01*
X94602549Y-55427320D01*
X94637278Y-55366693D01*
X94660031Y-55349413D01*
X94777875Y-55279720D01*
X94777883Y-55279714D01*
X94892214Y-55165383D01*
X94892221Y-55165374D01*
X94974531Y-55026195D01*
X94974533Y-55026190D01*
X95019644Y-54870918D01*
X95019645Y-54870912D01*
X95021290Y-54850000D01*
X94195000Y-54850000D01*
X94127961Y-54830315D01*
X94082206Y-54777511D01*
X94071000Y-54726000D01*
X94071000Y-54364513D01*
X94068106Y-54327747D01*
X94068105Y-54327741D01*
X94022395Y-54170407D01*
X94022394Y-54170403D01*
X94017688Y-54162445D01*
X94009767Y-54149051D01*
X93992500Y-54085932D01*
X93992500Y-54014066D01*
X94009770Y-53950942D01*
X94022394Y-53929597D01*
X94068106Y-53772254D01*
X94069858Y-53750000D01*
X94492500Y-53750000D01*
X94492500Y-54350000D01*
X95021290Y-54350000D01*
X95019645Y-54329089D01*
X94974531Y-54173804D01*
X94938643Y-54113120D01*
X94921460Y-54045396D01*
X94938644Y-53986876D01*
X94974531Y-53926196D01*
X95019645Y-53770910D01*
X95021290Y-53750000D01*
X94492500Y-53750000D01*
X94069858Y-53750000D01*
X94071000Y-53735484D01*
X94071000Y-53264516D01*
X94069858Y-53250000D01*
X94492500Y-53250000D01*
X95021290Y-53250000D01*
X95019645Y-53229089D01*
X94974531Y-53073804D01*
X94892221Y-52934625D01*
X94892214Y-52934616D01*
X94777883Y-52820285D01*
X94777874Y-52820278D01*
X94638693Y-52737967D01*
X94638690Y-52737965D01*
X94492501Y-52695493D01*
X94492500Y-52695494D01*
X94492500Y-53250000D01*
X94069858Y-53250000D01*
X94068106Y-53227746D01*
X94067467Y-53225547D01*
X94026540Y-53084675D01*
X94022394Y-53070403D01*
X94022392Y-53070399D01*
X94022391Y-53070397D01*
X94009767Y-53049050D01*
X93992500Y-52985931D01*
X93992500Y-52695494D01*
X93992498Y-52695493D01*
X93846309Y-52737965D01*
X93846306Y-52737967D01*
X93833966Y-52745265D01*
X93766242Y-52762445D01*
X93707729Y-52745264D01*
X93682099Y-52730107D01*
X93682092Y-52730104D01*
X93524758Y-52684394D01*
X93524752Y-52684393D01*
X93487987Y-52681500D01*
X93487984Y-52681500D01*
X93077016Y-52681500D01*
X93077013Y-52681500D01*
X93040247Y-52684393D01*
X93040241Y-52684394D01*
X92882907Y-52730104D01*
X92882902Y-52730106D01*
X92741876Y-52813508D01*
X92741866Y-52813516D01*
X92726276Y-52829106D01*
X92664952Y-52862590D01*
X92624715Y-52864643D01*
X92600004Y-52861859D01*
X92599996Y-52861859D01*
X92435753Y-52880364D01*
X92279731Y-52934958D01*
X92139778Y-53022897D01*
X92034493Y-53128182D01*
X91973170Y-53161666D01*
X91946812Y-53164500D01*
X91597516Y-53164500D01*
X91585539Y-53166013D01*
X91516561Y-53154884D01*
X91464550Y-53108230D01*
X91446000Y-53042990D01*
X91446000Y-52684001D01*
X91465685Y-52616962D01*
X91482314Y-52596325D01*
X92116139Y-51962500D01*
X97125000Y-51962500D01*
X97850000Y-51962500D01*
X97850000Y-51262500D01*
X97849999Y-51262499D01*
X97801693Y-51262500D01*
X97801675Y-51262501D01*
X97702392Y-51272644D01*
X97541518Y-51325952D01*
X97541507Y-51325957D01*
X97397271Y-51414924D01*
X97397267Y-51414927D01*
X97277427Y-51534767D01*
X97277424Y-51534771D01*
X97188457Y-51679007D01*
X97188452Y-51679018D01*
X97135144Y-51839893D01*
X97125000Y-51939177D01*
X97125000Y-51962500D01*
X92116139Y-51962500D01*
X93516321Y-50562318D01*
X93577644Y-50528834D01*
X93604002Y-50526000D01*
X98355200Y-50526000D01*
X98394364Y-50537500D01*
G37*
G04 #@! TD.AperFunction*
G04 #@! TA.AperFunction,Conductor*
G36*
X84949055Y-65227268D02*
G01*
X84970403Y-65239894D01*
X85127746Y-65285606D01*
X85136938Y-65286329D01*
X85164513Y-65288500D01*
X85526000Y-65288500D01*
X85593039Y-65308185D01*
X85638794Y-65360989D01*
X85650000Y-65412500D01*
X85650000Y-65586000D01*
X85630315Y-65653039D01*
X85577511Y-65698794D01*
X85526000Y-65710000D01*
X84174000Y-65710000D01*
X84106961Y-65690315D01*
X84061206Y-65637511D01*
X84050000Y-65586000D01*
X84050000Y-65412500D01*
X84069685Y-65345461D01*
X84122489Y-65299706D01*
X84174000Y-65288500D01*
X84535487Y-65288500D01*
X84551242Y-65287259D01*
X84572254Y-65285606D01*
X84729597Y-65239894D01*
X84750944Y-65227268D01*
X84814067Y-65210000D01*
X84885933Y-65210000D01*
X84949055Y-65227268D01*
G37*
G04 #@! TD.AperFunction*
G04 #@! TA.AperFunction,Conductor*
G36*
X71218703Y-60928079D02*
G01*
X71225181Y-60934111D01*
X73366143Y-63075073D01*
X73371496Y-63081176D01*
X73379560Y-63091685D01*
X73392045Y-63107955D01*
X73420756Y-63129985D01*
X73420778Y-63130004D01*
X73434659Y-63140654D01*
X73438008Y-63143224D01*
X73485588Y-63179733D01*
X73511531Y-63199640D01*
X73511533Y-63199642D01*
X73579386Y-63227747D01*
X73650678Y-63257277D01*
X73754121Y-63270896D01*
X73754122Y-63270896D01*
X73799999Y-63276936D01*
X73800000Y-63276936D01*
X73800001Y-63276936D01*
X73825848Y-63273533D01*
X73833459Y-63272530D01*
X73841559Y-63272000D01*
X78241124Y-63272000D01*
X78308163Y-63291685D01*
X78353918Y-63344489D01*
X78363862Y-63413647D01*
X78346117Y-63461973D01*
X78334958Y-63479730D01*
X78334958Y-63479731D01*
X78280366Y-63635748D01*
X78280366Y-63635750D01*
X78275705Y-63677108D01*
X78248636Y-63741521D01*
X78240166Y-63750902D01*
X77699389Y-64291681D01*
X77638066Y-64325166D01*
X77611708Y-64328000D01*
X71966460Y-64328000D01*
X71899421Y-64308315D01*
X71853666Y-64255511D01*
X71843722Y-64186353D01*
X71872747Y-64122797D01*
X71878779Y-64116319D01*
X71929714Y-64065383D01*
X71929721Y-64065374D01*
X72012031Y-63926195D01*
X72012033Y-63926190D01*
X72057144Y-63770918D01*
X72057145Y-63770912D01*
X72058790Y-63750000D01*
X71232500Y-63750000D01*
X71165461Y-63730315D01*
X71119706Y-63677511D01*
X71108500Y-63626000D01*
X71108500Y-63264513D01*
X71107358Y-63250000D01*
X71530000Y-63250000D01*
X72058790Y-63250000D01*
X72057145Y-63229089D01*
X72012031Y-63073804D01*
X71929721Y-62934625D01*
X71929714Y-62934616D01*
X71815383Y-62820285D01*
X71815374Y-62820278D01*
X71676193Y-62737967D01*
X71676190Y-62737965D01*
X71530001Y-62695493D01*
X71530000Y-62695494D01*
X71530000Y-63250000D01*
X71107358Y-63250000D01*
X71105606Y-63227747D01*
X71105605Y-63227741D01*
X71059895Y-63070407D01*
X71059894Y-63070403D01*
X71059892Y-63070399D01*
X71059891Y-63070397D01*
X71047267Y-63049050D01*
X71030000Y-62985931D01*
X71030000Y-62695494D01*
X70998717Y-62672006D01*
X70956925Y-62616012D01*
X70952041Y-62546314D01*
X70961944Y-62521147D01*
X70961047Y-62520759D01*
X70964140Y-62513608D01*
X70964145Y-62513601D01*
X71001873Y-62383739D01*
X71010561Y-62353835D01*
X71010562Y-62353829D01*
X71013500Y-62316505D01*
X71013500Y-61021792D01*
X71033185Y-60954753D01*
X71085989Y-60908998D01*
X71155147Y-60899054D01*
X71218703Y-60928079D01*
G37*
G04 #@! TD.AperFunction*
G04 #@! TA.AperFunction,Conductor*
G36*
X79791872Y-57382071D02*
G01*
X79847805Y-57423943D01*
X79872222Y-57489407D01*
X79871758Y-57512136D01*
X79861859Y-57599995D01*
X79861859Y-57600003D01*
X79880364Y-57764246D01*
X79937077Y-57926323D01*
X79940638Y-57996102D01*
X79907717Y-58054958D01*
X79822897Y-58139778D01*
X79734958Y-58279731D01*
X79680364Y-58435753D01*
X79661859Y-58599996D01*
X79661859Y-58600000D01*
X79680364Y-58764246D01*
X79680365Y-58764251D01*
X79680366Y-58764252D01*
X79684862Y-58777102D01*
X79695311Y-58806962D01*
X79698872Y-58876741D01*
X79664143Y-58937368D01*
X79653757Y-58946291D01*
X79634766Y-58960863D01*
X79594130Y-58992043D01*
X79573585Y-59018818D01*
X79568233Y-59024920D01*
X78624920Y-59968234D01*
X78618817Y-59973585D01*
X78593061Y-59993350D01*
X78592045Y-59994130D01*
X78572108Y-60020112D01*
X78569023Y-60024132D01*
X78525541Y-60080799D01*
X78500357Y-60113618D01*
X78442723Y-60252761D01*
X78437020Y-60296075D01*
X78419075Y-60345858D01*
X78334960Y-60479727D01*
X78334958Y-60479731D01*
X78280364Y-60635753D01*
X78261859Y-60799996D01*
X78261859Y-60800003D01*
X78280364Y-60964246D01*
X78334958Y-61120268D01*
X78422898Y-61260223D01*
X78478994Y-61316319D01*
X78512479Y-61377642D01*
X78507495Y-61447334D01*
X78465623Y-61503267D01*
X78400159Y-61527684D01*
X78391313Y-61528000D01*
X77578022Y-61528000D01*
X77510983Y-61508315D01*
X77465228Y-61455511D01*
X77455284Y-61386353D01*
X77484309Y-61322797D01*
X77514902Y-61297268D01*
X77533123Y-61286492D01*
X77533124Y-61286490D01*
X77533129Y-61286488D01*
X77648988Y-61170629D01*
X77732394Y-61029597D01*
X77778106Y-60872254D01*
X77780159Y-60846169D01*
X77781000Y-60835487D01*
X77781000Y-60761787D01*
X77800685Y-60694748D01*
X77814607Y-60676904D01*
X77818926Y-60672306D01*
X77840139Y-60651094D01*
X77844493Y-60645479D01*
X77848268Y-60641058D01*
X77880717Y-60606506D01*
X77890594Y-60588537D01*
X77901279Y-60572272D01*
X77905792Y-60566454D01*
X77913850Y-60556067D01*
X77932683Y-60512543D01*
X77935232Y-60507341D01*
X77958069Y-60465803D01*
X77963170Y-60445930D01*
X77969469Y-60427534D01*
X77977617Y-60408708D01*
X77982495Y-60377903D01*
X77985030Y-60361902D01*
X77986215Y-60356178D01*
X77987801Y-60350000D01*
X77998000Y-60310282D01*
X77998000Y-60289773D01*
X77999527Y-60270374D01*
X78002735Y-60250121D01*
X78001093Y-60232747D01*
X77998275Y-60202939D01*
X77998000Y-60197101D01*
X77998000Y-60165573D01*
X78017685Y-60098534D01*
X78070489Y-60052779D01*
X78078666Y-60049392D01*
X78168627Y-60015836D01*
X78208704Y-60000889D01*
X78325761Y-59913261D01*
X78413389Y-59796204D01*
X78464489Y-59659201D01*
X78468484Y-59622044D01*
X78470999Y-59598654D01*
X78471000Y-59598637D01*
X78471000Y-58651791D01*
X78490685Y-58584752D01*
X78507319Y-58564110D01*
X79163522Y-57907907D01*
X79660858Y-57410570D01*
X79722180Y-57377087D01*
X79791872Y-57382071D01*
G37*
G04 #@! TD.AperFunction*
G04 #@! TA.AperFunction,Conductor*
G36*
X109910834Y-60501680D02*
G01*
X109966767Y-60543552D01*
X109991184Y-60609016D01*
X109991500Y-60617862D01*
X109991500Y-60936000D01*
X109971815Y-61003039D01*
X109919011Y-61048794D01*
X109867500Y-61060000D01*
X109284000Y-61060000D01*
X109216961Y-61040315D01*
X109180000Y-60997659D01*
X109180000Y-60832198D01*
X109164588Y-60749750D01*
X109160000Y-60742340D01*
X109160000Y-60684000D01*
X109179685Y-60616961D01*
X109232489Y-60571206D01*
X109284000Y-60560000D01*
X109750000Y-60560000D01*
X109779819Y-60530181D01*
X109841142Y-60496696D01*
X109910834Y-60501680D01*
G37*
G04 #@! TD.AperFunction*
G04 #@! TA.AperFunction,Conductor*
G36*
X116512251Y-59530513D02*
G01*
X116551783Y-59538916D01*
X116613263Y-59572107D01*
X116647039Y-59633271D01*
X116650000Y-59660205D01*
X116650000Y-60074257D01*
X116630315Y-60141296D01*
X116577511Y-60187051D01*
X116508353Y-60196995D01*
X116444797Y-60167970D01*
X116407023Y-60109192D01*
X116402711Y-60087513D01*
X116402568Y-60086192D01*
X116401989Y-60080799D01*
X116396152Y-60065149D01*
X116370318Y-59995884D01*
X116362500Y-59952551D01*
X116362500Y-59651809D01*
X116382185Y-59584770D01*
X116434989Y-59539015D01*
X116504147Y-59529071D01*
X116512251Y-59530513D01*
G37*
G04 #@! TD.AperFunction*
G04 #@! TA.AperFunction,Conductor*
G36*
X114493039Y-55994685D02*
G01*
X114538794Y-56047489D01*
X114550000Y-56099000D01*
X114550000Y-56351000D01*
X114530315Y-56418039D01*
X114477511Y-56463794D01*
X114426000Y-56475000D01*
X113325001Y-56475000D01*
X113325001Y-56498322D01*
X113335144Y-56597607D01*
X113388452Y-56758481D01*
X113388457Y-56758492D01*
X113477424Y-56902728D01*
X113477427Y-56902732D01*
X113481004Y-56906309D01*
X113514489Y-56967632D01*
X113509505Y-57037324D01*
X113481004Y-57081671D01*
X113470715Y-57091959D01*
X113470712Y-57091963D01*
X113380702Y-57237890D01*
X113380697Y-57237901D01*
X113326764Y-57400663D01*
X113316500Y-57501120D01*
X113316500Y-57550206D01*
X113296815Y-57617245D01*
X113244011Y-57663000D01*
X113174853Y-57672944D01*
X113111297Y-57643919D01*
X113104819Y-57637887D01*
X112708257Y-57241326D01*
X112698165Y-57228728D01*
X112697981Y-57228881D01*
X112693004Y-57222865D01*
X112640360Y-57173428D01*
X112618580Y-57151649D01*
X112618578Y-57151647D01*
X112612757Y-57147131D01*
X112608323Y-57143344D01*
X112572778Y-57109965D01*
X112554089Y-57099691D01*
X112537830Y-57089011D01*
X112520970Y-57075933D01*
X112520968Y-57075932D01*
X112484148Y-57060000D01*
X112476216Y-57056567D01*
X112470977Y-57054000D01*
X112428257Y-57030515D01*
X112428254Y-57030514D01*
X112424791Y-57029143D01*
X112422479Y-57027339D01*
X112421420Y-57026757D01*
X112421513Y-57026586D01*
X112369706Y-56986162D01*
X112346603Y-56920222D01*
X112362817Y-56852260D01*
X112382754Y-56826174D01*
X113197612Y-56011317D01*
X113258932Y-55977834D01*
X113285290Y-55975000D01*
X114426000Y-55975000D01*
X114493039Y-55994685D01*
G37*
G04 #@! TD.AperFunction*
G04 #@! TA.AperFunction,Conductor*
G36*
X115380454Y-56754459D02*
G01*
X115419310Y-56812528D01*
X115425000Y-56849659D01*
X115425000Y-56850000D01*
X116333057Y-56850000D01*
X116380509Y-56859439D01*
X116388341Y-56862683D01*
X116461531Y-56892999D01*
X116579274Y-56908500D01*
X116579281Y-56908500D01*
X116851000Y-56908500D01*
X116918039Y-56928185D01*
X116963794Y-56980989D01*
X116975000Y-57032500D01*
X116975000Y-57167500D01*
X116955315Y-57234539D01*
X116902511Y-57280294D01*
X116851000Y-57291500D01*
X116579274Y-57291500D01*
X116579269Y-57291500D01*
X116579261Y-57291501D01*
X116465608Y-57306463D01*
X116396573Y-57295697D01*
X116393772Y-57294334D01*
X116337567Y-57266106D01*
X116278300Y-57252060D01*
X116164123Y-57225000D01*
X116164120Y-57225000D01*
X115280552Y-57225000D01*
X115213513Y-57205315D01*
X115175014Y-57166097D01*
X115129287Y-57091963D01*
X115129284Y-57091959D01*
X115118996Y-57081671D01*
X115085511Y-57020348D01*
X115090495Y-56950656D01*
X115118996Y-56906309D01*
X115122572Y-56902732D01*
X115122575Y-56902728D01*
X115195462Y-56784562D01*
X115247410Y-56737837D01*
X115316372Y-56726616D01*
X115380454Y-56754459D01*
G37*
G04 #@! TD.AperFunction*
G04 #@! TA.AperFunction,Conductor*
G36*
X114696905Y-48213515D02*
G01*
X114718804Y-48238787D01*
X114809278Y-48377268D01*
X114809283Y-48377273D01*
X114809284Y-48377276D01*
X114954489Y-48535008D01*
X114985412Y-48597662D01*
X114977552Y-48667088D01*
X114933405Y-48721244D01*
X114906596Y-48735172D01*
X114788794Y-48779111D01*
X114671739Y-48866739D01*
X114584111Y-48983795D01*
X114533011Y-49120795D01*
X114533011Y-49120797D01*
X114526500Y-49181345D01*
X114526500Y-50493350D01*
X114506815Y-50560389D01*
X114454011Y-50606144D01*
X114424247Y-50614531D01*
X114424290Y-50614705D01*
X114419029Y-50616001D01*
X114417456Y-50616445D01*
X114417011Y-50616499D01*
X114255848Y-50656222D01*
X114108874Y-50733359D01*
X113984639Y-50843422D01*
X113984633Y-50843429D01*
X113890347Y-50980026D01*
X113831486Y-51135226D01*
X113811480Y-51299999D01*
X113811480Y-51300000D01*
X113831486Y-51464773D01*
X113859882Y-51539645D01*
X113887139Y-51611516D01*
X113890347Y-51619973D01*
X113969852Y-51735156D01*
X113984635Y-51756573D01*
X113984637Y-51756575D01*
X113984639Y-51756577D01*
X114108874Y-51866640D01*
X114108876Y-51866641D01*
X114255847Y-51943777D01*
X114336427Y-51963638D01*
X114417007Y-51983500D01*
X114490953Y-51983500D01*
X114557992Y-52003185D01*
X114603747Y-52055989D01*
X114613691Y-52125147D01*
X114604510Y-52157308D01*
X114595703Y-52177386D01*
X114540436Y-52395628D01*
X114540434Y-52395640D01*
X114521844Y-52619994D01*
X114521844Y-52620005D01*
X114540435Y-52844364D01*
X114573532Y-52975062D01*
X114570907Y-53044882D01*
X114535553Y-53098317D01*
X114484639Y-53143422D01*
X114484633Y-53143429D01*
X114390347Y-53280026D01*
X114331485Y-53435230D01*
X114330429Y-53439516D01*
X114295272Y-53499895D01*
X114233052Y-53531683D01*
X114226220Y-53532777D01*
X114184689Y-53538245D01*
X114163948Y-53540976D01*
X114150678Y-53542723D01*
X114150674Y-53542724D01*
X114011536Y-53600356D01*
X114011535Y-53600356D01*
X113922151Y-53668944D01*
X113892045Y-53692044D01*
X113871500Y-53718818D01*
X113866148Y-53724920D01*
X113352754Y-54238314D01*
X113291431Y-54271799D01*
X113221739Y-54266815D01*
X113165806Y-54224943D01*
X113141753Y-54163596D01*
X113137382Y-54122009D01*
X113091154Y-53979733D01*
X113082079Y-53951802D01*
X113082076Y-53951796D01*
X113081583Y-53950942D01*
X112992591Y-53796803D01*
X112872836Y-53663801D01*
X112816549Y-53622906D01*
X112728043Y-53558602D01*
X112564544Y-53485809D01*
X112436738Y-53458643D01*
X112389486Y-53448600D01*
X112210514Y-53448600D01*
X112173305Y-53456508D01*
X112035455Y-53485809D01*
X112035454Y-53485809D01*
X111871954Y-53558603D01*
X111871951Y-53558605D01*
X111869542Y-53560356D01*
X111867914Y-53560936D01*
X111866329Y-53561852D01*
X111866161Y-53561561D01*
X111803734Y-53583829D01*
X111735682Y-53567998D01*
X111686991Y-53517888D01*
X111673308Y-53472632D01*
X111664856Y-53389893D01*
X111611547Y-53229018D01*
X111611542Y-53229007D01*
X111563223Y-53150670D01*
X111544782Y-53083278D01*
X111565704Y-53016614D01*
X111619346Y-52971844D01*
X111635866Y-52966612D01*
X111635865Y-52966609D01*
X111641342Y-52964793D01*
X111642241Y-52964593D01*
X111643696Y-52964133D01*
X111649825Y-52962868D01*
X111649833Y-52962910D01*
X111657516Y-52961207D01*
X111657507Y-52961166D01*
X111664537Y-52959499D01*
X111664538Y-52959498D01*
X111664542Y-52959498D01*
X111678941Y-52954256D01*
X111687256Y-52951873D01*
X111689481Y-52951400D01*
X111689486Y-52951400D01*
X111864546Y-52914190D01*
X112028045Y-52841396D01*
X112172836Y-52736199D01*
X112292591Y-52603197D01*
X112382077Y-52448203D01*
X112397878Y-52399569D01*
X112428125Y-52350211D01*
X112548078Y-52230258D01*
X112585319Y-52204663D01*
X112691683Y-52157308D01*
X112728541Y-52140898D01*
X112728541Y-52140897D01*
X112728545Y-52140896D01*
X112873336Y-52035699D01*
X112993091Y-51902697D01*
X113082577Y-51747703D01*
X113137882Y-51577491D01*
X113156590Y-51399500D01*
X113137882Y-51221509D01*
X113092848Y-51082907D01*
X113082579Y-51051302D01*
X113082576Y-51051296D01*
X113077553Y-51042596D01*
X112993091Y-50896303D01*
X112873336Y-50763301D01*
X112819426Y-50724133D01*
X112728543Y-50658102D01*
X112565044Y-50585309D01*
X112389986Y-50548100D01*
X112386542Y-50547738D01*
X112384683Y-50546973D01*
X112383629Y-50546749D01*
X112383670Y-50546556D01*
X112321929Y-50521148D01*
X112311832Y-50512099D01*
X112109658Y-50309925D01*
X112099732Y-50297535D01*
X112099525Y-50297707D01*
X112094552Y-50291696D01*
X112043306Y-50243573D01*
X112022097Y-50222363D01*
X112016492Y-50218015D01*
X112012046Y-50214218D01*
X111977509Y-50181785D01*
X111977501Y-50181780D01*
X111959540Y-50171906D01*
X111943274Y-50161222D01*
X111942744Y-50160811D01*
X111927067Y-50148650D01*
X111927066Y-50148649D01*
X111927064Y-50148648D01*
X111883571Y-50129827D01*
X111878323Y-50127256D01*
X111836805Y-50104432D01*
X111836804Y-50104431D01*
X111836803Y-50104431D01*
X111816937Y-50099330D01*
X111798538Y-50093030D01*
X111779709Y-50084883D01*
X111779708Y-50084882D01*
X111757032Y-50081291D01*
X111693898Y-50051361D01*
X111670314Y-50022968D01*
X111586816Y-49884845D01*
X111586814Y-49884843D01*
X111586813Y-49884841D01*
X111465158Y-49763186D01*
X111449188Y-49753532D01*
X111317913Y-49674173D01*
X111153649Y-49622987D01*
X111153647Y-49622986D01*
X111153645Y-49622986D01*
X111103667Y-49618444D01*
X111082265Y-49616500D01*
X111082262Y-49616500D01*
X110567727Y-49616500D01*
X110496354Y-49622985D01*
X110496344Y-49622988D01*
X110332090Y-49674171D01*
X110184843Y-49763185D01*
X110087681Y-49860347D01*
X110026358Y-49893831D01*
X109956666Y-49888847D01*
X109912319Y-49860347D01*
X109815156Y-49763185D01*
X109815155Y-49763184D01*
X109667913Y-49674173D01*
X109503649Y-49622987D01*
X109503647Y-49622986D01*
X109503645Y-49622986D01*
X109453667Y-49618444D01*
X109432265Y-49616500D01*
X109432262Y-49616500D01*
X108917727Y-49616500D01*
X108846354Y-49622985D01*
X108846344Y-49622988D01*
X108682090Y-49674171D01*
X108534843Y-49763185D01*
X108495687Y-49802342D01*
X108413184Y-49884845D01*
X108413182Y-49884847D01*
X108407881Y-49890149D01*
X108406018Y-49888286D01*
X108359322Y-49921654D01*
X108289537Y-49925092D01*
X108249593Y-49905894D01*
X108249256Y-49906465D01*
X108242640Y-49902552D01*
X108242581Y-49902524D01*
X108242545Y-49902496D01*
X108149244Y-49847318D01*
X108102596Y-49819731D01*
X108102595Y-49819730D01*
X108102594Y-49819730D01*
X108102591Y-49819729D01*
X107946473Y-49774372D01*
X107946460Y-49774370D01*
X107909992Y-49771500D01*
X107909989Y-49771500D01*
X107609856Y-49771500D01*
X107510011Y-49771501D01*
X107510012Y-49771501D01*
X107473533Y-49774371D01*
X107317408Y-49819729D01*
X107317404Y-49819730D01*
X107254770Y-49856772D01*
X107187045Y-49873953D01*
X107128530Y-49856771D01*
X107079195Y-49827595D01*
X107079188Y-49827591D01*
X106940001Y-49787153D01*
X106940000Y-49787154D01*
X106940000Y-50276511D01*
X106935077Y-50311103D01*
X106934372Y-50313527D01*
X106934370Y-50313540D01*
X106931902Y-50344904D01*
X106931500Y-50350011D01*
X106931500Y-50585310D01*
X106931501Y-50726000D01*
X106911817Y-50793039D01*
X106859013Y-50838794D01*
X106807501Y-50850000D01*
X105920069Y-50850000D01*
X105922832Y-50885122D01*
X105922833Y-50885128D01*
X105967592Y-51039188D01*
X105967593Y-51039191D01*
X106003779Y-51100379D01*
X106020962Y-51168104D01*
X105998802Y-51234366D01*
X105944335Y-51278129D01*
X105897048Y-51287500D01*
X105801693Y-51287500D01*
X105801676Y-51287501D01*
X105702392Y-51297644D01*
X105541518Y-51350952D01*
X105541507Y-51350957D01*
X105397271Y-51439924D01*
X105397266Y-51439927D01*
X105323279Y-51513914D01*
X105261956Y-51547399D01*
X105192264Y-51542413D01*
X105185164Y-51539512D01*
X105064544Y-51485809D01*
X104936738Y-51458643D01*
X104889486Y-51448600D01*
X104710514Y-51448600D01*
X104673305Y-51456508D01*
X104535455Y-51485809D01*
X104535446Y-51485812D01*
X104470876Y-51514560D01*
X104401626Y-51523844D01*
X104347561Y-51501601D01*
X104340544Y-51496503D01*
X104177044Y-51423709D01*
X104037261Y-51393998D01*
X104001986Y-51386500D01*
X103823014Y-51386500D01*
X103787739Y-51393998D01*
X103647955Y-51423709D01*
X103647954Y-51423709D01*
X103639491Y-51427478D01*
X103570240Y-51436761D01*
X103512144Y-51411461D01*
X103508046Y-51408221D01*
X103508040Y-51408215D01*
X103462733Y-51380269D01*
X103421402Y-51354775D01*
X103374677Y-51302827D01*
X103362499Y-51249237D01*
X103362499Y-51182541D01*
X103362499Y-51054574D01*
X103363808Y-51036621D01*
X103367367Y-51012328D01*
X103366514Y-51002583D01*
X103362736Y-50959399D01*
X103362500Y-50953992D01*
X103362500Y-50945595D01*
X103362500Y-50945588D01*
X103358633Y-50912503D01*
X103351831Y-50834760D01*
X103351830Y-50834758D01*
X103350371Y-50827688D01*
X103350412Y-50827679D01*
X103348705Y-50819976D01*
X103348663Y-50819986D01*
X103346999Y-50812966D01*
X103346998Y-50812958D01*
X103320309Y-50739630D01*
X103295765Y-50665560D01*
X103295761Y-50665553D01*
X103292711Y-50659012D01*
X103292750Y-50658993D01*
X103289315Y-50651898D01*
X103289277Y-50651918D01*
X103286034Y-50645462D01*
X103286034Y-50645461D01*
X103246472Y-50585310D01*
X103243160Y-50580274D01*
X103202191Y-50513854D01*
X103197711Y-50508188D01*
X103197743Y-50508161D01*
X103187287Y-50495325D01*
X103185101Y-50492001D01*
X103169629Y-50458464D01*
X103140269Y-50357404D01*
X103135890Y-50350000D01*
X105920069Y-50350000D01*
X106440000Y-50350000D01*
X106439999Y-49787154D01*
X106439998Y-49787153D01*
X106300811Y-49827591D01*
X106300808Y-49827593D01*
X106162714Y-49909261D01*
X106162705Y-49909268D01*
X106049268Y-50022705D01*
X106049261Y-50022714D01*
X105967593Y-50160808D01*
X105967592Y-50160811D01*
X105922833Y-50314871D01*
X105922832Y-50314877D01*
X105920069Y-50350000D01*
X103135890Y-50350000D01*
X103057506Y-50217459D01*
X103057504Y-50217457D01*
X103057501Y-50217453D01*
X102942546Y-50102498D01*
X102942538Y-50102492D01*
X102833355Y-50037922D01*
X102802596Y-50019731D01*
X102802595Y-50019730D01*
X102802594Y-50019730D01*
X102802591Y-50019729D01*
X102646473Y-49974372D01*
X102646460Y-49974370D01*
X102609992Y-49971500D01*
X102609989Y-49971500D01*
X102310144Y-49971500D01*
X102210011Y-49971501D01*
X102210012Y-49971501D01*
X102173533Y-49974371D01*
X102017408Y-50019729D01*
X102017400Y-50019732D01*
X101963118Y-50051834D01*
X101895394Y-50069015D01*
X101836879Y-50051833D01*
X101782600Y-50019733D01*
X101782591Y-50019729D01*
X101626472Y-49974372D01*
X101626460Y-49974370D01*
X101589992Y-49971500D01*
X101589989Y-49971500D01*
X101289984Y-49971500D01*
X101190011Y-49971501D01*
X101190012Y-49971501D01*
X101153533Y-49974371D01*
X101153532Y-49974371D01*
X100997408Y-50019729D01*
X100997401Y-50019732D01*
X100873688Y-50092895D01*
X100805964Y-50110078D01*
X100747447Y-50092895D01*
X100623729Y-50019729D01*
X100602596Y-50007231D01*
X100602595Y-50007230D01*
X100602594Y-50007230D01*
X100602591Y-50007229D01*
X100446473Y-49961872D01*
X100446460Y-49961870D01*
X100409992Y-49959000D01*
X100409989Y-49959000D01*
X100110080Y-49959000D01*
X100010011Y-49959001D01*
X100010012Y-49959001D01*
X99973533Y-49961871D01*
X99817408Y-50007229D01*
X99817404Y-50007230D01*
X99754770Y-50044272D01*
X99687045Y-50061453D01*
X99628530Y-50044271D01*
X99579195Y-50015095D01*
X99579189Y-50015092D01*
X99527814Y-50000166D01*
X99468928Y-49962559D01*
X99439723Y-49899086D01*
X99449470Y-49829900D01*
X99474725Y-49793414D01*
X100347788Y-48920350D01*
X100409109Y-48886867D01*
X100455871Y-48885724D01*
X100532431Y-48898500D01*
X100532434Y-48898500D01*
X100757569Y-48898500D01*
X100979635Y-48861444D01*
X101192574Y-48788342D01*
X101390576Y-48681189D01*
X101568240Y-48542906D01*
X101720722Y-48377268D01*
X101811193Y-48238791D01*
X101864336Y-48193437D01*
X101933567Y-48184013D01*
X101996903Y-48213515D01*
X102018807Y-48238793D01*
X102109276Y-48377265D01*
X102109284Y-48377276D01*
X102254488Y-48535007D01*
X102261760Y-48542906D01*
X102439424Y-48681189D01*
X102439425Y-48681189D01*
X102439427Y-48681191D01*
X102488874Y-48707950D01*
X102637426Y-48788342D01*
X102850365Y-48861444D01*
X103072431Y-48898500D01*
X103297569Y-48898500D01*
X103519635Y-48861444D01*
X103732574Y-48788342D01*
X103930576Y-48681189D01*
X104108240Y-48542906D01*
X104260722Y-48377268D01*
X104351193Y-48238790D01*
X104404338Y-48193437D01*
X104473569Y-48184013D01*
X104536905Y-48213515D01*
X104558804Y-48238787D01*
X104649278Y-48377268D01*
X104649283Y-48377273D01*
X104649284Y-48377276D01*
X104794488Y-48535007D01*
X104801760Y-48542906D01*
X104979424Y-48681189D01*
X104979425Y-48681189D01*
X104979427Y-48681191D01*
X105028874Y-48707950D01*
X105177426Y-48788342D01*
X105390365Y-48861444D01*
X105612431Y-48898500D01*
X105837569Y-48898500D01*
X106059635Y-48861444D01*
X106272574Y-48788342D01*
X106470576Y-48681189D01*
X106648240Y-48542906D01*
X106800722Y-48377268D01*
X106891193Y-48238791D01*
X106944336Y-48193437D01*
X107013567Y-48184013D01*
X107076903Y-48213515D01*
X107098807Y-48238793D01*
X107189276Y-48377265D01*
X107189284Y-48377276D01*
X107334488Y-48535007D01*
X107341760Y-48542906D01*
X107519424Y-48681189D01*
X107519425Y-48681189D01*
X107519427Y-48681191D01*
X107568874Y-48707950D01*
X107717426Y-48788342D01*
X107930365Y-48861444D01*
X108152431Y-48898500D01*
X108377569Y-48898500D01*
X108599635Y-48861444D01*
X108812574Y-48788342D01*
X109010576Y-48681189D01*
X109188240Y-48542906D01*
X109340722Y-48377268D01*
X109431193Y-48238790D01*
X109484338Y-48193437D01*
X109553569Y-48184013D01*
X109616905Y-48213515D01*
X109638804Y-48238787D01*
X109729278Y-48377268D01*
X109729283Y-48377273D01*
X109729284Y-48377276D01*
X109874488Y-48535007D01*
X109881760Y-48542906D01*
X110059424Y-48681189D01*
X110059425Y-48681189D01*
X110059427Y-48681191D01*
X110108874Y-48707950D01*
X110257426Y-48788342D01*
X110470365Y-48861444D01*
X110692431Y-48898500D01*
X110917569Y-48898500D01*
X111139635Y-48861444D01*
X111352574Y-48788342D01*
X111550576Y-48681189D01*
X111728240Y-48542906D01*
X111880722Y-48377268D01*
X111971193Y-48238791D01*
X112024336Y-48193437D01*
X112093567Y-48184013D01*
X112156903Y-48213515D01*
X112178807Y-48238793D01*
X112269276Y-48377265D01*
X112269284Y-48377276D01*
X112414488Y-48535007D01*
X112421760Y-48542906D01*
X112599424Y-48681189D01*
X112599425Y-48681189D01*
X112599427Y-48681191D01*
X112648874Y-48707950D01*
X112797426Y-48788342D01*
X113010365Y-48861444D01*
X113232431Y-48898500D01*
X113457569Y-48898500D01*
X113679635Y-48861444D01*
X113892574Y-48788342D01*
X114090576Y-48681189D01*
X114268240Y-48542906D01*
X114420722Y-48377268D01*
X114511193Y-48238790D01*
X114564338Y-48193437D01*
X114633569Y-48184013D01*
X114696905Y-48213515D01*
G37*
G04 #@! TD.AperFunction*
G04 #@! TA.AperFunction,Conductor*
G36*
X99121995Y-52737500D02*
G01*
X100058057Y-52737500D01*
X100105509Y-52746939D01*
X100136563Y-52759802D01*
X100186531Y-52780499D01*
X100304274Y-52796000D01*
X100304281Y-52796000D01*
X100576000Y-52796000D01*
X100643039Y-52815685D01*
X100688794Y-52868489D01*
X100700000Y-52920000D01*
X100700000Y-53055000D01*
X100680315Y-53122039D01*
X100627511Y-53167794D01*
X100576000Y-53179000D01*
X100304274Y-53179000D01*
X100304269Y-53179000D01*
X100304261Y-53179001D01*
X100190608Y-53193963D01*
X100121573Y-53183197D01*
X100118772Y-53181834D01*
X100062567Y-53153606D01*
X100019205Y-53143329D01*
X99889123Y-53112500D01*
X99889120Y-53112500D01*
X99043987Y-53112500D01*
X99040388Y-53112395D01*
X99026163Y-53111566D01*
X99004489Y-53110304D01*
X98938708Y-53086754D01*
X98924020Y-53074195D01*
X98918996Y-53069171D01*
X98885511Y-53007848D01*
X98890495Y-52938156D01*
X98918996Y-52893809D01*
X98922572Y-52890232D01*
X98922573Y-52890231D01*
X98985273Y-52788578D01*
X99037221Y-52741853D01*
X99106183Y-52730630D01*
X99121995Y-52737500D01*
G37*
G04 #@! TD.AperFunction*
G04 #@! TA.AperFunction,Conductor*
G36*
X108593039Y-52815685D02*
G01*
X108638794Y-52868489D01*
X108650000Y-52920000D01*
X108650000Y-53055000D01*
X108630315Y-53122039D01*
X108577511Y-53167794D01*
X108526000Y-53179000D01*
X108274000Y-53179000D01*
X108206961Y-53159315D01*
X108161206Y-53106511D01*
X108150000Y-53055000D01*
X108150000Y-52920000D01*
X108169685Y-52852961D01*
X108222489Y-52807206D01*
X108274000Y-52796000D01*
X108526000Y-52796000D01*
X108593039Y-52815685D01*
G37*
G04 #@! TD.AperFunction*
G04 #@! TA.AperFunction,Conductor*
G36*
X107634539Y-51932185D02*
G01*
X107680294Y-51984989D01*
X107691500Y-52036500D01*
X107691500Y-52163500D01*
X107671815Y-52230539D01*
X107619011Y-52276294D01*
X107567500Y-52287500D01*
X107115000Y-52287500D01*
X107115000Y-52363500D01*
X107095315Y-52430539D01*
X107042511Y-52476294D01*
X106991000Y-52487500D01*
X105974000Y-52487500D01*
X105906961Y-52467815D01*
X105861206Y-52415011D01*
X105850000Y-52363500D01*
X105850000Y-52111500D01*
X105869685Y-52044461D01*
X105922489Y-51998706D01*
X105974000Y-51987500D01*
X107010000Y-51987500D01*
X107046319Y-51951181D01*
X107048390Y-51953252D01*
X107082489Y-51923706D01*
X107134000Y-51912500D01*
X107567500Y-51912500D01*
X107634539Y-51932185D01*
G37*
G04 #@! TD.AperFunction*
G04 #@! TA.AperFunction,Conductor*
G36*
X89296905Y-48213515D02*
G01*
X89318804Y-48238787D01*
X89409278Y-48377268D01*
X89409283Y-48377273D01*
X89409284Y-48377276D01*
X89554488Y-48535007D01*
X89561760Y-48542906D01*
X89739424Y-48681189D01*
X89739425Y-48681189D01*
X89739427Y-48681191D01*
X89788874Y-48707950D01*
X89937426Y-48788342D01*
X90150365Y-48861444D01*
X90372431Y-48898500D01*
X90597569Y-48898500D01*
X90819635Y-48861444D01*
X90819635Y-48861443D01*
X90937016Y-48821146D01*
X91006812Y-48817997D01*
X91067233Y-48853082D01*
X91099094Y-48915265D01*
X91092279Y-48984801D01*
X91064958Y-49026109D01*
X90733878Y-49357191D01*
X90727774Y-49362544D01*
X90692045Y-49389958D01*
X90671500Y-49416733D01*
X90666148Y-49422835D01*
X89797525Y-50291458D01*
X89736202Y-50324943D01*
X89666510Y-50319959D01*
X89610683Y-50278229D01*
X89604505Y-50270000D01*
X89314067Y-50270000D01*
X89250946Y-50252732D01*
X89229597Y-50240106D01*
X89229592Y-50240104D01*
X89072258Y-50194394D01*
X89072252Y-50194393D01*
X89035487Y-50191500D01*
X89035484Y-50191500D01*
X88674000Y-50191500D01*
X88606961Y-50171815D01*
X88561206Y-50119011D01*
X88550000Y-50067500D01*
X88550000Y-49241210D01*
X88549999Y-49241209D01*
X89050000Y-49241209D01*
X89050000Y-49770000D01*
X89604504Y-49770000D01*
X89562031Y-49623804D01*
X89479721Y-49484625D01*
X89479714Y-49484616D01*
X89365383Y-49370285D01*
X89365374Y-49370278D01*
X89226195Y-49287968D01*
X89226190Y-49287966D01*
X89070918Y-49242855D01*
X89070912Y-49242854D01*
X89050000Y-49241209D01*
X88549999Y-49241209D01*
X88529087Y-49242854D01*
X88529081Y-49242855D01*
X88373809Y-49287966D01*
X88373804Y-49287968D01*
X88234625Y-49370278D01*
X88234616Y-49370285D01*
X88120285Y-49484616D01*
X88120281Y-49484622D01*
X88081184Y-49550731D01*
X88030114Y-49598414D01*
X87964722Y-49611227D01*
X87950000Y-49610068D01*
X87950000Y-50497500D01*
X87930315Y-50564539D01*
X87877511Y-50610294D01*
X87826000Y-50621500D01*
X87450011Y-50621501D01*
X87413533Y-50624371D01*
X87307846Y-50655076D01*
X87273251Y-50660000D01*
X87076567Y-50660000D01*
X87013446Y-50642732D01*
X87008449Y-50639777D01*
X86992097Y-50630106D01*
X86992092Y-50630104D01*
X86834758Y-50584394D01*
X86834752Y-50584393D01*
X86797987Y-50581500D01*
X86797984Y-50581500D01*
X86327016Y-50581500D01*
X86327013Y-50581500D01*
X86290247Y-50584393D01*
X86290241Y-50584394D01*
X86132907Y-50630104D01*
X86132902Y-50630106D01*
X86111554Y-50642732D01*
X86048433Y-50660000D01*
X85914067Y-50660000D01*
X85850946Y-50642732D01*
X85845949Y-50639777D01*
X85829597Y-50630106D01*
X85829592Y-50630104D01*
X85672258Y-50584394D01*
X85672252Y-50584393D01*
X85635487Y-50581500D01*
X85635484Y-50581500D01*
X85274000Y-50581500D01*
X85206961Y-50561815D01*
X85161206Y-50509011D01*
X85150000Y-50457500D01*
X85150000Y-50284000D01*
X85169685Y-50216961D01*
X85222489Y-50171206D01*
X85274000Y-50160000D01*
X86845253Y-50160000D01*
X86895004Y-50132834D01*
X86921362Y-50130000D01*
X87450000Y-50130000D01*
X87450000Y-49610068D01*
X87449999Y-49610068D01*
X87414869Y-49612834D01*
X87414868Y-49612834D01*
X87260811Y-49657592D01*
X87260808Y-49657593D01*
X87170646Y-49710915D01*
X87102922Y-49728098D01*
X87044403Y-49710915D01*
X86988690Y-49677966D01*
X86904945Y-49653636D01*
X86846059Y-49616030D01*
X86816853Y-49552557D01*
X86826599Y-49483371D01*
X86841158Y-49459082D01*
X86859510Y-49435166D01*
X86864844Y-49429085D01*
X87423213Y-48870715D01*
X87484534Y-48837232D01*
X87551154Y-48841116D01*
X87584889Y-48852698D01*
X87610364Y-48861444D01*
X87832431Y-48898500D01*
X88057569Y-48898500D01*
X88279635Y-48861444D01*
X88492574Y-48788342D01*
X88690576Y-48681189D01*
X88868240Y-48542906D01*
X89020722Y-48377268D01*
X89111193Y-48238790D01*
X89164338Y-48193437D01*
X89233569Y-48184013D01*
X89296905Y-48213515D01*
G37*
G04 #@! TD.AperFunction*
M02*
