G04 #@! TF.GenerationSoftware,KiCad,Pcbnew,7.0.6-7.0.6~ubuntu22.04.1*
G04 #@! TF.CreationDate,2023-07-20T16:44:22-04:00*
G04 #@! TF.ProjectId,f1c_linux,6631635f-6c69-46e7-9578-2e6b69636164,1*
G04 #@! TF.SameCoordinates,Original*
G04 #@! TF.FileFunction,Copper,L3,Inr*
G04 #@! TF.FilePolarity,Positive*
%FSLAX46Y46*%
G04 Gerber Fmt 4.6, Leading zero omitted, Abs format (unit mm)*
G04 Created by KiCad (PCBNEW 7.0.6-7.0.6~ubuntu22.04.1) date 2023-07-20 16:44:22*
%MOMM*%
%LPD*%
G01*
G04 APERTURE LIST*
G04 #@! TA.AperFunction,ComponentPad*
%ADD10R,1.700000X1.700000*%
G04 #@! TD*
G04 #@! TA.AperFunction,ComponentPad*
%ADD11O,1.700000X1.700000*%
G04 #@! TD*
G04 #@! TA.AperFunction,ComponentPad*
%ADD12O,1.000000X2.100000*%
G04 #@! TD*
G04 #@! TA.AperFunction,ComponentPad*
%ADD13O,1.000000X1.800000*%
G04 #@! TD*
G04 #@! TA.AperFunction,ViaPad*
%ADD14C,0.450000*%
G04 #@! TD*
G04 #@! TA.AperFunction,ViaPad*
%ADD15C,0.685800*%
G04 #@! TD*
G04 #@! TA.AperFunction,ViaPad*
%ADD16C,0.350000*%
G04 #@! TD*
G04 #@! TA.AperFunction,Conductor*
%ADD17C,0.762000*%
G04 #@! TD*
G04 #@! TA.AperFunction,Conductor*
%ADD18C,0.508000*%
G04 #@! TD*
G04 #@! TA.AperFunction,Conductor*
%ADD19C,0.254000*%
G04 #@! TD*
G04 #@! TA.AperFunction,Conductor*
%ADD20C,0.127000*%
G04 #@! TD*
G04 APERTURE END LIST*
D10*
X118425000Y-45000000D03*
D11*
X118425000Y-47540000D03*
X115885000Y-45000000D03*
X115885000Y-47540000D03*
X113345000Y-45000000D03*
X113345000Y-47540000D03*
X110805000Y-45000000D03*
X110805000Y-47540000D03*
X108265000Y-45000000D03*
X108265000Y-47540000D03*
X105725000Y-45000000D03*
X105725000Y-47540000D03*
X103185000Y-45000000D03*
X103185000Y-47540000D03*
X100645000Y-45000000D03*
X100645000Y-47540000D03*
X98105000Y-45000000D03*
X98105000Y-47540000D03*
X95565000Y-45000000D03*
X95565000Y-47540000D03*
X93025000Y-45000000D03*
X93025000Y-47540000D03*
X90485000Y-45000000D03*
X90485000Y-47540000D03*
X87945000Y-45000000D03*
X87945000Y-47540000D03*
X85405000Y-45000000D03*
X85405000Y-47540000D03*
X82865000Y-45000000D03*
X82865000Y-47540000D03*
X80325000Y-45000000D03*
X80325000Y-47540000D03*
X77785000Y-45000000D03*
X77785000Y-47540000D03*
X75245000Y-45000000D03*
X75245000Y-47540000D03*
X72705000Y-45000000D03*
X72705000Y-47540000D03*
X70165000Y-45000000D03*
X70165000Y-47540000D03*
X67625000Y-45000000D03*
X67625000Y-47540000D03*
X65085000Y-45000000D03*
X65085000Y-47540000D03*
X62545000Y-45000000D03*
X62545000Y-47540000D03*
D10*
X115885000Y-50080000D03*
D11*
X118425000Y-50080000D03*
X115885000Y-52620000D03*
X118425000Y-52620000D03*
D12*
X108880000Y-61410000D03*
D13*
X108880000Y-65610000D03*
D12*
X117520000Y-61410000D03*
D13*
X117520000Y-65610000D03*
D14*
X93700000Y-63400000D03*
X90437500Y-62100000D03*
D15*
X102800000Y-54994100D03*
X111100000Y-59244300D03*
X103800000Y-54994100D03*
X104300000Y-59400000D03*
X98500000Y-61800000D03*
X115600000Y-59200000D03*
X103700000Y-60500000D03*
X107700000Y-54575000D03*
X116700000Y-58700000D03*
X99800000Y-61800000D03*
X111900000Y-59600000D03*
D14*
X89250000Y-56750000D03*
D15*
X109750000Y-53000000D03*
D14*
X84250000Y-55500000D03*
X89250000Y-60500000D03*
X84250000Y-59250000D03*
X86750000Y-55500000D03*
X89250000Y-59250000D03*
X72400000Y-63500000D03*
X115500000Y-55700000D03*
X84250000Y-56750000D03*
D15*
X104500000Y-50000000D03*
D14*
X75000000Y-60500000D03*
X88000000Y-55500000D03*
X99000000Y-52150000D03*
X88000000Y-58000000D03*
D15*
X89800000Y-49400000D03*
D14*
X107100000Y-52200000D03*
D15*
X115528611Y-57129851D03*
D14*
X85500000Y-56750000D03*
X89250000Y-55500000D03*
D15*
X87600000Y-49300000D03*
D14*
X85500000Y-59250000D03*
D15*
X106950000Y-52950000D03*
D14*
X80700000Y-65400000D03*
X86750000Y-60500000D03*
D15*
X94400000Y-52000000D03*
X110670459Y-55000500D03*
D14*
X79400000Y-53300000D03*
X86750000Y-59250000D03*
X66400000Y-52600000D03*
X88000000Y-60500000D03*
D15*
X104500000Y-53800000D03*
D14*
X89250000Y-58000000D03*
X85500000Y-58000000D03*
X88000000Y-56750000D03*
X84250000Y-60500000D03*
X86750000Y-58000000D03*
X85500000Y-60500000D03*
X88000000Y-59250000D03*
X73300000Y-51500000D03*
X84250000Y-58000000D03*
D15*
X104000000Y-63000000D03*
D14*
X86750000Y-56750000D03*
X78100000Y-61300000D03*
X85000000Y-65960000D03*
D15*
X97000000Y-55000000D03*
X101800000Y-53100000D03*
X93300000Y-52000000D03*
D14*
X85500000Y-55500000D03*
D15*
X118175000Y-57175000D03*
D14*
X69500000Y-63500000D03*
X71700000Y-52600000D03*
X92600000Y-60800000D03*
D15*
X119600000Y-54900000D03*
D14*
X82300000Y-63900000D03*
X85200000Y-63900000D03*
X80800000Y-55500000D03*
D15*
X118700000Y-54950000D03*
D14*
X67700000Y-52600000D03*
X92600000Y-54600000D03*
X79200000Y-51800000D03*
D15*
X117975000Y-56275000D03*
X112300500Y-51399500D03*
X112300000Y-54300000D03*
D14*
X88100000Y-52100000D03*
X97400000Y-61000000D03*
D15*
X111600000Y-52100000D03*
D14*
X85600000Y-54000000D03*
X86450000Y-52000000D03*
D15*
X109700000Y-52100000D03*
D14*
X88900000Y-64800000D03*
D15*
X103912500Y-52237900D03*
D14*
X84100000Y-63800000D03*
X101900000Y-52212500D03*
X86500000Y-54000000D03*
D15*
X104800000Y-52300000D03*
D14*
X92600000Y-53600000D03*
D16*
X114500000Y-51300000D03*
D14*
X93900000Y-60300000D03*
X94300000Y-59700000D03*
X95000000Y-59600000D03*
X93600000Y-59000000D03*
X90800000Y-58600000D03*
X95700000Y-57800000D03*
X90800000Y-57800000D03*
X92700000Y-57400000D03*
X90800000Y-57000000D03*
X94100000Y-57100000D03*
X90800000Y-56200000D03*
X92700000Y-55800000D03*
X93900000Y-55700000D03*
X90800000Y-55000000D03*
X90800000Y-54300000D03*
X84900000Y-54200000D03*
X84200000Y-54200000D03*
X82500000Y-55400000D03*
X83450000Y-62200000D03*
X87300000Y-65007798D03*
X106300000Y-58200000D03*
X80500000Y-63200000D03*
X80500000Y-62500000D03*
X82500000Y-60900000D03*
D16*
X115000000Y-53600000D03*
X117200000Y-51305000D03*
D14*
X80500000Y-61800000D03*
X82800000Y-59600000D03*
X80600000Y-57600000D03*
X80400000Y-58600000D03*
X82600000Y-58700000D03*
X82600000Y-58000000D03*
X82600000Y-57300000D03*
X78600000Y-51100000D03*
X83100000Y-53900000D03*
X92800000Y-63400000D03*
X87150000Y-52100000D03*
X84500000Y-49600000D03*
X68900000Y-52600000D03*
X79900000Y-60200000D03*
X71200000Y-54400000D03*
X92000000Y-63400000D03*
X79000000Y-60800000D03*
X79000000Y-63800000D03*
D17*
X104300000Y-59400000D02*
X104300000Y-59900000D01*
X104300000Y-59900000D02*
X103700000Y-60500000D01*
X104300000Y-56300000D02*
X104300000Y-59400000D01*
X99800000Y-61800000D02*
X98500000Y-61800000D01*
D18*
X97400000Y-61000000D02*
X93600000Y-64800000D01*
X93600000Y-64800000D02*
X88900000Y-64800000D01*
D17*
X98500000Y-61800000D02*
X98500000Y-62100000D01*
X98500000Y-62100000D02*
X93600000Y-67000000D01*
X62545000Y-60495000D02*
X62545000Y-47540000D01*
X93600000Y-67000000D02*
X69050000Y-67000000D01*
X69050000Y-67000000D02*
X62545000Y-60495000D01*
X107700000Y-54575000D02*
X107050000Y-55225000D01*
D18*
X116100000Y-58700000D02*
X115600000Y-59200000D01*
D17*
X105375000Y-55225000D02*
X104300000Y-56300000D01*
X107580700Y-55225000D02*
X107050000Y-55225000D01*
X116369000Y-59031000D02*
X116600000Y-58800000D01*
X103800000Y-55800000D02*
X104300000Y-56300000D01*
X113403072Y-61150000D02*
X115250000Y-61150000D01*
X115250000Y-61150000D02*
X116369000Y-60031000D01*
X116369000Y-60031000D02*
X116369000Y-59031000D01*
D18*
X103800000Y-54994100D02*
X102800000Y-54994100D01*
D17*
X111100000Y-59244300D02*
X111455700Y-59600000D01*
X111100000Y-59244300D02*
X111100000Y-58744300D01*
D18*
X116700000Y-58700000D02*
X116100000Y-58700000D01*
D17*
X111455700Y-59600000D02*
X111900000Y-59600000D01*
X111900000Y-59600000D02*
X111900000Y-59646928D01*
X107050000Y-55225000D02*
X105375000Y-55225000D01*
X103800000Y-54994100D02*
X103800000Y-55800000D01*
X111100000Y-58744300D02*
X107580700Y-55225000D01*
X111900000Y-59646928D02*
X113403072Y-61150000D01*
D18*
X112300000Y-52600000D02*
X111800000Y-52100000D01*
X108700000Y-51100000D02*
X109700000Y-52100000D01*
X112300000Y-54300000D02*
X112300000Y-52600000D01*
X93000000Y-51100000D02*
X108700000Y-51100000D01*
X112300000Y-51400000D02*
X112300000Y-52600000D01*
X112300500Y-51399500D02*
X112300000Y-51400000D01*
X111800000Y-52100000D02*
X111600000Y-52100000D01*
X111600000Y-52100000D02*
X109700000Y-52100000D01*
X92000000Y-52100000D02*
X93000000Y-51100000D01*
X88100000Y-52100000D02*
X92000000Y-52100000D01*
X86500000Y-53993000D02*
X87193000Y-53300000D01*
X103974600Y-52300000D02*
X103912500Y-52237900D01*
X86112500Y-61700000D02*
X89500000Y-61700000D01*
X104800000Y-52300000D02*
X103974600Y-52300000D01*
X91500000Y-54662500D02*
X92562500Y-53600000D01*
X103912500Y-52237900D02*
X103887100Y-52212500D01*
X91500000Y-59700000D02*
X91500000Y-54662500D01*
X92262500Y-53300000D02*
X92562500Y-53600000D01*
X87193000Y-53300000D02*
X92262500Y-53300000D01*
X99900000Y-53600000D02*
X92562500Y-53600000D01*
X101287500Y-52212500D02*
X99900000Y-53600000D01*
X103887100Y-52212500D02*
X101900000Y-52212500D01*
X89500000Y-61700000D02*
X91500000Y-59700000D01*
X84037500Y-63775000D02*
X86112500Y-61700000D01*
X101900000Y-52212500D02*
X101287500Y-52212500D01*
X86500000Y-54000000D02*
X86500000Y-53993000D01*
D19*
X117200000Y-48300000D02*
X117200000Y-46225000D01*
X114400000Y-51200000D02*
X114400000Y-49211000D01*
X114400000Y-49211000D02*
X114811000Y-48800000D01*
X114811000Y-48800000D02*
X116700000Y-48800000D01*
X114500000Y-51300000D02*
X114400000Y-51200000D01*
X117200000Y-46225000D02*
X118425000Y-45000000D01*
X116700000Y-48800000D02*
X117200000Y-48300000D01*
D20*
X84900000Y-52459210D02*
X86959210Y-50400000D01*
X86959210Y-50400000D02*
X87800000Y-50400000D01*
X84900000Y-54200000D02*
X84900000Y-52459210D01*
X87800000Y-50400000D02*
X90485000Y-47715000D01*
X89200000Y-46285000D02*
X90485000Y-45000000D01*
X86854000Y-50146000D02*
X87694790Y-50146000D01*
X84200000Y-52800000D02*
X86854000Y-50146000D01*
X89200000Y-48640790D02*
X89200000Y-46285000D01*
X84200000Y-54200000D02*
X84200000Y-52800000D01*
X87694790Y-50146000D02*
X89200000Y-48640790D01*
D19*
X117200000Y-53300000D02*
X116600000Y-53900000D01*
X117200000Y-51305000D02*
X117200000Y-53300000D01*
X116600000Y-53900000D02*
X115300000Y-53900000D01*
X115300000Y-53900000D02*
X115000000Y-53600000D01*
G04 #@! TA.AperFunction,Conductor*
G36*
X119988703Y-44201822D02*
G01*
X120020294Y-44244024D01*
X120090338Y-44397399D01*
X120096521Y-44413976D01*
X120159906Y-44629849D01*
X120163667Y-44647136D01*
X120196781Y-44877455D01*
X120197403Y-44885179D01*
X120199500Y-45002696D01*
X120199500Y-65997338D01*
X120197403Y-66114822D01*
X120196781Y-66122547D01*
X120163668Y-66352856D01*
X120159907Y-66370143D01*
X120096518Y-66586029D01*
X120090335Y-66602607D01*
X119996867Y-66807273D01*
X119988388Y-66822801D01*
X119866743Y-67012082D01*
X119856141Y-67026245D01*
X119708801Y-67196285D01*
X119696291Y-67208795D01*
X119526247Y-67356139D01*
X119512084Y-67366741D01*
X119322797Y-67488390D01*
X119307268Y-67496869D01*
X119102599Y-67590338D01*
X119086022Y-67596521D01*
X118870149Y-67659906D01*
X118852862Y-67663667D01*
X118622543Y-67696781D01*
X118614819Y-67697403D01*
X118497305Y-67699500D01*
X94457804Y-67699500D01*
X94390765Y-67679815D01*
X94345010Y-67627011D01*
X94335066Y-67557853D01*
X94364091Y-67494297D01*
X94370123Y-67487819D01*
X95505086Y-66352856D01*
X95798395Y-66059547D01*
X107871500Y-66059547D01*
X107874580Y-66090815D01*
X107886091Y-66207699D01*
X107943760Y-66397808D01*
X108037401Y-66572998D01*
X108037405Y-66573005D01*
X108163431Y-66726568D01*
X108316994Y-66852594D01*
X108317001Y-66852598D01*
X108492191Y-66946239D01*
X108492193Y-66946239D01*
X108492196Y-66946241D01*
X108682299Y-67003908D01*
X108682298Y-67003908D01*
X108700024Y-67005653D01*
X108880000Y-67023380D01*
X109077701Y-67003908D01*
X109267804Y-66946241D01*
X109443004Y-66852595D01*
X109596568Y-66726568D01*
X109722595Y-66573004D01*
X109816241Y-66397804D01*
X109873908Y-66207701D01*
X109888500Y-66059547D01*
X116511500Y-66059547D01*
X116514580Y-66090815D01*
X116526091Y-66207699D01*
X116583760Y-66397808D01*
X116677401Y-66572998D01*
X116677405Y-66573005D01*
X116803431Y-66726568D01*
X116956994Y-66852594D01*
X116957001Y-66852598D01*
X117132191Y-66946239D01*
X117132193Y-66946239D01*
X117132196Y-66946241D01*
X117322299Y-67003908D01*
X117322298Y-67003908D01*
X117340024Y-67005653D01*
X117520000Y-67023380D01*
X117717701Y-67003908D01*
X117907804Y-66946241D01*
X118083004Y-66852595D01*
X118236568Y-66726568D01*
X118362595Y-66573004D01*
X118456241Y-66397804D01*
X118513908Y-66207701D01*
X118528500Y-66059547D01*
X118528500Y-65160453D01*
X118513908Y-65012299D01*
X118456241Y-64822196D01*
X118456239Y-64822193D01*
X118456239Y-64822191D01*
X118362598Y-64647001D01*
X118362594Y-64646994D01*
X118236568Y-64493431D01*
X118083005Y-64367405D01*
X118082998Y-64367401D01*
X117907808Y-64273760D01*
X117790387Y-64238141D01*
X117717701Y-64216092D01*
X117717699Y-64216091D01*
X117717701Y-64216091D01*
X117520000Y-64196620D01*
X117322300Y-64216091D01*
X117132191Y-64273760D01*
X116957001Y-64367401D01*
X116956994Y-64367405D01*
X116803431Y-64493431D01*
X116677405Y-64646994D01*
X116677401Y-64647001D01*
X116583760Y-64822191D01*
X116526091Y-65012300D01*
X116519450Y-65079731D01*
X116511500Y-65160453D01*
X116511500Y-66059547D01*
X109888500Y-66059547D01*
X109888500Y-65160453D01*
X109873908Y-65012299D01*
X109816241Y-64822196D01*
X109816239Y-64822193D01*
X109816239Y-64822191D01*
X109722598Y-64647001D01*
X109722594Y-64646994D01*
X109596568Y-64493431D01*
X109443005Y-64367405D01*
X109442998Y-64367401D01*
X109267808Y-64273760D01*
X109150387Y-64238141D01*
X109077701Y-64216092D01*
X109077699Y-64216091D01*
X109077701Y-64216091D01*
X108880000Y-64196620D01*
X108682300Y-64216091D01*
X108492191Y-64273760D01*
X108317001Y-64367401D01*
X108316994Y-64367405D01*
X108163431Y-64493431D01*
X108037405Y-64646994D01*
X108037401Y-64647001D01*
X107943760Y-64822191D01*
X107886091Y-65012300D01*
X107879450Y-65079731D01*
X107871500Y-65160453D01*
X107871500Y-66059547D01*
X95798395Y-66059547D01*
X98857940Y-63000000D01*
X103143910Y-63000000D01*
X103162618Y-63177993D01*
X103162619Y-63177995D01*
X103217920Y-63348197D01*
X103217923Y-63348203D01*
X103307409Y-63503197D01*
X103427164Y-63636199D01*
X103465776Y-63664252D01*
X103571956Y-63741397D01*
X103652150Y-63777101D01*
X103735454Y-63814190D01*
X103910514Y-63851400D01*
X103910515Y-63851400D01*
X104089484Y-63851400D01*
X104089486Y-63851400D01*
X104264546Y-63814190D01*
X104428045Y-63741396D01*
X104572836Y-63636199D01*
X104692591Y-63503197D01*
X104782077Y-63348203D01*
X104837382Y-63177991D01*
X104856090Y-63000000D01*
X104837382Y-62822009D01*
X104795751Y-62693880D01*
X104782079Y-62651802D01*
X104782076Y-62651796D01*
X104762030Y-62617075D01*
X104692591Y-62496803D01*
X104572836Y-62363801D01*
X104524572Y-62328735D01*
X104428043Y-62258602D01*
X104264544Y-62185809D01*
X104132294Y-62157699D01*
X104089486Y-62148600D01*
X103910514Y-62148600D01*
X103873305Y-62156508D01*
X103735455Y-62185809D01*
X103735454Y-62185809D01*
X103571956Y-62258602D01*
X103427162Y-62363802D01*
X103307408Y-62496804D01*
X103217923Y-62651796D01*
X103217920Y-62651802D01*
X103162619Y-62822004D01*
X103162618Y-62822006D01*
X103143910Y-63000000D01*
X98857940Y-63000000D01*
X99072568Y-62785372D01*
X99087358Y-62772741D01*
X99098470Y-62764669D01*
X99129208Y-62730529D01*
X99188694Y-62693880D01*
X99221360Y-62689500D01*
X99846615Y-62689500D01*
X99846620Y-62689500D01*
X99985956Y-62674855D01*
X100163785Y-62617075D01*
X100325715Y-62523585D01*
X100464669Y-62398470D01*
X100574573Y-62247200D01*
X100640332Y-62099501D01*
X100650623Y-62076390D01*
X100650625Y-62076384D01*
X100659002Y-62036976D01*
X100664832Y-62009547D01*
X107871500Y-62009547D01*
X107873848Y-62033388D01*
X107886091Y-62157699D01*
X107943760Y-62347808D01*
X108037401Y-62522998D01*
X108037405Y-62523005D01*
X108163431Y-62676568D01*
X108316994Y-62802594D01*
X108317001Y-62802598D01*
X108492191Y-62896239D01*
X108492193Y-62896239D01*
X108492196Y-62896241D01*
X108682299Y-62953908D01*
X108682298Y-62953908D01*
X108701770Y-62955825D01*
X108880000Y-62973380D01*
X109077701Y-62953908D01*
X109267804Y-62896241D01*
X109277694Y-62890955D01*
X109382457Y-62834958D01*
X109443004Y-62802595D01*
X109596568Y-62676568D01*
X109722595Y-62523004D01*
X109774364Y-62426149D01*
X109823324Y-62376307D01*
X109891461Y-62360846D01*
X109957141Y-62384677D01*
X109959208Y-62386229D01*
X110019765Y-62432697D01*
X110019767Y-62432698D01*
X110159764Y-62490687D01*
X110272280Y-62505500D01*
X110272287Y-62505500D01*
X110347713Y-62505500D01*
X110347720Y-62505500D01*
X110460236Y-62490687D01*
X110600233Y-62432698D01*
X110720451Y-62340451D01*
X110812698Y-62220233D01*
X110870687Y-62080236D01*
X110890466Y-61930000D01*
X110870687Y-61779764D01*
X110812698Y-61639767D01*
X110720451Y-61519549D01*
X110600233Y-61427302D01*
X110600229Y-61427300D01*
X110536801Y-61401027D01*
X110460236Y-61369313D01*
X110446171Y-61367461D01*
X110347727Y-61354500D01*
X110347720Y-61354500D01*
X110272280Y-61354500D01*
X110272272Y-61354500D01*
X110159764Y-61369313D01*
X110159760Y-61369314D01*
X110059952Y-61410656D01*
X109990483Y-61418125D01*
X109928004Y-61386850D01*
X109892352Y-61326761D01*
X109888500Y-61296095D01*
X109888500Y-60810456D01*
X109882167Y-60746160D01*
X109873908Y-60662299D01*
X109816241Y-60472196D01*
X109816239Y-60472193D01*
X109816239Y-60472191D01*
X109722598Y-60297001D01*
X109722594Y-60296994D01*
X109596568Y-60143431D01*
X109443005Y-60017405D01*
X109442998Y-60017401D01*
X109267808Y-59923760D01*
X109122666Y-59879732D01*
X109077701Y-59866092D01*
X109077699Y-59866091D01*
X109077701Y-59866091D01*
X108880000Y-59846620D01*
X108682300Y-59866091D01*
X108492191Y-59923760D01*
X108317001Y-60017401D01*
X108316994Y-60017405D01*
X108163431Y-60143431D01*
X108037405Y-60296994D01*
X108037401Y-60297001D01*
X107943760Y-60472191D01*
X107886091Y-60662300D01*
X107879277Y-60731488D01*
X107871500Y-60810453D01*
X107871500Y-62009547D01*
X100664832Y-62009547D01*
X100689500Y-61893490D01*
X100689500Y-61706510D01*
X100650625Y-61523615D01*
X100650623Y-61523609D01*
X100620073Y-61454996D01*
X100574573Y-61352800D01*
X100574570Y-61352796D01*
X100574570Y-61352795D01*
X100464669Y-61201530D01*
X100325713Y-61076413D01*
X100163786Y-60982925D01*
X99985960Y-60925146D01*
X99985958Y-60925145D01*
X99943637Y-60920697D01*
X99846620Y-60910500D01*
X98593490Y-60910500D01*
X98406510Y-60910500D01*
X98406508Y-60910500D01*
X98363838Y-60919569D01*
X98357427Y-60920584D01*
X98314044Y-60925144D01*
X98314041Y-60925145D01*
X98305196Y-60928019D01*
X98235355Y-60930010D01*
X98175524Y-60893926D01*
X98147112Y-60842184D01*
X98113452Y-60716564D01*
X98028856Y-60559670D01*
X97934072Y-60453163D01*
X97910359Y-60426517D01*
X97910358Y-60426516D01*
X97764347Y-60324277D01*
X97764345Y-60324276D01*
X97764342Y-60324274D01*
X97598696Y-60258467D01*
X97422329Y-60232633D01*
X97422324Y-60232632D01*
X97244761Y-60248168D01*
X97244758Y-60248169D01*
X97075562Y-60304233D01*
X97075559Y-60304234D01*
X96923854Y-60397808D01*
X96923850Y-60397811D01*
X94417174Y-62904487D01*
X94355851Y-62937972D01*
X94286159Y-62932988D01*
X94241812Y-62904487D01*
X94160223Y-62822898D01*
X94020268Y-62734958D01*
X93864246Y-62680364D01*
X93700004Y-62661859D01*
X93699996Y-62661859D01*
X93535753Y-62680364D01*
X93379732Y-62734958D01*
X93315969Y-62775022D01*
X93248732Y-62794021D01*
X93184027Y-62775021D01*
X93120266Y-62734957D01*
X92964246Y-62680364D01*
X92800004Y-62661859D01*
X92799996Y-62661859D01*
X92635753Y-62680364D01*
X92479731Y-62734958D01*
X92465968Y-62743606D01*
X92398731Y-62762604D01*
X92334029Y-62743605D01*
X92320265Y-62734957D01*
X92164246Y-62680364D01*
X92000004Y-62661859D01*
X91999996Y-62661859D01*
X91835753Y-62680364D01*
X91679731Y-62734958D01*
X91539776Y-62822898D01*
X91422898Y-62939776D01*
X91334958Y-63079731D01*
X91280364Y-63235753D01*
X91261859Y-63399996D01*
X91261859Y-63400003D01*
X91280364Y-63564246D01*
X91334958Y-63720268D01*
X91414921Y-63847528D01*
X91433921Y-63914765D01*
X91413553Y-63981600D01*
X91360285Y-64026814D01*
X91309927Y-64037500D01*
X88855588Y-64037500D01*
X88752431Y-64049557D01*
X88722956Y-64053002D01*
X88722954Y-64053003D01*
X88555462Y-64113965D01*
X88555458Y-64113967D01*
X88406540Y-64211912D01*
X88406539Y-64211913D01*
X88284218Y-64341565D01*
X88284214Y-64341570D01*
X88195094Y-64495933D01*
X88195093Y-64495934D01*
X88160386Y-64611862D01*
X88122301Y-64670439D01*
X88058592Y-64699127D01*
X87989488Y-64688817D01*
X87936927Y-64642783D01*
X87936602Y-64642269D01*
X87877101Y-64547574D01*
X87760223Y-64430696D01*
X87620268Y-64342756D01*
X87464246Y-64288162D01*
X87300004Y-64269657D01*
X87299996Y-64269657D01*
X87135753Y-64288162D01*
X86979731Y-64342756D01*
X86839776Y-64430696D01*
X86722898Y-64547574D01*
X86634958Y-64687529D01*
X86580364Y-64843551D01*
X86561859Y-65007794D01*
X86561859Y-65007801D01*
X86580364Y-65172044D01*
X86634958Y-65328066D01*
X86706168Y-65441395D01*
X86722898Y-65468021D01*
X86839777Y-65584900D01*
X86979733Y-65672840D01*
X87135748Y-65727432D01*
X87135751Y-65727432D01*
X87135753Y-65727433D01*
X87299996Y-65745939D01*
X87300000Y-65745939D01*
X87300004Y-65745939D01*
X87464246Y-65727433D01*
X87464247Y-65727432D01*
X87464252Y-65727432D01*
X87620267Y-65672840D01*
X87760223Y-65584900D01*
X87877102Y-65468021D01*
X87965042Y-65328065D01*
X88009120Y-65202095D01*
X88049841Y-65145322D01*
X88114793Y-65119574D01*
X88183355Y-65133030D01*
X88230602Y-65178234D01*
X88230848Y-65178052D01*
X88231929Y-65179504D01*
X88233550Y-65181055D01*
X88235160Y-65183844D01*
X88235160Y-65183845D01*
X88341602Y-65326822D01*
X88478147Y-65441396D01*
X88637434Y-65521394D01*
X88810877Y-65562500D01*
X93480194Y-65562500D01*
X93547233Y-65582185D01*
X93592988Y-65634989D01*
X93602932Y-65704147D01*
X93573907Y-65767703D01*
X93567875Y-65774181D01*
X93267876Y-66074181D01*
X93206553Y-66107666D01*
X93180195Y-66110500D01*
X85859940Y-66110500D01*
X85792901Y-66090815D01*
X85747146Y-66038011D01*
X85736720Y-65972618D01*
X85738141Y-65960005D01*
X85738141Y-65959996D01*
X85719635Y-65795753D01*
X85719634Y-65795751D01*
X85719634Y-65795748D01*
X85665042Y-65639733D01*
X85577102Y-65499777D01*
X85460223Y-65382898D01*
X85320268Y-65294958D01*
X85164246Y-65240364D01*
X85000004Y-65221859D01*
X84999996Y-65221859D01*
X84835753Y-65240364D01*
X84679731Y-65294958D01*
X84539776Y-65382898D01*
X84422898Y-65499776D01*
X84334958Y-65639731D01*
X84280364Y-65795753D01*
X84261859Y-65959996D01*
X84261859Y-65960005D01*
X84263280Y-65972618D01*
X84251225Y-66041439D01*
X84203876Y-66092818D01*
X84140060Y-66110500D01*
X81326187Y-66110500D01*
X81259148Y-66090815D01*
X81213393Y-66038011D01*
X81203449Y-65968853D01*
X81232474Y-65905297D01*
X81238506Y-65898819D01*
X81277102Y-65860223D01*
X81365042Y-65720267D01*
X81419634Y-65564252D01*
X81419635Y-65564246D01*
X81438141Y-65400003D01*
X81438141Y-65399996D01*
X81419635Y-65235753D01*
X81419634Y-65235751D01*
X81419634Y-65235748D01*
X81365042Y-65079733D01*
X81277102Y-64939777D01*
X81160223Y-64822898D01*
X81159098Y-64822191D01*
X81020268Y-64734958D01*
X80898786Y-64692450D01*
X80864252Y-64680366D01*
X80864251Y-64680365D01*
X80864246Y-64680364D01*
X80700004Y-64661859D01*
X80699996Y-64661859D01*
X80535753Y-64680364D01*
X80379731Y-64734958D01*
X80239776Y-64822898D01*
X80122898Y-64939776D01*
X80034958Y-65079731D01*
X79980364Y-65235753D01*
X79961859Y-65399996D01*
X79961859Y-65400003D01*
X79980364Y-65564246D01*
X80034958Y-65720268D01*
X80122898Y-65860223D01*
X80161494Y-65898819D01*
X80194979Y-65960142D01*
X80189995Y-66029834D01*
X80148123Y-66085767D01*
X80082659Y-66110184D01*
X80073813Y-66110500D01*
X69469805Y-66110500D01*
X69402766Y-66090815D01*
X69382124Y-66074181D01*
X66807946Y-63500003D01*
X71661859Y-63500003D01*
X71680364Y-63664246D01*
X71734958Y-63820268D01*
X71752087Y-63847528D01*
X71822898Y-63960223D01*
X71939777Y-64077102D01*
X72079733Y-64165042D01*
X72235748Y-64219634D01*
X72235751Y-64219634D01*
X72235753Y-64219635D01*
X72399996Y-64238141D01*
X72400000Y-64238141D01*
X72400004Y-64238141D01*
X72564246Y-64219635D01*
X72564247Y-64219634D01*
X72564252Y-64219634D01*
X72720267Y-64165042D01*
X72860223Y-64077102D01*
X72977102Y-63960223D01*
X73065042Y-63820267D01*
X73072133Y-63800003D01*
X78261859Y-63800003D01*
X78280364Y-63964246D01*
X78334958Y-64120268D01*
X78395168Y-64216091D01*
X78422898Y-64260223D01*
X78539777Y-64377102D01*
X78679733Y-64465042D01*
X78835748Y-64519634D01*
X78835751Y-64519634D01*
X78835753Y-64519635D01*
X78999996Y-64538141D01*
X79000000Y-64538141D01*
X79000004Y-64538141D01*
X79164246Y-64519635D01*
X79164247Y-64519634D01*
X79164252Y-64519634D01*
X79320267Y-64465042D01*
X79460223Y-64377102D01*
X79577102Y-64260223D01*
X79665042Y-64120267D01*
X79719634Y-63964252D01*
X79738141Y-63800000D01*
X79736608Y-63786400D01*
X79748660Y-63717581D01*
X79796007Y-63666200D01*
X79863617Y-63648573D01*
X79930023Y-63670297D01*
X79947509Y-63684833D01*
X80039777Y-63777102D01*
X80122558Y-63829116D01*
X80172063Y-63860223D01*
X80179733Y-63865042D01*
X80335748Y-63919634D01*
X80335751Y-63919634D01*
X80335753Y-63919635D01*
X80499996Y-63938141D01*
X80500000Y-63938141D01*
X80500004Y-63938141D01*
X80664246Y-63919635D01*
X80664247Y-63919634D01*
X80664252Y-63919634D01*
X80820267Y-63865042D01*
X80960223Y-63777102D01*
X81077102Y-63660223D01*
X81165042Y-63520267D01*
X81219634Y-63364252D01*
X81221079Y-63351426D01*
X81238141Y-63200003D01*
X81238141Y-63199996D01*
X81219635Y-63035751D01*
X81207125Y-63000000D01*
X81168967Y-62890952D01*
X81165406Y-62821176D01*
X81168968Y-62809046D01*
X81219634Y-62664252D01*
X81219634Y-62664250D01*
X81219635Y-62664248D01*
X81238141Y-62500003D01*
X81238141Y-62499996D01*
X81219635Y-62335751D01*
X81188651Y-62247204D01*
X81168967Y-62190952D01*
X81165406Y-62121176D01*
X81168968Y-62109046D01*
X81219634Y-61964252D01*
X81219634Y-61964250D01*
X81219635Y-61964248D01*
X81238141Y-61800003D01*
X81238141Y-61799996D01*
X81219635Y-61635753D01*
X81219634Y-61635751D01*
X81219634Y-61635748D01*
X81165042Y-61479733D01*
X81155810Y-61465041D01*
X81104505Y-61383389D01*
X81077102Y-61339777D01*
X80960223Y-61222898D01*
X80915951Y-61195080D01*
X80820268Y-61134958D01*
X80664246Y-61080364D01*
X80500004Y-61061859D01*
X80499996Y-61061859D01*
X80335751Y-61080364D01*
X80328966Y-61081914D01*
X80328372Y-61079316D01*
X80270722Y-61082237D01*
X80218598Y-61052353D01*
X80215694Y-61084014D01*
X80172707Y-61139094D01*
X80166380Y-61143347D01*
X80039778Y-61222896D01*
X79922898Y-61339776D01*
X79834958Y-61479731D01*
X79780364Y-61635753D01*
X79761859Y-61799996D01*
X79761859Y-61800003D01*
X79780364Y-61964246D01*
X79780365Y-61964251D01*
X79780366Y-61964252D01*
X79783893Y-61974332D01*
X79831031Y-62109046D01*
X79834592Y-62178825D01*
X79831031Y-62190954D01*
X79780364Y-62335753D01*
X79761859Y-62499996D01*
X79761859Y-62500003D01*
X79780364Y-62664246D01*
X79831031Y-62809046D01*
X79834592Y-62878825D01*
X79831031Y-62890954D01*
X79780364Y-63035753D01*
X79761859Y-63199996D01*
X79761859Y-63200003D01*
X79763391Y-63213601D01*
X79751336Y-63282423D01*
X79703987Y-63333802D01*
X79636377Y-63351426D01*
X79569971Y-63329699D01*
X79552490Y-63315165D01*
X79460223Y-63222898D01*
X79320268Y-63134958D01*
X79164246Y-63080364D01*
X79000004Y-63061859D01*
X78999996Y-63061859D01*
X78835753Y-63080364D01*
X78679731Y-63134958D01*
X78539776Y-63222898D01*
X78422898Y-63339776D01*
X78334958Y-63479731D01*
X78280364Y-63635753D01*
X78261859Y-63799996D01*
X78261859Y-63800003D01*
X73072133Y-63800003D01*
X73119634Y-63664252D01*
X73122846Y-63635748D01*
X73138141Y-63500003D01*
X73138141Y-63499996D01*
X73119635Y-63335753D01*
X73119634Y-63335751D01*
X73119634Y-63335748D01*
X73065042Y-63179733D01*
X73063947Y-63177991D01*
X72977101Y-63039776D01*
X72860223Y-62922898D01*
X72720268Y-62834958D01*
X72564246Y-62780364D01*
X72400004Y-62761859D01*
X72399996Y-62761859D01*
X72235753Y-62780364D01*
X72079731Y-62834958D01*
X71939776Y-62922898D01*
X71822898Y-63039776D01*
X71734958Y-63179731D01*
X71680364Y-63335753D01*
X71661859Y-63499996D01*
X71661859Y-63500003D01*
X66807946Y-63500003D01*
X64607946Y-61300003D01*
X77361859Y-61300003D01*
X77380364Y-61464246D01*
X77380365Y-61464251D01*
X77380366Y-61464252D01*
X77381675Y-61467993D01*
X77434958Y-61620268D01*
X77447606Y-61640397D01*
X77522898Y-61760223D01*
X77639777Y-61877102D01*
X77722558Y-61929116D01*
X77778475Y-61964252D01*
X77779733Y-61965042D01*
X77935748Y-62019634D01*
X77935751Y-62019634D01*
X77935753Y-62019635D01*
X78099996Y-62038141D01*
X78100000Y-62038141D01*
X78100004Y-62038141D01*
X78264246Y-62019635D01*
X78264247Y-62019634D01*
X78264252Y-62019634D01*
X78420267Y-61965042D01*
X78560223Y-61877102D01*
X78677102Y-61760223D01*
X78765042Y-61620267D01*
X78768939Y-61609128D01*
X78809658Y-61552351D01*
X78874610Y-61526602D01*
X78899865Y-61526859D01*
X78999996Y-61538141D01*
X79000000Y-61538141D01*
X79000004Y-61538141D01*
X79164246Y-61519635D01*
X79164247Y-61519634D01*
X79164252Y-61519634D01*
X79320267Y-61465042D01*
X79460223Y-61377102D01*
X79577102Y-61260223D01*
X79665042Y-61120267D01*
X79702605Y-61012915D01*
X79743327Y-60956141D01*
X79808279Y-60930393D01*
X79833524Y-60930650D01*
X79891379Y-60937169D01*
X79899999Y-60938141D01*
X79900000Y-60938141D01*
X79900004Y-60938141D01*
X80064248Y-60919635D01*
X80071034Y-60918086D01*
X80071630Y-60920697D01*
X80129195Y-60917742D01*
X80181403Y-60947627D01*
X80184336Y-60915907D01*
X80227360Y-60860856D01*
X80233602Y-60856662D01*
X80360223Y-60777102D01*
X80477102Y-60660223D01*
X80565042Y-60520267D01*
X80619634Y-60364252D01*
X80619635Y-60364246D01*
X80638141Y-60200003D01*
X80638141Y-60199996D01*
X80619635Y-60035753D01*
X80619634Y-60035751D01*
X80619634Y-60035748D01*
X80565042Y-59879733D01*
X80550630Y-59856797D01*
X80508103Y-59789115D01*
X80477102Y-59739777D01*
X80360223Y-59622898D01*
X80336648Y-59608085D01*
X80259331Y-59559503D01*
X80213040Y-59507168D01*
X80202392Y-59438114D01*
X80230767Y-59374266D01*
X80289157Y-59335894D01*
X80339187Y-59331289D01*
X80399998Y-59338141D01*
X80400000Y-59338141D01*
X80400004Y-59338141D01*
X80564246Y-59319635D01*
X80564247Y-59319634D01*
X80564252Y-59319634D01*
X80720267Y-59265042D01*
X80860223Y-59177102D01*
X80977102Y-59060223D01*
X81065042Y-58920267D01*
X81119634Y-58764252D01*
X81121310Y-58749376D01*
X81138141Y-58600003D01*
X81138141Y-58599996D01*
X81119635Y-58435755D01*
X81119634Y-58435754D01*
X81119634Y-58435748D01*
X81065042Y-58279733D01*
X81065039Y-58279729D01*
X81062922Y-58273677D01*
X81059361Y-58203898D01*
X81092280Y-58145044D01*
X81177102Y-58060223D01*
X81265042Y-57920267D01*
X81319634Y-57764252D01*
X81329157Y-57679733D01*
X81338141Y-57600003D01*
X81338141Y-57599996D01*
X81319635Y-57435753D01*
X81319634Y-57435751D01*
X81319634Y-57435748D01*
X81265042Y-57279733D01*
X81177102Y-57139777D01*
X81060223Y-57022898D01*
X81019013Y-56997004D01*
X80920268Y-56934958D01*
X80764246Y-56880364D01*
X80600004Y-56861859D01*
X80599996Y-56861859D01*
X80435753Y-56880364D01*
X80279731Y-56934958D01*
X80139776Y-57022898D01*
X80022898Y-57139776D01*
X79934958Y-57279731D01*
X79880364Y-57435753D01*
X79861859Y-57599996D01*
X79861859Y-57600003D01*
X79880364Y-57764246D01*
X79880365Y-57764251D01*
X79880366Y-57764252D01*
X79899745Y-57819634D01*
X79937077Y-57926323D01*
X79940638Y-57996102D01*
X79907717Y-58054958D01*
X79822897Y-58139778D01*
X79734958Y-58279731D01*
X79680364Y-58435753D01*
X79661859Y-58599996D01*
X79661859Y-58600003D01*
X79680364Y-58764246D01*
X79734958Y-58920268D01*
X79800667Y-59024842D01*
X79822898Y-59060223D01*
X79939777Y-59177102D01*
X79972511Y-59197670D01*
X80040668Y-59240496D01*
X80086959Y-59292831D01*
X80097607Y-59361884D01*
X80069232Y-59425733D01*
X80010842Y-59464105D01*
X79960813Y-59468710D01*
X79900004Y-59461859D01*
X79899996Y-59461859D01*
X79735753Y-59480364D01*
X79579731Y-59534958D01*
X79439776Y-59622898D01*
X79322898Y-59739776D01*
X79234957Y-59879732D01*
X79234956Y-59879736D01*
X79197394Y-59987082D01*
X79156673Y-60043858D01*
X79091720Y-60069605D01*
X79066471Y-60069347D01*
X79000005Y-60061859D01*
X78999996Y-60061859D01*
X78835753Y-60080364D01*
X78679731Y-60134958D01*
X78539776Y-60222898D01*
X78422898Y-60339776D01*
X78334959Y-60479730D01*
X78331057Y-60490881D01*
X78290332Y-60547655D01*
X78225379Y-60573399D01*
X78200133Y-60573141D01*
X78100003Y-60561859D01*
X78099996Y-60561859D01*
X77935753Y-60580364D01*
X77779731Y-60634958D01*
X77639776Y-60722898D01*
X77522898Y-60839776D01*
X77434958Y-60979731D01*
X77380364Y-61135753D01*
X77361859Y-61299996D01*
X77361859Y-61300003D01*
X64607946Y-61300003D01*
X63807946Y-60500003D01*
X74261859Y-60500003D01*
X74280364Y-60664246D01*
X74334958Y-60820268D01*
X74407912Y-60936373D01*
X74422898Y-60960223D01*
X74539777Y-61077102D01*
X74622558Y-61129116D01*
X74674786Y-61161934D01*
X74679733Y-61165042D01*
X74835748Y-61219634D01*
X74835751Y-61219634D01*
X74835753Y-61219635D01*
X74999996Y-61238141D01*
X75000000Y-61238141D01*
X75000004Y-61238141D01*
X75164246Y-61219635D01*
X75164247Y-61219634D01*
X75164252Y-61219634D01*
X75320267Y-61165042D01*
X75460223Y-61077102D01*
X75577102Y-60960223D01*
X75665042Y-60820267D01*
X75719634Y-60664252D01*
X75720383Y-60657603D01*
X75738141Y-60500003D01*
X75738141Y-60499996D01*
X75719635Y-60335753D01*
X75719634Y-60335751D01*
X75719634Y-60335748D01*
X75665042Y-60179733D01*
X75664879Y-60179474D01*
X75606118Y-60085956D01*
X75577102Y-60039777D01*
X75460223Y-59922898D01*
X75430144Y-59903998D01*
X75320268Y-59834958D01*
X75189255Y-59789115D01*
X75164252Y-59780366D01*
X75164251Y-59780365D01*
X75164246Y-59780364D01*
X75000004Y-59761859D01*
X74999996Y-59761859D01*
X74835753Y-59780364D01*
X74679731Y-59834958D01*
X74539776Y-59922898D01*
X74422898Y-60039776D01*
X74334958Y-60179731D01*
X74280364Y-60335753D01*
X74261859Y-60499996D01*
X74261859Y-60500003D01*
X63807946Y-60500003D01*
X63470819Y-60162876D01*
X63437334Y-60101553D01*
X63434500Y-60075195D01*
X63434500Y-54400003D01*
X70461859Y-54400003D01*
X70480364Y-54564246D01*
X70480365Y-54564251D01*
X70480366Y-54564252D01*
X70481686Y-54568023D01*
X70534958Y-54720268D01*
X70614426Y-54846740D01*
X70622898Y-54860223D01*
X70739777Y-54977102D01*
X70776219Y-55000000D01*
X70856557Y-55050480D01*
X70879733Y-55065042D01*
X71035748Y-55119634D01*
X71035751Y-55119634D01*
X71035753Y-55119635D01*
X71199996Y-55138141D01*
X71200000Y-55138141D01*
X71200004Y-55138141D01*
X71364246Y-55119635D01*
X71364247Y-55119634D01*
X71364252Y-55119634D01*
X71520267Y-55065042D01*
X71660223Y-54977102D01*
X71777102Y-54860223D01*
X71865042Y-54720267D01*
X71919634Y-54564252D01*
X71919672Y-54563914D01*
X71938141Y-54400003D01*
X71938141Y-54399996D01*
X71919635Y-54235753D01*
X71919634Y-54235751D01*
X71919634Y-54235748D01*
X71865042Y-54079733D01*
X71777102Y-53939777D01*
X71660223Y-53822898D01*
X71623781Y-53800000D01*
X71520268Y-53734958D01*
X71368424Y-53681826D01*
X71364252Y-53680366D01*
X71364251Y-53680365D01*
X71364246Y-53680364D01*
X71200004Y-53661859D01*
X71199996Y-53661859D01*
X71035753Y-53680364D01*
X70879731Y-53734958D01*
X70739776Y-53822898D01*
X70622898Y-53939776D01*
X70534958Y-54079731D01*
X70480364Y-54235753D01*
X70461859Y-54399996D01*
X70461859Y-54400003D01*
X63434500Y-54400003D01*
X63434500Y-52600003D01*
X65661859Y-52600003D01*
X65680364Y-52764246D01*
X65680365Y-52764251D01*
X65680366Y-52764252D01*
X65683079Y-52772004D01*
X65734958Y-52920268D01*
X65817788Y-53052090D01*
X65822898Y-53060223D01*
X65939777Y-53177102D01*
X65959658Y-53189594D01*
X66073306Y-53261004D01*
X66079733Y-53265042D01*
X66235748Y-53319634D01*
X66235751Y-53319634D01*
X66235753Y-53319635D01*
X66399996Y-53338141D01*
X66400000Y-53338141D01*
X66400004Y-53338141D01*
X66564246Y-53319635D01*
X66564247Y-53319634D01*
X66564252Y-53319634D01*
X66720267Y-53265042D01*
X66860223Y-53177102D01*
X66977102Y-53060223D01*
X67065042Y-52920267D01*
X67119634Y-52764252D01*
X67120470Y-52756834D01*
X67138141Y-52600003D01*
X68161859Y-52600003D01*
X68180364Y-52764246D01*
X68180365Y-52764251D01*
X68180366Y-52764252D01*
X68183079Y-52772004D01*
X68234958Y-52920268D01*
X68317788Y-53052090D01*
X68322898Y-53060223D01*
X68439777Y-53177102D01*
X68459658Y-53189594D01*
X68573306Y-53261004D01*
X68579733Y-53265042D01*
X68735748Y-53319634D01*
X68735751Y-53319634D01*
X68735753Y-53319635D01*
X68899996Y-53338141D01*
X68900000Y-53338141D01*
X68900004Y-53338141D01*
X69064246Y-53319635D01*
X69064247Y-53319634D01*
X69064252Y-53319634D01*
X69120354Y-53300003D01*
X78661859Y-53300003D01*
X78680364Y-53464246D01*
X78734958Y-53620268D01*
X78807801Y-53736197D01*
X78822898Y-53760223D01*
X78939777Y-53877102D01*
X79004688Y-53917888D01*
X79058653Y-53951797D01*
X79079733Y-53965042D01*
X79235748Y-54019634D01*
X79235751Y-54019634D01*
X79235753Y-54019635D01*
X79399996Y-54038141D01*
X79400000Y-54038141D01*
X79400004Y-54038141D01*
X79564246Y-54019635D01*
X79564247Y-54019634D01*
X79564252Y-54019634D01*
X79720267Y-53965042D01*
X79860223Y-53877102D01*
X79977102Y-53760223D01*
X80065042Y-53620267D01*
X80119634Y-53464252D01*
X80120421Y-53457268D01*
X80138141Y-53300003D01*
X80138141Y-53299996D01*
X80119635Y-53135753D01*
X80119634Y-53135751D01*
X80119634Y-53135748D01*
X80065042Y-52979733D01*
X80064767Y-52979296D01*
X80002193Y-52879709D01*
X79977102Y-52839777D01*
X79860223Y-52722898D01*
X79820299Y-52697812D01*
X79720268Y-52634958D01*
X79564246Y-52580364D01*
X79400004Y-52561859D01*
X79399996Y-52561859D01*
X79235753Y-52580364D01*
X79079731Y-52634958D01*
X78939776Y-52722898D01*
X78822898Y-52839776D01*
X78734958Y-52979731D01*
X78680364Y-53135753D01*
X78661859Y-53299996D01*
X78661859Y-53300003D01*
X69120354Y-53300003D01*
X69220267Y-53265042D01*
X69360223Y-53177102D01*
X69477102Y-53060223D01*
X69565042Y-52920267D01*
X69619634Y-52764252D01*
X69620470Y-52756834D01*
X69638141Y-52600003D01*
X69638141Y-52599996D01*
X69619635Y-52435753D01*
X69619634Y-52435751D01*
X69619634Y-52435748D01*
X69565042Y-52279733D01*
X69477102Y-52139777D01*
X69360223Y-52022898D01*
X69322928Y-51999464D01*
X69220268Y-51934958D01*
X69064246Y-51880364D01*
X68900004Y-51861859D01*
X68899996Y-51861859D01*
X68735753Y-51880364D01*
X68579731Y-51934958D01*
X68439776Y-52022898D01*
X68322898Y-52139776D01*
X68234958Y-52279731D01*
X68180364Y-52435753D01*
X68161859Y-52599996D01*
X68161859Y-52600003D01*
X67138141Y-52600003D01*
X67138141Y-52599996D01*
X67119635Y-52435753D01*
X67119634Y-52435751D01*
X67119634Y-52435748D01*
X67065042Y-52279733D01*
X66977102Y-52139777D01*
X66860223Y-52022898D01*
X66822928Y-51999464D01*
X66720268Y-51934958D01*
X66564246Y-51880364D01*
X66400004Y-51861859D01*
X66399996Y-51861859D01*
X66235753Y-51880364D01*
X66079731Y-51934958D01*
X65939776Y-52022898D01*
X65822898Y-52139776D01*
X65734958Y-52279731D01*
X65680364Y-52435753D01*
X65661859Y-52599996D01*
X65661859Y-52600003D01*
X63434500Y-52600003D01*
X63434500Y-51500003D01*
X72561859Y-51500003D01*
X72580364Y-51664246D01*
X72634958Y-51820268D01*
X72707023Y-51934958D01*
X72722898Y-51960223D01*
X72839777Y-52077102D01*
X72911246Y-52122009D01*
X72955798Y-52150003D01*
X72979733Y-52165042D01*
X73135748Y-52219634D01*
X73135751Y-52219634D01*
X73135753Y-52219635D01*
X73299996Y-52238141D01*
X73300000Y-52238141D01*
X73300004Y-52238141D01*
X73464246Y-52219635D01*
X73464247Y-52219634D01*
X73464252Y-52219634D01*
X73620267Y-52165042D01*
X73760223Y-52077102D01*
X73877102Y-51960223D01*
X73965042Y-51820267D01*
X74019634Y-51664252D01*
X74019635Y-51664246D01*
X74038141Y-51500003D01*
X74038141Y-51499996D01*
X74019635Y-51335753D01*
X74019634Y-51335751D01*
X74019634Y-51335748D01*
X73965042Y-51179733D01*
X73914944Y-51100003D01*
X77861859Y-51100003D01*
X77880364Y-51264246D01*
X77880365Y-51264251D01*
X77880366Y-51264252D01*
X77891069Y-51294838D01*
X77934958Y-51420268D01*
X77992544Y-51511915D01*
X78022898Y-51560223D01*
X78139777Y-51677102D01*
X78222558Y-51729117D01*
X78266254Y-51756573D01*
X78279733Y-51765042D01*
X78435748Y-51819634D01*
X78435751Y-51819634D01*
X78435753Y-51819635D01*
X78599996Y-51838141D01*
X78600000Y-51838141D01*
X78600004Y-51838141D01*
X78764246Y-51819635D01*
X78764247Y-51819634D01*
X78764252Y-51819634D01*
X78920267Y-51765042D01*
X79060223Y-51677102D01*
X79177102Y-51560223D01*
X79265042Y-51420267D01*
X79319634Y-51264252D01*
X79321125Y-51251019D01*
X79338141Y-51100003D01*
X79338141Y-51099996D01*
X79319635Y-50935753D01*
X79319634Y-50935751D01*
X79319634Y-50935748D01*
X79265042Y-50779733D01*
X79262116Y-50775077D01*
X79229117Y-50722558D01*
X79177102Y-50639777D01*
X79060223Y-50522898D01*
X79027429Y-50502292D01*
X78920268Y-50434958D01*
X78764246Y-50380364D01*
X78600004Y-50361859D01*
X78599996Y-50361859D01*
X78435753Y-50380364D01*
X78279731Y-50434958D01*
X78139776Y-50522898D01*
X78022898Y-50639776D01*
X77934958Y-50779731D01*
X77880364Y-50935753D01*
X77861859Y-51099996D01*
X77861859Y-51100003D01*
X73914944Y-51100003D01*
X73877102Y-51039777D01*
X73760223Y-50922898D01*
X73717899Y-50896304D01*
X73620268Y-50834958D01*
X73464246Y-50780364D01*
X73300004Y-50761859D01*
X73299996Y-50761859D01*
X73135753Y-50780364D01*
X72979731Y-50834958D01*
X72839776Y-50922898D01*
X72722898Y-51039776D01*
X72634958Y-51179731D01*
X72580364Y-51335753D01*
X72561859Y-51499996D01*
X72561859Y-51500003D01*
X63434500Y-51500003D01*
X63434500Y-48627941D01*
X63454185Y-48560902D01*
X63467271Y-48543957D01*
X63468234Y-48542910D01*
X63468240Y-48542906D01*
X63620722Y-48377268D01*
X63714749Y-48233347D01*
X63767894Y-48187994D01*
X63837125Y-48178570D01*
X63900461Y-48208072D01*
X63920130Y-48230048D01*
X64046890Y-48411078D01*
X64213917Y-48578105D01*
X64407421Y-48713600D01*
X64621507Y-48813429D01*
X64621516Y-48813433D01*
X64835000Y-48870634D01*
X64835000Y-47975501D01*
X64942685Y-48024680D01*
X65049237Y-48040000D01*
X65120763Y-48040000D01*
X65227315Y-48024680D01*
X65334999Y-47975501D01*
X65334999Y-48870633D01*
X65548483Y-48813433D01*
X65548492Y-48813429D01*
X65762578Y-48713600D01*
X65956082Y-48578105D01*
X66123105Y-48411082D01*
X66249868Y-48230048D01*
X66304445Y-48186423D01*
X66373944Y-48179231D01*
X66436298Y-48210753D01*
X66455251Y-48233350D01*
X66549276Y-48377265D01*
X66549284Y-48377276D01*
X66683060Y-48522593D01*
X66701760Y-48542906D01*
X66879424Y-48681189D01*
X66879425Y-48681189D01*
X66879427Y-48681191D01*
X66915930Y-48700945D01*
X67077426Y-48788342D01*
X67290365Y-48861444D01*
X67512431Y-48898500D01*
X67737569Y-48898500D01*
X67959635Y-48861444D01*
X68172574Y-48788342D01*
X68370576Y-48681189D01*
X68548240Y-48542906D01*
X68669594Y-48411082D01*
X68700715Y-48377276D01*
X68700715Y-48377275D01*
X68700722Y-48377268D01*
X68791193Y-48238790D01*
X68844338Y-48193437D01*
X68913569Y-48184013D01*
X68976905Y-48213515D01*
X68998804Y-48238787D01*
X69089278Y-48377268D01*
X69089283Y-48377273D01*
X69089284Y-48377276D01*
X69223060Y-48522593D01*
X69241760Y-48542906D01*
X69419424Y-48681189D01*
X69419425Y-48681189D01*
X69419427Y-48681191D01*
X69455930Y-48700945D01*
X69617426Y-48788342D01*
X69830365Y-48861444D01*
X70052431Y-48898500D01*
X70277569Y-48898500D01*
X70499635Y-48861444D01*
X70712574Y-48788342D01*
X70910576Y-48681189D01*
X71088240Y-48542906D01*
X71209594Y-48411082D01*
X71240715Y-48377276D01*
X71240717Y-48377273D01*
X71240722Y-48377268D01*
X71331193Y-48238791D01*
X71384336Y-48193437D01*
X71453567Y-48184013D01*
X71516903Y-48213515D01*
X71538807Y-48238793D01*
X71629276Y-48377265D01*
X71629284Y-48377276D01*
X71763060Y-48522593D01*
X71781760Y-48542906D01*
X71959424Y-48681189D01*
X71959425Y-48681189D01*
X71959427Y-48681191D01*
X71995930Y-48700945D01*
X72157426Y-48788342D01*
X72370365Y-48861444D01*
X72592431Y-48898500D01*
X72817569Y-48898500D01*
X73039635Y-48861444D01*
X73252574Y-48788342D01*
X73450576Y-48681189D01*
X73628240Y-48542906D01*
X73749594Y-48411082D01*
X73780715Y-48377276D01*
X73780715Y-48377275D01*
X73780722Y-48377268D01*
X73871193Y-48238790D01*
X73924338Y-48193437D01*
X73993569Y-48184013D01*
X74056905Y-48213515D01*
X74078804Y-48238787D01*
X74169278Y-48377268D01*
X74169283Y-48377273D01*
X74169284Y-48377276D01*
X74303060Y-48522593D01*
X74321760Y-48542906D01*
X74499424Y-48681189D01*
X74499425Y-48681189D01*
X74499427Y-48681191D01*
X74535930Y-48700945D01*
X74697426Y-48788342D01*
X74910365Y-48861444D01*
X75132431Y-48898500D01*
X75357569Y-48898500D01*
X75579635Y-48861444D01*
X75792574Y-48788342D01*
X75990576Y-48681189D01*
X76168240Y-48542906D01*
X76289594Y-48411082D01*
X76320715Y-48377276D01*
X76320717Y-48377273D01*
X76320722Y-48377268D01*
X76411193Y-48238791D01*
X76464336Y-48193437D01*
X76533567Y-48184013D01*
X76596903Y-48213515D01*
X76618807Y-48238793D01*
X76709276Y-48377265D01*
X76709284Y-48377276D01*
X76843060Y-48522593D01*
X76861760Y-48542906D01*
X77039424Y-48681189D01*
X77039425Y-48681189D01*
X77039427Y-48681191D01*
X77075930Y-48700945D01*
X77237426Y-48788342D01*
X77450365Y-48861444D01*
X77672431Y-48898500D01*
X77897569Y-48898500D01*
X78119635Y-48861444D01*
X78332574Y-48788342D01*
X78530576Y-48681189D01*
X78708240Y-48542906D01*
X78829594Y-48411082D01*
X78860715Y-48377276D01*
X78860715Y-48377275D01*
X78860722Y-48377268D01*
X78951193Y-48238790D01*
X79004338Y-48193437D01*
X79073569Y-48184013D01*
X79136905Y-48213515D01*
X79158804Y-48238787D01*
X79249278Y-48377268D01*
X79249283Y-48377273D01*
X79249284Y-48377276D01*
X79383060Y-48522593D01*
X79401760Y-48542906D01*
X79579424Y-48681189D01*
X79579425Y-48681189D01*
X79579427Y-48681191D01*
X79615930Y-48700945D01*
X79777426Y-48788342D01*
X79990365Y-48861444D01*
X80212431Y-48898500D01*
X80437569Y-48898500D01*
X80659635Y-48861444D01*
X80872574Y-48788342D01*
X81070576Y-48681189D01*
X81248240Y-48542906D01*
X81369594Y-48411082D01*
X81400715Y-48377276D01*
X81400717Y-48377273D01*
X81400722Y-48377268D01*
X81491193Y-48238791D01*
X81544336Y-48193437D01*
X81613567Y-48184013D01*
X81676903Y-48213515D01*
X81698807Y-48238793D01*
X81789276Y-48377265D01*
X81789284Y-48377276D01*
X81923060Y-48522593D01*
X81941760Y-48542906D01*
X82119424Y-48681189D01*
X82119425Y-48681189D01*
X82119427Y-48681191D01*
X82155930Y-48700945D01*
X82317426Y-48788342D01*
X82530365Y-48861444D01*
X82752431Y-48898500D01*
X82977569Y-48898500D01*
X83199635Y-48861444D01*
X83412574Y-48788342D01*
X83610576Y-48681189D01*
X83788240Y-48542906D01*
X83909594Y-48411082D01*
X83940715Y-48377276D01*
X83940715Y-48377275D01*
X83940722Y-48377268D01*
X84031193Y-48238790D01*
X84084338Y-48193437D01*
X84153569Y-48184013D01*
X84216905Y-48213515D01*
X84238804Y-48238787D01*
X84329278Y-48377268D01*
X84329283Y-48377273D01*
X84329284Y-48377276D01*
X84481756Y-48542902D01*
X84481761Y-48542907D01*
X84610470Y-48643086D01*
X84651283Y-48699797D01*
X84654956Y-48769570D01*
X84620325Y-48830253D01*
X84558383Y-48862579D01*
X84520427Y-48864160D01*
X84500000Y-48861859D01*
X84499996Y-48861859D01*
X84335753Y-48880364D01*
X84179731Y-48934958D01*
X84039776Y-49022898D01*
X83922898Y-49139776D01*
X83834958Y-49279731D01*
X83780364Y-49435753D01*
X83761859Y-49599996D01*
X83761859Y-49600003D01*
X83780364Y-49764246D01*
X83834958Y-49920268D01*
X83881734Y-49994711D01*
X83922898Y-50060223D01*
X84039777Y-50177102D01*
X84122558Y-50229117D01*
X84179683Y-50265011D01*
X84179733Y-50265042D01*
X84335748Y-50319634D01*
X84335751Y-50319634D01*
X84335753Y-50319635D01*
X84499996Y-50338141D01*
X84500000Y-50338141D01*
X84500004Y-50338141D01*
X84664246Y-50319635D01*
X84664247Y-50319634D01*
X84664252Y-50319634D01*
X84820267Y-50265042D01*
X84960223Y-50177102D01*
X85077102Y-50060223D01*
X85165042Y-49920267D01*
X85219634Y-49764252D01*
X85219635Y-49764246D01*
X85238141Y-49600003D01*
X85238141Y-49599996D01*
X85219635Y-49435753D01*
X85219634Y-49435751D01*
X85219634Y-49435748D01*
X85165042Y-49279733D01*
X85077102Y-49139777D01*
X85018069Y-49080743D01*
X84984584Y-49019421D01*
X84989568Y-48949729D01*
X85031440Y-48893796D01*
X85096904Y-48869379D01*
X85126156Y-48870753D01*
X85292431Y-48898500D01*
X85292432Y-48898500D01*
X85517569Y-48898500D01*
X85739635Y-48861444D01*
X85952574Y-48788342D01*
X86150576Y-48681189D01*
X86328240Y-48542906D01*
X86449594Y-48411082D01*
X86480715Y-48377276D01*
X86480717Y-48377273D01*
X86480722Y-48377268D01*
X86571193Y-48238791D01*
X86624336Y-48193437D01*
X86693567Y-48184013D01*
X86756903Y-48213515D01*
X86778807Y-48238793D01*
X86869276Y-48377265D01*
X86869279Y-48377269D01*
X87003060Y-48522593D01*
X87033982Y-48585247D01*
X87026122Y-48654673D01*
X87003981Y-48689547D01*
X86907408Y-48796804D01*
X86817923Y-48951796D01*
X86817920Y-48951802D01*
X86762619Y-49122004D01*
X86762618Y-49122006D01*
X86743910Y-49300000D01*
X86761675Y-49469016D01*
X86749106Y-49537746D01*
X86701374Y-49588770D01*
X86685807Y-49596539D01*
X86587197Y-49637385D01*
X86565532Y-49646359D01*
X86558439Y-49651802D01*
X86446042Y-49738047D01*
X86425500Y-49764818D01*
X86420148Y-49770920D01*
X83824920Y-52366149D01*
X83818817Y-52371500D01*
X83792046Y-52392044D01*
X83792045Y-52392045D01*
X83787506Y-52397960D01*
X83763902Y-52428720D01*
X83763899Y-52428723D01*
X83752404Y-52443704D01*
X83748953Y-52448203D01*
X83726093Y-52477995D01*
X83700359Y-52511532D01*
X83700356Y-52511537D01*
X83642724Y-52650674D01*
X83642723Y-52650678D01*
X83632662Y-52727102D01*
X83627457Y-52766634D01*
X83627455Y-52766647D01*
X83623065Y-52800000D01*
X83625962Y-52822009D01*
X83627469Y-52833450D01*
X83628000Y-52841552D01*
X83628000Y-53141123D01*
X83608315Y-53208162D01*
X83555511Y-53253917D01*
X83486353Y-53263861D01*
X83438030Y-53246118D01*
X83420270Y-53234959D01*
X83420268Y-53234958D01*
X83264246Y-53180364D01*
X83100004Y-53161859D01*
X83099996Y-53161859D01*
X82935753Y-53180364D01*
X82779731Y-53234958D01*
X82639776Y-53322898D01*
X82522898Y-53439776D01*
X82434958Y-53579731D01*
X82380364Y-53735753D01*
X82361859Y-53899996D01*
X82361859Y-53900003D01*
X82380364Y-54064246D01*
X82434958Y-54220268D01*
X82522898Y-54360223D01*
X82615165Y-54452490D01*
X82648650Y-54513813D01*
X82643666Y-54583505D01*
X82601794Y-54639438D01*
X82536330Y-54663855D01*
X82513601Y-54663391D01*
X82500004Y-54661859D01*
X82499996Y-54661859D01*
X82335753Y-54680364D01*
X82179731Y-54734958D01*
X82039776Y-54822898D01*
X81922898Y-54939776D01*
X81834958Y-55079731D01*
X81780364Y-55235753D01*
X81761859Y-55399996D01*
X81761859Y-55400003D01*
X81780364Y-55564246D01*
X81834958Y-55720268D01*
X81905071Y-55831852D01*
X81922898Y-55860223D01*
X82039777Y-55977102D01*
X82122558Y-56029116D01*
X82160114Y-56052715D01*
X82179733Y-56065042D01*
X82335748Y-56119634D01*
X82335751Y-56119634D01*
X82335753Y-56119635D01*
X82499996Y-56138141D01*
X82500000Y-56138141D01*
X82500004Y-56138141D01*
X82664246Y-56119635D01*
X82664247Y-56119634D01*
X82664252Y-56119634D01*
X82820267Y-56065042D01*
X82960223Y-55977102D01*
X83077102Y-55860223D01*
X83165042Y-55720267D01*
X83219634Y-55564252D01*
X83226457Y-55503697D01*
X83238141Y-55400003D01*
X83238141Y-55399996D01*
X83219635Y-55235753D01*
X83219634Y-55235751D01*
X83219634Y-55235748D01*
X83165042Y-55079733D01*
X83155810Y-55065041D01*
X83115257Y-55000500D01*
X83077102Y-54939777D01*
X82984834Y-54847509D01*
X82951349Y-54786186D01*
X82956333Y-54716494D01*
X82998205Y-54660561D01*
X83063669Y-54636144D01*
X83086392Y-54636607D01*
X83100000Y-54638141D01*
X83239248Y-54622451D01*
X83264244Y-54619635D01*
X83264244Y-54619634D01*
X83264252Y-54619634D01*
X83420267Y-54565042D01*
X83420272Y-54565038D01*
X83420274Y-54565038D01*
X83426540Y-54562021D01*
X83427451Y-54563914D01*
X83484877Y-54547672D01*
X83551717Y-54568023D01*
X83588636Y-54605695D01*
X83622895Y-54660220D01*
X83622897Y-54660222D01*
X83622898Y-54660223D01*
X83739777Y-54777102D01*
X83739786Y-54777107D01*
X83740219Y-54777453D01*
X83740433Y-54777758D01*
X83744701Y-54782026D01*
X83743953Y-54782773D01*
X83780361Y-54834640D01*
X83783213Y-54904452D01*
X83750591Y-54962084D01*
X83672897Y-55039778D01*
X83584958Y-55179731D01*
X83530364Y-55335753D01*
X83511859Y-55499996D01*
X83511859Y-55500003D01*
X83530364Y-55664246D01*
X83584958Y-55820268D01*
X83672898Y-55960223D01*
X83749993Y-56037318D01*
X83783478Y-56098641D01*
X83778494Y-56168333D01*
X83749994Y-56212679D01*
X83672899Y-56289775D01*
X83672898Y-56289776D01*
X83584958Y-56429731D01*
X83530364Y-56585753D01*
X83511859Y-56749996D01*
X83511859Y-56750003D01*
X83530364Y-56914246D01*
X83584958Y-57070268D01*
X83672898Y-57210223D01*
X83749994Y-57287319D01*
X83783479Y-57348642D01*
X83778495Y-57418334D01*
X83749994Y-57462681D01*
X83672898Y-57539776D01*
X83584957Y-57679732D01*
X83584956Y-57679736D01*
X83542040Y-57802382D01*
X83501318Y-57859158D01*
X83436366Y-57884905D01*
X83367804Y-57871449D01*
X83317401Y-57823061D01*
X83307964Y-57802398D01*
X83268966Y-57690949D01*
X83265406Y-57621176D01*
X83268968Y-57609046D01*
X83319634Y-57464252D01*
X83319634Y-57464250D01*
X83319635Y-57464248D01*
X83338141Y-57300003D01*
X83338141Y-57299996D01*
X83319635Y-57135753D01*
X83319634Y-57135751D01*
X83319634Y-57135748D01*
X83265042Y-56979733D01*
X83247526Y-56951857D01*
X83222157Y-56911482D01*
X83177102Y-56839777D01*
X83060223Y-56722898D01*
X82992534Y-56680366D01*
X82920268Y-56634958D01*
X82764246Y-56580364D01*
X82600004Y-56561859D01*
X82599996Y-56561859D01*
X82435753Y-56580364D01*
X82279731Y-56634958D01*
X82139776Y-56722898D01*
X82022898Y-56839776D01*
X81934958Y-56979731D01*
X81880364Y-57135753D01*
X81861859Y-57299996D01*
X81861859Y-57300003D01*
X81880364Y-57464246D01*
X81880365Y-57464251D01*
X81880366Y-57464252D01*
X81885193Y-57478048D01*
X81931031Y-57609046D01*
X81934592Y-57678825D01*
X81931031Y-57690954D01*
X81880364Y-57835753D01*
X81861859Y-57999996D01*
X81861859Y-58000003D01*
X81880364Y-58164246D01*
X81931031Y-58309046D01*
X81934592Y-58378825D01*
X81931031Y-58390954D01*
X81880364Y-58535753D01*
X81861859Y-58699996D01*
X81861859Y-58700003D01*
X81880364Y-58864246D01*
X81880365Y-58864251D01*
X81880366Y-58864252D01*
X81885174Y-58877993D01*
X81934958Y-59020268D01*
X82022898Y-59160223D01*
X82081795Y-59219120D01*
X82115280Y-59280443D01*
X82111156Y-59347755D01*
X82080364Y-59435753D01*
X82061859Y-59599996D01*
X82061859Y-59600003D01*
X82080364Y-59764246D01*
X82080365Y-59764251D01*
X82080366Y-59764252D01*
X82089066Y-59789115D01*
X82134958Y-59920268D01*
X82180709Y-59993080D01*
X82218466Y-60053170D01*
X82223423Y-60061058D01*
X82242423Y-60128295D01*
X82222055Y-60195130D01*
X82184401Y-60232023D01*
X82039782Y-60322893D01*
X82039776Y-60322898D01*
X81922898Y-60439776D01*
X81834958Y-60579731D01*
X81780364Y-60735753D01*
X81761859Y-60899996D01*
X81761859Y-60900003D01*
X81780364Y-61064246D01*
X81834958Y-61220268D01*
X81910050Y-61339776D01*
X81922898Y-61360223D01*
X82039777Y-61477102D01*
X82179733Y-61565042D01*
X82335748Y-61619634D01*
X82335751Y-61619634D01*
X82335753Y-61619635D01*
X82499996Y-61638141D01*
X82500000Y-61638141D01*
X82500004Y-61638141D01*
X82664246Y-61619635D01*
X82664247Y-61619634D01*
X82664252Y-61619634D01*
X82693982Y-61609230D01*
X82763759Y-61605668D01*
X82824387Y-61640397D01*
X82856614Y-61702390D01*
X82850210Y-61771965D01*
X82839930Y-61792243D01*
X82784960Y-61879727D01*
X82784958Y-61879731D01*
X82730364Y-62035753D01*
X82711859Y-62199996D01*
X82711859Y-62200003D01*
X82730364Y-62364246D01*
X82730365Y-62364251D01*
X82730366Y-62364252D01*
X82734152Y-62375073D01*
X82784958Y-62520268D01*
X82787043Y-62523586D01*
X82872898Y-62660223D01*
X82989777Y-62777102D01*
X83129733Y-62865042D01*
X83285748Y-62919634D01*
X83285751Y-62919634D01*
X83285753Y-62919635D01*
X83449996Y-62938141D01*
X83450000Y-62938141D01*
X83450001Y-62938141D01*
X83459642Y-62937054D01*
X83487815Y-62933880D01*
X83556636Y-62945934D01*
X83608016Y-62993282D01*
X83625641Y-63060892D01*
X83603915Y-63127298D01*
X83589381Y-63144781D01*
X83466921Y-63267241D01*
X83384106Y-63371978D01*
X83384103Y-63371983D01*
X83308775Y-63533525D01*
X83308774Y-63533527D01*
X83272730Y-63708088D01*
X83277914Y-63886262D01*
X83315575Y-64026814D01*
X83324048Y-64058436D01*
X83371785Y-64146971D01*
X83408645Y-64215331D01*
X83520984Y-64341565D01*
X83527142Y-64348484D01*
X83673153Y-64450723D01*
X83673156Y-64450724D01*
X83838801Y-64516530D01*
X83838803Y-64516530D01*
X83838807Y-64516532D01*
X84015172Y-64542366D01*
X84071673Y-64537422D01*
X84096361Y-64537730D01*
X84100000Y-64538141D01*
X84203316Y-64526499D01*
X84264246Y-64519635D01*
X84264247Y-64519634D01*
X84264252Y-64519634D01*
X84420267Y-64465042D01*
X84560223Y-64377102D01*
X84677102Y-64260223D01*
X84748268Y-64146960D01*
X84765570Y-64125265D01*
X86392018Y-62498819D01*
X86453342Y-62465334D01*
X86479700Y-62462500D01*
X89435418Y-62462500D01*
X89453388Y-62463809D01*
X89456080Y-62464203D01*
X89477672Y-62467366D01*
X89530596Y-62462735D01*
X89535997Y-62462500D01*
X89544406Y-62462500D01*
X89544412Y-62462500D01*
X89575383Y-62458879D01*
X89577512Y-62458631D01*
X89590465Y-62457497D01*
X89655240Y-62451831D01*
X89655248Y-62451828D01*
X89662309Y-62450371D01*
X89662317Y-62450414D01*
X89670016Y-62448707D01*
X89670007Y-62448666D01*
X89684063Y-62445334D01*
X89684543Y-62447362D01*
X89743964Y-62443578D01*
X89805024Y-62477541D01*
X89821652Y-62498560D01*
X89860398Y-62560223D01*
X89977277Y-62677102D01*
X90117233Y-62765042D01*
X90273248Y-62819634D01*
X90273251Y-62819634D01*
X90273253Y-62819635D01*
X90437496Y-62838141D01*
X90437500Y-62838141D01*
X90437504Y-62838141D01*
X90601746Y-62819635D01*
X90601747Y-62819634D01*
X90601752Y-62819634D01*
X90757767Y-62765042D01*
X90897723Y-62677102D01*
X91014602Y-62560223D01*
X91102542Y-62420267D01*
X91157134Y-62264252D01*
X91157552Y-62260544D01*
X91175641Y-62100003D01*
X91175641Y-62099996D01*
X91157135Y-61935753D01*
X91157134Y-61935751D01*
X91157134Y-61935748D01*
X91102542Y-61779733D01*
X91070958Y-61729468D01*
X91053944Y-61702390D01*
X91014602Y-61639777D01*
X90914261Y-61539436D01*
X90880776Y-61478113D01*
X90885760Y-61408421D01*
X90914259Y-61364077D01*
X91993504Y-60284832D01*
X92007133Y-60273055D01*
X92013957Y-60267975D01*
X92026822Y-60258398D01*
X92058599Y-60220527D01*
X92060966Y-60217706D01*
X92064626Y-60213711D01*
X92070573Y-60207765D01*
X92070580Y-60207755D01*
X92070583Y-60207753D01*
X92091244Y-60181621D01*
X92106973Y-60162876D01*
X92141396Y-60121853D01*
X92141399Y-60121846D01*
X92145364Y-60115819D01*
X92145400Y-60115843D01*
X92149637Y-60109192D01*
X92149601Y-60109170D01*
X92153390Y-60103026D01*
X92153395Y-60103020D01*
X92186377Y-60032288D01*
X92221394Y-59962566D01*
X92221396Y-59962553D01*
X92223863Y-59955780D01*
X92223903Y-59955794D01*
X92226493Y-59948344D01*
X92226453Y-59948331D01*
X92228722Y-59941478D01*
X92228725Y-59941474D01*
X92244502Y-59865061D01*
X92262500Y-59789123D01*
X92262500Y-59789119D01*
X92262501Y-59789115D01*
X92263339Y-59781949D01*
X92263380Y-59781953D01*
X92264181Y-59774106D01*
X92264140Y-59774103D01*
X92264769Y-59766913D01*
X92264691Y-59764246D01*
X92262500Y-59688924D01*
X92262500Y-59000003D01*
X92861859Y-59000003D01*
X92880364Y-59164246D01*
X92880365Y-59164251D01*
X92880366Y-59164252D01*
X92884862Y-59177101D01*
X92934958Y-59320268D01*
X93009006Y-59438114D01*
X93022898Y-59460223D01*
X93139777Y-59577102D01*
X93212661Y-59622898D01*
X93284401Y-59667975D01*
X93330692Y-59720310D01*
X93341340Y-59789363D01*
X93323423Y-59838941D01*
X93234958Y-59979731D01*
X93180364Y-60135753D01*
X93161859Y-60299996D01*
X93161859Y-60300003D01*
X93180364Y-60464246D01*
X93234958Y-60620268D01*
X93314062Y-60746160D01*
X93322898Y-60760223D01*
X93439777Y-60877102D01*
X93507468Y-60919635D01*
X93578475Y-60964252D01*
X93579733Y-60965042D01*
X93735748Y-61019634D01*
X93735751Y-61019634D01*
X93735753Y-61019635D01*
X93899996Y-61038141D01*
X93900000Y-61038141D01*
X93900004Y-61038141D01*
X94064246Y-61019635D01*
X94064247Y-61019634D01*
X94064252Y-61019634D01*
X94220267Y-60965042D01*
X94360223Y-60877102D01*
X94477102Y-60760223D01*
X94565042Y-60620267D01*
X94619634Y-60464252D01*
X94624929Y-60417250D01*
X94651993Y-60352839D01*
X94682176Y-60326141D01*
X94693200Y-60319214D01*
X94760436Y-60300216D01*
X94800121Y-60307167D01*
X94835748Y-60319634D01*
X94835751Y-60319634D01*
X94835753Y-60319635D01*
X94999996Y-60338141D01*
X95000000Y-60338141D01*
X95000004Y-60338141D01*
X95164246Y-60319635D01*
X95164247Y-60319634D01*
X95164252Y-60319634D01*
X95320267Y-60265042D01*
X95460223Y-60177102D01*
X95577102Y-60060223D01*
X95665042Y-59920267D01*
X95719634Y-59764252D01*
X95719904Y-59761859D01*
X95738141Y-59600003D01*
X95738141Y-59599996D01*
X95719635Y-59435753D01*
X95719634Y-59435751D01*
X95719634Y-59435748D01*
X95665042Y-59279733D01*
X95657418Y-59267600D01*
X95615272Y-59200524D01*
X95577102Y-59139777D01*
X95460223Y-59022898D01*
X95396998Y-58983171D01*
X95320268Y-58934958D01*
X95164246Y-58880364D01*
X95000004Y-58861859D01*
X94999996Y-58861859D01*
X94835753Y-58880364D01*
X94679731Y-58934958D01*
X94606801Y-58980783D01*
X94539564Y-58999783D01*
X94499876Y-58992831D01*
X94464251Y-58980365D01*
X94464247Y-58980364D01*
X94432541Y-58976792D01*
X94368127Y-58949725D01*
X94328573Y-58892129D01*
X94323207Y-58867462D01*
X94319634Y-58835748D01*
X94319633Y-58835745D01*
X94319632Y-58835740D01*
X94265043Y-58679736D01*
X94265042Y-58679732D01*
X94203441Y-58581696D01*
X94177102Y-58539777D01*
X94060223Y-58422898D01*
X94033133Y-58405876D01*
X93920268Y-58334958D01*
X93764246Y-58280364D01*
X93600004Y-58261859D01*
X93599996Y-58261859D01*
X93435753Y-58280364D01*
X93279731Y-58334958D01*
X93139776Y-58422898D01*
X93022898Y-58539776D01*
X92934958Y-58679731D01*
X92880364Y-58835753D01*
X92861859Y-58999996D01*
X92861859Y-59000003D01*
X92262500Y-59000003D01*
X92262500Y-58198781D01*
X92282185Y-58131743D01*
X92334989Y-58085988D01*
X92404147Y-58076044D01*
X92427451Y-58081739D01*
X92535748Y-58119634D01*
X92535752Y-58119634D01*
X92535754Y-58119635D01*
X92699996Y-58138141D01*
X92700000Y-58138141D01*
X92700004Y-58138141D01*
X92864246Y-58119635D01*
X92864247Y-58119634D01*
X92864252Y-58119634D01*
X93020267Y-58065042D01*
X93160223Y-57977102D01*
X93277102Y-57860223D01*
X93365042Y-57720267D01*
X93382267Y-57671040D01*
X93422987Y-57614265D01*
X93487939Y-57588517D01*
X93556501Y-57601972D01*
X93586989Y-57624314D01*
X93639777Y-57677102D01*
X93661824Y-57690955D01*
X93778475Y-57764252D01*
X93779733Y-57765042D01*
X93935748Y-57819634D01*
X93935751Y-57819634D01*
X93935753Y-57819635D01*
X94099996Y-57838141D01*
X94100000Y-57838141D01*
X94100004Y-57838141D01*
X94264246Y-57819635D01*
X94264247Y-57819634D01*
X94264252Y-57819634D01*
X94320354Y-57800003D01*
X94961859Y-57800003D01*
X94980364Y-57964246D01*
X95034958Y-58120268D01*
X95109515Y-58238924D01*
X95122898Y-58260223D01*
X95239777Y-58377102D01*
X95312661Y-58422898D01*
X95372063Y-58460223D01*
X95379733Y-58465042D01*
X95535748Y-58519634D01*
X95535751Y-58519634D01*
X95535753Y-58519635D01*
X95699996Y-58538141D01*
X95700000Y-58538141D01*
X95700004Y-58538141D01*
X95864246Y-58519635D01*
X95864247Y-58519634D01*
X95864252Y-58519634D01*
X96020267Y-58465042D01*
X96160223Y-58377102D01*
X96277102Y-58260223D01*
X96365042Y-58120267D01*
X96419634Y-57964252D01*
X96419635Y-57964246D01*
X96438141Y-57800003D01*
X96438141Y-57799996D01*
X96419635Y-57635753D01*
X96419634Y-57635751D01*
X96419634Y-57635748D01*
X96365042Y-57479733D01*
X96337404Y-57435748D01*
X96277101Y-57339776D01*
X96160223Y-57222898D01*
X96020268Y-57134958D01*
X95864246Y-57080364D01*
X95700004Y-57061859D01*
X95699996Y-57061859D01*
X95535753Y-57080364D01*
X95379731Y-57134958D01*
X95239776Y-57222898D01*
X95122898Y-57339776D01*
X95034958Y-57479731D01*
X94980364Y-57635753D01*
X94961859Y-57799996D01*
X94961859Y-57800003D01*
X94320354Y-57800003D01*
X94420267Y-57765042D01*
X94560223Y-57677102D01*
X94677102Y-57560223D01*
X94765042Y-57420267D01*
X94819634Y-57264252D01*
X94829361Y-57177926D01*
X94838141Y-57100003D01*
X94838141Y-57099996D01*
X94819635Y-56935753D01*
X94819634Y-56935751D01*
X94819634Y-56935748D01*
X94765042Y-56779733D01*
X94746361Y-56750003D01*
X94690977Y-56661859D01*
X94677102Y-56639777D01*
X94560223Y-56522898D01*
X94420267Y-56434958D01*
X94420266Y-56434957D01*
X94418107Y-56433601D01*
X94371816Y-56381266D01*
X94361168Y-56312213D01*
X94389543Y-56248364D01*
X94396374Y-56240950D01*
X94477102Y-56160223D01*
X94565042Y-56020267D01*
X94619634Y-55864252D01*
X94620088Y-55860223D01*
X94638141Y-55700003D01*
X94638141Y-55699996D01*
X94619635Y-55535753D01*
X94619634Y-55535751D01*
X94619634Y-55535748D01*
X94565042Y-55379733D01*
X94545230Y-55348203D01*
X94488853Y-55258479D01*
X94477102Y-55239777D01*
X94360223Y-55122898D01*
X94355028Y-55119634D01*
X94220268Y-55034958D01*
X94064246Y-54980364D01*
X93900004Y-54961859D01*
X93899996Y-54961859D01*
X93735753Y-54980364D01*
X93579731Y-55034958D01*
X93439776Y-55122898D01*
X93337681Y-55224994D01*
X93276358Y-55258479D01*
X93206666Y-55253495D01*
X93165715Y-55227176D01*
X93165666Y-55227239D01*
X93165059Y-55226755D01*
X93162319Y-55224994D01*
X93160223Y-55222898D01*
X93020268Y-55134958D01*
X92864246Y-55080364D01*
X92700004Y-55061859D01*
X92699996Y-55061859D01*
X92535752Y-55080364D01*
X92471264Y-55102929D01*
X92401485Y-55106490D01*
X92340858Y-55071760D01*
X92308632Y-55009766D01*
X92315038Y-54940191D01*
X92342627Y-54898209D01*
X92842018Y-54398819D01*
X92903342Y-54365334D01*
X92929700Y-54362500D01*
X96170175Y-54362500D01*
X96237214Y-54382185D01*
X96282969Y-54434989D01*
X96292913Y-54504147D01*
X96277562Y-54548498D01*
X96255690Y-54586382D01*
X96217923Y-54651796D01*
X96217920Y-54651802D01*
X96162619Y-54822004D01*
X96162618Y-54822006D01*
X96150616Y-54936197D01*
X96143910Y-55000000D01*
X96145883Y-55018770D01*
X96162618Y-55177993D01*
X96162619Y-55177995D01*
X96217920Y-55348197D01*
X96217923Y-55348203D01*
X96307409Y-55503197D01*
X96362378Y-55564246D01*
X96421851Y-55630299D01*
X96427164Y-55636199D01*
X96465776Y-55664252D01*
X96571956Y-55741397D01*
X96662660Y-55781780D01*
X96735454Y-55814190D01*
X96910514Y-55851400D01*
X96910515Y-55851400D01*
X97089484Y-55851400D01*
X97089486Y-55851400D01*
X97264546Y-55814190D01*
X97428045Y-55741396D01*
X97572836Y-55636199D01*
X97692591Y-55503197D01*
X97782077Y-55348203D01*
X97837382Y-55177991D01*
X97856090Y-55000000D01*
X97837382Y-54822009D01*
X97809098Y-54734958D01*
X97782079Y-54651802D01*
X97782076Y-54651796D01*
X97779998Y-54648197D01*
X97722437Y-54548499D01*
X97705965Y-54480600D01*
X97728818Y-54414573D01*
X97783739Y-54371382D01*
X97829825Y-54362500D01*
X99835418Y-54362500D01*
X99853388Y-54363809D01*
X99856080Y-54364203D01*
X99877672Y-54367366D01*
X99930596Y-54362735D01*
X99935997Y-54362500D01*
X99944406Y-54362500D01*
X99944412Y-54362500D01*
X99975383Y-54358879D01*
X99977512Y-54358631D01*
X99990465Y-54357497D01*
X100055240Y-54351831D01*
X100055248Y-54351828D01*
X100062309Y-54350371D01*
X100062317Y-54350414D01*
X100070016Y-54348707D01*
X100070007Y-54348666D01*
X100077037Y-54346999D01*
X100077038Y-54346998D01*
X100077042Y-54346998D01*
X100150369Y-54320309D01*
X100224440Y-54295765D01*
X100224448Y-54295759D01*
X100230988Y-54292711D01*
X100231006Y-54292750D01*
X100238102Y-54289315D01*
X100238083Y-54289276D01*
X100244535Y-54286035D01*
X100244539Y-54286034D01*
X100309738Y-54243151D01*
X100376149Y-54202188D01*
X100376154Y-54202182D01*
X100381813Y-54197709D01*
X100381840Y-54197743D01*
X100387954Y-54192763D01*
X100387927Y-54192730D01*
X100393462Y-54188085D01*
X100447021Y-54131315D01*
X100736940Y-53841396D01*
X100952344Y-53625992D01*
X101013666Y-53592508D01*
X101083357Y-53597492D01*
X101132174Y-53630702D01*
X101226758Y-53735748D01*
X101227164Y-53736199D01*
X101292078Y-53783362D01*
X101371956Y-53841397D01*
X101432477Y-53868342D01*
X101535454Y-53914190D01*
X101710514Y-53951400D01*
X101710515Y-53951400D01*
X101889484Y-53951400D01*
X101889486Y-53951400D01*
X102064546Y-53914190D01*
X102228045Y-53841396D01*
X102372836Y-53736199D01*
X102492591Y-53603197D01*
X102582077Y-53448203D01*
X102637382Y-53277991D01*
X102656090Y-53100000D01*
X102656090Y-53099996D01*
X102656090Y-53099000D01*
X102656253Y-53098444D01*
X102656769Y-53093537D01*
X102657666Y-53093631D01*
X102675775Y-53031961D01*
X102728579Y-52986206D01*
X102780090Y-52975000D01*
X103448448Y-52975000D01*
X103498883Y-52985720D01*
X103499975Y-52986206D01*
X103647954Y-53052090D01*
X103756656Y-53075195D01*
X103818138Y-53108387D01*
X103851915Y-53169550D01*
X103847263Y-53239265D01*
X103823029Y-53279454D01*
X103807408Y-53296804D01*
X103717923Y-53451796D01*
X103717920Y-53451802D01*
X103662619Y-53622004D01*
X103662618Y-53622006D01*
X103649914Y-53742874D01*
X103643910Y-53800000D01*
X103658601Y-53939777D01*
X103662619Y-53977997D01*
X103663969Y-53984347D01*
X103661682Y-53984832D01*
X103663371Y-54044018D01*
X103627287Y-54103849D01*
X103569228Y-54133779D01*
X103523614Y-54143475D01*
X103523610Y-54143476D01*
X103391748Y-54202186D01*
X103352800Y-54219527D01*
X103352799Y-54219527D01*
X103349764Y-54220879D01*
X103299328Y-54231600D01*
X103207001Y-54231600D01*
X103156566Y-54220880D01*
X103155191Y-54220268D01*
X103093340Y-54192730D01*
X103064544Y-54179909D01*
X102936738Y-54152743D01*
X102889486Y-54142700D01*
X102710514Y-54142700D01*
X102680404Y-54149100D01*
X102535455Y-54179909D01*
X102535454Y-54179909D01*
X102371956Y-54252702D01*
X102227162Y-54357902D01*
X102107408Y-54490904D01*
X102017923Y-54645896D01*
X102017920Y-54645902D01*
X101962619Y-54816104D01*
X101962618Y-54816106D01*
X101943910Y-54994100D01*
X101962618Y-55172093D01*
X101962619Y-55172095D01*
X102017920Y-55342297D01*
X102017923Y-55342303D01*
X102107409Y-55497297D01*
X102227164Y-55630299D01*
X102306141Y-55687679D01*
X102371956Y-55735497D01*
X102462661Y-55775880D01*
X102535454Y-55808290D01*
X102710514Y-55845500D01*
X102710515Y-55845500D01*
X102796164Y-55845500D01*
X102863203Y-55865185D01*
X102908958Y-55917989D01*
X102915938Y-55937405D01*
X102920164Y-55953176D01*
X102923709Y-55972298D01*
X102924832Y-55982985D01*
X102925145Y-55985958D01*
X102936293Y-56020267D01*
X102941323Y-56035749D01*
X102946331Y-56051160D01*
X102947252Y-56054271D01*
X102965004Y-56120520D01*
X102971236Y-56132751D01*
X102978681Y-56150724D01*
X102982925Y-56163785D01*
X103017225Y-56223195D01*
X103018751Y-56226005D01*
X103049893Y-56287125D01*
X103055136Y-56293599D01*
X103058529Y-56297789D01*
X103069549Y-56313824D01*
X103076412Y-56325712D01*
X103090065Y-56340875D01*
X103122311Y-56376688D01*
X103124392Y-56379124D01*
X103131948Y-56388455D01*
X103138058Y-56396000D01*
X103138069Y-56396013D01*
X103153403Y-56411346D01*
X103155637Y-56413701D01*
X103201527Y-56464666D01*
X103201530Y-56464669D01*
X103212643Y-56472743D01*
X103227432Y-56485375D01*
X103374181Y-56632124D01*
X103407666Y-56693447D01*
X103410500Y-56719805D01*
X103410500Y-59353380D01*
X103410499Y-59480195D01*
X103390814Y-59547234D01*
X103374180Y-59567875D01*
X103038066Y-59903990D01*
X103038059Y-59903998D01*
X102949890Y-60012877D01*
X102865006Y-60179474D01*
X102816611Y-60360084D01*
X102816610Y-60360086D01*
X102806826Y-60546810D01*
X102836074Y-60731484D01*
X102836075Y-60731487D01*
X102903083Y-60906048D01*
X103004919Y-61062862D01*
X103137137Y-61195080D01*
X103293951Y-61296916D01*
X103468512Y-61363924D01*
X103468515Y-61363925D01*
X103551715Y-61377102D01*
X103653187Y-61393173D01*
X103653188Y-61393174D01*
X103653189Y-61393173D01*
X103653190Y-61393174D01*
X103839915Y-61383389D01*
X104020524Y-61334994D01*
X104105472Y-61291710D01*
X104187122Y-61250109D01*
X104187123Y-61250107D01*
X104187125Y-61250107D01*
X104296006Y-61161937D01*
X104872570Y-60585371D01*
X104887357Y-60572742D01*
X104898470Y-60564669D01*
X104944368Y-60513692D01*
X104946570Y-60511371D01*
X104961937Y-60496006D01*
X104975611Y-60479118D01*
X104977662Y-60476716D01*
X105023585Y-60425715D01*
X105030451Y-60413821D01*
X105041465Y-60397795D01*
X105050107Y-60387125D01*
X105081258Y-60325985D01*
X105082783Y-60323179D01*
X105092027Y-60307168D01*
X105117075Y-60263785D01*
X105121315Y-60250734D01*
X105128766Y-60232747D01*
X105134993Y-60220527D01*
X105134995Y-60220520D01*
X105136820Y-60213711D01*
X105152741Y-60154289D01*
X105153661Y-60151182D01*
X105156179Y-60143432D01*
X105174855Y-60085956D01*
X105176290Y-60072297D01*
X105179836Y-60053170D01*
X105182331Y-60043858D01*
X105183388Y-60039915D01*
X105186976Y-59971428D01*
X105187229Y-59968219D01*
X105189500Y-59946620D01*
X105189499Y-59924915D01*
X105189584Y-59921669D01*
X105193174Y-59853190D01*
X105191027Y-59839634D01*
X105189500Y-59820235D01*
X105189500Y-58200003D01*
X105561859Y-58200003D01*
X105580364Y-58364246D01*
X105580365Y-58364251D01*
X105580366Y-58364252D01*
X105588729Y-58388152D01*
X105634958Y-58520268D01*
X105700766Y-58625000D01*
X105722898Y-58660223D01*
X105839777Y-58777102D01*
X105883758Y-58804737D01*
X105978475Y-58864252D01*
X105979733Y-58865042D01*
X106135748Y-58919634D01*
X106135751Y-58919634D01*
X106135753Y-58919635D01*
X106299996Y-58938141D01*
X106300000Y-58938141D01*
X106300004Y-58938141D01*
X106464246Y-58919635D01*
X106464247Y-58919634D01*
X106464252Y-58919634D01*
X106620267Y-58865042D01*
X106760223Y-58777102D01*
X106877102Y-58660223D01*
X106965042Y-58520267D01*
X107019634Y-58364252D01*
X107021037Y-58351802D01*
X107038141Y-58200003D01*
X107038141Y-58199996D01*
X107019635Y-58035753D01*
X107019634Y-58035751D01*
X107019634Y-58035748D01*
X106965042Y-57879733D01*
X106937404Y-57835748D01*
X106914944Y-57800003D01*
X106877102Y-57739777D01*
X106760223Y-57622898D01*
X106756036Y-57620267D01*
X106620268Y-57534958D01*
X106464246Y-57480364D01*
X106300004Y-57461859D01*
X106299996Y-57461859D01*
X106135753Y-57480364D01*
X105979731Y-57534958D01*
X105839776Y-57622898D01*
X105722898Y-57739776D01*
X105634958Y-57879731D01*
X105580364Y-58035753D01*
X105561859Y-58199996D01*
X105561859Y-58200003D01*
X105189500Y-58200003D01*
X105189500Y-56719805D01*
X105209185Y-56652766D01*
X105225819Y-56632124D01*
X105707124Y-56150819D01*
X105768447Y-56117334D01*
X105794805Y-56114500D01*
X106970236Y-56114500D01*
X106989633Y-56116026D01*
X107003190Y-56118174D01*
X107071678Y-56114584D01*
X107074922Y-56114500D01*
X107160895Y-56114500D01*
X107227934Y-56134185D01*
X107248576Y-56150819D01*
X110174181Y-59076424D01*
X110207666Y-59137747D01*
X110210500Y-59164105D01*
X110210500Y-59164535D01*
X110208972Y-59183934D01*
X110206826Y-59197490D01*
X110207959Y-59219120D01*
X110210415Y-59265976D01*
X110210500Y-59269221D01*
X110210500Y-59290921D01*
X110212768Y-59312499D01*
X110213022Y-59315734D01*
X110216610Y-59384212D01*
X110216611Y-59384215D01*
X110220166Y-59397484D01*
X110223709Y-59416598D01*
X110224670Y-59425733D01*
X110225145Y-59430258D01*
X110235413Y-59461859D01*
X110241426Y-59480366D01*
X110246331Y-59495460D01*
X110247252Y-59498571D01*
X110265004Y-59564820D01*
X110271236Y-59577051D01*
X110278681Y-59595024D01*
X110282925Y-59608085D01*
X110317225Y-59667495D01*
X110318751Y-59670305D01*
X110349893Y-59731425D01*
X110356656Y-59739776D01*
X110358529Y-59742089D01*
X110369549Y-59758124D01*
X110376412Y-59770012D01*
X110383513Y-59777898D01*
X110422311Y-59820988D01*
X110424392Y-59823424D01*
X110433732Y-59834958D01*
X110438058Y-59840300D01*
X110438069Y-59840313D01*
X110453403Y-59855646D01*
X110455637Y-59858001D01*
X110494677Y-59901358D01*
X110501530Y-59908969D01*
X110512643Y-59917043D01*
X110527432Y-59929675D01*
X110770322Y-60172565D01*
X110782957Y-60187358D01*
X110791029Y-60198468D01*
X110791031Y-60198470D01*
X110841998Y-60244361D01*
X110844353Y-60246596D01*
X110859689Y-60261932D01*
X110859700Y-60261942D01*
X110876556Y-60275592D01*
X110879024Y-60277700D01*
X110929982Y-60323583D01*
X110929983Y-60323583D01*
X110929985Y-60323585D01*
X110934409Y-60326139D01*
X110941871Y-60330447D01*
X110957909Y-60341470D01*
X110968573Y-60350106D01*
X110968575Y-60350107D01*
X111029680Y-60381241D01*
X111032515Y-60382781D01*
X111057170Y-60397014D01*
X111091915Y-60417075D01*
X111104973Y-60421317D01*
X111122941Y-60428759D01*
X111135176Y-60434994D01*
X111201429Y-60452746D01*
X111204500Y-60453655D01*
X111269744Y-60474855D01*
X111283394Y-60476289D01*
X111302529Y-60479836D01*
X111315785Y-60483389D01*
X111384270Y-60486977D01*
X111387505Y-60487231D01*
X111398892Y-60488428D01*
X111409079Y-60489500D01*
X111409080Y-60489500D01*
X111430777Y-60489500D01*
X111434017Y-60489585D01*
X111435452Y-60489659D01*
X111439976Y-60489897D01*
X111505893Y-60513057D01*
X111521175Y-60526046D01*
X112717694Y-61722565D01*
X112730329Y-61737358D01*
X112738401Y-61748468D01*
X112738403Y-61748470D01*
X112789370Y-61794361D01*
X112791725Y-61796596D01*
X112807061Y-61811932D01*
X112807072Y-61811942D01*
X112823928Y-61825592D01*
X112826396Y-61827700D01*
X112877354Y-61873583D01*
X112877355Y-61873583D01*
X112877357Y-61873585D01*
X112883449Y-61877102D01*
X112889243Y-61880447D01*
X112905281Y-61891470D01*
X112915945Y-61900106D01*
X112915947Y-61900107D01*
X112977052Y-61931241D01*
X112979887Y-61932781D01*
X113004542Y-61947014D01*
X113039287Y-61967075D01*
X113052345Y-61971317D01*
X113070313Y-61978759D01*
X113082548Y-61984994D01*
X113148801Y-62002746D01*
X113151872Y-62003655D01*
X113217116Y-62024855D01*
X113230766Y-62026289D01*
X113249901Y-62029836D01*
X113263157Y-62033389D01*
X113331623Y-62036976D01*
X113331642Y-62036977D01*
X113334877Y-62037231D01*
X113346264Y-62038428D01*
X113356451Y-62039500D01*
X113356452Y-62039500D01*
X113378150Y-62039500D01*
X113381393Y-62039584D01*
X113449882Y-62043174D01*
X113463438Y-62041026D01*
X113482836Y-62039500D01*
X115170236Y-62039500D01*
X115189633Y-62041026D01*
X115203190Y-62043174D01*
X115271678Y-62039584D01*
X115274922Y-62039500D01*
X115296615Y-62039500D01*
X115296620Y-62039500D01*
X115318240Y-62037226D01*
X115321392Y-62036978D01*
X115389915Y-62033389D01*
X115392870Y-62032597D01*
X115394646Y-62032639D01*
X115396333Y-62032372D01*
X115396381Y-62032680D01*
X115462717Y-62034252D01*
X115520584Y-62073407D01*
X115539535Y-62104915D01*
X115578921Y-62200000D01*
X115587302Y-62220233D01*
X115679549Y-62340451D01*
X115799767Y-62432698D01*
X115939764Y-62490687D01*
X116052280Y-62505500D01*
X116052287Y-62505500D01*
X116127713Y-62505500D01*
X116127720Y-62505500D01*
X116240236Y-62490687D01*
X116380233Y-62432698D01*
X116440790Y-62386230D01*
X116505960Y-62361035D01*
X116574405Y-62375073D01*
X116624395Y-62423887D01*
X116625636Y-62426152D01*
X116677401Y-62522998D01*
X116677405Y-62523005D01*
X116803431Y-62676568D01*
X116956994Y-62802594D01*
X116957001Y-62802598D01*
X117132191Y-62896239D01*
X117132193Y-62896239D01*
X117132196Y-62896241D01*
X117322299Y-62953908D01*
X117322298Y-62953908D01*
X117341770Y-62955825D01*
X117520000Y-62973380D01*
X117717701Y-62953908D01*
X117907804Y-62896241D01*
X117917694Y-62890955D01*
X118022457Y-62834958D01*
X118083004Y-62802595D01*
X118236568Y-62676568D01*
X118362595Y-62523004D01*
X118435702Y-62386230D01*
X118456239Y-62347808D01*
X118456239Y-62347807D01*
X118456241Y-62347804D01*
X118513908Y-62157701D01*
X118528500Y-62009547D01*
X118528500Y-60810453D01*
X118513908Y-60662299D01*
X118456241Y-60472196D01*
X118456239Y-60472193D01*
X118456239Y-60472191D01*
X118362598Y-60297001D01*
X118362594Y-60296994D01*
X118236568Y-60143431D01*
X118083005Y-60017405D01*
X118082998Y-60017401D01*
X117907808Y-59923760D01*
X117762666Y-59879732D01*
X117717701Y-59866092D01*
X117717699Y-59866091D01*
X117717701Y-59866091D01*
X117537725Y-59848365D01*
X117520000Y-59846620D01*
X117519999Y-59846620D01*
X117394653Y-59858965D01*
X117326007Y-59845946D01*
X117275296Y-59797881D01*
X117258500Y-59735565D01*
X117258500Y-59444156D01*
X117278184Y-59377121D01*
X117286119Y-59366143D01*
X117350106Y-59287125D01*
X117394243Y-59200500D01*
X117395751Y-59197722D01*
X117482077Y-59048203D01*
X117537382Y-58877991D01*
X117556090Y-58700000D01*
X117537382Y-58522009D01*
X117499648Y-58405876D01*
X117482079Y-58351802D01*
X117482076Y-58351796D01*
X117481039Y-58350000D01*
X117392591Y-58196803D01*
X117273953Y-58065042D01*
X117272837Y-58063802D01*
X117266120Y-58058922D01*
X117185016Y-57999996D01*
X117128043Y-57958602D01*
X116964544Y-57885809D01*
X116836738Y-57858643D01*
X116789486Y-57848600D01*
X116610514Y-57848600D01*
X116573305Y-57856508D01*
X116435455Y-57885809D01*
X116435454Y-57885809D01*
X116343434Y-57926780D01*
X116292999Y-57937500D01*
X116225581Y-57937500D01*
X116158542Y-57917815D01*
X116112787Y-57865011D01*
X116102843Y-57795853D01*
X116131868Y-57732297D01*
X116133431Y-57730528D01*
X116142671Y-57720266D01*
X116221202Y-57633048D01*
X116310688Y-57478054D01*
X116365993Y-57307842D01*
X116379956Y-57175000D01*
X117318910Y-57175000D01*
X117337618Y-57352993D01*
X117337619Y-57352995D01*
X117392920Y-57523197D01*
X117392923Y-57523203D01*
X117482409Y-57678197D01*
X117602164Y-57811199D01*
X117653642Y-57848600D01*
X117746956Y-57916397D01*
X117826245Y-57951698D01*
X117910454Y-57989190D01*
X118085514Y-58026400D01*
X118085515Y-58026400D01*
X118264484Y-58026400D01*
X118264486Y-58026400D01*
X118439546Y-57989190D01*
X118579722Y-57926780D01*
X118603043Y-57916397D01*
X118603043Y-57916396D01*
X118603045Y-57916396D01*
X118747836Y-57811199D01*
X118867591Y-57678197D01*
X118957077Y-57523203D01*
X119012382Y-57352991D01*
X119031090Y-57175000D01*
X119012382Y-56997009D01*
X118972962Y-56875685D01*
X118957079Y-56826802D01*
X118957076Y-56826796D01*
X118867591Y-56671803D01*
X118747836Y-56538801D01*
X118646316Y-56465042D01*
X118603043Y-56433602D01*
X118439544Y-56360809D01*
X118311738Y-56333643D01*
X118264486Y-56323600D01*
X118085514Y-56323600D01*
X118048305Y-56331508D01*
X117910455Y-56360809D01*
X117910454Y-56360809D01*
X117746956Y-56433602D01*
X117602162Y-56538802D01*
X117482408Y-56671804D01*
X117392923Y-56826796D01*
X117392920Y-56826802D01*
X117337619Y-56997004D01*
X117337618Y-56997006D01*
X117318910Y-57175000D01*
X116379956Y-57175000D01*
X116384701Y-57129851D01*
X116365993Y-56951860D01*
X116326060Y-56828959D01*
X116310690Y-56781653D01*
X116310687Y-56781647D01*
X116309582Y-56779733D01*
X116221202Y-56626654D01*
X116101447Y-56493652D01*
X116011682Y-56428433D01*
X115969018Y-56373105D01*
X115963039Y-56303492D01*
X115995645Y-56241697D01*
X115996757Y-56240567D01*
X116077102Y-56160223D01*
X116165042Y-56020267D01*
X116219634Y-55864252D01*
X116220088Y-55860223D01*
X116238141Y-55700003D01*
X116238141Y-55699996D01*
X116219635Y-55535753D01*
X116219634Y-55535751D01*
X116219634Y-55535748D01*
X116165042Y-55379733D01*
X116145230Y-55348203D01*
X116088853Y-55258479D01*
X116077102Y-55239777D01*
X115960223Y-55122898D01*
X115955028Y-55119634D01*
X115820268Y-55034958D01*
X115664246Y-54980364D01*
X115500004Y-54961859D01*
X115499996Y-54961859D01*
X115335753Y-54980364D01*
X115179731Y-55034958D01*
X115039776Y-55122898D01*
X114922898Y-55239776D01*
X114834958Y-55379731D01*
X114780364Y-55535753D01*
X114761859Y-55699996D01*
X114761859Y-55700003D01*
X114780364Y-55864246D01*
X114780365Y-55864251D01*
X114780366Y-55864252D01*
X114781728Y-55868145D01*
X114834958Y-56020268D01*
X114922898Y-56160223D01*
X115027190Y-56264515D01*
X115060675Y-56325838D01*
X115055691Y-56395530D01*
X115013819Y-56451463D01*
X115012396Y-56452513D01*
X114955774Y-56493652D01*
X114836019Y-56626655D01*
X114746534Y-56781647D01*
X114746531Y-56781653D01*
X114691230Y-56951855D01*
X114691229Y-56951857D01*
X114672521Y-57129851D01*
X114691229Y-57307844D01*
X114691230Y-57307846D01*
X114746531Y-57478048D01*
X114746534Y-57478054D01*
X114836020Y-57633048D01*
X114914551Y-57720266D01*
X114954150Y-57764246D01*
X114955775Y-57766050D01*
X115017917Y-57811199D01*
X115100567Y-57871248D01*
X115191272Y-57911631D01*
X115264065Y-57944041D01*
X115439125Y-57981251D01*
X115439126Y-57981251D01*
X115441048Y-57981251D01*
X115442120Y-57981565D01*
X115445593Y-57981931D01*
X115445526Y-57982565D01*
X115508087Y-58000936D01*
X115553842Y-58053740D01*
X115563786Y-58122898D01*
X115534761Y-58186454D01*
X115528729Y-58192932D01*
X115352421Y-58369239D01*
X115315175Y-58394838D01*
X115171956Y-58458602D01*
X115027162Y-58563802D01*
X114907408Y-58696804D01*
X114817923Y-58851796D01*
X114817920Y-58851802D01*
X114762619Y-59022004D01*
X114762618Y-59022006D01*
X114743910Y-59200000D01*
X114762618Y-59377993D01*
X114762619Y-59377995D01*
X114817920Y-59548197D01*
X114817923Y-59548203D01*
X114907409Y-59703197D01*
X115027164Y-59836199D01*
X115055515Y-59856797D01*
X115071123Y-59868137D01*
X115113789Y-59923466D01*
X115119768Y-59993080D01*
X115087163Y-60054875D01*
X115085920Y-60056136D01*
X114917874Y-60224182D01*
X114856554Y-60257666D01*
X114830195Y-60260500D01*
X113822877Y-60260500D01*
X113755838Y-60240815D01*
X113735196Y-60224181D01*
X112699457Y-59188442D01*
X112678543Y-59158011D01*
X112677822Y-59158428D01*
X112674572Y-59152799D01*
X112648916Y-59117486D01*
X112645402Y-59112074D01*
X112623585Y-59074285D01*
X112594397Y-59041869D01*
X112590312Y-59036824D01*
X112577765Y-59019556D01*
X112564669Y-59001530D01*
X112532243Y-58972334D01*
X112527664Y-58967755D01*
X112498470Y-58935331D01*
X112463184Y-58909694D01*
X112458138Y-58905609D01*
X112427470Y-58877995D01*
X112425715Y-58876415D01*
X112410191Y-58867452D01*
X112387935Y-58854602D01*
X112382491Y-58851066D01*
X112348652Y-58826482D01*
X112347200Y-58825427D01*
X112307352Y-58807685D01*
X112301568Y-58804737D01*
X112263785Y-58782925D01*
X112222299Y-58769445D01*
X112216236Y-58767118D01*
X112176388Y-58749376D01*
X112176384Y-58749374D01*
X112133715Y-58740305D01*
X112127447Y-58738626D01*
X112113804Y-58734193D01*
X112085955Y-58725144D01*
X112081696Y-58724239D01*
X112020216Y-58691043D01*
X111986442Y-58629878D01*
X111983654Y-58609445D01*
X111983389Y-58604385D01*
X111979836Y-58591129D01*
X111976289Y-58571994D01*
X111974855Y-58558344D01*
X111953655Y-58493100D01*
X111952746Y-58490029D01*
X111934994Y-58423776D01*
X111928759Y-58411541D01*
X111921317Y-58393573D01*
X111917075Y-58380515D01*
X111897014Y-58345770D01*
X111882781Y-58321115D01*
X111881241Y-58318280D01*
X111850107Y-58257175D01*
X111850106Y-58257173D01*
X111841470Y-58246509D01*
X111830447Y-58230471D01*
X111823584Y-58218584D01*
X111823583Y-58218582D01*
X111777700Y-58167624D01*
X111775592Y-58165156D01*
X111761942Y-58148300D01*
X111761932Y-58148289D01*
X111746596Y-58132953D01*
X111744361Y-58130598D01*
X111698470Y-58079631D01*
X111698468Y-58079629D01*
X111687358Y-58071557D01*
X111672565Y-58058922D01*
X108580159Y-54966516D01*
X108546674Y-54905193D01*
X108548066Y-54846740D01*
X108567940Y-54772569D01*
X108583389Y-54714915D01*
X108593174Y-54528190D01*
X108563924Y-54343512D01*
X108496917Y-54168951D01*
X108395079Y-54012136D01*
X108262864Y-53879921D01*
X108106049Y-53778083D01*
X108106046Y-53778082D01*
X108106045Y-53778081D01*
X107931486Y-53711075D01*
X107746812Y-53681826D01*
X107746808Y-53681825D01*
X107720324Y-53683213D01*
X107652347Y-53667062D01*
X107603892Y-53616724D01*
X107590345Y-53548180D01*
X107616006Y-53483193D01*
X107621677Y-53476423D01*
X107642591Y-53453197D01*
X107732077Y-53298203D01*
X107787382Y-53127991D01*
X107806090Y-52950000D01*
X107787382Y-52772009D01*
X107762730Y-52696139D01*
X107743778Y-52637808D01*
X107741783Y-52567967D01*
X107756718Y-52533514D01*
X107765042Y-52520267D01*
X107768097Y-52511537D01*
X107819634Y-52364252D01*
X107820237Y-52358904D01*
X107838141Y-52200003D01*
X107838141Y-52199996D01*
X107819635Y-52035753D01*
X107819634Y-52035751D01*
X107819634Y-52035748D01*
X107816731Y-52027454D01*
X107813169Y-51957677D01*
X107847898Y-51897049D01*
X107909891Y-51864822D01*
X107933773Y-51862500D01*
X108332801Y-51862500D01*
X108399840Y-51882185D01*
X108420482Y-51898819D01*
X108871872Y-52350209D01*
X108902122Y-52399572D01*
X108917922Y-52448201D01*
X108917924Y-52448206D01*
X108965899Y-52531301D01*
X108982372Y-52599201D01*
X108968897Y-52645116D01*
X108970566Y-52645860D01*
X108967923Y-52651795D01*
X108912619Y-52822004D01*
X108912618Y-52822006D01*
X108893910Y-53000000D01*
X108912618Y-53177993D01*
X108912619Y-53177995D01*
X108967920Y-53348197D01*
X108967923Y-53348203D01*
X109057409Y-53503197D01*
X109097912Y-53548180D01*
X109172214Y-53630702D01*
X109177164Y-53636199D01*
X109253432Y-53691611D01*
X109321956Y-53741397D01*
X109374463Y-53764774D01*
X109485454Y-53814190D01*
X109660514Y-53851400D01*
X109660515Y-53851400D01*
X109839484Y-53851400D01*
X109839486Y-53851400D01*
X110014546Y-53814190D01*
X110145757Y-53755771D01*
X110178043Y-53741397D01*
X110178043Y-53741396D01*
X110178045Y-53741396D01*
X110322836Y-53636199D01*
X110442591Y-53503197D01*
X110532077Y-53348203D01*
X110587382Y-53177991D01*
X110606090Y-53000000D01*
X110606034Y-52999464D01*
X110606090Y-52999157D01*
X110606090Y-52993501D01*
X110607124Y-52993501D01*
X110618601Y-52930734D01*
X110666332Y-52879709D01*
X110729354Y-52862500D01*
X111192999Y-52862500D01*
X111243433Y-52873219D01*
X111335454Y-52914190D01*
X111439285Y-52936259D01*
X111500762Y-52969450D01*
X111534539Y-53030612D01*
X111537500Y-53057548D01*
X111537500Y-53884662D01*
X111520890Y-53946658D01*
X111517922Y-53951798D01*
X111462619Y-54122004D01*
X111462619Y-54122005D01*
X111462618Y-54122009D01*
X111452290Y-54220268D01*
X111445830Y-54281730D01*
X111419245Y-54346344D01*
X111361947Y-54386328D01*
X111292128Y-54388988D01*
X111249802Y-54366400D01*
X111248552Y-54368121D01*
X111243296Y-54364302D01*
X111243295Y-54364301D01*
X111172682Y-54312997D01*
X111098502Y-54259102D01*
X110935003Y-54186309D01*
X110783623Y-54154133D01*
X110759945Y-54149100D01*
X110580973Y-54149100D01*
X110557295Y-54154133D01*
X110405914Y-54186309D01*
X110405913Y-54186309D01*
X110242415Y-54259102D01*
X110097621Y-54364302D01*
X109977867Y-54497304D01*
X109888382Y-54652296D01*
X109888379Y-54652302D01*
X109833078Y-54822504D01*
X109833077Y-54822506D01*
X109814369Y-55000500D01*
X109833077Y-55178493D01*
X109833078Y-55178495D01*
X109888379Y-55348697D01*
X109888382Y-55348703D01*
X109977868Y-55503697D01*
X110032392Y-55564252D01*
X110091858Y-55630297D01*
X110097623Y-55636699D01*
X110167791Y-55687679D01*
X110242415Y-55741897D01*
X110333120Y-55782280D01*
X110405913Y-55814690D01*
X110580973Y-55851900D01*
X110580974Y-55851900D01*
X110759943Y-55851900D01*
X110759945Y-55851900D01*
X110935005Y-55814690D01*
X111098504Y-55741896D01*
X111243295Y-55636699D01*
X111363050Y-55503697D01*
X111452536Y-55348703D01*
X111452699Y-55348203D01*
X111481851Y-55258479D01*
X111507841Y-55178491D01*
X111524628Y-55018767D01*
X111551213Y-54954156D01*
X111608510Y-54914171D01*
X111678329Y-54911511D01*
X111720656Y-54934100D01*
X111721907Y-54932379D01*
X111727162Y-54936197D01*
X111727164Y-54936199D01*
X111732089Y-54939777D01*
X111871956Y-55041397D01*
X111925065Y-55065042D01*
X112035454Y-55114190D01*
X112210514Y-55151400D01*
X112210515Y-55151400D01*
X112389484Y-55151400D01*
X112389486Y-55151400D01*
X112564546Y-55114190D01*
X112728045Y-55041396D01*
X112872836Y-54936199D01*
X112992591Y-54803197D01*
X113082077Y-54648203D01*
X113137382Y-54477991D01*
X113156090Y-54300000D01*
X113137382Y-54122009D01*
X113082077Y-53951797D01*
X113079112Y-53946661D01*
X113062499Y-53884661D01*
X113062499Y-53296803D01*
X113062499Y-52664573D01*
X113063808Y-52646620D01*
X113067367Y-52622328D01*
X113067163Y-52620000D01*
X113062736Y-52569399D01*
X113062500Y-52563992D01*
X113062500Y-51815702D01*
X113079112Y-51753704D01*
X113082577Y-51747703D01*
X113137882Y-51577491D01*
X113156590Y-51399500D01*
X113137882Y-51221509D01*
X113103649Y-51116151D01*
X113082579Y-51051302D01*
X113082576Y-51051296D01*
X112993091Y-50896303D01*
X112873336Y-50763301D01*
X112825072Y-50728235D01*
X112728543Y-50658102D01*
X112565044Y-50585309D01*
X112437238Y-50558143D01*
X112389986Y-50548100D01*
X112211014Y-50548100D01*
X112173804Y-50556008D01*
X112035955Y-50585309D01*
X112035954Y-50585309D01*
X111872456Y-50658102D01*
X111727662Y-50763302D01*
X111607908Y-50896304D01*
X111518423Y-51051296D01*
X111518420Y-51051303D01*
X111472269Y-51193343D01*
X111432831Y-51251019D01*
X111380121Y-51276315D01*
X111335455Y-51285809D01*
X111300930Y-51301181D01*
X111243432Y-51326780D01*
X111192999Y-51337500D01*
X110107001Y-51337500D01*
X110056566Y-51326780D01*
X110041124Y-51319905D01*
X109984822Y-51294837D01*
X109947577Y-51269239D01*
X109284838Y-50606500D01*
X109273055Y-50592865D01*
X109258403Y-50573184D01*
X109258397Y-50573177D01*
X109217698Y-50539027D01*
X109213709Y-50535371D01*
X109207766Y-50529428D01*
X109199148Y-50522614D01*
X109181620Y-50508754D01*
X109121853Y-50458604D01*
X109115820Y-50454636D01*
X109115843Y-50454600D01*
X109109193Y-50450363D01*
X109109172Y-50450399D01*
X109103022Y-50446606D01*
X109103020Y-50446605D01*
X109032294Y-50413625D01*
X108962566Y-50378606D01*
X108962565Y-50378605D01*
X108962562Y-50378604D01*
X108955781Y-50376136D01*
X108955794Y-50376097D01*
X108948340Y-50373506D01*
X108948327Y-50373546D01*
X108941472Y-50371274D01*
X108865065Y-50355498D01*
X108849031Y-50351698D01*
X108789123Y-50337500D01*
X108789121Y-50337500D01*
X108789117Y-50337499D01*
X108781948Y-50336661D01*
X108781952Y-50336619D01*
X108774106Y-50335818D01*
X108774103Y-50335860D01*
X108766913Y-50335230D01*
X108688924Y-50337500D01*
X105456225Y-50337500D01*
X105389186Y-50317815D01*
X105343431Y-50265011D01*
X105333487Y-50195853D01*
X105336157Y-50184373D01*
X105336031Y-50184347D01*
X105337380Y-50177997D01*
X105337379Y-50177997D01*
X105337382Y-50177991D01*
X105356090Y-50000000D01*
X105337382Y-49822009D01*
X105282077Y-49651797D01*
X105192591Y-49496803D01*
X105072836Y-49363801D01*
X104957124Y-49279731D01*
X104928043Y-49258602D01*
X104764544Y-49185809D01*
X104632618Y-49157768D01*
X104589486Y-49148600D01*
X104410514Y-49148600D01*
X104373304Y-49156508D01*
X104235455Y-49185809D01*
X104235454Y-49185809D01*
X104071956Y-49258602D01*
X103927162Y-49363802D01*
X103807408Y-49496804D01*
X103717923Y-49651796D01*
X103717920Y-49651802D01*
X103662619Y-49822004D01*
X103662618Y-49822006D01*
X103644466Y-49994711D01*
X103643910Y-50000000D01*
X103662524Y-50177101D01*
X103662619Y-50177997D01*
X103663969Y-50184347D01*
X103661977Y-50184770D01*
X103663704Y-50245011D01*
X103627630Y-50304848D01*
X103564932Y-50335682D01*
X103543775Y-50337500D01*
X93064589Y-50337500D01*
X93046620Y-50336191D01*
X93022325Y-50332632D01*
X92976770Y-50336619D01*
X92969396Y-50337264D01*
X92963993Y-50337500D01*
X92955582Y-50337500D01*
X92927229Y-50340813D01*
X92922503Y-50341366D01*
X92911396Y-50342337D01*
X92844754Y-50348169D01*
X92837688Y-50349628D01*
X92837679Y-50349588D01*
X92829970Y-50351297D01*
X92829980Y-50351337D01*
X92822957Y-50353001D01*
X92772751Y-50371275D01*
X92749630Y-50379690D01*
X92725230Y-50387775D01*
X92675564Y-50404233D01*
X92669020Y-50407285D01*
X92669003Y-50407248D01*
X92661896Y-50410689D01*
X92661914Y-50410724D01*
X92655467Y-50413962D01*
X92590275Y-50456839D01*
X92523854Y-50497809D01*
X92518184Y-50502292D01*
X92518159Y-50502261D01*
X92512044Y-50507243D01*
X92512069Y-50507273D01*
X92506544Y-50511909D01*
X92506538Y-50511914D01*
X92506538Y-50511915D01*
X92452994Y-50568667D01*
X92085909Y-50935753D01*
X91720481Y-51301181D01*
X91659158Y-51334666D01*
X91632800Y-51337500D01*
X88055588Y-51337500D01*
X87952431Y-51349557D01*
X87922956Y-51353002D01*
X87922954Y-51353003D01*
X87755463Y-51413964D01*
X87666405Y-51472539D01*
X87599577Y-51492931D01*
X87532333Y-51473956D01*
X87532295Y-51473932D01*
X87470268Y-51434958D01*
X87314246Y-51380364D01*
X87150004Y-51361859D01*
X87149996Y-51361859D01*
X87114777Y-51365827D01*
X87045955Y-51353772D01*
X86994576Y-51306423D01*
X86976952Y-51238812D01*
X86998679Y-51172407D01*
X87013205Y-51154934D01*
X87159822Y-51008316D01*
X87221144Y-50974834D01*
X87247502Y-50972000D01*
X87758447Y-50972000D01*
X87766545Y-50972530D01*
X87784041Y-50974834D01*
X87799999Y-50976935D01*
X87800000Y-50976935D01*
X87835560Y-50972253D01*
X87835583Y-50972251D01*
X87837489Y-50972000D01*
X87837492Y-50972000D01*
X87949322Y-50957277D01*
X88088468Y-50899641D01*
X88155211Y-50848427D01*
X88155210Y-50848426D01*
X88189131Y-50822400D01*
X88189134Y-50822395D01*
X88207955Y-50807955D01*
X88228506Y-50781172D01*
X88233836Y-50775093D01*
X89014219Y-49994709D01*
X89075540Y-49961226D01*
X89145231Y-49966210D01*
X89194048Y-49999420D01*
X89194569Y-49999999D01*
X89227164Y-50036199D01*
X89287443Y-50079994D01*
X89371956Y-50141397D01*
X89452150Y-50177101D01*
X89535454Y-50214190D01*
X89710514Y-50251400D01*
X89710515Y-50251400D01*
X89889484Y-50251400D01*
X89889486Y-50251400D01*
X90064546Y-50214190D01*
X90228045Y-50141396D01*
X90372836Y-50036199D01*
X90492591Y-49903197D01*
X90582077Y-49748203D01*
X90637382Y-49577991D01*
X90656090Y-49400000D01*
X90637382Y-49222009D01*
X90582077Y-49051797D01*
X90582076Y-49051796D01*
X90580117Y-49045765D01*
X90578122Y-48975924D01*
X90614202Y-48916091D01*
X90676903Y-48885263D01*
X90677378Y-48885182D01*
X90819635Y-48861444D01*
X91032574Y-48788342D01*
X91230576Y-48681189D01*
X91408240Y-48542906D01*
X91529594Y-48411082D01*
X91560715Y-48377276D01*
X91560717Y-48377273D01*
X91560722Y-48377268D01*
X91651193Y-48238791D01*
X91704336Y-48193437D01*
X91773567Y-48184013D01*
X91836903Y-48213515D01*
X91858807Y-48238793D01*
X91949276Y-48377265D01*
X91949284Y-48377276D01*
X92083060Y-48522593D01*
X92101760Y-48542906D01*
X92279424Y-48681189D01*
X92279425Y-48681189D01*
X92279427Y-48681191D01*
X92315930Y-48700945D01*
X92477426Y-48788342D01*
X92690365Y-48861444D01*
X92912431Y-48898500D01*
X93137569Y-48898500D01*
X93359635Y-48861444D01*
X93572574Y-48788342D01*
X93770576Y-48681189D01*
X93948240Y-48542906D01*
X94069594Y-48411082D01*
X94100715Y-48377276D01*
X94100715Y-48377275D01*
X94100722Y-48377268D01*
X94191193Y-48238790D01*
X94244338Y-48193437D01*
X94313569Y-48184013D01*
X94376905Y-48213515D01*
X94398804Y-48238787D01*
X94489278Y-48377268D01*
X94489283Y-48377273D01*
X94489284Y-48377276D01*
X94623060Y-48522593D01*
X94641760Y-48542906D01*
X94819424Y-48681189D01*
X94819425Y-48681189D01*
X94819427Y-48681191D01*
X94855930Y-48700945D01*
X95017426Y-48788342D01*
X95230365Y-48861444D01*
X95452431Y-48898500D01*
X95677569Y-48898500D01*
X95899635Y-48861444D01*
X96112574Y-48788342D01*
X96310576Y-48681189D01*
X96488240Y-48542906D01*
X96609594Y-48411082D01*
X96640715Y-48377276D01*
X96640717Y-48377273D01*
X96640722Y-48377268D01*
X96731193Y-48238791D01*
X96784336Y-48193437D01*
X96853567Y-48184013D01*
X96916903Y-48213515D01*
X96938807Y-48238793D01*
X97029276Y-48377265D01*
X97029284Y-48377276D01*
X97163060Y-48522593D01*
X97181760Y-48542906D01*
X97359424Y-48681189D01*
X97359425Y-48681189D01*
X97359427Y-48681191D01*
X97395930Y-48700945D01*
X97557426Y-48788342D01*
X97770365Y-48861444D01*
X97992431Y-48898500D01*
X98217569Y-48898500D01*
X98439635Y-48861444D01*
X98652574Y-48788342D01*
X98850576Y-48681189D01*
X99028240Y-48542906D01*
X99149594Y-48411082D01*
X99180715Y-48377276D01*
X99180715Y-48377275D01*
X99180722Y-48377268D01*
X99271193Y-48238790D01*
X99324338Y-48193437D01*
X99393569Y-48184013D01*
X99456905Y-48213515D01*
X99478804Y-48238787D01*
X99569278Y-48377268D01*
X99569283Y-48377273D01*
X99569284Y-48377276D01*
X99703060Y-48522593D01*
X99721760Y-48542906D01*
X99899424Y-48681189D01*
X99899425Y-48681189D01*
X99899427Y-48681191D01*
X99935930Y-48700945D01*
X100097426Y-48788342D01*
X100310365Y-48861444D01*
X100532431Y-48898500D01*
X100757569Y-48898500D01*
X100979635Y-48861444D01*
X101192574Y-48788342D01*
X101390576Y-48681189D01*
X101568240Y-48542906D01*
X101689594Y-48411082D01*
X101720715Y-48377276D01*
X101720717Y-48377273D01*
X101720722Y-48377268D01*
X101811193Y-48238791D01*
X101864336Y-48193437D01*
X101933567Y-48184013D01*
X101996903Y-48213515D01*
X102018807Y-48238793D01*
X102109276Y-48377265D01*
X102109284Y-48377276D01*
X102243060Y-48522593D01*
X102261760Y-48542906D01*
X102439424Y-48681189D01*
X102439425Y-48681189D01*
X102439427Y-48681191D01*
X102475930Y-48700945D01*
X102637426Y-48788342D01*
X102850365Y-48861444D01*
X103072431Y-48898500D01*
X103297569Y-48898500D01*
X103519635Y-48861444D01*
X103732574Y-48788342D01*
X103930576Y-48681189D01*
X104108240Y-48542906D01*
X104229594Y-48411082D01*
X104260715Y-48377276D01*
X104260715Y-48377275D01*
X104260722Y-48377268D01*
X104351193Y-48238790D01*
X104404338Y-48193437D01*
X104473569Y-48184013D01*
X104536905Y-48213515D01*
X104558804Y-48238787D01*
X104649278Y-48377268D01*
X104649283Y-48377273D01*
X104649284Y-48377276D01*
X104783060Y-48522593D01*
X104801760Y-48542906D01*
X104979424Y-48681189D01*
X104979425Y-48681189D01*
X104979427Y-48681191D01*
X105015930Y-48700945D01*
X105177426Y-48788342D01*
X105390365Y-48861444D01*
X105612431Y-48898500D01*
X105837569Y-48898500D01*
X106059635Y-48861444D01*
X106272574Y-48788342D01*
X106470576Y-48681189D01*
X106648240Y-48542906D01*
X106769594Y-48411082D01*
X106800715Y-48377276D01*
X106800717Y-48377273D01*
X106800722Y-48377268D01*
X106891193Y-48238791D01*
X106944336Y-48193437D01*
X107013567Y-48184013D01*
X107076903Y-48213515D01*
X107098807Y-48238793D01*
X107189276Y-48377265D01*
X107189284Y-48377276D01*
X107323060Y-48522593D01*
X107341760Y-48542906D01*
X107519424Y-48681189D01*
X107519425Y-48681189D01*
X107519427Y-48681191D01*
X107555930Y-48700945D01*
X107717426Y-48788342D01*
X107930365Y-48861444D01*
X108152431Y-48898500D01*
X108377569Y-48898500D01*
X108599635Y-48861444D01*
X108812574Y-48788342D01*
X109010576Y-48681189D01*
X109188240Y-48542906D01*
X109309594Y-48411082D01*
X109340715Y-48377276D01*
X109340715Y-48377275D01*
X109340722Y-48377268D01*
X109431193Y-48238790D01*
X109484338Y-48193437D01*
X109553569Y-48184013D01*
X109616905Y-48213515D01*
X109638804Y-48238787D01*
X109729278Y-48377268D01*
X109729283Y-48377273D01*
X109729284Y-48377276D01*
X109863060Y-48522593D01*
X109881760Y-48542906D01*
X110059424Y-48681189D01*
X110059425Y-48681189D01*
X110059427Y-48681191D01*
X110095930Y-48700945D01*
X110257426Y-48788342D01*
X110470365Y-48861444D01*
X110692431Y-48898500D01*
X110917569Y-48898500D01*
X111139635Y-48861444D01*
X111352574Y-48788342D01*
X111550576Y-48681189D01*
X111728240Y-48542906D01*
X111849594Y-48411082D01*
X111880715Y-48377276D01*
X111880717Y-48377273D01*
X111880722Y-48377268D01*
X111971193Y-48238791D01*
X112024336Y-48193437D01*
X112093567Y-48184013D01*
X112156903Y-48213515D01*
X112178807Y-48238793D01*
X112269276Y-48377265D01*
X112269284Y-48377276D01*
X112403060Y-48522593D01*
X112421760Y-48542906D01*
X112599424Y-48681189D01*
X112599425Y-48681189D01*
X112599427Y-48681191D01*
X112635930Y-48700945D01*
X112797426Y-48788342D01*
X113010365Y-48861444D01*
X113232431Y-48898500D01*
X113457568Y-48898500D01*
X113457569Y-48898500D01*
X113648088Y-48866708D01*
X113717452Y-48875090D01*
X113771275Y-48919643D01*
X113792465Y-48986221D01*
X113785054Y-49024221D01*
X113787059Y-49024804D01*
X113784881Y-49032296D01*
X113777469Y-49079098D01*
X113776284Y-49084820D01*
X113764500Y-49130711D01*
X113764500Y-49151225D01*
X113762972Y-49170624D01*
X113759765Y-49190879D01*
X113762708Y-49222009D01*
X113764225Y-49238059D01*
X113764500Y-49243897D01*
X113764500Y-51116151D01*
X113762758Y-51131927D01*
X113763026Y-51131953D01*
X113762292Y-51139718D01*
X113764500Y-51209985D01*
X113764500Y-51239983D01*
X113765387Y-51247013D01*
X113765845Y-51252832D01*
X113767334Y-51300203D01*
X113767335Y-51300207D01*
X113773057Y-51319905D01*
X113777000Y-51338946D01*
X113779571Y-51359288D01*
X113779574Y-51359303D01*
X113797016Y-51403359D01*
X113798907Y-51408883D01*
X113807513Y-51438500D01*
X113812131Y-51454393D01*
X113817190Y-51462948D01*
X113822570Y-51472044D01*
X113831128Y-51489514D01*
X113838679Y-51508585D01*
X113838680Y-51508587D01*
X113838681Y-51508588D01*
X113845051Y-51517356D01*
X113848648Y-51522306D01*
X113864270Y-51551218D01*
X113890345Y-51619970D01*
X113920911Y-51664252D01*
X113984635Y-51756573D01*
X113984637Y-51756575D01*
X113984639Y-51756577D01*
X114108874Y-51866640D01*
X114108876Y-51866641D01*
X114255847Y-51943777D01*
X114336427Y-51963638D01*
X114417007Y-51983500D01*
X114490953Y-51983500D01*
X114557992Y-52003185D01*
X114603747Y-52055989D01*
X114613691Y-52125147D01*
X114604510Y-52157308D01*
X114595703Y-52177386D01*
X114540436Y-52395628D01*
X114540434Y-52395640D01*
X114521844Y-52619994D01*
X114521844Y-52620005D01*
X114540435Y-52844364D01*
X114573532Y-52975062D01*
X114570907Y-53044882D01*
X114535553Y-53098317D01*
X114484639Y-53143422D01*
X114484633Y-53143429D01*
X114390347Y-53280026D01*
X114331486Y-53435226D01*
X114311480Y-53599999D01*
X114311480Y-53600000D01*
X114331486Y-53764773D01*
X114370766Y-53868343D01*
X114382770Y-53899996D01*
X114390347Y-53919973D01*
X114454615Y-54013081D01*
X114484635Y-54056573D01*
X114484637Y-54056575D01*
X114484639Y-54056577D01*
X114608873Y-54166639D01*
X114608874Y-54166639D01*
X114608876Y-54166641D01*
X114716405Y-54223076D01*
X114746458Y-54245191D01*
X114791342Y-54290075D01*
X114801267Y-54302463D01*
X114801474Y-54302292D01*
X114806445Y-54308301D01*
X114857692Y-54356426D01*
X114878907Y-54377641D01*
X114884499Y-54381977D01*
X114888949Y-54385777D01*
X114923490Y-54418214D01*
X114923497Y-54418219D01*
X114941459Y-54428093D01*
X114957723Y-54438775D01*
X114973933Y-54451349D01*
X115017431Y-54470172D01*
X115022660Y-54472734D01*
X115032230Y-54477995D01*
X115064192Y-54495567D01*
X115064194Y-54495567D01*
X115064197Y-54495569D01*
X115084066Y-54500670D01*
X115102462Y-54506968D01*
X115121292Y-54515117D01*
X115153796Y-54520264D01*
X115168098Y-54522530D01*
X115173817Y-54523714D01*
X115219718Y-54535500D01*
X115240226Y-54535500D01*
X115259623Y-54537026D01*
X115279877Y-54540234D01*
X115279878Y-54540235D01*
X115279878Y-54540234D01*
X115279879Y-54540235D01*
X115301987Y-54538145D01*
X115327061Y-54535775D01*
X115332899Y-54535500D01*
X116516153Y-54535500D01*
X116531932Y-54537241D01*
X116531958Y-54536974D01*
X116539711Y-54537706D01*
X116539719Y-54537708D01*
X116609985Y-54535500D01*
X116639983Y-54535500D01*
X116647013Y-54534611D01*
X116652836Y-54534153D01*
X116700205Y-54532665D01*
X116719906Y-54526940D01*
X116738951Y-54522997D01*
X116759299Y-54520427D01*
X116803393Y-54502968D01*
X116808856Y-54501098D01*
X116854393Y-54487869D01*
X116872054Y-54477423D01*
X116889512Y-54468871D01*
X116908588Y-54461319D01*
X116946928Y-54433462D01*
X116951800Y-54430261D01*
X116992598Y-54406134D01*
X117007094Y-54391637D01*
X117021892Y-54378998D01*
X117023760Y-54377641D01*
X117038487Y-54366942D01*
X117068706Y-54330411D01*
X117072620Y-54326110D01*
X117586870Y-53811861D01*
X117648191Y-53778378D01*
X117717883Y-53783362D01*
X117733559Y-53790485D01*
X117827634Y-53841396D01*
X117877418Y-53868338D01*
X117877426Y-53868342D01*
X118090365Y-53941444D01*
X118312431Y-53978500D01*
X118537569Y-53978500D01*
X118759635Y-53941444D01*
X118972574Y-53868342D01*
X119170576Y-53761189D01*
X119348240Y-53622906D01*
X119476856Y-53483193D01*
X119500715Y-53457276D01*
X119500716Y-53457274D01*
X119500722Y-53457268D01*
X119623860Y-53268791D01*
X119714296Y-53062616D01*
X119769564Y-52844368D01*
X119769565Y-52844359D01*
X119788156Y-52620005D01*
X119788156Y-52619994D01*
X119769565Y-52395640D01*
X119769563Y-52395628D01*
X119720024Y-52200003D01*
X119714296Y-52177384D01*
X119623860Y-51971209D01*
X119616682Y-51960223D01*
X119500723Y-51782734D01*
X119500715Y-51782723D01*
X119348243Y-51617097D01*
X119348238Y-51617092D01*
X119220098Y-51517356D01*
X119170576Y-51478811D01*
X119134070Y-51459055D01*
X119084479Y-51409836D01*
X119069371Y-51341619D01*
X119093541Y-51276064D01*
X119134070Y-51240945D01*
X119138011Y-51238812D01*
X119170576Y-51221189D01*
X119348240Y-51082906D01*
X119500722Y-50917268D01*
X119623860Y-50728791D01*
X119714296Y-50522616D01*
X119769564Y-50304368D01*
X119772823Y-50265041D01*
X119788156Y-50080005D01*
X119788156Y-50079994D01*
X119769565Y-49855640D01*
X119769563Y-49855628D01*
X119717946Y-49651797D01*
X119714296Y-49637384D01*
X119623860Y-49431209D01*
X119500722Y-49242732D01*
X119500719Y-49242729D01*
X119500715Y-49242723D01*
X119348243Y-49077097D01*
X119348238Y-49077092D01*
X119217324Y-48975197D01*
X119170576Y-48938811D01*
X119134070Y-48919055D01*
X119084479Y-48869836D01*
X119069371Y-48801619D01*
X119093541Y-48736064D01*
X119134070Y-48700945D01*
X119136191Y-48699797D01*
X119170576Y-48681189D01*
X119348240Y-48542906D01*
X119469594Y-48411082D01*
X119500715Y-48377276D01*
X119500719Y-48377271D01*
X119500722Y-48377268D01*
X119623860Y-48188791D01*
X119714296Y-47982616D01*
X119769564Y-47764368D01*
X119788156Y-47540000D01*
X119777715Y-47414000D01*
X119769565Y-47315640D01*
X119769563Y-47315628D01*
X119714296Y-47097385D01*
X119623859Y-46891207D01*
X119500723Y-46702734D01*
X119500715Y-46702723D01*
X119355510Y-46544991D01*
X119324587Y-46482337D01*
X119332447Y-46412911D01*
X119376594Y-46358755D01*
X119403405Y-46344827D01*
X119483584Y-46314920D01*
X119521204Y-46300889D01*
X119638261Y-46213261D01*
X119725889Y-46096204D01*
X119776989Y-45959201D01*
X119780591Y-45925692D01*
X119783499Y-45898654D01*
X119783500Y-45898637D01*
X119783500Y-44295535D01*
X119803185Y-44228496D01*
X119855989Y-44182741D01*
X119925147Y-44172797D01*
X119988703Y-44201822D01*
G37*
G04 #@! TD.AperFunction*
M02*
