G04 #@! TF.GenerationSoftware,KiCad,Pcbnew,7.0.6-7.0.6~ubuntu22.04.1*
G04 #@! TF.CreationDate,2023-07-20T16:44:22-04:00*
G04 #@! TF.ProjectId,f1c_linux,6631635f-6c69-46e7-9578-2e6b69636164,1*
G04 #@! TF.SameCoordinates,Original*
G04 #@! TF.FileFunction,Soldermask,Bot*
G04 #@! TF.FilePolarity,Negative*
%FSLAX46Y46*%
G04 Gerber Fmt 4.6, Leading zero omitted, Abs format (unit mm)*
G04 Created by KiCad (PCBNEW 7.0.6-7.0.6~ubuntu22.04.1) date 2023-07-20 16:44:22*
%MOMM*%
%LPD*%
G01*
G04 APERTURE LIST*
G04 APERTURE END LIST*
G36*
X108896305Y-64715089D02*
G01*
X108951157Y-64715089D01*
X108967814Y-64719979D01*
X108981631Y-64720925D01*
X109032001Y-64738826D01*
X109087708Y-64755184D01*
X109099689Y-64762883D01*
X109109813Y-64766482D01*
X109155824Y-64798959D01*
X109207430Y-64832125D01*
X109214707Y-64840523D01*
X109220950Y-64844930D01*
X109258192Y-64890707D01*
X109300627Y-64939680D01*
X109303945Y-64946947D01*
X109306801Y-64950457D01*
X109331182Y-65006588D01*
X109359746Y-65069134D01*
X109360436Y-65073936D01*
X109360998Y-65075229D01*
X109369153Y-65134560D01*
X109380000Y-65210000D01*
X109380000Y-66010000D01*
X109379772Y-66011580D01*
X109375344Y-66076327D01*
X109365318Y-66112106D01*
X109359746Y-66150866D01*
X109346065Y-66180823D01*
X109338168Y-66209008D01*
X109318192Y-66241856D01*
X109300627Y-66280320D01*
X109281095Y-66302861D01*
X109267485Y-66325242D01*
X109237166Y-66353557D01*
X109207430Y-66387875D01*
X109184955Y-66402318D01*
X109168065Y-66418093D01*
X109128553Y-66438566D01*
X109087708Y-66464816D01*
X109065058Y-66471466D01*
X109047277Y-66480680D01*
X109000756Y-66490347D01*
X108951157Y-66504911D01*
X108930674Y-66504911D01*
X108914091Y-66508357D01*
X108863708Y-66504911D01*
X108808843Y-66504911D01*
X108792181Y-66500018D01*
X108778368Y-66499074D01*
X108728009Y-66481176D01*
X108672292Y-66464816D01*
X108660308Y-66457114D01*
X108650186Y-66453517D01*
X108604180Y-66421043D01*
X108552570Y-66387875D01*
X108545291Y-66379475D01*
X108539049Y-66375069D01*
X108501804Y-66329288D01*
X108459373Y-66280320D01*
X108456054Y-66273052D01*
X108453198Y-66269542D01*
X108428805Y-66213386D01*
X108400254Y-66150866D01*
X108399563Y-66146065D01*
X108399001Y-66144770D01*
X108390837Y-66085371D01*
X108380000Y-66010000D01*
X108380000Y-65210000D01*
X108380227Y-65208420D01*
X108384655Y-65143672D01*
X108394682Y-65107884D01*
X108400254Y-65069134D01*
X108413931Y-65039183D01*
X108421831Y-65010991D01*
X108441812Y-64978132D01*
X108459373Y-64939680D01*
X108478899Y-64917145D01*
X108492514Y-64894757D01*
X108522842Y-64866432D01*
X108552570Y-64832125D01*
X108575037Y-64817685D01*
X108591934Y-64801906D01*
X108631458Y-64781425D01*
X108672292Y-64755184D01*
X108694935Y-64748535D01*
X108712722Y-64739319D01*
X108759257Y-64729648D01*
X108808843Y-64715089D01*
X108829321Y-64715089D01*
X108845908Y-64711642D01*
X108896305Y-64715089D01*
G37*
G36*
X117536305Y-64715089D02*
G01*
X117591157Y-64715089D01*
X117607814Y-64719979D01*
X117621631Y-64720925D01*
X117672001Y-64738826D01*
X117727708Y-64755184D01*
X117739689Y-64762883D01*
X117749813Y-64766482D01*
X117795824Y-64798959D01*
X117847430Y-64832125D01*
X117854707Y-64840523D01*
X117860950Y-64844930D01*
X117898192Y-64890707D01*
X117940627Y-64939680D01*
X117943945Y-64946947D01*
X117946801Y-64950457D01*
X117971182Y-65006588D01*
X117999746Y-65069134D01*
X118000436Y-65073936D01*
X118000998Y-65075229D01*
X118009153Y-65134560D01*
X118020000Y-65210000D01*
X118020000Y-66010000D01*
X118019772Y-66011580D01*
X118015344Y-66076327D01*
X118005318Y-66112106D01*
X117999746Y-66150866D01*
X117986065Y-66180823D01*
X117978168Y-66209008D01*
X117958192Y-66241856D01*
X117940627Y-66280320D01*
X117921095Y-66302861D01*
X117907485Y-66325242D01*
X117877166Y-66353557D01*
X117847430Y-66387875D01*
X117824955Y-66402318D01*
X117808065Y-66418093D01*
X117768553Y-66438566D01*
X117727708Y-66464816D01*
X117705058Y-66471466D01*
X117687277Y-66480680D01*
X117640756Y-66490347D01*
X117591157Y-66504911D01*
X117570674Y-66504911D01*
X117554091Y-66508357D01*
X117503708Y-66504911D01*
X117448843Y-66504911D01*
X117432181Y-66500018D01*
X117418368Y-66499074D01*
X117368009Y-66481176D01*
X117312292Y-66464816D01*
X117300308Y-66457114D01*
X117290186Y-66453517D01*
X117244180Y-66421043D01*
X117192570Y-66387875D01*
X117185291Y-66379475D01*
X117179049Y-66375069D01*
X117141804Y-66329288D01*
X117099373Y-66280320D01*
X117096054Y-66273052D01*
X117093198Y-66269542D01*
X117068805Y-66213386D01*
X117040254Y-66150866D01*
X117039563Y-66146065D01*
X117039001Y-66144770D01*
X117030837Y-66085371D01*
X117020000Y-66010000D01*
X117020000Y-65210000D01*
X117020227Y-65208420D01*
X117024655Y-65143672D01*
X117034682Y-65107884D01*
X117040254Y-65069134D01*
X117053931Y-65039183D01*
X117061831Y-65010991D01*
X117081812Y-64978132D01*
X117099373Y-64939680D01*
X117118899Y-64917145D01*
X117132514Y-64894757D01*
X117162842Y-64866432D01*
X117192570Y-64832125D01*
X117215037Y-64817685D01*
X117231934Y-64801906D01*
X117271458Y-64781425D01*
X117312292Y-64755184D01*
X117334935Y-64748535D01*
X117352722Y-64739319D01*
X117399257Y-64729648D01*
X117448843Y-64715089D01*
X117469321Y-64715089D01*
X117485908Y-64711642D01*
X117536305Y-64715089D01*
G37*
G36*
X91096031Y-64414468D02*
G01*
X91284536Y-64471650D01*
X91438390Y-64553887D01*
X91458259Y-64564507D01*
X91610528Y-64689472D01*
X91735493Y-64841741D01*
X91828350Y-65015465D01*
X91885531Y-65203966D01*
X91904839Y-65400000D01*
X91885531Y-65596034D01*
X91828350Y-65784535D01*
X91735493Y-65958259D01*
X91610528Y-66110528D01*
X91458259Y-66235493D01*
X91284535Y-66328350D01*
X91096034Y-66385531D01*
X90900000Y-66404839D01*
X90703966Y-66385531D01*
X90515465Y-66328350D01*
X90341741Y-66235493D01*
X90189472Y-66110528D01*
X90064507Y-65958259D01*
X90011055Y-65858257D01*
X89971650Y-65784536D01*
X89914468Y-65596031D01*
X89895161Y-65400000D01*
X89914468Y-65203968D01*
X89971650Y-65015463D01*
X90064506Y-64841742D01*
X90189472Y-64689472D01*
X90341742Y-64564506D01*
X90515463Y-64471650D01*
X90703968Y-64414468D01*
X90900000Y-64395161D01*
X91096031Y-64414468D01*
G37*
G36*
X95396031Y-64414468D02*
G01*
X95584536Y-64471650D01*
X95738390Y-64553887D01*
X95758259Y-64564507D01*
X95910528Y-64689472D01*
X96035493Y-64841741D01*
X96128350Y-65015465D01*
X96185531Y-65203966D01*
X96204839Y-65400000D01*
X96185531Y-65596034D01*
X96128350Y-65784535D01*
X96035493Y-65958259D01*
X95910528Y-66110528D01*
X95758259Y-66235493D01*
X95584535Y-66328350D01*
X95396034Y-66385531D01*
X95200000Y-66404839D01*
X95003966Y-66385531D01*
X94815465Y-66328350D01*
X94641741Y-66235493D01*
X94489472Y-66110528D01*
X94364507Y-65958259D01*
X94311055Y-65858257D01*
X94271650Y-65784536D01*
X94214468Y-65596031D01*
X94195161Y-65400000D01*
X94214468Y-65203968D01*
X94271650Y-65015463D01*
X94364506Y-64841742D01*
X94489472Y-64689472D01*
X94641742Y-64564506D01*
X94815463Y-64471650D01*
X95003968Y-64414468D01*
X95200000Y-64395161D01*
X95396031Y-64414468D01*
G37*
G36*
X99696031Y-64314468D02*
G01*
X99884536Y-64371650D01*
X100038390Y-64453887D01*
X100058259Y-64464507D01*
X100210528Y-64589472D01*
X100335493Y-64741741D01*
X100428350Y-64915465D01*
X100485531Y-65103966D01*
X100504839Y-65300000D01*
X100485531Y-65496034D01*
X100428350Y-65684535D01*
X100335493Y-65858259D01*
X100210528Y-66010528D01*
X100058259Y-66135493D01*
X99884535Y-66228350D01*
X99696034Y-66285531D01*
X99500000Y-66304839D01*
X99303966Y-66285531D01*
X99115465Y-66228350D01*
X98941741Y-66135493D01*
X98789472Y-66010528D01*
X98664507Y-65858259D01*
X98611055Y-65758257D01*
X98571650Y-65684536D01*
X98514468Y-65496031D01*
X98495161Y-65300000D01*
X98514468Y-65103968D01*
X98571650Y-64915463D01*
X98664506Y-64741742D01*
X98789472Y-64589472D01*
X98941742Y-64464506D01*
X99115463Y-64371650D01*
X99303968Y-64314468D01*
X99500000Y-64295161D01*
X99696031Y-64314468D01*
G37*
G36*
X104396031Y-64214468D02*
G01*
X104584536Y-64271650D01*
X104738390Y-64353887D01*
X104758259Y-64364507D01*
X104910528Y-64489472D01*
X105035493Y-64641741D01*
X105128350Y-64815465D01*
X105185531Y-65003966D01*
X105204839Y-65200000D01*
X105185531Y-65396034D01*
X105128350Y-65584535D01*
X105035493Y-65758259D01*
X104910528Y-65910528D01*
X104758259Y-66035493D01*
X104584535Y-66128350D01*
X104396034Y-66185531D01*
X104200000Y-66204839D01*
X104003966Y-66185531D01*
X103815465Y-66128350D01*
X103641741Y-66035493D01*
X103489472Y-65910528D01*
X103364507Y-65758259D01*
X103277796Y-65596034D01*
X103271650Y-65584536D01*
X103214468Y-65396031D01*
X103195161Y-65200000D01*
X103214468Y-65003968D01*
X103271650Y-64815463D01*
X103364506Y-64641742D01*
X103489472Y-64489472D01*
X103641742Y-64364506D01*
X103815463Y-64271650D01*
X104003968Y-64214468D01*
X104200000Y-64195161D01*
X104396031Y-64214468D01*
G37*
G36*
X108896305Y-60365089D02*
G01*
X108951157Y-60365089D01*
X108967814Y-60369979D01*
X108981631Y-60370925D01*
X109032001Y-60388826D01*
X109087708Y-60405184D01*
X109099689Y-60412883D01*
X109109813Y-60416482D01*
X109155824Y-60448959D01*
X109207430Y-60482125D01*
X109214707Y-60490523D01*
X109220950Y-60494930D01*
X109258192Y-60540707D01*
X109300627Y-60589680D01*
X109303945Y-60596947D01*
X109306801Y-60600457D01*
X109331182Y-60656588D01*
X109359746Y-60719134D01*
X109360436Y-60723936D01*
X109360998Y-60725229D01*
X109369153Y-60784560D01*
X109380000Y-60860000D01*
X109380000Y-61960000D01*
X109379772Y-61961580D01*
X109375344Y-62026327D01*
X109365318Y-62062106D01*
X109359746Y-62100866D01*
X109346065Y-62130823D01*
X109338168Y-62159008D01*
X109318192Y-62191856D01*
X109300627Y-62230320D01*
X109281095Y-62252861D01*
X109267485Y-62275242D01*
X109237166Y-62303557D01*
X109207430Y-62337875D01*
X109184955Y-62352318D01*
X109168065Y-62368093D01*
X109128553Y-62388566D01*
X109087708Y-62414816D01*
X109065058Y-62421466D01*
X109047277Y-62430680D01*
X109000756Y-62440347D01*
X108951157Y-62454911D01*
X108930674Y-62454911D01*
X108914091Y-62458357D01*
X108863708Y-62454911D01*
X108808843Y-62454911D01*
X108792181Y-62450018D01*
X108778368Y-62449074D01*
X108728009Y-62431176D01*
X108672292Y-62414816D01*
X108660308Y-62407114D01*
X108650186Y-62403517D01*
X108604180Y-62371043D01*
X108552570Y-62337875D01*
X108545291Y-62329475D01*
X108539049Y-62325069D01*
X108501804Y-62279288D01*
X108459373Y-62230320D01*
X108456054Y-62223052D01*
X108453198Y-62219542D01*
X108428805Y-62163386D01*
X108400254Y-62100866D01*
X108399563Y-62096065D01*
X108399001Y-62094770D01*
X108390837Y-62035371D01*
X108380000Y-61960000D01*
X108380000Y-60860000D01*
X108380227Y-60858420D01*
X108384655Y-60793672D01*
X108394682Y-60757884D01*
X108400254Y-60719134D01*
X108413931Y-60689183D01*
X108421831Y-60660991D01*
X108441812Y-60628132D01*
X108459373Y-60589680D01*
X108478899Y-60567145D01*
X108492514Y-60544757D01*
X108522842Y-60516432D01*
X108552570Y-60482125D01*
X108575037Y-60467685D01*
X108591934Y-60451906D01*
X108631458Y-60431425D01*
X108672292Y-60405184D01*
X108694935Y-60398535D01*
X108712722Y-60389319D01*
X108759257Y-60379648D01*
X108808843Y-60365089D01*
X108829321Y-60365089D01*
X108845908Y-60361642D01*
X108896305Y-60365089D01*
G37*
G36*
X117536305Y-60365089D02*
G01*
X117591157Y-60365089D01*
X117607814Y-60369979D01*
X117621631Y-60370925D01*
X117672001Y-60388826D01*
X117727708Y-60405184D01*
X117739689Y-60412883D01*
X117749813Y-60416482D01*
X117795824Y-60448959D01*
X117847430Y-60482125D01*
X117854707Y-60490523D01*
X117860950Y-60494930D01*
X117898192Y-60540707D01*
X117940627Y-60589680D01*
X117943945Y-60596947D01*
X117946801Y-60600457D01*
X117971182Y-60656588D01*
X117999746Y-60719134D01*
X118000436Y-60723936D01*
X118000998Y-60725229D01*
X118009153Y-60784560D01*
X118020000Y-60860000D01*
X118020000Y-61960000D01*
X118019772Y-61961580D01*
X118015344Y-62026327D01*
X118005318Y-62062106D01*
X117999746Y-62100866D01*
X117986065Y-62130823D01*
X117978168Y-62159008D01*
X117958192Y-62191856D01*
X117940627Y-62230320D01*
X117921095Y-62252861D01*
X117907485Y-62275242D01*
X117877166Y-62303557D01*
X117847430Y-62337875D01*
X117824955Y-62352318D01*
X117808065Y-62368093D01*
X117768553Y-62388566D01*
X117727708Y-62414816D01*
X117705058Y-62421466D01*
X117687277Y-62430680D01*
X117640756Y-62440347D01*
X117591157Y-62454911D01*
X117570674Y-62454911D01*
X117554091Y-62458357D01*
X117503708Y-62454911D01*
X117448843Y-62454911D01*
X117432181Y-62450018D01*
X117418368Y-62449074D01*
X117368009Y-62431176D01*
X117312292Y-62414816D01*
X117300308Y-62407114D01*
X117290186Y-62403517D01*
X117244180Y-62371043D01*
X117192570Y-62337875D01*
X117185291Y-62329475D01*
X117179049Y-62325069D01*
X117141804Y-62279288D01*
X117099373Y-62230320D01*
X117096054Y-62223052D01*
X117093198Y-62219542D01*
X117068805Y-62163386D01*
X117040254Y-62100866D01*
X117039563Y-62096065D01*
X117039001Y-62094770D01*
X117030837Y-62035371D01*
X117020000Y-61960000D01*
X117020000Y-60860000D01*
X117020227Y-60858420D01*
X117024655Y-60793672D01*
X117034682Y-60757884D01*
X117040254Y-60719134D01*
X117053931Y-60689183D01*
X117061831Y-60660991D01*
X117081812Y-60628132D01*
X117099373Y-60589680D01*
X117118899Y-60567145D01*
X117132514Y-60544757D01*
X117162842Y-60516432D01*
X117192570Y-60482125D01*
X117215037Y-60467685D01*
X117231934Y-60451906D01*
X117271458Y-60431425D01*
X117312292Y-60405184D01*
X117334935Y-60398535D01*
X117352722Y-60389319D01*
X117399257Y-60379648D01*
X117448843Y-60365089D01*
X117469321Y-60365089D01*
X117485908Y-60361642D01*
X117536305Y-60365089D01*
G37*
G36*
X110337174Y-61609937D02*
G01*
X110366436Y-61609937D01*
X110388978Y-61618141D01*
X110410237Y-61621509D01*
X110440265Y-61636809D01*
X110472500Y-61648542D01*
X110486735Y-61660487D01*
X110500658Y-61667581D01*
X110529175Y-61696098D01*
X110558964Y-61721094D01*
X110565511Y-61732434D01*
X110572418Y-61739341D01*
X110594345Y-61782375D01*
X110615400Y-61818843D01*
X110616708Y-61826266D01*
X110618490Y-61829762D01*
X110628770Y-61894668D01*
X110635000Y-61930000D01*
X110628769Y-61965335D01*
X110618490Y-62030237D01*
X110616709Y-62033731D01*
X110615400Y-62041157D01*
X110594340Y-62077631D01*
X110572418Y-62120658D01*
X110565512Y-62127563D01*
X110558964Y-62138906D01*
X110529168Y-62163907D01*
X110500658Y-62192418D01*
X110486738Y-62199510D01*
X110472500Y-62211458D01*
X110440258Y-62223193D01*
X110410237Y-62238490D01*
X110388983Y-62241856D01*
X110366436Y-62250063D01*
X110337168Y-62250063D01*
X110310000Y-62254366D01*
X110282832Y-62250063D01*
X110253564Y-62250063D01*
X110231017Y-62241856D01*
X110209762Y-62238490D01*
X110179737Y-62223191D01*
X110147500Y-62211458D01*
X110133262Y-62199511D01*
X110119341Y-62192418D01*
X110090824Y-62163901D01*
X110061036Y-62138906D01*
X110054488Y-62127565D01*
X110047581Y-62120658D01*
X110025650Y-62077617D01*
X110004600Y-62041157D01*
X110003291Y-62033734D01*
X110001509Y-62030237D01*
X109991220Y-61965279D01*
X109985000Y-61930000D01*
X109991220Y-61894723D01*
X110001509Y-61829762D01*
X110003291Y-61826263D01*
X110004600Y-61818843D01*
X110025646Y-61782390D01*
X110047581Y-61739341D01*
X110054489Y-61732432D01*
X110061036Y-61721094D01*
X110090818Y-61696103D01*
X110119341Y-61667581D01*
X110133265Y-61660485D01*
X110147500Y-61648542D01*
X110179731Y-61636810D01*
X110209762Y-61621509D01*
X110231022Y-61618141D01*
X110253564Y-61609937D01*
X110282825Y-61609937D01*
X110310000Y-61605633D01*
X110337174Y-61609937D01*
G37*
G36*
X116117174Y-61609937D02*
G01*
X116146436Y-61609937D01*
X116168978Y-61618141D01*
X116190237Y-61621509D01*
X116220265Y-61636809D01*
X116252500Y-61648542D01*
X116266735Y-61660487D01*
X116280658Y-61667581D01*
X116309175Y-61696098D01*
X116338964Y-61721094D01*
X116345511Y-61732434D01*
X116352418Y-61739341D01*
X116374345Y-61782375D01*
X116395400Y-61818843D01*
X116396708Y-61826266D01*
X116398490Y-61829762D01*
X116408770Y-61894668D01*
X116415000Y-61930000D01*
X116408769Y-61965335D01*
X116398490Y-62030237D01*
X116396709Y-62033731D01*
X116395400Y-62041157D01*
X116374340Y-62077631D01*
X116352418Y-62120658D01*
X116345512Y-62127563D01*
X116338964Y-62138906D01*
X116309168Y-62163907D01*
X116280658Y-62192418D01*
X116266738Y-62199510D01*
X116252500Y-62211458D01*
X116220258Y-62223193D01*
X116190237Y-62238490D01*
X116168983Y-62241856D01*
X116146436Y-62250063D01*
X116117168Y-62250063D01*
X116090000Y-62254366D01*
X116062832Y-62250063D01*
X116033564Y-62250063D01*
X116011017Y-62241856D01*
X115989762Y-62238490D01*
X115959737Y-62223191D01*
X115927500Y-62211458D01*
X115913262Y-62199511D01*
X115899341Y-62192418D01*
X115870824Y-62163901D01*
X115841036Y-62138906D01*
X115834488Y-62127565D01*
X115827581Y-62120658D01*
X115805650Y-62077617D01*
X115784600Y-62041157D01*
X115783291Y-62033734D01*
X115781509Y-62030237D01*
X115771220Y-61965279D01*
X115765000Y-61930000D01*
X115771220Y-61894723D01*
X115781509Y-61829762D01*
X115783291Y-61826263D01*
X115784600Y-61818843D01*
X115805646Y-61782390D01*
X115827581Y-61739341D01*
X115834489Y-61732432D01*
X115841036Y-61721094D01*
X115870818Y-61696103D01*
X115899341Y-61667581D01*
X115913265Y-61660485D01*
X115927500Y-61648542D01*
X115959731Y-61636810D01*
X115989762Y-61621509D01*
X116011022Y-61618141D01*
X116033564Y-61609937D01*
X116062825Y-61609937D01*
X116090000Y-61605633D01*
X116117174Y-61609937D01*
G37*
G36*
X116147664Y-51811602D02*
G01*
X116310000Y-51883878D01*
X116453761Y-51988327D01*
X116572664Y-52120383D01*
X116661514Y-52274274D01*
X116716425Y-52443275D01*
X116735000Y-52620000D01*
X116716425Y-52796725D01*
X116661514Y-52965726D01*
X116572664Y-53119617D01*
X116453761Y-53251673D01*
X116310000Y-53356122D01*
X116147664Y-53428398D01*
X115973849Y-53465344D01*
X115796151Y-53465344D01*
X115622336Y-53428398D01*
X115460000Y-53356122D01*
X115316239Y-53251673D01*
X115197336Y-53119617D01*
X115108486Y-52965726D01*
X115053575Y-52796725D01*
X115035000Y-52620000D01*
X115053575Y-52443275D01*
X115108486Y-52274274D01*
X115197336Y-52120383D01*
X115316239Y-51988327D01*
X115460000Y-51883878D01*
X115622336Y-51811602D01*
X115796151Y-51774656D01*
X115973849Y-51774656D01*
X116147664Y-51811602D01*
G37*
G36*
X118687664Y-51811602D02*
G01*
X118850000Y-51883878D01*
X118993761Y-51988327D01*
X119112664Y-52120383D01*
X119201514Y-52274274D01*
X119256425Y-52443275D01*
X119275000Y-52620000D01*
X119256425Y-52796725D01*
X119201514Y-52965726D01*
X119112664Y-53119617D01*
X118993761Y-53251673D01*
X118850000Y-53356122D01*
X118687664Y-53428398D01*
X118513849Y-53465344D01*
X118336151Y-53465344D01*
X118162336Y-53428398D01*
X118000000Y-53356122D01*
X117856239Y-53251673D01*
X117737336Y-53119617D01*
X117648486Y-52965726D01*
X117593575Y-52796725D01*
X117575000Y-52620000D01*
X117593575Y-52443275D01*
X117648486Y-52274274D01*
X117737336Y-52120383D01*
X117856239Y-51988327D01*
X118000000Y-51883878D01*
X118162336Y-51811602D01*
X118336151Y-51774656D01*
X118513849Y-51774656D01*
X118687664Y-51811602D01*
G37*
G36*
X116735000Y-50930000D02*
G01*
X115035000Y-50930000D01*
X115035000Y-49230000D01*
X116735000Y-49230000D01*
X116735000Y-50930000D01*
G37*
G36*
X118687664Y-49271602D02*
G01*
X118850000Y-49343878D01*
X118993761Y-49448327D01*
X119112664Y-49580383D01*
X119201514Y-49734274D01*
X119256425Y-49903275D01*
X119275000Y-50080000D01*
X119256425Y-50256725D01*
X119201514Y-50425726D01*
X119112664Y-50579617D01*
X118993761Y-50711673D01*
X118850000Y-50816122D01*
X118687664Y-50888398D01*
X118513849Y-50925344D01*
X118336151Y-50925344D01*
X118162336Y-50888398D01*
X118000000Y-50816122D01*
X117856239Y-50711673D01*
X117737336Y-50579617D01*
X117648486Y-50425726D01*
X117593575Y-50256725D01*
X117575000Y-50080000D01*
X117593575Y-49903275D01*
X117648486Y-49734274D01*
X117737336Y-49580383D01*
X117856239Y-49448327D01*
X118000000Y-49343878D01*
X118162336Y-49271602D01*
X118336151Y-49234656D01*
X118513849Y-49234656D01*
X118687664Y-49271602D01*
G37*
G36*
X62807664Y-46731602D02*
G01*
X62970000Y-46803878D01*
X63113761Y-46908327D01*
X63232664Y-47040383D01*
X63321514Y-47194274D01*
X63376425Y-47363275D01*
X63395000Y-47540000D01*
X63376425Y-47716725D01*
X63321514Y-47885726D01*
X63232664Y-48039617D01*
X63113761Y-48171673D01*
X62970000Y-48276122D01*
X62807664Y-48348398D01*
X62633849Y-48385344D01*
X62456151Y-48385344D01*
X62282336Y-48348398D01*
X62120000Y-48276122D01*
X61976239Y-48171673D01*
X61857336Y-48039617D01*
X61768486Y-47885726D01*
X61713575Y-47716725D01*
X61695000Y-47540000D01*
X61713575Y-47363275D01*
X61768486Y-47194274D01*
X61857336Y-47040383D01*
X61976239Y-46908327D01*
X62120000Y-46803878D01*
X62282336Y-46731602D01*
X62456151Y-46694656D01*
X62633849Y-46694656D01*
X62807664Y-46731602D01*
G37*
G36*
X65347664Y-46731602D02*
G01*
X65510000Y-46803878D01*
X65653761Y-46908327D01*
X65772664Y-47040383D01*
X65861514Y-47194274D01*
X65916425Y-47363275D01*
X65935000Y-47540000D01*
X65916425Y-47716725D01*
X65861514Y-47885726D01*
X65772664Y-48039617D01*
X65653761Y-48171673D01*
X65510000Y-48276122D01*
X65347664Y-48348398D01*
X65173849Y-48385344D01*
X64996151Y-48385344D01*
X64822336Y-48348398D01*
X64660000Y-48276122D01*
X64516239Y-48171673D01*
X64397336Y-48039617D01*
X64308486Y-47885726D01*
X64253575Y-47716725D01*
X64235000Y-47540000D01*
X64253575Y-47363275D01*
X64308486Y-47194274D01*
X64397336Y-47040383D01*
X64516239Y-46908327D01*
X64660000Y-46803878D01*
X64822336Y-46731602D01*
X64996151Y-46694656D01*
X65173849Y-46694656D01*
X65347664Y-46731602D01*
G37*
G36*
X67887664Y-46731602D02*
G01*
X68050000Y-46803878D01*
X68193761Y-46908327D01*
X68312664Y-47040383D01*
X68401514Y-47194274D01*
X68456425Y-47363275D01*
X68475000Y-47540000D01*
X68456425Y-47716725D01*
X68401514Y-47885726D01*
X68312664Y-48039617D01*
X68193761Y-48171673D01*
X68050000Y-48276122D01*
X67887664Y-48348398D01*
X67713849Y-48385344D01*
X67536151Y-48385344D01*
X67362336Y-48348398D01*
X67200000Y-48276122D01*
X67056239Y-48171673D01*
X66937336Y-48039617D01*
X66848486Y-47885726D01*
X66793575Y-47716725D01*
X66775000Y-47540000D01*
X66793575Y-47363275D01*
X66848486Y-47194274D01*
X66937336Y-47040383D01*
X67056239Y-46908327D01*
X67200000Y-46803878D01*
X67362336Y-46731602D01*
X67536151Y-46694656D01*
X67713849Y-46694656D01*
X67887664Y-46731602D01*
G37*
G36*
X70427664Y-46731602D02*
G01*
X70590000Y-46803878D01*
X70733761Y-46908327D01*
X70852664Y-47040383D01*
X70941514Y-47194274D01*
X70996425Y-47363275D01*
X71015000Y-47540000D01*
X70996425Y-47716725D01*
X70941514Y-47885726D01*
X70852664Y-48039617D01*
X70733761Y-48171673D01*
X70590000Y-48276122D01*
X70427664Y-48348398D01*
X70253849Y-48385344D01*
X70076151Y-48385344D01*
X69902336Y-48348398D01*
X69740000Y-48276122D01*
X69596239Y-48171673D01*
X69477336Y-48039617D01*
X69388486Y-47885726D01*
X69333575Y-47716725D01*
X69315000Y-47540000D01*
X69333575Y-47363275D01*
X69388486Y-47194274D01*
X69477336Y-47040383D01*
X69596239Y-46908327D01*
X69740000Y-46803878D01*
X69902336Y-46731602D01*
X70076151Y-46694656D01*
X70253849Y-46694656D01*
X70427664Y-46731602D01*
G37*
G36*
X72967664Y-46731602D02*
G01*
X73130000Y-46803878D01*
X73273761Y-46908327D01*
X73392664Y-47040383D01*
X73481514Y-47194274D01*
X73536425Y-47363275D01*
X73555000Y-47540000D01*
X73536425Y-47716725D01*
X73481514Y-47885726D01*
X73392664Y-48039617D01*
X73273761Y-48171673D01*
X73130000Y-48276122D01*
X72967664Y-48348398D01*
X72793849Y-48385344D01*
X72616151Y-48385344D01*
X72442336Y-48348398D01*
X72280000Y-48276122D01*
X72136239Y-48171673D01*
X72017336Y-48039617D01*
X71928486Y-47885726D01*
X71873575Y-47716725D01*
X71855000Y-47540000D01*
X71873575Y-47363275D01*
X71928486Y-47194274D01*
X72017336Y-47040383D01*
X72136239Y-46908327D01*
X72280000Y-46803878D01*
X72442336Y-46731602D01*
X72616151Y-46694656D01*
X72793849Y-46694656D01*
X72967664Y-46731602D01*
G37*
G36*
X75507664Y-46731602D02*
G01*
X75670000Y-46803878D01*
X75813761Y-46908327D01*
X75932664Y-47040383D01*
X76021514Y-47194274D01*
X76076425Y-47363275D01*
X76095000Y-47540000D01*
X76076425Y-47716725D01*
X76021514Y-47885726D01*
X75932664Y-48039617D01*
X75813761Y-48171673D01*
X75670000Y-48276122D01*
X75507664Y-48348398D01*
X75333849Y-48385344D01*
X75156151Y-48385344D01*
X74982336Y-48348398D01*
X74820000Y-48276122D01*
X74676239Y-48171673D01*
X74557336Y-48039617D01*
X74468486Y-47885726D01*
X74413575Y-47716725D01*
X74395000Y-47540000D01*
X74413575Y-47363275D01*
X74468486Y-47194274D01*
X74557336Y-47040383D01*
X74676239Y-46908327D01*
X74820000Y-46803878D01*
X74982336Y-46731602D01*
X75156151Y-46694656D01*
X75333849Y-46694656D01*
X75507664Y-46731602D01*
G37*
G36*
X78047664Y-46731602D02*
G01*
X78210000Y-46803878D01*
X78353761Y-46908327D01*
X78472664Y-47040383D01*
X78561514Y-47194274D01*
X78616425Y-47363275D01*
X78635000Y-47540000D01*
X78616425Y-47716725D01*
X78561514Y-47885726D01*
X78472664Y-48039617D01*
X78353761Y-48171673D01*
X78210000Y-48276122D01*
X78047664Y-48348398D01*
X77873849Y-48385344D01*
X77696151Y-48385344D01*
X77522336Y-48348398D01*
X77360000Y-48276122D01*
X77216239Y-48171673D01*
X77097336Y-48039617D01*
X77008486Y-47885726D01*
X76953575Y-47716725D01*
X76935000Y-47540000D01*
X76953575Y-47363275D01*
X77008486Y-47194274D01*
X77097336Y-47040383D01*
X77216239Y-46908327D01*
X77360000Y-46803878D01*
X77522336Y-46731602D01*
X77696151Y-46694656D01*
X77873849Y-46694656D01*
X78047664Y-46731602D01*
G37*
G36*
X80587664Y-46731602D02*
G01*
X80750000Y-46803878D01*
X80893761Y-46908327D01*
X81012664Y-47040383D01*
X81101514Y-47194274D01*
X81156425Y-47363275D01*
X81175000Y-47540000D01*
X81156425Y-47716725D01*
X81101514Y-47885726D01*
X81012664Y-48039617D01*
X80893761Y-48171673D01*
X80750000Y-48276122D01*
X80587664Y-48348398D01*
X80413849Y-48385344D01*
X80236151Y-48385344D01*
X80062336Y-48348398D01*
X79900000Y-48276122D01*
X79756239Y-48171673D01*
X79637336Y-48039617D01*
X79548486Y-47885726D01*
X79493575Y-47716725D01*
X79475000Y-47540000D01*
X79493575Y-47363275D01*
X79548486Y-47194274D01*
X79637336Y-47040383D01*
X79756239Y-46908327D01*
X79900000Y-46803878D01*
X80062336Y-46731602D01*
X80236151Y-46694656D01*
X80413849Y-46694656D01*
X80587664Y-46731602D01*
G37*
G36*
X83127664Y-46731602D02*
G01*
X83290000Y-46803878D01*
X83433761Y-46908327D01*
X83552664Y-47040383D01*
X83641514Y-47194274D01*
X83696425Y-47363275D01*
X83715000Y-47540000D01*
X83696425Y-47716725D01*
X83641514Y-47885726D01*
X83552664Y-48039617D01*
X83433761Y-48171673D01*
X83290000Y-48276122D01*
X83127664Y-48348398D01*
X82953849Y-48385344D01*
X82776151Y-48385344D01*
X82602336Y-48348398D01*
X82440000Y-48276122D01*
X82296239Y-48171673D01*
X82177336Y-48039617D01*
X82088486Y-47885726D01*
X82033575Y-47716725D01*
X82015000Y-47540000D01*
X82033575Y-47363275D01*
X82088486Y-47194274D01*
X82177336Y-47040383D01*
X82296239Y-46908327D01*
X82440000Y-46803878D01*
X82602336Y-46731602D01*
X82776151Y-46694656D01*
X82953849Y-46694656D01*
X83127664Y-46731602D01*
G37*
G36*
X85667664Y-46731602D02*
G01*
X85830000Y-46803878D01*
X85973761Y-46908327D01*
X86092664Y-47040383D01*
X86181514Y-47194274D01*
X86236425Y-47363275D01*
X86255000Y-47540000D01*
X86236425Y-47716725D01*
X86181514Y-47885726D01*
X86092664Y-48039617D01*
X85973761Y-48171673D01*
X85830000Y-48276122D01*
X85667664Y-48348398D01*
X85493849Y-48385344D01*
X85316151Y-48385344D01*
X85142336Y-48348398D01*
X84980000Y-48276122D01*
X84836239Y-48171673D01*
X84717336Y-48039617D01*
X84628486Y-47885726D01*
X84573575Y-47716725D01*
X84555000Y-47540000D01*
X84573575Y-47363275D01*
X84628486Y-47194274D01*
X84717336Y-47040383D01*
X84836239Y-46908327D01*
X84980000Y-46803878D01*
X85142336Y-46731602D01*
X85316151Y-46694656D01*
X85493849Y-46694656D01*
X85667664Y-46731602D01*
G37*
G36*
X88207664Y-46731602D02*
G01*
X88370000Y-46803878D01*
X88513761Y-46908327D01*
X88632664Y-47040383D01*
X88721514Y-47194274D01*
X88776425Y-47363275D01*
X88795000Y-47540000D01*
X88776425Y-47716725D01*
X88721514Y-47885726D01*
X88632664Y-48039617D01*
X88513761Y-48171673D01*
X88370000Y-48276122D01*
X88207664Y-48348398D01*
X88033849Y-48385344D01*
X87856151Y-48385344D01*
X87682336Y-48348398D01*
X87520000Y-48276122D01*
X87376239Y-48171673D01*
X87257336Y-48039617D01*
X87168486Y-47885726D01*
X87113575Y-47716725D01*
X87095000Y-47540000D01*
X87113575Y-47363275D01*
X87168486Y-47194274D01*
X87257336Y-47040383D01*
X87376239Y-46908327D01*
X87520000Y-46803878D01*
X87682336Y-46731602D01*
X87856151Y-46694656D01*
X88033849Y-46694656D01*
X88207664Y-46731602D01*
G37*
G36*
X90747664Y-46731602D02*
G01*
X90910000Y-46803878D01*
X91053761Y-46908327D01*
X91172664Y-47040383D01*
X91261514Y-47194274D01*
X91316425Y-47363275D01*
X91335000Y-47540000D01*
X91316425Y-47716725D01*
X91261514Y-47885726D01*
X91172664Y-48039617D01*
X91053761Y-48171673D01*
X90910000Y-48276122D01*
X90747664Y-48348398D01*
X90573849Y-48385344D01*
X90396151Y-48385344D01*
X90222336Y-48348398D01*
X90060000Y-48276122D01*
X89916239Y-48171673D01*
X89797336Y-48039617D01*
X89708486Y-47885726D01*
X89653575Y-47716725D01*
X89635000Y-47540000D01*
X89653575Y-47363275D01*
X89708486Y-47194274D01*
X89797336Y-47040383D01*
X89916239Y-46908327D01*
X90060000Y-46803878D01*
X90222336Y-46731602D01*
X90396151Y-46694656D01*
X90573849Y-46694656D01*
X90747664Y-46731602D01*
G37*
G36*
X93287664Y-46731602D02*
G01*
X93450000Y-46803878D01*
X93593761Y-46908327D01*
X93712664Y-47040383D01*
X93801514Y-47194274D01*
X93856425Y-47363275D01*
X93875000Y-47540000D01*
X93856425Y-47716725D01*
X93801514Y-47885726D01*
X93712664Y-48039617D01*
X93593761Y-48171673D01*
X93450000Y-48276122D01*
X93287664Y-48348398D01*
X93113849Y-48385344D01*
X92936151Y-48385344D01*
X92762336Y-48348398D01*
X92600000Y-48276122D01*
X92456239Y-48171673D01*
X92337336Y-48039617D01*
X92248486Y-47885726D01*
X92193575Y-47716725D01*
X92175000Y-47540000D01*
X92193575Y-47363275D01*
X92248486Y-47194274D01*
X92337336Y-47040383D01*
X92456239Y-46908327D01*
X92600000Y-46803878D01*
X92762336Y-46731602D01*
X92936151Y-46694656D01*
X93113849Y-46694656D01*
X93287664Y-46731602D01*
G37*
G36*
X95827664Y-46731602D02*
G01*
X95990000Y-46803878D01*
X96133761Y-46908327D01*
X96252664Y-47040383D01*
X96341514Y-47194274D01*
X96396425Y-47363275D01*
X96415000Y-47540000D01*
X96396425Y-47716725D01*
X96341514Y-47885726D01*
X96252664Y-48039617D01*
X96133761Y-48171673D01*
X95990000Y-48276122D01*
X95827664Y-48348398D01*
X95653849Y-48385344D01*
X95476151Y-48385344D01*
X95302336Y-48348398D01*
X95140000Y-48276122D01*
X94996239Y-48171673D01*
X94877336Y-48039617D01*
X94788486Y-47885726D01*
X94733575Y-47716725D01*
X94715000Y-47540000D01*
X94733575Y-47363275D01*
X94788486Y-47194274D01*
X94877336Y-47040383D01*
X94996239Y-46908327D01*
X95140000Y-46803878D01*
X95302336Y-46731602D01*
X95476151Y-46694656D01*
X95653849Y-46694656D01*
X95827664Y-46731602D01*
G37*
G36*
X98367664Y-46731602D02*
G01*
X98530000Y-46803878D01*
X98673761Y-46908327D01*
X98792664Y-47040383D01*
X98881514Y-47194274D01*
X98936425Y-47363275D01*
X98955000Y-47540000D01*
X98936425Y-47716725D01*
X98881514Y-47885726D01*
X98792664Y-48039617D01*
X98673761Y-48171673D01*
X98530000Y-48276122D01*
X98367664Y-48348398D01*
X98193849Y-48385344D01*
X98016151Y-48385344D01*
X97842336Y-48348398D01*
X97680000Y-48276122D01*
X97536239Y-48171673D01*
X97417336Y-48039617D01*
X97328486Y-47885726D01*
X97273575Y-47716725D01*
X97255000Y-47540000D01*
X97273575Y-47363275D01*
X97328486Y-47194274D01*
X97417336Y-47040383D01*
X97536239Y-46908327D01*
X97680000Y-46803878D01*
X97842336Y-46731602D01*
X98016151Y-46694656D01*
X98193849Y-46694656D01*
X98367664Y-46731602D01*
G37*
G36*
X100907664Y-46731602D02*
G01*
X101070000Y-46803878D01*
X101213761Y-46908327D01*
X101332664Y-47040383D01*
X101421514Y-47194274D01*
X101476425Y-47363275D01*
X101495000Y-47540000D01*
X101476425Y-47716725D01*
X101421514Y-47885726D01*
X101332664Y-48039617D01*
X101213761Y-48171673D01*
X101070000Y-48276122D01*
X100907664Y-48348398D01*
X100733849Y-48385344D01*
X100556151Y-48385344D01*
X100382336Y-48348398D01*
X100220000Y-48276122D01*
X100076239Y-48171673D01*
X99957336Y-48039617D01*
X99868486Y-47885726D01*
X99813575Y-47716725D01*
X99795000Y-47540000D01*
X99813575Y-47363275D01*
X99868486Y-47194274D01*
X99957336Y-47040383D01*
X100076239Y-46908327D01*
X100220000Y-46803878D01*
X100382336Y-46731602D01*
X100556151Y-46694656D01*
X100733849Y-46694656D01*
X100907664Y-46731602D01*
G37*
G36*
X103447664Y-46731602D02*
G01*
X103610000Y-46803878D01*
X103753761Y-46908327D01*
X103872664Y-47040383D01*
X103961514Y-47194274D01*
X104016425Y-47363275D01*
X104035000Y-47540000D01*
X104016425Y-47716725D01*
X103961514Y-47885726D01*
X103872664Y-48039617D01*
X103753761Y-48171673D01*
X103610000Y-48276122D01*
X103447664Y-48348398D01*
X103273849Y-48385344D01*
X103096151Y-48385344D01*
X102922336Y-48348398D01*
X102760000Y-48276122D01*
X102616239Y-48171673D01*
X102497336Y-48039617D01*
X102408486Y-47885726D01*
X102353575Y-47716725D01*
X102335000Y-47540000D01*
X102353575Y-47363275D01*
X102408486Y-47194274D01*
X102497336Y-47040383D01*
X102616239Y-46908327D01*
X102760000Y-46803878D01*
X102922336Y-46731602D01*
X103096151Y-46694656D01*
X103273849Y-46694656D01*
X103447664Y-46731602D01*
G37*
G36*
X105987664Y-46731602D02*
G01*
X106150000Y-46803878D01*
X106293761Y-46908327D01*
X106412664Y-47040383D01*
X106501514Y-47194274D01*
X106556425Y-47363275D01*
X106575000Y-47540000D01*
X106556425Y-47716725D01*
X106501514Y-47885726D01*
X106412664Y-48039617D01*
X106293761Y-48171673D01*
X106150000Y-48276122D01*
X105987664Y-48348398D01*
X105813849Y-48385344D01*
X105636151Y-48385344D01*
X105462336Y-48348398D01*
X105300000Y-48276122D01*
X105156239Y-48171673D01*
X105037336Y-48039617D01*
X104948486Y-47885726D01*
X104893575Y-47716725D01*
X104875000Y-47540000D01*
X104893575Y-47363275D01*
X104948486Y-47194274D01*
X105037336Y-47040383D01*
X105156239Y-46908327D01*
X105300000Y-46803878D01*
X105462336Y-46731602D01*
X105636151Y-46694656D01*
X105813849Y-46694656D01*
X105987664Y-46731602D01*
G37*
G36*
X108527664Y-46731602D02*
G01*
X108690000Y-46803878D01*
X108833761Y-46908327D01*
X108952664Y-47040383D01*
X109041514Y-47194274D01*
X109096425Y-47363275D01*
X109115000Y-47540000D01*
X109096425Y-47716725D01*
X109041514Y-47885726D01*
X108952664Y-48039617D01*
X108833761Y-48171673D01*
X108690000Y-48276122D01*
X108527664Y-48348398D01*
X108353849Y-48385344D01*
X108176151Y-48385344D01*
X108002336Y-48348398D01*
X107840000Y-48276122D01*
X107696239Y-48171673D01*
X107577336Y-48039617D01*
X107488486Y-47885726D01*
X107433575Y-47716725D01*
X107415000Y-47540000D01*
X107433575Y-47363275D01*
X107488486Y-47194274D01*
X107577336Y-47040383D01*
X107696239Y-46908327D01*
X107840000Y-46803878D01*
X108002336Y-46731602D01*
X108176151Y-46694656D01*
X108353849Y-46694656D01*
X108527664Y-46731602D01*
G37*
G36*
X111067664Y-46731602D02*
G01*
X111230000Y-46803878D01*
X111373761Y-46908327D01*
X111492664Y-47040383D01*
X111581514Y-47194274D01*
X111636425Y-47363275D01*
X111655000Y-47540000D01*
X111636425Y-47716725D01*
X111581514Y-47885726D01*
X111492664Y-48039617D01*
X111373761Y-48171673D01*
X111230000Y-48276122D01*
X111067664Y-48348398D01*
X110893849Y-48385344D01*
X110716151Y-48385344D01*
X110542336Y-48348398D01*
X110380000Y-48276122D01*
X110236239Y-48171673D01*
X110117336Y-48039617D01*
X110028486Y-47885726D01*
X109973575Y-47716725D01*
X109955000Y-47540000D01*
X109973575Y-47363275D01*
X110028486Y-47194274D01*
X110117336Y-47040383D01*
X110236239Y-46908327D01*
X110380000Y-46803878D01*
X110542336Y-46731602D01*
X110716151Y-46694656D01*
X110893849Y-46694656D01*
X111067664Y-46731602D01*
G37*
G36*
X113607664Y-46731602D02*
G01*
X113770000Y-46803878D01*
X113913761Y-46908327D01*
X114032664Y-47040383D01*
X114121514Y-47194274D01*
X114176425Y-47363275D01*
X114195000Y-47540000D01*
X114176425Y-47716725D01*
X114121514Y-47885726D01*
X114032664Y-48039617D01*
X113913761Y-48171673D01*
X113770000Y-48276122D01*
X113607664Y-48348398D01*
X113433849Y-48385344D01*
X113256151Y-48385344D01*
X113082336Y-48348398D01*
X112920000Y-48276122D01*
X112776239Y-48171673D01*
X112657336Y-48039617D01*
X112568486Y-47885726D01*
X112513575Y-47716725D01*
X112495000Y-47540000D01*
X112513575Y-47363275D01*
X112568486Y-47194274D01*
X112657336Y-47040383D01*
X112776239Y-46908327D01*
X112920000Y-46803878D01*
X113082336Y-46731602D01*
X113256151Y-46694656D01*
X113433849Y-46694656D01*
X113607664Y-46731602D01*
G37*
G36*
X116147664Y-46731602D02*
G01*
X116310000Y-46803878D01*
X116453761Y-46908327D01*
X116572664Y-47040383D01*
X116661514Y-47194274D01*
X116716425Y-47363275D01*
X116735000Y-47540000D01*
X116716425Y-47716725D01*
X116661514Y-47885726D01*
X116572664Y-48039617D01*
X116453761Y-48171673D01*
X116310000Y-48276122D01*
X116147664Y-48348398D01*
X115973849Y-48385344D01*
X115796151Y-48385344D01*
X115622336Y-48348398D01*
X115460000Y-48276122D01*
X115316239Y-48171673D01*
X115197336Y-48039617D01*
X115108486Y-47885726D01*
X115053575Y-47716725D01*
X115035000Y-47540000D01*
X115053575Y-47363275D01*
X115108486Y-47194274D01*
X115197336Y-47040383D01*
X115316239Y-46908327D01*
X115460000Y-46803878D01*
X115622336Y-46731602D01*
X115796151Y-46694656D01*
X115973849Y-46694656D01*
X116147664Y-46731602D01*
G37*
G36*
X118687664Y-46731602D02*
G01*
X118850000Y-46803878D01*
X118993761Y-46908327D01*
X119112664Y-47040383D01*
X119201514Y-47194274D01*
X119256425Y-47363275D01*
X119275000Y-47540000D01*
X119256425Y-47716725D01*
X119201514Y-47885726D01*
X119112664Y-48039617D01*
X118993761Y-48171673D01*
X118850000Y-48276122D01*
X118687664Y-48348398D01*
X118513849Y-48385344D01*
X118336151Y-48385344D01*
X118162336Y-48348398D01*
X118000000Y-48276122D01*
X117856239Y-48171673D01*
X117737336Y-48039617D01*
X117648486Y-47885726D01*
X117593575Y-47716725D01*
X117575000Y-47540000D01*
X117593575Y-47363275D01*
X117648486Y-47194274D01*
X117737336Y-47040383D01*
X117856239Y-46908327D01*
X118000000Y-46803878D01*
X118162336Y-46731602D01*
X118336151Y-46694656D01*
X118513849Y-46694656D01*
X118687664Y-46731602D01*
G37*
G36*
X119275000Y-45850000D02*
G01*
X117575000Y-45850000D01*
X117575000Y-44150000D01*
X119275000Y-44150000D01*
X119275000Y-45850000D01*
G37*
G36*
X62807664Y-44191602D02*
G01*
X62970000Y-44263878D01*
X63113761Y-44368327D01*
X63232664Y-44500383D01*
X63321514Y-44654274D01*
X63376425Y-44823275D01*
X63395000Y-45000000D01*
X63376425Y-45176725D01*
X63321514Y-45345726D01*
X63232664Y-45499617D01*
X63113761Y-45631673D01*
X62970000Y-45736122D01*
X62807664Y-45808398D01*
X62633849Y-45845344D01*
X62456151Y-45845344D01*
X62282336Y-45808398D01*
X62120000Y-45736122D01*
X61976239Y-45631673D01*
X61857336Y-45499617D01*
X61768486Y-45345726D01*
X61713575Y-45176725D01*
X61695000Y-45000000D01*
X61713575Y-44823275D01*
X61768486Y-44654274D01*
X61857336Y-44500383D01*
X61976239Y-44368327D01*
X62120000Y-44263878D01*
X62282336Y-44191602D01*
X62456151Y-44154656D01*
X62633849Y-44154656D01*
X62807664Y-44191602D01*
G37*
G36*
X65347664Y-44191602D02*
G01*
X65510000Y-44263878D01*
X65653761Y-44368327D01*
X65772664Y-44500383D01*
X65861514Y-44654274D01*
X65916425Y-44823275D01*
X65935000Y-45000000D01*
X65916425Y-45176725D01*
X65861514Y-45345726D01*
X65772664Y-45499617D01*
X65653761Y-45631673D01*
X65510000Y-45736122D01*
X65347664Y-45808398D01*
X65173849Y-45845344D01*
X64996151Y-45845344D01*
X64822336Y-45808398D01*
X64660000Y-45736122D01*
X64516239Y-45631673D01*
X64397336Y-45499617D01*
X64308486Y-45345726D01*
X64253575Y-45176725D01*
X64235000Y-45000000D01*
X64253575Y-44823275D01*
X64308486Y-44654274D01*
X64397336Y-44500383D01*
X64516239Y-44368327D01*
X64660000Y-44263878D01*
X64822336Y-44191602D01*
X64996151Y-44154656D01*
X65173849Y-44154656D01*
X65347664Y-44191602D01*
G37*
G36*
X67887664Y-44191602D02*
G01*
X68050000Y-44263878D01*
X68193761Y-44368327D01*
X68312664Y-44500383D01*
X68401514Y-44654274D01*
X68456425Y-44823275D01*
X68475000Y-45000000D01*
X68456425Y-45176725D01*
X68401514Y-45345726D01*
X68312664Y-45499617D01*
X68193761Y-45631673D01*
X68050000Y-45736122D01*
X67887664Y-45808398D01*
X67713849Y-45845344D01*
X67536151Y-45845344D01*
X67362336Y-45808398D01*
X67200000Y-45736122D01*
X67056239Y-45631673D01*
X66937336Y-45499617D01*
X66848486Y-45345726D01*
X66793575Y-45176725D01*
X66775000Y-45000000D01*
X66793575Y-44823275D01*
X66848486Y-44654274D01*
X66937336Y-44500383D01*
X67056239Y-44368327D01*
X67200000Y-44263878D01*
X67362336Y-44191602D01*
X67536151Y-44154656D01*
X67713849Y-44154656D01*
X67887664Y-44191602D01*
G37*
G36*
X70427664Y-44191602D02*
G01*
X70590000Y-44263878D01*
X70733761Y-44368327D01*
X70852664Y-44500383D01*
X70941514Y-44654274D01*
X70996425Y-44823275D01*
X71015000Y-45000000D01*
X70996425Y-45176725D01*
X70941514Y-45345726D01*
X70852664Y-45499617D01*
X70733761Y-45631673D01*
X70590000Y-45736122D01*
X70427664Y-45808398D01*
X70253849Y-45845344D01*
X70076151Y-45845344D01*
X69902336Y-45808398D01*
X69740000Y-45736122D01*
X69596239Y-45631673D01*
X69477336Y-45499617D01*
X69388486Y-45345726D01*
X69333575Y-45176725D01*
X69315000Y-45000000D01*
X69333575Y-44823275D01*
X69388486Y-44654274D01*
X69477336Y-44500383D01*
X69596239Y-44368327D01*
X69740000Y-44263878D01*
X69902336Y-44191602D01*
X70076151Y-44154656D01*
X70253849Y-44154656D01*
X70427664Y-44191602D01*
G37*
G36*
X72967664Y-44191602D02*
G01*
X73130000Y-44263878D01*
X73273761Y-44368327D01*
X73392664Y-44500383D01*
X73481514Y-44654274D01*
X73536425Y-44823275D01*
X73555000Y-45000000D01*
X73536425Y-45176725D01*
X73481514Y-45345726D01*
X73392664Y-45499617D01*
X73273761Y-45631673D01*
X73130000Y-45736122D01*
X72967664Y-45808398D01*
X72793849Y-45845344D01*
X72616151Y-45845344D01*
X72442336Y-45808398D01*
X72280000Y-45736122D01*
X72136239Y-45631673D01*
X72017336Y-45499617D01*
X71928486Y-45345726D01*
X71873575Y-45176725D01*
X71855000Y-45000000D01*
X71873575Y-44823275D01*
X71928486Y-44654274D01*
X72017336Y-44500383D01*
X72136239Y-44368327D01*
X72280000Y-44263878D01*
X72442336Y-44191602D01*
X72616151Y-44154656D01*
X72793849Y-44154656D01*
X72967664Y-44191602D01*
G37*
G36*
X75507664Y-44191602D02*
G01*
X75670000Y-44263878D01*
X75813761Y-44368327D01*
X75932664Y-44500383D01*
X76021514Y-44654274D01*
X76076425Y-44823275D01*
X76095000Y-45000000D01*
X76076425Y-45176725D01*
X76021514Y-45345726D01*
X75932664Y-45499617D01*
X75813761Y-45631673D01*
X75670000Y-45736122D01*
X75507664Y-45808398D01*
X75333849Y-45845344D01*
X75156151Y-45845344D01*
X74982336Y-45808398D01*
X74820000Y-45736122D01*
X74676239Y-45631673D01*
X74557336Y-45499617D01*
X74468486Y-45345726D01*
X74413575Y-45176725D01*
X74395000Y-45000000D01*
X74413575Y-44823275D01*
X74468486Y-44654274D01*
X74557336Y-44500383D01*
X74676239Y-44368327D01*
X74820000Y-44263878D01*
X74982336Y-44191602D01*
X75156151Y-44154656D01*
X75333849Y-44154656D01*
X75507664Y-44191602D01*
G37*
G36*
X78047664Y-44191602D02*
G01*
X78210000Y-44263878D01*
X78353761Y-44368327D01*
X78472664Y-44500383D01*
X78561514Y-44654274D01*
X78616425Y-44823275D01*
X78635000Y-45000000D01*
X78616425Y-45176725D01*
X78561514Y-45345726D01*
X78472664Y-45499617D01*
X78353761Y-45631673D01*
X78210000Y-45736122D01*
X78047664Y-45808398D01*
X77873849Y-45845344D01*
X77696151Y-45845344D01*
X77522336Y-45808398D01*
X77360000Y-45736122D01*
X77216239Y-45631673D01*
X77097336Y-45499617D01*
X77008486Y-45345726D01*
X76953575Y-45176725D01*
X76935000Y-45000000D01*
X76953575Y-44823275D01*
X77008486Y-44654274D01*
X77097336Y-44500383D01*
X77216239Y-44368327D01*
X77360000Y-44263878D01*
X77522336Y-44191602D01*
X77696151Y-44154656D01*
X77873849Y-44154656D01*
X78047664Y-44191602D01*
G37*
G36*
X80587664Y-44191602D02*
G01*
X80750000Y-44263878D01*
X80893761Y-44368327D01*
X81012664Y-44500383D01*
X81101514Y-44654274D01*
X81156425Y-44823275D01*
X81175000Y-45000000D01*
X81156425Y-45176725D01*
X81101514Y-45345726D01*
X81012664Y-45499617D01*
X80893761Y-45631673D01*
X80750000Y-45736122D01*
X80587664Y-45808398D01*
X80413849Y-45845344D01*
X80236151Y-45845344D01*
X80062336Y-45808398D01*
X79900000Y-45736122D01*
X79756239Y-45631673D01*
X79637336Y-45499617D01*
X79548486Y-45345726D01*
X79493575Y-45176725D01*
X79475000Y-45000000D01*
X79493575Y-44823275D01*
X79548486Y-44654274D01*
X79637336Y-44500383D01*
X79756239Y-44368327D01*
X79900000Y-44263878D01*
X80062336Y-44191602D01*
X80236151Y-44154656D01*
X80413849Y-44154656D01*
X80587664Y-44191602D01*
G37*
G36*
X83127664Y-44191602D02*
G01*
X83290000Y-44263878D01*
X83433761Y-44368327D01*
X83552664Y-44500383D01*
X83641514Y-44654274D01*
X83696425Y-44823275D01*
X83715000Y-45000000D01*
X83696425Y-45176725D01*
X83641514Y-45345726D01*
X83552664Y-45499617D01*
X83433761Y-45631673D01*
X83290000Y-45736122D01*
X83127664Y-45808398D01*
X82953849Y-45845344D01*
X82776151Y-45845344D01*
X82602336Y-45808398D01*
X82440000Y-45736122D01*
X82296239Y-45631673D01*
X82177336Y-45499617D01*
X82088486Y-45345726D01*
X82033575Y-45176725D01*
X82015000Y-45000000D01*
X82033575Y-44823275D01*
X82088486Y-44654274D01*
X82177336Y-44500383D01*
X82296239Y-44368327D01*
X82440000Y-44263878D01*
X82602336Y-44191602D01*
X82776151Y-44154656D01*
X82953849Y-44154656D01*
X83127664Y-44191602D01*
G37*
G36*
X85667664Y-44191602D02*
G01*
X85830000Y-44263878D01*
X85973761Y-44368327D01*
X86092664Y-44500383D01*
X86181514Y-44654274D01*
X86236425Y-44823275D01*
X86255000Y-45000000D01*
X86236425Y-45176725D01*
X86181514Y-45345726D01*
X86092664Y-45499617D01*
X85973761Y-45631673D01*
X85830000Y-45736122D01*
X85667664Y-45808398D01*
X85493849Y-45845344D01*
X85316151Y-45845344D01*
X85142336Y-45808398D01*
X84980000Y-45736122D01*
X84836239Y-45631673D01*
X84717336Y-45499617D01*
X84628486Y-45345726D01*
X84573575Y-45176725D01*
X84555000Y-45000000D01*
X84573575Y-44823275D01*
X84628486Y-44654274D01*
X84717336Y-44500383D01*
X84836239Y-44368327D01*
X84980000Y-44263878D01*
X85142336Y-44191602D01*
X85316151Y-44154656D01*
X85493849Y-44154656D01*
X85667664Y-44191602D01*
G37*
G36*
X88207664Y-44191602D02*
G01*
X88370000Y-44263878D01*
X88513761Y-44368327D01*
X88632664Y-44500383D01*
X88721514Y-44654274D01*
X88776425Y-44823275D01*
X88795000Y-45000000D01*
X88776425Y-45176725D01*
X88721514Y-45345726D01*
X88632664Y-45499617D01*
X88513761Y-45631673D01*
X88370000Y-45736122D01*
X88207664Y-45808398D01*
X88033849Y-45845344D01*
X87856151Y-45845344D01*
X87682336Y-45808398D01*
X87520000Y-45736122D01*
X87376239Y-45631673D01*
X87257336Y-45499617D01*
X87168486Y-45345726D01*
X87113575Y-45176725D01*
X87095000Y-45000000D01*
X87113575Y-44823275D01*
X87168486Y-44654274D01*
X87257336Y-44500383D01*
X87376239Y-44368327D01*
X87520000Y-44263878D01*
X87682336Y-44191602D01*
X87856151Y-44154656D01*
X88033849Y-44154656D01*
X88207664Y-44191602D01*
G37*
G36*
X90747664Y-44191602D02*
G01*
X90910000Y-44263878D01*
X91053761Y-44368327D01*
X91172664Y-44500383D01*
X91261514Y-44654274D01*
X91316425Y-44823275D01*
X91335000Y-45000000D01*
X91316425Y-45176725D01*
X91261514Y-45345726D01*
X91172664Y-45499617D01*
X91053761Y-45631673D01*
X90910000Y-45736122D01*
X90747664Y-45808398D01*
X90573849Y-45845344D01*
X90396151Y-45845344D01*
X90222336Y-45808398D01*
X90060000Y-45736122D01*
X89916239Y-45631673D01*
X89797336Y-45499617D01*
X89708486Y-45345726D01*
X89653575Y-45176725D01*
X89635000Y-45000000D01*
X89653575Y-44823275D01*
X89708486Y-44654274D01*
X89797336Y-44500383D01*
X89916239Y-44368327D01*
X90060000Y-44263878D01*
X90222336Y-44191602D01*
X90396151Y-44154656D01*
X90573849Y-44154656D01*
X90747664Y-44191602D01*
G37*
G36*
X93287664Y-44191602D02*
G01*
X93450000Y-44263878D01*
X93593761Y-44368327D01*
X93712664Y-44500383D01*
X93801514Y-44654274D01*
X93856425Y-44823275D01*
X93875000Y-45000000D01*
X93856425Y-45176725D01*
X93801514Y-45345726D01*
X93712664Y-45499617D01*
X93593761Y-45631673D01*
X93450000Y-45736122D01*
X93287664Y-45808398D01*
X93113849Y-45845344D01*
X92936151Y-45845344D01*
X92762336Y-45808398D01*
X92600000Y-45736122D01*
X92456239Y-45631673D01*
X92337336Y-45499617D01*
X92248486Y-45345726D01*
X92193575Y-45176725D01*
X92175000Y-45000000D01*
X92193575Y-44823275D01*
X92248486Y-44654274D01*
X92337336Y-44500383D01*
X92456239Y-44368327D01*
X92600000Y-44263878D01*
X92762336Y-44191602D01*
X92936151Y-44154656D01*
X93113849Y-44154656D01*
X93287664Y-44191602D01*
G37*
G36*
X95827664Y-44191602D02*
G01*
X95990000Y-44263878D01*
X96133761Y-44368327D01*
X96252664Y-44500383D01*
X96341514Y-44654274D01*
X96396425Y-44823275D01*
X96415000Y-45000000D01*
X96396425Y-45176725D01*
X96341514Y-45345726D01*
X96252664Y-45499617D01*
X96133761Y-45631673D01*
X95990000Y-45736122D01*
X95827664Y-45808398D01*
X95653849Y-45845344D01*
X95476151Y-45845344D01*
X95302336Y-45808398D01*
X95140000Y-45736122D01*
X94996239Y-45631673D01*
X94877336Y-45499617D01*
X94788486Y-45345726D01*
X94733575Y-45176725D01*
X94715000Y-45000000D01*
X94733575Y-44823275D01*
X94788486Y-44654274D01*
X94877336Y-44500383D01*
X94996239Y-44368327D01*
X95140000Y-44263878D01*
X95302336Y-44191602D01*
X95476151Y-44154656D01*
X95653849Y-44154656D01*
X95827664Y-44191602D01*
G37*
G36*
X98367664Y-44191602D02*
G01*
X98530000Y-44263878D01*
X98673761Y-44368327D01*
X98792664Y-44500383D01*
X98881514Y-44654274D01*
X98936425Y-44823275D01*
X98955000Y-45000000D01*
X98936425Y-45176725D01*
X98881514Y-45345726D01*
X98792664Y-45499617D01*
X98673761Y-45631673D01*
X98530000Y-45736122D01*
X98367664Y-45808398D01*
X98193849Y-45845344D01*
X98016151Y-45845344D01*
X97842336Y-45808398D01*
X97680000Y-45736122D01*
X97536239Y-45631673D01*
X97417336Y-45499617D01*
X97328486Y-45345726D01*
X97273575Y-45176725D01*
X97255000Y-45000000D01*
X97273575Y-44823275D01*
X97328486Y-44654274D01*
X97417336Y-44500383D01*
X97536239Y-44368327D01*
X97680000Y-44263878D01*
X97842336Y-44191602D01*
X98016151Y-44154656D01*
X98193849Y-44154656D01*
X98367664Y-44191602D01*
G37*
G36*
X100907664Y-44191602D02*
G01*
X101070000Y-44263878D01*
X101213761Y-44368327D01*
X101332664Y-44500383D01*
X101421514Y-44654274D01*
X101476425Y-44823275D01*
X101495000Y-45000000D01*
X101476425Y-45176725D01*
X101421514Y-45345726D01*
X101332664Y-45499617D01*
X101213761Y-45631673D01*
X101070000Y-45736122D01*
X100907664Y-45808398D01*
X100733849Y-45845344D01*
X100556151Y-45845344D01*
X100382336Y-45808398D01*
X100220000Y-45736122D01*
X100076239Y-45631673D01*
X99957336Y-45499617D01*
X99868486Y-45345726D01*
X99813575Y-45176725D01*
X99795000Y-45000000D01*
X99813575Y-44823275D01*
X99868486Y-44654274D01*
X99957336Y-44500383D01*
X100076239Y-44368327D01*
X100220000Y-44263878D01*
X100382336Y-44191602D01*
X100556151Y-44154656D01*
X100733849Y-44154656D01*
X100907664Y-44191602D01*
G37*
G36*
X103447664Y-44191602D02*
G01*
X103610000Y-44263878D01*
X103753761Y-44368327D01*
X103872664Y-44500383D01*
X103961514Y-44654274D01*
X104016425Y-44823275D01*
X104035000Y-45000000D01*
X104016425Y-45176725D01*
X103961514Y-45345726D01*
X103872664Y-45499617D01*
X103753761Y-45631673D01*
X103610000Y-45736122D01*
X103447664Y-45808398D01*
X103273849Y-45845344D01*
X103096151Y-45845344D01*
X102922336Y-45808398D01*
X102760000Y-45736122D01*
X102616239Y-45631673D01*
X102497336Y-45499617D01*
X102408486Y-45345726D01*
X102353575Y-45176725D01*
X102335000Y-45000000D01*
X102353575Y-44823275D01*
X102408486Y-44654274D01*
X102497336Y-44500383D01*
X102616239Y-44368327D01*
X102760000Y-44263878D01*
X102922336Y-44191602D01*
X103096151Y-44154656D01*
X103273849Y-44154656D01*
X103447664Y-44191602D01*
G37*
G36*
X105987664Y-44191602D02*
G01*
X106150000Y-44263878D01*
X106293761Y-44368327D01*
X106412664Y-44500383D01*
X106501514Y-44654274D01*
X106556425Y-44823275D01*
X106575000Y-45000000D01*
X106556425Y-45176725D01*
X106501514Y-45345726D01*
X106412664Y-45499617D01*
X106293761Y-45631673D01*
X106150000Y-45736122D01*
X105987664Y-45808398D01*
X105813849Y-45845344D01*
X105636151Y-45845344D01*
X105462336Y-45808398D01*
X105300000Y-45736122D01*
X105156239Y-45631673D01*
X105037336Y-45499617D01*
X104948486Y-45345726D01*
X104893575Y-45176725D01*
X104875000Y-45000000D01*
X104893575Y-44823275D01*
X104948486Y-44654274D01*
X105037336Y-44500383D01*
X105156239Y-44368327D01*
X105300000Y-44263878D01*
X105462336Y-44191602D01*
X105636151Y-44154656D01*
X105813849Y-44154656D01*
X105987664Y-44191602D01*
G37*
G36*
X108527664Y-44191602D02*
G01*
X108690000Y-44263878D01*
X108833761Y-44368327D01*
X108952664Y-44500383D01*
X109041514Y-44654274D01*
X109096425Y-44823275D01*
X109115000Y-45000000D01*
X109096425Y-45176725D01*
X109041514Y-45345726D01*
X108952664Y-45499617D01*
X108833761Y-45631673D01*
X108690000Y-45736122D01*
X108527664Y-45808398D01*
X108353849Y-45845344D01*
X108176151Y-45845344D01*
X108002336Y-45808398D01*
X107840000Y-45736122D01*
X107696239Y-45631673D01*
X107577336Y-45499617D01*
X107488486Y-45345726D01*
X107433575Y-45176725D01*
X107415000Y-45000000D01*
X107433575Y-44823275D01*
X107488486Y-44654274D01*
X107577336Y-44500383D01*
X107696239Y-44368327D01*
X107840000Y-44263878D01*
X108002336Y-44191602D01*
X108176151Y-44154656D01*
X108353849Y-44154656D01*
X108527664Y-44191602D01*
G37*
G36*
X111067664Y-44191602D02*
G01*
X111230000Y-44263878D01*
X111373761Y-44368327D01*
X111492664Y-44500383D01*
X111581514Y-44654274D01*
X111636425Y-44823275D01*
X111655000Y-45000000D01*
X111636425Y-45176725D01*
X111581514Y-45345726D01*
X111492664Y-45499617D01*
X111373761Y-45631673D01*
X111230000Y-45736122D01*
X111067664Y-45808398D01*
X110893849Y-45845344D01*
X110716151Y-45845344D01*
X110542336Y-45808398D01*
X110380000Y-45736122D01*
X110236239Y-45631673D01*
X110117336Y-45499617D01*
X110028486Y-45345726D01*
X109973575Y-45176725D01*
X109955000Y-45000000D01*
X109973575Y-44823275D01*
X110028486Y-44654274D01*
X110117336Y-44500383D01*
X110236239Y-44368327D01*
X110380000Y-44263878D01*
X110542336Y-44191602D01*
X110716151Y-44154656D01*
X110893849Y-44154656D01*
X111067664Y-44191602D01*
G37*
G36*
X113607664Y-44191602D02*
G01*
X113770000Y-44263878D01*
X113913761Y-44368327D01*
X114032664Y-44500383D01*
X114121514Y-44654274D01*
X114176425Y-44823275D01*
X114195000Y-45000000D01*
X114176425Y-45176725D01*
X114121514Y-45345726D01*
X114032664Y-45499617D01*
X113913761Y-45631673D01*
X113770000Y-45736122D01*
X113607664Y-45808398D01*
X113433849Y-45845344D01*
X113256151Y-45845344D01*
X113082336Y-45808398D01*
X112920000Y-45736122D01*
X112776239Y-45631673D01*
X112657336Y-45499617D01*
X112568486Y-45345726D01*
X112513575Y-45176725D01*
X112495000Y-45000000D01*
X112513575Y-44823275D01*
X112568486Y-44654274D01*
X112657336Y-44500383D01*
X112776239Y-44368327D01*
X112920000Y-44263878D01*
X113082336Y-44191602D01*
X113256151Y-44154656D01*
X113433849Y-44154656D01*
X113607664Y-44191602D01*
G37*
G36*
X116147664Y-44191602D02*
G01*
X116310000Y-44263878D01*
X116453761Y-44368327D01*
X116572664Y-44500383D01*
X116661514Y-44654274D01*
X116716425Y-44823275D01*
X116735000Y-45000000D01*
X116716425Y-45176725D01*
X116661514Y-45345726D01*
X116572664Y-45499617D01*
X116453761Y-45631673D01*
X116310000Y-45736122D01*
X116147664Y-45808398D01*
X115973849Y-45845344D01*
X115796151Y-45845344D01*
X115622336Y-45808398D01*
X115460000Y-45736122D01*
X115316239Y-45631673D01*
X115197336Y-45499617D01*
X115108486Y-45345726D01*
X115053575Y-45176725D01*
X115035000Y-45000000D01*
X115053575Y-44823275D01*
X115108486Y-44654274D01*
X115197336Y-44500383D01*
X115316239Y-44368327D01*
X115460000Y-44263878D01*
X115622336Y-44191602D01*
X115796151Y-44154656D01*
X115973849Y-44154656D01*
X116147664Y-44191602D01*
G37*
M02*
