%TF.GenerationSoftware,KiCad,Pcbnew,7.0.6-7.0.6~ubuntu22.04.1*%
%TF.CreationDate,2023-07-20T16:44:24-04:00*%
%TF.ProjectId,f1c_linux,6631635f-6c69-46e7-9578-2e6b69636164,1*%
%TF.SameCoordinates,Original*%
%TF.FileFunction,Drillmap*%
%TF.FilePolarity,Positive*%
%FSLAX45Y45*%
G04 Gerber Fmt 4.5, Leading zero omitted, Abs format (unit mm)*
G04 Created by KiCad (PCBNEW 7.0.6-7.0.6~ubuntu22.04.1) date 2023-07-20 16:44:24*
%MOMM*%
%LPD*%
G01*
G04 APERTURE LIST*
%ADD10C,0.038100*%
%ADD11C,0.200000*%
%ADD12C,0.065000*%
G04 APERTURE END LIST*
D10*
X11850000Y-4300000D02*
X11850000Y-4300000D01*
G75*
G02*
X12050000Y-4500000I0J-200000D01*
G01*
X12050000Y-6600000D01*
G75*
G02*
X11850000Y-6800000I-200000J0D01*
G01*
X6250000Y-6800000D01*
G75*
G02*
X6050000Y-6600000I0J200000D01*
G01*
X6050000Y-4500000D01*
G75*
G02*
X6250000Y-4300000I200000J0D01*
G01*
X11850000Y-4300000D01*
D11*
D12*
X10998500Y-6160500D02*
X11063500Y-6225500D01*
X11063500Y-6160500D02*
X10998500Y-6225500D01*
X11576500Y-6160500D02*
X11641500Y-6225500D01*
X11641500Y-6160500D02*
X11576500Y-6225500D01*
D11*
X6308872Y-7113389D02*
X6308872Y-6913389D01*
X6308872Y-6913389D02*
X6356491Y-6913389D01*
X6356491Y-6913389D02*
X6385062Y-6922913D01*
X6385062Y-6922913D02*
X6404110Y-6941960D01*
X6404110Y-6941960D02*
X6413634Y-6961008D01*
X6413634Y-6961008D02*
X6423157Y-6999103D01*
X6423157Y-6999103D02*
X6423157Y-7027674D01*
X6423157Y-7027674D02*
X6413634Y-7065770D01*
X6413634Y-7065770D02*
X6404110Y-7084817D01*
X6404110Y-7084817D02*
X6385062Y-7103865D01*
X6385062Y-7103865D02*
X6356491Y-7113389D01*
X6356491Y-7113389D02*
X6308872Y-7113389D01*
X6508872Y-7113389D02*
X6508872Y-6980055D01*
X6508872Y-7018151D02*
X6518396Y-6999103D01*
X6518396Y-6999103D02*
X6527919Y-6989579D01*
X6527919Y-6989579D02*
X6546967Y-6980055D01*
X6546967Y-6980055D02*
X6566015Y-6980055D01*
X6632681Y-7113389D02*
X6632681Y-6980055D01*
X6632681Y-6913389D02*
X6623157Y-6922913D01*
X6623157Y-6922913D02*
X6632681Y-6932436D01*
X6632681Y-6932436D02*
X6642205Y-6922913D01*
X6642205Y-6922913D02*
X6632681Y-6913389D01*
X6632681Y-6913389D02*
X6632681Y-6932436D01*
X6756491Y-7113389D02*
X6737443Y-7103865D01*
X6737443Y-7103865D02*
X6727919Y-7084817D01*
X6727919Y-7084817D02*
X6727919Y-6913389D01*
X6861253Y-7113389D02*
X6842205Y-7103865D01*
X6842205Y-7103865D02*
X6832681Y-7084817D01*
X6832681Y-7084817D02*
X6832681Y-6913389D01*
X7089824Y-7113389D02*
X7089824Y-6913389D01*
X7089824Y-6913389D02*
X7156491Y-7056246D01*
X7156491Y-7056246D02*
X7223157Y-6913389D01*
X7223157Y-6913389D02*
X7223157Y-7113389D01*
X7404110Y-7113389D02*
X7404110Y-7008627D01*
X7404110Y-7008627D02*
X7394586Y-6989579D01*
X7394586Y-6989579D02*
X7375538Y-6980055D01*
X7375538Y-6980055D02*
X7337443Y-6980055D01*
X7337443Y-6980055D02*
X7318396Y-6989579D01*
X7404110Y-7103865D02*
X7385062Y-7113389D01*
X7385062Y-7113389D02*
X7337443Y-7113389D01*
X7337443Y-7113389D02*
X7318396Y-7103865D01*
X7318396Y-7103865D02*
X7308872Y-7084817D01*
X7308872Y-7084817D02*
X7308872Y-7065770D01*
X7308872Y-7065770D02*
X7318396Y-7046722D01*
X7318396Y-7046722D02*
X7337443Y-7037198D01*
X7337443Y-7037198D02*
X7385062Y-7037198D01*
X7385062Y-7037198D02*
X7404110Y-7027674D01*
X7499348Y-6980055D02*
X7499348Y-7180055D01*
X7499348Y-6989579D02*
X7518396Y-6980055D01*
X7518396Y-6980055D02*
X7556491Y-6980055D01*
X7556491Y-6980055D02*
X7575538Y-6989579D01*
X7575538Y-6989579D02*
X7585062Y-6999103D01*
X7585062Y-6999103D02*
X7594586Y-7018151D01*
X7594586Y-7018151D02*
X7594586Y-7075293D01*
X7594586Y-7075293D02*
X7585062Y-7094341D01*
X7585062Y-7094341D02*
X7575538Y-7103865D01*
X7575538Y-7103865D02*
X7556491Y-7113389D01*
X7556491Y-7113389D02*
X7518396Y-7113389D01*
X7518396Y-7113389D02*
X7499348Y-7103865D01*
X7680300Y-7094341D02*
X7689824Y-7103865D01*
X7689824Y-7103865D02*
X7680300Y-7113389D01*
X7680300Y-7113389D02*
X7670777Y-7103865D01*
X7670777Y-7103865D02*
X7680300Y-7094341D01*
X7680300Y-7094341D02*
X7680300Y-7113389D01*
X7680300Y-6989579D02*
X7689824Y-6999103D01*
X7689824Y-6999103D02*
X7680300Y-7008627D01*
X7680300Y-7008627D02*
X7670777Y-6999103D01*
X7670777Y-6999103D02*
X7680300Y-6989579D01*
X7680300Y-6989579D02*
X7680300Y-7008627D01*
D12*
X5983095Y-7409405D02*
X6048095Y-7474405D01*
X6048095Y-7409405D02*
X5983095Y-7474405D01*
D11*
X6346967Y-7333389D02*
X6366015Y-7333389D01*
X6366015Y-7333389D02*
X6385062Y-7342913D01*
X6385062Y-7342913D02*
X6394586Y-7352436D01*
X6394586Y-7352436D02*
X6404110Y-7371484D01*
X6404110Y-7371484D02*
X6413634Y-7409579D01*
X6413634Y-7409579D02*
X6413634Y-7457198D01*
X6413634Y-7457198D02*
X6404110Y-7495293D01*
X6404110Y-7495293D02*
X6394586Y-7514341D01*
X6394586Y-7514341D02*
X6385062Y-7523865D01*
X6385062Y-7523865D02*
X6366015Y-7533389D01*
X6366015Y-7533389D02*
X6346967Y-7533389D01*
X6346967Y-7533389D02*
X6327919Y-7523865D01*
X6327919Y-7523865D02*
X6318396Y-7514341D01*
X6318396Y-7514341D02*
X6308872Y-7495293D01*
X6308872Y-7495293D02*
X6299348Y-7457198D01*
X6299348Y-7457198D02*
X6299348Y-7409579D01*
X6299348Y-7409579D02*
X6308872Y-7371484D01*
X6308872Y-7371484D02*
X6318396Y-7352436D01*
X6318396Y-7352436D02*
X6327919Y-7342913D01*
X6327919Y-7342913D02*
X6346967Y-7333389D01*
X6499348Y-7514341D02*
X6508872Y-7523865D01*
X6508872Y-7523865D02*
X6499348Y-7533389D01*
X6499348Y-7533389D02*
X6489824Y-7523865D01*
X6489824Y-7523865D02*
X6499348Y-7514341D01*
X6499348Y-7514341D02*
X6499348Y-7533389D01*
X6680300Y-7333389D02*
X6642205Y-7333389D01*
X6642205Y-7333389D02*
X6623157Y-7342913D01*
X6623157Y-7342913D02*
X6613634Y-7352436D01*
X6613634Y-7352436D02*
X6594586Y-7381008D01*
X6594586Y-7381008D02*
X6585062Y-7419103D01*
X6585062Y-7419103D02*
X6585062Y-7495293D01*
X6585062Y-7495293D02*
X6594586Y-7514341D01*
X6594586Y-7514341D02*
X6604110Y-7523865D01*
X6604110Y-7523865D02*
X6623157Y-7533389D01*
X6623157Y-7533389D02*
X6661253Y-7533389D01*
X6661253Y-7533389D02*
X6680300Y-7523865D01*
X6680300Y-7523865D02*
X6689824Y-7514341D01*
X6689824Y-7514341D02*
X6699348Y-7495293D01*
X6699348Y-7495293D02*
X6699348Y-7447674D01*
X6699348Y-7447674D02*
X6689824Y-7428627D01*
X6689824Y-7428627D02*
X6680300Y-7419103D01*
X6680300Y-7419103D02*
X6661253Y-7409579D01*
X6661253Y-7409579D02*
X6623157Y-7409579D01*
X6623157Y-7409579D02*
X6604110Y-7419103D01*
X6604110Y-7419103D02*
X6594586Y-7428627D01*
X6594586Y-7428627D02*
X6585062Y-7447674D01*
X6880300Y-7333389D02*
X6785062Y-7333389D01*
X6785062Y-7333389D02*
X6775538Y-7428627D01*
X6775538Y-7428627D02*
X6785062Y-7419103D01*
X6785062Y-7419103D02*
X6804110Y-7409579D01*
X6804110Y-7409579D02*
X6851729Y-7409579D01*
X6851729Y-7409579D02*
X6870777Y-7419103D01*
X6870777Y-7419103D02*
X6880300Y-7428627D01*
X6880300Y-7428627D02*
X6889824Y-7447674D01*
X6889824Y-7447674D02*
X6889824Y-7495293D01*
X6889824Y-7495293D02*
X6880300Y-7514341D01*
X6880300Y-7514341D02*
X6870777Y-7523865D01*
X6870777Y-7523865D02*
X6851729Y-7533389D01*
X6851729Y-7533389D02*
X6804110Y-7533389D01*
X6804110Y-7533389D02*
X6785062Y-7523865D01*
X6785062Y-7523865D02*
X6775538Y-7514341D01*
X7013634Y-7333389D02*
X7032681Y-7333389D01*
X7032681Y-7333389D02*
X7051729Y-7342913D01*
X7051729Y-7342913D02*
X7061253Y-7352436D01*
X7061253Y-7352436D02*
X7070777Y-7371484D01*
X7070777Y-7371484D02*
X7080300Y-7409579D01*
X7080300Y-7409579D02*
X7080300Y-7457198D01*
X7080300Y-7457198D02*
X7070777Y-7495293D01*
X7070777Y-7495293D02*
X7061253Y-7514341D01*
X7061253Y-7514341D02*
X7051729Y-7523865D01*
X7051729Y-7523865D02*
X7032681Y-7533389D01*
X7032681Y-7533389D02*
X7013634Y-7533389D01*
X7013634Y-7533389D02*
X6994586Y-7523865D01*
X6994586Y-7523865D02*
X6985062Y-7514341D01*
X6985062Y-7514341D02*
X6975538Y-7495293D01*
X6975538Y-7495293D02*
X6966015Y-7457198D01*
X6966015Y-7457198D02*
X6966015Y-7409579D01*
X6966015Y-7409579D02*
X6975538Y-7371484D01*
X6975538Y-7371484D02*
X6985062Y-7352436D01*
X6985062Y-7352436D02*
X6994586Y-7342913D01*
X6994586Y-7342913D02*
X7013634Y-7333389D01*
X7166015Y-7533389D02*
X7166015Y-7400055D01*
X7166015Y-7419103D02*
X7175538Y-7409579D01*
X7175538Y-7409579D02*
X7194586Y-7400055D01*
X7194586Y-7400055D02*
X7223158Y-7400055D01*
X7223158Y-7400055D02*
X7242205Y-7409579D01*
X7242205Y-7409579D02*
X7251729Y-7428627D01*
X7251729Y-7428627D02*
X7251729Y-7533389D01*
X7251729Y-7428627D02*
X7261253Y-7409579D01*
X7261253Y-7409579D02*
X7280300Y-7400055D01*
X7280300Y-7400055D02*
X7308872Y-7400055D01*
X7308872Y-7400055D02*
X7327919Y-7409579D01*
X7327919Y-7409579D02*
X7337443Y-7428627D01*
X7337443Y-7428627D02*
X7337443Y-7533389D01*
X7432681Y-7533389D02*
X7432681Y-7400055D01*
X7432681Y-7419103D02*
X7442205Y-7409579D01*
X7442205Y-7409579D02*
X7461253Y-7400055D01*
X7461253Y-7400055D02*
X7489824Y-7400055D01*
X7489824Y-7400055D02*
X7508872Y-7409579D01*
X7508872Y-7409579D02*
X7518396Y-7428627D01*
X7518396Y-7428627D02*
X7518396Y-7533389D01*
X7518396Y-7428627D02*
X7527919Y-7409579D01*
X7527919Y-7409579D02*
X7546967Y-7400055D01*
X7546967Y-7400055D02*
X7575538Y-7400055D01*
X7575538Y-7400055D02*
X7594586Y-7409579D01*
X7594586Y-7409579D02*
X7604110Y-7428627D01*
X7604110Y-7428627D02*
X7604110Y-7533389D01*
X7994586Y-7323865D02*
X7823158Y-7581008D01*
X8251729Y-7333389D02*
X8270777Y-7333389D01*
X8270777Y-7333389D02*
X8289824Y-7342913D01*
X8289824Y-7342913D02*
X8299348Y-7352436D01*
X8299348Y-7352436D02*
X8308872Y-7371484D01*
X8308872Y-7371484D02*
X8318396Y-7409579D01*
X8318396Y-7409579D02*
X8318396Y-7457198D01*
X8318396Y-7457198D02*
X8308872Y-7495293D01*
X8308872Y-7495293D02*
X8299348Y-7514341D01*
X8299348Y-7514341D02*
X8289824Y-7523865D01*
X8289824Y-7523865D02*
X8270777Y-7533389D01*
X8270777Y-7533389D02*
X8251729Y-7533389D01*
X8251729Y-7533389D02*
X8232681Y-7523865D01*
X8232681Y-7523865D02*
X8223158Y-7514341D01*
X8223158Y-7514341D02*
X8213634Y-7495293D01*
X8213634Y-7495293D02*
X8204110Y-7457198D01*
X8204110Y-7457198D02*
X8204110Y-7409579D01*
X8204110Y-7409579D02*
X8213634Y-7371484D01*
X8213634Y-7371484D02*
X8223158Y-7352436D01*
X8223158Y-7352436D02*
X8232681Y-7342913D01*
X8232681Y-7342913D02*
X8251729Y-7333389D01*
X8404110Y-7514341D02*
X8413634Y-7523865D01*
X8413634Y-7523865D02*
X8404110Y-7533389D01*
X8404110Y-7533389D02*
X8394586Y-7523865D01*
X8394586Y-7523865D02*
X8404110Y-7514341D01*
X8404110Y-7514341D02*
X8404110Y-7533389D01*
X8537443Y-7333389D02*
X8556491Y-7333389D01*
X8556491Y-7333389D02*
X8575539Y-7342913D01*
X8575539Y-7342913D02*
X8585063Y-7352436D01*
X8585063Y-7352436D02*
X8594586Y-7371484D01*
X8594586Y-7371484D02*
X8604110Y-7409579D01*
X8604110Y-7409579D02*
X8604110Y-7457198D01*
X8604110Y-7457198D02*
X8594586Y-7495293D01*
X8594586Y-7495293D02*
X8585063Y-7514341D01*
X8585063Y-7514341D02*
X8575539Y-7523865D01*
X8575539Y-7523865D02*
X8556491Y-7533389D01*
X8556491Y-7533389D02*
X8537443Y-7533389D01*
X8537443Y-7533389D02*
X8518396Y-7523865D01*
X8518396Y-7523865D02*
X8508872Y-7514341D01*
X8508872Y-7514341D02*
X8499348Y-7495293D01*
X8499348Y-7495293D02*
X8489824Y-7457198D01*
X8489824Y-7457198D02*
X8489824Y-7409579D01*
X8489824Y-7409579D02*
X8499348Y-7371484D01*
X8499348Y-7371484D02*
X8508872Y-7352436D01*
X8508872Y-7352436D02*
X8518396Y-7342913D01*
X8518396Y-7342913D02*
X8537443Y-7333389D01*
X8680301Y-7352436D02*
X8689824Y-7342913D01*
X8689824Y-7342913D02*
X8708872Y-7333389D01*
X8708872Y-7333389D02*
X8756491Y-7333389D01*
X8756491Y-7333389D02*
X8775539Y-7342913D01*
X8775539Y-7342913D02*
X8785063Y-7352436D01*
X8785063Y-7352436D02*
X8794586Y-7371484D01*
X8794586Y-7371484D02*
X8794586Y-7390532D01*
X8794586Y-7390532D02*
X8785063Y-7419103D01*
X8785063Y-7419103D02*
X8670777Y-7533389D01*
X8670777Y-7533389D02*
X8794586Y-7533389D01*
X8975539Y-7333389D02*
X8880301Y-7333389D01*
X8880301Y-7333389D02*
X8870777Y-7428627D01*
X8870777Y-7428627D02*
X8880301Y-7419103D01*
X8880301Y-7419103D02*
X8899348Y-7409579D01*
X8899348Y-7409579D02*
X8946967Y-7409579D01*
X8946967Y-7409579D02*
X8966015Y-7419103D01*
X8966015Y-7419103D02*
X8975539Y-7428627D01*
X8975539Y-7428627D02*
X8985063Y-7447674D01*
X8985063Y-7447674D02*
X8985063Y-7495293D01*
X8985063Y-7495293D02*
X8975539Y-7514341D01*
X8975539Y-7514341D02*
X8966015Y-7523865D01*
X8966015Y-7523865D02*
X8946967Y-7533389D01*
X8946967Y-7533389D02*
X8899348Y-7533389D01*
X8899348Y-7533389D02*
X8880301Y-7523865D01*
X8880301Y-7523865D02*
X8870777Y-7514341D01*
X9156491Y-7333389D02*
X9118396Y-7333389D01*
X9118396Y-7333389D02*
X9099348Y-7342913D01*
X9099348Y-7342913D02*
X9089824Y-7352436D01*
X9089824Y-7352436D02*
X9070777Y-7381008D01*
X9070777Y-7381008D02*
X9061253Y-7419103D01*
X9061253Y-7419103D02*
X9061253Y-7495293D01*
X9061253Y-7495293D02*
X9070777Y-7514341D01*
X9070777Y-7514341D02*
X9080301Y-7523865D01*
X9080301Y-7523865D02*
X9099348Y-7533389D01*
X9099348Y-7533389D02*
X9137444Y-7533389D01*
X9137444Y-7533389D02*
X9156491Y-7523865D01*
X9156491Y-7523865D02*
X9166015Y-7514341D01*
X9166015Y-7514341D02*
X9175539Y-7495293D01*
X9175539Y-7495293D02*
X9175539Y-7447674D01*
X9175539Y-7447674D02*
X9166015Y-7428627D01*
X9166015Y-7428627D02*
X9156491Y-7419103D01*
X9156491Y-7419103D02*
X9137444Y-7409579D01*
X9137444Y-7409579D02*
X9099348Y-7409579D01*
X9099348Y-7409579D02*
X9080301Y-7419103D01*
X9080301Y-7419103D02*
X9070777Y-7428627D01*
X9070777Y-7428627D02*
X9061253Y-7447674D01*
X9251729Y-7333389D02*
X9251729Y-7371484D01*
X9327920Y-7333389D02*
X9327920Y-7371484D01*
X9623158Y-7609579D02*
X9613634Y-7600055D01*
X9613634Y-7600055D02*
X9594586Y-7571484D01*
X9594586Y-7571484D02*
X9585063Y-7552436D01*
X9585063Y-7552436D02*
X9575539Y-7523865D01*
X9575539Y-7523865D02*
X9566015Y-7476246D01*
X9566015Y-7476246D02*
X9566015Y-7438151D01*
X9566015Y-7438151D02*
X9575539Y-7390532D01*
X9575539Y-7390532D02*
X9585063Y-7361960D01*
X9585063Y-7361960D02*
X9594586Y-7342913D01*
X9594586Y-7342913D02*
X9613634Y-7314341D01*
X9613634Y-7314341D02*
X9623158Y-7304817D01*
X9689825Y-7352436D02*
X9699348Y-7342913D01*
X9699348Y-7342913D02*
X9718396Y-7333389D01*
X9718396Y-7333389D02*
X9766015Y-7333389D01*
X9766015Y-7333389D02*
X9785063Y-7342913D01*
X9785063Y-7342913D02*
X9794586Y-7352436D01*
X9794586Y-7352436D02*
X9804110Y-7371484D01*
X9804110Y-7371484D02*
X9804110Y-7390532D01*
X9804110Y-7390532D02*
X9794586Y-7419103D01*
X9794586Y-7419103D02*
X9680301Y-7533389D01*
X9680301Y-7533389D02*
X9804110Y-7533389D01*
X10042206Y-7533389D02*
X10042206Y-7333389D01*
X10127920Y-7533389D02*
X10127920Y-7428627D01*
X10127920Y-7428627D02*
X10118396Y-7409579D01*
X10118396Y-7409579D02*
X10099348Y-7400055D01*
X10099348Y-7400055D02*
X10070777Y-7400055D01*
X10070777Y-7400055D02*
X10051729Y-7409579D01*
X10051729Y-7409579D02*
X10042206Y-7419103D01*
X10251729Y-7533389D02*
X10232682Y-7523865D01*
X10232682Y-7523865D02*
X10223158Y-7514341D01*
X10223158Y-7514341D02*
X10213634Y-7495293D01*
X10213634Y-7495293D02*
X10213634Y-7438151D01*
X10213634Y-7438151D02*
X10223158Y-7419103D01*
X10223158Y-7419103D02*
X10232682Y-7409579D01*
X10232682Y-7409579D02*
X10251729Y-7400055D01*
X10251729Y-7400055D02*
X10280301Y-7400055D01*
X10280301Y-7400055D02*
X10299348Y-7409579D01*
X10299348Y-7409579D02*
X10308872Y-7419103D01*
X10308872Y-7419103D02*
X10318396Y-7438151D01*
X10318396Y-7438151D02*
X10318396Y-7495293D01*
X10318396Y-7495293D02*
X10308872Y-7514341D01*
X10308872Y-7514341D02*
X10299348Y-7523865D01*
X10299348Y-7523865D02*
X10280301Y-7533389D01*
X10280301Y-7533389D02*
X10251729Y-7533389D01*
X10432682Y-7533389D02*
X10413634Y-7523865D01*
X10413634Y-7523865D02*
X10404110Y-7504817D01*
X10404110Y-7504817D02*
X10404110Y-7333389D01*
X10585063Y-7523865D02*
X10566015Y-7533389D01*
X10566015Y-7533389D02*
X10527920Y-7533389D01*
X10527920Y-7533389D02*
X10508872Y-7523865D01*
X10508872Y-7523865D02*
X10499348Y-7504817D01*
X10499348Y-7504817D02*
X10499348Y-7428627D01*
X10499348Y-7428627D02*
X10508872Y-7409579D01*
X10508872Y-7409579D02*
X10527920Y-7400055D01*
X10527920Y-7400055D02*
X10566015Y-7400055D01*
X10566015Y-7400055D02*
X10585063Y-7409579D01*
X10585063Y-7409579D02*
X10594587Y-7428627D01*
X10594587Y-7428627D02*
X10594587Y-7447674D01*
X10594587Y-7447674D02*
X10499348Y-7466722D01*
X10670777Y-7523865D02*
X10689825Y-7533389D01*
X10689825Y-7533389D02*
X10727920Y-7533389D01*
X10727920Y-7533389D02*
X10746968Y-7523865D01*
X10746968Y-7523865D02*
X10756491Y-7504817D01*
X10756491Y-7504817D02*
X10756491Y-7495293D01*
X10756491Y-7495293D02*
X10746968Y-7476246D01*
X10746968Y-7476246D02*
X10727920Y-7466722D01*
X10727920Y-7466722D02*
X10699348Y-7466722D01*
X10699348Y-7466722D02*
X10680301Y-7457198D01*
X10680301Y-7457198D02*
X10670777Y-7438151D01*
X10670777Y-7438151D02*
X10670777Y-7428627D01*
X10670777Y-7428627D02*
X10680301Y-7409579D01*
X10680301Y-7409579D02*
X10699348Y-7400055D01*
X10699348Y-7400055D02*
X10727920Y-7400055D01*
X10727920Y-7400055D02*
X10746968Y-7409579D01*
X10823158Y-7609579D02*
X10832682Y-7600055D01*
X10832682Y-7600055D02*
X10851729Y-7571484D01*
X10851729Y-7571484D02*
X10861253Y-7552436D01*
X10861253Y-7552436D02*
X10870777Y-7523865D01*
X10870777Y-7523865D02*
X10880301Y-7476246D01*
X10880301Y-7476246D02*
X10880301Y-7438151D01*
X10880301Y-7438151D02*
X10870777Y-7390532D01*
X10870777Y-7390532D02*
X10861253Y-7361960D01*
X10861253Y-7361960D02*
X10851729Y-7342913D01*
X10851729Y-7342913D02*
X10832682Y-7314341D01*
X10832682Y-7314341D02*
X10823158Y-7304817D01*
X11185063Y-7609579D02*
X11175539Y-7600055D01*
X11175539Y-7600055D02*
X11156491Y-7571484D01*
X11156491Y-7571484D02*
X11146968Y-7552436D01*
X11146968Y-7552436D02*
X11137444Y-7523865D01*
X11137444Y-7523865D02*
X11127920Y-7476246D01*
X11127920Y-7476246D02*
X11127920Y-7438151D01*
X11127920Y-7438151D02*
X11137444Y-7390532D01*
X11137444Y-7390532D02*
X11146968Y-7361960D01*
X11146968Y-7361960D02*
X11156491Y-7342913D01*
X11156491Y-7342913D02*
X11175539Y-7314341D01*
X11175539Y-7314341D02*
X11185063Y-7304817D01*
X11261253Y-7400055D02*
X11261253Y-7533389D01*
X11261253Y-7419103D02*
X11270777Y-7409579D01*
X11270777Y-7409579D02*
X11289825Y-7400055D01*
X11289825Y-7400055D02*
X11318396Y-7400055D01*
X11318396Y-7400055D02*
X11337444Y-7409579D01*
X11337444Y-7409579D02*
X11346967Y-7428627D01*
X11346967Y-7428627D02*
X11346967Y-7533389D01*
X11470777Y-7533389D02*
X11451729Y-7523865D01*
X11451729Y-7523865D02*
X11442206Y-7514341D01*
X11442206Y-7514341D02*
X11432682Y-7495293D01*
X11432682Y-7495293D02*
X11432682Y-7438151D01*
X11432682Y-7438151D02*
X11442206Y-7419103D01*
X11442206Y-7419103D02*
X11451729Y-7409579D01*
X11451729Y-7409579D02*
X11470777Y-7400055D01*
X11470777Y-7400055D02*
X11499348Y-7400055D01*
X11499348Y-7400055D02*
X11518396Y-7409579D01*
X11518396Y-7409579D02*
X11527920Y-7419103D01*
X11527920Y-7419103D02*
X11537444Y-7438151D01*
X11537444Y-7438151D02*
X11537444Y-7495293D01*
X11537444Y-7495293D02*
X11527920Y-7514341D01*
X11527920Y-7514341D02*
X11518396Y-7523865D01*
X11518396Y-7523865D02*
X11499348Y-7533389D01*
X11499348Y-7533389D02*
X11470777Y-7533389D01*
X11594587Y-7400055D02*
X11670777Y-7400055D01*
X11623158Y-7333389D02*
X11623158Y-7504817D01*
X11623158Y-7504817D02*
X11632682Y-7523865D01*
X11632682Y-7523865D02*
X11651729Y-7533389D01*
X11651729Y-7533389D02*
X11670777Y-7533389D01*
X11889825Y-7400055D02*
X11889825Y-7600055D01*
X11889825Y-7409579D02*
X11908872Y-7400055D01*
X11908872Y-7400055D02*
X11946968Y-7400055D01*
X11946968Y-7400055D02*
X11966015Y-7409579D01*
X11966015Y-7409579D02*
X11975539Y-7419103D01*
X11975539Y-7419103D02*
X11985063Y-7438151D01*
X11985063Y-7438151D02*
X11985063Y-7495293D01*
X11985063Y-7495293D02*
X11975539Y-7514341D01*
X11975539Y-7514341D02*
X11966015Y-7523865D01*
X11966015Y-7523865D02*
X11946968Y-7533389D01*
X11946968Y-7533389D02*
X11908872Y-7533389D01*
X11908872Y-7533389D02*
X11889825Y-7523865D01*
X12099348Y-7533389D02*
X12080301Y-7523865D01*
X12080301Y-7523865D02*
X12070777Y-7504817D01*
X12070777Y-7504817D02*
X12070777Y-7333389D01*
X12261253Y-7533389D02*
X12261253Y-7428627D01*
X12261253Y-7428627D02*
X12251729Y-7409579D01*
X12251729Y-7409579D02*
X12232682Y-7400055D01*
X12232682Y-7400055D02*
X12194587Y-7400055D01*
X12194587Y-7400055D02*
X12175539Y-7409579D01*
X12261253Y-7523865D02*
X12242206Y-7533389D01*
X12242206Y-7533389D02*
X12194587Y-7533389D01*
X12194587Y-7533389D02*
X12175539Y-7523865D01*
X12175539Y-7523865D02*
X12166015Y-7504817D01*
X12166015Y-7504817D02*
X12166015Y-7485770D01*
X12166015Y-7485770D02*
X12175539Y-7466722D01*
X12175539Y-7466722D02*
X12194587Y-7457198D01*
X12194587Y-7457198D02*
X12242206Y-7457198D01*
X12242206Y-7457198D02*
X12261253Y-7447674D01*
X12327920Y-7400055D02*
X12404110Y-7400055D01*
X12356491Y-7333389D02*
X12356491Y-7504817D01*
X12356491Y-7504817D02*
X12366015Y-7523865D01*
X12366015Y-7523865D02*
X12385063Y-7533389D01*
X12385063Y-7533389D02*
X12404110Y-7533389D01*
X12546968Y-7523865D02*
X12527920Y-7533389D01*
X12527920Y-7533389D02*
X12489825Y-7533389D01*
X12489825Y-7533389D02*
X12470777Y-7523865D01*
X12470777Y-7523865D02*
X12461253Y-7504817D01*
X12461253Y-7504817D02*
X12461253Y-7428627D01*
X12461253Y-7428627D02*
X12470777Y-7409579D01*
X12470777Y-7409579D02*
X12489825Y-7400055D01*
X12489825Y-7400055D02*
X12527920Y-7400055D01*
X12527920Y-7400055D02*
X12546968Y-7409579D01*
X12546968Y-7409579D02*
X12556491Y-7428627D01*
X12556491Y-7428627D02*
X12556491Y-7447674D01*
X12556491Y-7447674D02*
X12461253Y-7466722D01*
X12727920Y-7533389D02*
X12727920Y-7333389D01*
X12727920Y-7523865D02*
X12708872Y-7533389D01*
X12708872Y-7533389D02*
X12670777Y-7533389D01*
X12670777Y-7533389D02*
X12651729Y-7523865D01*
X12651729Y-7523865D02*
X12642206Y-7514341D01*
X12642206Y-7514341D02*
X12632682Y-7495293D01*
X12632682Y-7495293D02*
X12632682Y-7438151D01*
X12632682Y-7438151D02*
X12642206Y-7419103D01*
X12642206Y-7419103D02*
X12651729Y-7409579D01*
X12651729Y-7409579D02*
X12670777Y-7400055D01*
X12670777Y-7400055D02*
X12708872Y-7400055D01*
X12708872Y-7400055D02*
X12727920Y-7409579D01*
X12804110Y-7609579D02*
X12813634Y-7600055D01*
X12813634Y-7600055D02*
X12832682Y-7571484D01*
X12832682Y-7571484D02*
X12842206Y-7552436D01*
X12842206Y-7552436D02*
X12851729Y-7523865D01*
X12851729Y-7523865D02*
X12861253Y-7476246D01*
X12861253Y-7476246D02*
X12861253Y-7438151D01*
X12861253Y-7438151D02*
X12851729Y-7390532D01*
X12851729Y-7390532D02*
X12842206Y-7361960D01*
X12842206Y-7361960D02*
X12832682Y-7342913D01*
X12832682Y-7342913D02*
X12813634Y-7314341D01*
X12813634Y-7314341D02*
X12804110Y-7304817D01*
M02*
