M48
; DRILL file {KiCad 7.0.6-7.0.6~ubuntu22.04.1} date Thu 20 Jul 2023 04:44:24 PM
; FORMAT={-:-/ absolute / metric / decimal}
; #@! TF.CreationDate,2023-07-20T16:44:24-04:00
; #@! TF.GenerationSoftware,Kicad,Pcbnew,7.0.6-7.0.6~ubuntu22.04.1
; #@! TF.FileFunction,Plated,1,4,PTH
FMAT,2
METRIC
; #@! TA.AperFunction,Plated,PTH,ViaDrill
T1C0.200
; #@! TA.AperFunction,Plated,PTH,ViaDrill
T2C0.330
; #@! TA.AperFunction,Plated,PTH,ComponentDrill
T3C0.600
; #@! TA.AperFunction,Plated,PTH,ComponentDrill
T4C1.000
%
G90
G05
T1
X66.4Y-52.6
X67.7Y-52.6
X68.9Y-52.6
X69.5Y-63.5
X71.2Y-54.4
X71.7Y-52.6
X72.4Y-63.5
X73.3Y-51.5
X75.0Y-60.5
X78.1Y-61.3
X78.6Y-51.1
X79.0Y-60.8
X79.0Y-63.8
X79.2Y-51.8
X79.4Y-53.3
X79.9Y-60.2
X80.4Y-58.6
X80.5Y-61.8
X80.5Y-62.5
X80.5Y-63.2
X80.6Y-57.6
X80.7Y-65.4
X80.8Y-55.5
X82.3Y-63.9
X82.5Y-55.4
X82.5Y-60.9
X82.6Y-57.3
X82.6Y-58.0
X82.6Y-58.7
X82.8Y-59.6
X83.1Y-53.9
X83.45Y-62.2
X84.1Y-63.8
X84.2Y-54.2
X84.25Y-55.5
X84.25Y-56.75
X84.25Y-58.0
X84.25Y-59.25
X84.25Y-60.5
X84.5Y-49.6
X84.9Y-54.2
X85.0Y-65.96
X85.2Y-63.9
X85.5Y-55.5
X85.5Y-56.75
X85.5Y-58.0
X85.5Y-59.25
X85.5Y-60.5
X85.6Y-54.0
X86.45Y-52.0
X86.5Y-54.0
X86.75Y-55.5
X86.75Y-56.75
X86.75Y-58.0
X86.75Y-59.25
X86.75Y-60.5
X87.15Y-52.1
X87.3Y-65.008
X88.0Y-55.5
X88.0Y-56.75
X88.0Y-58.0
X88.0Y-59.25
X88.0Y-60.5
X88.1Y-52.1
X88.9Y-64.8
X89.25Y-55.5
X89.25Y-56.75
X89.25Y-58.0
X89.25Y-59.25
X89.25Y-60.5
X90.438Y-62.1
X90.8Y-54.3
X90.8Y-55.0
X90.8Y-56.2
X90.8Y-57.0
X90.8Y-57.8
X90.8Y-58.6
X92.0Y-63.4
X92.6Y-53.6
X92.6Y-54.6
X92.6Y-60.8
X92.7Y-55.8
X92.7Y-57.4
X92.8Y-63.4
X93.6Y-59.0
X93.7Y-63.4
X93.9Y-55.7
X93.9Y-60.3
X94.1Y-57.1
X94.3Y-59.7
X95.0Y-59.6
X95.7Y-57.8
X97.4Y-61.0
X99.0Y-52.15
X101.9Y-52.212
X106.3Y-58.2
X107.1Y-52.2
X114.5Y-51.3
X115.0Y-53.6
X115.5Y-55.7
X117.2Y-51.305
T2
X87.6Y-49.3
X89.8Y-49.4
X93.3Y-52.0
X94.4Y-52.0
X97.0Y-55.0
X98.5Y-61.8
X99.8Y-61.8
X101.8Y-53.1
X102.8Y-54.994
X103.7Y-60.5
X103.8Y-54.994
X103.912Y-52.238
X104.0Y-63.0
X104.3Y-59.4
X104.5Y-50.0
X104.5Y-53.8
X104.8Y-52.3
X106.95Y-52.95
X107.7Y-54.575
X109.7Y-52.1
X109.75Y-53.0
X110.67Y-55.0
X111.1Y-59.244
X111.6Y-52.1
X111.9Y-59.6
X112.3Y-54.3
X112.3Y-51.399
X115.529Y-57.13
X115.6Y-59.2
X116.7Y-58.7
X117.975Y-56.275
X118.175Y-57.175
X118.7Y-54.95
X119.6Y-54.9
T4
X62.545Y-45.0
X62.545Y-47.54
X65.085Y-45.0
X65.085Y-47.54
X67.625Y-45.0
X67.625Y-47.54
X70.165Y-45.0
X70.165Y-47.54
X72.705Y-45.0
X72.705Y-47.54
X75.245Y-45.0
X75.245Y-47.54
X77.785Y-45.0
X77.785Y-47.54
X80.325Y-45.0
X80.325Y-47.54
X82.865Y-45.0
X82.865Y-47.54
X85.405Y-45.0
X85.405Y-47.54
X87.945Y-45.0
X87.945Y-47.54
X90.485Y-45.0
X90.485Y-47.54
X93.025Y-45.0
X93.025Y-47.54
X95.565Y-45.0
X95.565Y-47.54
X98.105Y-45.0
X98.105Y-47.54
X100.645Y-45.0
X100.645Y-47.54
X103.185Y-45.0
X103.185Y-47.54
X105.725Y-45.0
X105.725Y-47.54
X108.265Y-45.0
X108.265Y-47.54
X110.805Y-45.0
X110.805Y-47.54
X113.345Y-45.0
X113.345Y-47.54
X115.885Y-45.0
X115.885Y-47.54
X115.885Y-50.08
X115.885Y-52.62
X118.425Y-45.0
X118.425Y-47.54
X118.425Y-50.08
X118.425Y-52.62
T3
X108.88Y-60.86G85X108.88Y-61.96
G05
X108.88Y-65.21G85X108.88Y-66.01
G05
X117.52Y-60.86G85X117.52Y-61.96
G05
X117.52Y-65.21G85X117.52Y-66.01
G05
T0
M30
