G04 #@! TF.GenerationSoftware,KiCad,Pcbnew,7.0.6-7.0.6~ubuntu22.04.1*
G04 #@! TF.CreationDate,2023-07-20T16:44:22-04:00*
G04 #@! TF.ProjectId,f1c_linux,6631635f-6c69-46e7-9578-2e6b69636164,1*
G04 #@! TF.SameCoordinates,Original*
G04 #@! TF.FileFunction,Soldermask,Top*
G04 #@! TF.FilePolarity,Negative*
%FSLAX46Y46*%
G04 Gerber Fmt 4.6, Leading zero omitted, Abs format (unit mm)*
G04 Created by KiCad (PCBNEW 7.0.6-7.0.6~ubuntu22.04.1) date 2023-07-20 16:44:22*
%MOMM*%
%LPD*%
G01*
G04 APERTURE LIST*
G04 APERTURE END LIST*
G36*
X108896305Y-64715089D02*
G01*
X108951157Y-64715089D01*
X108967814Y-64719979D01*
X108981631Y-64720925D01*
X109032001Y-64738826D01*
X109087708Y-64755184D01*
X109099689Y-64762883D01*
X109109813Y-64766482D01*
X109155824Y-64798959D01*
X109207430Y-64832125D01*
X109214707Y-64840523D01*
X109220950Y-64844930D01*
X109258192Y-64890707D01*
X109300627Y-64939680D01*
X109303945Y-64946947D01*
X109306801Y-64950457D01*
X109331182Y-65006588D01*
X109359746Y-65069134D01*
X109360436Y-65073936D01*
X109360998Y-65075229D01*
X109369153Y-65134560D01*
X109380000Y-65210000D01*
X109380000Y-66010000D01*
X109379772Y-66011580D01*
X109375344Y-66076327D01*
X109365318Y-66112106D01*
X109359746Y-66150866D01*
X109346065Y-66180823D01*
X109338168Y-66209008D01*
X109318192Y-66241856D01*
X109300627Y-66280320D01*
X109281095Y-66302861D01*
X109267485Y-66325242D01*
X109237166Y-66353557D01*
X109207430Y-66387875D01*
X109184955Y-66402318D01*
X109168065Y-66418093D01*
X109128553Y-66438566D01*
X109087708Y-66464816D01*
X109065058Y-66471466D01*
X109047277Y-66480680D01*
X109000756Y-66490347D01*
X108951157Y-66504911D01*
X108930674Y-66504911D01*
X108914091Y-66508357D01*
X108863708Y-66504911D01*
X108808843Y-66504911D01*
X108792181Y-66500018D01*
X108778368Y-66499074D01*
X108728009Y-66481176D01*
X108672292Y-66464816D01*
X108660308Y-66457114D01*
X108650186Y-66453517D01*
X108604180Y-66421043D01*
X108552570Y-66387875D01*
X108545291Y-66379475D01*
X108539049Y-66375069D01*
X108501804Y-66329288D01*
X108459373Y-66280320D01*
X108456054Y-66273052D01*
X108453198Y-66269542D01*
X108428805Y-66213386D01*
X108400254Y-66150866D01*
X108399563Y-66146065D01*
X108399001Y-66144770D01*
X108390837Y-66085371D01*
X108380000Y-66010000D01*
X108380000Y-65210000D01*
X108380227Y-65208420D01*
X108384655Y-65143672D01*
X108394682Y-65107884D01*
X108400254Y-65069134D01*
X108413931Y-65039183D01*
X108421831Y-65010991D01*
X108441812Y-64978132D01*
X108459373Y-64939680D01*
X108478899Y-64917145D01*
X108492514Y-64894757D01*
X108522842Y-64866432D01*
X108552570Y-64832125D01*
X108575037Y-64817685D01*
X108591934Y-64801906D01*
X108631458Y-64781425D01*
X108672292Y-64755184D01*
X108694935Y-64748535D01*
X108712722Y-64739319D01*
X108759257Y-64729648D01*
X108808843Y-64715089D01*
X108829321Y-64715089D01*
X108845908Y-64711642D01*
X108896305Y-64715089D01*
G37*
G36*
X117536305Y-64715089D02*
G01*
X117591157Y-64715089D01*
X117607814Y-64719979D01*
X117621631Y-64720925D01*
X117672001Y-64738826D01*
X117727708Y-64755184D01*
X117739689Y-64762883D01*
X117749813Y-64766482D01*
X117795824Y-64798959D01*
X117847430Y-64832125D01*
X117854707Y-64840523D01*
X117860950Y-64844930D01*
X117898192Y-64890707D01*
X117940627Y-64939680D01*
X117943945Y-64946947D01*
X117946801Y-64950457D01*
X117971182Y-65006588D01*
X117999746Y-65069134D01*
X118000436Y-65073936D01*
X118000998Y-65075229D01*
X118009153Y-65134560D01*
X118020000Y-65210000D01*
X118020000Y-66010000D01*
X118019772Y-66011580D01*
X118015344Y-66076327D01*
X118005318Y-66112106D01*
X117999746Y-66150866D01*
X117986065Y-66180823D01*
X117978168Y-66209008D01*
X117958192Y-66241856D01*
X117940627Y-66280320D01*
X117921095Y-66302861D01*
X117907485Y-66325242D01*
X117877166Y-66353557D01*
X117847430Y-66387875D01*
X117824955Y-66402318D01*
X117808065Y-66418093D01*
X117768553Y-66438566D01*
X117727708Y-66464816D01*
X117705058Y-66471466D01*
X117687277Y-66480680D01*
X117640756Y-66490347D01*
X117591157Y-66504911D01*
X117570674Y-66504911D01*
X117554091Y-66508357D01*
X117503708Y-66504911D01*
X117448843Y-66504911D01*
X117432181Y-66500018D01*
X117418368Y-66499074D01*
X117368009Y-66481176D01*
X117312292Y-66464816D01*
X117300308Y-66457114D01*
X117290186Y-66453517D01*
X117244180Y-66421043D01*
X117192570Y-66387875D01*
X117185291Y-66379475D01*
X117179049Y-66375069D01*
X117141804Y-66329288D01*
X117099373Y-66280320D01*
X117096054Y-66273052D01*
X117093198Y-66269542D01*
X117068805Y-66213386D01*
X117040254Y-66150866D01*
X117039563Y-66146065D01*
X117039001Y-66144770D01*
X117030837Y-66085371D01*
X117020000Y-66010000D01*
X117020000Y-65210000D01*
X117020227Y-65208420D01*
X117024655Y-65143672D01*
X117034682Y-65107884D01*
X117040254Y-65069134D01*
X117053931Y-65039183D01*
X117061831Y-65010991D01*
X117081812Y-64978132D01*
X117099373Y-64939680D01*
X117118899Y-64917145D01*
X117132514Y-64894757D01*
X117162842Y-64866432D01*
X117192570Y-64832125D01*
X117215037Y-64817685D01*
X117231934Y-64801906D01*
X117271458Y-64781425D01*
X117312292Y-64755184D01*
X117334935Y-64748535D01*
X117352722Y-64739319D01*
X117399257Y-64729648D01*
X117448843Y-64715089D01*
X117469321Y-64715089D01*
X117485908Y-64711642D01*
X117536305Y-64715089D01*
G37*
G36*
X119336662Y-65940276D02*
G01*
X119380459Y-65969541D01*
X119409724Y-66013338D01*
X119420000Y-66065000D01*
X119420000Y-66335000D01*
X119409724Y-66386662D01*
X119380459Y-66430459D01*
X119336662Y-66459724D01*
X119285000Y-66470000D01*
X118915000Y-66470000D01*
X118863338Y-66459724D01*
X118819541Y-66430459D01*
X118790276Y-66386662D01*
X118780000Y-66335000D01*
X118780000Y-66065000D01*
X118790276Y-66013338D01*
X118819541Y-65969541D01*
X118863338Y-65940276D01*
X118915000Y-65930000D01*
X119285000Y-65930000D01*
X119336662Y-65940276D01*
G37*
G36*
X91204829Y-65241299D02*
G01*
X91237674Y-65247832D01*
X91263929Y-65265375D01*
X91282330Y-65277670D01*
X91299480Y-65303338D01*
X91312167Y-65322325D01*
X91312939Y-65326210D01*
X91319999Y-65361704D01*
X91320000Y-65658297D01*
X91312167Y-65697674D01*
X91282330Y-65742330D01*
X91237674Y-65772166D01*
X91237674Y-65772167D01*
X91198297Y-65779999D01*
X91198296Y-65779999D01*
X90801703Y-65780000D01*
X90768858Y-65773466D01*
X90762325Y-65772167D01*
X90731959Y-65751877D01*
X90717670Y-65742330D01*
X90703375Y-65720935D01*
X90687832Y-65697674D01*
X90680000Y-65658297D01*
X90680000Y-65361703D01*
X90687832Y-65322325D01*
X90717670Y-65277670D01*
X90762325Y-65247832D01*
X90801702Y-65240000D01*
X91198296Y-65240000D01*
X91198297Y-65240000D01*
X91204829Y-65241299D01*
G37*
G36*
X93404829Y-65241299D02*
G01*
X93437674Y-65247832D01*
X93463929Y-65265375D01*
X93482330Y-65277670D01*
X93499480Y-65303338D01*
X93512167Y-65322325D01*
X93512939Y-65326210D01*
X93519999Y-65361704D01*
X93520000Y-65658297D01*
X93512167Y-65697674D01*
X93482330Y-65742330D01*
X93437674Y-65772166D01*
X93437674Y-65772167D01*
X93398297Y-65779999D01*
X93398296Y-65779999D01*
X93001703Y-65780000D01*
X92968858Y-65773466D01*
X92962325Y-65772167D01*
X92931959Y-65751877D01*
X92917670Y-65742330D01*
X92903375Y-65720935D01*
X92887832Y-65697674D01*
X92880000Y-65658297D01*
X92880000Y-65361703D01*
X92887832Y-65322325D01*
X92917670Y-65277670D01*
X92962325Y-65247832D01*
X93001702Y-65240000D01*
X93398296Y-65240000D01*
X93398297Y-65240000D01*
X93404829Y-65241299D01*
G37*
G36*
X86749162Y-65230276D02*
G01*
X86792959Y-65259541D01*
X86822224Y-65303338D01*
X86832500Y-65355000D01*
X86832500Y-65625000D01*
X86822224Y-65676662D01*
X86792959Y-65720459D01*
X86749162Y-65749724D01*
X86697500Y-65760000D01*
X86327500Y-65760000D01*
X86275838Y-65749724D01*
X86232041Y-65720459D01*
X86202776Y-65676662D01*
X86192500Y-65625000D01*
X86192500Y-65355000D01*
X86202776Y-65303338D01*
X86232041Y-65259541D01*
X86275838Y-65230276D01*
X86327500Y-65220000D01*
X86697500Y-65220000D01*
X86749162Y-65230276D01*
G37*
G36*
X90093927Y-65202016D02*
G01*
X90124623Y-65208122D01*
X90124624Y-65208122D01*
X90124625Y-65208123D01*
X90170935Y-65239065D01*
X90201877Y-65285375D01*
X90209999Y-65326212D01*
X90210000Y-65633789D01*
X90201877Y-65674625D01*
X90170935Y-65720935D01*
X90124625Y-65751877D01*
X90097400Y-65757291D01*
X90083789Y-65759999D01*
X90083788Y-65759999D01*
X89716211Y-65760000D01*
X89675375Y-65751877D01*
X89629065Y-65720935D01*
X89598123Y-65674625D01*
X89598122Y-65674624D01*
X89598122Y-65674623D01*
X89590000Y-65633789D01*
X89590000Y-65326211D01*
X89598122Y-65285376D01*
X89610531Y-65266805D01*
X89629065Y-65239065D01*
X89669960Y-65211741D01*
X89675376Y-65208122D01*
X89716210Y-65200000D01*
X90083788Y-65200000D01*
X90083789Y-65200000D01*
X90093927Y-65202016D01*
G37*
G36*
X82023576Y-65190657D02*
G01*
X82068995Y-65221005D01*
X82099343Y-65266424D01*
X82110000Y-65320000D01*
X82110000Y-65600000D01*
X82099343Y-65653576D01*
X82068995Y-65698995D01*
X82023576Y-65729343D01*
X81970000Y-65740000D01*
X81630000Y-65740000D01*
X81576424Y-65729343D01*
X81531005Y-65698995D01*
X81500657Y-65653576D01*
X81490000Y-65600000D01*
X81490000Y-65320000D01*
X81500657Y-65266424D01*
X81531005Y-65221005D01*
X81576424Y-65190657D01*
X81630000Y-65180000D01*
X81970000Y-65180000D01*
X82023576Y-65190657D01*
G37*
G36*
X84523576Y-65190657D02*
G01*
X84568995Y-65221005D01*
X84599343Y-65266424D01*
X84610000Y-65320000D01*
X84610000Y-65600000D01*
X84599343Y-65653576D01*
X84568995Y-65698995D01*
X84523576Y-65729343D01*
X84470000Y-65740000D01*
X84130000Y-65740000D01*
X84076424Y-65729343D01*
X84031005Y-65698995D01*
X84000657Y-65653576D01*
X83990000Y-65600000D01*
X83990000Y-65320000D01*
X84000657Y-65266424D01*
X84031005Y-65221005D01*
X84076424Y-65190657D01*
X84130000Y-65180000D01*
X84470000Y-65180000D01*
X84523576Y-65190657D01*
G37*
G36*
X85623576Y-65190657D02*
G01*
X85668995Y-65221005D01*
X85699343Y-65266424D01*
X85710000Y-65320000D01*
X85710000Y-65600000D01*
X85699343Y-65653576D01*
X85668995Y-65698995D01*
X85623576Y-65729343D01*
X85570000Y-65740000D01*
X85230000Y-65740000D01*
X85176424Y-65729343D01*
X85131005Y-65698995D01*
X85100657Y-65653576D01*
X85090000Y-65600000D01*
X85090000Y-65320000D01*
X85100657Y-65266424D01*
X85131005Y-65221005D01*
X85176424Y-65190657D01*
X85230000Y-65180000D01*
X85570000Y-65180000D01*
X85623576Y-65190657D01*
G37*
G36*
X88323576Y-65190657D02*
G01*
X88368995Y-65221005D01*
X88399343Y-65266424D01*
X88410000Y-65320000D01*
X88410000Y-65600000D01*
X88399343Y-65653576D01*
X88368995Y-65698995D01*
X88323576Y-65729343D01*
X88270000Y-65740000D01*
X87930000Y-65740000D01*
X87876424Y-65729343D01*
X87831005Y-65698995D01*
X87800657Y-65653576D01*
X87790000Y-65600000D01*
X87790000Y-65320000D01*
X87800657Y-65266424D01*
X87831005Y-65221005D01*
X87876424Y-65190657D01*
X87930000Y-65180000D01*
X88270000Y-65180000D01*
X88323576Y-65190657D01*
G37*
G36*
X92293927Y-65182016D02*
G01*
X92324623Y-65188122D01*
X92324624Y-65188122D01*
X92324625Y-65188123D01*
X92370935Y-65219065D01*
X92401877Y-65265375D01*
X92402161Y-65266805D01*
X92409427Y-65303338D01*
X92409999Y-65306212D01*
X92410000Y-65613789D01*
X92401877Y-65654625D01*
X92370935Y-65700935D01*
X92324625Y-65731877D01*
X92297400Y-65737291D01*
X92283789Y-65739999D01*
X92283788Y-65739999D01*
X91916211Y-65740000D01*
X91875375Y-65731877D01*
X91829065Y-65700935D01*
X91798123Y-65654625D01*
X91798122Y-65654624D01*
X91798122Y-65654623D01*
X91790000Y-65613789D01*
X91790000Y-65306211D01*
X91798122Y-65265376D01*
X91809844Y-65247833D01*
X91829065Y-65219065D01*
X91875375Y-65188123D01*
X91875374Y-65188123D01*
X91875376Y-65188122D01*
X91916210Y-65180000D01*
X92283788Y-65180000D01*
X92283789Y-65180000D01*
X92293927Y-65182016D01*
G37*
G36*
X119336662Y-64920276D02*
G01*
X119380459Y-64949541D01*
X119409724Y-64993338D01*
X119420000Y-65045000D01*
X119420000Y-65315000D01*
X119409724Y-65366662D01*
X119380459Y-65410459D01*
X119336662Y-65439724D01*
X119285000Y-65450000D01*
X118915000Y-65450000D01*
X118863338Y-65439724D01*
X118819541Y-65410459D01*
X118790276Y-65366662D01*
X118780000Y-65315000D01*
X118780000Y-65045000D01*
X118790276Y-64993338D01*
X118819541Y-64949541D01*
X118863338Y-64920276D01*
X118915000Y-64910000D01*
X119285000Y-64910000D01*
X119336662Y-64920276D01*
G37*
G36*
X90093927Y-64242016D02*
G01*
X90124623Y-64248122D01*
X90124624Y-64248122D01*
X90124625Y-64248123D01*
X90170935Y-64279065D01*
X90201877Y-64325375D01*
X90209999Y-64366212D01*
X90210000Y-64673789D01*
X90201877Y-64714625D01*
X90170935Y-64760935D01*
X90124625Y-64791877D01*
X90097400Y-64797291D01*
X90083789Y-64799999D01*
X90083788Y-64799999D01*
X89716211Y-64800000D01*
X89675375Y-64791877D01*
X89629065Y-64760935D01*
X89598123Y-64714625D01*
X89598122Y-64714624D01*
X89598122Y-64714623D01*
X89590000Y-64673789D01*
X89590000Y-64366211D01*
X89598122Y-64325376D01*
X89610531Y-64306805D01*
X89629065Y-64279065D01*
X89675375Y-64248123D01*
X89675374Y-64248123D01*
X89675376Y-64248122D01*
X89716210Y-64240000D01*
X90083788Y-64240000D01*
X90083789Y-64240000D01*
X90093927Y-64242016D01*
G37*
G36*
X82023576Y-64230657D02*
G01*
X82068995Y-64261005D01*
X82099343Y-64306424D01*
X82110000Y-64360000D01*
X82110000Y-64640000D01*
X82099343Y-64693576D01*
X82068995Y-64738995D01*
X82023576Y-64769343D01*
X81970000Y-64780000D01*
X81630000Y-64780000D01*
X81576424Y-64769343D01*
X81531005Y-64738995D01*
X81500657Y-64693576D01*
X81490000Y-64640000D01*
X81490000Y-64360000D01*
X81500657Y-64306424D01*
X81531005Y-64261005D01*
X81576424Y-64230657D01*
X81630000Y-64220000D01*
X81970000Y-64220000D01*
X82023576Y-64230657D01*
G37*
G36*
X84523576Y-64230657D02*
G01*
X84568995Y-64261005D01*
X84599343Y-64306424D01*
X84610000Y-64360000D01*
X84610000Y-64640000D01*
X84599343Y-64693576D01*
X84568995Y-64738995D01*
X84523576Y-64769343D01*
X84470000Y-64780000D01*
X84130000Y-64780000D01*
X84076424Y-64769343D01*
X84031005Y-64738995D01*
X84000657Y-64693576D01*
X83990000Y-64640000D01*
X83990000Y-64360000D01*
X84000657Y-64306424D01*
X84031005Y-64261005D01*
X84076424Y-64230657D01*
X84130000Y-64220000D01*
X84470000Y-64220000D01*
X84523576Y-64230657D01*
G37*
G36*
X85623576Y-64230657D02*
G01*
X85668995Y-64261005D01*
X85699343Y-64306424D01*
X85710000Y-64360000D01*
X85710000Y-64640000D01*
X85699343Y-64693576D01*
X85668995Y-64738995D01*
X85623576Y-64769343D01*
X85570000Y-64780000D01*
X85230000Y-64780000D01*
X85176424Y-64769343D01*
X85131005Y-64738995D01*
X85100657Y-64693576D01*
X85090000Y-64640000D01*
X85090000Y-64360000D01*
X85100657Y-64306424D01*
X85131005Y-64261005D01*
X85176424Y-64230657D01*
X85230000Y-64220000D01*
X85570000Y-64220000D01*
X85623576Y-64230657D01*
G37*
G36*
X88323576Y-64230657D02*
G01*
X88368995Y-64261005D01*
X88399343Y-64306424D01*
X88410000Y-64360000D01*
X88410000Y-64640000D01*
X88399343Y-64693576D01*
X88368995Y-64738995D01*
X88323576Y-64769343D01*
X88270000Y-64780000D01*
X87930000Y-64780000D01*
X87876424Y-64769343D01*
X87831005Y-64738995D01*
X87800657Y-64693576D01*
X87790000Y-64640000D01*
X87790000Y-64360000D01*
X87800657Y-64306424D01*
X87831005Y-64261005D01*
X87876424Y-64230657D01*
X87930000Y-64220000D01*
X88270000Y-64220000D01*
X88323576Y-64230657D01*
G37*
G36*
X92293927Y-64222016D02*
G01*
X92324623Y-64228122D01*
X92324624Y-64228122D01*
X92324625Y-64228123D01*
X92370935Y-64259065D01*
X92401877Y-64305375D01*
X92402161Y-64306805D01*
X92409102Y-64341704D01*
X92409999Y-64346212D01*
X92410000Y-64653789D01*
X92401877Y-64694625D01*
X92370935Y-64740935D01*
X92324625Y-64771877D01*
X92297400Y-64777291D01*
X92283789Y-64779999D01*
X92283788Y-64779999D01*
X91916211Y-64780000D01*
X91875375Y-64771877D01*
X91829065Y-64740935D01*
X91798123Y-64694625D01*
X91798122Y-64694624D01*
X91798122Y-64694623D01*
X91790000Y-64653789D01*
X91790000Y-64346211D01*
X91798122Y-64305376D01*
X91803256Y-64297692D01*
X91829065Y-64259065D01*
X91875375Y-64228123D01*
X91875374Y-64228123D01*
X91875376Y-64228122D01*
X91916210Y-64220000D01*
X92283788Y-64220000D01*
X92283789Y-64220000D01*
X92293927Y-64222016D01*
G37*
G36*
X91204829Y-64221299D02*
G01*
X91237674Y-64227832D01*
X91264443Y-64245718D01*
X91282330Y-64257670D01*
X91296625Y-64279065D01*
X91312167Y-64302325D01*
X91316751Y-64325376D01*
X91319999Y-64341704D01*
X91320000Y-64638297D01*
X91312167Y-64677674D01*
X91282330Y-64722330D01*
X91237674Y-64752166D01*
X91237674Y-64752167D01*
X91198297Y-64759999D01*
X91198296Y-64759999D01*
X90801703Y-64760000D01*
X90768858Y-64753466D01*
X90762325Y-64752167D01*
X90741557Y-64738290D01*
X90717670Y-64722330D01*
X90702586Y-64699755D01*
X90687832Y-64677674D01*
X90680000Y-64638297D01*
X90680000Y-64341703D01*
X90687832Y-64302325D01*
X90717670Y-64257670D01*
X90762325Y-64227832D01*
X90801702Y-64220000D01*
X91198296Y-64220000D01*
X91198297Y-64220000D01*
X91204829Y-64221299D01*
G37*
G36*
X93404829Y-64221299D02*
G01*
X93437674Y-64227832D01*
X93464443Y-64245718D01*
X93482330Y-64257670D01*
X93496625Y-64279065D01*
X93512167Y-64302325D01*
X93516751Y-64325376D01*
X93519999Y-64341704D01*
X93520000Y-64638297D01*
X93512167Y-64677674D01*
X93482330Y-64722330D01*
X93437674Y-64752166D01*
X93437674Y-64752167D01*
X93398297Y-64759999D01*
X93398296Y-64759999D01*
X93001703Y-64760000D01*
X92968858Y-64753466D01*
X92962325Y-64752167D01*
X92941557Y-64738290D01*
X92917670Y-64722330D01*
X92902586Y-64699755D01*
X92887832Y-64677674D01*
X92880000Y-64638297D01*
X92880000Y-64341703D01*
X92887832Y-64302325D01*
X92917670Y-64257670D01*
X92962325Y-64227832D01*
X93001702Y-64220000D01*
X93398296Y-64220000D01*
X93398297Y-64220000D01*
X93404829Y-64221299D01*
G37*
G36*
X86749162Y-64210276D02*
G01*
X86792959Y-64239541D01*
X86822224Y-64283338D01*
X86832500Y-64335000D01*
X86832500Y-64605000D01*
X86822224Y-64656662D01*
X86792959Y-64700459D01*
X86749162Y-64729724D01*
X86697500Y-64740000D01*
X86327500Y-64740000D01*
X86275838Y-64729724D01*
X86232041Y-64700459D01*
X86202776Y-64656662D01*
X86192500Y-64605000D01*
X86192500Y-64335000D01*
X86202776Y-64283338D01*
X86232041Y-64239541D01*
X86275838Y-64210276D01*
X86327500Y-64200000D01*
X86697500Y-64200000D01*
X86749162Y-64210276D01*
G37*
G36*
X94754829Y-63681299D02*
G01*
X94787674Y-63687832D01*
X94814443Y-63705718D01*
X94832330Y-63717670D01*
X94850215Y-63744439D01*
X94862167Y-63762325D01*
X94869529Y-63799343D01*
X94869999Y-63801704D01*
X94870000Y-64198297D01*
X94862167Y-64237674D01*
X94832330Y-64282330D01*
X94796269Y-64306424D01*
X94787674Y-64312167D01*
X94748297Y-64319999D01*
X94748296Y-64319999D01*
X94451703Y-64320000D01*
X94418858Y-64313466D01*
X94412325Y-64312167D01*
X94394439Y-64300215D01*
X94367670Y-64282330D01*
X94351193Y-64257670D01*
X94337832Y-64237674D01*
X94330000Y-64198297D01*
X94330000Y-63801703D01*
X94337832Y-63762325D01*
X94367670Y-63717670D01*
X94412325Y-63687832D01*
X94451702Y-63680000D01*
X94748296Y-63680000D01*
X94748297Y-63680000D01*
X94754829Y-63681299D01*
G37*
G36*
X95774829Y-63681299D02*
G01*
X95807674Y-63687832D01*
X95834443Y-63705718D01*
X95852330Y-63717670D01*
X95870215Y-63744439D01*
X95882167Y-63762325D01*
X95889529Y-63799343D01*
X95889999Y-63801704D01*
X95890000Y-64198297D01*
X95882167Y-64237674D01*
X95852330Y-64282330D01*
X95816269Y-64306424D01*
X95807674Y-64312167D01*
X95768297Y-64319999D01*
X95768296Y-64319999D01*
X95471703Y-64320000D01*
X95438858Y-64313466D01*
X95432325Y-64312167D01*
X95414439Y-64300215D01*
X95387670Y-64282330D01*
X95371193Y-64257670D01*
X95357832Y-64237674D01*
X95350000Y-64198297D01*
X95350000Y-63801703D01*
X95357832Y-63762325D01*
X95387670Y-63717670D01*
X95432325Y-63687832D01*
X95471702Y-63680000D01*
X95768296Y-63680000D01*
X95768297Y-63680000D01*
X95774829Y-63681299D01*
G37*
G36*
X70513576Y-63200657D02*
G01*
X70558995Y-63231005D01*
X70589343Y-63276424D01*
X70600000Y-63330000D01*
X70600000Y-63670000D01*
X70589343Y-63723576D01*
X70558995Y-63768995D01*
X70513576Y-63799343D01*
X70460000Y-63810000D01*
X70180000Y-63810000D01*
X70126424Y-63799343D01*
X70081005Y-63768995D01*
X70050657Y-63723576D01*
X70040000Y-63670000D01*
X70040000Y-63330000D01*
X70050657Y-63276424D01*
X70081005Y-63231005D01*
X70126424Y-63200657D01*
X70180000Y-63190000D01*
X70460000Y-63190000D01*
X70513576Y-63200657D01*
G37*
G36*
X71473576Y-63200657D02*
G01*
X71518995Y-63231005D01*
X71549343Y-63276424D01*
X71560000Y-63330000D01*
X71560000Y-63670000D01*
X71549343Y-63723576D01*
X71518995Y-63768995D01*
X71473576Y-63799343D01*
X71420000Y-63810000D01*
X71140000Y-63810000D01*
X71086424Y-63799343D01*
X71041005Y-63768995D01*
X71010657Y-63723576D01*
X71000000Y-63670000D01*
X71000000Y-63330000D01*
X71010657Y-63276424D01*
X71041005Y-63231005D01*
X71086424Y-63200657D01*
X71140000Y-63190000D01*
X71420000Y-63190000D01*
X71473576Y-63200657D01*
G37*
G36*
X119336662Y-63250276D02*
G01*
X119380459Y-63279541D01*
X119409724Y-63323338D01*
X119420000Y-63375000D01*
X119420000Y-63645000D01*
X119409724Y-63696662D01*
X119380459Y-63740459D01*
X119336662Y-63769724D01*
X119285000Y-63780000D01*
X118915000Y-63780000D01*
X118863338Y-63769724D01*
X118819541Y-63740459D01*
X118790276Y-63696662D01*
X118780000Y-63645000D01*
X118780000Y-63375000D01*
X118790276Y-63323338D01*
X118819541Y-63279541D01*
X118863338Y-63250276D01*
X118915000Y-63240000D01*
X119285000Y-63240000D01*
X119336662Y-63250276D01*
G37*
G36*
X82537500Y-63400000D02*
G01*
X82337500Y-63400000D01*
X82337500Y-62600000D01*
X82537500Y-62600000D01*
X82537500Y-63400000D01*
G37*
G36*
X82937500Y-63400000D02*
G01*
X82737500Y-63400000D01*
X82737500Y-62600000D01*
X82937500Y-62600000D01*
X82937500Y-63400000D01*
G37*
G36*
X83337500Y-63400000D02*
G01*
X83137500Y-63400000D01*
X83137500Y-62600000D01*
X83337500Y-62600000D01*
X83337500Y-63400000D01*
G37*
G36*
X83737500Y-63400000D02*
G01*
X83537500Y-63400000D01*
X83537500Y-62600000D01*
X83737500Y-62600000D01*
X83737500Y-63400000D01*
G37*
G36*
X84137500Y-63400000D02*
G01*
X83937500Y-63400000D01*
X83937500Y-62600000D01*
X84137500Y-62600000D01*
X84137500Y-63400000D01*
G37*
G36*
X84537500Y-63400000D02*
G01*
X84337500Y-63400000D01*
X84337500Y-62600000D01*
X84537500Y-62600000D01*
X84537500Y-63400000D01*
G37*
G36*
X84937500Y-63400000D02*
G01*
X84737500Y-63400000D01*
X84737500Y-62600000D01*
X84937500Y-62600000D01*
X84937500Y-63400000D01*
G37*
G36*
X85337500Y-63400000D02*
G01*
X85137500Y-63400000D01*
X85137500Y-62600000D01*
X85337500Y-62600000D01*
X85337500Y-63400000D01*
G37*
G36*
X85737500Y-63400000D02*
G01*
X85537500Y-63400000D01*
X85537500Y-62600000D01*
X85737500Y-62600000D01*
X85737500Y-63400000D01*
G37*
G36*
X86137500Y-63400000D02*
G01*
X85937500Y-63400000D01*
X85937500Y-62600000D01*
X86137500Y-62600000D01*
X86137500Y-63400000D01*
G37*
G36*
X86537500Y-63400000D02*
G01*
X86337500Y-63400000D01*
X86337500Y-62600000D01*
X86537500Y-62600000D01*
X86537500Y-63400000D01*
G37*
G36*
X86937500Y-63400000D02*
G01*
X86737500Y-63400000D01*
X86737500Y-62600000D01*
X86937500Y-62600000D01*
X86937500Y-63400000D01*
G37*
G36*
X87337500Y-63400000D02*
G01*
X87137500Y-63400000D01*
X87137500Y-62600000D01*
X87337500Y-62600000D01*
X87337500Y-63400000D01*
G37*
G36*
X87737500Y-63400000D02*
G01*
X87537500Y-63400000D01*
X87537500Y-62600000D01*
X87737500Y-62600000D01*
X87737500Y-63400000D01*
G37*
G36*
X88137500Y-63400000D02*
G01*
X87937500Y-63400000D01*
X87937500Y-62600000D01*
X88137500Y-62600000D01*
X88137500Y-63400000D01*
G37*
G36*
X88537500Y-63400000D02*
G01*
X88337500Y-63400000D01*
X88337500Y-62600000D01*
X88537500Y-62600000D01*
X88537500Y-63400000D01*
G37*
G36*
X88937500Y-63400000D02*
G01*
X88737500Y-63400000D01*
X88737500Y-62600000D01*
X88937500Y-62600000D01*
X88937500Y-63400000D01*
G37*
G36*
X89337500Y-63400000D02*
G01*
X89137500Y-63400000D01*
X89137500Y-62600000D01*
X89337500Y-62600000D01*
X89337500Y-63400000D01*
G37*
G36*
X89737500Y-63400000D02*
G01*
X89537500Y-63400000D01*
X89537500Y-62600000D01*
X89737500Y-62600000D01*
X89737500Y-63400000D01*
G37*
G36*
X90137500Y-63400000D02*
G01*
X89937500Y-63400000D01*
X89937500Y-62600000D01*
X90137500Y-62600000D01*
X90137500Y-63400000D01*
G37*
G36*
X90537500Y-63400000D02*
G01*
X90337500Y-63400000D01*
X90337500Y-62600000D01*
X90537500Y-62600000D01*
X90537500Y-63400000D01*
G37*
G36*
X90937500Y-63400000D02*
G01*
X90737500Y-63400000D01*
X90737500Y-62600000D01*
X90937500Y-62600000D01*
X90937500Y-63400000D01*
G37*
G36*
X94783927Y-62492016D02*
G01*
X94814623Y-62498122D01*
X94814624Y-62498122D01*
X94814625Y-62498123D01*
X94860935Y-62529065D01*
X94891877Y-62575375D01*
X94899999Y-62616212D01*
X94900000Y-62983789D01*
X94891877Y-63024625D01*
X94860935Y-63070935D01*
X94814625Y-63101877D01*
X94787400Y-63107291D01*
X94773789Y-63109999D01*
X94773788Y-63109999D01*
X94466211Y-63110000D01*
X94425375Y-63101877D01*
X94379065Y-63070935D01*
X94348123Y-63024625D01*
X94348122Y-63024624D01*
X94348122Y-63024623D01*
X94340000Y-62983789D01*
X94340000Y-62616211D01*
X94348122Y-62575376D01*
X94353256Y-62567692D01*
X94379065Y-62529065D01*
X94425375Y-62498123D01*
X94425374Y-62498123D01*
X94425376Y-62498122D01*
X94466210Y-62490000D01*
X94773788Y-62490000D01*
X94773789Y-62490000D01*
X94783927Y-62492016D01*
G37*
G36*
X95743927Y-62492016D02*
G01*
X95774623Y-62498122D01*
X95774624Y-62498122D01*
X95774625Y-62498123D01*
X95820935Y-62529065D01*
X95851877Y-62575375D01*
X95859999Y-62616212D01*
X95860000Y-62983789D01*
X95851877Y-63024625D01*
X95820935Y-63070935D01*
X95774625Y-63101877D01*
X95747400Y-63107291D01*
X95733789Y-63109999D01*
X95733788Y-63109999D01*
X95426211Y-63110000D01*
X95385375Y-63101877D01*
X95339065Y-63070935D01*
X95308123Y-63024625D01*
X95308122Y-63024624D01*
X95308122Y-63024623D01*
X95300000Y-62983789D01*
X95300000Y-62616211D01*
X95308122Y-62575376D01*
X95313256Y-62567692D01*
X95339065Y-62529065D01*
X95385375Y-62498123D01*
X95385374Y-62498123D01*
X95385376Y-62498122D01*
X95426210Y-62490000D01*
X95733788Y-62490000D01*
X95733789Y-62490000D01*
X95743927Y-62492016D01*
G37*
G36*
X119336662Y-62230276D02*
G01*
X119380459Y-62259541D01*
X119409724Y-62303338D01*
X119420000Y-62355000D01*
X119420000Y-62625000D01*
X119409724Y-62676662D01*
X119380459Y-62720459D01*
X119336662Y-62749724D01*
X119285000Y-62760000D01*
X118915000Y-62760000D01*
X118863338Y-62749724D01*
X118819541Y-62720459D01*
X118790276Y-62676662D01*
X118780000Y-62625000D01*
X118780000Y-62355000D01*
X118790276Y-62303338D01*
X118819541Y-62259541D01*
X118863338Y-62230276D01*
X118915000Y-62220000D01*
X119285000Y-62220000D01*
X119336662Y-62230276D01*
G37*
G36*
X108896305Y-60365089D02*
G01*
X108951157Y-60365089D01*
X108967814Y-60369979D01*
X108981631Y-60370925D01*
X109032001Y-60388826D01*
X109087708Y-60405184D01*
X109099689Y-60412883D01*
X109109813Y-60416482D01*
X109155824Y-60448959D01*
X109207430Y-60482125D01*
X109214707Y-60490523D01*
X109220950Y-60494930D01*
X109258192Y-60540707D01*
X109300627Y-60589680D01*
X109303945Y-60596947D01*
X109306801Y-60600457D01*
X109331182Y-60656588D01*
X109359746Y-60719134D01*
X109360436Y-60723936D01*
X109360998Y-60725229D01*
X109369153Y-60784560D01*
X109380000Y-60860000D01*
X109380000Y-61960000D01*
X109379772Y-61961580D01*
X109375344Y-62026327D01*
X109365318Y-62062106D01*
X109359746Y-62100866D01*
X109346065Y-62130823D01*
X109338168Y-62159008D01*
X109318192Y-62191856D01*
X109300627Y-62230320D01*
X109281095Y-62252861D01*
X109267485Y-62275242D01*
X109237166Y-62303557D01*
X109207430Y-62337875D01*
X109184955Y-62352318D01*
X109168065Y-62368093D01*
X109128553Y-62388566D01*
X109087708Y-62414816D01*
X109065058Y-62421466D01*
X109047277Y-62430680D01*
X109000756Y-62440347D01*
X108951157Y-62454911D01*
X108930674Y-62454911D01*
X108914091Y-62458357D01*
X108863708Y-62454911D01*
X108808843Y-62454911D01*
X108792181Y-62450018D01*
X108778368Y-62449074D01*
X108728009Y-62431176D01*
X108672292Y-62414816D01*
X108660308Y-62407114D01*
X108650186Y-62403517D01*
X108604180Y-62371043D01*
X108552570Y-62337875D01*
X108545291Y-62329475D01*
X108539049Y-62325069D01*
X108501804Y-62279288D01*
X108459373Y-62230320D01*
X108456054Y-62223052D01*
X108453198Y-62219542D01*
X108428805Y-62163386D01*
X108400254Y-62100866D01*
X108399563Y-62096065D01*
X108399001Y-62094770D01*
X108390837Y-62035371D01*
X108380000Y-61960000D01*
X108380000Y-60860000D01*
X108380227Y-60858420D01*
X108384655Y-60793672D01*
X108394682Y-60757884D01*
X108400254Y-60719134D01*
X108413931Y-60689183D01*
X108421831Y-60660991D01*
X108441812Y-60628132D01*
X108459373Y-60589680D01*
X108478899Y-60567145D01*
X108492514Y-60544757D01*
X108522842Y-60516432D01*
X108552570Y-60482125D01*
X108575037Y-60467685D01*
X108591934Y-60451906D01*
X108631458Y-60431425D01*
X108672292Y-60405184D01*
X108694935Y-60398535D01*
X108712722Y-60389319D01*
X108759257Y-60379648D01*
X108808843Y-60365089D01*
X108829321Y-60365089D01*
X108845908Y-60361642D01*
X108896305Y-60365089D01*
G37*
G36*
X117536305Y-60365089D02*
G01*
X117591157Y-60365089D01*
X117607814Y-60369979D01*
X117621631Y-60370925D01*
X117672001Y-60388826D01*
X117727708Y-60405184D01*
X117739689Y-60412883D01*
X117749813Y-60416482D01*
X117795824Y-60448959D01*
X117847430Y-60482125D01*
X117854707Y-60490523D01*
X117860950Y-60494930D01*
X117898192Y-60540707D01*
X117940627Y-60589680D01*
X117943945Y-60596947D01*
X117946801Y-60600457D01*
X117971182Y-60656588D01*
X117999746Y-60719134D01*
X118000436Y-60723936D01*
X118000998Y-60725229D01*
X118009153Y-60784560D01*
X118020000Y-60860000D01*
X118020000Y-61960000D01*
X118019772Y-61961580D01*
X118015344Y-62026327D01*
X118005318Y-62062106D01*
X117999746Y-62100866D01*
X117986065Y-62130823D01*
X117978168Y-62159008D01*
X117958192Y-62191856D01*
X117940627Y-62230320D01*
X117921095Y-62252861D01*
X117907485Y-62275242D01*
X117877166Y-62303557D01*
X117847430Y-62337875D01*
X117824955Y-62352318D01*
X117808065Y-62368093D01*
X117768553Y-62388566D01*
X117727708Y-62414816D01*
X117705058Y-62421466D01*
X117687277Y-62430680D01*
X117640756Y-62440347D01*
X117591157Y-62454911D01*
X117570674Y-62454911D01*
X117554091Y-62458357D01*
X117503708Y-62454911D01*
X117448843Y-62454911D01*
X117432181Y-62450018D01*
X117418368Y-62449074D01*
X117368009Y-62431176D01*
X117312292Y-62414816D01*
X117300308Y-62407114D01*
X117290186Y-62403517D01*
X117244180Y-62371043D01*
X117192570Y-62337875D01*
X117185291Y-62329475D01*
X117179049Y-62325069D01*
X117141804Y-62279288D01*
X117099373Y-62230320D01*
X117096054Y-62223052D01*
X117093198Y-62219542D01*
X117068805Y-62163386D01*
X117040254Y-62100866D01*
X117039563Y-62096065D01*
X117039001Y-62094770D01*
X117030837Y-62035371D01*
X117020000Y-61960000D01*
X117020000Y-60860000D01*
X117020227Y-60858420D01*
X117024655Y-60793672D01*
X117034682Y-60757884D01*
X117040254Y-60719134D01*
X117053931Y-60689183D01*
X117061831Y-60660991D01*
X117081812Y-60628132D01*
X117099373Y-60589680D01*
X117118899Y-60567145D01*
X117132514Y-60544757D01*
X117162842Y-60516432D01*
X117192570Y-60482125D01*
X117215037Y-60467685D01*
X117231934Y-60451906D01*
X117271458Y-60431425D01*
X117312292Y-60405184D01*
X117334935Y-60398535D01*
X117352722Y-60389319D01*
X117399257Y-60379648D01*
X117448843Y-60365089D01*
X117469321Y-60365089D01*
X117485908Y-60361642D01*
X117536305Y-60365089D01*
G37*
G36*
X66602403Y-60811418D02*
G01*
X66651066Y-60843934D01*
X66683582Y-60892597D01*
X66695000Y-60950000D01*
X66695000Y-62250000D01*
X66683582Y-62307403D01*
X66651066Y-62356066D01*
X66602403Y-62388582D01*
X66545000Y-62400000D01*
X66245000Y-62400000D01*
X66187597Y-62388582D01*
X66138934Y-62356066D01*
X66106418Y-62307403D01*
X66095000Y-62250000D01*
X66095000Y-60950000D01*
X66106418Y-60892597D01*
X66138934Y-60843934D01*
X66187597Y-60811418D01*
X66245000Y-60800000D01*
X66545000Y-60800000D01*
X66602403Y-60811418D01*
G37*
G36*
X67872403Y-60811418D02*
G01*
X67921066Y-60843934D01*
X67953582Y-60892597D01*
X67965000Y-60950000D01*
X67965000Y-62250000D01*
X67953582Y-62307403D01*
X67921066Y-62356066D01*
X67872403Y-62388582D01*
X67815000Y-62400000D01*
X67515000Y-62400000D01*
X67457597Y-62388582D01*
X67408934Y-62356066D01*
X67376418Y-62307403D01*
X67365000Y-62250000D01*
X67365000Y-60950000D01*
X67376418Y-60892597D01*
X67408934Y-60843934D01*
X67457597Y-60811418D01*
X67515000Y-60800000D01*
X67815000Y-60800000D01*
X67872403Y-60811418D01*
G37*
G36*
X69142403Y-60811418D02*
G01*
X69191066Y-60843934D01*
X69223582Y-60892597D01*
X69235000Y-60950000D01*
X69235000Y-62250000D01*
X69223582Y-62307403D01*
X69191066Y-62356066D01*
X69142403Y-62388582D01*
X69085000Y-62400000D01*
X68785000Y-62400000D01*
X68727597Y-62388582D01*
X68678934Y-62356066D01*
X68646418Y-62307403D01*
X68635000Y-62250000D01*
X68635000Y-60950000D01*
X68646418Y-60892597D01*
X68678934Y-60843934D01*
X68727597Y-60811418D01*
X68785000Y-60800000D01*
X69085000Y-60800000D01*
X69142403Y-60811418D01*
G37*
G36*
X70412403Y-60811418D02*
G01*
X70461066Y-60843934D01*
X70493582Y-60892597D01*
X70505000Y-60950000D01*
X70505000Y-62250000D01*
X70493582Y-62307403D01*
X70461066Y-62356066D01*
X70412403Y-62388582D01*
X70355000Y-62400000D01*
X70055000Y-62400000D01*
X69997597Y-62388582D01*
X69948934Y-62356066D01*
X69916418Y-62307403D01*
X69905000Y-62250000D01*
X69905000Y-60950000D01*
X69916418Y-60892597D01*
X69948934Y-60843934D01*
X69997597Y-60811418D01*
X70055000Y-60800000D01*
X70355000Y-60800000D01*
X70412403Y-60811418D01*
G37*
G36*
X82037500Y-62300000D02*
G01*
X81237500Y-62300000D01*
X81237500Y-62100000D01*
X82037500Y-62100000D01*
X82037500Y-62300000D01*
G37*
G36*
X92037500Y-62300000D02*
G01*
X91237500Y-62300000D01*
X91237500Y-62100000D01*
X92037500Y-62100000D01*
X92037500Y-62300000D01*
G37*
G36*
X110337174Y-61609937D02*
G01*
X110366436Y-61609937D01*
X110388978Y-61618141D01*
X110410237Y-61621509D01*
X110440265Y-61636809D01*
X110472500Y-61648542D01*
X110486735Y-61660487D01*
X110500658Y-61667581D01*
X110529175Y-61696098D01*
X110558964Y-61721094D01*
X110565511Y-61732434D01*
X110572418Y-61739341D01*
X110594345Y-61782375D01*
X110615400Y-61818843D01*
X110616708Y-61826266D01*
X110618490Y-61829762D01*
X110628770Y-61894668D01*
X110635000Y-61930000D01*
X110628769Y-61965335D01*
X110618490Y-62030237D01*
X110616709Y-62033731D01*
X110615400Y-62041157D01*
X110594340Y-62077631D01*
X110572418Y-62120658D01*
X110565512Y-62127563D01*
X110558964Y-62138906D01*
X110529168Y-62163907D01*
X110500658Y-62192418D01*
X110486738Y-62199510D01*
X110472500Y-62211458D01*
X110440258Y-62223193D01*
X110410237Y-62238490D01*
X110388983Y-62241856D01*
X110366436Y-62250063D01*
X110337168Y-62250063D01*
X110310000Y-62254366D01*
X110282832Y-62250063D01*
X110253564Y-62250063D01*
X110231017Y-62241856D01*
X110209762Y-62238490D01*
X110179737Y-62223191D01*
X110147500Y-62211458D01*
X110133262Y-62199511D01*
X110119341Y-62192418D01*
X110090824Y-62163901D01*
X110061036Y-62138906D01*
X110054488Y-62127565D01*
X110047581Y-62120658D01*
X110025650Y-62077617D01*
X110004600Y-62041157D01*
X110003291Y-62033734D01*
X110001509Y-62030237D01*
X109991220Y-61965279D01*
X109985000Y-61930000D01*
X109991220Y-61894723D01*
X110001509Y-61829762D01*
X110003291Y-61826263D01*
X110004600Y-61818843D01*
X110025646Y-61782390D01*
X110047581Y-61739341D01*
X110054489Y-61732432D01*
X110061036Y-61721094D01*
X110090818Y-61696103D01*
X110119341Y-61667581D01*
X110133265Y-61660485D01*
X110147500Y-61648542D01*
X110179731Y-61636810D01*
X110209762Y-61621509D01*
X110231022Y-61618141D01*
X110253564Y-61609937D01*
X110282825Y-61609937D01*
X110310000Y-61605633D01*
X110337174Y-61609937D01*
G37*
G36*
X116117174Y-61609937D02*
G01*
X116146436Y-61609937D01*
X116168978Y-61618141D01*
X116190237Y-61621509D01*
X116220265Y-61636809D01*
X116252500Y-61648542D01*
X116266735Y-61660487D01*
X116280658Y-61667581D01*
X116309175Y-61696098D01*
X116338964Y-61721094D01*
X116345511Y-61732434D01*
X116352418Y-61739341D01*
X116374345Y-61782375D01*
X116395400Y-61818843D01*
X116396708Y-61826266D01*
X116398490Y-61829762D01*
X116408770Y-61894668D01*
X116415000Y-61930000D01*
X116408769Y-61965335D01*
X116398490Y-62030237D01*
X116396709Y-62033731D01*
X116395400Y-62041157D01*
X116374340Y-62077631D01*
X116352418Y-62120658D01*
X116345512Y-62127563D01*
X116338964Y-62138906D01*
X116309168Y-62163907D01*
X116280658Y-62192418D01*
X116266738Y-62199510D01*
X116252500Y-62211458D01*
X116220258Y-62223193D01*
X116190237Y-62238490D01*
X116168983Y-62241856D01*
X116146436Y-62250063D01*
X116117168Y-62250063D01*
X116090000Y-62254366D01*
X116062832Y-62250063D01*
X116033564Y-62250063D01*
X116011017Y-62241856D01*
X115989762Y-62238490D01*
X115959737Y-62223191D01*
X115927500Y-62211458D01*
X115913262Y-62199511D01*
X115899341Y-62192418D01*
X115870824Y-62163901D01*
X115841036Y-62138906D01*
X115834488Y-62127565D01*
X115827581Y-62120658D01*
X115805650Y-62077617D01*
X115784600Y-62041157D01*
X115783291Y-62033734D01*
X115781509Y-62030237D01*
X115771220Y-61965279D01*
X115765000Y-61930000D01*
X115771220Y-61894723D01*
X115781509Y-61829762D01*
X115783291Y-61826263D01*
X115784600Y-61818843D01*
X115805646Y-61782390D01*
X115827581Y-61739341D01*
X115834489Y-61732432D01*
X115841036Y-61721094D01*
X115870818Y-61696103D01*
X115899341Y-61667581D01*
X115913265Y-61660485D01*
X115927500Y-61648542D01*
X115959731Y-61636810D01*
X115989762Y-61621509D01*
X116011022Y-61618141D01*
X116033564Y-61609937D01*
X116062825Y-61609937D01*
X116090000Y-61605633D01*
X116117174Y-61609937D01*
G37*
G36*
X82037500Y-61900000D02*
G01*
X81237500Y-61900000D01*
X81237500Y-61700000D01*
X82037500Y-61700000D01*
X82037500Y-61900000D01*
G37*
G36*
X92037500Y-61900000D02*
G01*
X91237500Y-61900000D01*
X91237500Y-61700000D01*
X92037500Y-61700000D01*
X92037500Y-61900000D01*
G37*
G36*
X93823604Y-60842127D02*
G01*
X93896599Y-60890901D01*
X93945373Y-60963896D01*
X93962500Y-61050000D01*
X93962500Y-61550000D01*
X93945373Y-61636104D01*
X93896599Y-61709099D01*
X93823604Y-61757873D01*
X93737500Y-61775000D01*
X93287500Y-61775000D01*
X93201396Y-61757873D01*
X93128401Y-61709099D01*
X93079627Y-61636104D01*
X93062500Y-61550000D01*
X93062500Y-61050000D01*
X93079627Y-60963896D01*
X93128401Y-60890901D01*
X93201396Y-60842127D01*
X93287500Y-60825000D01*
X93737500Y-60825000D01*
X93823604Y-60842127D01*
G37*
G36*
X95373604Y-60842127D02*
G01*
X95446599Y-60890901D01*
X95495373Y-60963896D01*
X95512500Y-61050000D01*
X95512500Y-61550000D01*
X95495373Y-61636104D01*
X95446599Y-61709099D01*
X95373604Y-61757873D01*
X95287500Y-61775000D01*
X94837500Y-61775000D01*
X94751396Y-61757873D01*
X94678401Y-61709099D01*
X94629627Y-61636104D01*
X94612500Y-61550000D01*
X94612500Y-61050000D01*
X94629627Y-60963896D01*
X94678401Y-60890901D01*
X94751396Y-60842127D01*
X94837500Y-60825000D01*
X95287500Y-60825000D01*
X95373604Y-60842127D01*
G37*
G36*
X82037500Y-61500000D02*
G01*
X81237500Y-61500000D01*
X81237500Y-61300000D01*
X82037500Y-61300000D01*
X82037500Y-61500000D01*
G37*
G36*
X92037500Y-61500000D02*
G01*
X91237500Y-61500000D01*
X91237500Y-61300000D01*
X92037500Y-61300000D01*
X92037500Y-61500000D01*
G37*
G36*
X110300000Y-61430000D02*
G01*
X109700000Y-61430000D01*
X109700000Y-60190000D01*
X110300000Y-60190000D01*
X110300000Y-61430000D01*
G37*
G36*
X111100000Y-61430000D02*
G01*
X110500000Y-61430000D01*
X110500000Y-60190000D01*
X111100000Y-60190000D01*
X111100000Y-61430000D01*
G37*
G36*
X111600000Y-61430000D02*
G01*
X111300000Y-61430000D01*
X111300000Y-60190000D01*
X111600000Y-60190000D01*
X111600000Y-61430000D01*
G37*
G36*
X112100000Y-61430000D02*
G01*
X111800000Y-61430000D01*
X111800000Y-60190000D01*
X112100000Y-60190000D01*
X112100000Y-61430000D01*
G37*
G36*
X112600000Y-61430000D02*
G01*
X112300000Y-61430000D01*
X112300000Y-60190000D01*
X112600000Y-60190000D01*
X112600000Y-61430000D01*
G37*
G36*
X113100000Y-61430000D02*
G01*
X112800000Y-61430000D01*
X112800000Y-60190000D01*
X113100000Y-60190000D01*
X113100000Y-61430000D01*
G37*
G36*
X113600000Y-61430000D02*
G01*
X113300000Y-61430000D01*
X113300000Y-60190000D01*
X113600000Y-60190000D01*
X113600000Y-61430000D01*
G37*
G36*
X114100000Y-61430000D02*
G01*
X113800000Y-61430000D01*
X113800000Y-60190000D01*
X114100000Y-60190000D01*
X114100000Y-61430000D01*
G37*
G36*
X114600000Y-61430000D02*
G01*
X114300000Y-61430000D01*
X114300000Y-60190000D01*
X114600000Y-60190000D01*
X114600000Y-61430000D01*
G37*
G36*
X115100000Y-61430000D02*
G01*
X114800000Y-61430000D01*
X114800000Y-60190000D01*
X115100000Y-60190000D01*
X115100000Y-61430000D01*
G37*
G36*
X115900000Y-61430000D02*
G01*
X115300000Y-61430000D01*
X115300000Y-60190000D01*
X115900000Y-60190000D01*
X115900000Y-61430000D01*
G37*
G36*
X116700000Y-61430000D02*
G01*
X116100000Y-61430000D01*
X116100000Y-60190000D01*
X116700000Y-60190000D01*
X116700000Y-61430000D01*
G37*
G36*
X90012500Y-61375000D02*
G01*
X83262500Y-61375000D01*
X83262500Y-54625000D01*
X90012500Y-54625000D01*
X90012500Y-61375000D01*
G37*
G36*
X82037500Y-61100000D02*
G01*
X81237500Y-61100000D01*
X81237500Y-60900000D01*
X82037500Y-60900000D01*
X82037500Y-61100000D01*
G37*
G36*
X92037500Y-61100000D02*
G01*
X91237500Y-61100000D01*
X91237500Y-60900000D01*
X92037500Y-60900000D01*
X92037500Y-61100000D01*
G37*
G36*
X76226076Y-60300657D02*
G01*
X76271495Y-60331005D01*
X76301843Y-60376424D01*
X76312500Y-60430000D01*
X76312500Y-60770000D01*
X76301843Y-60823576D01*
X76271495Y-60868995D01*
X76226076Y-60899343D01*
X76172500Y-60910000D01*
X75892500Y-60910000D01*
X75838924Y-60899343D01*
X75793505Y-60868995D01*
X75763157Y-60823576D01*
X75752500Y-60770000D01*
X75752500Y-60430000D01*
X75763157Y-60376424D01*
X75793505Y-60331005D01*
X75838924Y-60300657D01*
X75892500Y-60290000D01*
X76172500Y-60290000D01*
X76226076Y-60300657D01*
G37*
G36*
X77186076Y-60300657D02*
G01*
X77231495Y-60331005D01*
X77261843Y-60376424D01*
X77272500Y-60430000D01*
X77272500Y-60770000D01*
X77261843Y-60823576D01*
X77231495Y-60868995D01*
X77186076Y-60899343D01*
X77132500Y-60910000D01*
X76852500Y-60910000D01*
X76798924Y-60899343D01*
X76753505Y-60868995D01*
X76723157Y-60823576D01*
X76712500Y-60770000D01*
X76712500Y-60430000D01*
X76723157Y-60376424D01*
X76753505Y-60331005D01*
X76798924Y-60300657D01*
X76852500Y-60290000D01*
X77132500Y-60290000D01*
X77186076Y-60300657D01*
G37*
G36*
X82037500Y-60700000D02*
G01*
X81237500Y-60700000D01*
X81237500Y-60500000D01*
X82037500Y-60500000D01*
X82037500Y-60700000D01*
G37*
G36*
X92037500Y-60700000D02*
G01*
X91237500Y-60700000D01*
X91237500Y-60500000D01*
X92037500Y-60500000D01*
X92037500Y-60700000D01*
G37*
G36*
X82037500Y-60300000D02*
G01*
X81237500Y-60300000D01*
X81237500Y-60100000D01*
X82037500Y-60100000D01*
X82037500Y-60300000D01*
G37*
G36*
X92037500Y-60300000D02*
G01*
X91237500Y-60300000D01*
X91237500Y-60100000D01*
X92037500Y-60100000D01*
X92037500Y-60300000D01*
G37*
G36*
X82037500Y-59900000D02*
G01*
X81237500Y-59900000D01*
X81237500Y-59700000D01*
X82037500Y-59700000D01*
X82037500Y-59900000D01*
G37*
G36*
X92037500Y-59900000D02*
G01*
X91237500Y-59900000D01*
X91237500Y-59700000D01*
X92037500Y-59700000D01*
X92037500Y-59900000D01*
G37*
G36*
X76262500Y-59550000D02*
G01*
X75062500Y-59550000D01*
X75062500Y-58150000D01*
X76262500Y-58150000D01*
X76262500Y-59550000D01*
G37*
G36*
X77962500Y-59550000D02*
G01*
X76762500Y-59550000D01*
X76762500Y-58150000D01*
X77962500Y-58150000D01*
X77962500Y-59550000D01*
G37*
G36*
X82037500Y-59500000D02*
G01*
X81237500Y-59500000D01*
X81237500Y-59300000D01*
X82037500Y-59300000D01*
X82037500Y-59500000D01*
G37*
G36*
X92037500Y-59500000D02*
G01*
X91237500Y-59500000D01*
X91237500Y-59300000D01*
X92037500Y-59300000D01*
X92037500Y-59500000D01*
G37*
G36*
X82037500Y-59100000D02*
G01*
X81237500Y-59100000D01*
X81237500Y-58900000D01*
X82037500Y-58900000D01*
X82037500Y-59100000D01*
G37*
G36*
X92037500Y-59100000D02*
G01*
X91237500Y-59100000D01*
X91237500Y-58900000D01*
X92037500Y-58900000D01*
X92037500Y-59100000D01*
G37*
G36*
X82037500Y-58700000D02*
G01*
X81237500Y-58700000D01*
X81237500Y-58500000D01*
X82037500Y-58500000D01*
X82037500Y-58700000D01*
G37*
G36*
X92037500Y-58700000D02*
G01*
X91237500Y-58700000D01*
X91237500Y-58500000D01*
X92037500Y-58500000D01*
X92037500Y-58700000D01*
G37*
G36*
X82037500Y-58300000D02*
G01*
X81237500Y-58300000D01*
X81237500Y-58100000D01*
X82037500Y-58100000D01*
X82037500Y-58300000D01*
G37*
G36*
X92037500Y-58300000D02*
G01*
X91237500Y-58300000D01*
X91237500Y-58100000D01*
X92037500Y-58100000D01*
X92037500Y-58300000D01*
G37*
G36*
X114636104Y-57342127D02*
G01*
X114709099Y-57390901D01*
X114757873Y-57463896D01*
X114775000Y-57550000D01*
X114775000Y-58000000D01*
X114757873Y-58086104D01*
X114709099Y-58159099D01*
X114636104Y-58207873D01*
X114550000Y-58225000D01*
X114050000Y-58225000D01*
X113963896Y-58207873D01*
X113890901Y-58159099D01*
X113842127Y-58086104D01*
X113825000Y-58000000D01*
X113825000Y-57550000D01*
X113842127Y-57463896D01*
X113890901Y-57390901D01*
X113963896Y-57342127D01*
X114050000Y-57325000D01*
X114550000Y-57325000D01*
X114636104Y-57342127D01*
G37*
G36*
X116217127Y-57807136D02*
G01*
X116247541Y-57827459D01*
X116267864Y-57857873D01*
X116275000Y-57893750D01*
X116275000Y-58081250D01*
X116267864Y-58117127D01*
X116247541Y-58147541D01*
X116217127Y-58167864D01*
X116181250Y-58175000D01*
X115968750Y-58175000D01*
X115932873Y-58167864D01*
X115902459Y-58147541D01*
X115882136Y-58117127D01*
X115875000Y-58081250D01*
X115875000Y-57893750D01*
X115882136Y-57857873D01*
X115902459Y-57827459D01*
X115932873Y-57807136D01*
X115968750Y-57800000D01*
X116181250Y-57800000D01*
X116217127Y-57807136D01*
G37*
G36*
X116867127Y-57807136D02*
G01*
X116897541Y-57827459D01*
X116917864Y-57857873D01*
X116925000Y-57893750D01*
X116925000Y-58081250D01*
X116917864Y-58117127D01*
X116897541Y-58147541D01*
X116867127Y-58167864D01*
X116831250Y-58175000D01*
X116618750Y-58175000D01*
X116582873Y-58167864D01*
X116552459Y-58147541D01*
X116532136Y-58117127D01*
X116525000Y-58081250D01*
X116525000Y-57893750D01*
X116532136Y-57857873D01*
X116552459Y-57827459D01*
X116582873Y-57807136D01*
X116618750Y-57800000D01*
X116831250Y-57800000D01*
X116867127Y-57807136D01*
G37*
G36*
X117517127Y-57807136D02*
G01*
X117547541Y-57827459D01*
X117567864Y-57857873D01*
X117575000Y-57893750D01*
X117575000Y-58081250D01*
X117567864Y-58117127D01*
X117547541Y-58147541D01*
X117517127Y-58167864D01*
X117481250Y-58175000D01*
X117268750Y-58175000D01*
X117232873Y-58167864D01*
X117202459Y-58147541D01*
X117182136Y-58117127D01*
X117175000Y-58081250D01*
X117175000Y-57893750D01*
X117182136Y-57857873D01*
X117202459Y-57827459D01*
X117232873Y-57807136D01*
X117268750Y-57800000D01*
X117481250Y-57800000D01*
X117517127Y-57807136D01*
G37*
G36*
X119436104Y-57242127D02*
G01*
X119509099Y-57290901D01*
X119557873Y-57363896D01*
X119575000Y-57450000D01*
X119575000Y-57900000D01*
X119557873Y-57986104D01*
X119509099Y-58059099D01*
X119436104Y-58107873D01*
X119350000Y-58125000D01*
X118850000Y-58125000D01*
X118763896Y-58107873D01*
X118690901Y-58059099D01*
X118642127Y-57986104D01*
X118625000Y-57900000D01*
X118625000Y-57450000D01*
X118642127Y-57363896D01*
X118690901Y-57290901D01*
X118763896Y-57242127D01*
X118850000Y-57225000D01*
X119350000Y-57225000D01*
X119436104Y-57242127D01*
G37*
G36*
X82037500Y-57900000D02*
G01*
X81237500Y-57900000D01*
X81237500Y-57700000D01*
X82037500Y-57700000D01*
X82037500Y-57900000D01*
G37*
G36*
X92037500Y-57900000D02*
G01*
X91237500Y-57900000D01*
X91237500Y-57700000D01*
X92037500Y-57700000D01*
X92037500Y-57900000D01*
G37*
G36*
X117525000Y-57600000D02*
G01*
X115925000Y-57600000D01*
X115925000Y-56600000D01*
X117525000Y-56600000D01*
X117525000Y-57600000D01*
G37*
G36*
X82037500Y-57500000D02*
G01*
X81237500Y-57500000D01*
X81237500Y-57300000D01*
X82037500Y-57300000D01*
X82037500Y-57500000D01*
G37*
G36*
X92037500Y-57500000D02*
G01*
X91237500Y-57500000D01*
X91237500Y-57300000D01*
X92037500Y-57300000D01*
X92037500Y-57500000D01*
G37*
G36*
X76262500Y-57350000D02*
G01*
X75062500Y-57350000D01*
X75062500Y-55950000D01*
X76262500Y-55950000D01*
X76262500Y-57350000D01*
G37*
G36*
X77962500Y-57350000D02*
G01*
X76762500Y-57350000D01*
X76762500Y-55950000D01*
X77962500Y-55950000D01*
X77962500Y-57350000D01*
G37*
G36*
X82037500Y-57100000D02*
G01*
X81237500Y-57100000D01*
X81237500Y-56900000D01*
X82037500Y-56900000D01*
X82037500Y-57100000D01*
G37*
G36*
X92037500Y-57100000D02*
G01*
X91237500Y-57100000D01*
X91237500Y-56900000D01*
X92037500Y-56900000D01*
X92037500Y-57100000D01*
G37*
G36*
X82037500Y-56700000D02*
G01*
X81237500Y-56700000D01*
X81237500Y-56500000D01*
X82037500Y-56500000D01*
X82037500Y-56700000D01*
G37*
G36*
X92037500Y-56700000D02*
G01*
X91237500Y-56700000D01*
X91237500Y-56500000D01*
X92037500Y-56500000D01*
X92037500Y-56700000D01*
G37*
G36*
X114636104Y-55792127D02*
G01*
X114709099Y-55840901D01*
X114757873Y-55913896D01*
X114775000Y-56000000D01*
X114775000Y-56450000D01*
X114757873Y-56536104D01*
X114709099Y-56609099D01*
X114636104Y-56657873D01*
X114550000Y-56675000D01*
X114050000Y-56675000D01*
X113963896Y-56657873D01*
X113890901Y-56609099D01*
X113842127Y-56536104D01*
X113825000Y-56450000D01*
X113825000Y-56000000D01*
X113842127Y-55913896D01*
X113890901Y-55840901D01*
X113963896Y-55792127D01*
X114050000Y-55775000D01*
X114550000Y-55775000D01*
X114636104Y-55792127D01*
G37*
G36*
X119436104Y-55692127D02*
G01*
X119509099Y-55740901D01*
X119557873Y-55813896D01*
X119575000Y-55900000D01*
X119575000Y-56350000D01*
X119557873Y-56436104D01*
X119509099Y-56509099D01*
X119436104Y-56557873D01*
X119350000Y-56575000D01*
X118850000Y-56575000D01*
X118763896Y-56557873D01*
X118690901Y-56509099D01*
X118642127Y-56436104D01*
X118625000Y-56350000D01*
X118625000Y-55900000D01*
X118642127Y-55813896D01*
X118690901Y-55740901D01*
X118763896Y-55692127D01*
X118850000Y-55675000D01*
X119350000Y-55675000D01*
X119436104Y-55692127D01*
G37*
G36*
X116217127Y-56032136D02*
G01*
X116247541Y-56052459D01*
X116267864Y-56082873D01*
X116275000Y-56118750D01*
X116275000Y-56306250D01*
X116267864Y-56342127D01*
X116247541Y-56372541D01*
X116217127Y-56392864D01*
X116181250Y-56400000D01*
X115968750Y-56400000D01*
X115932873Y-56392864D01*
X115902459Y-56372541D01*
X115882136Y-56342127D01*
X115875000Y-56306250D01*
X115875000Y-56118750D01*
X115882136Y-56082873D01*
X115902459Y-56052459D01*
X115932873Y-56032136D01*
X115968750Y-56025000D01*
X116181250Y-56025000D01*
X116217127Y-56032136D01*
G37*
G36*
X116867127Y-56032136D02*
G01*
X116897541Y-56052459D01*
X116917864Y-56082873D01*
X116925000Y-56118750D01*
X116925000Y-56306250D01*
X116917864Y-56342127D01*
X116897541Y-56372541D01*
X116867127Y-56392864D01*
X116831250Y-56400000D01*
X116618750Y-56400000D01*
X116582873Y-56392864D01*
X116552459Y-56372541D01*
X116532136Y-56342127D01*
X116525000Y-56306250D01*
X116525000Y-56118750D01*
X116532136Y-56082873D01*
X116552459Y-56052459D01*
X116582873Y-56032136D01*
X116618750Y-56025000D01*
X116831250Y-56025000D01*
X116867127Y-56032136D01*
G37*
G36*
X117517127Y-56032136D02*
G01*
X117547541Y-56052459D01*
X117567864Y-56082873D01*
X117575000Y-56118750D01*
X117575000Y-56306250D01*
X117567864Y-56342127D01*
X117547541Y-56372541D01*
X117517127Y-56392864D01*
X117481250Y-56400000D01*
X117268750Y-56400000D01*
X117232873Y-56392864D01*
X117202459Y-56372541D01*
X117182136Y-56342127D01*
X117175000Y-56306250D01*
X117175000Y-56118750D01*
X117182136Y-56082873D01*
X117202459Y-56052459D01*
X117232873Y-56032136D01*
X117268750Y-56025000D01*
X117481250Y-56025000D01*
X117517127Y-56032136D01*
G37*
G36*
X82037500Y-56300000D02*
G01*
X81237500Y-56300000D01*
X81237500Y-56100000D01*
X82037500Y-56100000D01*
X82037500Y-56300000D01*
G37*
G36*
X92037500Y-56300000D02*
G01*
X91237500Y-56300000D01*
X91237500Y-56100000D01*
X92037500Y-56100000D01*
X92037500Y-56300000D01*
G37*
G36*
X82037500Y-55900000D02*
G01*
X81237500Y-55900000D01*
X81237500Y-55700000D01*
X82037500Y-55700000D01*
X82037500Y-55900000D01*
G37*
G36*
X92037500Y-55900000D02*
G01*
X91237500Y-55900000D01*
X91237500Y-55700000D01*
X92037500Y-55700000D01*
X92037500Y-55900000D01*
G37*
G36*
X79396076Y-55200657D02*
G01*
X79441495Y-55231005D01*
X79471843Y-55276424D01*
X79482500Y-55330000D01*
X79482500Y-55670000D01*
X79471843Y-55723576D01*
X79441495Y-55768995D01*
X79396076Y-55799343D01*
X79342500Y-55810000D01*
X79062500Y-55810000D01*
X79008924Y-55799343D01*
X78963505Y-55768995D01*
X78933157Y-55723576D01*
X78922500Y-55670000D01*
X78922500Y-55330000D01*
X78933157Y-55276424D01*
X78963505Y-55231005D01*
X79008924Y-55200657D01*
X79062500Y-55190000D01*
X79342500Y-55190000D01*
X79396076Y-55200657D01*
G37*
G36*
X80356076Y-55200657D02*
G01*
X80401495Y-55231005D01*
X80431843Y-55276424D01*
X80442500Y-55330000D01*
X80442500Y-55670000D01*
X80431843Y-55723576D01*
X80401495Y-55768995D01*
X80356076Y-55799343D01*
X80302500Y-55810000D01*
X80022500Y-55810000D01*
X79968924Y-55799343D01*
X79923505Y-55768995D01*
X79893157Y-55723576D01*
X79882500Y-55670000D01*
X79882500Y-55330000D01*
X79893157Y-55276424D01*
X79923505Y-55231005D01*
X79968924Y-55200657D01*
X80022500Y-55190000D01*
X80302500Y-55190000D01*
X80356076Y-55200657D01*
G37*
G36*
X82037500Y-55500000D02*
G01*
X81237500Y-55500000D01*
X81237500Y-55300000D01*
X82037500Y-55300000D01*
X82037500Y-55500000D01*
G37*
G36*
X92037500Y-55500000D02*
G01*
X91237500Y-55500000D01*
X91237500Y-55300000D01*
X92037500Y-55300000D01*
X92037500Y-55500000D01*
G37*
G36*
X114776662Y-54640276D02*
G01*
X114820459Y-54669541D01*
X114849724Y-54713338D01*
X114860000Y-54765000D01*
X114860000Y-55135000D01*
X114849724Y-55186662D01*
X114820459Y-55230459D01*
X114776662Y-55259724D01*
X114725000Y-55270000D01*
X114455000Y-55270000D01*
X114403338Y-55259724D01*
X114359541Y-55230459D01*
X114330276Y-55186662D01*
X114320000Y-55135000D01*
X114320000Y-54765000D01*
X114330276Y-54713338D01*
X114359541Y-54669541D01*
X114403338Y-54640276D01*
X114455000Y-54630000D01*
X114725000Y-54630000D01*
X114776662Y-54640276D01*
G37*
G36*
X115796662Y-54640276D02*
G01*
X115840459Y-54669541D01*
X115869724Y-54713338D01*
X115880000Y-54765000D01*
X115880000Y-55135000D01*
X115869724Y-55186662D01*
X115840459Y-55230459D01*
X115796662Y-55259724D01*
X115745000Y-55270000D01*
X115475000Y-55270000D01*
X115423338Y-55259724D01*
X115379541Y-55230459D01*
X115350276Y-55186662D01*
X115340000Y-55135000D01*
X115340000Y-54765000D01*
X115350276Y-54713338D01*
X115379541Y-54669541D01*
X115423338Y-54640276D01*
X115475000Y-54630000D01*
X115745000Y-54630000D01*
X115796662Y-54640276D01*
G37*
G36*
X116976662Y-54640276D02*
G01*
X117020459Y-54669541D01*
X117049724Y-54713338D01*
X117060000Y-54765000D01*
X117060000Y-55135000D01*
X117049724Y-55186662D01*
X117020459Y-55230459D01*
X116976662Y-55259724D01*
X116925000Y-55270000D01*
X116655000Y-55270000D01*
X116603338Y-55259724D01*
X116559541Y-55230459D01*
X116530276Y-55186662D01*
X116520000Y-55135000D01*
X116520000Y-54765000D01*
X116530276Y-54713338D01*
X116559541Y-54669541D01*
X116603338Y-54640276D01*
X116655000Y-54630000D01*
X116925000Y-54630000D01*
X116976662Y-54640276D01*
G37*
G36*
X117996662Y-54640276D02*
G01*
X118040459Y-54669541D01*
X118069724Y-54713338D01*
X118080000Y-54765000D01*
X118080000Y-55135000D01*
X118069724Y-55186662D01*
X118040459Y-55230459D01*
X117996662Y-55259724D01*
X117945000Y-55270000D01*
X117675000Y-55270000D01*
X117623338Y-55259724D01*
X117579541Y-55230459D01*
X117550276Y-55186662D01*
X117540000Y-55135000D01*
X117540000Y-54765000D01*
X117550276Y-54713338D01*
X117579541Y-54669541D01*
X117623338Y-54640276D01*
X117675000Y-54630000D01*
X117945000Y-54630000D01*
X117996662Y-54640276D01*
G37*
G36*
X76226076Y-54600657D02*
G01*
X76271495Y-54631005D01*
X76301843Y-54676424D01*
X76312500Y-54730000D01*
X76312500Y-55070000D01*
X76301843Y-55123576D01*
X76271495Y-55168995D01*
X76226076Y-55199343D01*
X76172500Y-55210000D01*
X75892500Y-55210000D01*
X75838924Y-55199343D01*
X75793505Y-55168995D01*
X75763157Y-55123576D01*
X75752500Y-55070000D01*
X75752500Y-54730000D01*
X75763157Y-54676424D01*
X75793505Y-54631005D01*
X75838924Y-54600657D01*
X75892500Y-54590000D01*
X76172500Y-54590000D01*
X76226076Y-54600657D01*
G37*
G36*
X77186076Y-54600657D02*
G01*
X77231495Y-54631005D01*
X77261843Y-54676424D01*
X77272500Y-54730000D01*
X77272500Y-55070000D01*
X77261843Y-55123576D01*
X77231495Y-55168995D01*
X77186076Y-55199343D01*
X77132500Y-55210000D01*
X76852500Y-55210000D01*
X76798924Y-55199343D01*
X76753505Y-55168995D01*
X76723157Y-55123576D01*
X76712500Y-55070000D01*
X76712500Y-54730000D01*
X76723157Y-54676424D01*
X76753505Y-54631005D01*
X76798924Y-54600657D01*
X76852500Y-54590000D01*
X77132500Y-54590000D01*
X77186076Y-54600657D01*
G37*
G36*
X66602403Y-53611418D02*
G01*
X66651066Y-53643934D01*
X66683582Y-53692597D01*
X66695000Y-53750000D01*
X66695000Y-55050000D01*
X66683582Y-55107403D01*
X66651066Y-55156066D01*
X66602403Y-55188582D01*
X66545000Y-55200000D01*
X66245000Y-55200000D01*
X66187597Y-55188582D01*
X66138934Y-55156066D01*
X66106418Y-55107403D01*
X66095000Y-55050000D01*
X66095000Y-53750000D01*
X66106418Y-53692597D01*
X66138934Y-53643934D01*
X66187597Y-53611418D01*
X66245000Y-53600000D01*
X66545000Y-53600000D01*
X66602403Y-53611418D01*
G37*
G36*
X67872403Y-53611418D02*
G01*
X67921066Y-53643934D01*
X67953582Y-53692597D01*
X67965000Y-53750000D01*
X67965000Y-55050000D01*
X67953582Y-55107403D01*
X67921066Y-55156066D01*
X67872403Y-55188582D01*
X67815000Y-55200000D01*
X67515000Y-55200000D01*
X67457597Y-55188582D01*
X67408934Y-55156066D01*
X67376418Y-55107403D01*
X67365000Y-55050000D01*
X67365000Y-53750000D01*
X67376418Y-53692597D01*
X67408934Y-53643934D01*
X67457597Y-53611418D01*
X67515000Y-53600000D01*
X67815000Y-53600000D01*
X67872403Y-53611418D01*
G37*
G36*
X69142403Y-53611418D02*
G01*
X69191066Y-53643934D01*
X69223582Y-53692597D01*
X69235000Y-53750000D01*
X69235000Y-55050000D01*
X69223582Y-55107403D01*
X69191066Y-55156066D01*
X69142403Y-55188582D01*
X69085000Y-55200000D01*
X68785000Y-55200000D01*
X68727597Y-55188582D01*
X68678934Y-55156066D01*
X68646418Y-55107403D01*
X68635000Y-55050000D01*
X68635000Y-53750000D01*
X68646418Y-53692597D01*
X68678934Y-53643934D01*
X68727597Y-53611418D01*
X68785000Y-53600000D01*
X69085000Y-53600000D01*
X69142403Y-53611418D01*
G37*
G36*
X70412403Y-53611418D02*
G01*
X70461066Y-53643934D01*
X70493582Y-53692597D01*
X70505000Y-53750000D01*
X70505000Y-55050000D01*
X70493582Y-55107403D01*
X70461066Y-55156066D01*
X70412403Y-55188582D01*
X70355000Y-55200000D01*
X70055000Y-55200000D01*
X69997597Y-55188582D01*
X69948934Y-55156066D01*
X69916418Y-55107403D01*
X69905000Y-55050000D01*
X69905000Y-53750000D01*
X69916418Y-53692597D01*
X69948934Y-53643934D01*
X69997597Y-53611418D01*
X70055000Y-53600000D01*
X70355000Y-53600000D01*
X70412403Y-53611418D01*
G37*
G36*
X82037500Y-55100000D02*
G01*
X81237500Y-55100000D01*
X81237500Y-54900000D01*
X82037500Y-54900000D01*
X82037500Y-55100000D01*
G37*
G36*
X92037500Y-55100000D02*
G01*
X91237500Y-55100000D01*
X91237500Y-54900000D01*
X92037500Y-54900000D01*
X92037500Y-55100000D01*
G37*
G36*
X93476076Y-54300657D02*
G01*
X93521495Y-54331005D01*
X93551843Y-54376424D01*
X93562500Y-54430000D01*
X93562500Y-54770000D01*
X93551843Y-54823576D01*
X93521495Y-54868995D01*
X93476076Y-54899343D01*
X93422500Y-54910000D01*
X93142500Y-54910000D01*
X93088924Y-54899343D01*
X93043505Y-54868995D01*
X93013157Y-54823576D01*
X93002500Y-54770000D01*
X93002500Y-54430000D01*
X93013157Y-54376424D01*
X93043505Y-54331005D01*
X93088924Y-54300657D01*
X93142500Y-54290000D01*
X93422500Y-54290000D01*
X93476076Y-54300657D01*
G37*
G36*
X94436076Y-54300657D02*
G01*
X94481495Y-54331005D01*
X94511843Y-54376424D01*
X94522500Y-54430000D01*
X94522500Y-54770000D01*
X94511843Y-54823576D01*
X94481495Y-54868995D01*
X94436076Y-54899343D01*
X94382500Y-54910000D01*
X94102500Y-54910000D01*
X94048924Y-54899343D01*
X94003505Y-54868995D01*
X93973157Y-54823576D01*
X93962500Y-54770000D01*
X93962500Y-54430000D01*
X93973157Y-54376424D01*
X94003505Y-54331005D01*
X94048924Y-54300657D01*
X94102500Y-54290000D01*
X94382500Y-54290000D01*
X94436076Y-54300657D01*
G37*
G36*
X82037500Y-54700000D02*
G01*
X81237500Y-54700000D01*
X81237500Y-54500000D01*
X82037500Y-54500000D01*
X82037500Y-54700000D01*
G37*
G36*
X92037500Y-54700000D02*
G01*
X91237500Y-54700000D01*
X91237500Y-54500000D01*
X92037500Y-54500000D01*
X92037500Y-54700000D01*
G37*
G36*
X82037500Y-54300000D02*
G01*
X81237500Y-54300000D01*
X81237500Y-54100000D01*
X82037500Y-54100000D01*
X82037500Y-54300000D01*
G37*
G36*
X92037500Y-54300000D02*
G01*
X91237500Y-54300000D01*
X91237500Y-54100000D01*
X92037500Y-54100000D01*
X92037500Y-54300000D01*
G37*
G36*
X106436104Y-53354627D02*
G01*
X106509099Y-53403401D01*
X106557873Y-53476396D01*
X106575000Y-53562500D01*
X106575000Y-54012500D01*
X106557873Y-54098604D01*
X106509099Y-54171599D01*
X106436104Y-54220373D01*
X106350000Y-54237500D01*
X105850000Y-54237500D01*
X105763896Y-54220373D01*
X105690901Y-54171599D01*
X105642127Y-54098604D01*
X105625000Y-54012500D01*
X105625000Y-53562500D01*
X105642127Y-53476396D01*
X105690901Y-53403401D01*
X105763896Y-53354627D01*
X105850000Y-53337500D01*
X106350000Y-53337500D01*
X106436104Y-53354627D01*
G37*
G36*
X98436104Y-53329627D02*
G01*
X98509099Y-53378401D01*
X98557873Y-53451396D01*
X98575000Y-53537500D01*
X98575000Y-53987500D01*
X98557873Y-54073604D01*
X98509099Y-54146599D01*
X98436104Y-54195373D01*
X98350000Y-54212500D01*
X97850000Y-54212500D01*
X97763896Y-54195373D01*
X97690901Y-54146599D01*
X97642127Y-54073604D01*
X97625000Y-53987500D01*
X97625000Y-53537500D01*
X97642127Y-53451396D01*
X97690901Y-53378401D01*
X97763896Y-53329627D01*
X97850000Y-53312500D01*
X98350000Y-53312500D01*
X98436104Y-53329627D01*
G37*
G36*
X103136104Y-53329627D02*
G01*
X103209099Y-53378401D01*
X103257873Y-53451396D01*
X103275000Y-53537500D01*
X103275000Y-53987500D01*
X103257873Y-54073604D01*
X103209099Y-54146599D01*
X103136104Y-54195373D01*
X103050000Y-54212500D01*
X102550000Y-54212500D01*
X102463896Y-54195373D01*
X102390901Y-54146599D01*
X102342127Y-54073604D01*
X102325000Y-53987500D01*
X102325000Y-53537500D01*
X102342127Y-53451396D01*
X102390901Y-53378401D01*
X102463896Y-53329627D01*
X102550000Y-53312500D01*
X103050000Y-53312500D01*
X103136104Y-53329627D01*
G37*
G36*
X111036104Y-53329627D02*
G01*
X111109099Y-53378401D01*
X111157873Y-53451396D01*
X111175000Y-53537500D01*
X111175000Y-53987500D01*
X111157873Y-54073604D01*
X111109099Y-54146599D01*
X111036104Y-54195373D01*
X110950000Y-54212500D01*
X110450000Y-54212500D01*
X110363896Y-54195373D01*
X110290901Y-54146599D01*
X110242127Y-54073604D01*
X110225000Y-53987500D01*
X110225000Y-53537500D01*
X110242127Y-53451396D01*
X110290901Y-53378401D01*
X110363896Y-53329627D01*
X110450000Y-53312500D01*
X110950000Y-53312500D01*
X111036104Y-53329627D01*
G37*
G36*
X99942127Y-53694636D02*
G01*
X99972541Y-53714959D01*
X99992864Y-53745373D01*
X100000000Y-53781250D01*
X100000000Y-53968750D01*
X99992864Y-54004627D01*
X99972541Y-54035041D01*
X99942127Y-54055364D01*
X99906250Y-54062500D01*
X99693750Y-54062500D01*
X99657873Y-54055364D01*
X99627459Y-54035041D01*
X99607136Y-54004627D01*
X99600000Y-53968750D01*
X99600000Y-53781250D01*
X99607136Y-53745373D01*
X99627459Y-53714959D01*
X99657873Y-53694636D01*
X99693750Y-53687500D01*
X99906250Y-53687500D01*
X99942127Y-53694636D01*
G37*
G36*
X100592127Y-53694636D02*
G01*
X100622541Y-53714959D01*
X100642864Y-53745373D01*
X100650000Y-53781250D01*
X100650000Y-53968750D01*
X100642864Y-54004627D01*
X100622541Y-54035041D01*
X100592127Y-54055364D01*
X100556250Y-54062500D01*
X100343750Y-54062500D01*
X100307873Y-54055364D01*
X100277459Y-54035041D01*
X100257136Y-54004627D01*
X100250000Y-53968750D01*
X100250000Y-53781250D01*
X100257136Y-53745373D01*
X100277459Y-53714959D01*
X100307873Y-53694636D01*
X100343750Y-53687500D01*
X100556250Y-53687500D01*
X100592127Y-53694636D01*
G37*
G36*
X101242127Y-53694636D02*
G01*
X101272541Y-53714959D01*
X101292864Y-53745373D01*
X101300000Y-53781250D01*
X101300000Y-53968750D01*
X101292864Y-54004627D01*
X101272541Y-54035041D01*
X101242127Y-54055364D01*
X101206250Y-54062500D01*
X100993750Y-54062500D01*
X100957873Y-54055364D01*
X100927459Y-54035041D01*
X100907136Y-54004627D01*
X100900000Y-53968750D01*
X100900000Y-53781250D01*
X100907136Y-53745373D01*
X100927459Y-53714959D01*
X100957873Y-53694636D01*
X100993750Y-53687500D01*
X101206250Y-53687500D01*
X101242127Y-53694636D01*
G37*
G36*
X107892127Y-53694636D02*
G01*
X107922541Y-53714959D01*
X107942864Y-53745373D01*
X107950000Y-53781250D01*
X107950000Y-53968750D01*
X107942864Y-54004627D01*
X107922541Y-54035041D01*
X107892127Y-54055364D01*
X107856250Y-54062500D01*
X107643750Y-54062500D01*
X107607873Y-54055364D01*
X107577459Y-54035041D01*
X107557136Y-54004627D01*
X107550000Y-53968750D01*
X107550000Y-53781250D01*
X107557136Y-53745373D01*
X107577459Y-53714959D01*
X107607873Y-53694636D01*
X107643750Y-53687500D01*
X107856250Y-53687500D01*
X107892127Y-53694636D01*
G37*
G36*
X108542127Y-53694636D02*
G01*
X108572541Y-53714959D01*
X108592864Y-53745373D01*
X108600000Y-53781250D01*
X108600000Y-53968750D01*
X108592864Y-54004627D01*
X108572541Y-54035041D01*
X108542127Y-54055364D01*
X108506250Y-54062500D01*
X108293750Y-54062500D01*
X108257873Y-54055364D01*
X108227459Y-54035041D01*
X108207136Y-54004627D01*
X108200000Y-53968750D01*
X108200000Y-53781250D01*
X108207136Y-53745373D01*
X108227459Y-53714959D01*
X108257873Y-53694636D01*
X108293750Y-53687500D01*
X108506250Y-53687500D01*
X108542127Y-53694636D01*
G37*
G36*
X109192127Y-53694636D02*
G01*
X109222541Y-53714959D01*
X109242864Y-53745373D01*
X109250000Y-53781250D01*
X109250000Y-53968750D01*
X109242864Y-54004627D01*
X109222541Y-54035041D01*
X109192127Y-54055364D01*
X109156250Y-54062500D01*
X108943750Y-54062500D01*
X108907873Y-54055364D01*
X108877459Y-54035041D01*
X108857136Y-54004627D01*
X108850000Y-53968750D01*
X108850000Y-53781250D01*
X108857136Y-53745373D01*
X108877459Y-53714959D01*
X108907873Y-53694636D01*
X108943750Y-53687500D01*
X109156250Y-53687500D01*
X109192127Y-53694636D01*
G37*
G36*
X82037500Y-53900000D02*
G01*
X81237500Y-53900000D01*
X81237500Y-53700000D01*
X82037500Y-53700000D01*
X82037500Y-53900000D01*
G37*
G36*
X92037500Y-53900000D02*
G01*
X91237500Y-53900000D01*
X91237500Y-53700000D01*
X92037500Y-53700000D01*
X92037500Y-53900000D01*
G37*
G36*
X93476076Y-53200657D02*
G01*
X93521495Y-53231005D01*
X93551843Y-53276424D01*
X93562500Y-53330000D01*
X93562500Y-53670000D01*
X93551843Y-53723576D01*
X93521495Y-53768995D01*
X93476076Y-53799343D01*
X93422500Y-53810000D01*
X93142500Y-53810000D01*
X93088924Y-53799343D01*
X93043505Y-53768995D01*
X93013157Y-53723576D01*
X93002500Y-53670000D01*
X93002500Y-53330000D01*
X93013157Y-53276424D01*
X93043505Y-53231005D01*
X93088924Y-53200657D01*
X93142500Y-53190000D01*
X93422500Y-53190000D01*
X93476076Y-53200657D01*
G37*
G36*
X94436076Y-53200657D02*
G01*
X94481495Y-53231005D01*
X94511843Y-53276424D01*
X94522500Y-53330000D01*
X94522500Y-53670000D01*
X94511843Y-53723576D01*
X94481495Y-53768995D01*
X94436076Y-53799343D01*
X94382500Y-53810000D01*
X94102500Y-53810000D01*
X94048924Y-53799343D01*
X94003505Y-53768995D01*
X93973157Y-53723576D01*
X93962500Y-53670000D01*
X93962500Y-53330000D01*
X93973157Y-53276424D01*
X94003505Y-53231005D01*
X94048924Y-53200657D01*
X94102500Y-53190000D01*
X94382500Y-53190000D01*
X94436076Y-53200657D01*
G37*
G36*
X101250000Y-53487500D02*
G01*
X99650000Y-53487500D01*
X99650000Y-52487500D01*
X101250000Y-52487500D01*
X101250000Y-53487500D01*
G37*
G36*
X109200000Y-53487500D02*
G01*
X107600000Y-53487500D01*
X107600000Y-52487500D01*
X109200000Y-52487500D01*
X109200000Y-53487500D01*
G37*
G36*
X116147664Y-51811602D02*
G01*
X116310000Y-51883878D01*
X116453761Y-51988327D01*
X116572664Y-52120383D01*
X116661514Y-52274274D01*
X116716425Y-52443275D01*
X116735000Y-52620000D01*
X116716425Y-52796725D01*
X116661514Y-52965726D01*
X116572664Y-53119617D01*
X116453761Y-53251673D01*
X116310000Y-53356122D01*
X116147664Y-53428398D01*
X115973849Y-53465344D01*
X115796151Y-53465344D01*
X115622336Y-53428398D01*
X115460000Y-53356122D01*
X115316239Y-53251673D01*
X115197336Y-53119617D01*
X115108486Y-52965726D01*
X115053575Y-52796725D01*
X115035000Y-52620000D01*
X115053575Y-52443275D01*
X115108486Y-52274274D01*
X115197336Y-52120383D01*
X115316239Y-51988327D01*
X115460000Y-51883878D01*
X115622336Y-51811602D01*
X115796151Y-51774656D01*
X115973849Y-51774656D01*
X116147664Y-51811602D01*
G37*
G36*
X118687664Y-51811602D02*
G01*
X118850000Y-51883878D01*
X118993761Y-51988327D01*
X119112664Y-52120383D01*
X119201514Y-52274274D01*
X119256425Y-52443275D01*
X119275000Y-52620000D01*
X119256425Y-52796725D01*
X119201514Y-52965726D01*
X119112664Y-53119617D01*
X118993761Y-53251673D01*
X118850000Y-53356122D01*
X118687664Y-53428398D01*
X118513849Y-53465344D01*
X118336151Y-53465344D01*
X118162336Y-53428398D01*
X118000000Y-53356122D01*
X117856239Y-53251673D01*
X117737336Y-53119617D01*
X117648486Y-52965726D01*
X117593575Y-52796725D01*
X117575000Y-52620000D01*
X117593575Y-52443275D01*
X117648486Y-52274274D01*
X117737336Y-52120383D01*
X117856239Y-51988327D01*
X118000000Y-51883878D01*
X118162336Y-51811602D01*
X118336151Y-51774656D01*
X118513849Y-51774656D01*
X118687664Y-51811602D01*
G37*
G36*
X82537500Y-53400000D02*
G01*
X82337500Y-53400000D01*
X82337500Y-52600000D01*
X82537500Y-52600000D01*
X82537500Y-53400000D01*
G37*
G36*
X82937500Y-53400000D02*
G01*
X82737500Y-53400000D01*
X82737500Y-52600000D01*
X82937500Y-52600000D01*
X82937500Y-53400000D01*
G37*
G36*
X83337500Y-53400000D02*
G01*
X83137500Y-53400000D01*
X83137500Y-52600000D01*
X83337500Y-52600000D01*
X83337500Y-53400000D01*
G37*
G36*
X83737500Y-53400000D02*
G01*
X83537500Y-53400000D01*
X83537500Y-52600000D01*
X83737500Y-52600000D01*
X83737500Y-53400000D01*
G37*
G36*
X84137500Y-53400000D02*
G01*
X83937500Y-53400000D01*
X83937500Y-52600000D01*
X84137500Y-52600000D01*
X84137500Y-53400000D01*
G37*
G36*
X84537500Y-53400000D02*
G01*
X84337500Y-53400000D01*
X84337500Y-52600000D01*
X84537500Y-52600000D01*
X84537500Y-53400000D01*
G37*
G36*
X84937500Y-53400000D02*
G01*
X84737500Y-53400000D01*
X84737500Y-52600000D01*
X84937500Y-52600000D01*
X84937500Y-53400000D01*
G37*
G36*
X85337500Y-53400000D02*
G01*
X85137500Y-53400000D01*
X85137500Y-52600000D01*
X85337500Y-52600000D01*
X85337500Y-53400000D01*
G37*
G36*
X85737500Y-53400000D02*
G01*
X85537500Y-53400000D01*
X85537500Y-52600000D01*
X85737500Y-52600000D01*
X85737500Y-53400000D01*
G37*
G36*
X86137500Y-53400000D02*
G01*
X85937500Y-53400000D01*
X85937500Y-52600000D01*
X86137500Y-52600000D01*
X86137500Y-53400000D01*
G37*
G36*
X86537500Y-53400000D02*
G01*
X86337500Y-53400000D01*
X86337500Y-52600000D01*
X86537500Y-52600000D01*
X86537500Y-53400000D01*
G37*
G36*
X86937500Y-53400000D02*
G01*
X86737500Y-53400000D01*
X86737500Y-52600000D01*
X86937500Y-52600000D01*
X86937500Y-53400000D01*
G37*
G36*
X87337500Y-53400000D02*
G01*
X87137500Y-53400000D01*
X87137500Y-52600000D01*
X87337500Y-52600000D01*
X87337500Y-53400000D01*
G37*
G36*
X87737500Y-53400000D02*
G01*
X87537500Y-53400000D01*
X87537500Y-52600000D01*
X87737500Y-52600000D01*
X87737500Y-53400000D01*
G37*
G36*
X88137500Y-53400000D02*
G01*
X87937500Y-53400000D01*
X87937500Y-52600000D01*
X88137500Y-52600000D01*
X88137500Y-53400000D01*
G37*
G36*
X88537500Y-53400000D02*
G01*
X88337500Y-53400000D01*
X88337500Y-52600000D01*
X88537500Y-52600000D01*
X88537500Y-53400000D01*
G37*
G36*
X88937500Y-53400000D02*
G01*
X88737500Y-53400000D01*
X88737500Y-52600000D01*
X88937500Y-52600000D01*
X88937500Y-53400000D01*
G37*
G36*
X89337500Y-53400000D02*
G01*
X89137500Y-53400000D01*
X89137500Y-52600000D01*
X89337500Y-52600000D01*
X89337500Y-53400000D01*
G37*
G36*
X89737500Y-53400000D02*
G01*
X89537500Y-53400000D01*
X89537500Y-52600000D01*
X89737500Y-52600000D01*
X89737500Y-53400000D01*
G37*
G36*
X90137500Y-53400000D02*
G01*
X89937500Y-53400000D01*
X89937500Y-52600000D01*
X90137500Y-52600000D01*
X90137500Y-53400000D01*
G37*
G36*
X90537500Y-53400000D02*
G01*
X90337500Y-53400000D01*
X90337500Y-52600000D01*
X90537500Y-52600000D01*
X90537500Y-53400000D01*
G37*
G36*
X90937500Y-53400000D02*
G01*
X90737500Y-53400000D01*
X90737500Y-52600000D01*
X90937500Y-52600000D01*
X90937500Y-53400000D01*
G37*
G36*
X77936662Y-52850276D02*
G01*
X77980459Y-52879541D01*
X78009724Y-52923338D01*
X78020000Y-52975000D01*
X78020000Y-53245000D01*
X78009724Y-53296662D01*
X77980459Y-53340459D01*
X77936662Y-53369724D01*
X77885000Y-53380000D01*
X77515000Y-53380000D01*
X77463338Y-53369724D01*
X77419541Y-53340459D01*
X77390276Y-53296662D01*
X77380000Y-53245000D01*
X77380000Y-52975000D01*
X77390276Y-52923338D01*
X77419541Y-52879541D01*
X77463338Y-52850276D01*
X77515000Y-52840000D01*
X77885000Y-52840000D01*
X77936662Y-52850276D01*
G37*
G36*
X75114962Y-52141651D02*
G01*
X75185930Y-52189070D01*
X75233349Y-52260038D01*
X75250000Y-52343750D01*
X75250000Y-52856250D01*
X75233349Y-52939962D01*
X75185930Y-53010930D01*
X75114962Y-53058349D01*
X75031250Y-53075000D01*
X74593750Y-53075000D01*
X74510038Y-53058349D01*
X74439070Y-53010930D01*
X74391651Y-52939962D01*
X74375000Y-52856250D01*
X74375000Y-52343750D01*
X74391651Y-52260038D01*
X74439070Y-52189070D01*
X74510038Y-52141651D01*
X74593750Y-52125000D01*
X75031250Y-52125000D01*
X75114962Y-52141651D01*
G37*
G36*
X76689962Y-52141651D02*
G01*
X76760930Y-52189070D01*
X76808349Y-52260038D01*
X76825000Y-52343750D01*
X76825000Y-52856250D01*
X76808349Y-52939962D01*
X76760930Y-53010930D01*
X76689962Y-53058349D01*
X76606250Y-53075000D01*
X76168750Y-53075000D01*
X76085038Y-53058349D01*
X76014070Y-53010930D01*
X75966651Y-52939962D01*
X75950000Y-52856250D01*
X75950000Y-52343750D01*
X75966651Y-52260038D01*
X76014070Y-52189070D01*
X76085038Y-52141651D01*
X76168750Y-52125000D01*
X76606250Y-52125000D01*
X76689962Y-52141651D01*
G37*
G36*
X69931662Y-52290276D02*
G01*
X69975459Y-52319541D01*
X70004724Y-52363338D01*
X70015000Y-52415000D01*
X70015000Y-52785000D01*
X70004724Y-52836662D01*
X69975459Y-52880459D01*
X69931662Y-52909724D01*
X69880000Y-52920000D01*
X69610000Y-52920000D01*
X69558338Y-52909724D01*
X69514541Y-52880459D01*
X69485276Y-52836662D01*
X69475000Y-52785000D01*
X69475000Y-52415000D01*
X69485276Y-52363338D01*
X69514541Y-52319541D01*
X69558338Y-52290276D01*
X69610000Y-52280000D01*
X69880000Y-52280000D01*
X69931662Y-52290276D01*
G37*
G36*
X70951662Y-52290276D02*
G01*
X70995459Y-52319541D01*
X71024724Y-52363338D01*
X71035000Y-52415000D01*
X71035000Y-52785000D01*
X71024724Y-52836662D01*
X70995459Y-52880459D01*
X70951662Y-52909724D01*
X70900000Y-52920000D01*
X70630000Y-52920000D01*
X70578338Y-52909724D01*
X70534541Y-52880459D01*
X70505276Y-52836662D01*
X70495000Y-52785000D01*
X70495000Y-52415000D01*
X70505276Y-52363338D01*
X70534541Y-52319541D01*
X70578338Y-52290276D01*
X70630000Y-52280000D01*
X70900000Y-52280000D01*
X70951662Y-52290276D01*
G37*
G36*
X106436104Y-51804627D02*
G01*
X106509099Y-51853401D01*
X106557873Y-51926396D01*
X106575000Y-52012500D01*
X106575000Y-52462500D01*
X106557873Y-52548604D01*
X106509099Y-52621599D01*
X106436104Y-52670373D01*
X106350000Y-52687500D01*
X105850000Y-52687500D01*
X105763896Y-52670373D01*
X105690901Y-52621599D01*
X105642127Y-52548604D01*
X105625000Y-52462500D01*
X105625000Y-52012500D01*
X105642127Y-51926396D01*
X105690901Y-51853401D01*
X105763896Y-51804627D01*
X105850000Y-51787500D01*
X106350000Y-51787500D01*
X106436104Y-51804627D01*
G37*
G36*
X98436104Y-51779627D02*
G01*
X98509099Y-51828401D01*
X98557873Y-51901396D01*
X98575000Y-51987500D01*
X98575000Y-52437500D01*
X98557873Y-52523604D01*
X98509099Y-52596599D01*
X98436104Y-52645373D01*
X98350000Y-52662500D01*
X97850000Y-52662500D01*
X97763896Y-52645373D01*
X97690901Y-52596599D01*
X97642127Y-52523604D01*
X97625000Y-52437500D01*
X97625000Y-51987500D01*
X97642127Y-51901396D01*
X97690901Y-51828401D01*
X97763896Y-51779627D01*
X97850000Y-51762500D01*
X98350000Y-51762500D01*
X98436104Y-51779627D01*
G37*
G36*
X103136104Y-51779627D02*
G01*
X103209099Y-51828401D01*
X103257873Y-51901396D01*
X103275000Y-51987500D01*
X103275000Y-52437500D01*
X103257873Y-52523604D01*
X103209099Y-52596599D01*
X103136104Y-52645373D01*
X103050000Y-52662500D01*
X102550000Y-52662500D01*
X102463896Y-52645373D01*
X102390901Y-52596599D01*
X102342127Y-52523604D01*
X102325000Y-52437500D01*
X102325000Y-51987500D01*
X102342127Y-51901396D01*
X102390901Y-51828401D01*
X102463896Y-51779627D01*
X102550000Y-51762500D01*
X103050000Y-51762500D01*
X103136104Y-51779627D01*
G37*
G36*
X111036104Y-51779627D02*
G01*
X111109099Y-51828401D01*
X111157873Y-51901396D01*
X111175000Y-51987500D01*
X111175000Y-52437500D01*
X111157873Y-52523604D01*
X111109099Y-52596599D01*
X111036104Y-52645373D01*
X110950000Y-52662500D01*
X110450000Y-52662500D01*
X110363896Y-52645373D01*
X110290901Y-52596599D01*
X110242127Y-52523604D01*
X110225000Y-52437500D01*
X110225000Y-51987500D01*
X110242127Y-51901396D01*
X110290901Y-51828401D01*
X110363896Y-51779627D01*
X110450000Y-51762500D01*
X110950000Y-51762500D01*
X111036104Y-51779627D01*
G37*
G36*
X77936662Y-51830276D02*
G01*
X77980459Y-51859541D01*
X78009724Y-51903338D01*
X78020000Y-51955000D01*
X78020000Y-52225000D01*
X78009724Y-52276662D01*
X77980459Y-52320459D01*
X77936662Y-52349724D01*
X77885000Y-52360000D01*
X77515000Y-52360000D01*
X77463338Y-52349724D01*
X77419541Y-52320459D01*
X77390276Y-52276662D01*
X77380000Y-52225000D01*
X77380000Y-51955000D01*
X77390276Y-51903338D01*
X77419541Y-51859541D01*
X77463338Y-51830276D01*
X77515000Y-51820000D01*
X77885000Y-51820000D01*
X77936662Y-51830276D01*
G37*
G36*
X99942127Y-51919636D02*
G01*
X99972541Y-51939959D01*
X99992864Y-51970373D01*
X100000000Y-52006250D01*
X100000000Y-52193750D01*
X99992864Y-52229627D01*
X99972541Y-52260041D01*
X99942127Y-52280364D01*
X99906250Y-52287500D01*
X99693750Y-52287500D01*
X99657873Y-52280364D01*
X99627459Y-52260041D01*
X99607136Y-52229627D01*
X99600000Y-52193750D01*
X99600000Y-52006250D01*
X99607136Y-51970373D01*
X99627459Y-51939959D01*
X99657873Y-51919636D01*
X99693750Y-51912500D01*
X99906250Y-51912500D01*
X99942127Y-51919636D01*
G37*
G36*
X100592127Y-51919636D02*
G01*
X100622541Y-51939959D01*
X100642864Y-51970373D01*
X100650000Y-52006250D01*
X100650000Y-52193750D01*
X100642864Y-52229627D01*
X100622541Y-52260041D01*
X100592127Y-52280364D01*
X100556250Y-52287500D01*
X100343750Y-52287500D01*
X100307873Y-52280364D01*
X100277459Y-52260041D01*
X100257136Y-52229627D01*
X100250000Y-52193750D01*
X100250000Y-52006250D01*
X100257136Y-51970373D01*
X100277459Y-51939959D01*
X100307873Y-51919636D01*
X100343750Y-51912500D01*
X100556250Y-51912500D01*
X100592127Y-51919636D01*
G37*
G36*
X101242127Y-51919636D02*
G01*
X101272541Y-51939959D01*
X101292864Y-51970373D01*
X101300000Y-52006250D01*
X101300000Y-52193750D01*
X101292864Y-52229627D01*
X101272541Y-52260041D01*
X101242127Y-52280364D01*
X101206250Y-52287500D01*
X100993750Y-52287500D01*
X100957873Y-52280364D01*
X100927459Y-52260041D01*
X100907136Y-52229627D01*
X100900000Y-52193750D01*
X100900000Y-52006250D01*
X100907136Y-51970373D01*
X100927459Y-51939959D01*
X100957873Y-51919636D01*
X100993750Y-51912500D01*
X101206250Y-51912500D01*
X101242127Y-51919636D01*
G37*
G36*
X107892127Y-51919636D02*
G01*
X107922541Y-51939959D01*
X107942864Y-51970373D01*
X107950000Y-52006250D01*
X107950000Y-52193750D01*
X107942864Y-52229627D01*
X107922541Y-52260041D01*
X107892127Y-52280364D01*
X107856250Y-52287500D01*
X107643750Y-52287500D01*
X107607873Y-52280364D01*
X107577459Y-52260041D01*
X107557136Y-52229627D01*
X107550000Y-52193750D01*
X107550000Y-52006250D01*
X107557136Y-51970373D01*
X107577459Y-51939959D01*
X107607873Y-51919636D01*
X107643750Y-51912500D01*
X107856250Y-51912500D01*
X107892127Y-51919636D01*
G37*
G36*
X108542127Y-51919636D02*
G01*
X108572541Y-51939959D01*
X108592864Y-51970373D01*
X108600000Y-52006250D01*
X108600000Y-52193750D01*
X108592864Y-52229627D01*
X108572541Y-52260041D01*
X108542127Y-52280364D01*
X108506250Y-52287500D01*
X108293750Y-52287500D01*
X108257873Y-52280364D01*
X108227459Y-52260041D01*
X108207136Y-52229627D01*
X108200000Y-52193750D01*
X108200000Y-52006250D01*
X108207136Y-51970373D01*
X108227459Y-51939959D01*
X108257873Y-51919636D01*
X108293750Y-51912500D01*
X108506250Y-51912500D01*
X108542127Y-51919636D01*
G37*
G36*
X109192127Y-51919636D02*
G01*
X109222541Y-51939959D01*
X109242864Y-51970373D01*
X109250000Y-52006250D01*
X109250000Y-52193750D01*
X109242864Y-52229627D01*
X109222541Y-52260041D01*
X109192127Y-52280364D01*
X109156250Y-52287500D01*
X108943750Y-52287500D01*
X108907873Y-52280364D01*
X108877459Y-52260041D01*
X108857136Y-52229627D01*
X108850000Y-52193750D01*
X108850000Y-52006250D01*
X108857136Y-51970373D01*
X108877459Y-51939959D01*
X108907873Y-51919636D01*
X108943750Y-51912500D01*
X109156250Y-51912500D01*
X109192127Y-51919636D01*
G37*
G36*
X84536662Y-51140276D02*
G01*
X84580459Y-51169541D01*
X84609724Y-51213338D01*
X84620000Y-51265000D01*
X84620000Y-51535000D01*
X84609724Y-51586662D01*
X84580459Y-51630459D01*
X84536662Y-51659724D01*
X84485000Y-51670000D01*
X84115000Y-51670000D01*
X84063338Y-51659724D01*
X84019541Y-51630459D01*
X83990276Y-51586662D01*
X83980000Y-51535000D01*
X83980000Y-51265000D01*
X83990276Y-51213338D01*
X84019541Y-51169541D01*
X84063338Y-51140276D01*
X84115000Y-51130000D01*
X84485000Y-51130000D01*
X84536662Y-51140276D01*
G37*
G36*
X87936662Y-51140276D02*
G01*
X87980459Y-51169541D01*
X88009724Y-51213338D01*
X88020000Y-51265000D01*
X88020000Y-51535000D01*
X88009724Y-51586662D01*
X87980459Y-51630459D01*
X87936662Y-51659724D01*
X87885000Y-51670000D01*
X87515000Y-51670000D01*
X87463338Y-51659724D01*
X87419541Y-51630459D01*
X87390276Y-51586662D01*
X87380000Y-51535000D01*
X87380000Y-51265000D01*
X87390276Y-51213338D01*
X87419541Y-51169541D01*
X87463338Y-51140276D01*
X87515000Y-51130000D01*
X87885000Y-51130000D01*
X87936662Y-51140276D01*
G37*
G36*
X85623576Y-51100657D02*
G01*
X85668995Y-51131005D01*
X85699343Y-51176424D01*
X85710000Y-51230000D01*
X85710000Y-51510000D01*
X85699343Y-51563576D01*
X85668995Y-51608995D01*
X85623576Y-51639343D01*
X85570000Y-51650000D01*
X85230000Y-51650000D01*
X85176424Y-51639343D01*
X85131005Y-51608995D01*
X85100657Y-51563576D01*
X85090000Y-51510000D01*
X85090000Y-51230000D01*
X85100657Y-51176424D01*
X85131005Y-51131005D01*
X85176424Y-51100657D01*
X85230000Y-51090000D01*
X85570000Y-51090000D01*
X85623576Y-51100657D01*
G37*
G36*
X86786076Y-51100657D02*
G01*
X86831495Y-51131005D01*
X86861843Y-51176424D01*
X86872500Y-51230000D01*
X86872500Y-51510000D01*
X86861843Y-51563576D01*
X86831495Y-51608995D01*
X86786076Y-51639343D01*
X86732500Y-51650000D01*
X86392500Y-51650000D01*
X86338924Y-51639343D01*
X86293505Y-51608995D01*
X86263157Y-51563576D01*
X86252500Y-51510000D01*
X86252500Y-51230000D01*
X86263157Y-51176424D01*
X86293505Y-51131005D01*
X86338924Y-51100657D01*
X86392500Y-51090000D01*
X86732500Y-51090000D01*
X86786076Y-51100657D01*
G37*
G36*
X77936662Y-50750276D02*
G01*
X77980459Y-50779541D01*
X78009724Y-50823338D01*
X78020000Y-50875000D01*
X78020000Y-51145000D01*
X78009724Y-51196662D01*
X77980459Y-51240459D01*
X77936662Y-51269724D01*
X77885000Y-51280000D01*
X77515000Y-51280000D01*
X77463338Y-51269724D01*
X77419541Y-51240459D01*
X77390276Y-51196662D01*
X77380000Y-51145000D01*
X77380000Y-50875000D01*
X77390276Y-50823338D01*
X77419541Y-50779541D01*
X77463338Y-50750276D01*
X77515000Y-50740000D01*
X77885000Y-50740000D01*
X77936662Y-50750276D01*
G37*
G36*
X89023576Y-50710657D02*
G01*
X89068995Y-50741005D01*
X89099343Y-50786424D01*
X89110000Y-50840000D01*
X89110000Y-51120000D01*
X89099343Y-51173576D01*
X89068995Y-51218995D01*
X89023576Y-51249343D01*
X88970000Y-51260000D01*
X88630000Y-51260000D01*
X88576424Y-51249343D01*
X88531005Y-51218995D01*
X88500657Y-51173576D01*
X88490000Y-51120000D01*
X88490000Y-50840000D01*
X88500657Y-50786424D01*
X88531005Y-50741005D01*
X88576424Y-50710657D01*
X88630000Y-50700000D01*
X88970000Y-50700000D01*
X89023576Y-50710657D01*
G37*
G36*
X101576662Y-50490276D02*
G01*
X101620459Y-50519541D01*
X101649724Y-50563338D01*
X101660000Y-50615000D01*
X101660000Y-50985000D01*
X101649724Y-51036662D01*
X101620459Y-51080459D01*
X101576662Y-51109724D01*
X101525000Y-51120000D01*
X101255000Y-51120000D01*
X101203338Y-51109724D01*
X101159541Y-51080459D01*
X101130276Y-51036662D01*
X101120000Y-50985000D01*
X101120000Y-50615000D01*
X101130276Y-50563338D01*
X101159541Y-50519541D01*
X101203338Y-50490276D01*
X101255000Y-50480000D01*
X101525000Y-50480000D01*
X101576662Y-50490276D01*
G37*
G36*
X102596662Y-50490276D02*
G01*
X102640459Y-50519541D01*
X102669724Y-50563338D01*
X102680000Y-50615000D01*
X102680000Y-50985000D01*
X102669724Y-51036662D01*
X102640459Y-51080459D01*
X102596662Y-51109724D01*
X102545000Y-51120000D01*
X102275000Y-51120000D01*
X102223338Y-51109724D01*
X102179541Y-51080459D01*
X102150276Y-51036662D01*
X102140000Y-50985000D01*
X102140000Y-50615000D01*
X102150276Y-50563338D01*
X102179541Y-50519541D01*
X102223338Y-50490276D01*
X102275000Y-50480000D01*
X102545000Y-50480000D01*
X102596662Y-50490276D01*
G37*
G36*
X99376662Y-50477776D02*
G01*
X99420459Y-50507041D01*
X99449724Y-50550838D01*
X99460000Y-50602500D01*
X99460000Y-50972500D01*
X99449724Y-51024162D01*
X99420459Y-51067959D01*
X99376662Y-51097224D01*
X99325000Y-51107500D01*
X99055000Y-51107500D01*
X99003338Y-51097224D01*
X98959541Y-51067959D01*
X98930276Y-51024162D01*
X98920000Y-50972500D01*
X98920000Y-50602500D01*
X98930276Y-50550838D01*
X98959541Y-50507041D01*
X99003338Y-50477776D01*
X99055000Y-50467500D01*
X99325000Y-50467500D01*
X99376662Y-50477776D01*
G37*
G36*
X100396662Y-50477776D02*
G01*
X100440459Y-50507041D01*
X100469724Y-50550838D01*
X100480000Y-50602500D01*
X100480000Y-50972500D01*
X100469724Y-51024162D01*
X100440459Y-51067959D01*
X100396662Y-51097224D01*
X100345000Y-51107500D01*
X100075000Y-51107500D01*
X100023338Y-51097224D01*
X99979541Y-51067959D01*
X99950276Y-51024162D01*
X99940000Y-50972500D01*
X99940000Y-50602500D01*
X99950276Y-50550838D01*
X99979541Y-50507041D01*
X100023338Y-50477776D01*
X100075000Y-50467500D01*
X100345000Y-50467500D01*
X100396662Y-50477776D01*
G37*
G36*
X75127462Y-50141651D02*
G01*
X75198430Y-50189070D01*
X75245849Y-50260038D01*
X75262500Y-50343750D01*
X75262500Y-50856250D01*
X75245849Y-50939962D01*
X75198430Y-51010930D01*
X75127462Y-51058349D01*
X75043750Y-51075000D01*
X74606250Y-51075000D01*
X74522538Y-51058349D01*
X74451570Y-51010930D01*
X74404151Y-50939962D01*
X74387500Y-50856250D01*
X74387500Y-50343750D01*
X74404151Y-50260038D01*
X74451570Y-50189070D01*
X74522538Y-50141651D01*
X74606250Y-50125000D01*
X75043750Y-50125000D01*
X75127462Y-50141651D01*
G37*
G36*
X76702462Y-50141651D02*
G01*
X76773430Y-50189070D01*
X76820849Y-50260038D01*
X76837500Y-50343750D01*
X76837500Y-50856250D01*
X76820849Y-50939962D01*
X76773430Y-51010930D01*
X76702462Y-51058349D01*
X76618750Y-51075000D01*
X76181250Y-51075000D01*
X76097538Y-51058349D01*
X76026570Y-51010930D01*
X75979151Y-50939962D01*
X75962500Y-50856250D01*
X75962500Y-50343750D01*
X75979151Y-50260038D01*
X76026570Y-50189070D01*
X76097538Y-50141651D01*
X76181250Y-50125000D01*
X76618750Y-50125000D01*
X76702462Y-50141651D01*
G37*
G36*
X109451537Y-50140224D02*
G01*
X109516421Y-50183579D01*
X109559776Y-50248463D01*
X109575000Y-50325000D01*
X109575000Y-50875000D01*
X109559776Y-50951537D01*
X109516421Y-51016421D01*
X109451537Y-51059776D01*
X109375000Y-51075000D01*
X108975000Y-51075000D01*
X108898463Y-51059776D01*
X108833579Y-51016421D01*
X108790224Y-50951537D01*
X108775000Y-50875000D01*
X108775000Y-50325000D01*
X108790224Y-50248463D01*
X108833579Y-50183579D01*
X108898463Y-50140224D01*
X108975000Y-50125000D01*
X109375000Y-50125000D01*
X109451537Y-50140224D01*
G37*
G36*
X111101537Y-50140224D02*
G01*
X111166421Y-50183579D01*
X111209776Y-50248463D01*
X111225000Y-50325000D01*
X111225000Y-50875000D01*
X111209776Y-50951537D01*
X111166421Y-51016421D01*
X111101537Y-51059776D01*
X111025000Y-51075000D01*
X110625000Y-51075000D01*
X110548463Y-51059776D01*
X110483579Y-51016421D01*
X110440224Y-50951537D01*
X110425000Y-50875000D01*
X110425000Y-50325000D01*
X110440224Y-50248463D01*
X110483579Y-50183579D01*
X110548463Y-50140224D01*
X110625000Y-50125000D01*
X111025000Y-50125000D01*
X111101537Y-50140224D01*
G37*
G36*
X116735000Y-50930000D02*
G01*
X115035000Y-50930000D01*
X115035000Y-49230000D01*
X116735000Y-49230000D01*
X116735000Y-50930000D01*
G37*
G36*
X118687664Y-49271602D02*
G01*
X118850000Y-49343878D01*
X118993761Y-49448327D01*
X119112664Y-49580383D01*
X119201514Y-49734274D01*
X119256425Y-49903275D01*
X119275000Y-50080000D01*
X119256425Y-50256725D01*
X119201514Y-50425726D01*
X119112664Y-50579617D01*
X118993761Y-50711673D01*
X118850000Y-50816122D01*
X118687664Y-50888398D01*
X118513849Y-50925344D01*
X118336151Y-50925344D01*
X118162336Y-50888398D01*
X118000000Y-50816122D01*
X117856239Y-50711673D01*
X117737336Y-50579617D01*
X117648486Y-50425726D01*
X117593575Y-50256725D01*
X117575000Y-50080000D01*
X117593575Y-49903275D01*
X117648486Y-49734274D01*
X117737336Y-49580383D01*
X117856239Y-49448327D01*
X118000000Y-49343878D01*
X118162336Y-49271602D01*
X118336151Y-49234656D01*
X118513849Y-49234656D01*
X118687664Y-49271602D01*
G37*
G36*
X106876662Y-50290276D02*
G01*
X106920459Y-50319541D01*
X106949724Y-50363338D01*
X106960000Y-50415000D01*
X106960000Y-50785000D01*
X106949724Y-50836662D01*
X106920459Y-50880459D01*
X106876662Y-50909724D01*
X106825000Y-50920000D01*
X106555000Y-50920000D01*
X106503338Y-50909724D01*
X106459541Y-50880459D01*
X106430276Y-50836662D01*
X106420000Y-50785000D01*
X106420000Y-50415000D01*
X106430276Y-50363338D01*
X106459541Y-50319541D01*
X106503338Y-50290276D01*
X106555000Y-50280000D01*
X106825000Y-50280000D01*
X106876662Y-50290276D01*
G37*
G36*
X107896662Y-50290276D02*
G01*
X107940459Y-50319541D01*
X107969724Y-50363338D01*
X107980000Y-50415000D01*
X107980000Y-50785000D01*
X107969724Y-50836662D01*
X107940459Y-50880459D01*
X107896662Y-50909724D01*
X107845000Y-50920000D01*
X107575000Y-50920000D01*
X107523338Y-50909724D01*
X107479541Y-50880459D01*
X107450276Y-50836662D01*
X107440000Y-50785000D01*
X107440000Y-50415000D01*
X107450276Y-50363338D01*
X107479541Y-50319541D01*
X107523338Y-50290276D01*
X107575000Y-50280000D01*
X107845000Y-50280000D01*
X107896662Y-50290276D01*
G37*
G36*
X85623576Y-50140657D02*
G01*
X85668995Y-50171005D01*
X85699343Y-50216424D01*
X85710000Y-50270000D01*
X85710000Y-50550000D01*
X85699343Y-50603576D01*
X85668995Y-50648995D01*
X85623576Y-50679343D01*
X85570000Y-50690000D01*
X85230000Y-50690000D01*
X85176424Y-50679343D01*
X85131005Y-50648995D01*
X85100657Y-50603576D01*
X85090000Y-50550000D01*
X85090000Y-50270000D01*
X85100657Y-50216424D01*
X85131005Y-50171005D01*
X85176424Y-50140657D01*
X85230000Y-50130000D01*
X85570000Y-50130000D01*
X85623576Y-50140657D01*
G37*
G36*
X86786076Y-50140657D02*
G01*
X86831495Y-50171005D01*
X86861843Y-50216424D01*
X86872500Y-50270000D01*
X86872500Y-50550000D01*
X86861843Y-50603576D01*
X86831495Y-50648995D01*
X86786076Y-50679343D01*
X86732500Y-50690000D01*
X86392500Y-50690000D01*
X86338924Y-50679343D01*
X86293505Y-50648995D01*
X86263157Y-50603576D01*
X86252500Y-50550000D01*
X86252500Y-50270000D01*
X86263157Y-50216424D01*
X86293505Y-50171005D01*
X86338924Y-50140657D01*
X86392500Y-50130000D01*
X86732500Y-50130000D01*
X86786076Y-50140657D01*
G37*
G36*
X84536662Y-50120276D02*
G01*
X84580459Y-50149541D01*
X84609724Y-50193338D01*
X84620000Y-50245000D01*
X84620000Y-50515000D01*
X84609724Y-50566662D01*
X84580459Y-50610459D01*
X84536662Y-50639724D01*
X84485000Y-50650000D01*
X84115000Y-50650000D01*
X84063338Y-50639724D01*
X84019541Y-50610459D01*
X83990276Y-50566662D01*
X83980000Y-50515000D01*
X83980000Y-50245000D01*
X83990276Y-50193338D01*
X84019541Y-50149541D01*
X84063338Y-50120276D01*
X84115000Y-50110000D01*
X84485000Y-50110000D01*
X84536662Y-50120276D01*
G37*
G36*
X87936662Y-50120276D02*
G01*
X87980459Y-50149541D01*
X88009724Y-50193338D01*
X88020000Y-50245000D01*
X88020000Y-50515000D01*
X88009724Y-50566662D01*
X87980459Y-50610459D01*
X87936662Y-50639724D01*
X87885000Y-50650000D01*
X87515000Y-50650000D01*
X87463338Y-50639724D01*
X87419541Y-50610459D01*
X87390276Y-50566662D01*
X87380000Y-50515000D01*
X87380000Y-50245000D01*
X87390276Y-50193338D01*
X87419541Y-50149541D01*
X87463338Y-50120276D01*
X87515000Y-50110000D01*
X87885000Y-50110000D01*
X87936662Y-50120276D01*
G37*
G36*
X89023576Y-49750657D02*
G01*
X89068995Y-49781005D01*
X89099343Y-49826424D01*
X89110000Y-49880000D01*
X89110000Y-50160000D01*
X89099343Y-50213576D01*
X89068995Y-50258995D01*
X89023576Y-50289343D01*
X88970000Y-50300000D01*
X88630000Y-50300000D01*
X88576424Y-50289343D01*
X88531005Y-50258995D01*
X88500657Y-50213576D01*
X88490000Y-50160000D01*
X88490000Y-49880000D01*
X88500657Y-49826424D01*
X88531005Y-49781005D01*
X88576424Y-49750657D01*
X88630000Y-49740000D01*
X88970000Y-49740000D01*
X89023576Y-49750657D01*
G37*
G36*
X77936662Y-49730276D02*
G01*
X77980459Y-49759541D01*
X78009724Y-49803338D01*
X78020000Y-49855000D01*
X78020000Y-50125000D01*
X78009724Y-50176662D01*
X77980459Y-50220459D01*
X77936662Y-50249724D01*
X77885000Y-50260000D01*
X77515000Y-50260000D01*
X77463338Y-50249724D01*
X77419541Y-50220459D01*
X77390276Y-50176662D01*
X77380000Y-50125000D01*
X77380000Y-49855000D01*
X77390276Y-49803338D01*
X77419541Y-49759541D01*
X77463338Y-49730276D01*
X77515000Y-49720000D01*
X77885000Y-49720000D01*
X77936662Y-49730276D01*
G37*
G36*
X62807664Y-46731602D02*
G01*
X62970000Y-46803878D01*
X63113761Y-46908327D01*
X63232664Y-47040383D01*
X63321514Y-47194274D01*
X63376425Y-47363275D01*
X63395000Y-47540000D01*
X63376425Y-47716725D01*
X63321514Y-47885726D01*
X63232664Y-48039617D01*
X63113761Y-48171673D01*
X62970000Y-48276122D01*
X62807664Y-48348398D01*
X62633849Y-48385344D01*
X62456151Y-48385344D01*
X62282336Y-48348398D01*
X62120000Y-48276122D01*
X61976239Y-48171673D01*
X61857336Y-48039617D01*
X61768486Y-47885726D01*
X61713575Y-47716725D01*
X61695000Y-47540000D01*
X61713575Y-47363275D01*
X61768486Y-47194274D01*
X61857336Y-47040383D01*
X61976239Y-46908327D01*
X62120000Y-46803878D01*
X62282336Y-46731602D01*
X62456151Y-46694656D01*
X62633849Y-46694656D01*
X62807664Y-46731602D01*
G37*
G36*
X65347664Y-46731602D02*
G01*
X65510000Y-46803878D01*
X65653761Y-46908327D01*
X65772664Y-47040383D01*
X65861514Y-47194274D01*
X65916425Y-47363275D01*
X65935000Y-47540000D01*
X65916425Y-47716725D01*
X65861514Y-47885726D01*
X65772664Y-48039617D01*
X65653761Y-48171673D01*
X65510000Y-48276122D01*
X65347664Y-48348398D01*
X65173849Y-48385344D01*
X64996151Y-48385344D01*
X64822336Y-48348398D01*
X64660000Y-48276122D01*
X64516239Y-48171673D01*
X64397336Y-48039617D01*
X64308486Y-47885726D01*
X64253575Y-47716725D01*
X64235000Y-47540000D01*
X64253575Y-47363275D01*
X64308486Y-47194274D01*
X64397336Y-47040383D01*
X64516239Y-46908327D01*
X64660000Y-46803878D01*
X64822336Y-46731602D01*
X64996151Y-46694656D01*
X65173849Y-46694656D01*
X65347664Y-46731602D01*
G37*
G36*
X67887664Y-46731602D02*
G01*
X68050000Y-46803878D01*
X68193761Y-46908327D01*
X68312664Y-47040383D01*
X68401514Y-47194274D01*
X68456425Y-47363275D01*
X68475000Y-47540000D01*
X68456425Y-47716725D01*
X68401514Y-47885726D01*
X68312664Y-48039617D01*
X68193761Y-48171673D01*
X68050000Y-48276122D01*
X67887664Y-48348398D01*
X67713849Y-48385344D01*
X67536151Y-48385344D01*
X67362336Y-48348398D01*
X67200000Y-48276122D01*
X67056239Y-48171673D01*
X66937336Y-48039617D01*
X66848486Y-47885726D01*
X66793575Y-47716725D01*
X66775000Y-47540000D01*
X66793575Y-47363275D01*
X66848486Y-47194274D01*
X66937336Y-47040383D01*
X67056239Y-46908327D01*
X67200000Y-46803878D01*
X67362336Y-46731602D01*
X67536151Y-46694656D01*
X67713849Y-46694656D01*
X67887664Y-46731602D01*
G37*
G36*
X70427664Y-46731602D02*
G01*
X70590000Y-46803878D01*
X70733761Y-46908327D01*
X70852664Y-47040383D01*
X70941514Y-47194274D01*
X70996425Y-47363275D01*
X71015000Y-47540000D01*
X70996425Y-47716725D01*
X70941514Y-47885726D01*
X70852664Y-48039617D01*
X70733761Y-48171673D01*
X70590000Y-48276122D01*
X70427664Y-48348398D01*
X70253849Y-48385344D01*
X70076151Y-48385344D01*
X69902336Y-48348398D01*
X69740000Y-48276122D01*
X69596239Y-48171673D01*
X69477336Y-48039617D01*
X69388486Y-47885726D01*
X69333575Y-47716725D01*
X69315000Y-47540000D01*
X69333575Y-47363275D01*
X69388486Y-47194274D01*
X69477336Y-47040383D01*
X69596239Y-46908327D01*
X69740000Y-46803878D01*
X69902336Y-46731602D01*
X70076151Y-46694656D01*
X70253849Y-46694656D01*
X70427664Y-46731602D01*
G37*
G36*
X72967664Y-46731602D02*
G01*
X73130000Y-46803878D01*
X73273761Y-46908327D01*
X73392664Y-47040383D01*
X73481514Y-47194274D01*
X73536425Y-47363275D01*
X73555000Y-47540000D01*
X73536425Y-47716725D01*
X73481514Y-47885726D01*
X73392664Y-48039617D01*
X73273761Y-48171673D01*
X73130000Y-48276122D01*
X72967664Y-48348398D01*
X72793849Y-48385344D01*
X72616151Y-48385344D01*
X72442336Y-48348398D01*
X72280000Y-48276122D01*
X72136239Y-48171673D01*
X72017336Y-48039617D01*
X71928486Y-47885726D01*
X71873575Y-47716725D01*
X71855000Y-47540000D01*
X71873575Y-47363275D01*
X71928486Y-47194274D01*
X72017336Y-47040383D01*
X72136239Y-46908327D01*
X72280000Y-46803878D01*
X72442336Y-46731602D01*
X72616151Y-46694656D01*
X72793849Y-46694656D01*
X72967664Y-46731602D01*
G37*
G36*
X75507664Y-46731602D02*
G01*
X75670000Y-46803878D01*
X75813761Y-46908327D01*
X75932664Y-47040383D01*
X76021514Y-47194274D01*
X76076425Y-47363275D01*
X76095000Y-47540000D01*
X76076425Y-47716725D01*
X76021514Y-47885726D01*
X75932664Y-48039617D01*
X75813761Y-48171673D01*
X75670000Y-48276122D01*
X75507664Y-48348398D01*
X75333849Y-48385344D01*
X75156151Y-48385344D01*
X74982336Y-48348398D01*
X74820000Y-48276122D01*
X74676239Y-48171673D01*
X74557336Y-48039617D01*
X74468486Y-47885726D01*
X74413575Y-47716725D01*
X74395000Y-47540000D01*
X74413575Y-47363275D01*
X74468486Y-47194274D01*
X74557336Y-47040383D01*
X74676239Y-46908327D01*
X74820000Y-46803878D01*
X74982336Y-46731602D01*
X75156151Y-46694656D01*
X75333849Y-46694656D01*
X75507664Y-46731602D01*
G37*
G36*
X78047664Y-46731602D02*
G01*
X78210000Y-46803878D01*
X78353761Y-46908327D01*
X78472664Y-47040383D01*
X78561514Y-47194274D01*
X78616425Y-47363275D01*
X78635000Y-47540000D01*
X78616425Y-47716725D01*
X78561514Y-47885726D01*
X78472664Y-48039617D01*
X78353761Y-48171673D01*
X78210000Y-48276122D01*
X78047664Y-48348398D01*
X77873849Y-48385344D01*
X77696151Y-48385344D01*
X77522336Y-48348398D01*
X77360000Y-48276122D01*
X77216239Y-48171673D01*
X77097336Y-48039617D01*
X77008486Y-47885726D01*
X76953575Y-47716725D01*
X76935000Y-47540000D01*
X76953575Y-47363275D01*
X77008486Y-47194274D01*
X77097336Y-47040383D01*
X77216239Y-46908327D01*
X77360000Y-46803878D01*
X77522336Y-46731602D01*
X77696151Y-46694656D01*
X77873849Y-46694656D01*
X78047664Y-46731602D01*
G37*
G36*
X80587664Y-46731602D02*
G01*
X80750000Y-46803878D01*
X80893761Y-46908327D01*
X81012664Y-47040383D01*
X81101514Y-47194274D01*
X81156425Y-47363275D01*
X81175000Y-47540000D01*
X81156425Y-47716725D01*
X81101514Y-47885726D01*
X81012664Y-48039617D01*
X80893761Y-48171673D01*
X80750000Y-48276122D01*
X80587664Y-48348398D01*
X80413849Y-48385344D01*
X80236151Y-48385344D01*
X80062336Y-48348398D01*
X79900000Y-48276122D01*
X79756239Y-48171673D01*
X79637336Y-48039617D01*
X79548486Y-47885726D01*
X79493575Y-47716725D01*
X79475000Y-47540000D01*
X79493575Y-47363275D01*
X79548486Y-47194274D01*
X79637336Y-47040383D01*
X79756239Y-46908327D01*
X79900000Y-46803878D01*
X80062336Y-46731602D01*
X80236151Y-46694656D01*
X80413849Y-46694656D01*
X80587664Y-46731602D01*
G37*
G36*
X83127664Y-46731602D02*
G01*
X83290000Y-46803878D01*
X83433761Y-46908327D01*
X83552664Y-47040383D01*
X83641514Y-47194274D01*
X83696425Y-47363275D01*
X83715000Y-47540000D01*
X83696425Y-47716725D01*
X83641514Y-47885726D01*
X83552664Y-48039617D01*
X83433761Y-48171673D01*
X83290000Y-48276122D01*
X83127664Y-48348398D01*
X82953849Y-48385344D01*
X82776151Y-48385344D01*
X82602336Y-48348398D01*
X82440000Y-48276122D01*
X82296239Y-48171673D01*
X82177336Y-48039617D01*
X82088486Y-47885726D01*
X82033575Y-47716725D01*
X82015000Y-47540000D01*
X82033575Y-47363275D01*
X82088486Y-47194274D01*
X82177336Y-47040383D01*
X82296239Y-46908327D01*
X82440000Y-46803878D01*
X82602336Y-46731602D01*
X82776151Y-46694656D01*
X82953849Y-46694656D01*
X83127664Y-46731602D01*
G37*
G36*
X85667664Y-46731602D02*
G01*
X85830000Y-46803878D01*
X85973761Y-46908327D01*
X86092664Y-47040383D01*
X86181514Y-47194274D01*
X86236425Y-47363275D01*
X86255000Y-47540000D01*
X86236425Y-47716725D01*
X86181514Y-47885726D01*
X86092664Y-48039617D01*
X85973761Y-48171673D01*
X85830000Y-48276122D01*
X85667664Y-48348398D01*
X85493849Y-48385344D01*
X85316151Y-48385344D01*
X85142336Y-48348398D01*
X84980000Y-48276122D01*
X84836239Y-48171673D01*
X84717336Y-48039617D01*
X84628486Y-47885726D01*
X84573575Y-47716725D01*
X84555000Y-47540000D01*
X84573575Y-47363275D01*
X84628486Y-47194274D01*
X84717336Y-47040383D01*
X84836239Y-46908327D01*
X84980000Y-46803878D01*
X85142336Y-46731602D01*
X85316151Y-46694656D01*
X85493849Y-46694656D01*
X85667664Y-46731602D01*
G37*
G36*
X88207664Y-46731602D02*
G01*
X88370000Y-46803878D01*
X88513761Y-46908327D01*
X88632664Y-47040383D01*
X88721514Y-47194274D01*
X88776425Y-47363275D01*
X88795000Y-47540000D01*
X88776425Y-47716725D01*
X88721514Y-47885726D01*
X88632664Y-48039617D01*
X88513761Y-48171673D01*
X88370000Y-48276122D01*
X88207664Y-48348398D01*
X88033849Y-48385344D01*
X87856151Y-48385344D01*
X87682336Y-48348398D01*
X87520000Y-48276122D01*
X87376239Y-48171673D01*
X87257336Y-48039617D01*
X87168486Y-47885726D01*
X87113575Y-47716725D01*
X87095000Y-47540000D01*
X87113575Y-47363275D01*
X87168486Y-47194274D01*
X87257336Y-47040383D01*
X87376239Y-46908327D01*
X87520000Y-46803878D01*
X87682336Y-46731602D01*
X87856151Y-46694656D01*
X88033849Y-46694656D01*
X88207664Y-46731602D01*
G37*
G36*
X90747664Y-46731602D02*
G01*
X90910000Y-46803878D01*
X91053761Y-46908327D01*
X91172664Y-47040383D01*
X91261514Y-47194274D01*
X91316425Y-47363275D01*
X91335000Y-47540000D01*
X91316425Y-47716725D01*
X91261514Y-47885726D01*
X91172664Y-48039617D01*
X91053761Y-48171673D01*
X90910000Y-48276122D01*
X90747664Y-48348398D01*
X90573849Y-48385344D01*
X90396151Y-48385344D01*
X90222336Y-48348398D01*
X90060000Y-48276122D01*
X89916239Y-48171673D01*
X89797336Y-48039617D01*
X89708486Y-47885726D01*
X89653575Y-47716725D01*
X89635000Y-47540000D01*
X89653575Y-47363275D01*
X89708486Y-47194274D01*
X89797336Y-47040383D01*
X89916239Y-46908327D01*
X90060000Y-46803878D01*
X90222336Y-46731602D01*
X90396151Y-46694656D01*
X90573849Y-46694656D01*
X90747664Y-46731602D01*
G37*
G36*
X93287664Y-46731602D02*
G01*
X93450000Y-46803878D01*
X93593761Y-46908327D01*
X93712664Y-47040383D01*
X93801514Y-47194274D01*
X93856425Y-47363275D01*
X93875000Y-47540000D01*
X93856425Y-47716725D01*
X93801514Y-47885726D01*
X93712664Y-48039617D01*
X93593761Y-48171673D01*
X93450000Y-48276122D01*
X93287664Y-48348398D01*
X93113849Y-48385344D01*
X92936151Y-48385344D01*
X92762336Y-48348398D01*
X92600000Y-48276122D01*
X92456239Y-48171673D01*
X92337336Y-48039617D01*
X92248486Y-47885726D01*
X92193575Y-47716725D01*
X92175000Y-47540000D01*
X92193575Y-47363275D01*
X92248486Y-47194274D01*
X92337336Y-47040383D01*
X92456239Y-46908327D01*
X92600000Y-46803878D01*
X92762336Y-46731602D01*
X92936151Y-46694656D01*
X93113849Y-46694656D01*
X93287664Y-46731602D01*
G37*
G36*
X95827664Y-46731602D02*
G01*
X95990000Y-46803878D01*
X96133761Y-46908327D01*
X96252664Y-47040383D01*
X96341514Y-47194274D01*
X96396425Y-47363275D01*
X96415000Y-47540000D01*
X96396425Y-47716725D01*
X96341514Y-47885726D01*
X96252664Y-48039617D01*
X96133761Y-48171673D01*
X95990000Y-48276122D01*
X95827664Y-48348398D01*
X95653849Y-48385344D01*
X95476151Y-48385344D01*
X95302336Y-48348398D01*
X95140000Y-48276122D01*
X94996239Y-48171673D01*
X94877336Y-48039617D01*
X94788486Y-47885726D01*
X94733575Y-47716725D01*
X94715000Y-47540000D01*
X94733575Y-47363275D01*
X94788486Y-47194274D01*
X94877336Y-47040383D01*
X94996239Y-46908327D01*
X95140000Y-46803878D01*
X95302336Y-46731602D01*
X95476151Y-46694656D01*
X95653849Y-46694656D01*
X95827664Y-46731602D01*
G37*
G36*
X98367664Y-46731602D02*
G01*
X98530000Y-46803878D01*
X98673761Y-46908327D01*
X98792664Y-47040383D01*
X98881514Y-47194274D01*
X98936425Y-47363275D01*
X98955000Y-47540000D01*
X98936425Y-47716725D01*
X98881514Y-47885726D01*
X98792664Y-48039617D01*
X98673761Y-48171673D01*
X98530000Y-48276122D01*
X98367664Y-48348398D01*
X98193849Y-48385344D01*
X98016151Y-48385344D01*
X97842336Y-48348398D01*
X97680000Y-48276122D01*
X97536239Y-48171673D01*
X97417336Y-48039617D01*
X97328486Y-47885726D01*
X97273575Y-47716725D01*
X97255000Y-47540000D01*
X97273575Y-47363275D01*
X97328486Y-47194274D01*
X97417336Y-47040383D01*
X97536239Y-46908327D01*
X97680000Y-46803878D01*
X97842336Y-46731602D01*
X98016151Y-46694656D01*
X98193849Y-46694656D01*
X98367664Y-46731602D01*
G37*
G36*
X100907664Y-46731602D02*
G01*
X101070000Y-46803878D01*
X101213761Y-46908327D01*
X101332664Y-47040383D01*
X101421514Y-47194274D01*
X101476425Y-47363275D01*
X101495000Y-47540000D01*
X101476425Y-47716725D01*
X101421514Y-47885726D01*
X101332664Y-48039617D01*
X101213761Y-48171673D01*
X101070000Y-48276122D01*
X100907664Y-48348398D01*
X100733849Y-48385344D01*
X100556151Y-48385344D01*
X100382336Y-48348398D01*
X100220000Y-48276122D01*
X100076239Y-48171673D01*
X99957336Y-48039617D01*
X99868486Y-47885726D01*
X99813575Y-47716725D01*
X99795000Y-47540000D01*
X99813575Y-47363275D01*
X99868486Y-47194274D01*
X99957336Y-47040383D01*
X100076239Y-46908327D01*
X100220000Y-46803878D01*
X100382336Y-46731602D01*
X100556151Y-46694656D01*
X100733849Y-46694656D01*
X100907664Y-46731602D01*
G37*
G36*
X103447664Y-46731602D02*
G01*
X103610000Y-46803878D01*
X103753761Y-46908327D01*
X103872664Y-47040383D01*
X103961514Y-47194274D01*
X104016425Y-47363275D01*
X104035000Y-47540000D01*
X104016425Y-47716725D01*
X103961514Y-47885726D01*
X103872664Y-48039617D01*
X103753761Y-48171673D01*
X103610000Y-48276122D01*
X103447664Y-48348398D01*
X103273849Y-48385344D01*
X103096151Y-48385344D01*
X102922336Y-48348398D01*
X102760000Y-48276122D01*
X102616239Y-48171673D01*
X102497336Y-48039617D01*
X102408486Y-47885726D01*
X102353575Y-47716725D01*
X102335000Y-47540000D01*
X102353575Y-47363275D01*
X102408486Y-47194274D01*
X102497336Y-47040383D01*
X102616239Y-46908327D01*
X102760000Y-46803878D01*
X102922336Y-46731602D01*
X103096151Y-46694656D01*
X103273849Y-46694656D01*
X103447664Y-46731602D01*
G37*
G36*
X105987664Y-46731602D02*
G01*
X106150000Y-46803878D01*
X106293761Y-46908327D01*
X106412664Y-47040383D01*
X106501514Y-47194274D01*
X106556425Y-47363275D01*
X106575000Y-47540000D01*
X106556425Y-47716725D01*
X106501514Y-47885726D01*
X106412664Y-48039617D01*
X106293761Y-48171673D01*
X106150000Y-48276122D01*
X105987664Y-48348398D01*
X105813849Y-48385344D01*
X105636151Y-48385344D01*
X105462336Y-48348398D01*
X105300000Y-48276122D01*
X105156239Y-48171673D01*
X105037336Y-48039617D01*
X104948486Y-47885726D01*
X104893575Y-47716725D01*
X104875000Y-47540000D01*
X104893575Y-47363275D01*
X104948486Y-47194274D01*
X105037336Y-47040383D01*
X105156239Y-46908327D01*
X105300000Y-46803878D01*
X105462336Y-46731602D01*
X105636151Y-46694656D01*
X105813849Y-46694656D01*
X105987664Y-46731602D01*
G37*
G36*
X108527664Y-46731602D02*
G01*
X108690000Y-46803878D01*
X108833761Y-46908327D01*
X108952664Y-47040383D01*
X109041514Y-47194274D01*
X109096425Y-47363275D01*
X109115000Y-47540000D01*
X109096425Y-47716725D01*
X109041514Y-47885726D01*
X108952664Y-48039617D01*
X108833761Y-48171673D01*
X108690000Y-48276122D01*
X108527664Y-48348398D01*
X108353849Y-48385344D01*
X108176151Y-48385344D01*
X108002336Y-48348398D01*
X107840000Y-48276122D01*
X107696239Y-48171673D01*
X107577336Y-48039617D01*
X107488486Y-47885726D01*
X107433575Y-47716725D01*
X107415000Y-47540000D01*
X107433575Y-47363275D01*
X107488486Y-47194274D01*
X107577336Y-47040383D01*
X107696239Y-46908327D01*
X107840000Y-46803878D01*
X108002336Y-46731602D01*
X108176151Y-46694656D01*
X108353849Y-46694656D01*
X108527664Y-46731602D01*
G37*
G36*
X111067664Y-46731602D02*
G01*
X111230000Y-46803878D01*
X111373761Y-46908327D01*
X111492664Y-47040383D01*
X111581514Y-47194274D01*
X111636425Y-47363275D01*
X111655000Y-47540000D01*
X111636425Y-47716725D01*
X111581514Y-47885726D01*
X111492664Y-48039617D01*
X111373761Y-48171673D01*
X111230000Y-48276122D01*
X111067664Y-48348398D01*
X110893849Y-48385344D01*
X110716151Y-48385344D01*
X110542336Y-48348398D01*
X110380000Y-48276122D01*
X110236239Y-48171673D01*
X110117336Y-48039617D01*
X110028486Y-47885726D01*
X109973575Y-47716725D01*
X109955000Y-47540000D01*
X109973575Y-47363275D01*
X110028486Y-47194274D01*
X110117336Y-47040383D01*
X110236239Y-46908327D01*
X110380000Y-46803878D01*
X110542336Y-46731602D01*
X110716151Y-46694656D01*
X110893849Y-46694656D01*
X111067664Y-46731602D01*
G37*
G36*
X113607664Y-46731602D02*
G01*
X113770000Y-46803878D01*
X113913761Y-46908327D01*
X114032664Y-47040383D01*
X114121514Y-47194274D01*
X114176425Y-47363275D01*
X114195000Y-47540000D01*
X114176425Y-47716725D01*
X114121514Y-47885726D01*
X114032664Y-48039617D01*
X113913761Y-48171673D01*
X113770000Y-48276122D01*
X113607664Y-48348398D01*
X113433849Y-48385344D01*
X113256151Y-48385344D01*
X113082336Y-48348398D01*
X112920000Y-48276122D01*
X112776239Y-48171673D01*
X112657336Y-48039617D01*
X112568486Y-47885726D01*
X112513575Y-47716725D01*
X112495000Y-47540000D01*
X112513575Y-47363275D01*
X112568486Y-47194274D01*
X112657336Y-47040383D01*
X112776239Y-46908327D01*
X112920000Y-46803878D01*
X113082336Y-46731602D01*
X113256151Y-46694656D01*
X113433849Y-46694656D01*
X113607664Y-46731602D01*
G37*
G36*
X116147664Y-46731602D02*
G01*
X116310000Y-46803878D01*
X116453761Y-46908327D01*
X116572664Y-47040383D01*
X116661514Y-47194274D01*
X116716425Y-47363275D01*
X116735000Y-47540000D01*
X116716425Y-47716725D01*
X116661514Y-47885726D01*
X116572664Y-48039617D01*
X116453761Y-48171673D01*
X116310000Y-48276122D01*
X116147664Y-48348398D01*
X115973849Y-48385344D01*
X115796151Y-48385344D01*
X115622336Y-48348398D01*
X115460000Y-48276122D01*
X115316239Y-48171673D01*
X115197336Y-48039617D01*
X115108486Y-47885726D01*
X115053575Y-47716725D01*
X115035000Y-47540000D01*
X115053575Y-47363275D01*
X115108486Y-47194274D01*
X115197336Y-47040383D01*
X115316239Y-46908327D01*
X115460000Y-46803878D01*
X115622336Y-46731602D01*
X115796151Y-46694656D01*
X115973849Y-46694656D01*
X116147664Y-46731602D01*
G37*
G36*
X118687664Y-46731602D02*
G01*
X118850000Y-46803878D01*
X118993761Y-46908327D01*
X119112664Y-47040383D01*
X119201514Y-47194274D01*
X119256425Y-47363275D01*
X119275000Y-47540000D01*
X119256425Y-47716725D01*
X119201514Y-47885726D01*
X119112664Y-48039617D01*
X118993761Y-48171673D01*
X118850000Y-48276122D01*
X118687664Y-48348398D01*
X118513849Y-48385344D01*
X118336151Y-48385344D01*
X118162336Y-48348398D01*
X118000000Y-48276122D01*
X117856239Y-48171673D01*
X117737336Y-48039617D01*
X117648486Y-47885726D01*
X117593575Y-47716725D01*
X117575000Y-47540000D01*
X117593575Y-47363275D01*
X117648486Y-47194274D01*
X117737336Y-47040383D01*
X117856239Y-46908327D01*
X118000000Y-46803878D01*
X118162336Y-46731602D01*
X118336151Y-46694656D01*
X118513849Y-46694656D01*
X118687664Y-46731602D01*
G37*
G36*
X119275000Y-45850000D02*
G01*
X117575000Y-45850000D01*
X117575000Y-44150000D01*
X119275000Y-44150000D01*
X119275000Y-45850000D01*
G37*
G36*
X62807664Y-44191602D02*
G01*
X62970000Y-44263878D01*
X63113761Y-44368327D01*
X63232664Y-44500383D01*
X63321514Y-44654274D01*
X63376425Y-44823275D01*
X63395000Y-45000000D01*
X63376425Y-45176725D01*
X63321514Y-45345726D01*
X63232664Y-45499617D01*
X63113761Y-45631673D01*
X62970000Y-45736122D01*
X62807664Y-45808398D01*
X62633849Y-45845344D01*
X62456151Y-45845344D01*
X62282336Y-45808398D01*
X62120000Y-45736122D01*
X61976239Y-45631673D01*
X61857336Y-45499617D01*
X61768486Y-45345726D01*
X61713575Y-45176725D01*
X61695000Y-45000000D01*
X61713575Y-44823275D01*
X61768486Y-44654274D01*
X61857336Y-44500383D01*
X61976239Y-44368327D01*
X62120000Y-44263878D01*
X62282336Y-44191602D01*
X62456151Y-44154656D01*
X62633849Y-44154656D01*
X62807664Y-44191602D01*
G37*
G36*
X65347664Y-44191602D02*
G01*
X65510000Y-44263878D01*
X65653761Y-44368327D01*
X65772664Y-44500383D01*
X65861514Y-44654274D01*
X65916425Y-44823275D01*
X65935000Y-45000000D01*
X65916425Y-45176725D01*
X65861514Y-45345726D01*
X65772664Y-45499617D01*
X65653761Y-45631673D01*
X65510000Y-45736122D01*
X65347664Y-45808398D01*
X65173849Y-45845344D01*
X64996151Y-45845344D01*
X64822336Y-45808398D01*
X64660000Y-45736122D01*
X64516239Y-45631673D01*
X64397336Y-45499617D01*
X64308486Y-45345726D01*
X64253575Y-45176725D01*
X64235000Y-45000000D01*
X64253575Y-44823275D01*
X64308486Y-44654274D01*
X64397336Y-44500383D01*
X64516239Y-44368327D01*
X64660000Y-44263878D01*
X64822336Y-44191602D01*
X64996151Y-44154656D01*
X65173849Y-44154656D01*
X65347664Y-44191602D01*
G37*
G36*
X67887664Y-44191602D02*
G01*
X68050000Y-44263878D01*
X68193761Y-44368327D01*
X68312664Y-44500383D01*
X68401514Y-44654274D01*
X68456425Y-44823275D01*
X68475000Y-45000000D01*
X68456425Y-45176725D01*
X68401514Y-45345726D01*
X68312664Y-45499617D01*
X68193761Y-45631673D01*
X68050000Y-45736122D01*
X67887664Y-45808398D01*
X67713849Y-45845344D01*
X67536151Y-45845344D01*
X67362336Y-45808398D01*
X67200000Y-45736122D01*
X67056239Y-45631673D01*
X66937336Y-45499617D01*
X66848486Y-45345726D01*
X66793575Y-45176725D01*
X66775000Y-45000000D01*
X66793575Y-44823275D01*
X66848486Y-44654274D01*
X66937336Y-44500383D01*
X67056239Y-44368327D01*
X67200000Y-44263878D01*
X67362336Y-44191602D01*
X67536151Y-44154656D01*
X67713849Y-44154656D01*
X67887664Y-44191602D01*
G37*
G36*
X70427664Y-44191602D02*
G01*
X70590000Y-44263878D01*
X70733761Y-44368327D01*
X70852664Y-44500383D01*
X70941514Y-44654274D01*
X70996425Y-44823275D01*
X71015000Y-45000000D01*
X70996425Y-45176725D01*
X70941514Y-45345726D01*
X70852664Y-45499617D01*
X70733761Y-45631673D01*
X70590000Y-45736122D01*
X70427664Y-45808398D01*
X70253849Y-45845344D01*
X70076151Y-45845344D01*
X69902336Y-45808398D01*
X69740000Y-45736122D01*
X69596239Y-45631673D01*
X69477336Y-45499617D01*
X69388486Y-45345726D01*
X69333575Y-45176725D01*
X69315000Y-45000000D01*
X69333575Y-44823275D01*
X69388486Y-44654274D01*
X69477336Y-44500383D01*
X69596239Y-44368327D01*
X69740000Y-44263878D01*
X69902336Y-44191602D01*
X70076151Y-44154656D01*
X70253849Y-44154656D01*
X70427664Y-44191602D01*
G37*
G36*
X72967664Y-44191602D02*
G01*
X73130000Y-44263878D01*
X73273761Y-44368327D01*
X73392664Y-44500383D01*
X73481514Y-44654274D01*
X73536425Y-44823275D01*
X73555000Y-45000000D01*
X73536425Y-45176725D01*
X73481514Y-45345726D01*
X73392664Y-45499617D01*
X73273761Y-45631673D01*
X73130000Y-45736122D01*
X72967664Y-45808398D01*
X72793849Y-45845344D01*
X72616151Y-45845344D01*
X72442336Y-45808398D01*
X72280000Y-45736122D01*
X72136239Y-45631673D01*
X72017336Y-45499617D01*
X71928486Y-45345726D01*
X71873575Y-45176725D01*
X71855000Y-45000000D01*
X71873575Y-44823275D01*
X71928486Y-44654274D01*
X72017336Y-44500383D01*
X72136239Y-44368327D01*
X72280000Y-44263878D01*
X72442336Y-44191602D01*
X72616151Y-44154656D01*
X72793849Y-44154656D01*
X72967664Y-44191602D01*
G37*
G36*
X75507664Y-44191602D02*
G01*
X75670000Y-44263878D01*
X75813761Y-44368327D01*
X75932664Y-44500383D01*
X76021514Y-44654274D01*
X76076425Y-44823275D01*
X76095000Y-45000000D01*
X76076425Y-45176725D01*
X76021514Y-45345726D01*
X75932664Y-45499617D01*
X75813761Y-45631673D01*
X75670000Y-45736122D01*
X75507664Y-45808398D01*
X75333849Y-45845344D01*
X75156151Y-45845344D01*
X74982336Y-45808398D01*
X74820000Y-45736122D01*
X74676239Y-45631673D01*
X74557336Y-45499617D01*
X74468486Y-45345726D01*
X74413575Y-45176725D01*
X74395000Y-45000000D01*
X74413575Y-44823275D01*
X74468486Y-44654274D01*
X74557336Y-44500383D01*
X74676239Y-44368327D01*
X74820000Y-44263878D01*
X74982336Y-44191602D01*
X75156151Y-44154656D01*
X75333849Y-44154656D01*
X75507664Y-44191602D01*
G37*
G36*
X78047664Y-44191602D02*
G01*
X78210000Y-44263878D01*
X78353761Y-44368327D01*
X78472664Y-44500383D01*
X78561514Y-44654274D01*
X78616425Y-44823275D01*
X78635000Y-45000000D01*
X78616425Y-45176725D01*
X78561514Y-45345726D01*
X78472664Y-45499617D01*
X78353761Y-45631673D01*
X78210000Y-45736122D01*
X78047664Y-45808398D01*
X77873849Y-45845344D01*
X77696151Y-45845344D01*
X77522336Y-45808398D01*
X77360000Y-45736122D01*
X77216239Y-45631673D01*
X77097336Y-45499617D01*
X77008486Y-45345726D01*
X76953575Y-45176725D01*
X76935000Y-45000000D01*
X76953575Y-44823275D01*
X77008486Y-44654274D01*
X77097336Y-44500383D01*
X77216239Y-44368327D01*
X77360000Y-44263878D01*
X77522336Y-44191602D01*
X77696151Y-44154656D01*
X77873849Y-44154656D01*
X78047664Y-44191602D01*
G37*
G36*
X80587664Y-44191602D02*
G01*
X80750000Y-44263878D01*
X80893761Y-44368327D01*
X81012664Y-44500383D01*
X81101514Y-44654274D01*
X81156425Y-44823275D01*
X81175000Y-45000000D01*
X81156425Y-45176725D01*
X81101514Y-45345726D01*
X81012664Y-45499617D01*
X80893761Y-45631673D01*
X80750000Y-45736122D01*
X80587664Y-45808398D01*
X80413849Y-45845344D01*
X80236151Y-45845344D01*
X80062336Y-45808398D01*
X79900000Y-45736122D01*
X79756239Y-45631673D01*
X79637336Y-45499617D01*
X79548486Y-45345726D01*
X79493575Y-45176725D01*
X79475000Y-45000000D01*
X79493575Y-44823275D01*
X79548486Y-44654274D01*
X79637336Y-44500383D01*
X79756239Y-44368327D01*
X79900000Y-44263878D01*
X80062336Y-44191602D01*
X80236151Y-44154656D01*
X80413849Y-44154656D01*
X80587664Y-44191602D01*
G37*
G36*
X83127664Y-44191602D02*
G01*
X83290000Y-44263878D01*
X83433761Y-44368327D01*
X83552664Y-44500383D01*
X83641514Y-44654274D01*
X83696425Y-44823275D01*
X83715000Y-45000000D01*
X83696425Y-45176725D01*
X83641514Y-45345726D01*
X83552664Y-45499617D01*
X83433761Y-45631673D01*
X83290000Y-45736122D01*
X83127664Y-45808398D01*
X82953849Y-45845344D01*
X82776151Y-45845344D01*
X82602336Y-45808398D01*
X82440000Y-45736122D01*
X82296239Y-45631673D01*
X82177336Y-45499617D01*
X82088486Y-45345726D01*
X82033575Y-45176725D01*
X82015000Y-45000000D01*
X82033575Y-44823275D01*
X82088486Y-44654274D01*
X82177336Y-44500383D01*
X82296239Y-44368327D01*
X82440000Y-44263878D01*
X82602336Y-44191602D01*
X82776151Y-44154656D01*
X82953849Y-44154656D01*
X83127664Y-44191602D01*
G37*
G36*
X85667664Y-44191602D02*
G01*
X85830000Y-44263878D01*
X85973761Y-44368327D01*
X86092664Y-44500383D01*
X86181514Y-44654274D01*
X86236425Y-44823275D01*
X86255000Y-45000000D01*
X86236425Y-45176725D01*
X86181514Y-45345726D01*
X86092664Y-45499617D01*
X85973761Y-45631673D01*
X85830000Y-45736122D01*
X85667664Y-45808398D01*
X85493849Y-45845344D01*
X85316151Y-45845344D01*
X85142336Y-45808398D01*
X84980000Y-45736122D01*
X84836239Y-45631673D01*
X84717336Y-45499617D01*
X84628486Y-45345726D01*
X84573575Y-45176725D01*
X84555000Y-45000000D01*
X84573575Y-44823275D01*
X84628486Y-44654274D01*
X84717336Y-44500383D01*
X84836239Y-44368327D01*
X84980000Y-44263878D01*
X85142336Y-44191602D01*
X85316151Y-44154656D01*
X85493849Y-44154656D01*
X85667664Y-44191602D01*
G37*
G36*
X88207664Y-44191602D02*
G01*
X88370000Y-44263878D01*
X88513761Y-44368327D01*
X88632664Y-44500383D01*
X88721514Y-44654274D01*
X88776425Y-44823275D01*
X88795000Y-45000000D01*
X88776425Y-45176725D01*
X88721514Y-45345726D01*
X88632664Y-45499617D01*
X88513761Y-45631673D01*
X88370000Y-45736122D01*
X88207664Y-45808398D01*
X88033849Y-45845344D01*
X87856151Y-45845344D01*
X87682336Y-45808398D01*
X87520000Y-45736122D01*
X87376239Y-45631673D01*
X87257336Y-45499617D01*
X87168486Y-45345726D01*
X87113575Y-45176725D01*
X87095000Y-45000000D01*
X87113575Y-44823275D01*
X87168486Y-44654274D01*
X87257336Y-44500383D01*
X87376239Y-44368327D01*
X87520000Y-44263878D01*
X87682336Y-44191602D01*
X87856151Y-44154656D01*
X88033849Y-44154656D01*
X88207664Y-44191602D01*
G37*
G36*
X90747664Y-44191602D02*
G01*
X90910000Y-44263878D01*
X91053761Y-44368327D01*
X91172664Y-44500383D01*
X91261514Y-44654274D01*
X91316425Y-44823275D01*
X91335000Y-45000000D01*
X91316425Y-45176725D01*
X91261514Y-45345726D01*
X91172664Y-45499617D01*
X91053761Y-45631673D01*
X90910000Y-45736122D01*
X90747664Y-45808398D01*
X90573849Y-45845344D01*
X90396151Y-45845344D01*
X90222336Y-45808398D01*
X90060000Y-45736122D01*
X89916239Y-45631673D01*
X89797336Y-45499617D01*
X89708486Y-45345726D01*
X89653575Y-45176725D01*
X89635000Y-45000000D01*
X89653575Y-44823275D01*
X89708486Y-44654274D01*
X89797336Y-44500383D01*
X89916239Y-44368327D01*
X90060000Y-44263878D01*
X90222336Y-44191602D01*
X90396151Y-44154656D01*
X90573849Y-44154656D01*
X90747664Y-44191602D01*
G37*
G36*
X93287664Y-44191602D02*
G01*
X93450000Y-44263878D01*
X93593761Y-44368327D01*
X93712664Y-44500383D01*
X93801514Y-44654274D01*
X93856425Y-44823275D01*
X93875000Y-45000000D01*
X93856425Y-45176725D01*
X93801514Y-45345726D01*
X93712664Y-45499617D01*
X93593761Y-45631673D01*
X93450000Y-45736122D01*
X93287664Y-45808398D01*
X93113849Y-45845344D01*
X92936151Y-45845344D01*
X92762336Y-45808398D01*
X92600000Y-45736122D01*
X92456239Y-45631673D01*
X92337336Y-45499617D01*
X92248486Y-45345726D01*
X92193575Y-45176725D01*
X92175000Y-45000000D01*
X92193575Y-44823275D01*
X92248486Y-44654274D01*
X92337336Y-44500383D01*
X92456239Y-44368327D01*
X92600000Y-44263878D01*
X92762336Y-44191602D01*
X92936151Y-44154656D01*
X93113849Y-44154656D01*
X93287664Y-44191602D01*
G37*
G36*
X95827664Y-44191602D02*
G01*
X95990000Y-44263878D01*
X96133761Y-44368327D01*
X96252664Y-44500383D01*
X96341514Y-44654274D01*
X96396425Y-44823275D01*
X96415000Y-45000000D01*
X96396425Y-45176725D01*
X96341514Y-45345726D01*
X96252664Y-45499617D01*
X96133761Y-45631673D01*
X95990000Y-45736122D01*
X95827664Y-45808398D01*
X95653849Y-45845344D01*
X95476151Y-45845344D01*
X95302336Y-45808398D01*
X95140000Y-45736122D01*
X94996239Y-45631673D01*
X94877336Y-45499617D01*
X94788486Y-45345726D01*
X94733575Y-45176725D01*
X94715000Y-45000000D01*
X94733575Y-44823275D01*
X94788486Y-44654274D01*
X94877336Y-44500383D01*
X94996239Y-44368327D01*
X95140000Y-44263878D01*
X95302336Y-44191602D01*
X95476151Y-44154656D01*
X95653849Y-44154656D01*
X95827664Y-44191602D01*
G37*
G36*
X98367664Y-44191602D02*
G01*
X98530000Y-44263878D01*
X98673761Y-44368327D01*
X98792664Y-44500383D01*
X98881514Y-44654274D01*
X98936425Y-44823275D01*
X98955000Y-45000000D01*
X98936425Y-45176725D01*
X98881514Y-45345726D01*
X98792664Y-45499617D01*
X98673761Y-45631673D01*
X98530000Y-45736122D01*
X98367664Y-45808398D01*
X98193849Y-45845344D01*
X98016151Y-45845344D01*
X97842336Y-45808398D01*
X97680000Y-45736122D01*
X97536239Y-45631673D01*
X97417336Y-45499617D01*
X97328486Y-45345726D01*
X97273575Y-45176725D01*
X97255000Y-45000000D01*
X97273575Y-44823275D01*
X97328486Y-44654274D01*
X97417336Y-44500383D01*
X97536239Y-44368327D01*
X97680000Y-44263878D01*
X97842336Y-44191602D01*
X98016151Y-44154656D01*
X98193849Y-44154656D01*
X98367664Y-44191602D01*
G37*
G36*
X100907664Y-44191602D02*
G01*
X101070000Y-44263878D01*
X101213761Y-44368327D01*
X101332664Y-44500383D01*
X101421514Y-44654274D01*
X101476425Y-44823275D01*
X101495000Y-45000000D01*
X101476425Y-45176725D01*
X101421514Y-45345726D01*
X101332664Y-45499617D01*
X101213761Y-45631673D01*
X101070000Y-45736122D01*
X100907664Y-45808398D01*
X100733849Y-45845344D01*
X100556151Y-45845344D01*
X100382336Y-45808398D01*
X100220000Y-45736122D01*
X100076239Y-45631673D01*
X99957336Y-45499617D01*
X99868486Y-45345726D01*
X99813575Y-45176725D01*
X99795000Y-45000000D01*
X99813575Y-44823275D01*
X99868486Y-44654274D01*
X99957336Y-44500383D01*
X100076239Y-44368327D01*
X100220000Y-44263878D01*
X100382336Y-44191602D01*
X100556151Y-44154656D01*
X100733849Y-44154656D01*
X100907664Y-44191602D01*
G37*
G36*
X103447664Y-44191602D02*
G01*
X103610000Y-44263878D01*
X103753761Y-44368327D01*
X103872664Y-44500383D01*
X103961514Y-44654274D01*
X104016425Y-44823275D01*
X104035000Y-45000000D01*
X104016425Y-45176725D01*
X103961514Y-45345726D01*
X103872664Y-45499617D01*
X103753761Y-45631673D01*
X103610000Y-45736122D01*
X103447664Y-45808398D01*
X103273849Y-45845344D01*
X103096151Y-45845344D01*
X102922336Y-45808398D01*
X102760000Y-45736122D01*
X102616239Y-45631673D01*
X102497336Y-45499617D01*
X102408486Y-45345726D01*
X102353575Y-45176725D01*
X102335000Y-45000000D01*
X102353575Y-44823275D01*
X102408486Y-44654274D01*
X102497336Y-44500383D01*
X102616239Y-44368327D01*
X102760000Y-44263878D01*
X102922336Y-44191602D01*
X103096151Y-44154656D01*
X103273849Y-44154656D01*
X103447664Y-44191602D01*
G37*
G36*
X105987664Y-44191602D02*
G01*
X106150000Y-44263878D01*
X106293761Y-44368327D01*
X106412664Y-44500383D01*
X106501514Y-44654274D01*
X106556425Y-44823275D01*
X106575000Y-45000000D01*
X106556425Y-45176725D01*
X106501514Y-45345726D01*
X106412664Y-45499617D01*
X106293761Y-45631673D01*
X106150000Y-45736122D01*
X105987664Y-45808398D01*
X105813849Y-45845344D01*
X105636151Y-45845344D01*
X105462336Y-45808398D01*
X105300000Y-45736122D01*
X105156239Y-45631673D01*
X105037336Y-45499617D01*
X104948486Y-45345726D01*
X104893575Y-45176725D01*
X104875000Y-45000000D01*
X104893575Y-44823275D01*
X104948486Y-44654274D01*
X105037336Y-44500383D01*
X105156239Y-44368327D01*
X105300000Y-44263878D01*
X105462336Y-44191602D01*
X105636151Y-44154656D01*
X105813849Y-44154656D01*
X105987664Y-44191602D01*
G37*
G36*
X108527664Y-44191602D02*
G01*
X108690000Y-44263878D01*
X108833761Y-44368327D01*
X108952664Y-44500383D01*
X109041514Y-44654274D01*
X109096425Y-44823275D01*
X109115000Y-45000000D01*
X109096425Y-45176725D01*
X109041514Y-45345726D01*
X108952664Y-45499617D01*
X108833761Y-45631673D01*
X108690000Y-45736122D01*
X108527664Y-45808398D01*
X108353849Y-45845344D01*
X108176151Y-45845344D01*
X108002336Y-45808398D01*
X107840000Y-45736122D01*
X107696239Y-45631673D01*
X107577336Y-45499617D01*
X107488486Y-45345726D01*
X107433575Y-45176725D01*
X107415000Y-45000000D01*
X107433575Y-44823275D01*
X107488486Y-44654274D01*
X107577336Y-44500383D01*
X107696239Y-44368327D01*
X107840000Y-44263878D01*
X108002336Y-44191602D01*
X108176151Y-44154656D01*
X108353849Y-44154656D01*
X108527664Y-44191602D01*
G37*
G36*
X111067664Y-44191602D02*
G01*
X111230000Y-44263878D01*
X111373761Y-44368327D01*
X111492664Y-44500383D01*
X111581514Y-44654274D01*
X111636425Y-44823275D01*
X111655000Y-45000000D01*
X111636425Y-45176725D01*
X111581514Y-45345726D01*
X111492664Y-45499617D01*
X111373761Y-45631673D01*
X111230000Y-45736122D01*
X111067664Y-45808398D01*
X110893849Y-45845344D01*
X110716151Y-45845344D01*
X110542336Y-45808398D01*
X110380000Y-45736122D01*
X110236239Y-45631673D01*
X110117336Y-45499617D01*
X110028486Y-45345726D01*
X109973575Y-45176725D01*
X109955000Y-45000000D01*
X109973575Y-44823275D01*
X110028486Y-44654274D01*
X110117336Y-44500383D01*
X110236239Y-44368327D01*
X110380000Y-44263878D01*
X110542336Y-44191602D01*
X110716151Y-44154656D01*
X110893849Y-44154656D01*
X111067664Y-44191602D01*
G37*
G36*
X113607664Y-44191602D02*
G01*
X113770000Y-44263878D01*
X113913761Y-44368327D01*
X114032664Y-44500383D01*
X114121514Y-44654274D01*
X114176425Y-44823275D01*
X114195000Y-45000000D01*
X114176425Y-45176725D01*
X114121514Y-45345726D01*
X114032664Y-45499617D01*
X113913761Y-45631673D01*
X113770000Y-45736122D01*
X113607664Y-45808398D01*
X113433849Y-45845344D01*
X113256151Y-45845344D01*
X113082336Y-45808398D01*
X112920000Y-45736122D01*
X112776239Y-45631673D01*
X112657336Y-45499617D01*
X112568486Y-45345726D01*
X112513575Y-45176725D01*
X112495000Y-45000000D01*
X112513575Y-44823275D01*
X112568486Y-44654274D01*
X112657336Y-44500383D01*
X112776239Y-44368327D01*
X112920000Y-44263878D01*
X113082336Y-44191602D01*
X113256151Y-44154656D01*
X113433849Y-44154656D01*
X113607664Y-44191602D01*
G37*
G36*
X116147664Y-44191602D02*
G01*
X116310000Y-44263878D01*
X116453761Y-44368327D01*
X116572664Y-44500383D01*
X116661514Y-44654274D01*
X116716425Y-44823275D01*
X116735000Y-45000000D01*
X116716425Y-45176725D01*
X116661514Y-45345726D01*
X116572664Y-45499617D01*
X116453761Y-45631673D01*
X116310000Y-45736122D01*
X116147664Y-45808398D01*
X115973849Y-45845344D01*
X115796151Y-45845344D01*
X115622336Y-45808398D01*
X115460000Y-45736122D01*
X115316239Y-45631673D01*
X115197336Y-45499617D01*
X115108486Y-45345726D01*
X115053575Y-45176725D01*
X115035000Y-45000000D01*
X115053575Y-44823275D01*
X115108486Y-44654274D01*
X115197336Y-44500383D01*
X115316239Y-44368327D01*
X115460000Y-44263878D01*
X115622336Y-44191602D01*
X115796151Y-44154656D01*
X115973849Y-44154656D01*
X116147664Y-44191602D01*
G37*
M02*
